G04 #@! TF.GenerationSoftware,KiCad,Pcbnew,(5.1.9)-1*
G04 #@! TF.CreationDate,2021-05-18T23:01:19-05:00*
G04 #@! TF.ProjectId,Encoder,456e636f-6465-4722-9e6b-696361645f70,rev?*
G04 #@! TF.SameCoordinates,Original*
G04 #@! TF.FileFunction,Soldermask,Top*
G04 #@! TF.FilePolarity,Negative*
%FSLAX46Y46*%
G04 Gerber Fmt 4.6, Leading zero omitted, Abs format (unit mm)*
G04 Created by KiCad (PCBNEW (5.1.9)-1) date 2021-05-18 23:01:19*
%MOMM*%
%LPD*%
G01*
G04 APERTURE LIST*
%ADD10C,2.000000*%
%ADD11R,2.800000X3.600000*%
%ADD12O,1.200000X1.750000*%
G04 APERTURE END LIST*
D10*
X145650000Y-108550000D03*
X143150000Y-108550000D03*
X140650000Y-108550000D03*
X145650000Y-94050000D03*
X140650000Y-94050000D03*
D11*
X148850000Y-101050000D03*
X137450000Y-101050000D03*
G36*
G01*
X146600000Y-111049999D02*
X146600000Y-111950001D01*
G75*
G02*
X146350001Y-112200000I-249999J0D01*
G01*
X145649999Y-112200000D01*
G75*
G02*
X145400000Y-111950001I0J249999D01*
G01*
X145400000Y-111049999D01*
G75*
G02*
X145649999Y-110800000I249999J0D01*
G01*
X146350001Y-110800000D01*
G75*
G02*
X146600000Y-111049999I0J-249999D01*
G01*
G37*
G36*
G01*
X148600000Y-111049999D02*
X148600000Y-111950001D01*
G75*
G02*
X148350001Y-112200000I-249999J0D01*
G01*
X147649999Y-112200000D01*
G75*
G02*
X147400000Y-111950001I0J249999D01*
G01*
X147400000Y-111049999D01*
G75*
G02*
X147649999Y-110800000I249999J0D01*
G01*
X148350001Y-110800000D01*
G75*
G02*
X148600000Y-111049999I0J-249999D01*
G01*
G37*
G36*
G01*
X139900000Y-111950001D02*
X139900000Y-111049999D01*
G75*
G02*
X140149999Y-110800000I249999J0D01*
G01*
X140850001Y-110800000D01*
G75*
G02*
X141100000Y-111049999I0J-249999D01*
G01*
X141100000Y-111950001D01*
G75*
G02*
X140850001Y-112200000I-249999J0D01*
G01*
X140149999Y-112200000D01*
G75*
G02*
X139900000Y-111950001I0J249999D01*
G01*
G37*
G36*
G01*
X137900000Y-111950001D02*
X137900000Y-111049999D01*
G75*
G02*
X138149999Y-110800000I249999J0D01*
G01*
X138850001Y-110800000D01*
G75*
G02*
X139100000Y-111049999I0J-249999D01*
G01*
X139100000Y-111950001D01*
G75*
G02*
X138850001Y-112200000I-249999J0D01*
G01*
X138149999Y-112200000D01*
G75*
G02*
X137900000Y-111950001I0J249999D01*
G01*
G37*
D12*
X147000000Y-116000000D03*
X145000000Y-116000000D03*
X143000000Y-116000000D03*
X141000000Y-116000000D03*
G36*
G01*
X138400000Y-116625001D02*
X138400000Y-115374999D01*
G75*
G02*
X138649999Y-115125000I249999J0D01*
G01*
X139350001Y-115125000D01*
G75*
G02*
X139600000Y-115374999I0J-249999D01*
G01*
X139600000Y-116625001D01*
G75*
G02*
X139350001Y-116875000I-249999J0D01*
G01*
X138649999Y-116875000D01*
G75*
G02*
X138400000Y-116625001I0J249999D01*
G01*
G37*
M02*
