%FSLAX45Y45*%
G04 Gerber Fmt 4.5, Leading zero omitted, Abs format (unit mm)*
G04 Created by KiCad (PCBNEW (5.1.9)-1) date 2021-05-18 23:01:26*
%MOMM*%
%LPD*%
G01*
G04 APERTURE LIST*
%TA.AperFunction,Profile*%
%ADD10C,0.025400*%
%TD*%
%ADD11C,0.200000*%
%ADD12C,0.300000*%
G04 APERTURE END LIST*
D10*
X13550000Y-11800000D02*
X13550000Y-9250000D01*
X15100000Y-11800000D02*
X13550000Y-11800000D01*
X15100000Y-9250000D02*
X15100000Y-11800000D01*
X13550000Y-9250000D02*
X15100000Y-9250000D01*
D11*
X13862500Y-11562500D02*
X13937500Y-11637500D01*
X13937500Y-11562500D02*
X13862500Y-11637500D01*
X14062500Y-11562500D02*
X14137500Y-11637500D01*
X14137500Y-11562500D02*
X14062500Y-11637500D01*
X14262500Y-11562500D02*
X14337500Y-11637500D01*
X14337500Y-11562500D02*
X14262500Y-11637500D01*
X14462500Y-11562500D02*
X14537500Y-11637500D01*
X14537500Y-11562500D02*
X14462500Y-11637500D01*
X14662500Y-11562500D02*
X14737500Y-11637500D01*
X14737500Y-11562500D02*
X14662500Y-11637500D01*
X14115000Y-9405000D02*
G75*
G03*
X14115000Y-9405000I-50000J0D01*
G01*
X14115000Y-10855000D02*
G75*
G03*
X14115000Y-10855000I-50000J0D01*
G01*
X14365000Y-10855000D02*
G75*
G03*
X14365000Y-10855000I-50000J0D01*
G01*
X14615000Y-9405000D02*
G75*
G03*
X14615000Y-9405000I-50000J0D01*
G01*
X14615000Y-10855000D02*
G75*
G03*
X14615000Y-10855000I-50000J0D01*
G01*
X13745000Y-10015000D02*
X13745000Y-10195000D01*
X13655000Y-10105000D02*
X13835000Y-10105000D01*
X13665000Y-10065000D02*
X13665000Y-10145000D01*
X13825000Y-10065000D02*
X13825000Y-10145000D01*
X13665000Y-10145000D02*
G75*
G03*
X13825000Y-10145000I80000J0D01*
G01*
X13825000Y-10065000D02*
G75*
G03*
X13665000Y-10065000I-80000J0D01*
G01*
X14885000Y-10015000D02*
X14885000Y-10195000D01*
X14795000Y-10105000D02*
X14975000Y-10105000D01*
X14805000Y-10065000D02*
X14805000Y-10145000D01*
X14965000Y-10065000D02*
X14965000Y-10145000D01*
X14805000Y-10145000D02*
G75*
G03*
X14965000Y-10145000I80000J0D01*
G01*
X14965000Y-10065000D02*
G75*
G03*
X14805000Y-10065000I-80000J0D01*
G01*
D12*
X13835158Y-12266984D02*
X13835158Y-11966984D01*
X13906587Y-11966984D01*
X13949444Y-11981270D01*
X13978016Y-12009841D01*
X13992301Y-12038413D01*
X14006587Y-12095556D01*
X14006587Y-12138413D01*
X13992301Y-12195556D01*
X13978016Y-12224127D01*
X13949444Y-12252699D01*
X13906587Y-12266984D01*
X13835158Y-12266984D01*
X14135158Y-12266984D02*
X14135158Y-12066984D01*
X14135158Y-12124127D02*
X14149444Y-12095556D01*
X14163730Y-12081270D01*
X14192301Y-12066984D01*
X14220873Y-12066984D01*
X14320873Y-12266984D02*
X14320873Y-12066984D01*
X14320873Y-11966984D02*
X14306587Y-11981270D01*
X14320873Y-11995556D01*
X14335158Y-11981270D01*
X14320873Y-11966984D01*
X14320873Y-11995556D01*
X14506587Y-12266984D02*
X14478016Y-12252699D01*
X14463730Y-12224127D01*
X14463730Y-11966984D01*
X14663730Y-12266984D02*
X14635158Y-12252699D01*
X14620873Y-12224127D01*
X14620873Y-11966984D01*
X15006587Y-12266984D02*
X15006587Y-11966984D01*
X15106587Y-12181270D01*
X15206587Y-11966984D01*
X15206587Y-12266984D01*
X15478016Y-12266984D02*
X15478016Y-12109841D01*
X15463730Y-12081270D01*
X15435158Y-12066984D01*
X15378016Y-12066984D01*
X15349444Y-12081270D01*
X15478016Y-12252699D02*
X15449444Y-12266984D01*
X15378016Y-12266984D01*
X15349444Y-12252699D01*
X15335158Y-12224127D01*
X15335158Y-12195556D01*
X15349444Y-12166984D01*
X15378016Y-12152699D01*
X15449444Y-12152699D01*
X15478016Y-12138413D01*
X15620873Y-12066984D02*
X15620873Y-12366984D01*
X15620873Y-12081270D02*
X15649444Y-12066984D01*
X15706587Y-12066984D01*
X15735158Y-12081270D01*
X15749444Y-12095556D01*
X15763730Y-12124127D01*
X15763730Y-12209841D01*
X15749444Y-12238413D01*
X15735158Y-12252699D01*
X15706587Y-12266984D01*
X15649444Y-12266984D01*
X15620873Y-12252699D01*
X15892301Y-12238413D02*
X15906587Y-12252699D01*
X15892301Y-12266984D01*
X15878016Y-12252699D01*
X15892301Y-12238413D01*
X15892301Y-12266984D01*
X15892301Y-12081270D02*
X15906587Y-12095556D01*
X15892301Y-12109841D01*
X15878016Y-12095556D01*
X15892301Y-12081270D01*
X15892301Y-12109841D01*
X13473730Y-12723770D02*
X13548730Y-12798770D01*
X13548730Y-12723770D02*
X13473730Y-12798770D01*
X13892301Y-12596984D02*
X13920873Y-12596984D01*
X13949444Y-12611270D01*
X13963730Y-12625556D01*
X13978016Y-12654127D01*
X13992301Y-12711270D01*
X13992301Y-12782699D01*
X13978016Y-12839841D01*
X13963730Y-12868413D01*
X13949444Y-12882699D01*
X13920873Y-12896984D01*
X13892301Y-12896984D01*
X13863730Y-12882699D01*
X13849444Y-12868413D01*
X13835158Y-12839841D01*
X13820873Y-12782699D01*
X13820873Y-12711270D01*
X13835158Y-12654127D01*
X13849444Y-12625556D01*
X13863730Y-12611270D01*
X13892301Y-12596984D01*
X14120873Y-12868413D02*
X14135158Y-12882699D01*
X14120873Y-12896984D01*
X14106587Y-12882699D01*
X14120873Y-12868413D01*
X14120873Y-12896984D01*
X14235158Y-12596984D02*
X14435158Y-12596984D01*
X14306587Y-12896984D01*
X14692301Y-12596984D02*
X14549444Y-12596984D01*
X14535158Y-12739841D01*
X14549444Y-12725556D01*
X14578016Y-12711270D01*
X14649444Y-12711270D01*
X14678016Y-12725556D01*
X14692301Y-12739841D01*
X14706587Y-12768413D01*
X14706587Y-12839841D01*
X14692301Y-12868413D01*
X14678016Y-12882699D01*
X14649444Y-12896984D01*
X14578016Y-12896984D01*
X14549444Y-12882699D01*
X14535158Y-12868413D01*
X14835158Y-12896984D02*
X14835158Y-12696984D01*
X14835158Y-12725556D02*
X14849444Y-12711270D01*
X14878016Y-12696984D01*
X14920873Y-12696984D01*
X14949444Y-12711270D01*
X14963730Y-12739841D01*
X14963730Y-12896984D01*
X14963730Y-12739841D02*
X14978016Y-12711270D01*
X15006587Y-12696984D01*
X15049444Y-12696984D01*
X15078016Y-12711270D01*
X15092301Y-12739841D01*
X15092301Y-12896984D01*
X15235158Y-12896984D02*
X15235158Y-12696984D01*
X15235158Y-12725556D02*
X15249444Y-12711270D01*
X15278016Y-12696984D01*
X15320873Y-12696984D01*
X15349444Y-12711270D01*
X15363730Y-12739841D01*
X15363730Y-12896984D01*
X15363730Y-12739841D02*
X15378016Y-12711270D01*
X15406587Y-12696984D01*
X15449444Y-12696984D01*
X15478016Y-12711270D01*
X15492301Y-12739841D01*
X15492301Y-12896984D01*
X16078016Y-12582699D02*
X15820873Y-12968413D01*
X16463730Y-12596984D02*
X16492301Y-12596984D01*
X16520873Y-12611270D01*
X16535158Y-12625556D01*
X16549444Y-12654127D01*
X16563730Y-12711270D01*
X16563730Y-12782699D01*
X16549444Y-12839841D01*
X16535158Y-12868413D01*
X16520873Y-12882699D01*
X16492301Y-12896984D01*
X16463730Y-12896984D01*
X16435158Y-12882699D01*
X16420873Y-12868413D01*
X16406587Y-12839841D01*
X16392301Y-12782699D01*
X16392301Y-12711270D01*
X16406587Y-12654127D01*
X16420873Y-12625556D01*
X16435158Y-12611270D01*
X16463730Y-12596984D01*
X16692301Y-12868413D02*
X16706587Y-12882699D01*
X16692301Y-12896984D01*
X16678016Y-12882699D01*
X16692301Y-12868413D01*
X16692301Y-12896984D01*
X16892301Y-12596984D02*
X16920873Y-12596984D01*
X16949444Y-12611270D01*
X16963730Y-12625556D01*
X16978016Y-12654127D01*
X16992301Y-12711270D01*
X16992301Y-12782699D01*
X16978016Y-12839841D01*
X16963730Y-12868413D01*
X16949444Y-12882699D01*
X16920873Y-12896984D01*
X16892301Y-12896984D01*
X16863730Y-12882699D01*
X16849444Y-12868413D01*
X16835158Y-12839841D01*
X16820873Y-12782699D01*
X16820873Y-12711270D01*
X16835158Y-12654127D01*
X16849444Y-12625556D01*
X16863730Y-12611270D01*
X16892301Y-12596984D01*
X17092301Y-12596984D02*
X17278016Y-12596984D01*
X17178016Y-12711270D01*
X17220873Y-12711270D01*
X17249444Y-12725556D01*
X17263730Y-12739841D01*
X17278016Y-12768413D01*
X17278016Y-12839841D01*
X17263730Y-12868413D01*
X17249444Y-12882699D01*
X17220873Y-12896984D01*
X17135158Y-12896984D01*
X17106587Y-12882699D01*
X17092301Y-12868413D01*
X17463730Y-12596984D02*
X17492301Y-12596984D01*
X17520873Y-12611270D01*
X17535158Y-12625556D01*
X17549444Y-12654127D01*
X17563730Y-12711270D01*
X17563730Y-12782699D01*
X17549444Y-12839841D01*
X17535158Y-12868413D01*
X17520873Y-12882699D01*
X17492301Y-12896984D01*
X17463730Y-12896984D01*
X17435158Y-12882699D01*
X17420873Y-12868413D01*
X17406587Y-12839841D01*
X17392301Y-12782699D01*
X17392301Y-12711270D01*
X17406587Y-12654127D01*
X17420873Y-12625556D01*
X17435158Y-12611270D01*
X17463730Y-12596984D01*
X17678016Y-12596984D02*
X17678016Y-12654127D01*
X17792301Y-12596984D02*
X17792301Y-12654127D01*
X18235158Y-13011270D02*
X18220873Y-12996984D01*
X18192301Y-12954127D01*
X18178016Y-12925556D01*
X18163730Y-12882699D01*
X18149444Y-12811270D01*
X18149444Y-12754127D01*
X18163730Y-12682699D01*
X18178016Y-12639841D01*
X18192301Y-12611270D01*
X18220873Y-12568413D01*
X18235158Y-12554127D01*
X18492301Y-12596984D02*
X18349444Y-12596984D01*
X18335158Y-12739841D01*
X18349444Y-12725556D01*
X18378016Y-12711270D01*
X18449444Y-12711270D01*
X18478016Y-12725556D01*
X18492301Y-12739841D01*
X18506587Y-12768413D01*
X18506587Y-12839841D01*
X18492301Y-12868413D01*
X18478016Y-12882699D01*
X18449444Y-12896984D01*
X18378016Y-12896984D01*
X18349444Y-12882699D01*
X18335158Y-12868413D01*
X18863730Y-12896984D02*
X18863730Y-12596984D01*
X18992301Y-12896984D02*
X18992301Y-12739841D01*
X18978016Y-12711270D01*
X18949444Y-12696984D01*
X18906587Y-12696984D01*
X18878016Y-12711270D01*
X18863730Y-12725556D01*
X19178016Y-12896984D02*
X19149444Y-12882699D01*
X19135158Y-12868413D01*
X19120873Y-12839841D01*
X19120873Y-12754127D01*
X19135158Y-12725556D01*
X19149444Y-12711270D01*
X19178016Y-12696984D01*
X19220873Y-12696984D01*
X19249444Y-12711270D01*
X19263730Y-12725556D01*
X19278016Y-12754127D01*
X19278016Y-12839841D01*
X19263730Y-12868413D01*
X19249444Y-12882699D01*
X19220873Y-12896984D01*
X19178016Y-12896984D01*
X19449444Y-12896984D02*
X19420873Y-12882699D01*
X19406587Y-12854127D01*
X19406587Y-12596984D01*
X19678016Y-12882699D02*
X19649444Y-12896984D01*
X19592301Y-12896984D01*
X19563730Y-12882699D01*
X19549444Y-12854127D01*
X19549444Y-12739841D01*
X19563730Y-12711270D01*
X19592301Y-12696984D01*
X19649444Y-12696984D01*
X19678016Y-12711270D01*
X19692301Y-12739841D01*
X19692301Y-12768413D01*
X19549444Y-12796984D01*
X19806587Y-12882699D02*
X19835158Y-12896984D01*
X19892301Y-12896984D01*
X19920873Y-12882699D01*
X19935158Y-12854127D01*
X19935158Y-12839841D01*
X19920873Y-12811270D01*
X19892301Y-12796984D01*
X19849444Y-12796984D01*
X19820873Y-12782699D01*
X19806587Y-12754127D01*
X19806587Y-12739841D01*
X19820873Y-12711270D01*
X19849444Y-12696984D01*
X19892301Y-12696984D01*
X19920873Y-12711270D01*
X20035158Y-13011270D02*
X20049444Y-12996984D01*
X20078016Y-12954127D01*
X20092301Y-12925556D01*
X20106587Y-12882699D01*
X20120873Y-12811270D01*
X20120873Y-12754127D01*
X20106587Y-12682699D01*
X20092301Y-12639841D01*
X20078016Y-12611270D01*
X20049444Y-12568413D01*
X20035158Y-12554127D01*
X13548730Y-13157270D02*
G75*
G03*
X13548730Y-13157270I-50000J0D01*
G01*
X13992301Y-13292984D02*
X13820873Y-13292984D01*
X13906587Y-13292984D02*
X13906587Y-12992984D01*
X13878016Y-13035841D01*
X13849444Y-13064413D01*
X13820873Y-13078699D01*
X14120873Y-13264413D02*
X14135158Y-13278699D01*
X14120873Y-13292984D01*
X14106587Y-13278699D01*
X14120873Y-13264413D01*
X14120873Y-13292984D01*
X14320873Y-12992984D02*
X14349444Y-12992984D01*
X14378016Y-13007270D01*
X14392301Y-13021556D01*
X14406587Y-13050127D01*
X14420873Y-13107270D01*
X14420873Y-13178699D01*
X14406587Y-13235841D01*
X14392301Y-13264413D01*
X14378016Y-13278699D01*
X14349444Y-13292984D01*
X14320873Y-13292984D01*
X14292301Y-13278699D01*
X14278016Y-13264413D01*
X14263730Y-13235841D01*
X14249444Y-13178699D01*
X14249444Y-13107270D01*
X14263730Y-13050127D01*
X14278016Y-13021556D01*
X14292301Y-13007270D01*
X14320873Y-12992984D01*
X14606587Y-12992984D02*
X14635158Y-12992984D01*
X14663730Y-13007270D01*
X14678016Y-13021556D01*
X14692301Y-13050127D01*
X14706587Y-13107270D01*
X14706587Y-13178699D01*
X14692301Y-13235841D01*
X14678016Y-13264413D01*
X14663730Y-13278699D01*
X14635158Y-13292984D01*
X14606587Y-13292984D01*
X14578016Y-13278699D01*
X14563730Y-13264413D01*
X14549444Y-13235841D01*
X14535158Y-13178699D01*
X14535158Y-13107270D01*
X14549444Y-13050127D01*
X14563730Y-13021556D01*
X14578016Y-13007270D01*
X14606587Y-12992984D01*
X14835158Y-13292984D02*
X14835158Y-13092984D01*
X14835158Y-13121556D02*
X14849444Y-13107270D01*
X14878016Y-13092984D01*
X14920873Y-13092984D01*
X14949444Y-13107270D01*
X14963730Y-13135841D01*
X14963730Y-13292984D01*
X14963730Y-13135841D02*
X14978016Y-13107270D01*
X15006587Y-13092984D01*
X15049444Y-13092984D01*
X15078016Y-13107270D01*
X15092301Y-13135841D01*
X15092301Y-13292984D01*
X15235158Y-13292984D02*
X15235158Y-13092984D01*
X15235158Y-13121556D02*
X15249444Y-13107270D01*
X15278016Y-13092984D01*
X15320873Y-13092984D01*
X15349444Y-13107270D01*
X15363730Y-13135841D01*
X15363730Y-13292984D01*
X15363730Y-13135841D02*
X15378016Y-13107270D01*
X15406587Y-13092984D01*
X15449444Y-13092984D01*
X15478016Y-13107270D01*
X15492301Y-13135841D01*
X15492301Y-13292984D01*
X16078016Y-12978699D02*
X15820873Y-13364413D01*
X16463730Y-12992984D02*
X16492301Y-12992984D01*
X16520873Y-13007270D01*
X16535158Y-13021556D01*
X16549444Y-13050127D01*
X16563730Y-13107270D01*
X16563730Y-13178699D01*
X16549444Y-13235841D01*
X16535158Y-13264413D01*
X16520873Y-13278699D01*
X16492301Y-13292984D01*
X16463730Y-13292984D01*
X16435158Y-13278699D01*
X16420873Y-13264413D01*
X16406587Y-13235841D01*
X16392301Y-13178699D01*
X16392301Y-13107270D01*
X16406587Y-13050127D01*
X16420873Y-13021556D01*
X16435158Y-13007270D01*
X16463730Y-12992984D01*
X16692301Y-13264413D02*
X16706587Y-13278699D01*
X16692301Y-13292984D01*
X16678016Y-13278699D01*
X16692301Y-13264413D01*
X16692301Y-13292984D01*
X16892301Y-12992984D02*
X16920873Y-12992984D01*
X16949444Y-13007270D01*
X16963730Y-13021556D01*
X16978016Y-13050127D01*
X16992301Y-13107270D01*
X16992301Y-13178699D01*
X16978016Y-13235841D01*
X16963730Y-13264413D01*
X16949444Y-13278699D01*
X16920873Y-13292984D01*
X16892301Y-13292984D01*
X16863730Y-13278699D01*
X16849444Y-13264413D01*
X16835158Y-13235841D01*
X16820873Y-13178699D01*
X16820873Y-13107270D01*
X16835158Y-13050127D01*
X16849444Y-13021556D01*
X16863730Y-13007270D01*
X16892301Y-12992984D01*
X17092301Y-12992984D02*
X17278016Y-12992984D01*
X17178016Y-13107270D01*
X17220873Y-13107270D01*
X17249444Y-13121556D01*
X17263730Y-13135841D01*
X17278016Y-13164413D01*
X17278016Y-13235841D01*
X17263730Y-13264413D01*
X17249444Y-13278699D01*
X17220873Y-13292984D01*
X17135158Y-13292984D01*
X17106587Y-13278699D01*
X17092301Y-13264413D01*
X17420873Y-13292984D02*
X17478016Y-13292984D01*
X17506587Y-13278699D01*
X17520873Y-13264413D01*
X17549444Y-13221556D01*
X17563730Y-13164413D01*
X17563730Y-13050127D01*
X17549444Y-13021556D01*
X17535158Y-13007270D01*
X17506587Y-12992984D01*
X17449444Y-12992984D01*
X17420873Y-13007270D01*
X17406587Y-13021556D01*
X17392301Y-13050127D01*
X17392301Y-13121556D01*
X17406587Y-13150127D01*
X17420873Y-13164413D01*
X17449444Y-13178699D01*
X17506587Y-13178699D01*
X17535158Y-13164413D01*
X17549444Y-13150127D01*
X17563730Y-13121556D01*
X17678016Y-12992984D02*
X17678016Y-13050127D01*
X17792301Y-12992984D02*
X17792301Y-13050127D01*
X18235158Y-13407270D02*
X18220873Y-13392984D01*
X18192301Y-13350127D01*
X18178016Y-13321556D01*
X18163730Y-13278699D01*
X18149444Y-13207270D01*
X18149444Y-13150127D01*
X18163730Y-13078699D01*
X18178016Y-13035841D01*
X18192301Y-13007270D01*
X18220873Y-12964413D01*
X18235158Y-12950127D01*
X18492301Y-12992984D02*
X18349444Y-12992984D01*
X18335158Y-13135841D01*
X18349444Y-13121556D01*
X18378016Y-13107270D01*
X18449444Y-13107270D01*
X18478016Y-13121556D01*
X18492301Y-13135841D01*
X18506587Y-13164413D01*
X18506587Y-13235841D01*
X18492301Y-13264413D01*
X18478016Y-13278699D01*
X18449444Y-13292984D01*
X18378016Y-13292984D01*
X18349444Y-13278699D01*
X18335158Y-13264413D01*
X18863730Y-13292984D02*
X18863730Y-12992984D01*
X18992301Y-13292984D02*
X18992301Y-13135841D01*
X18978016Y-13107270D01*
X18949444Y-13092984D01*
X18906587Y-13092984D01*
X18878016Y-13107270D01*
X18863730Y-13121556D01*
X19178016Y-13292984D02*
X19149444Y-13278699D01*
X19135158Y-13264413D01*
X19120873Y-13235841D01*
X19120873Y-13150127D01*
X19135158Y-13121556D01*
X19149444Y-13107270D01*
X19178016Y-13092984D01*
X19220873Y-13092984D01*
X19249444Y-13107270D01*
X19263730Y-13121556D01*
X19278016Y-13150127D01*
X19278016Y-13235841D01*
X19263730Y-13264413D01*
X19249444Y-13278699D01*
X19220873Y-13292984D01*
X19178016Y-13292984D01*
X19449444Y-13292984D02*
X19420873Y-13278699D01*
X19406587Y-13250127D01*
X19406587Y-12992984D01*
X19678016Y-13278699D02*
X19649444Y-13292984D01*
X19592301Y-13292984D01*
X19563730Y-13278699D01*
X19549444Y-13250127D01*
X19549444Y-13135841D01*
X19563730Y-13107270D01*
X19592301Y-13092984D01*
X19649444Y-13092984D01*
X19678016Y-13107270D01*
X19692301Y-13135841D01*
X19692301Y-13164413D01*
X19549444Y-13192984D01*
X19806587Y-13278699D02*
X19835158Y-13292984D01*
X19892301Y-13292984D01*
X19920873Y-13278699D01*
X19935158Y-13250127D01*
X19935158Y-13235841D01*
X19920873Y-13207270D01*
X19892301Y-13192984D01*
X19849444Y-13192984D01*
X19820873Y-13178699D01*
X19806587Y-13150127D01*
X19806587Y-13135841D01*
X19820873Y-13107270D01*
X19849444Y-13092984D01*
X19892301Y-13092984D01*
X19920873Y-13107270D01*
X20035158Y-13407270D02*
X20049444Y-13392984D01*
X20078016Y-13350127D01*
X20092301Y-13321556D01*
X20106587Y-13278699D01*
X20120873Y-13207270D01*
X20120873Y-13150127D01*
X20106587Y-13078699D01*
X20092301Y-13035841D01*
X20078016Y-13007270D01*
X20049444Y-12964413D01*
X20035158Y-12950127D01*
X13458730Y-13463270D02*
X13458730Y-13643270D01*
X13368730Y-13553270D02*
X13548730Y-13553270D01*
X13992301Y-13688984D02*
X13820873Y-13688984D01*
X13906587Y-13688984D02*
X13906587Y-13388984D01*
X13878016Y-13431841D01*
X13849444Y-13460413D01*
X13820873Y-13474699D01*
X14120873Y-13660413D02*
X14135158Y-13674699D01*
X14120873Y-13688984D01*
X14106587Y-13674699D01*
X14120873Y-13660413D01*
X14120873Y-13688984D01*
X14306587Y-13517556D02*
X14278016Y-13503270D01*
X14263730Y-13488984D01*
X14249444Y-13460413D01*
X14249444Y-13446127D01*
X14263730Y-13417556D01*
X14278016Y-13403270D01*
X14306587Y-13388984D01*
X14363730Y-13388984D01*
X14392301Y-13403270D01*
X14406587Y-13417556D01*
X14420873Y-13446127D01*
X14420873Y-13460413D01*
X14406587Y-13488984D01*
X14392301Y-13503270D01*
X14363730Y-13517556D01*
X14306587Y-13517556D01*
X14278016Y-13531841D01*
X14263730Y-13546127D01*
X14249444Y-13574699D01*
X14249444Y-13631841D01*
X14263730Y-13660413D01*
X14278016Y-13674699D01*
X14306587Y-13688984D01*
X14363730Y-13688984D01*
X14392301Y-13674699D01*
X14406587Y-13660413D01*
X14420873Y-13631841D01*
X14420873Y-13574699D01*
X14406587Y-13546127D01*
X14392301Y-13531841D01*
X14363730Y-13517556D01*
X14606587Y-13388984D02*
X14635158Y-13388984D01*
X14663730Y-13403270D01*
X14678016Y-13417556D01*
X14692301Y-13446127D01*
X14706587Y-13503270D01*
X14706587Y-13574699D01*
X14692301Y-13631841D01*
X14678016Y-13660413D01*
X14663730Y-13674699D01*
X14635158Y-13688984D01*
X14606587Y-13688984D01*
X14578016Y-13674699D01*
X14563730Y-13660413D01*
X14549444Y-13631841D01*
X14535158Y-13574699D01*
X14535158Y-13503270D01*
X14549444Y-13446127D01*
X14563730Y-13417556D01*
X14578016Y-13403270D01*
X14606587Y-13388984D01*
X14835158Y-13688984D02*
X14835158Y-13488984D01*
X14835158Y-13517556D02*
X14849444Y-13503270D01*
X14878016Y-13488984D01*
X14920873Y-13488984D01*
X14949444Y-13503270D01*
X14963730Y-13531841D01*
X14963730Y-13688984D01*
X14963730Y-13531841D02*
X14978016Y-13503270D01*
X15006587Y-13488984D01*
X15049444Y-13488984D01*
X15078016Y-13503270D01*
X15092301Y-13531841D01*
X15092301Y-13688984D01*
X15235158Y-13688984D02*
X15235158Y-13488984D01*
X15235158Y-13517556D02*
X15249444Y-13503270D01*
X15278016Y-13488984D01*
X15320873Y-13488984D01*
X15349444Y-13503270D01*
X15363730Y-13531841D01*
X15363730Y-13688984D01*
X15363730Y-13531841D02*
X15378016Y-13503270D01*
X15406587Y-13488984D01*
X15449444Y-13488984D01*
X15478016Y-13503270D01*
X15492301Y-13531841D01*
X15492301Y-13688984D01*
X16078016Y-13374699D02*
X15820873Y-13760413D01*
X16463730Y-13388984D02*
X16492301Y-13388984D01*
X16520873Y-13403270D01*
X16535158Y-13417556D01*
X16549444Y-13446127D01*
X16563730Y-13503270D01*
X16563730Y-13574699D01*
X16549444Y-13631841D01*
X16535158Y-13660413D01*
X16520873Y-13674699D01*
X16492301Y-13688984D01*
X16463730Y-13688984D01*
X16435158Y-13674699D01*
X16420873Y-13660413D01*
X16406587Y-13631841D01*
X16392301Y-13574699D01*
X16392301Y-13503270D01*
X16406587Y-13446127D01*
X16420873Y-13417556D01*
X16435158Y-13403270D01*
X16463730Y-13388984D01*
X16692301Y-13660413D02*
X16706587Y-13674699D01*
X16692301Y-13688984D01*
X16678016Y-13674699D01*
X16692301Y-13660413D01*
X16692301Y-13688984D01*
X16892301Y-13388984D02*
X16920873Y-13388984D01*
X16949444Y-13403270D01*
X16963730Y-13417556D01*
X16978016Y-13446127D01*
X16992301Y-13503270D01*
X16992301Y-13574699D01*
X16978016Y-13631841D01*
X16963730Y-13660413D01*
X16949444Y-13674699D01*
X16920873Y-13688984D01*
X16892301Y-13688984D01*
X16863730Y-13674699D01*
X16849444Y-13660413D01*
X16835158Y-13631841D01*
X16820873Y-13574699D01*
X16820873Y-13503270D01*
X16835158Y-13446127D01*
X16849444Y-13417556D01*
X16863730Y-13403270D01*
X16892301Y-13388984D01*
X17092301Y-13388984D02*
X17292301Y-13388984D01*
X17163730Y-13688984D01*
X17563730Y-13688984D02*
X17392301Y-13688984D01*
X17478016Y-13688984D02*
X17478016Y-13388984D01*
X17449444Y-13431841D01*
X17420873Y-13460413D01*
X17392301Y-13474699D01*
X17678016Y-13388984D02*
X17678016Y-13446127D01*
X17792301Y-13388984D02*
X17792301Y-13446127D01*
X18235158Y-13803270D02*
X18220873Y-13788984D01*
X18192301Y-13746127D01*
X18178016Y-13717556D01*
X18163730Y-13674699D01*
X18149444Y-13603270D01*
X18149444Y-13546127D01*
X18163730Y-13474699D01*
X18178016Y-13431841D01*
X18192301Y-13403270D01*
X18220873Y-13360413D01*
X18235158Y-13346127D01*
X18406587Y-13388984D02*
X18435158Y-13388984D01*
X18463730Y-13403270D01*
X18478016Y-13417556D01*
X18492301Y-13446127D01*
X18506587Y-13503270D01*
X18506587Y-13574699D01*
X18492301Y-13631841D01*
X18478016Y-13660413D01*
X18463730Y-13674699D01*
X18435158Y-13688984D01*
X18406587Y-13688984D01*
X18378016Y-13674699D01*
X18363730Y-13660413D01*
X18349444Y-13631841D01*
X18335158Y-13574699D01*
X18335158Y-13503270D01*
X18349444Y-13446127D01*
X18363730Y-13417556D01*
X18378016Y-13403270D01*
X18406587Y-13388984D01*
X18863730Y-13688984D02*
X18863730Y-13388984D01*
X18992301Y-13688984D02*
X18992301Y-13531841D01*
X18978016Y-13503270D01*
X18949444Y-13488984D01*
X18906587Y-13488984D01*
X18878016Y-13503270D01*
X18863730Y-13517556D01*
X19178016Y-13688984D02*
X19149444Y-13674699D01*
X19135158Y-13660413D01*
X19120873Y-13631841D01*
X19120873Y-13546127D01*
X19135158Y-13517556D01*
X19149444Y-13503270D01*
X19178016Y-13488984D01*
X19220873Y-13488984D01*
X19249444Y-13503270D01*
X19263730Y-13517556D01*
X19278016Y-13546127D01*
X19278016Y-13631841D01*
X19263730Y-13660413D01*
X19249444Y-13674699D01*
X19220873Y-13688984D01*
X19178016Y-13688984D01*
X19449444Y-13688984D02*
X19420873Y-13674699D01*
X19406587Y-13646127D01*
X19406587Y-13388984D01*
X19678016Y-13674699D02*
X19649444Y-13688984D01*
X19592301Y-13688984D01*
X19563730Y-13674699D01*
X19549444Y-13646127D01*
X19549444Y-13531841D01*
X19563730Y-13503270D01*
X19592301Y-13488984D01*
X19649444Y-13488984D01*
X19678016Y-13503270D01*
X19692301Y-13531841D01*
X19692301Y-13560413D01*
X19549444Y-13588984D01*
X19806587Y-13674699D02*
X19835158Y-13688984D01*
X19892301Y-13688984D01*
X19920873Y-13674699D01*
X19935158Y-13646127D01*
X19935158Y-13631841D01*
X19920873Y-13603270D01*
X19892301Y-13588984D01*
X19849444Y-13588984D01*
X19820873Y-13574699D01*
X19806587Y-13546127D01*
X19806587Y-13531841D01*
X19820873Y-13503270D01*
X19849444Y-13488984D01*
X19892301Y-13488984D01*
X19920873Y-13503270D01*
X20292301Y-13574699D02*
X20520873Y-13574699D01*
X20406587Y-13688984D02*
X20406587Y-13460413D01*
X20878016Y-13417556D02*
X20892301Y-13403270D01*
X20920873Y-13388984D01*
X20992301Y-13388984D01*
X21020873Y-13403270D01*
X21035158Y-13417556D01*
X21049444Y-13446127D01*
X21049444Y-13474699D01*
X21035158Y-13517556D01*
X20863730Y-13688984D01*
X21049444Y-13688984D01*
X21392301Y-13674699D02*
X21420873Y-13688984D01*
X21478016Y-13688984D01*
X21506587Y-13674699D01*
X21520873Y-13646127D01*
X21520873Y-13631841D01*
X21506587Y-13603270D01*
X21478016Y-13588984D01*
X21435158Y-13588984D01*
X21406587Y-13574699D01*
X21392301Y-13546127D01*
X21392301Y-13531841D01*
X21406587Y-13503270D01*
X21435158Y-13488984D01*
X21478016Y-13488984D01*
X21506587Y-13503270D01*
X21692301Y-13688984D02*
X21663730Y-13674699D01*
X21649444Y-13646127D01*
X21649444Y-13388984D01*
X21849444Y-13688984D02*
X21820873Y-13674699D01*
X21806587Y-13660413D01*
X21792301Y-13631841D01*
X21792301Y-13546127D01*
X21806587Y-13517556D01*
X21820873Y-13503270D01*
X21849444Y-13488984D01*
X21892301Y-13488984D01*
X21920873Y-13503270D01*
X21935158Y-13517556D01*
X21949444Y-13546127D01*
X21949444Y-13631841D01*
X21935158Y-13660413D01*
X21920873Y-13674699D01*
X21892301Y-13688984D01*
X21849444Y-13688984D01*
X22035158Y-13488984D02*
X22149444Y-13488984D01*
X22078016Y-13388984D02*
X22078016Y-13646127D01*
X22092301Y-13674699D01*
X22120873Y-13688984D01*
X22149444Y-13688984D01*
X22235158Y-13674699D02*
X22263730Y-13688984D01*
X22320873Y-13688984D01*
X22349444Y-13674699D01*
X22363730Y-13646127D01*
X22363730Y-13631841D01*
X22349444Y-13603270D01*
X22320873Y-13588984D01*
X22278016Y-13588984D01*
X22249444Y-13574699D01*
X22235158Y-13546127D01*
X22235158Y-13531841D01*
X22249444Y-13503270D01*
X22278016Y-13488984D01*
X22320873Y-13488984D01*
X22349444Y-13503270D01*
X22463730Y-13803270D02*
X22478016Y-13788984D01*
X22506587Y-13746127D01*
X22520873Y-13717556D01*
X22535158Y-13674699D01*
X22549444Y-13603270D01*
X22549444Y-13546127D01*
X22535158Y-13474699D01*
X22520873Y-13431841D01*
X22506587Y-13403270D01*
X22478016Y-13360413D01*
X22463730Y-13346127D01*
M02*
