G04 #@! TF.GenerationSoftware,KiCad,Pcbnew,(5.1.9)-1*
G04 #@! TF.CreationDate,2021-05-18T23:01:19-05:00*
G04 #@! TF.ProjectId,Encoder,456e636f-6465-4722-9e6b-696361645f70,rev?*
G04 #@! TF.SameCoordinates,Original*
G04 #@! TF.FileFunction,Legend,Bot*
G04 #@! TF.FilePolarity,Positive*
%FSLAX46Y46*%
G04 Gerber Fmt 4.6, Leading zero omitted, Abs format (unit mm)*
G04 Created by KiCad (PCBNEW (5.1.9)-1) date 2021-05-18 23:01:19*
%MOMM*%
%LPD*%
G01*
G04 APERTURE LIST*
%ADD10C,0.152400*%
%ADD11C,0.120000*%
%ADD12C,0.150000*%
%ADD13C,2.000000*%
%ADD14R,2.800000X3.600000*%
%ADD15O,1.200000X1.750000*%
G04 APERTURE END LIST*
D10*
X149453600Y-114823723D02*
X149414895Y-114746314D01*
X149414895Y-114630200D01*
X149453600Y-114514085D01*
X149531009Y-114436676D01*
X149608419Y-114397971D01*
X149763238Y-114359266D01*
X149879352Y-114359266D01*
X150034171Y-114397971D01*
X150111580Y-114436676D01*
X150188990Y-114514085D01*
X150227695Y-114630200D01*
X150227695Y-114707609D01*
X150188990Y-114823723D01*
X150150285Y-114862428D01*
X149879352Y-114862428D01*
X149879352Y-114707609D01*
X150227695Y-115210771D02*
X149414895Y-115210771D01*
X150227695Y-115675228D01*
X149414895Y-115675228D01*
X150227695Y-116062276D02*
X149414895Y-116062276D01*
X149414895Y-116255800D01*
X149453600Y-116371914D01*
X149531009Y-116449323D01*
X149608419Y-116488028D01*
X149763238Y-116526733D01*
X149879352Y-116526733D01*
X150034171Y-116488028D01*
X150111580Y-116449323D01*
X150188990Y-116371914D01*
X150227695Y-116255800D01*
X150227695Y-116062276D01*
D11*
X136940000Y-117810000D02*
X136940000Y-113090000D01*
X136940000Y-113090000D02*
X149060000Y-113090000D01*
X149060000Y-113090000D02*
X149060000Y-117810000D01*
X149060000Y-117810000D02*
X136940000Y-117810000D01*
X138700000Y-117810000D02*
X138700000Y-118010000D01*
X138700000Y-118010000D02*
X138400000Y-118010000D01*
X138400000Y-118010000D02*
X138400000Y-117810000D01*
X138700000Y-117910000D02*
X138400000Y-117910000D01*
X139500000Y-117810000D02*
X139500000Y-117200000D01*
X139500000Y-117200000D02*
X137550000Y-117200000D01*
X137550000Y-117200000D02*
X137550000Y-113700000D01*
X137550000Y-113700000D02*
X148450000Y-113700000D01*
X148450000Y-113700000D02*
X148450000Y-117200000D01*
X148450000Y-117200000D02*
X146500000Y-117200000D01*
X146500000Y-117200000D02*
X146500000Y-117810000D01*
X136940000Y-116500000D02*
X137550000Y-116500000D01*
X136940000Y-115200000D02*
X137550000Y-115200000D01*
X149060000Y-116500000D02*
X148450000Y-116500000D01*
X149060000Y-115200000D02*
X148450000Y-115200000D01*
X139900000Y-113700000D02*
X139900000Y-114200000D01*
X139900000Y-114200000D02*
X140100000Y-114200000D01*
X140100000Y-114200000D02*
X140100000Y-113700000D01*
X140000000Y-113700000D02*
X140000000Y-114200000D01*
X141900000Y-113700000D02*
X141900000Y-114200000D01*
X141900000Y-114200000D02*
X142100000Y-114200000D01*
X142100000Y-114200000D02*
X142100000Y-113700000D01*
X142000000Y-113700000D02*
X142000000Y-114200000D01*
X143900000Y-113700000D02*
X143900000Y-114200000D01*
X143900000Y-114200000D02*
X144100000Y-114200000D01*
X144100000Y-114200000D02*
X144100000Y-113700000D01*
X144000000Y-113700000D02*
X144000000Y-114200000D01*
X145900000Y-113700000D02*
X145900000Y-114200000D01*
X145900000Y-114200000D02*
X146100000Y-114200000D01*
X146100000Y-114200000D02*
X146100000Y-113700000D01*
X146000000Y-113700000D02*
X146000000Y-114200000D01*
X137890000Y-118110000D02*
X136640000Y-118110000D01*
X136640000Y-118110000D02*
X136640000Y-116860000D01*
D12*
X143589333Y-111339380D02*
X143589333Y-112053666D01*
X143636952Y-112196523D01*
X143732190Y-112291761D01*
X143875047Y-112339380D01*
X143970285Y-112339380D01*
X142589333Y-112339380D02*
X143160761Y-112339380D01*
X142875047Y-112339380D02*
X142875047Y-111339380D01*
X142970285Y-111482238D01*
X143065523Y-111577476D01*
X143160761Y-111625095D01*
%LPC*%
D13*
X145650000Y-108550000D03*
X143150000Y-108550000D03*
X140650000Y-108550000D03*
X145650000Y-94050000D03*
X140650000Y-94050000D03*
D14*
X148850000Y-101050000D03*
X137450000Y-101050000D03*
D15*
X147000000Y-116000000D03*
X145000000Y-116000000D03*
X143000000Y-116000000D03*
X141000000Y-116000000D03*
G36*
G01*
X138400000Y-116625001D02*
X138400000Y-115374999D01*
G75*
G02*
X138649999Y-115125000I249999J0D01*
G01*
X139350001Y-115125000D01*
G75*
G02*
X139600000Y-115374999I0J-249999D01*
G01*
X139600000Y-116625001D01*
G75*
G02*
X139350001Y-116875000I-249999J0D01*
G01*
X138649999Y-116875000D01*
G75*
G02*
X138400000Y-116625001I0J249999D01*
G01*
G37*
M02*
