G04 #@! TF.GenerationSoftware,KiCad,Pcbnew,(5.1.9)-1*
G04 #@! TF.CreationDate,2021-05-18T23:01:19-05:00*
G04 #@! TF.ProjectId,Encoder,456e636f-6465-4722-9e6b-696361645f70,rev?*
G04 #@! TF.SameCoordinates,Original*
G04 #@! TF.FileFunction,Copper,L2,Bot*
G04 #@! TF.FilePolarity,Positive*
%FSLAX46Y46*%
G04 Gerber Fmt 4.6, Leading zero omitted, Abs format (unit mm)*
G04 Created by KiCad (PCBNEW (5.1.9)-1) date 2021-05-18 23:01:19*
%MOMM*%
%LPD*%
G01*
G04 APERTURE LIST*
G04 #@! TA.AperFunction,ComponentPad*
%ADD10C,2.000000*%
G04 #@! TD*
G04 #@! TA.AperFunction,ComponentPad*
%ADD11R,2.800000X3.600000*%
G04 #@! TD*
G04 #@! TA.AperFunction,ComponentPad*
%ADD12O,1.200000X1.750000*%
G04 #@! TD*
G04 #@! TA.AperFunction,Conductor*
%ADD13C,0.254000*%
G04 #@! TD*
G04 #@! TA.AperFunction,Conductor*
%ADD14C,0.100000*%
G04 #@! TD*
G04 APERTURE END LIST*
D10*
X145650000Y-108550000D03*
X143150000Y-108550000D03*
X140650000Y-108550000D03*
X145650000Y-94050000D03*
X140650000Y-94050000D03*
D11*
X148850000Y-101050000D03*
X137450000Y-101050000D03*
D12*
X147000000Y-116000000D03*
X145000000Y-116000000D03*
X143000000Y-116000000D03*
X141000000Y-116000000D03*
G04 #@! TA.AperFunction,ComponentPad*
G36*
G01*
X138400000Y-116625001D02*
X138400000Y-115374999D01*
G75*
G02*
X138649999Y-115125000I249999J0D01*
G01*
X139350001Y-115125000D01*
G75*
G02*
X139600000Y-115374999I0J-249999D01*
G01*
X139600000Y-116625001D01*
G75*
G02*
X139350001Y-116875000I-249999J0D01*
G01*
X138649999Y-116875000D01*
G75*
G02*
X138400000Y-116625001I0J249999D01*
G01*
G37*
G04 #@! TD.AperFunction*
D13*
X145650000Y-106050000D02*
X143150000Y-108550000D01*
X145650000Y-94050000D02*
X145650000Y-106050000D01*
X143150000Y-112150000D02*
X147000000Y-116000000D01*
X143150000Y-108550000D02*
X143150000Y-112150000D01*
X139268999Y-114268999D02*
X141000000Y-116000000D01*
X139268999Y-95431001D02*
X139268999Y-114268999D01*
X140650000Y-94050000D02*
X139268999Y-95431001D01*
X144398917Y-92978525D02*
X144514585Y-93094193D01*
X144250186Y-93189956D01*
X144109296Y-93479571D01*
X144027616Y-93791108D01*
X144008282Y-94112595D01*
X144052039Y-94431675D01*
X144157205Y-94736088D01*
X144250186Y-94910044D01*
X144514587Y-95005808D01*
X145470395Y-94050000D01*
X145456253Y-94035858D01*
X145635858Y-93856253D01*
X145650000Y-93870395D01*
X145664143Y-93856253D01*
X145843748Y-94035858D01*
X145829605Y-94050000D01*
X146785413Y-95005808D01*
X147049814Y-94910044D01*
X147190704Y-94620429D01*
X147272384Y-94308892D01*
X147291718Y-93987405D01*
X147247961Y-93668325D01*
X147142795Y-93363912D01*
X147049814Y-93189956D01*
X146785415Y-93094193D01*
X146901083Y-92978525D01*
X146816258Y-92893700D01*
X150606300Y-92893700D01*
X150606300Y-99112061D01*
X150603701Y-99103492D01*
X150568322Y-99037304D01*
X150520711Y-98979289D01*
X150462696Y-98931678D01*
X150396508Y-98896299D01*
X150324689Y-98874513D01*
X150250000Y-98867157D01*
X147450000Y-98867157D01*
X147375311Y-98874513D01*
X147303492Y-98896299D01*
X147237304Y-98931678D01*
X147179289Y-98979289D01*
X147131678Y-99037304D01*
X147096299Y-99103492D01*
X147074513Y-99175311D01*
X147067157Y-99250000D01*
X147067157Y-102850000D01*
X147074513Y-102924689D01*
X147096299Y-102996508D01*
X147131678Y-103062696D01*
X147179289Y-103120711D01*
X147237304Y-103168322D01*
X147303492Y-103203701D01*
X147375311Y-103225487D01*
X147450000Y-103232843D01*
X150250000Y-103232843D01*
X150324689Y-103225487D01*
X150396508Y-103203701D01*
X150462696Y-103168322D01*
X150520711Y-103120711D01*
X150568322Y-103062696D01*
X150603701Y-102996508D01*
X150606300Y-102987939D01*
X150606301Y-117606300D01*
X135893700Y-117606300D01*
X135893700Y-103198467D01*
X135903492Y-103203701D01*
X135975311Y-103225487D01*
X136050000Y-103232843D01*
X138760999Y-103232843D01*
X138761000Y-114244045D01*
X138758542Y-114268999D01*
X138768351Y-114368583D01*
X138797399Y-114464342D01*
X138844570Y-114552594D01*
X138892149Y-114610569D01*
X138908052Y-114629947D01*
X138927429Y-114645849D01*
X139023737Y-114742157D01*
X138649999Y-114742157D01*
X138526538Y-114754317D01*
X138407821Y-114790329D01*
X138298411Y-114848810D01*
X138202512Y-114927512D01*
X138123810Y-115023411D01*
X138065329Y-115132821D01*
X138029317Y-115251538D01*
X138017157Y-115374999D01*
X138017157Y-116625001D01*
X138029317Y-116748462D01*
X138065329Y-116867179D01*
X138123810Y-116976589D01*
X138202512Y-117072488D01*
X138298411Y-117151190D01*
X138407821Y-117209671D01*
X138526538Y-117245683D01*
X138649999Y-117257843D01*
X139350001Y-117257843D01*
X139473462Y-117245683D01*
X139592179Y-117209671D01*
X139701589Y-117151190D01*
X139797488Y-117072488D01*
X139876190Y-116976589D01*
X139934671Y-116867179D01*
X139970683Y-116748462D01*
X139982843Y-116625001D01*
X139982843Y-115701264D01*
X140019000Y-115737421D01*
X140019000Y-116323187D01*
X140033195Y-116467310D01*
X140089289Y-116652229D01*
X140180383Y-116822651D01*
X140302973Y-116972028D01*
X140452350Y-117094618D01*
X140622772Y-117185711D01*
X140807691Y-117241805D01*
X141000000Y-117260746D01*
X141192310Y-117241805D01*
X141377229Y-117185711D01*
X141547651Y-117094618D01*
X141697028Y-116972028D01*
X141819618Y-116822651D01*
X141910711Y-116652229D01*
X141966805Y-116467309D01*
X141981000Y-116323186D01*
X141981000Y-115676814D01*
X142019000Y-115676814D01*
X142019000Y-116323187D01*
X142033195Y-116467310D01*
X142089289Y-116652229D01*
X142180383Y-116822651D01*
X142302973Y-116972028D01*
X142452350Y-117094618D01*
X142622772Y-117185711D01*
X142807691Y-117241805D01*
X143000000Y-117260746D01*
X143192310Y-117241805D01*
X143377229Y-117185711D01*
X143547651Y-117094618D01*
X143697028Y-116972028D01*
X143819618Y-116822651D01*
X143910711Y-116652229D01*
X143966805Y-116467309D01*
X143981000Y-116323186D01*
X143981000Y-115676814D01*
X144019000Y-115676814D01*
X144019000Y-116323187D01*
X144033195Y-116467310D01*
X144089289Y-116652229D01*
X144180383Y-116822651D01*
X144302973Y-116972028D01*
X144452350Y-117094618D01*
X144622772Y-117185711D01*
X144807691Y-117241805D01*
X145000000Y-117260746D01*
X145192310Y-117241805D01*
X145377229Y-117185711D01*
X145547651Y-117094618D01*
X145697028Y-116972028D01*
X145819618Y-116822651D01*
X145858993Y-116748986D01*
X145907610Y-116864946D01*
X146043693Y-117066725D01*
X146216526Y-117238078D01*
X146419467Y-117372421D01*
X146644718Y-117464591D01*
X146682391Y-117468462D01*
X146873000Y-117343731D01*
X146873000Y-116127000D01*
X147127000Y-116127000D01*
X147127000Y-117343731D01*
X147317609Y-117468462D01*
X147355282Y-117464591D01*
X147580533Y-117372421D01*
X147783474Y-117238078D01*
X147956307Y-117066725D01*
X148092390Y-116864946D01*
X148186493Y-116640496D01*
X148235000Y-116402000D01*
X148235000Y-116127000D01*
X147127000Y-116127000D01*
X146873000Y-116127000D01*
X146853000Y-116127000D01*
X146853000Y-115873000D01*
X146873000Y-115873000D01*
X146873000Y-114656269D01*
X147127000Y-114656269D01*
X147127000Y-115873000D01*
X148235000Y-115873000D01*
X148235000Y-115598000D01*
X148186493Y-115359504D01*
X148092390Y-115135054D01*
X147956307Y-114933275D01*
X147783474Y-114761922D01*
X147580533Y-114627579D01*
X147355282Y-114535409D01*
X147317609Y-114531538D01*
X147127000Y-114656269D01*
X146873000Y-114656269D01*
X146682391Y-114531538D01*
X146644718Y-114535409D01*
X146419467Y-114627579D01*
X146216526Y-114761922D01*
X146043693Y-114933275D01*
X145907610Y-115135054D01*
X145858993Y-115251014D01*
X145819618Y-115177349D01*
X145697028Y-115027972D01*
X145547651Y-114905382D01*
X145377228Y-114814289D01*
X145192309Y-114758195D01*
X145000000Y-114739254D01*
X144807690Y-114758195D01*
X144622771Y-114814289D01*
X144452349Y-114905382D01*
X144302972Y-115027972D01*
X144180382Y-115177349D01*
X144089289Y-115347772D01*
X144033195Y-115532691D01*
X144019000Y-115676814D01*
X143981000Y-115676814D01*
X143981000Y-115676813D01*
X143966805Y-115532690D01*
X143910711Y-115347771D01*
X143819618Y-115177349D01*
X143697028Y-115027972D01*
X143547651Y-114905382D01*
X143377228Y-114814289D01*
X143192309Y-114758195D01*
X143000000Y-114739254D01*
X142807690Y-114758195D01*
X142622771Y-114814289D01*
X142452349Y-114905382D01*
X142302972Y-115027972D01*
X142180382Y-115177349D01*
X142089289Y-115347772D01*
X142033195Y-115532691D01*
X142019000Y-115676814D01*
X141981000Y-115676814D01*
X141981000Y-115676813D01*
X141966805Y-115532690D01*
X141910711Y-115347771D01*
X141819618Y-115177349D01*
X141697028Y-115027972D01*
X141547651Y-114905382D01*
X141377228Y-114814289D01*
X141192309Y-114758195D01*
X141000000Y-114739254D01*
X140807690Y-114758195D01*
X140622771Y-114814289D01*
X140564080Y-114845660D01*
X139776999Y-114058579D01*
X139776999Y-109627594D01*
X139995851Y-109773826D01*
X140247177Y-109877929D01*
X140513983Y-109931000D01*
X140786017Y-109931000D01*
X141052823Y-109877929D01*
X141304149Y-109773826D01*
X141436468Y-109685413D01*
X142194192Y-109685413D01*
X142289956Y-109949814D01*
X142579571Y-110090704D01*
X142891108Y-110172384D01*
X143212595Y-110191718D01*
X143531675Y-110147961D01*
X143836088Y-110042795D01*
X144010044Y-109949814D01*
X144105808Y-109685413D01*
X143150000Y-108729605D01*
X142194192Y-109685413D01*
X141436468Y-109685413D01*
X141530336Y-109622693D01*
X141722693Y-109430336D01*
X141743993Y-109398458D01*
X141750186Y-109410044D01*
X142014587Y-109505808D01*
X142970395Y-108550000D01*
X143329605Y-108550000D01*
X144285413Y-109505808D01*
X144549814Y-109410044D01*
X144555685Y-109397976D01*
X144577307Y-109430336D01*
X144769664Y-109622693D01*
X144995851Y-109773826D01*
X145247177Y-109877929D01*
X145513983Y-109931000D01*
X145786017Y-109931000D01*
X146052823Y-109877929D01*
X146304149Y-109773826D01*
X146530336Y-109622693D01*
X146722693Y-109430336D01*
X146873826Y-109204149D01*
X146977929Y-108952823D01*
X147031000Y-108686017D01*
X147031000Y-108413983D01*
X146977929Y-108147177D01*
X146873826Y-107895851D01*
X146722693Y-107669664D01*
X146530336Y-107477307D01*
X146304149Y-107326174D01*
X146052823Y-107222071D01*
X145786017Y-107169000D01*
X145513983Y-107169000D01*
X145247177Y-107222071D01*
X144995851Y-107326174D01*
X144769664Y-107477307D01*
X144577307Y-107669664D01*
X144556007Y-107701542D01*
X144549814Y-107689956D01*
X144285413Y-107594192D01*
X143329605Y-108550000D01*
X142970395Y-108550000D01*
X142014587Y-107594192D01*
X141750186Y-107689956D01*
X141744315Y-107702024D01*
X141722693Y-107669664D01*
X141530336Y-107477307D01*
X141436469Y-107414587D01*
X142194192Y-107414587D01*
X143150000Y-108370395D01*
X144105808Y-107414587D01*
X144010044Y-107150186D01*
X143720429Y-107009296D01*
X143408892Y-106927616D01*
X143087405Y-106908282D01*
X142768325Y-106952039D01*
X142463912Y-107057205D01*
X142289956Y-107150186D01*
X142194192Y-107414587D01*
X141436469Y-107414587D01*
X141304149Y-107326174D01*
X141052823Y-107222071D01*
X140786017Y-107169000D01*
X140513983Y-107169000D01*
X140247177Y-107222071D01*
X139995851Y-107326174D01*
X139776999Y-107472406D01*
X139776999Y-95641421D01*
X140101028Y-95317392D01*
X140247177Y-95377929D01*
X140513983Y-95431000D01*
X140786017Y-95431000D01*
X141052823Y-95377929D01*
X141304149Y-95273826D01*
X141436468Y-95185413D01*
X144694192Y-95185413D01*
X144789956Y-95449814D01*
X145079571Y-95590704D01*
X145391108Y-95672384D01*
X145712595Y-95691718D01*
X146031675Y-95647961D01*
X146336088Y-95542795D01*
X146510044Y-95449814D01*
X146605808Y-95185413D01*
X145650000Y-94229605D01*
X144694192Y-95185413D01*
X141436468Y-95185413D01*
X141530336Y-95122693D01*
X141722693Y-94930336D01*
X141873826Y-94704149D01*
X141977929Y-94452823D01*
X142031000Y-94186017D01*
X142031000Y-93913983D01*
X141977929Y-93647177D01*
X141873826Y-93395851D01*
X141722693Y-93169664D01*
X141530336Y-92977307D01*
X141405209Y-92893700D01*
X144483742Y-92893700D01*
X144398917Y-92978525D01*
G04 #@! TA.AperFunction,Conductor*
D14*
G36*
X144398917Y-92978525D02*
G01*
X144514585Y-93094193D01*
X144250186Y-93189956D01*
X144109296Y-93479571D01*
X144027616Y-93791108D01*
X144008282Y-94112595D01*
X144052039Y-94431675D01*
X144157205Y-94736088D01*
X144250186Y-94910044D01*
X144514587Y-95005808D01*
X145470395Y-94050000D01*
X145456253Y-94035858D01*
X145635858Y-93856253D01*
X145650000Y-93870395D01*
X145664143Y-93856253D01*
X145843748Y-94035858D01*
X145829605Y-94050000D01*
X146785413Y-95005808D01*
X147049814Y-94910044D01*
X147190704Y-94620429D01*
X147272384Y-94308892D01*
X147291718Y-93987405D01*
X147247961Y-93668325D01*
X147142795Y-93363912D01*
X147049814Y-93189956D01*
X146785415Y-93094193D01*
X146901083Y-92978525D01*
X146816258Y-92893700D01*
X150606300Y-92893700D01*
X150606300Y-99112061D01*
X150603701Y-99103492D01*
X150568322Y-99037304D01*
X150520711Y-98979289D01*
X150462696Y-98931678D01*
X150396508Y-98896299D01*
X150324689Y-98874513D01*
X150250000Y-98867157D01*
X147450000Y-98867157D01*
X147375311Y-98874513D01*
X147303492Y-98896299D01*
X147237304Y-98931678D01*
X147179289Y-98979289D01*
X147131678Y-99037304D01*
X147096299Y-99103492D01*
X147074513Y-99175311D01*
X147067157Y-99250000D01*
X147067157Y-102850000D01*
X147074513Y-102924689D01*
X147096299Y-102996508D01*
X147131678Y-103062696D01*
X147179289Y-103120711D01*
X147237304Y-103168322D01*
X147303492Y-103203701D01*
X147375311Y-103225487D01*
X147450000Y-103232843D01*
X150250000Y-103232843D01*
X150324689Y-103225487D01*
X150396508Y-103203701D01*
X150462696Y-103168322D01*
X150520711Y-103120711D01*
X150568322Y-103062696D01*
X150603701Y-102996508D01*
X150606300Y-102987939D01*
X150606301Y-117606300D01*
X135893700Y-117606300D01*
X135893700Y-103198467D01*
X135903492Y-103203701D01*
X135975311Y-103225487D01*
X136050000Y-103232843D01*
X138760999Y-103232843D01*
X138761000Y-114244045D01*
X138758542Y-114268999D01*
X138768351Y-114368583D01*
X138797399Y-114464342D01*
X138844570Y-114552594D01*
X138892149Y-114610569D01*
X138908052Y-114629947D01*
X138927429Y-114645849D01*
X139023737Y-114742157D01*
X138649999Y-114742157D01*
X138526538Y-114754317D01*
X138407821Y-114790329D01*
X138298411Y-114848810D01*
X138202512Y-114927512D01*
X138123810Y-115023411D01*
X138065329Y-115132821D01*
X138029317Y-115251538D01*
X138017157Y-115374999D01*
X138017157Y-116625001D01*
X138029317Y-116748462D01*
X138065329Y-116867179D01*
X138123810Y-116976589D01*
X138202512Y-117072488D01*
X138298411Y-117151190D01*
X138407821Y-117209671D01*
X138526538Y-117245683D01*
X138649999Y-117257843D01*
X139350001Y-117257843D01*
X139473462Y-117245683D01*
X139592179Y-117209671D01*
X139701589Y-117151190D01*
X139797488Y-117072488D01*
X139876190Y-116976589D01*
X139934671Y-116867179D01*
X139970683Y-116748462D01*
X139982843Y-116625001D01*
X139982843Y-115701264D01*
X140019000Y-115737421D01*
X140019000Y-116323187D01*
X140033195Y-116467310D01*
X140089289Y-116652229D01*
X140180383Y-116822651D01*
X140302973Y-116972028D01*
X140452350Y-117094618D01*
X140622772Y-117185711D01*
X140807691Y-117241805D01*
X141000000Y-117260746D01*
X141192310Y-117241805D01*
X141377229Y-117185711D01*
X141547651Y-117094618D01*
X141697028Y-116972028D01*
X141819618Y-116822651D01*
X141910711Y-116652229D01*
X141966805Y-116467309D01*
X141981000Y-116323186D01*
X141981000Y-115676814D01*
X142019000Y-115676814D01*
X142019000Y-116323187D01*
X142033195Y-116467310D01*
X142089289Y-116652229D01*
X142180383Y-116822651D01*
X142302973Y-116972028D01*
X142452350Y-117094618D01*
X142622772Y-117185711D01*
X142807691Y-117241805D01*
X143000000Y-117260746D01*
X143192310Y-117241805D01*
X143377229Y-117185711D01*
X143547651Y-117094618D01*
X143697028Y-116972028D01*
X143819618Y-116822651D01*
X143910711Y-116652229D01*
X143966805Y-116467309D01*
X143981000Y-116323186D01*
X143981000Y-115676814D01*
X144019000Y-115676814D01*
X144019000Y-116323187D01*
X144033195Y-116467310D01*
X144089289Y-116652229D01*
X144180383Y-116822651D01*
X144302973Y-116972028D01*
X144452350Y-117094618D01*
X144622772Y-117185711D01*
X144807691Y-117241805D01*
X145000000Y-117260746D01*
X145192310Y-117241805D01*
X145377229Y-117185711D01*
X145547651Y-117094618D01*
X145697028Y-116972028D01*
X145819618Y-116822651D01*
X145858993Y-116748986D01*
X145907610Y-116864946D01*
X146043693Y-117066725D01*
X146216526Y-117238078D01*
X146419467Y-117372421D01*
X146644718Y-117464591D01*
X146682391Y-117468462D01*
X146873000Y-117343731D01*
X146873000Y-116127000D01*
X147127000Y-116127000D01*
X147127000Y-117343731D01*
X147317609Y-117468462D01*
X147355282Y-117464591D01*
X147580533Y-117372421D01*
X147783474Y-117238078D01*
X147956307Y-117066725D01*
X148092390Y-116864946D01*
X148186493Y-116640496D01*
X148235000Y-116402000D01*
X148235000Y-116127000D01*
X147127000Y-116127000D01*
X146873000Y-116127000D01*
X146853000Y-116127000D01*
X146853000Y-115873000D01*
X146873000Y-115873000D01*
X146873000Y-114656269D01*
X147127000Y-114656269D01*
X147127000Y-115873000D01*
X148235000Y-115873000D01*
X148235000Y-115598000D01*
X148186493Y-115359504D01*
X148092390Y-115135054D01*
X147956307Y-114933275D01*
X147783474Y-114761922D01*
X147580533Y-114627579D01*
X147355282Y-114535409D01*
X147317609Y-114531538D01*
X147127000Y-114656269D01*
X146873000Y-114656269D01*
X146682391Y-114531538D01*
X146644718Y-114535409D01*
X146419467Y-114627579D01*
X146216526Y-114761922D01*
X146043693Y-114933275D01*
X145907610Y-115135054D01*
X145858993Y-115251014D01*
X145819618Y-115177349D01*
X145697028Y-115027972D01*
X145547651Y-114905382D01*
X145377228Y-114814289D01*
X145192309Y-114758195D01*
X145000000Y-114739254D01*
X144807690Y-114758195D01*
X144622771Y-114814289D01*
X144452349Y-114905382D01*
X144302972Y-115027972D01*
X144180382Y-115177349D01*
X144089289Y-115347772D01*
X144033195Y-115532691D01*
X144019000Y-115676814D01*
X143981000Y-115676814D01*
X143981000Y-115676813D01*
X143966805Y-115532690D01*
X143910711Y-115347771D01*
X143819618Y-115177349D01*
X143697028Y-115027972D01*
X143547651Y-114905382D01*
X143377228Y-114814289D01*
X143192309Y-114758195D01*
X143000000Y-114739254D01*
X142807690Y-114758195D01*
X142622771Y-114814289D01*
X142452349Y-114905382D01*
X142302972Y-115027972D01*
X142180382Y-115177349D01*
X142089289Y-115347772D01*
X142033195Y-115532691D01*
X142019000Y-115676814D01*
X141981000Y-115676814D01*
X141981000Y-115676813D01*
X141966805Y-115532690D01*
X141910711Y-115347771D01*
X141819618Y-115177349D01*
X141697028Y-115027972D01*
X141547651Y-114905382D01*
X141377228Y-114814289D01*
X141192309Y-114758195D01*
X141000000Y-114739254D01*
X140807690Y-114758195D01*
X140622771Y-114814289D01*
X140564080Y-114845660D01*
X139776999Y-114058579D01*
X139776999Y-109627594D01*
X139995851Y-109773826D01*
X140247177Y-109877929D01*
X140513983Y-109931000D01*
X140786017Y-109931000D01*
X141052823Y-109877929D01*
X141304149Y-109773826D01*
X141436468Y-109685413D01*
X142194192Y-109685413D01*
X142289956Y-109949814D01*
X142579571Y-110090704D01*
X142891108Y-110172384D01*
X143212595Y-110191718D01*
X143531675Y-110147961D01*
X143836088Y-110042795D01*
X144010044Y-109949814D01*
X144105808Y-109685413D01*
X143150000Y-108729605D01*
X142194192Y-109685413D01*
X141436468Y-109685413D01*
X141530336Y-109622693D01*
X141722693Y-109430336D01*
X141743993Y-109398458D01*
X141750186Y-109410044D01*
X142014587Y-109505808D01*
X142970395Y-108550000D01*
X143329605Y-108550000D01*
X144285413Y-109505808D01*
X144549814Y-109410044D01*
X144555685Y-109397976D01*
X144577307Y-109430336D01*
X144769664Y-109622693D01*
X144995851Y-109773826D01*
X145247177Y-109877929D01*
X145513983Y-109931000D01*
X145786017Y-109931000D01*
X146052823Y-109877929D01*
X146304149Y-109773826D01*
X146530336Y-109622693D01*
X146722693Y-109430336D01*
X146873826Y-109204149D01*
X146977929Y-108952823D01*
X147031000Y-108686017D01*
X147031000Y-108413983D01*
X146977929Y-108147177D01*
X146873826Y-107895851D01*
X146722693Y-107669664D01*
X146530336Y-107477307D01*
X146304149Y-107326174D01*
X146052823Y-107222071D01*
X145786017Y-107169000D01*
X145513983Y-107169000D01*
X145247177Y-107222071D01*
X144995851Y-107326174D01*
X144769664Y-107477307D01*
X144577307Y-107669664D01*
X144556007Y-107701542D01*
X144549814Y-107689956D01*
X144285413Y-107594192D01*
X143329605Y-108550000D01*
X142970395Y-108550000D01*
X142014587Y-107594192D01*
X141750186Y-107689956D01*
X141744315Y-107702024D01*
X141722693Y-107669664D01*
X141530336Y-107477307D01*
X141436469Y-107414587D01*
X142194192Y-107414587D01*
X143150000Y-108370395D01*
X144105808Y-107414587D01*
X144010044Y-107150186D01*
X143720429Y-107009296D01*
X143408892Y-106927616D01*
X143087405Y-106908282D01*
X142768325Y-106952039D01*
X142463912Y-107057205D01*
X142289956Y-107150186D01*
X142194192Y-107414587D01*
X141436469Y-107414587D01*
X141304149Y-107326174D01*
X141052823Y-107222071D01*
X140786017Y-107169000D01*
X140513983Y-107169000D01*
X140247177Y-107222071D01*
X139995851Y-107326174D01*
X139776999Y-107472406D01*
X139776999Y-95641421D01*
X140101028Y-95317392D01*
X140247177Y-95377929D01*
X140513983Y-95431000D01*
X140786017Y-95431000D01*
X141052823Y-95377929D01*
X141304149Y-95273826D01*
X141436468Y-95185413D01*
X144694192Y-95185413D01*
X144789956Y-95449814D01*
X145079571Y-95590704D01*
X145391108Y-95672384D01*
X145712595Y-95691718D01*
X146031675Y-95647961D01*
X146336088Y-95542795D01*
X146510044Y-95449814D01*
X146605808Y-95185413D01*
X145650000Y-94229605D01*
X144694192Y-95185413D01*
X141436468Y-95185413D01*
X141530336Y-95122693D01*
X141722693Y-94930336D01*
X141873826Y-94704149D01*
X141977929Y-94452823D01*
X142031000Y-94186017D01*
X142031000Y-93913983D01*
X141977929Y-93647177D01*
X141873826Y-93395851D01*
X141722693Y-93169664D01*
X141530336Y-92977307D01*
X141405209Y-92893700D01*
X144483742Y-92893700D01*
X144398917Y-92978525D01*
G37*
G04 #@! TD.AperFunction*
M02*
