G04 #@! TF.GenerationSoftware,KiCad,Pcbnew,(5.1.9)-1*
G04 #@! TF.CreationDate,2021-05-18T23:01:19-05:00*
G04 #@! TF.ProjectId,Encoder,456e636f-6465-4722-9e6b-696361645f70,rev?*
G04 #@! TF.SameCoordinates,Original*
G04 #@! TF.FileFunction,Legend,Top*
G04 #@! TF.FilePolarity,Positive*
%FSLAX46Y46*%
G04 Gerber Fmt 4.6, Leading zero omitted, Abs format (unit mm)*
G04 Created by KiCad (PCBNEW (5.1.9)-1) date 2021-05-18 23:01:19*
%MOMM*%
%LPD*%
G01*
G04 APERTURE LIST*
%ADD10C,0.100000*%
%ADD11C,0.120000*%
%ADD12C,0.150000*%
%ADD13C,2.000000*%
%ADD14R,2.800000X3.600000*%
%ADD15O,1.200000X1.750000*%
G04 APERTURE END LIST*
D10*
X137725000Y-107875000D02*
X136775000Y-107875000D01*
X136775000Y-107875000D02*
X136775000Y-107200000D01*
X137625000Y-94225000D02*
X136775000Y-94225000D01*
X136775000Y-94225000D02*
X136775000Y-94900000D01*
X149525000Y-107300000D02*
X149525000Y-107875000D01*
X149525000Y-107875000D02*
X148725000Y-107875000D01*
X148825000Y-94225000D02*
X149525000Y-94225000D01*
X149525000Y-94225000D02*
X149525000Y-94725000D01*
D11*
X147227064Y-112235000D02*
X146772936Y-112235000D01*
X147227064Y-110765000D02*
X146772936Y-110765000D01*
X139272936Y-110765000D02*
X139727064Y-110765000D01*
X139272936Y-112235000D02*
X139727064Y-112235000D01*
D12*
X136271095Y-109497761D02*
X136413952Y-109545380D01*
X136652047Y-109545380D01*
X136747285Y-109497761D01*
X136794904Y-109450142D01*
X136842523Y-109354904D01*
X136842523Y-109259666D01*
X136794904Y-109164428D01*
X136747285Y-109116809D01*
X136652047Y-109069190D01*
X136461571Y-109021571D01*
X136366333Y-108973952D01*
X136318714Y-108926333D01*
X136271095Y-108831095D01*
X136271095Y-108735857D01*
X136318714Y-108640619D01*
X136366333Y-108593000D01*
X136461571Y-108545380D01*
X136699666Y-108545380D01*
X136842523Y-108593000D01*
X137794904Y-109545380D02*
X137223476Y-109545380D01*
X137509190Y-109545380D02*
X137509190Y-108545380D01*
X137413952Y-108688238D01*
X137318714Y-108783476D01*
X137223476Y-108831095D01*
X144105333Y-111958380D02*
X143772000Y-111482190D01*
X143533904Y-111958380D02*
X143533904Y-110958380D01*
X143914857Y-110958380D01*
X144010095Y-111006000D01*
X144057714Y-111053619D01*
X144105333Y-111148857D01*
X144105333Y-111291714D01*
X144057714Y-111386952D01*
X144010095Y-111434571D01*
X143914857Y-111482190D01*
X143533904Y-111482190D01*
X144486285Y-111053619D02*
X144533904Y-111006000D01*
X144629142Y-110958380D01*
X144867238Y-110958380D01*
X144962476Y-111006000D01*
X145010095Y-111053619D01*
X145057714Y-111148857D01*
X145057714Y-111244095D01*
X145010095Y-111386952D01*
X144438666Y-111958380D01*
X145057714Y-111958380D01*
X136739333Y-111958380D02*
X136406000Y-111482190D01*
X136167904Y-111958380D02*
X136167904Y-110958380D01*
X136548857Y-110958380D01*
X136644095Y-111006000D01*
X136691714Y-111053619D01*
X136739333Y-111148857D01*
X136739333Y-111291714D01*
X136691714Y-111386952D01*
X136644095Y-111434571D01*
X136548857Y-111482190D01*
X136167904Y-111482190D01*
X137691714Y-111958380D02*
X137120285Y-111958380D01*
X137406000Y-111958380D02*
X137406000Y-110958380D01*
X137310761Y-111101238D01*
X137215523Y-111196476D01*
X137120285Y-111244095D01*
%LPC*%
D13*
X145650000Y-108550000D03*
X143150000Y-108550000D03*
X140650000Y-108550000D03*
X145650000Y-94050000D03*
X140650000Y-94050000D03*
D14*
X148850000Y-101050000D03*
X137450000Y-101050000D03*
G36*
G01*
X146600000Y-111049999D02*
X146600000Y-111950001D01*
G75*
G02*
X146350001Y-112200000I-249999J0D01*
G01*
X145649999Y-112200000D01*
G75*
G02*
X145400000Y-111950001I0J249999D01*
G01*
X145400000Y-111049999D01*
G75*
G02*
X145649999Y-110800000I249999J0D01*
G01*
X146350001Y-110800000D01*
G75*
G02*
X146600000Y-111049999I0J-249999D01*
G01*
G37*
G36*
G01*
X148600000Y-111049999D02*
X148600000Y-111950001D01*
G75*
G02*
X148350001Y-112200000I-249999J0D01*
G01*
X147649999Y-112200000D01*
G75*
G02*
X147400000Y-111950001I0J249999D01*
G01*
X147400000Y-111049999D01*
G75*
G02*
X147649999Y-110800000I249999J0D01*
G01*
X148350001Y-110800000D01*
G75*
G02*
X148600000Y-111049999I0J-249999D01*
G01*
G37*
G36*
G01*
X139900000Y-111950001D02*
X139900000Y-111049999D01*
G75*
G02*
X140149999Y-110800000I249999J0D01*
G01*
X140850001Y-110800000D01*
G75*
G02*
X141100000Y-111049999I0J-249999D01*
G01*
X141100000Y-111950001D01*
G75*
G02*
X140850001Y-112200000I-249999J0D01*
G01*
X140149999Y-112200000D01*
G75*
G02*
X139900000Y-111950001I0J249999D01*
G01*
G37*
G36*
G01*
X137900000Y-111950001D02*
X137900000Y-111049999D01*
G75*
G02*
X138149999Y-110800000I249999J0D01*
G01*
X138850001Y-110800000D01*
G75*
G02*
X139100000Y-111049999I0J-249999D01*
G01*
X139100000Y-111950001D01*
G75*
G02*
X138850001Y-112200000I-249999J0D01*
G01*
X138149999Y-112200000D01*
G75*
G02*
X137900000Y-111950001I0J249999D01*
G01*
G37*
D15*
X147000000Y-116000000D03*
X145000000Y-116000000D03*
X143000000Y-116000000D03*
X141000000Y-116000000D03*
G36*
G01*
X138400000Y-116625001D02*
X138400000Y-115374999D01*
G75*
G02*
X138649999Y-115125000I249999J0D01*
G01*
X139350001Y-115125000D01*
G75*
G02*
X139600000Y-115374999I0J-249999D01*
G01*
X139600000Y-116625001D01*
G75*
G02*
X139350001Y-116875000I-249999J0D01*
G01*
X138649999Y-116875000D01*
G75*
G02*
X138400000Y-116625001I0J249999D01*
G01*
G37*
M02*
