%FSLAX45Y45*%
G04 Gerber Fmt 4.5, Leading zero omitted, Abs format (unit mm)*
G04 Created by KiCad (PCBNEW (5.1.9)-1) date 2021-05-18 23:01:26*
%MOMM*%
%LPD*%
G01*
G04 APERTURE LIST*
%TA.AperFunction,Profile*%
%ADD10C,0.025400*%
%TD*%
%ADD11C,0.200000*%
%ADD12C,0.300000*%
G04 APERTURE END LIST*
D10*
X13550000Y-11800000D02*
X13550000Y-9250000D01*
X15100000Y-11800000D02*
X13550000Y-11800000D01*
X15100000Y-9250000D02*
X15100000Y-11800000D01*
X13550000Y-9250000D02*
X15100000Y-9250000D01*
D11*
D12*
X13835158Y-12266984D02*
X13835158Y-11966984D01*
X13906587Y-11966984D01*
X13949444Y-11981270D01*
X13978016Y-12009841D01*
X13992301Y-12038413D01*
X14006587Y-12095556D01*
X14006587Y-12138413D01*
X13992301Y-12195556D01*
X13978016Y-12224127D01*
X13949444Y-12252699D01*
X13906587Y-12266984D01*
X13835158Y-12266984D01*
X14135158Y-12266984D02*
X14135158Y-12066984D01*
X14135158Y-12124127D02*
X14149444Y-12095556D01*
X14163730Y-12081270D01*
X14192301Y-12066984D01*
X14220873Y-12066984D01*
X14320873Y-12266984D02*
X14320873Y-12066984D01*
X14320873Y-11966984D02*
X14306587Y-11981270D01*
X14320873Y-11995556D01*
X14335158Y-11981270D01*
X14320873Y-11966984D01*
X14320873Y-11995556D01*
X14506587Y-12266984D02*
X14478016Y-12252699D01*
X14463730Y-12224127D01*
X14463730Y-11966984D01*
X14663730Y-12266984D02*
X14635158Y-12252699D01*
X14620873Y-12224127D01*
X14620873Y-11966984D01*
X15006587Y-12266984D02*
X15006587Y-11966984D01*
X15106587Y-12181270D01*
X15206587Y-11966984D01*
X15206587Y-12266984D01*
X15478016Y-12266984D02*
X15478016Y-12109841D01*
X15463730Y-12081270D01*
X15435158Y-12066984D01*
X15378016Y-12066984D01*
X15349444Y-12081270D01*
X15478016Y-12252699D02*
X15449444Y-12266984D01*
X15378016Y-12266984D01*
X15349444Y-12252699D01*
X15335158Y-12224127D01*
X15335158Y-12195556D01*
X15349444Y-12166984D01*
X15378016Y-12152699D01*
X15449444Y-12152699D01*
X15478016Y-12138413D01*
X15620873Y-12066984D02*
X15620873Y-12366984D01*
X15620873Y-12081270D02*
X15649444Y-12066984D01*
X15706587Y-12066984D01*
X15735158Y-12081270D01*
X15749444Y-12095556D01*
X15763730Y-12124127D01*
X15763730Y-12209841D01*
X15749444Y-12238413D01*
X15735158Y-12252699D01*
X15706587Y-12266984D01*
X15649444Y-12266984D01*
X15620873Y-12252699D01*
X15892301Y-12238413D02*
X15906587Y-12252699D01*
X15892301Y-12266984D01*
X15878016Y-12252699D01*
X15892301Y-12238413D01*
X15892301Y-12266984D01*
X15892301Y-12081270D02*
X15906587Y-12095556D01*
X15892301Y-12109841D01*
X15878016Y-12095556D01*
X15892301Y-12081270D01*
X15892301Y-12109841D01*
M02*
