G04 #@! TF.GenerationSoftware,KiCad,Pcbnew,(5.1.9)-1*
G04 #@! TF.CreationDate,2021-05-18T23:06:42-05:00*
G04 #@! TF.ProjectId,Magnetic_Switch,4d61676e-6574-4696-935f-537769746368,rev?*
G04 #@! TF.SameCoordinates,Original*
G04 #@! TF.FileFunction,Legend,Top*
G04 #@! TF.FilePolarity,Positive*
%FSLAX46Y46*%
G04 Gerber Fmt 4.6, Leading zero omitted, Abs format (unit mm)*
G04 Created by KiCad (PCBNEW (5.1.9)-1) date 2021-05-18 23:06:42*
%MOMM*%
%LPD*%
G01*
G04 APERTURE LIST*
%ADD10C,0.152400*%
%ADD11C,0.150000*%
%ADD12C,0.120000*%
%ADD13R,0.800000X0.900000*%
G04 APERTURE END LIST*
D10*
X147294600Y-100949276D02*
X147255895Y-101026685D01*
X147255895Y-101142800D01*
X147294600Y-101258914D01*
X147372009Y-101336323D01*
X147449419Y-101375028D01*
X147604238Y-101413733D01*
X147720352Y-101413733D01*
X147875171Y-101375028D01*
X147952580Y-101336323D01*
X148029990Y-101258914D01*
X148068695Y-101142800D01*
X148068695Y-101065390D01*
X148029990Y-100949276D01*
X147991285Y-100910571D01*
X147720352Y-100910571D01*
X147720352Y-101065390D01*
X148068695Y-100562228D02*
X147255895Y-100562228D01*
X148068695Y-100097771D01*
X147255895Y-100097771D01*
X148068695Y-99710723D02*
X147255895Y-99710723D01*
X147255895Y-99517200D01*
X147294600Y-99401085D01*
X147372009Y-99323676D01*
X147449419Y-99284971D01*
X147604238Y-99246266D01*
X147720352Y-99246266D01*
X147875171Y-99284971D01*
X147952580Y-99323676D01*
X148029990Y-99401085D01*
X148068695Y-99517200D01*
X148068695Y-99710723D01*
X143572895Y-105079800D02*
X143572895Y-104924980D01*
X143611600Y-104847571D01*
X143689009Y-104770161D01*
X143843828Y-104731457D01*
X144114761Y-104731457D01*
X144269580Y-104770161D01*
X144346990Y-104847571D01*
X144385695Y-104924980D01*
X144385695Y-105079800D01*
X144346990Y-105157209D01*
X144269580Y-105234619D01*
X144114761Y-105273323D01*
X143843828Y-105273323D01*
X143689009Y-105234619D01*
X143611600Y-105157209D01*
X143572895Y-105079800D01*
X143572895Y-104383114D02*
X144230876Y-104383114D01*
X144308285Y-104344409D01*
X144346990Y-104305704D01*
X144385695Y-104228295D01*
X144385695Y-104073476D01*
X144346990Y-103996066D01*
X144308285Y-103957361D01*
X144230876Y-103918657D01*
X143572895Y-103918657D01*
X143572895Y-103647723D02*
X143572895Y-103183266D01*
X144385695Y-103415495D02*
X143572895Y-103415495D01*
X139508895Y-101667733D02*
X140321695Y-101396800D01*
X139508895Y-101125866D01*
X140321695Y-100854933D02*
X139508895Y-100854933D01*
X139508895Y-100661409D01*
X139547600Y-100545295D01*
X139625009Y-100467885D01*
X139702419Y-100429180D01*
X139857238Y-100390476D01*
X139973352Y-100390476D01*
X140128171Y-100429180D01*
X140205580Y-100467885D01*
X140282990Y-100545295D01*
X140321695Y-100661409D01*
X140321695Y-100854933D01*
X140321695Y-100042133D02*
X139508895Y-100042133D01*
X139508895Y-99848609D01*
X139547600Y-99732495D01*
X139625009Y-99655085D01*
X139702419Y-99616380D01*
X139857238Y-99577676D01*
X139973352Y-99577676D01*
X140128171Y-99616380D01*
X140205580Y-99655085D01*
X140282990Y-99732495D01*
X140321695Y-99848609D01*
X140321695Y-100042133D01*
D11*
X148250000Y-93500000D02*
G75*
G03*
X148250000Y-93500000I-4250000J0D01*
G01*
D12*
X145580000Y-85740000D02*
X144650000Y-85740000D01*
X142420000Y-85740000D02*
X143350000Y-85740000D01*
X142420000Y-85740000D02*
X142420000Y-87900000D01*
X145580000Y-85740000D02*
X145580000Y-87200000D01*
X138640000Y-104340000D02*
X138640000Y-102340000D01*
X138640000Y-102340000D02*
X141140000Y-102340000D01*
X141140000Y-102340000D02*
X141140000Y-99100000D01*
X149360000Y-104340000D02*
X149360000Y-102340000D01*
X149360000Y-102340000D02*
X146860000Y-102340000D01*
X138750000Y-108460000D02*
X149250000Y-108460000D01*
D11*
X140952380Y-87261904D02*
X141761904Y-87261904D01*
X141857142Y-87214285D01*
X141904761Y-87166666D01*
X141952380Y-87071428D01*
X141952380Y-86880952D01*
X141904761Y-86785714D01*
X141857142Y-86738095D01*
X141761904Y-86690476D01*
X140952380Y-86690476D01*
X141952380Y-85690476D02*
X141952380Y-86261904D01*
X141952380Y-85976190D02*
X140952380Y-85976190D01*
X141095238Y-86071428D01*
X141190476Y-86166666D01*
X141238095Y-86261904D01*
X137334666Y-102830380D02*
X137334666Y-103544666D01*
X137287047Y-103687523D01*
X137191809Y-103782761D01*
X137048952Y-103830380D01*
X136953714Y-103830380D01*
X138334666Y-103830380D02*
X137763238Y-103830380D01*
X138048952Y-103830380D02*
X138048952Y-102830380D01*
X137953714Y-102973238D01*
X137858476Y-103068476D01*
X137763238Y-103116095D01*
%LPC*%
D13*
X144000000Y-85500000D03*
X144950000Y-87500000D03*
X143050000Y-87500000D03*
G36*
G01*
X149370000Y-107650000D02*
X149370000Y-104850000D01*
G75*
G02*
X149620000Y-104600000I250000J0D01*
G01*
X151420000Y-104600000D01*
G75*
G02*
X151670000Y-104850000I0J-250000D01*
G01*
X151670000Y-107650000D01*
G75*
G02*
X151420000Y-107900000I-250000J0D01*
G01*
X149620000Y-107900000D01*
G75*
G02*
X149370000Y-107650000I0J250000D01*
G01*
G37*
G36*
G01*
X136330000Y-107650000D02*
X136330000Y-104850000D01*
G75*
G02*
X136580000Y-104600000I250000J0D01*
G01*
X138380000Y-104600000D01*
G75*
G02*
X138630000Y-104850000I0J-250000D01*
G01*
X138630000Y-107650000D01*
G75*
G02*
X138380000Y-107900000I-250000J0D01*
G01*
X136580000Y-107900000D01*
G75*
G02*
X136330000Y-107650000I0J250000D01*
G01*
G37*
G36*
G01*
X145400000Y-101950001D02*
X145400000Y-99349999D01*
G75*
G02*
X145649999Y-99100000I249999J0D01*
G01*
X146350001Y-99100000D01*
G75*
G02*
X146600000Y-99349999I0J-249999D01*
G01*
X146600000Y-101950001D01*
G75*
G02*
X146350001Y-102200000I-249999J0D01*
G01*
X145649999Y-102200000D01*
G75*
G02*
X145400000Y-101950001I0J249999D01*
G01*
G37*
G36*
G01*
X143400000Y-101950001D02*
X143400000Y-99349999D01*
G75*
G02*
X143649999Y-99100000I249999J0D01*
G01*
X144350001Y-99100000D01*
G75*
G02*
X144600000Y-99349999I0J-249999D01*
G01*
X144600000Y-101950001D01*
G75*
G02*
X144350001Y-102200000I-249999J0D01*
G01*
X143649999Y-102200000D01*
G75*
G02*
X143400000Y-101950001I0J249999D01*
G01*
G37*
G36*
G01*
X141400000Y-101950001D02*
X141400000Y-99349999D01*
G75*
G02*
X141649999Y-99100000I249999J0D01*
G01*
X142350001Y-99100000D01*
G75*
G02*
X142600000Y-99349999I0J-249999D01*
G01*
X142600000Y-101950001D01*
G75*
G02*
X142350001Y-102200000I-249999J0D01*
G01*
X141649999Y-102200000D01*
G75*
G02*
X141400000Y-101950001I0J249999D01*
G01*
G37*
M02*
