G04 #@! TF.GenerationSoftware,KiCad,Pcbnew,(5.1.9)-1*
G04 #@! TF.CreationDate,2021-05-18T23:06:42-05:00*
G04 #@! TF.ProjectId,Magnetic_Switch,4d61676e-6574-4696-935f-537769746368,rev?*
G04 #@! TF.SameCoordinates,Original*
G04 #@! TF.FileFunction,Copper,L1,Top*
G04 #@! TF.FilePolarity,Positive*
%FSLAX46Y46*%
G04 Gerber Fmt 4.6, Leading zero omitted, Abs format (unit mm)*
G04 Created by KiCad (PCBNEW (5.1.9)-1) date 2021-05-18 23:06:42*
%MOMM*%
%LPD*%
G01*
G04 APERTURE LIST*
G04 #@! TA.AperFunction,SMDPad,CuDef*
%ADD10R,0.800000X0.900000*%
G04 #@! TD*
G04 #@! TA.AperFunction,Conductor*
%ADD11C,0.254000*%
G04 #@! TD*
G04 #@! TA.AperFunction,Conductor*
%ADD12C,0.100000*%
G04 #@! TD*
G04 APERTURE END LIST*
D10*
X144000000Y-85500000D03*
X144950000Y-87500000D03*
X143050000Y-87500000D03*
G04 #@! TA.AperFunction,SMDPad,CuDef*
G36*
G01*
X149370000Y-107650000D02*
X149370000Y-104850000D01*
G75*
G02*
X149620000Y-104600000I250000J0D01*
G01*
X151420000Y-104600000D01*
G75*
G02*
X151670000Y-104850000I0J-250000D01*
G01*
X151670000Y-107650000D01*
G75*
G02*
X151420000Y-107900000I-250000J0D01*
G01*
X149620000Y-107900000D01*
G75*
G02*
X149370000Y-107650000I0J250000D01*
G01*
G37*
G04 #@! TD.AperFunction*
G04 #@! TA.AperFunction,SMDPad,CuDef*
G36*
G01*
X136330000Y-107650000D02*
X136330000Y-104850000D01*
G75*
G02*
X136580000Y-104600000I250000J0D01*
G01*
X138380000Y-104600000D01*
G75*
G02*
X138630000Y-104850000I0J-250000D01*
G01*
X138630000Y-107650000D01*
G75*
G02*
X138380000Y-107900000I-250000J0D01*
G01*
X136580000Y-107900000D01*
G75*
G02*
X136330000Y-107650000I0J250000D01*
G01*
G37*
G04 #@! TD.AperFunction*
G04 #@! TA.AperFunction,SMDPad,CuDef*
G36*
G01*
X145400000Y-101950001D02*
X145400000Y-99349999D01*
G75*
G02*
X145649999Y-99100000I249999J0D01*
G01*
X146350001Y-99100000D01*
G75*
G02*
X146600000Y-99349999I0J-249999D01*
G01*
X146600000Y-101950001D01*
G75*
G02*
X146350001Y-102200000I-249999J0D01*
G01*
X145649999Y-102200000D01*
G75*
G02*
X145400000Y-101950001I0J249999D01*
G01*
G37*
G04 #@! TD.AperFunction*
G04 #@! TA.AperFunction,SMDPad,CuDef*
G36*
G01*
X143400000Y-101950001D02*
X143400000Y-99349999D01*
G75*
G02*
X143649999Y-99100000I249999J0D01*
G01*
X144350001Y-99100000D01*
G75*
G02*
X144600000Y-99349999I0J-249999D01*
G01*
X144600000Y-101950001D01*
G75*
G02*
X144350001Y-102200000I-249999J0D01*
G01*
X143649999Y-102200000D01*
G75*
G02*
X143400000Y-101950001I0J249999D01*
G01*
G37*
G04 #@! TD.AperFunction*
G04 #@! TA.AperFunction,SMDPad,CuDef*
G36*
G01*
X141400000Y-101950001D02*
X141400000Y-99349999D01*
G75*
G02*
X141649999Y-99100000I249999J0D01*
G01*
X142350001Y-99100000D01*
G75*
G02*
X142600000Y-99349999I0J-249999D01*
G01*
X142600000Y-101950001D01*
G75*
G02*
X142350001Y-102200000I-249999J0D01*
G01*
X141649999Y-102200000D01*
G75*
G02*
X141400000Y-101950001I0J249999D01*
G01*
G37*
G04 #@! TD.AperFunction*
D11*
X144485802Y-85500000D02*
X144000000Y-85500000D01*
X149352009Y-90366207D02*
X144485802Y-85500000D01*
X149352009Y-97897991D02*
X149352009Y-90366207D01*
X146600000Y-100650000D02*
X149352009Y-97897991D01*
X146000000Y-100650000D02*
X146600000Y-100650000D01*
X144548000Y-98552000D02*
X144000000Y-99100000D01*
X147828000Y-98552000D02*
X144548000Y-98552000D01*
X148844000Y-97536000D02*
X147828000Y-98552000D01*
X144000000Y-99100000D02*
X144000000Y-100650000D01*
X148844000Y-91186000D02*
X148844000Y-97536000D01*
X145158000Y-87500000D02*
X148844000Y-91186000D01*
X144950000Y-87500000D02*
X145158000Y-87500000D01*
X143050000Y-87500000D02*
X142624000Y-87500000D01*
X142624000Y-87500000D02*
X138938000Y-91186000D01*
X138938000Y-97588000D02*
X142000000Y-100650000D01*
X138938000Y-91186000D02*
X138938000Y-97588000D01*
X153606301Y-108606300D02*
X134393700Y-108606300D01*
X134393700Y-104850000D01*
X135947157Y-104850000D01*
X135947157Y-107650000D01*
X135959317Y-107773462D01*
X135995329Y-107892179D01*
X136053810Y-108001589D01*
X136132512Y-108097488D01*
X136228411Y-108176190D01*
X136337821Y-108234671D01*
X136456538Y-108270683D01*
X136580000Y-108282843D01*
X138380000Y-108282843D01*
X138503462Y-108270683D01*
X138622179Y-108234671D01*
X138731589Y-108176190D01*
X138827488Y-108097488D01*
X138906190Y-108001589D01*
X138964671Y-107892179D01*
X139000683Y-107773462D01*
X139012843Y-107650000D01*
X139012843Y-104850000D01*
X148987157Y-104850000D01*
X148987157Y-107650000D01*
X148999317Y-107773462D01*
X149035329Y-107892179D01*
X149093810Y-108001589D01*
X149172512Y-108097488D01*
X149268411Y-108176190D01*
X149377821Y-108234671D01*
X149496538Y-108270683D01*
X149620000Y-108282843D01*
X151420000Y-108282843D01*
X151543462Y-108270683D01*
X151662179Y-108234671D01*
X151771589Y-108176190D01*
X151867488Y-108097488D01*
X151946190Y-108001589D01*
X152004671Y-107892179D01*
X152040683Y-107773462D01*
X152052843Y-107650000D01*
X152052843Y-104850000D01*
X152040683Y-104726538D01*
X152004671Y-104607821D01*
X151946190Y-104498411D01*
X151867488Y-104402512D01*
X151771589Y-104323810D01*
X151662179Y-104265329D01*
X151543462Y-104229317D01*
X151420000Y-104217157D01*
X149620000Y-104217157D01*
X149496538Y-104229317D01*
X149377821Y-104265329D01*
X149268411Y-104323810D01*
X149172512Y-104402512D01*
X149093810Y-104498411D01*
X149035329Y-104607821D01*
X148999317Y-104726538D01*
X148987157Y-104850000D01*
X139012843Y-104850000D01*
X139000683Y-104726538D01*
X138964671Y-104607821D01*
X138906190Y-104498411D01*
X138827488Y-104402512D01*
X138731589Y-104323810D01*
X138622179Y-104265329D01*
X138503462Y-104229317D01*
X138380000Y-104217157D01*
X136580000Y-104217157D01*
X136456538Y-104229317D01*
X136337821Y-104265329D01*
X136228411Y-104323810D01*
X136132512Y-104402512D01*
X136053810Y-104498411D01*
X135995329Y-104607821D01*
X135959317Y-104726538D01*
X135947157Y-104850000D01*
X134393700Y-104850000D01*
X134393700Y-102200000D01*
X140761928Y-102200000D01*
X140774188Y-102324482D01*
X140810498Y-102444180D01*
X140869463Y-102554494D01*
X140948815Y-102651185D01*
X141045506Y-102730537D01*
X141155820Y-102789502D01*
X141275518Y-102825812D01*
X141400000Y-102838072D01*
X141714250Y-102835000D01*
X141873000Y-102676250D01*
X141873000Y-100777000D01*
X140923750Y-100777000D01*
X140765000Y-100935750D01*
X140761928Y-102200000D01*
X134393700Y-102200000D01*
X134393700Y-99100000D01*
X140761928Y-99100000D01*
X140765000Y-100364250D01*
X140923750Y-100523000D01*
X141873000Y-100523000D01*
X141873000Y-98623750D01*
X142127000Y-98623750D01*
X142127000Y-100523000D01*
X142147000Y-100523000D01*
X142147000Y-100777000D01*
X142127000Y-100777000D01*
X142127000Y-102676250D01*
X142285750Y-102835000D01*
X142600000Y-102838072D01*
X142724482Y-102825812D01*
X142844180Y-102789502D01*
X142954494Y-102730537D01*
X143051185Y-102651185D01*
X143130537Y-102554494D01*
X143189502Y-102444180D01*
X143203436Y-102398246D01*
X143298411Y-102476190D01*
X143407821Y-102534671D01*
X143526538Y-102570683D01*
X143649999Y-102582843D01*
X144350001Y-102582843D01*
X144473462Y-102570683D01*
X144592179Y-102534671D01*
X144701589Y-102476190D01*
X144797488Y-102397488D01*
X144876190Y-102301589D01*
X144934671Y-102192179D01*
X144970683Y-102073462D01*
X144982843Y-101950001D01*
X144982843Y-99349999D01*
X144970683Y-99226538D01*
X144934671Y-99107821D01*
X144909110Y-99060000D01*
X145090890Y-99060000D01*
X145065329Y-99107821D01*
X145029317Y-99226538D01*
X145017157Y-99349999D01*
X145017157Y-101950001D01*
X145029317Y-102073462D01*
X145065329Y-102192179D01*
X145123810Y-102301589D01*
X145202512Y-102397488D01*
X145298411Y-102476190D01*
X145407821Y-102534671D01*
X145526538Y-102570683D01*
X145649999Y-102582843D01*
X146350001Y-102582843D01*
X146473462Y-102570683D01*
X146592179Y-102534671D01*
X146701589Y-102476190D01*
X146797488Y-102397488D01*
X146876190Y-102301589D01*
X146934671Y-102192179D01*
X146970683Y-102073462D01*
X146982843Y-101950001D01*
X146982843Y-100985577D01*
X149693580Y-98274841D01*
X149712957Y-98258939D01*
X149768670Y-98191052D01*
X149776438Y-98181587D01*
X149823609Y-98093336D01*
X149823610Y-98093333D01*
X149852658Y-97997576D01*
X149860009Y-97922938D01*
X149860009Y-97922936D01*
X149862466Y-97897992D01*
X149860009Y-97873048D01*
X149860009Y-90391151D01*
X149862466Y-90366207D01*
X149860009Y-90341260D01*
X149852658Y-90266622D01*
X149823610Y-90170864D01*
X149801652Y-90129783D01*
X149776438Y-90082611D01*
X149728859Y-90024636D01*
X149712957Y-90005259D01*
X149693580Y-89989357D01*
X144862657Y-85158435D01*
X144846750Y-85139052D01*
X144782843Y-85086606D01*
X144782843Y-85050000D01*
X144775487Y-84975311D01*
X144753701Y-84903492D01*
X144718322Y-84837304D01*
X144670711Y-84779289D01*
X144612696Y-84731678D01*
X144546508Y-84696299D01*
X144474689Y-84674513D01*
X144400000Y-84667157D01*
X143600000Y-84667157D01*
X143525311Y-84674513D01*
X143453492Y-84696299D01*
X143387304Y-84731678D01*
X143329289Y-84779289D01*
X143281678Y-84837304D01*
X143246299Y-84903492D01*
X143224513Y-84975311D01*
X143217157Y-85050000D01*
X143217157Y-85950000D01*
X143224513Y-86024689D01*
X143246299Y-86096508D01*
X143281678Y-86162696D01*
X143329289Y-86220711D01*
X143387304Y-86268322D01*
X143453492Y-86303701D01*
X143525311Y-86325487D01*
X143600000Y-86332843D01*
X144400000Y-86332843D01*
X144474689Y-86325487D01*
X144546508Y-86303701D01*
X144562523Y-86295141D01*
X144934539Y-86667157D01*
X144550000Y-86667157D01*
X144475311Y-86674513D01*
X144403492Y-86696299D01*
X144337304Y-86731678D01*
X144279289Y-86779289D01*
X144231678Y-86837304D01*
X144196299Y-86903492D01*
X144174513Y-86975311D01*
X144167157Y-87050000D01*
X144167157Y-87950000D01*
X144174513Y-88024689D01*
X144196299Y-88096508D01*
X144231678Y-88162696D01*
X144279289Y-88220711D01*
X144337304Y-88268322D01*
X144403492Y-88303701D01*
X144475311Y-88325487D01*
X144550000Y-88332843D01*
X145272423Y-88332843D01*
X148336000Y-91396421D01*
X148336001Y-97325578D01*
X147617580Y-98044000D01*
X144572943Y-98044000D01*
X144547999Y-98041543D01*
X144523055Y-98044000D01*
X144523053Y-98044000D01*
X144448415Y-98051351D01*
X144352657Y-98080399D01*
X144328454Y-98093336D01*
X144264404Y-98127571D01*
X144209810Y-98172376D01*
X144187052Y-98191052D01*
X144171149Y-98210430D01*
X143664423Y-98717157D01*
X143649999Y-98717157D01*
X143526538Y-98729317D01*
X143407821Y-98765329D01*
X143298411Y-98823810D01*
X143203436Y-98901754D01*
X143189502Y-98855820D01*
X143130537Y-98745506D01*
X143051185Y-98648815D01*
X142954494Y-98569463D01*
X142844180Y-98510498D01*
X142724482Y-98474188D01*
X142600000Y-98461928D01*
X142285750Y-98465000D01*
X142127000Y-98623750D01*
X141873000Y-98623750D01*
X141714250Y-98465000D01*
X141400000Y-98461928D01*
X141275518Y-98474188D01*
X141155820Y-98510498D01*
X141045506Y-98569463D01*
X140948815Y-98648815D01*
X140869463Y-98745506D01*
X140810498Y-98855820D01*
X140774188Y-98975518D01*
X140761928Y-99100000D01*
X134393700Y-99100000D01*
X134393700Y-93204606D01*
X141000812Y-93204606D01*
X141000812Y-93795394D01*
X141116069Y-94374831D01*
X141342154Y-94920648D01*
X141670378Y-95411871D01*
X142088129Y-95829622D01*
X142579352Y-96157846D01*
X143125169Y-96383931D01*
X143704606Y-96499188D01*
X144295394Y-96499188D01*
X144874831Y-96383931D01*
X145420648Y-96157846D01*
X145911871Y-95829622D01*
X146329622Y-95411871D01*
X146657846Y-94920648D01*
X146883931Y-94374831D01*
X146999188Y-93795394D01*
X146999188Y-93204606D01*
X146883931Y-92625169D01*
X146657846Y-92079352D01*
X146329622Y-91588129D01*
X145911871Y-91170378D01*
X145420648Y-90842154D01*
X144874831Y-90616069D01*
X144295394Y-90500812D01*
X143704606Y-90500812D01*
X143125169Y-90616069D01*
X142579352Y-90842154D01*
X142088129Y-91170378D01*
X141670378Y-91588129D01*
X141342154Y-92079352D01*
X141116069Y-92625169D01*
X141000812Y-93204606D01*
X134393700Y-93204606D01*
X134393700Y-87950000D01*
X142011928Y-87950000D01*
X142024188Y-88074482D01*
X142060498Y-88194180D01*
X142119463Y-88304494D01*
X142198815Y-88401185D01*
X142295506Y-88480537D01*
X142405820Y-88539502D01*
X142525518Y-88575812D01*
X142650000Y-88588072D01*
X142764250Y-88585000D01*
X142923000Y-88426250D01*
X142923000Y-87627000D01*
X143177000Y-87627000D01*
X143177000Y-88426250D01*
X143335750Y-88585000D01*
X143450000Y-88588072D01*
X143574482Y-88575812D01*
X143694180Y-88539502D01*
X143804494Y-88480537D01*
X143901185Y-88401185D01*
X143980537Y-88304494D01*
X144039502Y-88194180D01*
X144075812Y-88074482D01*
X144088072Y-87950000D01*
X144085000Y-87785750D01*
X143926250Y-87627000D01*
X143177000Y-87627000D01*
X142923000Y-87627000D01*
X142173750Y-87627000D01*
X142015000Y-87785750D01*
X142011928Y-87950000D01*
X134393700Y-87950000D01*
X134393700Y-87050000D01*
X142011928Y-87050000D01*
X142015000Y-87214250D01*
X142173750Y-87373000D01*
X142923000Y-87373000D01*
X142923000Y-86573750D01*
X143177000Y-86573750D01*
X143177000Y-87373000D01*
X143926250Y-87373000D01*
X144085000Y-87214250D01*
X144088072Y-87050000D01*
X144075812Y-86925518D01*
X144039502Y-86805820D01*
X143980537Y-86695506D01*
X143901185Y-86598815D01*
X143804494Y-86519463D01*
X143694180Y-86460498D01*
X143574482Y-86424188D01*
X143450000Y-86411928D01*
X143335750Y-86415000D01*
X143177000Y-86573750D01*
X142923000Y-86573750D01*
X142764250Y-86415000D01*
X142650000Y-86411928D01*
X142525518Y-86424188D01*
X142405820Y-86460498D01*
X142295506Y-86519463D01*
X142198815Y-86598815D01*
X142119463Y-86695506D01*
X142060498Y-86805820D01*
X142024188Y-86925518D01*
X142011928Y-87050000D01*
X134393700Y-87050000D01*
X134393700Y-84393700D01*
X153606300Y-84393700D01*
X153606301Y-108606300D01*
G04 #@! TA.AperFunction,Conductor*
D12*
G36*
X153606301Y-108606300D02*
G01*
X134393700Y-108606300D01*
X134393700Y-104850000D01*
X135947157Y-104850000D01*
X135947157Y-107650000D01*
X135959317Y-107773462D01*
X135995329Y-107892179D01*
X136053810Y-108001589D01*
X136132512Y-108097488D01*
X136228411Y-108176190D01*
X136337821Y-108234671D01*
X136456538Y-108270683D01*
X136580000Y-108282843D01*
X138380000Y-108282843D01*
X138503462Y-108270683D01*
X138622179Y-108234671D01*
X138731589Y-108176190D01*
X138827488Y-108097488D01*
X138906190Y-108001589D01*
X138964671Y-107892179D01*
X139000683Y-107773462D01*
X139012843Y-107650000D01*
X139012843Y-104850000D01*
X148987157Y-104850000D01*
X148987157Y-107650000D01*
X148999317Y-107773462D01*
X149035329Y-107892179D01*
X149093810Y-108001589D01*
X149172512Y-108097488D01*
X149268411Y-108176190D01*
X149377821Y-108234671D01*
X149496538Y-108270683D01*
X149620000Y-108282843D01*
X151420000Y-108282843D01*
X151543462Y-108270683D01*
X151662179Y-108234671D01*
X151771589Y-108176190D01*
X151867488Y-108097488D01*
X151946190Y-108001589D01*
X152004671Y-107892179D01*
X152040683Y-107773462D01*
X152052843Y-107650000D01*
X152052843Y-104850000D01*
X152040683Y-104726538D01*
X152004671Y-104607821D01*
X151946190Y-104498411D01*
X151867488Y-104402512D01*
X151771589Y-104323810D01*
X151662179Y-104265329D01*
X151543462Y-104229317D01*
X151420000Y-104217157D01*
X149620000Y-104217157D01*
X149496538Y-104229317D01*
X149377821Y-104265329D01*
X149268411Y-104323810D01*
X149172512Y-104402512D01*
X149093810Y-104498411D01*
X149035329Y-104607821D01*
X148999317Y-104726538D01*
X148987157Y-104850000D01*
X139012843Y-104850000D01*
X139000683Y-104726538D01*
X138964671Y-104607821D01*
X138906190Y-104498411D01*
X138827488Y-104402512D01*
X138731589Y-104323810D01*
X138622179Y-104265329D01*
X138503462Y-104229317D01*
X138380000Y-104217157D01*
X136580000Y-104217157D01*
X136456538Y-104229317D01*
X136337821Y-104265329D01*
X136228411Y-104323810D01*
X136132512Y-104402512D01*
X136053810Y-104498411D01*
X135995329Y-104607821D01*
X135959317Y-104726538D01*
X135947157Y-104850000D01*
X134393700Y-104850000D01*
X134393700Y-102200000D01*
X140761928Y-102200000D01*
X140774188Y-102324482D01*
X140810498Y-102444180D01*
X140869463Y-102554494D01*
X140948815Y-102651185D01*
X141045506Y-102730537D01*
X141155820Y-102789502D01*
X141275518Y-102825812D01*
X141400000Y-102838072D01*
X141714250Y-102835000D01*
X141873000Y-102676250D01*
X141873000Y-100777000D01*
X140923750Y-100777000D01*
X140765000Y-100935750D01*
X140761928Y-102200000D01*
X134393700Y-102200000D01*
X134393700Y-99100000D01*
X140761928Y-99100000D01*
X140765000Y-100364250D01*
X140923750Y-100523000D01*
X141873000Y-100523000D01*
X141873000Y-98623750D01*
X142127000Y-98623750D01*
X142127000Y-100523000D01*
X142147000Y-100523000D01*
X142147000Y-100777000D01*
X142127000Y-100777000D01*
X142127000Y-102676250D01*
X142285750Y-102835000D01*
X142600000Y-102838072D01*
X142724482Y-102825812D01*
X142844180Y-102789502D01*
X142954494Y-102730537D01*
X143051185Y-102651185D01*
X143130537Y-102554494D01*
X143189502Y-102444180D01*
X143203436Y-102398246D01*
X143298411Y-102476190D01*
X143407821Y-102534671D01*
X143526538Y-102570683D01*
X143649999Y-102582843D01*
X144350001Y-102582843D01*
X144473462Y-102570683D01*
X144592179Y-102534671D01*
X144701589Y-102476190D01*
X144797488Y-102397488D01*
X144876190Y-102301589D01*
X144934671Y-102192179D01*
X144970683Y-102073462D01*
X144982843Y-101950001D01*
X144982843Y-99349999D01*
X144970683Y-99226538D01*
X144934671Y-99107821D01*
X144909110Y-99060000D01*
X145090890Y-99060000D01*
X145065329Y-99107821D01*
X145029317Y-99226538D01*
X145017157Y-99349999D01*
X145017157Y-101950001D01*
X145029317Y-102073462D01*
X145065329Y-102192179D01*
X145123810Y-102301589D01*
X145202512Y-102397488D01*
X145298411Y-102476190D01*
X145407821Y-102534671D01*
X145526538Y-102570683D01*
X145649999Y-102582843D01*
X146350001Y-102582843D01*
X146473462Y-102570683D01*
X146592179Y-102534671D01*
X146701589Y-102476190D01*
X146797488Y-102397488D01*
X146876190Y-102301589D01*
X146934671Y-102192179D01*
X146970683Y-102073462D01*
X146982843Y-101950001D01*
X146982843Y-100985577D01*
X149693580Y-98274841D01*
X149712957Y-98258939D01*
X149768670Y-98191052D01*
X149776438Y-98181587D01*
X149823609Y-98093336D01*
X149823610Y-98093333D01*
X149852658Y-97997576D01*
X149860009Y-97922938D01*
X149860009Y-97922936D01*
X149862466Y-97897992D01*
X149860009Y-97873048D01*
X149860009Y-90391151D01*
X149862466Y-90366207D01*
X149860009Y-90341260D01*
X149852658Y-90266622D01*
X149823610Y-90170864D01*
X149801652Y-90129783D01*
X149776438Y-90082611D01*
X149728859Y-90024636D01*
X149712957Y-90005259D01*
X149693580Y-89989357D01*
X144862657Y-85158435D01*
X144846750Y-85139052D01*
X144782843Y-85086606D01*
X144782843Y-85050000D01*
X144775487Y-84975311D01*
X144753701Y-84903492D01*
X144718322Y-84837304D01*
X144670711Y-84779289D01*
X144612696Y-84731678D01*
X144546508Y-84696299D01*
X144474689Y-84674513D01*
X144400000Y-84667157D01*
X143600000Y-84667157D01*
X143525311Y-84674513D01*
X143453492Y-84696299D01*
X143387304Y-84731678D01*
X143329289Y-84779289D01*
X143281678Y-84837304D01*
X143246299Y-84903492D01*
X143224513Y-84975311D01*
X143217157Y-85050000D01*
X143217157Y-85950000D01*
X143224513Y-86024689D01*
X143246299Y-86096508D01*
X143281678Y-86162696D01*
X143329289Y-86220711D01*
X143387304Y-86268322D01*
X143453492Y-86303701D01*
X143525311Y-86325487D01*
X143600000Y-86332843D01*
X144400000Y-86332843D01*
X144474689Y-86325487D01*
X144546508Y-86303701D01*
X144562523Y-86295141D01*
X144934539Y-86667157D01*
X144550000Y-86667157D01*
X144475311Y-86674513D01*
X144403492Y-86696299D01*
X144337304Y-86731678D01*
X144279289Y-86779289D01*
X144231678Y-86837304D01*
X144196299Y-86903492D01*
X144174513Y-86975311D01*
X144167157Y-87050000D01*
X144167157Y-87950000D01*
X144174513Y-88024689D01*
X144196299Y-88096508D01*
X144231678Y-88162696D01*
X144279289Y-88220711D01*
X144337304Y-88268322D01*
X144403492Y-88303701D01*
X144475311Y-88325487D01*
X144550000Y-88332843D01*
X145272423Y-88332843D01*
X148336000Y-91396421D01*
X148336001Y-97325578D01*
X147617580Y-98044000D01*
X144572943Y-98044000D01*
X144547999Y-98041543D01*
X144523055Y-98044000D01*
X144523053Y-98044000D01*
X144448415Y-98051351D01*
X144352657Y-98080399D01*
X144328454Y-98093336D01*
X144264404Y-98127571D01*
X144209810Y-98172376D01*
X144187052Y-98191052D01*
X144171149Y-98210430D01*
X143664423Y-98717157D01*
X143649999Y-98717157D01*
X143526538Y-98729317D01*
X143407821Y-98765329D01*
X143298411Y-98823810D01*
X143203436Y-98901754D01*
X143189502Y-98855820D01*
X143130537Y-98745506D01*
X143051185Y-98648815D01*
X142954494Y-98569463D01*
X142844180Y-98510498D01*
X142724482Y-98474188D01*
X142600000Y-98461928D01*
X142285750Y-98465000D01*
X142127000Y-98623750D01*
X141873000Y-98623750D01*
X141714250Y-98465000D01*
X141400000Y-98461928D01*
X141275518Y-98474188D01*
X141155820Y-98510498D01*
X141045506Y-98569463D01*
X140948815Y-98648815D01*
X140869463Y-98745506D01*
X140810498Y-98855820D01*
X140774188Y-98975518D01*
X140761928Y-99100000D01*
X134393700Y-99100000D01*
X134393700Y-93204606D01*
X141000812Y-93204606D01*
X141000812Y-93795394D01*
X141116069Y-94374831D01*
X141342154Y-94920648D01*
X141670378Y-95411871D01*
X142088129Y-95829622D01*
X142579352Y-96157846D01*
X143125169Y-96383931D01*
X143704606Y-96499188D01*
X144295394Y-96499188D01*
X144874831Y-96383931D01*
X145420648Y-96157846D01*
X145911871Y-95829622D01*
X146329622Y-95411871D01*
X146657846Y-94920648D01*
X146883931Y-94374831D01*
X146999188Y-93795394D01*
X146999188Y-93204606D01*
X146883931Y-92625169D01*
X146657846Y-92079352D01*
X146329622Y-91588129D01*
X145911871Y-91170378D01*
X145420648Y-90842154D01*
X144874831Y-90616069D01*
X144295394Y-90500812D01*
X143704606Y-90500812D01*
X143125169Y-90616069D01*
X142579352Y-90842154D01*
X142088129Y-91170378D01*
X141670378Y-91588129D01*
X141342154Y-92079352D01*
X141116069Y-92625169D01*
X141000812Y-93204606D01*
X134393700Y-93204606D01*
X134393700Y-87950000D01*
X142011928Y-87950000D01*
X142024188Y-88074482D01*
X142060498Y-88194180D01*
X142119463Y-88304494D01*
X142198815Y-88401185D01*
X142295506Y-88480537D01*
X142405820Y-88539502D01*
X142525518Y-88575812D01*
X142650000Y-88588072D01*
X142764250Y-88585000D01*
X142923000Y-88426250D01*
X142923000Y-87627000D01*
X143177000Y-87627000D01*
X143177000Y-88426250D01*
X143335750Y-88585000D01*
X143450000Y-88588072D01*
X143574482Y-88575812D01*
X143694180Y-88539502D01*
X143804494Y-88480537D01*
X143901185Y-88401185D01*
X143980537Y-88304494D01*
X144039502Y-88194180D01*
X144075812Y-88074482D01*
X144088072Y-87950000D01*
X144085000Y-87785750D01*
X143926250Y-87627000D01*
X143177000Y-87627000D01*
X142923000Y-87627000D01*
X142173750Y-87627000D01*
X142015000Y-87785750D01*
X142011928Y-87950000D01*
X134393700Y-87950000D01*
X134393700Y-87050000D01*
X142011928Y-87050000D01*
X142015000Y-87214250D01*
X142173750Y-87373000D01*
X142923000Y-87373000D01*
X142923000Y-86573750D01*
X143177000Y-86573750D01*
X143177000Y-87373000D01*
X143926250Y-87373000D01*
X144085000Y-87214250D01*
X144088072Y-87050000D01*
X144075812Y-86925518D01*
X144039502Y-86805820D01*
X143980537Y-86695506D01*
X143901185Y-86598815D01*
X143804494Y-86519463D01*
X143694180Y-86460498D01*
X143574482Y-86424188D01*
X143450000Y-86411928D01*
X143335750Y-86415000D01*
X143177000Y-86573750D01*
X142923000Y-86573750D01*
X142764250Y-86415000D01*
X142650000Y-86411928D01*
X142525518Y-86424188D01*
X142405820Y-86460498D01*
X142295506Y-86519463D01*
X142198815Y-86598815D01*
X142119463Y-86695506D01*
X142060498Y-86805820D01*
X142024188Y-86925518D01*
X142011928Y-87050000D01*
X134393700Y-87050000D01*
X134393700Y-84393700D01*
X153606300Y-84393700D01*
X153606301Y-108606300D01*
G37*
G04 #@! TD.AperFunction*
M02*
