G04 #@! TF.GenerationSoftware,KiCad,Pcbnew,(5.1.10)-1*
G04 #@! TF.CreationDate,2022-07-24T10:20:42-05:00*
G04 #@! TF.ProjectId,Magnetic_Switch,4d61676e-6574-4696-935f-537769746368,rev?*
G04 #@! TF.SameCoordinates,Original*
G04 #@! TF.FileFunction,Copper,L1,Top*
G04 #@! TF.FilePolarity,Positive*
%FSLAX46Y46*%
G04 Gerber Fmt 4.6, Leading zero omitted, Abs format (unit mm)*
G04 Created by KiCad (PCBNEW (5.1.10)-1) date 2022-07-24 10:20:42*
%MOMM*%
%LPD*%
G01*
G04 APERTURE LIST*
G04 #@! TA.AperFunction,ComponentPad*
%ADD10O,1.700000X1.700000*%
G04 #@! TD*
G04 #@! TA.AperFunction,ComponentPad*
%ADD11R,1.700000X1.700000*%
G04 #@! TD*
G04 #@! TA.AperFunction,SMDPad,CuDef*
%ADD12R,0.800000X0.900000*%
G04 #@! TD*
G04 #@! TA.AperFunction,Conductor*
%ADD13C,0.254000*%
G04 #@! TD*
G04 #@! TA.AperFunction,Conductor*
%ADD14C,0.100000*%
G04 #@! TD*
G04 APERTURE END LIST*
D10*
X144018000Y-106045000D03*
X144018000Y-103505000D03*
D11*
X144018000Y-100965000D03*
D12*
X144000000Y-85500000D03*
X144950000Y-87500000D03*
X143050000Y-87500000D03*
D13*
X149733010Y-100329990D02*
X144018000Y-106045000D01*
X149733010Y-90467576D02*
X149733010Y-100329990D01*
X144765434Y-85500000D02*
X149733010Y-90467576D01*
X144000000Y-85500000D02*
X144765434Y-85500000D01*
X144950000Y-87500000D02*
X145158000Y-87500000D01*
X149225000Y-98298000D02*
X144018000Y-103505000D01*
X149225000Y-90678000D02*
X149225000Y-98298000D01*
X146047000Y-87500000D02*
X149225000Y-90678000D01*
X144950000Y-87500000D02*
X146047000Y-87500000D01*
X143050000Y-87500000D02*
X142624000Y-87500000D01*
X143050000Y-87500000D02*
X142370000Y-87500000D01*
X142370000Y-87500000D02*
X138684000Y-91186000D01*
X138684000Y-91186000D02*
X138684000Y-96393000D01*
X143256000Y-100965000D02*
X144018000Y-100965000D01*
X138684000Y-96393000D02*
X143256000Y-100965000D01*
X143069463Y-84695506D02*
X143010498Y-84805820D01*
X142974188Y-84925518D01*
X142961928Y-85050000D01*
X142961928Y-85950000D01*
X142974188Y-86074482D01*
X143010498Y-86194180D01*
X143069463Y-86304494D01*
X143148815Y-86401185D01*
X143245506Y-86480537D01*
X143261607Y-86489143D01*
X143177000Y-86573750D01*
X143177000Y-87373000D01*
X143197000Y-87373000D01*
X143197000Y-87627000D01*
X143177000Y-87627000D01*
X143177000Y-88426250D01*
X143335750Y-88585000D01*
X143450000Y-88588072D01*
X143574482Y-88575812D01*
X143694180Y-88539502D01*
X143804494Y-88480537D01*
X143901185Y-88401185D01*
X143980537Y-88304494D01*
X144000000Y-88268082D01*
X144019463Y-88304494D01*
X144098815Y-88401185D01*
X144195506Y-88480537D01*
X144305820Y-88539502D01*
X144425518Y-88575812D01*
X144550000Y-88588072D01*
X145350000Y-88588072D01*
X145474482Y-88575812D01*
X145594180Y-88539502D01*
X145704494Y-88480537D01*
X145801185Y-88401185D01*
X145832454Y-88363084D01*
X148463000Y-90993630D01*
X148463001Y-97982368D01*
X145503000Y-100942370D01*
X145503000Y-100837998D01*
X145344252Y-100837998D01*
X145503000Y-100679250D01*
X145506072Y-100115000D01*
X145493812Y-99990518D01*
X145457502Y-99870820D01*
X145398537Y-99760506D01*
X145319185Y-99663815D01*
X145222494Y-99584463D01*
X145112180Y-99525498D01*
X144992482Y-99489188D01*
X144868000Y-99476928D01*
X144303750Y-99480000D01*
X144145000Y-99638750D01*
X144145000Y-100838000D01*
X144165000Y-100838000D01*
X144165000Y-101092000D01*
X144145000Y-101092000D01*
X144145000Y-101112000D01*
X143891000Y-101112000D01*
X143891000Y-101092000D01*
X142691750Y-101092000D01*
X142533000Y-101250750D01*
X142529928Y-101815000D01*
X142542188Y-101939482D01*
X142578498Y-102059180D01*
X142637463Y-102169494D01*
X142716815Y-102266185D01*
X142813506Y-102345537D01*
X142923820Y-102404502D01*
X142996380Y-102426513D01*
X142864525Y-102558368D01*
X142702010Y-102801589D01*
X142590068Y-103071842D01*
X142533000Y-103358740D01*
X142533000Y-103651260D01*
X142590068Y-103938158D01*
X142702010Y-104208411D01*
X142864525Y-104451632D01*
X143071368Y-104658475D01*
X143245760Y-104775000D01*
X143071368Y-104891525D01*
X142864525Y-105098368D01*
X142702010Y-105341589D01*
X142590068Y-105611842D01*
X142533000Y-105898740D01*
X142533000Y-106191260D01*
X142590068Y-106478158D01*
X142702010Y-106748411D01*
X142864525Y-106991632D01*
X143071368Y-107198475D01*
X143314589Y-107360990D01*
X143584842Y-107472932D01*
X143871740Y-107530000D01*
X144164260Y-107530000D01*
X144451158Y-107472932D01*
X144721411Y-107360990D01*
X144964632Y-107198475D01*
X145171475Y-106991632D01*
X145333990Y-106748411D01*
X145445932Y-106478158D01*
X145503000Y-106191260D01*
X145503000Y-105898740D01*
X145459679Y-105680951D01*
X150245356Y-100895274D01*
X150274432Y-100871412D01*
X150334867Y-100797771D01*
X150369655Y-100755383D01*
X150440411Y-100623006D01*
X150440412Y-100623005D01*
X150483984Y-100479368D01*
X150495010Y-100367416D01*
X150495010Y-100367413D01*
X150498696Y-100329990D01*
X150495010Y-100292567D01*
X150495010Y-90504998D01*
X150498696Y-90467575D01*
X150495010Y-90430150D01*
X150483984Y-90318198D01*
X150440412Y-90174561D01*
X150369655Y-90042184D01*
X150274432Y-89926154D01*
X150245363Y-89902298D01*
X145330718Y-84987654D01*
X145306856Y-84958578D01*
X145190826Y-84863355D01*
X145058449Y-84792598D01*
X144967724Y-84765077D01*
X144930537Y-84695506D01*
X144891304Y-84647700D01*
X153352300Y-84647700D01*
X153352301Y-108352300D01*
X134647700Y-108352300D01*
X134647700Y-100115000D01*
X142529928Y-100115000D01*
X142533000Y-100679250D01*
X142691750Y-100838000D01*
X143891000Y-100838000D01*
X143891000Y-99638750D01*
X143732250Y-99480000D01*
X143168000Y-99476928D01*
X143043518Y-99489188D01*
X142923820Y-99525498D01*
X142813506Y-99584463D01*
X142716815Y-99663815D01*
X142637463Y-99760506D01*
X142578498Y-99870820D01*
X142542188Y-99990518D01*
X142529928Y-100115000D01*
X134647700Y-100115000D01*
X134647700Y-93179709D01*
X140748035Y-93179709D01*
X140748035Y-93820291D01*
X140873006Y-94448563D01*
X141118146Y-95040383D01*
X141474034Y-95573007D01*
X141926993Y-96025966D01*
X142459617Y-96381854D01*
X143051437Y-96626994D01*
X143679709Y-96751965D01*
X144320291Y-96751965D01*
X144948563Y-96626994D01*
X145540383Y-96381854D01*
X146073007Y-96025966D01*
X146525966Y-95573007D01*
X146881854Y-95040383D01*
X147126994Y-94448563D01*
X147251965Y-93820291D01*
X147251965Y-93179709D01*
X147126994Y-92551437D01*
X146881854Y-91959617D01*
X146525966Y-91426993D01*
X146073007Y-90974034D01*
X145540383Y-90618146D01*
X144948563Y-90373006D01*
X144320291Y-90248035D01*
X143679709Y-90248035D01*
X143051437Y-90373006D01*
X142459617Y-90618146D01*
X141926993Y-90974034D01*
X141474034Y-91426993D01*
X141118146Y-91959617D01*
X140873006Y-92551437D01*
X140748035Y-93179709D01*
X134647700Y-93179709D01*
X134647700Y-87950000D01*
X142011928Y-87950000D01*
X142024188Y-88074482D01*
X142060498Y-88194180D01*
X142119463Y-88304494D01*
X142198815Y-88401185D01*
X142295506Y-88480537D01*
X142405820Y-88539502D01*
X142525518Y-88575812D01*
X142650000Y-88588072D01*
X142764250Y-88585000D01*
X142923000Y-88426250D01*
X142923000Y-87627000D01*
X142173750Y-87627000D01*
X142015000Y-87785750D01*
X142011928Y-87950000D01*
X134647700Y-87950000D01*
X134647700Y-87050000D01*
X142011928Y-87050000D01*
X142015000Y-87214250D01*
X142173750Y-87373000D01*
X142923000Y-87373000D01*
X142923000Y-86573750D01*
X142764250Y-86415000D01*
X142650000Y-86411928D01*
X142525518Y-86424188D01*
X142405820Y-86460498D01*
X142295506Y-86519463D01*
X142198815Y-86598815D01*
X142119463Y-86695506D01*
X142060498Y-86805820D01*
X142024188Y-86925518D01*
X142011928Y-87050000D01*
X134647700Y-87050000D01*
X134647700Y-84647700D01*
X143108696Y-84647700D01*
X143069463Y-84695506D01*
G04 #@! TA.AperFunction,Conductor*
D14*
G36*
X143069463Y-84695506D02*
G01*
X143010498Y-84805820D01*
X142974188Y-84925518D01*
X142961928Y-85050000D01*
X142961928Y-85950000D01*
X142974188Y-86074482D01*
X143010498Y-86194180D01*
X143069463Y-86304494D01*
X143148815Y-86401185D01*
X143245506Y-86480537D01*
X143261607Y-86489143D01*
X143177000Y-86573750D01*
X143177000Y-87373000D01*
X143197000Y-87373000D01*
X143197000Y-87627000D01*
X143177000Y-87627000D01*
X143177000Y-88426250D01*
X143335750Y-88585000D01*
X143450000Y-88588072D01*
X143574482Y-88575812D01*
X143694180Y-88539502D01*
X143804494Y-88480537D01*
X143901185Y-88401185D01*
X143980537Y-88304494D01*
X144000000Y-88268082D01*
X144019463Y-88304494D01*
X144098815Y-88401185D01*
X144195506Y-88480537D01*
X144305820Y-88539502D01*
X144425518Y-88575812D01*
X144550000Y-88588072D01*
X145350000Y-88588072D01*
X145474482Y-88575812D01*
X145594180Y-88539502D01*
X145704494Y-88480537D01*
X145801185Y-88401185D01*
X145832454Y-88363084D01*
X148463000Y-90993630D01*
X148463001Y-97982368D01*
X145503000Y-100942370D01*
X145503000Y-100837998D01*
X145344252Y-100837998D01*
X145503000Y-100679250D01*
X145506072Y-100115000D01*
X145493812Y-99990518D01*
X145457502Y-99870820D01*
X145398537Y-99760506D01*
X145319185Y-99663815D01*
X145222494Y-99584463D01*
X145112180Y-99525498D01*
X144992482Y-99489188D01*
X144868000Y-99476928D01*
X144303750Y-99480000D01*
X144145000Y-99638750D01*
X144145000Y-100838000D01*
X144165000Y-100838000D01*
X144165000Y-101092000D01*
X144145000Y-101092000D01*
X144145000Y-101112000D01*
X143891000Y-101112000D01*
X143891000Y-101092000D01*
X142691750Y-101092000D01*
X142533000Y-101250750D01*
X142529928Y-101815000D01*
X142542188Y-101939482D01*
X142578498Y-102059180D01*
X142637463Y-102169494D01*
X142716815Y-102266185D01*
X142813506Y-102345537D01*
X142923820Y-102404502D01*
X142996380Y-102426513D01*
X142864525Y-102558368D01*
X142702010Y-102801589D01*
X142590068Y-103071842D01*
X142533000Y-103358740D01*
X142533000Y-103651260D01*
X142590068Y-103938158D01*
X142702010Y-104208411D01*
X142864525Y-104451632D01*
X143071368Y-104658475D01*
X143245760Y-104775000D01*
X143071368Y-104891525D01*
X142864525Y-105098368D01*
X142702010Y-105341589D01*
X142590068Y-105611842D01*
X142533000Y-105898740D01*
X142533000Y-106191260D01*
X142590068Y-106478158D01*
X142702010Y-106748411D01*
X142864525Y-106991632D01*
X143071368Y-107198475D01*
X143314589Y-107360990D01*
X143584842Y-107472932D01*
X143871740Y-107530000D01*
X144164260Y-107530000D01*
X144451158Y-107472932D01*
X144721411Y-107360990D01*
X144964632Y-107198475D01*
X145171475Y-106991632D01*
X145333990Y-106748411D01*
X145445932Y-106478158D01*
X145503000Y-106191260D01*
X145503000Y-105898740D01*
X145459679Y-105680951D01*
X150245356Y-100895274D01*
X150274432Y-100871412D01*
X150334867Y-100797771D01*
X150369655Y-100755383D01*
X150440411Y-100623006D01*
X150440412Y-100623005D01*
X150483984Y-100479368D01*
X150495010Y-100367416D01*
X150495010Y-100367413D01*
X150498696Y-100329990D01*
X150495010Y-100292567D01*
X150495010Y-90504998D01*
X150498696Y-90467575D01*
X150495010Y-90430150D01*
X150483984Y-90318198D01*
X150440412Y-90174561D01*
X150369655Y-90042184D01*
X150274432Y-89926154D01*
X150245363Y-89902298D01*
X145330718Y-84987654D01*
X145306856Y-84958578D01*
X145190826Y-84863355D01*
X145058449Y-84792598D01*
X144967724Y-84765077D01*
X144930537Y-84695506D01*
X144891304Y-84647700D01*
X153352300Y-84647700D01*
X153352301Y-108352300D01*
X134647700Y-108352300D01*
X134647700Y-100115000D01*
X142529928Y-100115000D01*
X142533000Y-100679250D01*
X142691750Y-100838000D01*
X143891000Y-100838000D01*
X143891000Y-99638750D01*
X143732250Y-99480000D01*
X143168000Y-99476928D01*
X143043518Y-99489188D01*
X142923820Y-99525498D01*
X142813506Y-99584463D01*
X142716815Y-99663815D01*
X142637463Y-99760506D01*
X142578498Y-99870820D01*
X142542188Y-99990518D01*
X142529928Y-100115000D01*
X134647700Y-100115000D01*
X134647700Y-93179709D01*
X140748035Y-93179709D01*
X140748035Y-93820291D01*
X140873006Y-94448563D01*
X141118146Y-95040383D01*
X141474034Y-95573007D01*
X141926993Y-96025966D01*
X142459617Y-96381854D01*
X143051437Y-96626994D01*
X143679709Y-96751965D01*
X144320291Y-96751965D01*
X144948563Y-96626994D01*
X145540383Y-96381854D01*
X146073007Y-96025966D01*
X146525966Y-95573007D01*
X146881854Y-95040383D01*
X147126994Y-94448563D01*
X147251965Y-93820291D01*
X147251965Y-93179709D01*
X147126994Y-92551437D01*
X146881854Y-91959617D01*
X146525966Y-91426993D01*
X146073007Y-90974034D01*
X145540383Y-90618146D01*
X144948563Y-90373006D01*
X144320291Y-90248035D01*
X143679709Y-90248035D01*
X143051437Y-90373006D01*
X142459617Y-90618146D01*
X141926993Y-90974034D01*
X141474034Y-91426993D01*
X141118146Y-91959617D01*
X140873006Y-92551437D01*
X140748035Y-93179709D01*
X134647700Y-93179709D01*
X134647700Y-87950000D01*
X142011928Y-87950000D01*
X142024188Y-88074482D01*
X142060498Y-88194180D01*
X142119463Y-88304494D01*
X142198815Y-88401185D01*
X142295506Y-88480537D01*
X142405820Y-88539502D01*
X142525518Y-88575812D01*
X142650000Y-88588072D01*
X142764250Y-88585000D01*
X142923000Y-88426250D01*
X142923000Y-87627000D01*
X142173750Y-87627000D01*
X142015000Y-87785750D01*
X142011928Y-87950000D01*
X134647700Y-87950000D01*
X134647700Y-87050000D01*
X142011928Y-87050000D01*
X142015000Y-87214250D01*
X142173750Y-87373000D01*
X142923000Y-87373000D01*
X142923000Y-86573750D01*
X142764250Y-86415000D01*
X142650000Y-86411928D01*
X142525518Y-86424188D01*
X142405820Y-86460498D01*
X142295506Y-86519463D01*
X142198815Y-86598815D01*
X142119463Y-86695506D01*
X142060498Y-86805820D01*
X142024188Y-86925518D01*
X142011928Y-87050000D01*
X134647700Y-87050000D01*
X134647700Y-84647700D01*
X143108696Y-84647700D01*
X143069463Y-84695506D01*
G37*
G04 #@! TD.AperFunction*
M02*
