G04 #@! TF.GenerationSoftware,KiCad,Pcbnew,(5.1.9)-1*
G04 #@! TF.CreationDate,2021-05-18T23:06:42-05:00*
G04 #@! TF.ProjectId,Magnetic_Switch,4d61676e-6574-4696-935f-537769746368,rev?*
G04 #@! TF.SameCoordinates,Original*
G04 #@! TF.FileFunction,Copper,L2,Bot*
G04 #@! TF.FilePolarity,Positive*
%FSLAX46Y46*%
G04 Gerber Fmt 4.6, Leading zero omitted, Abs format (unit mm)*
G04 Created by KiCad (PCBNEW (5.1.9)-1) date 2021-05-18 23:06:42*
%MOMM*%
%LPD*%
G01*
G04 APERTURE LIST*
G04 #@! TA.AperFunction,NonConductor*
%ADD10C,0.254000*%
G04 #@! TD*
G04 #@! TA.AperFunction,NonConductor*
%ADD11C,0.100000*%
G04 #@! TD*
G04 APERTURE END LIST*
D10*
X153606301Y-108606300D02*
X134393700Y-108606300D01*
X134393700Y-93204606D01*
X141000812Y-93204606D01*
X141000812Y-93795394D01*
X141116069Y-94374831D01*
X141342154Y-94920648D01*
X141670378Y-95411871D01*
X142088129Y-95829622D01*
X142579352Y-96157846D01*
X143125169Y-96383931D01*
X143704606Y-96499188D01*
X144295394Y-96499188D01*
X144874831Y-96383931D01*
X145420648Y-96157846D01*
X145911871Y-95829622D01*
X146329622Y-95411871D01*
X146657846Y-94920648D01*
X146883931Y-94374831D01*
X146999188Y-93795394D01*
X146999188Y-93204606D01*
X146883931Y-92625169D01*
X146657846Y-92079352D01*
X146329622Y-91588129D01*
X145911871Y-91170378D01*
X145420648Y-90842154D01*
X144874831Y-90616069D01*
X144295394Y-90500812D01*
X143704606Y-90500812D01*
X143125169Y-90616069D01*
X142579352Y-90842154D01*
X142088129Y-91170378D01*
X141670378Y-91588129D01*
X141342154Y-92079352D01*
X141116069Y-92625169D01*
X141000812Y-93204606D01*
X134393700Y-93204606D01*
X134393700Y-84393700D01*
X153606300Y-84393700D01*
X153606301Y-108606300D01*
G04 #@! TA.AperFunction,NonConductor*
D11*
G36*
X153606301Y-108606300D02*
G01*
X134393700Y-108606300D01*
X134393700Y-93204606D01*
X141000812Y-93204606D01*
X141000812Y-93795394D01*
X141116069Y-94374831D01*
X141342154Y-94920648D01*
X141670378Y-95411871D01*
X142088129Y-95829622D01*
X142579352Y-96157846D01*
X143125169Y-96383931D01*
X143704606Y-96499188D01*
X144295394Y-96499188D01*
X144874831Y-96383931D01*
X145420648Y-96157846D01*
X145911871Y-95829622D01*
X146329622Y-95411871D01*
X146657846Y-94920648D01*
X146883931Y-94374831D01*
X146999188Y-93795394D01*
X146999188Y-93204606D01*
X146883931Y-92625169D01*
X146657846Y-92079352D01*
X146329622Y-91588129D01*
X145911871Y-91170378D01*
X145420648Y-90842154D01*
X144874831Y-90616069D01*
X144295394Y-90500812D01*
X143704606Y-90500812D01*
X143125169Y-90616069D01*
X142579352Y-90842154D01*
X142088129Y-91170378D01*
X141670378Y-91588129D01*
X141342154Y-92079352D01*
X141116069Y-92625169D01*
X141000812Y-93204606D01*
X134393700Y-93204606D01*
X134393700Y-84393700D01*
X153606300Y-84393700D01*
X153606301Y-108606300D01*
G37*
G04 #@! TD.AperFunction*
M02*
