G04 #@! TF.GenerationSoftware,KiCad,Pcbnew,(5.1.10)-1*
G04 #@! TF.CreationDate,2022-07-24T10:20:42-05:00*
G04 #@! TF.ProjectId,Magnetic_Switch,4d61676e-6574-4696-935f-537769746368,rev?*
G04 #@! TF.SameCoordinates,Original*
G04 #@! TF.FileFunction,Legend,Top*
G04 #@! TF.FilePolarity,Positive*
%FSLAX46Y46*%
G04 Gerber Fmt 4.6, Leading zero omitted, Abs format (unit mm)*
G04 Created by KiCad (PCBNEW (5.1.10)-1) date 2022-07-24 10:20:42*
%MOMM*%
%LPD*%
G01*
G04 APERTURE LIST*
%ADD10C,0.152400*%
%ADD11C,0.150000*%
%ADD12C,0.120000*%
%ADD13O,1.700000X1.700000*%
%ADD14R,1.700000X1.700000*%
%ADD15R,0.800000X0.900000*%
G04 APERTURE END LIST*
D10*
X136643190Y-106025295D02*
X136681895Y-105909180D01*
X136681895Y-105715657D01*
X136643190Y-105638247D01*
X136604485Y-105599542D01*
X136527076Y-105560838D01*
X136449666Y-105560838D01*
X136372257Y-105599542D01*
X136333552Y-105638247D01*
X136294847Y-105715657D01*
X136256142Y-105870476D01*
X136217438Y-105947885D01*
X136178733Y-105986590D01*
X136101323Y-106025295D01*
X136023914Y-106025295D01*
X135946504Y-105986590D01*
X135907800Y-105947885D01*
X135869095Y-105870476D01*
X135869095Y-105676952D01*
X135907800Y-105560838D01*
X136449666Y-105251200D02*
X136449666Y-104864152D01*
X136681895Y-105328609D02*
X135869095Y-105057676D01*
X136681895Y-104786742D01*
X135907800Y-104090057D02*
X135869095Y-104167466D01*
X135869095Y-104283580D01*
X135907800Y-104399695D01*
X135985209Y-104477104D01*
X136062619Y-104515809D01*
X136217438Y-104554514D01*
X136333552Y-104554514D01*
X136488371Y-104515809D01*
X136565780Y-104477104D01*
X136643190Y-104399695D01*
X136681895Y-104283580D01*
X136681895Y-104206171D01*
X136643190Y-104090057D01*
X136604485Y-104051352D01*
X136333552Y-104051352D01*
X136333552Y-104206171D01*
X136256142Y-103703009D02*
X136256142Y-103432076D01*
X136681895Y-103315961D02*
X136681895Y-103703009D01*
X135869095Y-103703009D01*
X135869095Y-103315961D01*
X136681895Y-101883885D02*
X136294847Y-102154819D01*
X136681895Y-102348342D02*
X135869095Y-102348342D01*
X135869095Y-102038704D01*
X135907800Y-101961295D01*
X135946504Y-101922590D01*
X136023914Y-101883885D01*
X136140028Y-101883885D01*
X136217438Y-101922590D01*
X136256142Y-101961295D01*
X136294847Y-102038704D01*
X136294847Y-102348342D01*
X135869095Y-101380723D02*
X135869095Y-101225904D01*
X135907800Y-101148495D01*
X135985209Y-101071085D01*
X136140028Y-101032380D01*
X136410961Y-101032380D01*
X136565780Y-101071085D01*
X136643190Y-101148495D01*
X136681895Y-101225904D01*
X136681895Y-101380723D01*
X136643190Y-101458133D01*
X136565780Y-101535542D01*
X136410961Y-101574247D01*
X136140028Y-101574247D01*
X135985209Y-101535542D01*
X135907800Y-101458133D01*
X135869095Y-101380723D01*
X136256142Y-100413104D02*
X136294847Y-100296990D01*
X136333552Y-100258285D01*
X136410961Y-100219580D01*
X136527076Y-100219580D01*
X136604485Y-100258285D01*
X136643190Y-100296990D01*
X136681895Y-100374400D01*
X136681895Y-100684038D01*
X135869095Y-100684038D01*
X135869095Y-100413104D01*
X135907800Y-100335695D01*
X135946504Y-100296990D01*
X136023914Y-100258285D01*
X136101323Y-100258285D01*
X136178733Y-100296990D01*
X136217438Y-100335695D01*
X136256142Y-100413104D01*
X136256142Y-100684038D01*
X135869095Y-99716419D02*
X135869095Y-99561600D01*
X135907800Y-99484190D01*
X135985209Y-99406780D01*
X136140028Y-99368076D01*
X136410961Y-99368076D01*
X136565780Y-99406780D01*
X136643190Y-99484190D01*
X136681895Y-99561600D01*
X136681895Y-99716419D01*
X136643190Y-99793828D01*
X136565780Y-99871238D01*
X136410961Y-99909942D01*
X136140028Y-99909942D01*
X135985209Y-99871238D01*
X135907800Y-99793828D01*
X135869095Y-99716419D01*
X135869095Y-99135847D02*
X135869095Y-98671390D01*
X136681895Y-98903619D02*
X135869095Y-98903619D01*
X136643190Y-98439161D02*
X136681895Y-98323047D01*
X136681895Y-98129523D01*
X136643190Y-98052114D01*
X136604485Y-98013409D01*
X136527076Y-97974704D01*
X136449666Y-97974704D01*
X136372257Y-98013409D01*
X136333552Y-98052114D01*
X136294847Y-98129523D01*
X136256142Y-98284342D01*
X136217438Y-98361752D01*
X136178733Y-98400457D01*
X136101323Y-98439161D01*
X136023914Y-98439161D01*
X135946504Y-98400457D01*
X135907800Y-98361752D01*
X135869095Y-98284342D01*
X135869095Y-98090819D01*
X135907800Y-97974704D01*
X138053495Y-106954209D02*
X137240695Y-106954209D01*
X137821266Y-106683276D01*
X137240695Y-106412342D01*
X138053495Y-106412342D01*
X137821266Y-106064000D02*
X137821266Y-105676952D01*
X138053495Y-106141409D02*
X137240695Y-105870476D01*
X138053495Y-105599542D01*
X137279400Y-104902857D02*
X137240695Y-104980266D01*
X137240695Y-105096380D01*
X137279400Y-105212495D01*
X137356809Y-105289904D01*
X137434219Y-105328609D01*
X137589038Y-105367314D01*
X137705152Y-105367314D01*
X137859971Y-105328609D01*
X137937380Y-105289904D01*
X138014790Y-105212495D01*
X138053495Y-105096380D01*
X138053495Y-105018971D01*
X138014790Y-104902857D01*
X137976085Y-104864152D01*
X137705152Y-104864152D01*
X137705152Y-105018971D01*
X138130904Y-104709333D02*
X138130904Y-104090057D01*
X138014790Y-103935238D02*
X138053495Y-103819123D01*
X138053495Y-103625600D01*
X138014790Y-103548190D01*
X137976085Y-103509485D01*
X137898676Y-103470780D01*
X137821266Y-103470780D01*
X137743857Y-103509485D01*
X137705152Y-103548190D01*
X137666447Y-103625600D01*
X137627742Y-103780419D01*
X137589038Y-103857828D01*
X137550333Y-103896533D01*
X137472923Y-103935238D01*
X137395514Y-103935238D01*
X137318104Y-103896533D01*
X137279400Y-103857828D01*
X137240695Y-103780419D01*
X137240695Y-103586895D01*
X137279400Y-103470780D01*
X137240695Y-103199847D02*
X138053495Y-103006323D01*
X137472923Y-102851504D01*
X138053495Y-102696685D01*
X137240695Y-102503161D01*
X138053495Y-102193523D02*
X137240695Y-102193523D01*
X137240695Y-101922590D02*
X137240695Y-101458133D01*
X138053495Y-101690361D02*
X137240695Y-101690361D01*
X137976085Y-100722742D02*
X138014790Y-100761447D01*
X138053495Y-100877561D01*
X138053495Y-100954971D01*
X138014790Y-101071085D01*
X137937380Y-101148495D01*
X137859971Y-101187200D01*
X137705152Y-101225904D01*
X137589038Y-101225904D01*
X137434219Y-101187200D01*
X137356809Y-101148495D01*
X137279400Y-101071085D01*
X137240695Y-100954971D01*
X137240695Y-100877561D01*
X137279400Y-100761447D01*
X137318104Y-100722742D01*
X138053495Y-100374400D02*
X137240695Y-100374400D01*
X137627742Y-100374400D02*
X137627742Y-99909942D01*
X138053495Y-99909942D02*
X137240695Y-99909942D01*
X138130904Y-99716419D02*
X138130904Y-99097142D01*
X138053495Y-98477866D02*
X138053495Y-98942323D01*
X138053495Y-98710095D02*
X137240695Y-98710095D01*
X137356809Y-98787504D01*
X137434219Y-98864914D01*
X137472923Y-98942323D01*
X137240695Y-98245638D02*
X138053495Y-97974704D01*
X137240695Y-97703771D01*
X137240695Y-97278019D02*
X137240695Y-97200609D01*
X137279400Y-97123200D01*
X137318104Y-97084495D01*
X137395514Y-97045790D01*
X137550333Y-97007085D01*
X137743857Y-97007085D01*
X137898676Y-97045790D01*
X137976085Y-97084495D01*
X138014790Y-97123200D01*
X138053495Y-97200609D01*
X138053495Y-97278019D01*
X138014790Y-97355428D01*
X137976085Y-97394133D01*
X137898676Y-97432838D01*
X137743857Y-97471542D01*
X137550333Y-97471542D01*
X137395514Y-97432838D01*
X137318104Y-97394133D01*
X137279400Y-97355428D01*
X137240695Y-97278019D01*
X140350723Y-105638600D02*
X140273314Y-105599895D01*
X140157200Y-105599895D01*
X140041085Y-105638600D01*
X139963676Y-105716009D01*
X139924971Y-105793419D01*
X139886266Y-105948238D01*
X139886266Y-106064352D01*
X139924971Y-106219171D01*
X139963676Y-106296580D01*
X140041085Y-106373990D01*
X140157200Y-106412695D01*
X140234609Y-106412695D01*
X140350723Y-106373990D01*
X140389428Y-106335285D01*
X140389428Y-106064352D01*
X140234609Y-106064352D01*
X140737771Y-106412695D02*
X140737771Y-105599895D01*
X141202228Y-106412695D01*
X141202228Y-105599895D01*
X141589276Y-106412695D02*
X141589276Y-105599895D01*
X141782800Y-105599895D01*
X141898914Y-105638600D01*
X141976323Y-105716009D01*
X142015028Y-105793419D01*
X142053733Y-105948238D01*
X142053733Y-106064352D01*
X142015028Y-106219171D01*
X141976323Y-106296580D01*
X141898914Y-106373990D01*
X141782800Y-106412695D01*
X141589276Y-106412695D01*
X140157200Y-103059895D02*
X140312019Y-103059895D01*
X140389428Y-103098600D01*
X140466838Y-103176009D01*
X140505542Y-103330828D01*
X140505542Y-103601761D01*
X140466838Y-103756580D01*
X140389428Y-103833990D01*
X140312019Y-103872695D01*
X140157200Y-103872695D01*
X140079790Y-103833990D01*
X140002380Y-103756580D01*
X139963676Y-103601761D01*
X139963676Y-103330828D01*
X140002380Y-103176009D01*
X140079790Y-103098600D01*
X140157200Y-103059895D01*
X140853885Y-103059895D02*
X140853885Y-103717876D01*
X140892590Y-103795285D01*
X140931295Y-103833990D01*
X141008704Y-103872695D01*
X141163523Y-103872695D01*
X141240933Y-103833990D01*
X141279638Y-103795285D01*
X141318342Y-103717876D01*
X141318342Y-103059895D01*
X141589276Y-103059895D02*
X142053733Y-103059895D01*
X141821504Y-103872695D02*
X141821504Y-103059895D01*
X140013266Y-100519895D02*
X140284200Y-101332695D01*
X140555133Y-100519895D01*
X140826066Y-101332695D02*
X140826066Y-100519895D01*
X141019590Y-100519895D01*
X141135704Y-100558600D01*
X141213114Y-100636009D01*
X141251819Y-100713419D01*
X141290523Y-100868238D01*
X141290523Y-100984352D01*
X141251819Y-101139171D01*
X141213114Y-101216580D01*
X141135704Y-101293990D01*
X141019590Y-101332695D01*
X140826066Y-101332695D01*
X141638866Y-101332695D02*
X141638866Y-100519895D01*
X141832390Y-100519895D01*
X141948504Y-100558600D01*
X142025914Y-100636009D01*
X142064619Y-100713419D01*
X142103323Y-100868238D01*
X142103323Y-100984352D01*
X142064619Y-101139171D01*
X142025914Y-101216580D01*
X141948504Y-101293990D01*
X141832390Y-101332695D01*
X141638866Y-101332695D01*
D11*
X148250000Y-93500000D02*
G75*
G03*
X148250000Y-93500000I-4250000J0D01*
G01*
D12*
X142688000Y-99635000D02*
X144018000Y-99635000D01*
X142688000Y-100965000D02*
X142688000Y-99635000D01*
X142688000Y-102235000D02*
X145348000Y-102235000D01*
X145348000Y-102235000D02*
X145348000Y-107375000D01*
X142688000Y-102235000D02*
X142688000Y-107375000D01*
X142688000Y-107375000D02*
X145348000Y-107375000D01*
X145580000Y-85740000D02*
X144650000Y-85740000D01*
X142420000Y-85740000D02*
X143350000Y-85740000D01*
X142420000Y-85740000D02*
X142420000Y-87900000D01*
X145580000Y-85740000D02*
X145580000Y-87200000D01*
D11*
X143684666Y-98087380D02*
X143684666Y-98801666D01*
X143637047Y-98944523D01*
X143541809Y-99039761D01*
X143398952Y-99087380D01*
X143303714Y-99087380D01*
X144684666Y-99087380D02*
X144113238Y-99087380D01*
X144398952Y-99087380D02*
X144398952Y-98087380D01*
X144303714Y-98230238D01*
X144208476Y-98325476D01*
X144113238Y-98373095D01*
X140952380Y-87261904D02*
X141761904Y-87261904D01*
X141857142Y-87214285D01*
X141904761Y-87166666D01*
X141952380Y-87071428D01*
X141952380Y-86880952D01*
X141904761Y-86785714D01*
X141857142Y-86738095D01*
X141761904Y-86690476D01*
X140952380Y-86690476D01*
X141952380Y-85690476D02*
X141952380Y-86261904D01*
X141952380Y-85976190D02*
X140952380Y-85976190D01*
X141095238Y-86071428D01*
X141190476Y-86166666D01*
X141238095Y-86261904D01*
%LPC*%
D13*
X144018000Y-106045000D03*
X144018000Y-103505000D03*
D14*
X144018000Y-100965000D03*
D15*
X144000000Y-85500000D03*
X144950000Y-87500000D03*
X143050000Y-87500000D03*
M02*
