G04 #@! TF.GenerationSoftware,KiCad,Pcbnew,(5.1.10)-1*
G04 #@! TF.CreationDate,2021-07-30T23:06:35-05:00*
G04 #@! TF.ProjectId,Magnetic_Switch,4d61676e-6574-4696-935f-537769746368,rev?*
G04 #@! TF.SameCoordinates,Original*
G04 #@! TF.FileFunction,Legend,Top*
G04 #@! TF.FilePolarity,Positive*
%FSLAX46Y46*%
G04 Gerber Fmt 4.6, Leading zero omitted, Abs format (unit mm)*
G04 Created by KiCad (PCBNEW (5.1.10)-1) date 2021-07-30 23:06:35*
%MOMM*%
%LPD*%
G01*
G04 APERTURE LIST*
%ADD10C,0.152400*%
%ADD11C,0.150000*%
%ADD12C,0.120000*%
%ADD13O,1.700000X1.700000*%
%ADD14R,1.700000X1.700000*%
%ADD15R,0.800000X0.900000*%
G04 APERTURE END LIST*
D10*
X140350723Y-105638600D02*
X140273314Y-105599895D01*
X140157200Y-105599895D01*
X140041085Y-105638600D01*
X139963676Y-105716009D01*
X139924971Y-105793419D01*
X139886266Y-105948238D01*
X139886266Y-106064352D01*
X139924971Y-106219171D01*
X139963676Y-106296580D01*
X140041085Y-106373990D01*
X140157200Y-106412695D01*
X140234609Y-106412695D01*
X140350723Y-106373990D01*
X140389428Y-106335285D01*
X140389428Y-106064352D01*
X140234609Y-106064352D01*
X140737771Y-106412695D02*
X140737771Y-105599895D01*
X141202228Y-106412695D01*
X141202228Y-105599895D01*
X141589276Y-106412695D02*
X141589276Y-105599895D01*
X141782800Y-105599895D01*
X141898914Y-105638600D01*
X141976323Y-105716009D01*
X142015028Y-105793419D01*
X142053733Y-105948238D01*
X142053733Y-106064352D01*
X142015028Y-106219171D01*
X141976323Y-106296580D01*
X141898914Y-106373990D01*
X141782800Y-106412695D01*
X141589276Y-106412695D01*
X140157200Y-103059895D02*
X140312019Y-103059895D01*
X140389428Y-103098600D01*
X140466838Y-103176009D01*
X140505542Y-103330828D01*
X140505542Y-103601761D01*
X140466838Y-103756580D01*
X140389428Y-103833990D01*
X140312019Y-103872695D01*
X140157200Y-103872695D01*
X140079790Y-103833990D01*
X140002380Y-103756580D01*
X139963676Y-103601761D01*
X139963676Y-103330828D01*
X140002380Y-103176009D01*
X140079790Y-103098600D01*
X140157200Y-103059895D01*
X140853885Y-103059895D02*
X140853885Y-103717876D01*
X140892590Y-103795285D01*
X140931295Y-103833990D01*
X141008704Y-103872695D01*
X141163523Y-103872695D01*
X141240933Y-103833990D01*
X141279638Y-103795285D01*
X141318342Y-103717876D01*
X141318342Y-103059895D01*
X141589276Y-103059895D02*
X142053733Y-103059895D01*
X141821504Y-103872695D02*
X141821504Y-103059895D01*
X140013266Y-100519895D02*
X140284200Y-101332695D01*
X140555133Y-100519895D01*
X140826066Y-101332695D02*
X140826066Y-100519895D01*
X141019590Y-100519895D01*
X141135704Y-100558600D01*
X141213114Y-100636009D01*
X141251819Y-100713419D01*
X141290523Y-100868238D01*
X141290523Y-100984352D01*
X141251819Y-101139171D01*
X141213114Y-101216580D01*
X141135704Y-101293990D01*
X141019590Y-101332695D01*
X140826066Y-101332695D01*
X141638866Y-101332695D02*
X141638866Y-100519895D01*
X141832390Y-100519895D01*
X141948504Y-100558600D01*
X142025914Y-100636009D01*
X142064619Y-100713419D01*
X142103323Y-100868238D01*
X142103323Y-100984352D01*
X142064619Y-101139171D01*
X142025914Y-101216580D01*
X141948504Y-101293990D01*
X141832390Y-101332695D01*
X141638866Y-101332695D01*
D11*
X148250000Y-93500000D02*
G75*
G03*
X148250000Y-93500000I-4250000J0D01*
G01*
D12*
X142688000Y-99635000D02*
X144018000Y-99635000D01*
X142688000Y-100965000D02*
X142688000Y-99635000D01*
X142688000Y-102235000D02*
X145348000Y-102235000D01*
X145348000Y-102235000D02*
X145348000Y-107375000D01*
X142688000Y-102235000D02*
X142688000Y-107375000D01*
X142688000Y-107375000D02*
X145348000Y-107375000D01*
X145580000Y-85740000D02*
X144650000Y-85740000D01*
X142420000Y-85740000D02*
X143350000Y-85740000D01*
X142420000Y-85740000D02*
X142420000Y-87900000D01*
X145580000Y-85740000D02*
X145580000Y-87200000D01*
D11*
X143684666Y-98087380D02*
X143684666Y-98801666D01*
X143637047Y-98944523D01*
X143541809Y-99039761D01*
X143398952Y-99087380D01*
X143303714Y-99087380D01*
X144684666Y-99087380D02*
X144113238Y-99087380D01*
X144398952Y-99087380D02*
X144398952Y-98087380D01*
X144303714Y-98230238D01*
X144208476Y-98325476D01*
X144113238Y-98373095D01*
X140952380Y-87261904D02*
X141761904Y-87261904D01*
X141857142Y-87214285D01*
X141904761Y-87166666D01*
X141952380Y-87071428D01*
X141952380Y-86880952D01*
X141904761Y-86785714D01*
X141857142Y-86738095D01*
X141761904Y-86690476D01*
X140952380Y-86690476D01*
X141952380Y-85690476D02*
X141952380Y-86261904D01*
X141952380Y-85976190D02*
X140952380Y-85976190D01*
X141095238Y-86071428D01*
X141190476Y-86166666D01*
X141238095Y-86261904D01*
%LPC*%
D13*
X144018000Y-106045000D03*
X144018000Y-103505000D03*
D14*
X144018000Y-100965000D03*
D15*
X144000000Y-85500000D03*
X144950000Y-87500000D03*
X143050000Y-87500000D03*
M02*
