G04 #@! TF.GenerationSoftware,KiCad,Pcbnew,(5.1.10)-1*
G04 #@! TF.CreationDate,2022-07-24T10:20:42-05:00*
G04 #@! TF.ProjectId,Magnetic_Switch,4d61676e-6574-4696-935f-537769746368,rev?*
G04 #@! TF.SameCoordinates,Original*
G04 #@! TF.FileFunction,Copper,L2,Bot*
G04 #@! TF.FilePolarity,Positive*
%FSLAX46Y46*%
G04 Gerber Fmt 4.6, Leading zero omitted, Abs format (unit mm)*
G04 Created by KiCad (PCBNEW (5.1.10)-1) date 2022-07-24 10:20:42*
%MOMM*%
%LPD*%
G01*
G04 APERTURE LIST*
G04 #@! TA.AperFunction,ComponentPad*
%ADD10O,1.700000X1.700000*%
G04 #@! TD*
G04 #@! TA.AperFunction,ComponentPad*
%ADD11R,1.700000X1.700000*%
G04 #@! TD*
G04 #@! TA.AperFunction,Conductor*
%ADD12C,0.254000*%
G04 #@! TD*
G04 #@! TA.AperFunction,Conductor*
%ADD13C,0.100000*%
G04 #@! TD*
G04 APERTURE END LIST*
D10*
X144018000Y-106045000D03*
X144018000Y-103505000D03*
D11*
X144018000Y-100965000D03*
D12*
X153352301Y-108352300D02*
X134647700Y-108352300D01*
X134647700Y-106401890D01*
X142576524Y-106401890D01*
X142621175Y-106549099D01*
X142746359Y-106811920D01*
X142920412Y-107045269D01*
X143136645Y-107240178D01*
X143386748Y-107389157D01*
X143661109Y-107486481D01*
X143891000Y-107365814D01*
X143891000Y-106172000D01*
X144145000Y-106172000D01*
X144145000Y-107365814D01*
X144374891Y-107486481D01*
X144649252Y-107389157D01*
X144899355Y-107240178D01*
X145115588Y-107045269D01*
X145289641Y-106811920D01*
X145414825Y-106549099D01*
X145459476Y-106401890D01*
X145338155Y-106172000D01*
X144145000Y-106172000D01*
X143891000Y-106172000D01*
X142697845Y-106172000D01*
X142576524Y-106401890D01*
X134647700Y-106401890D01*
X134647700Y-100115000D01*
X142529928Y-100115000D01*
X142529928Y-101815000D01*
X142542188Y-101939482D01*
X142578498Y-102059180D01*
X142637463Y-102169494D01*
X142716815Y-102266185D01*
X142813506Y-102345537D01*
X142923820Y-102404502D01*
X142996380Y-102426513D01*
X142864525Y-102558368D01*
X142702010Y-102801589D01*
X142590068Y-103071842D01*
X142533000Y-103358740D01*
X142533000Y-103651260D01*
X142590068Y-103938158D01*
X142702010Y-104208411D01*
X142864525Y-104451632D01*
X143071368Y-104658475D01*
X143253534Y-104780195D01*
X143136645Y-104849822D01*
X142920412Y-105044731D01*
X142746359Y-105278080D01*
X142621175Y-105540901D01*
X142576524Y-105688110D01*
X142697845Y-105918000D01*
X143891000Y-105918000D01*
X143891000Y-105898000D01*
X144145000Y-105898000D01*
X144145000Y-105918000D01*
X145338155Y-105918000D01*
X145459476Y-105688110D01*
X145414825Y-105540901D01*
X145289641Y-105278080D01*
X145115588Y-105044731D01*
X144899355Y-104849822D01*
X144782466Y-104780195D01*
X144964632Y-104658475D01*
X145171475Y-104451632D01*
X145333990Y-104208411D01*
X145445932Y-103938158D01*
X145503000Y-103651260D01*
X145503000Y-103358740D01*
X145445932Y-103071842D01*
X145333990Y-102801589D01*
X145171475Y-102558368D01*
X145039620Y-102426513D01*
X145112180Y-102404502D01*
X145222494Y-102345537D01*
X145319185Y-102266185D01*
X145398537Y-102169494D01*
X145457502Y-102059180D01*
X145493812Y-101939482D01*
X145506072Y-101815000D01*
X145506072Y-100115000D01*
X145493812Y-99990518D01*
X145457502Y-99870820D01*
X145398537Y-99760506D01*
X145319185Y-99663815D01*
X145222494Y-99584463D01*
X145112180Y-99525498D01*
X144992482Y-99489188D01*
X144868000Y-99476928D01*
X143168000Y-99476928D01*
X143043518Y-99489188D01*
X142923820Y-99525498D01*
X142813506Y-99584463D01*
X142716815Y-99663815D01*
X142637463Y-99760506D01*
X142578498Y-99870820D01*
X142542188Y-99990518D01*
X142529928Y-100115000D01*
X134647700Y-100115000D01*
X134647700Y-93179709D01*
X140748035Y-93179709D01*
X140748035Y-93820291D01*
X140873006Y-94448563D01*
X141118146Y-95040383D01*
X141474034Y-95573007D01*
X141926993Y-96025966D01*
X142459617Y-96381854D01*
X143051437Y-96626994D01*
X143679709Y-96751965D01*
X144320291Y-96751965D01*
X144948563Y-96626994D01*
X145540383Y-96381854D01*
X146073007Y-96025966D01*
X146525966Y-95573007D01*
X146881854Y-95040383D01*
X147126994Y-94448563D01*
X147251965Y-93820291D01*
X147251965Y-93179709D01*
X147126994Y-92551437D01*
X146881854Y-91959617D01*
X146525966Y-91426993D01*
X146073007Y-90974034D01*
X145540383Y-90618146D01*
X144948563Y-90373006D01*
X144320291Y-90248035D01*
X143679709Y-90248035D01*
X143051437Y-90373006D01*
X142459617Y-90618146D01*
X141926993Y-90974034D01*
X141474034Y-91426993D01*
X141118146Y-91959617D01*
X140873006Y-92551437D01*
X140748035Y-93179709D01*
X134647700Y-93179709D01*
X134647700Y-84647700D01*
X153352300Y-84647700D01*
X153352301Y-108352300D01*
G04 #@! TA.AperFunction,Conductor*
D13*
G36*
X153352301Y-108352300D02*
G01*
X134647700Y-108352300D01*
X134647700Y-106401890D01*
X142576524Y-106401890D01*
X142621175Y-106549099D01*
X142746359Y-106811920D01*
X142920412Y-107045269D01*
X143136645Y-107240178D01*
X143386748Y-107389157D01*
X143661109Y-107486481D01*
X143891000Y-107365814D01*
X143891000Y-106172000D01*
X144145000Y-106172000D01*
X144145000Y-107365814D01*
X144374891Y-107486481D01*
X144649252Y-107389157D01*
X144899355Y-107240178D01*
X145115588Y-107045269D01*
X145289641Y-106811920D01*
X145414825Y-106549099D01*
X145459476Y-106401890D01*
X145338155Y-106172000D01*
X144145000Y-106172000D01*
X143891000Y-106172000D01*
X142697845Y-106172000D01*
X142576524Y-106401890D01*
X134647700Y-106401890D01*
X134647700Y-100115000D01*
X142529928Y-100115000D01*
X142529928Y-101815000D01*
X142542188Y-101939482D01*
X142578498Y-102059180D01*
X142637463Y-102169494D01*
X142716815Y-102266185D01*
X142813506Y-102345537D01*
X142923820Y-102404502D01*
X142996380Y-102426513D01*
X142864525Y-102558368D01*
X142702010Y-102801589D01*
X142590068Y-103071842D01*
X142533000Y-103358740D01*
X142533000Y-103651260D01*
X142590068Y-103938158D01*
X142702010Y-104208411D01*
X142864525Y-104451632D01*
X143071368Y-104658475D01*
X143253534Y-104780195D01*
X143136645Y-104849822D01*
X142920412Y-105044731D01*
X142746359Y-105278080D01*
X142621175Y-105540901D01*
X142576524Y-105688110D01*
X142697845Y-105918000D01*
X143891000Y-105918000D01*
X143891000Y-105898000D01*
X144145000Y-105898000D01*
X144145000Y-105918000D01*
X145338155Y-105918000D01*
X145459476Y-105688110D01*
X145414825Y-105540901D01*
X145289641Y-105278080D01*
X145115588Y-105044731D01*
X144899355Y-104849822D01*
X144782466Y-104780195D01*
X144964632Y-104658475D01*
X145171475Y-104451632D01*
X145333990Y-104208411D01*
X145445932Y-103938158D01*
X145503000Y-103651260D01*
X145503000Y-103358740D01*
X145445932Y-103071842D01*
X145333990Y-102801589D01*
X145171475Y-102558368D01*
X145039620Y-102426513D01*
X145112180Y-102404502D01*
X145222494Y-102345537D01*
X145319185Y-102266185D01*
X145398537Y-102169494D01*
X145457502Y-102059180D01*
X145493812Y-101939482D01*
X145506072Y-101815000D01*
X145506072Y-100115000D01*
X145493812Y-99990518D01*
X145457502Y-99870820D01*
X145398537Y-99760506D01*
X145319185Y-99663815D01*
X145222494Y-99584463D01*
X145112180Y-99525498D01*
X144992482Y-99489188D01*
X144868000Y-99476928D01*
X143168000Y-99476928D01*
X143043518Y-99489188D01*
X142923820Y-99525498D01*
X142813506Y-99584463D01*
X142716815Y-99663815D01*
X142637463Y-99760506D01*
X142578498Y-99870820D01*
X142542188Y-99990518D01*
X142529928Y-100115000D01*
X134647700Y-100115000D01*
X134647700Y-93179709D01*
X140748035Y-93179709D01*
X140748035Y-93820291D01*
X140873006Y-94448563D01*
X141118146Y-95040383D01*
X141474034Y-95573007D01*
X141926993Y-96025966D01*
X142459617Y-96381854D01*
X143051437Y-96626994D01*
X143679709Y-96751965D01*
X144320291Y-96751965D01*
X144948563Y-96626994D01*
X145540383Y-96381854D01*
X146073007Y-96025966D01*
X146525966Y-95573007D01*
X146881854Y-95040383D01*
X147126994Y-94448563D01*
X147251965Y-93820291D01*
X147251965Y-93179709D01*
X147126994Y-92551437D01*
X146881854Y-91959617D01*
X146525966Y-91426993D01*
X146073007Y-90974034D01*
X145540383Y-90618146D01*
X144948563Y-90373006D01*
X144320291Y-90248035D01*
X143679709Y-90248035D01*
X143051437Y-90373006D01*
X142459617Y-90618146D01*
X141926993Y-90974034D01*
X141474034Y-91426993D01*
X141118146Y-91959617D01*
X140873006Y-92551437D01*
X140748035Y-93179709D01*
X134647700Y-93179709D01*
X134647700Y-84647700D01*
X153352300Y-84647700D01*
X153352301Y-108352300D01*
G37*
G04 #@! TD.AperFunction*
M02*
