G04 #@! TF.GenerationSoftware,KiCad,Pcbnew,(5.1.9)-1*
G04 #@! TF.CreationDate,2021-06-06T22:42:38-05:00*
G04 #@! TF.ProjectId,BoilerBot,426f696c-6572-4426-9f74-2e6b69636164,rev?*
G04 #@! TF.SameCoordinates,Original*
G04 #@! TF.FileFunction,Legend,Top*
G04 #@! TF.FilePolarity,Positive*
%FSLAX46Y46*%
G04 Gerber Fmt 4.6, Leading zero omitted, Abs format (unit mm)*
G04 Created by KiCad (PCBNEW (5.1.9)-1) date 2021-06-06 22:42:38*
%MOMM*%
%LPD*%
G01*
G04 APERTURE LIST*
%ADD10C,0.152400*%
%ADD11C,0.120000*%
%ADD12C,0.150000*%
%ADD13O,1.700000X2.000000*%
%ADD14C,2.500000*%
%ADD15C,1.600000*%
%ADD16R,3.000000X2.290000*%
%ADD17R,1.500000X2.000000*%
%ADD18R,3.800000X2.000000*%
%ADD19R,0.900000X0.800000*%
%ADD20O,1.700000X1.950000*%
%ADD21O,1.200000X1.750000*%
%ADD22C,1.500000*%
%ADD23C,1.879600*%
G04 APERTURE END LIST*
D10*
X95161704Y-76478190D02*
X95277819Y-76516895D01*
X95471342Y-76516895D01*
X95548752Y-76478190D01*
X95587457Y-76439485D01*
X95626161Y-76362076D01*
X95626161Y-76284666D01*
X95587457Y-76207257D01*
X95548752Y-76168552D01*
X95471342Y-76129847D01*
X95316523Y-76091142D01*
X95239114Y-76052438D01*
X95200409Y-76013733D01*
X95161704Y-75936323D01*
X95161704Y-75858914D01*
X95200409Y-75781504D01*
X95239114Y-75742800D01*
X95316523Y-75704095D01*
X95510047Y-75704095D01*
X95626161Y-75742800D01*
X95935800Y-76284666D02*
X96322847Y-76284666D01*
X95858390Y-76516895D02*
X96129323Y-75704095D01*
X96400257Y-76516895D01*
X97096942Y-75742800D02*
X97019533Y-75704095D01*
X96903419Y-75704095D01*
X96787304Y-75742800D01*
X96709895Y-75820209D01*
X96671190Y-75897619D01*
X96632485Y-76052438D01*
X96632485Y-76168552D01*
X96671190Y-76323371D01*
X96709895Y-76400780D01*
X96787304Y-76478190D01*
X96903419Y-76516895D01*
X96980828Y-76516895D01*
X97096942Y-76478190D01*
X97135647Y-76439485D01*
X97135647Y-76168552D01*
X96980828Y-76168552D01*
X97483990Y-76091142D02*
X97754923Y-76091142D01*
X97871038Y-76516895D02*
X97483990Y-76516895D01*
X97483990Y-75704095D01*
X97871038Y-75704095D01*
X99303114Y-76516895D02*
X99032180Y-76129847D01*
X98838657Y-76516895D02*
X98838657Y-75704095D01*
X99148295Y-75704095D01*
X99225704Y-75742800D01*
X99264409Y-75781504D01*
X99303114Y-75858914D01*
X99303114Y-75975028D01*
X99264409Y-76052438D01*
X99225704Y-76091142D01*
X99148295Y-76129847D01*
X98838657Y-76129847D01*
X99806276Y-75704095D02*
X99961095Y-75704095D01*
X100038504Y-75742800D01*
X100115914Y-75820209D01*
X100154619Y-75975028D01*
X100154619Y-76245961D01*
X100115914Y-76400780D01*
X100038504Y-76478190D01*
X99961095Y-76516895D01*
X99806276Y-76516895D01*
X99728866Y-76478190D01*
X99651457Y-76400780D01*
X99612752Y-76245961D01*
X99612752Y-75975028D01*
X99651457Y-75820209D01*
X99728866Y-75742800D01*
X99806276Y-75704095D01*
X100773895Y-76091142D02*
X100890009Y-76129847D01*
X100928714Y-76168552D01*
X100967419Y-76245961D01*
X100967419Y-76362076D01*
X100928714Y-76439485D01*
X100890009Y-76478190D01*
X100812600Y-76516895D01*
X100502961Y-76516895D01*
X100502961Y-75704095D01*
X100773895Y-75704095D01*
X100851304Y-75742800D01*
X100890009Y-75781504D01*
X100928714Y-75858914D01*
X100928714Y-75936323D01*
X100890009Y-76013733D01*
X100851304Y-76052438D01*
X100773895Y-76091142D01*
X100502961Y-76091142D01*
X101470580Y-75704095D02*
X101625400Y-75704095D01*
X101702809Y-75742800D01*
X101780219Y-75820209D01*
X101818923Y-75975028D01*
X101818923Y-76245961D01*
X101780219Y-76400780D01*
X101702809Y-76478190D01*
X101625400Y-76516895D01*
X101470580Y-76516895D01*
X101393171Y-76478190D01*
X101315761Y-76400780D01*
X101277057Y-76245961D01*
X101277057Y-75975028D01*
X101315761Y-75820209D01*
X101393171Y-75742800D01*
X101470580Y-75704095D01*
X102051152Y-75704095D02*
X102515609Y-75704095D01*
X102283380Y-76516895D02*
X102283380Y-75704095D01*
X102747838Y-76478190D02*
X102863952Y-76516895D01*
X103057476Y-76516895D01*
X103134885Y-76478190D01*
X103173590Y-76439485D01*
X103212295Y-76362076D01*
X103212295Y-76284666D01*
X103173590Y-76207257D01*
X103134885Y-76168552D01*
X103057476Y-76129847D01*
X102902657Y-76091142D01*
X102825247Y-76052438D01*
X102786542Y-76013733D01*
X102747838Y-75936323D01*
X102747838Y-75858914D01*
X102786542Y-75781504D01*
X102825247Y-75742800D01*
X102902657Y-75704095D01*
X103096180Y-75704095D01*
X103212295Y-75742800D01*
X95103647Y-77462742D02*
X95219761Y-77501447D01*
X95258466Y-77540152D01*
X95297171Y-77617561D01*
X95297171Y-77733676D01*
X95258466Y-77811085D01*
X95219761Y-77849790D01*
X95142352Y-77888495D01*
X94832714Y-77888495D01*
X94832714Y-77075695D01*
X95103647Y-77075695D01*
X95181057Y-77114400D01*
X95219761Y-77153104D01*
X95258466Y-77230514D01*
X95258466Y-77307923D01*
X95219761Y-77385333D01*
X95181057Y-77424038D01*
X95103647Y-77462742D01*
X94832714Y-77462742D01*
X95800333Y-77075695D02*
X95955152Y-77075695D01*
X96032561Y-77114400D01*
X96109971Y-77191809D01*
X96148676Y-77346628D01*
X96148676Y-77617561D01*
X96109971Y-77772380D01*
X96032561Y-77849790D01*
X95955152Y-77888495D01*
X95800333Y-77888495D01*
X95722923Y-77849790D01*
X95645514Y-77772380D01*
X95606809Y-77617561D01*
X95606809Y-77346628D01*
X95645514Y-77191809D01*
X95722923Y-77114400D01*
X95800333Y-77075695D01*
X96497019Y-77888495D02*
X96497019Y-77075695D01*
X97271114Y-77888495D02*
X96884066Y-77888495D01*
X96884066Y-77075695D01*
X97542047Y-77462742D02*
X97812980Y-77462742D01*
X97929095Y-77888495D02*
X97542047Y-77888495D01*
X97542047Y-77075695D01*
X97929095Y-77075695D01*
X98741895Y-77888495D02*
X98470961Y-77501447D01*
X98277438Y-77888495D02*
X98277438Y-77075695D01*
X98587076Y-77075695D01*
X98664485Y-77114400D01*
X98703190Y-77153104D01*
X98741895Y-77230514D01*
X98741895Y-77346628D01*
X98703190Y-77424038D01*
X98664485Y-77462742D01*
X98587076Y-77501447D01*
X98277438Y-77501447D01*
X99361171Y-77462742D02*
X99477285Y-77501447D01*
X99515990Y-77540152D01*
X99554695Y-77617561D01*
X99554695Y-77733676D01*
X99515990Y-77811085D01*
X99477285Y-77849790D01*
X99399876Y-77888495D01*
X99090238Y-77888495D01*
X99090238Y-77075695D01*
X99361171Y-77075695D01*
X99438580Y-77114400D01*
X99477285Y-77153104D01*
X99515990Y-77230514D01*
X99515990Y-77307923D01*
X99477285Y-77385333D01*
X99438580Y-77424038D01*
X99361171Y-77462742D01*
X99090238Y-77462742D01*
X100057857Y-77075695D02*
X100212676Y-77075695D01*
X100290085Y-77114400D01*
X100367495Y-77191809D01*
X100406200Y-77346628D01*
X100406200Y-77617561D01*
X100367495Y-77772380D01*
X100290085Y-77849790D01*
X100212676Y-77888495D01*
X100057857Y-77888495D01*
X99980447Y-77849790D01*
X99903038Y-77772380D01*
X99864333Y-77617561D01*
X99864333Y-77346628D01*
X99903038Y-77191809D01*
X99980447Y-77114400D01*
X100057857Y-77075695D01*
X100638428Y-77075695D02*
X101102885Y-77075695D01*
X100870657Y-77888495D02*
X100870657Y-77075695D01*
X102418847Y-77888495D02*
X101954390Y-77888495D01*
X102186619Y-77888495D02*
X102186619Y-77075695D01*
X102109209Y-77191809D01*
X102031800Y-77269219D01*
X101954390Y-77307923D01*
X102767190Y-77811085D02*
X102805895Y-77849790D01*
X102767190Y-77888495D01*
X102728485Y-77849790D01*
X102767190Y-77811085D01*
X102767190Y-77888495D01*
X103309057Y-77075695D02*
X103386466Y-77075695D01*
X103463876Y-77114400D01*
X103502580Y-77153104D01*
X103541285Y-77230514D01*
X103579990Y-77385333D01*
X103579990Y-77578857D01*
X103541285Y-77733676D01*
X103502580Y-77811085D01*
X103463876Y-77849790D01*
X103386466Y-77888495D01*
X103309057Y-77888495D01*
X103231647Y-77849790D01*
X103192942Y-77811085D01*
X103154238Y-77733676D01*
X103115533Y-77578857D01*
X103115533Y-77385333D01*
X103154238Y-77230514D01*
X103192942Y-77153104D01*
X103231647Y-77114400D01*
X103309057Y-77075695D01*
X159199942Y-80913514D02*
X159199942Y-80642580D01*
X159625695Y-80526466D02*
X159625695Y-80913514D01*
X158812895Y-80913514D01*
X158812895Y-80526466D01*
X159625695Y-80178123D02*
X158812895Y-80178123D01*
X159625695Y-79713666D01*
X158812895Y-79713666D01*
X159548285Y-78862161D02*
X159586990Y-78900866D01*
X159625695Y-79016980D01*
X159625695Y-79094390D01*
X159586990Y-79210504D01*
X159509580Y-79287914D01*
X159432171Y-79326619D01*
X159277352Y-79365323D01*
X159161238Y-79365323D01*
X159006419Y-79326619D01*
X158929009Y-79287914D01*
X158851600Y-79210504D01*
X158812895Y-79094390D01*
X158812895Y-79016980D01*
X158851600Y-78900866D01*
X158890304Y-78862161D01*
X158851600Y-77468790D02*
X158812895Y-77546200D01*
X158812895Y-77662314D01*
X158851600Y-77778428D01*
X158929009Y-77855838D01*
X159006419Y-77894542D01*
X159161238Y-77933247D01*
X159277352Y-77933247D01*
X159432171Y-77894542D01*
X159509580Y-77855838D01*
X159586990Y-77778428D01*
X159625695Y-77662314D01*
X159625695Y-77584904D01*
X159586990Y-77468790D01*
X159548285Y-77430085D01*
X159277352Y-77430085D01*
X159277352Y-77584904D01*
X159625695Y-77081742D02*
X158812895Y-77081742D01*
X159625695Y-76617285D01*
X158812895Y-76617285D01*
X159625695Y-76230238D02*
X158812895Y-76230238D01*
X158812895Y-76036714D01*
X158851600Y-75920600D01*
X158929009Y-75843190D01*
X159006419Y-75804485D01*
X159161238Y-75765780D01*
X159277352Y-75765780D01*
X159432171Y-75804485D01*
X159509580Y-75843190D01*
X159586990Y-75920600D01*
X159625695Y-76036714D01*
X159625695Y-76230238D01*
X159498695Y-73742247D02*
X159498695Y-74129295D01*
X158685895Y-74129295D01*
X159421285Y-73006857D02*
X159459990Y-73045561D01*
X159498695Y-73161676D01*
X159498695Y-73239085D01*
X159459990Y-73355200D01*
X159382580Y-73432609D01*
X159305171Y-73471314D01*
X159150352Y-73510019D01*
X159034238Y-73510019D01*
X158879419Y-73471314D01*
X158802009Y-73432609D01*
X158724600Y-73355200D01*
X158685895Y-73239085D01*
X158685895Y-73161676D01*
X158724600Y-73045561D01*
X158763304Y-73006857D01*
X159498695Y-72658514D02*
X158685895Y-72658514D01*
X158685895Y-72464990D01*
X158724600Y-72348876D01*
X158802009Y-72271466D01*
X158879419Y-72232761D01*
X159034238Y-72194057D01*
X159150352Y-72194057D01*
X159305171Y-72232761D01*
X159382580Y-72271466D01*
X159459990Y-72348876D01*
X159498695Y-72464990D01*
X159498695Y-72658514D01*
X158685895Y-70839390D02*
X158685895Y-71226438D01*
X159072942Y-71265142D01*
X159034238Y-71226438D01*
X158995533Y-71149028D01*
X158995533Y-70955504D01*
X159034238Y-70878095D01*
X159072942Y-70839390D01*
X159150352Y-70800685D01*
X159343876Y-70800685D01*
X159421285Y-70839390D01*
X159459990Y-70878095D01*
X159498695Y-70955504D01*
X159498695Y-71149028D01*
X159459990Y-71226438D01*
X159421285Y-71265142D01*
X158685895Y-70568457D02*
X159498695Y-70297523D01*
X158685895Y-70026590D01*
X127728133Y-69836695D02*
X127728133Y-69023895D01*
X127921657Y-69023895D01*
X128037771Y-69062600D01*
X128115180Y-69140009D01*
X128153885Y-69217419D01*
X128192590Y-69372238D01*
X128192590Y-69488352D01*
X128153885Y-69643171D01*
X128115180Y-69720580D01*
X128037771Y-69797990D01*
X127921657Y-69836695D01*
X127728133Y-69836695D01*
X128695752Y-69023895D02*
X128850571Y-69023895D01*
X128927980Y-69062600D01*
X129005390Y-69140009D01*
X129044095Y-69294828D01*
X129044095Y-69565761D01*
X129005390Y-69720580D01*
X128927980Y-69797990D01*
X128850571Y-69836695D01*
X128695752Y-69836695D01*
X128618342Y-69797990D01*
X128540933Y-69720580D01*
X128502228Y-69565761D01*
X128502228Y-69294828D01*
X128540933Y-69140009D01*
X128618342Y-69062600D01*
X128695752Y-69023895D01*
X129315028Y-69023895D02*
X129508552Y-69836695D01*
X129663371Y-69256123D01*
X129818190Y-69836695D01*
X130011714Y-69023895D01*
X130321352Y-69836695D02*
X130321352Y-69023895D01*
X130785809Y-69836695D01*
X130785809Y-69023895D01*
X132179180Y-69023895D02*
X131792133Y-69023895D01*
X131753428Y-69410942D01*
X131792133Y-69372238D01*
X131869542Y-69333533D01*
X132063066Y-69333533D01*
X132140476Y-69372238D01*
X132179180Y-69410942D01*
X132217885Y-69488352D01*
X132217885Y-69681876D01*
X132179180Y-69759285D01*
X132140476Y-69797990D01*
X132063066Y-69836695D01*
X131869542Y-69836695D01*
X131792133Y-69797990D01*
X131753428Y-69759285D01*
X132450114Y-69023895D02*
X132721047Y-69836695D01*
X132991980Y-69023895D01*
X122932371Y-62877095D02*
X122932371Y-63535076D01*
X122971076Y-63612485D01*
X123009780Y-63651190D01*
X123087190Y-63689895D01*
X123242009Y-63689895D01*
X123319419Y-63651190D01*
X123358123Y-63612485D01*
X123396828Y-63535076D01*
X123396828Y-62877095D01*
X123783876Y-63689895D02*
X123783876Y-62877095D01*
X124093514Y-62877095D01*
X124170923Y-62915800D01*
X124209628Y-62954504D01*
X124248333Y-63031914D01*
X124248333Y-63148028D01*
X124209628Y-63225438D01*
X124170923Y-63264142D01*
X124093514Y-63302847D01*
X123783876Y-63302847D01*
X123416180Y-64248695D02*
X123029133Y-64248695D01*
X122990428Y-64635742D01*
X123029133Y-64597038D01*
X123106542Y-64558333D01*
X123300066Y-64558333D01*
X123377476Y-64597038D01*
X123416180Y-64635742D01*
X123454885Y-64713152D01*
X123454885Y-64906676D01*
X123416180Y-64984085D01*
X123377476Y-65022790D01*
X123300066Y-65061495D01*
X123106542Y-65061495D01*
X123029133Y-65022790D01*
X122990428Y-64984085D01*
X123687114Y-64248695D02*
X123958047Y-65061495D01*
X124228980Y-64248695D01*
X151497695Y-53071485D02*
X150684895Y-53071485D01*
X151265466Y-52800552D01*
X150684895Y-52529619D01*
X151497695Y-52529619D01*
X150684895Y-51987752D02*
X150684895Y-51832933D01*
X150723600Y-51755523D01*
X150801009Y-51678114D01*
X150955828Y-51639409D01*
X151226761Y-51639409D01*
X151381580Y-51678114D01*
X151458990Y-51755523D01*
X151497695Y-51832933D01*
X151497695Y-51987752D01*
X151458990Y-52065161D01*
X151381580Y-52142571D01*
X151226761Y-52181276D01*
X150955828Y-52181276D01*
X150801009Y-52142571D01*
X150723600Y-52065161D01*
X150684895Y-51987752D01*
X150684895Y-51407180D02*
X150684895Y-50942723D01*
X151497695Y-51174952D02*
X150684895Y-51174952D01*
X151188057Y-50671790D02*
X151188057Y-50052514D01*
X121790580Y-54596695D02*
X121403533Y-54596695D01*
X121403533Y-53783895D01*
X129417838Y-74662695D02*
X128953380Y-74662695D01*
X129185609Y-74662695D02*
X129185609Y-73849895D01*
X129108200Y-73966009D01*
X129030790Y-74043419D01*
X128953380Y-74082123D01*
X129727476Y-73927304D02*
X129766180Y-73888600D01*
X129843590Y-73849895D01*
X130037114Y-73849895D01*
X130114523Y-73888600D01*
X130153228Y-73927304D01*
X130191933Y-74004714D01*
X130191933Y-74082123D01*
X130153228Y-74198238D01*
X129688771Y-74662695D01*
X130191933Y-74662695D01*
X130424161Y-73849895D02*
X130695095Y-74662695D01*
X130966028Y-73849895D01*
X116997238Y-54596695D02*
X116610190Y-54596695D01*
X116610190Y-53783895D01*
X117229466Y-54364466D02*
X117616514Y-54364466D01*
X117152057Y-54596695D02*
X117422990Y-53783895D01*
X117693923Y-54596695D01*
D11*
X87450000Y-78500000D02*
G75*
G03*
X87450000Y-78500000I-3450000J0D01*
G01*
X172450000Y-78500000D02*
G75*
G03*
X172450000Y-78500000I-3450000J0D01*
G01*
X172450000Y-51500000D02*
G75*
G03*
X172450000Y-51500000I-3450000J0D01*
G01*
X87450000Y-51500000D02*
G75*
G03*
X87450000Y-51500000I-3450000J0D01*
G01*
X93272936Y-74235000D02*
X93727064Y-74235000D01*
X93272936Y-72765000D02*
X93727064Y-72765000D01*
X122272936Y-80735000D02*
X122727064Y-80735000D01*
X122272936Y-79265000D02*
X122727064Y-79265000D01*
X142150000Y-48750000D02*
X142150000Y-50000000D01*
X143400000Y-48750000D02*
X142150000Y-48750000D01*
X149300000Y-54250000D02*
X146250000Y-54250000D01*
X149300000Y-51300000D02*
X149300000Y-54250000D01*
X150050000Y-51300000D02*
X149300000Y-51300000D01*
X143200000Y-54250000D02*
X146250000Y-54250000D01*
X143200000Y-51300000D02*
X143200000Y-54250000D01*
X142450000Y-51300000D02*
X143200000Y-51300000D01*
X150050000Y-49050000D02*
X148250000Y-49050000D01*
X150050000Y-49800000D02*
X150050000Y-49050000D01*
X148250000Y-49800000D02*
X150050000Y-49800000D01*
X148250000Y-49050000D02*
X148250000Y-49800000D01*
X144250000Y-49050000D02*
X142450000Y-49050000D01*
X144250000Y-49800000D02*
X144250000Y-49050000D01*
X142450000Y-49800000D02*
X144250000Y-49800000D01*
X142450000Y-49050000D02*
X142450000Y-49800000D01*
X146750000Y-49050000D02*
X145750000Y-49050000D01*
X146750000Y-49800000D02*
X146750000Y-49050000D01*
X145750000Y-49800000D02*
X146750000Y-49800000D01*
X145750000Y-49050000D02*
X145750000Y-49800000D01*
X150060000Y-49040000D02*
X142440000Y-49040000D01*
X150060000Y-55010000D02*
X150060000Y-49040000D01*
X142440000Y-55010000D02*
X150060000Y-55010000D01*
X142440000Y-49040000D02*
X142440000Y-55010000D01*
X124650000Y-74750000D02*
X124650000Y-76000000D01*
X125900000Y-74750000D02*
X124650000Y-74750000D01*
X131800000Y-80250000D02*
X128750000Y-80250000D01*
X131800000Y-77300000D02*
X131800000Y-80250000D01*
X132550000Y-77300000D02*
X131800000Y-77300000D01*
X125700000Y-80250000D02*
X128750000Y-80250000D01*
X125700000Y-77300000D02*
X125700000Y-80250000D01*
X124950000Y-77300000D02*
X125700000Y-77300000D01*
X132550000Y-75050000D02*
X130750000Y-75050000D01*
X132550000Y-75800000D02*
X132550000Y-75050000D01*
X130750000Y-75800000D02*
X132550000Y-75800000D01*
X130750000Y-75050000D02*
X130750000Y-75800000D01*
X126750000Y-75050000D02*
X124950000Y-75050000D01*
X126750000Y-75800000D02*
X126750000Y-75050000D01*
X124950000Y-75800000D02*
X126750000Y-75800000D01*
X124950000Y-75050000D02*
X124950000Y-75800000D01*
X129250000Y-75050000D02*
X128250000Y-75050000D01*
X129250000Y-75800000D02*
X129250000Y-75050000D01*
X128250000Y-75800000D02*
X129250000Y-75800000D01*
X128250000Y-75050000D02*
X128250000Y-75800000D01*
X132560000Y-75040000D02*
X124940000Y-75040000D01*
X132560000Y-81010000D02*
X132560000Y-75040000D01*
X124940000Y-81010000D02*
X132560000Y-81010000D01*
X124940000Y-75040000D02*
X124940000Y-81010000D01*
X113500000Y-59500000D02*
X89500000Y-59500000D01*
X113500000Y-49000000D02*
X113500000Y-59500000D01*
X89500000Y-59500000D02*
X89500000Y-49000000D01*
X89500000Y-49000000D02*
X113500000Y-49000000D01*
X155741250Y-57756250D02*
X154953750Y-57756250D01*
X155347500Y-57362500D02*
X155347500Y-58150000D01*
X151154437Y-58390000D02*
X150090000Y-59454437D01*
X155845563Y-58390000D02*
X156910000Y-59454437D01*
X155845563Y-58390000D02*
X154560000Y-58390000D01*
X151154437Y-58390000D02*
X152440000Y-58390000D01*
X150090000Y-59454437D02*
X150090000Y-65210000D01*
X156910000Y-59454437D02*
X156910000Y-65210000D01*
X156910000Y-65210000D02*
X154560000Y-65210000D01*
X150090000Y-65210000D02*
X152440000Y-65210000D01*
X149560000Y-62000000D02*
X149560000Y-60050000D01*
X149560000Y-62000000D02*
X149560000Y-63950000D01*
X144440000Y-62000000D02*
X144440000Y-60050000D01*
X144440000Y-62000000D02*
X144440000Y-65450000D01*
X137090000Y-64760000D02*
X138350000Y-64760000D01*
X143910000Y-64760000D02*
X142650000Y-64760000D01*
X137090000Y-61000000D02*
X137090000Y-64760000D01*
X143910000Y-58750000D02*
X143910000Y-64760000D01*
X133235000Y-72272936D02*
X133235000Y-72727064D01*
X131765000Y-72272936D02*
X131765000Y-72727064D01*
X154272936Y-53265000D02*
X154727064Y-53265000D01*
X154272936Y-54735000D02*
X154727064Y-54735000D01*
X147227064Y-68934000D02*
X146772936Y-68934000D01*
X147227064Y-67464000D02*
X146772936Y-67464000D01*
X150727064Y-68934000D02*
X150272936Y-68934000D01*
X150727064Y-67464000D02*
X150272936Y-67464000D01*
X88740000Y-70920000D02*
X88740000Y-71850000D01*
X88740000Y-74080000D02*
X88740000Y-73150000D01*
X88740000Y-74080000D02*
X90900000Y-74080000D01*
X88740000Y-70920000D02*
X90200000Y-70920000D01*
X121740000Y-75420000D02*
X121740000Y-76350000D01*
X121740000Y-78580000D02*
X121740000Y-77650000D01*
X121740000Y-78580000D02*
X123900000Y-78580000D01*
X121740000Y-75420000D02*
X123200000Y-75420000D01*
X133940000Y-68040000D02*
X133940000Y-74010000D01*
X133940000Y-74010000D02*
X144060000Y-74010000D01*
X144060000Y-74010000D02*
X144060000Y-68040000D01*
X144060000Y-68040000D02*
X133940000Y-68040000D01*
X137250000Y-68050000D02*
X137250000Y-68800000D01*
X137250000Y-68800000D02*
X140750000Y-68800000D01*
X140750000Y-68800000D02*
X140750000Y-68050000D01*
X140750000Y-68050000D02*
X137250000Y-68050000D01*
X133950000Y-68050000D02*
X133950000Y-68800000D01*
X133950000Y-68800000D02*
X135750000Y-68800000D01*
X135750000Y-68800000D02*
X135750000Y-68050000D01*
X135750000Y-68050000D02*
X133950000Y-68050000D01*
X142250000Y-68050000D02*
X142250000Y-68800000D01*
X142250000Y-68800000D02*
X144050000Y-68800000D01*
X144050000Y-68800000D02*
X144050000Y-68050000D01*
X144050000Y-68050000D02*
X142250000Y-68050000D01*
X133950000Y-70300000D02*
X134700000Y-70300000D01*
X134700000Y-70300000D02*
X134700000Y-73250000D01*
X134700000Y-73250000D02*
X139000000Y-73250000D01*
X144050000Y-70300000D02*
X143300000Y-70300000D01*
X143300000Y-70300000D02*
X143300000Y-73250000D01*
X143300000Y-73250000D02*
X139000000Y-73250000D01*
X134900000Y-67750000D02*
X133650000Y-67750000D01*
X133650000Y-67750000D02*
X133650000Y-69000000D01*
X158060000Y-75460000D02*
X158060000Y-69490000D01*
X158060000Y-69490000D02*
X145440000Y-69490000D01*
X145440000Y-69490000D02*
X145440000Y-75460000D01*
X145440000Y-75460000D02*
X158060000Y-75460000D01*
X154750000Y-75450000D02*
X154750000Y-74700000D01*
X154750000Y-74700000D02*
X148750000Y-74700000D01*
X148750000Y-74700000D02*
X148750000Y-75450000D01*
X148750000Y-75450000D02*
X154750000Y-75450000D01*
X158050000Y-75450000D02*
X158050000Y-74700000D01*
X158050000Y-74700000D02*
X156250000Y-74700000D01*
X156250000Y-74700000D02*
X156250000Y-75450000D01*
X156250000Y-75450000D02*
X158050000Y-75450000D01*
X147250000Y-75450000D02*
X147250000Y-74700000D01*
X147250000Y-74700000D02*
X145450000Y-74700000D01*
X145450000Y-74700000D02*
X145450000Y-75450000D01*
X145450000Y-75450000D02*
X147250000Y-75450000D01*
X158050000Y-73200000D02*
X157300000Y-73200000D01*
X157300000Y-73200000D02*
X157300000Y-70250000D01*
X157300000Y-70250000D02*
X151750000Y-70250000D01*
X145450000Y-73200000D02*
X146200000Y-73200000D01*
X146200000Y-73200000D02*
X146200000Y-70250000D01*
X146200000Y-70250000D02*
X151750000Y-70250000D01*
X157100000Y-75750000D02*
X158350000Y-75750000D01*
X158350000Y-75750000D02*
X158350000Y-74500000D01*
X133940000Y-75040000D02*
X133940000Y-81010000D01*
X133940000Y-81010000D02*
X144060000Y-81010000D01*
X144060000Y-81010000D02*
X144060000Y-75040000D01*
X144060000Y-75040000D02*
X133940000Y-75040000D01*
X137250000Y-75050000D02*
X137250000Y-75800000D01*
X137250000Y-75800000D02*
X140750000Y-75800000D01*
X140750000Y-75800000D02*
X140750000Y-75050000D01*
X140750000Y-75050000D02*
X137250000Y-75050000D01*
X133950000Y-75050000D02*
X133950000Y-75800000D01*
X133950000Y-75800000D02*
X135750000Y-75800000D01*
X135750000Y-75800000D02*
X135750000Y-75050000D01*
X135750000Y-75050000D02*
X133950000Y-75050000D01*
X142250000Y-75050000D02*
X142250000Y-75800000D01*
X142250000Y-75800000D02*
X144050000Y-75800000D01*
X144050000Y-75800000D02*
X144050000Y-75050000D01*
X144050000Y-75050000D02*
X142250000Y-75050000D01*
X133950000Y-77300000D02*
X134700000Y-77300000D01*
X134700000Y-77300000D02*
X134700000Y-80250000D01*
X134700000Y-80250000D02*
X139000000Y-80250000D01*
X144050000Y-77300000D02*
X143300000Y-77300000D01*
X143300000Y-77300000D02*
X143300000Y-80250000D01*
X143300000Y-80250000D02*
X139000000Y-80250000D01*
X134900000Y-74750000D02*
X133650000Y-74750000D01*
X133650000Y-74750000D02*
X133650000Y-76000000D01*
X125440000Y-61040000D02*
X125440000Y-67010000D01*
X125440000Y-67010000D02*
X135560000Y-67010000D01*
X135560000Y-67010000D02*
X135560000Y-61040000D01*
X135560000Y-61040000D02*
X125440000Y-61040000D01*
X128750000Y-61050000D02*
X128750000Y-61800000D01*
X128750000Y-61800000D02*
X132250000Y-61800000D01*
X132250000Y-61800000D02*
X132250000Y-61050000D01*
X132250000Y-61050000D02*
X128750000Y-61050000D01*
X125450000Y-61050000D02*
X125450000Y-61800000D01*
X125450000Y-61800000D02*
X127250000Y-61800000D01*
X127250000Y-61800000D02*
X127250000Y-61050000D01*
X127250000Y-61050000D02*
X125450000Y-61050000D01*
X133750000Y-61050000D02*
X133750000Y-61800000D01*
X133750000Y-61800000D02*
X135550000Y-61800000D01*
X135550000Y-61800000D02*
X135550000Y-61050000D01*
X135550000Y-61050000D02*
X133750000Y-61050000D01*
X125450000Y-63300000D02*
X126200000Y-63300000D01*
X126200000Y-63300000D02*
X126200000Y-66250000D01*
X126200000Y-66250000D02*
X130500000Y-66250000D01*
X135550000Y-63300000D02*
X134800000Y-63300000D01*
X134800000Y-63300000D02*
X134800000Y-66250000D01*
X134800000Y-66250000D02*
X130500000Y-66250000D01*
X126400000Y-60750000D02*
X125150000Y-60750000D01*
X125150000Y-60750000D02*
X125150000Y-62000000D01*
X158060000Y-80810000D02*
X158060000Y-76090000D01*
X158060000Y-76090000D02*
X145940000Y-76090000D01*
X145940000Y-76090000D02*
X145940000Y-80810000D01*
X145940000Y-80810000D02*
X158060000Y-80810000D01*
X156300000Y-80810000D02*
X156300000Y-81010000D01*
X156300000Y-81010000D02*
X156600000Y-81010000D01*
X156600000Y-81010000D02*
X156600000Y-80810000D01*
X156300000Y-80910000D02*
X156600000Y-80910000D01*
X155500000Y-80810000D02*
X155500000Y-80200000D01*
X155500000Y-80200000D02*
X157450000Y-80200000D01*
X157450000Y-80200000D02*
X157450000Y-76700000D01*
X157450000Y-76700000D02*
X146550000Y-76700000D01*
X146550000Y-76700000D02*
X146550000Y-80200000D01*
X146550000Y-80200000D02*
X148500000Y-80200000D01*
X148500000Y-80200000D02*
X148500000Y-80810000D01*
X158060000Y-79500000D02*
X157450000Y-79500000D01*
X158060000Y-78200000D02*
X157450000Y-78200000D01*
X145940000Y-79500000D02*
X146550000Y-79500000D01*
X145940000Y-78200000D02*
X146550000Y-78200000D01*
X155100000Y-76700000D02*
X155100000Y-77200000D01*
X155100000Y-77200000D02*
X154900000Y-77200000D01*
X154900000Y-77200000D02*
X154900000Y-76700000D01*
X155000000Y-76700000D02*
X155000000Y-77200000D01*
X153100000Y-76700000D02*
X153100000Y-77200000D01*
X153100000Y-77200000D02*
X152900000Y-77200000D01*
X152900000Y-77200000D02*
X152900000Y-76700000D01*
X153000000Y-76700000D02*
X153000000Y-77200000D01*
X151100000Y-76700000D02*
X151100000Y-77200000D01*
X151100000Y-77200000D02*
X150900000Y-77200000D01*
X150900000Y-77200000D02*
X150900000Y-76700000D01*
X151000000Y-76700000D02*
X151000000Y-77200000D01*
X149100000Y-76700000D02*
X149100000Y-77200000D01*
X149100000Y-77200000D02*
X148900000Y-77200000D01*
X148900000Y-77200000D02*
X148900000Y-76700000D01*
X149000000Y-76700000D02*
X149000000Y-77200000D01*
X157110000Y-81110000D02*
X158360000Y-81110000D01*
X158360000Y-81110000D02*
X158360000Y-79860000D01*
X154276248Y-55265000D02*
X154798752Y-55265000D01*
X154276248Y-56735000D02*
X154798752Y-56735000D01*
X135223752Y-60235000D02*
X134701248Y-60235000D01*
X135223752Y-58765000D02*
X134701248Y-58765000D01*
X120000000Y-73750000D02*
G75*
G03*
X120000000Y-73750000I-6000000J0D01*
G01*
X159990000Y-48190000D02*
X159990000Y-81210000D01*
X159990000Y-81210000D02*
X177770000Y-81210000D01*
X177770000Y-81210000D02*
X177770000Y-48190000D01*
X177770000Y-48190000D02*
X159990000Y-48190000D01*
D12*
X114474666Y-53808380D02*
X114474666Y-54522666D01*
X114427047Y-54665523D01*
X114331809Y-54760761D01*
X114188952Y-54808380D01*
X114093714Y-54808380D01*
X115379428Y-54141714D02*
X115379428Y-54808380D01*
X115141333Y-53760761D02*
X114903238Y-54475047D01*
X115522285Y-54475047D01*
X119427666Y-53681380D02*
X119427666Y-54395666D01*
X119380047Y-54538523D01*
X119284809Y-54633761D01*
X119141952Y-54681380D01*
X119046714Y-54681380D01*
X119808619Y-53681380D02*
X120427666Y-53681380D01*
X120094333Y-54062333D01*
X120237190Y-54062333D01*
X120332428Y-54109952D01*
X120380047Y-54157571D01*
X120427666Y-54252809D01*
X120427666Y-54490904D01*
X120380047Y-54586142D01*
X120332428Y-54633761D01*
X120237190Y-54681380D01*
X119951476Y-54681380D01*
X119856238Y-54633761D01*
X119808619Y-54586142D01*
X93333333Y-72302380D02*
X93000000Y-71826190D01*
X92761904Y-72302380D02*
X92761904Y-71302380D01*
X93142857Y-71302380D01*
X93238095Y-71350000D01*
X93285714Y-71397619D01*
X93333333Y-71492857D01*
X93333333Y-71635714D01*
X93285714Y-71730952D01*
X93238095Y-71778571D01*
X93142857Y-71826190D01*
X92761904Y-71826190D01*
X94190476Y-71302380D02*
X94000000Y-71302380D01*
X93904761Y-71350000D01*
X93857142Y-71397619D01*
X93761904Y-71540476D01*
X93714285Y-71730952D01*
X93714285Y-72111904D01*
X93761904Y-72207142D01*
X93809523Y-72254761D01*
X93904761Y-72302380D01*
X94095238Y-72302380D01*
X94190476Y-72254761D01*
X94238095Y-72207142D01*
X94285714Y-72111904D01*
X94285714Y-71873809D01*
X94238095Y-71778571D01*
X94190476Y-71730952D01*
X94095238Y-71683333D01*
X93904761Y-71683333D01*
X93809523Y-71730952D01*
X93761904Y-71778571D01*
X93714285Y-71873809D01*
X119333333Y-80452380D02*
X119000000Y-79976190D01*
X118761904Y-80452380D02*
X118761904Y-79452380D01*
X119142857Y-79452380D01*
X119238095Y-79500000D01*
X119285714Y-79547619D01*
X119333333Y-79642857D01*
X119333333Y-79785714D01*
X119285714Y-79880952D01*
X119238095Y-79928571D01*
X119142857Y-79976190D01*
X118761904Y-79976190D01*
X120238095Y-79452380D02*
X119761904Y-79452380D01*
X119714285Y-79928571D01*
X119761904Y-79880952D01*
X119857142Y-79833333D01*
X120095238Y-79833333D01*
X120190476Y-79880952D01*
X120238095Y-79928571D01*
X120285714Y-80023809D01*
X120285714Y-80261904D01*
X120238095Y-80357142D01*
X120190476Y-80404761D01*
X120095238Y-80452380D01*
X119857142Y-80452380D01*
X119761904Y-80404761D01*
X119714285Y-80357142D01*
X140382666Y-48855380D02*
X140382666Y-49569666D01*
X140335047Y-49712523D01*
X140239809Y-49807761D01*
X140096952Y-49855380D01*
X140001714Y-49855380D01*
X140811238Y-48950619D02*
X140858857Y-48903000D01*
X140954095Y-48855380D01*
X141192190Y-48855380D01*
X141287428Y-48903000D01*
X141335047Y-48950619D01*
X141382666Y-49045857D01*
X141382666Y-49141095D01*
X141335047Y-49283952D01*
X140763619Y-49855380D01*
X141382666Y-49855380D01*
X124888666Y-73402380D02*
X124888666Y-74116666D01*
X124841047Y-74259523D01*
X124745809Y-74354761D01*
X124602952Y-74402380D01*
X124507714Y-74402380D01*
X125888666Y-74402380D02*
X125317238Y-74402380D01*
X125602952Y-74402380D02*
X125602952Y-73402380D01*
X125507714Y-73545238D01*
X125412476Y-73640476D01*
X125317238Y-73688095D01*
X87272904Y-58872380D02*
X87272904Y-57872380D01*
X87844333Y-58872380D02*
X87415761Y-58300952D01*
X87844333Y-57872380D02*
X87272904Y-58443809D01*
X88796714Y-58872380D02*
X88225285Y-58872380D01*
X88511000Y-58872380D02*
X88511000Y-57872380D01*
X88415761Y-58015238D01*
X88320523Y-58110476D01*
X88225285Y-58158095D01*
X158207142Y-61966666D02*
X158254761Y-62014285D01*
X158302380Y-62157142D01*
X158302380Y-62252380D01*
X158254761Y-62395238D01*
X158159523Y-62490476D01*
X158064285Y-62538095D01*
X157873809Y-62585714D01*
X157730952Y-62585714D01*
X157540476Y-62538095D01*
X157445238Y-62490476D01*
X157350000Y-62395238D01*
X157302380Y-62252380D01*
X157302380Y-62157142D01*
X157350000Y-62014285D01*
X157397619Y-61966666D01*
X157302380Y-61633333D02*
X157302380Y-61014285D01*
X157683333Y-61347619D01*
X157683333Y-61204761D01*
X157730952Y-61109523D01*
X157778571Y-61061904D01*
X157873809Y-61014285D01*
X158111904Y-61014285D01*
X158207142Y-61061904D01*
X158254761Y-61109523D01*
X158302380Y-61204761D01*
X158302380Y-61490476D01*
X158254761Y-61585714D01*
X158207142Y-61633333D01*
X147193095Y-66000380D02*
X147193095Y-66809904D01*
X147240714Y-66905142D01*
X147288333Y-66952761D01*
X147383571Y-67000380D01*
X147574047Y-67000380D01*
X147669285Y-66952761D01*
X147716904Y-66905142D01*
X147764523Y-66809904D01*
X147764523Y-66000380D01*
X148193095Y-66095619D02*
X148240714Y-66048000D01*
X148335952Y-66000380D01*
X148574047Y-66000380D01*
X148669285Y-66048000D01*
X148716904Y-66095619D01*
X148764523Y-66190857D01*
X148764523Y-66286095D01*
X148716904Y-66428952D01*
X148145476Y-67000380D01*
X148764523Y-67000380D01*
X136485380Y-66801904D02*
X137294904Y-66801904D01*
X137390142Y-66754285D01*
X137437761Y-66706666D01*
X137485380Y-66611428D01*
X137485380Y-66420952D01*
X137437761Y-66325714D01*
X137390142Y-66278095D01*
X137294904Y-66230476D01*
X136485380Y-66230476D01*
X137485380Y-65230476D02*
X137485380Y-65801904D01*
X137485380Y-65516190D02*
X136485380Y-65516190D01*
X136628238Y-65611428D01*
X136723476Y-65706666D01*
X136771095Y-65801904D01*
X131135380Y-72398666D02*
X130659190Y-72732000D01*
X131135380Y-72970095D02*
X130135380Y-72970095D01*
X130135380Y-72589142D01*
X130183000Y-72493904D01*
X130230619Y-72446285D01*
X130325857Y-72398666D01*
X130468714Y-72398666D01*
X130563952Y-72446285D01*
X130611571Y-72493904D01*
X130659190Y-72589142D01*
X130659190Y-72970095D01*
X130468714Y-71541523D02*
X131135380Y-71541523D01*
X130087761Y-71779619D02*
X130802047Y-72017714D01*
X130802047Y-71398666D01*
X157313333Y-54427380D02*
X156980000Y-53951190D01*
X156741904Y-54427380D02*
X156741904Y-53427380D01*
X157122857Y-53427380D01*
X157218095Y-53475000D01*
X157265714Y-53522619D01*
X157313333Y-53617857D01*
X157313333Y-53760714D01*
X157265714Y-53855952D01*
X157218095Y-53903571D01*
X157122857Y-53951190D01*
X156741904Y-53951190D01*
X157646666Y-53427380D02*
X158265714Y-53427380D01*
X157932380Y-53808333D01*
X158075238Y-53808333D01*
X158170476Y-53855952D01*
X158218095Y-53903571D01*
X158265714Y-53998809D01*
X158265714Y-54236904D01*
X158218095Y-54332142D01*
X158170476Y-54379761D01*
X158075238Y-54427380D01*
X157789523Y-54427380D01*
X157694285Y-54379761D01*
X157646666Y-54332142D01*
X144105333Y-67508380D02*
X143772000Y-67032190D01*
X143533904Y-67508380D02*
X143533904Y-66508380D01*
X143914857Y-66508380D01*
X144010095Y-66556000D01*
X144057714Y-66603619D01*
X144105333Y-66698857D01*
X144105333Y-66841714D01*
X144057714Y-66936952D01*
X144010095Y-66984571D01*
X143914857Y-67032190D01*
X143533904Y-67032190D01*
X144486285Y-66603619D02*
X144533904Y-66556000D01*
X144629142Y-66508380D01*
X144867238Y-66508380D01*
X144962476Y-66556000D01*
X145010095Y-66603619D01*
X145057714Y-66698857D01*
X145057714Y-66794095D01*
X145010095Y-66936952D01*
X144438666Y-67508380D01*
X145057714Y-67508380D01*
X153376333Y-68651380D02*
X153043000Y-68175190D01*
X152804904Y-68651380D02*
X152804904Y-67651380D01*
X153185857Y-67651380D01*
X153281095Y-67699000D01*
X153328714Y-67746619D01*
X153376333Y-67841857D01*
X153376333Y-67984714D01*
X153328714Y-68079952D01*
X153281095Y-68127571D01*
X153185857Y-68175190D01*
X152804904Y-68175190D01*
X154328714Y-68651380D02*
X153757285Y-68651380D01*
X154043000Y-68651380D02*
X154043000Y-67651380D01*
X153947761Y-67794238D01*
X153852523Y-67889476D01*
X153757285Y-67937095D01*
X89404761Y-75547619D02*
X89309523Y-75500000D01*
X89214285Y-75404761D01*
X89071428Y-75261904D01*
X88976190Y-75214285D01*
X88880952Y-75214285D01*
X88928571Y-75452380D02*
X88833333Y-75404761D01*
X88738095Y-75309523D01*
X88690476Y-75119047D01*
X88690476Y-74785714D01*
X88738095Y-74595238D01*
X88833333Y-74500000D01*
X88928571Y-74452380D01*
X89119047Y-74452380D01*
X89214285Y-74500000D01*
X89309523Y-74595238D01*
X89357142Y-74785714D01*
X89357142Y-75119047D01*
X89309523Y-75309523D01*
X89214285Y-75404761D01*
X89119047Y-75452380D01*
X88928571Y-75452380D01*
X89738095Y-74547619D02*
X89785714Y-74500000D01*
X89880952Y-74452380D01*
X90119047Y-74452380D01*
X90214285Y-74500000D01*
X90261904Y-74547619D01*
X90309523Y-74642857D01*
X90309523Y-74738095D01*
X90261904Y-74880952D01*
X89690476Y-75452380D01*
X90309523Y-75452380D01*
X122737761Y-74739619D02*
X122642523Y-74692000D01*
X122547285Y-74596761D01*
X122404428Y-74453904D01*
X122309190Y-74406285D01*
X122213952Y-74406285D01*
X122261571Y-74644380D02*
X122166333Y-74596761D01*
X122071095Y-74501523D01*
X122023476Y-74311047D01*
X122023476Y-73977714D01*
X122071095Y-73787238D01*
X122166333Y-73692000D01*
X122261571Y-73644380D01*
X122452047Y-73644380D01*
X122547285Y-73692000D01*
X122642523Y-73787238D01*
X122690142Y-73977714D01*
X122690142Y-74311047D01*
X122642523Y-74501523D01*
X122547285Y-74596761D01*
X122452047Y-74644380D01*
X122261571Y-74644380D01*
X123642523Y-74644380D02*
X123071095Y-74644380D01*
X123356809Y-74644380D02*
X123356809Y-73644380D01*
X123261571Y-73787238D01*
X123166333Y-73882476D01*
X123071095Y-73930095D01*
X131143476Y-67524380D02*
X131143476Y-68238666D01*
X131095857Y-68381523D01*
X131000619Y-68476761D01*
X130857761Y-68524380D01*
X130762523Y-68524380D01*
X132143476Y-68524380D02*
X131572047Y-68524380D01*
X131857761Y-68524380D02*
X131857761Y-67524380D01*
X131762523Y-67667238D01*
X131667285Y-67762476D01*
X131572047Y-67810095D01*
X132762523Y-67524380D02*
X132857761Y-67524380D01*
X132953000Y-67572000D01*
X133000619Y-67619619D01*
X133048238Y-67714857D01*
X133095857Y-67905333D01*
X133095857Y-68143428D01*
X133048238Y-68333904D01*
X133000619Y-68429142D01*
X132953000Y-68476761D01*
X132857761Y-68524380D01*
X132762523Y-68524380D01*
X132667285Y-68476761D01*
X132619666Y-68429142D01*
X132572047Y-68333904D01*
X132524428Y-68143428D01*
X132524428Y-67905333D01*
X132572047Y-67714857D01*
X132619666Y-67619619D01*
X132667285Y-67572000D01*
X132762523Y-67524380D01*
X156511666Y-68032380D02*
X156511666Y-68746666D01*
X156464047Y-68889523D01*
X156368809Y-68984761D01*
X156225952Y-69032380D01*
X156130714Y-69032380D01*
X157035476Y-69032380D02*
X157225952Y-69032380D01*
X157321190Y-68984761D01*
X157368809Y-68937142D01*
X157464047Y-68794285D01*
X157511666Y-68603809D01*
X157511666Y-68222857D01*
X157464047Y-68127619D01*
X157416428Y-68080000D01*
X157321190Y-68032380D01*
X157130714Y-68032380D01*
X157035476Y-68080000D01*
X156987857Y-68127619D01*
X156940238Y-68222857D01*
X156940238Y-68460952D01*
X156987857Y-68556190D01*
X157035476Y-68603809D01*
X157130714Y-68651428D01*
X157321190Y-68651428D01*
X157416428Y-68603809D01*
X157464047Y-68556190D01*
X157511666Y-68460952D01*
X144359380Y-80343333D02*
X145073666Y-80343333D01*
X145216523Y-80390952D01*
X145311761Y-80486190D01*
X145359380Y-80629047D01*
X145359380Y-80724285D01*
X144359380Y-79962380D02*
X144359380Y-79295714D01*
X145359380Y-79724285D01*
X123166666Y-60952380D02*
X123166666Y-61666666D01*
X123119047Y-61809523D01*
X123023809Y-61904761D01*
X122880952Y-61952380D01*
X122785714Y-61952380D01*
X124071428Y-60952380D02*
X123880952Y-60952380D01*
X123785714Y-61000000D01*
X123738095Y-61047619D01*
X123642857Y-61190476D01*
X123595238Y-61380952D01*
X123595238Y-61761904D01*
X123642857Y-61857142D01*
X123690476Y-61904761D01*
X123785714Y-61952380D01*
X123976190Y-61952380D01*
X124071428Y-61904761D01*
X124119047Y-61857142D01*
X124166666Y-61761904D01*
X124166666Y-61523809D01*
X124119047Y-61428571D01*
X124071428Y-61380952D01*
X123976190Y-61333333D01*
X123785714Y-61333333D01*
X123690476Y-61380952D01*
X123642857Y-61428571D01*
X123595238Y-61523809D01*
X144613380Y-78946333D02*
X145327666Y-78946333D01*
X145470523Y-78993952D01*
X145565761Y-79089190D01*
X145613380Y-79232047D01*
X145613380Y-79327285D01*
X144613380Y-77993952D02*
X144613380Y-78470142D01*
X145089571Y-78517761D01*
X145041952Y-78470142D01*
X144994333Y-78374904D01*
X144994333Y-78136809D01*
X145041952Y-78041571D01*
X145089571Y-77993952D01*
X145184809Y-77946333D01*
X145422904Y-77946333D01*
X145518142Y-77993952D01*
X145565761Y-78041571D01*
X145613380Y-78136809D01*
X145613380Y-78374904D01*
X145565761Y-78470142D01*
X145518142Y-78517761D01*
X157313333Y-56364142D02*
X157265714Y-56411761D01*
X157122857Y-56459380D01*
X157027619Y-56459380D01*
X156884761Y-56411761D01*
X156789523Y-56316523D01*
X156741904Y-56221285D01*
X156694285Y-56030809D01*
X156694285Y-55887952D01*
X156741904Y-55697476D01*
X156789523Y-55602238D01*
X156884761Y-55507000D01*
X157027619Y-55459380D01*
X157122857Y-55459380D01*
X157265714Y-55507000D01*
X157313333Y-55554619D01*
X157694285Y-55554619D02*
X157741904Y-55507000D01*
X157837142Y-55459380D01*
X158075238Y-55459380D01*
X158170476Y-55507000D01*
X158218095Y-55554619D01*
X158265714Y-55649857D01*
X158265714Y-55745095D01*
X158218095Y-55887952D01*
X157646666Y-56459380D01*
X158265714Y-56459380D01*
X131278333Y-60428142D02*
X131230714Y-60475761D01*
X131087857Y-60523380D01*
X130992619Y-60523380D01*
X130849761Y-60475761D01*
X130754523Y-60380523D01*
X130706904Y-60285285D01*
X130659285Y-60094809D01*
X130659285Y-59951952D01*
X130706904Y-59761476D01*
X130754523Y-59666238D01*
X130849761Y-59571000D01*
X130992619Y-59523380D01*
X131087857Y-59523380D01*
X131230714Y-59571000D01*
X131278333Y-59618619D01*
X132230714Y-60523380D02*
X131659285Y-60523380D01*
X131945000Y-60523380D02*
X131945000Y-59523380D01*
X131849761Y-59666238D01*
X131754523Y-59761476D01*
X131659285Y-59809095D01*
X113119047Y-66678571D02*
X113261904Y-66726190D01*
X113309523Y-66773809D01*
X113357142Y-66869047D01*
X113357142Y-67011904D01*
X113309523Y-67107142D01*
X113261904Y-67154761D01*
X113166666Y-67202380D01*
X112785714Y-67202380D01*
X112785714Y-66202380D01*
X113119047Y-66202380D01*
X113214285Y-66250000D01*
X113261904Y-66297619D01*
X113309523Y-66392857D01*
X113309523Y-66488095D01*
X113261904Y-66583333D01*
X113214285Y-66630952D01*
X113119047Y-66678571D01*
X112785714Y-66678571D01*
X113690476Y-66202380D02*
X114357142Y-66202380D01*
X113690476Y-67202380D01*
X114357142Y-67202380D01*
X115261904Y-67202380D02*
X114690476Y-67202380D01*
X114976190Y-67202380D02*
X114976190Y-66202380D01*
X114880952Y-66345238D01*
X114785714Y-66440476D01*
X114690476Y-66488095D01*
X115119047Y-70321428D02*
X115880952Y-70321428D01*
X115500000Y-70702380D02*
X115500000Y-69940476D01*
X158035714Y-49569666D02*
X158511904Y-49569666D01*
X157940476Y-49855380D02*
X158273809Y-48855380D01*
X158607142Y-49855380D01*
X159464285Y-49855380D02*
X158892857Y-49855380D01*
X159178571Y-49855380D02*
X159178571Y-48855380D01*
X159083333Y-48998238D01*
X158988095Y-49093476D01*
X158892857Y-49141095D01*
%LPC*%
G36*
G01*
X114550000Y-52699999D02*
X114550000Y-49300001D01*
G75*
G02*
X114800001Y-49050000I250001J0D01*
G01*
X118199999Y-49050000D01*
G75*
G02*
X118450000Y-49300001I0J-250001D01*
G01*
X118450000Y-52699999D01*
G75*
G02*
X118199999Y-52950000I-250001J0D01*
G01*
X114800001Y-52950000D01*
G75*
G02*
X114550000Y-52699999I0J250001D01*
G01*
G37*
G36*
G01*
X119550000Y-52699999D02*
X119550000Y-49300001D01*
G75*
G02*
X119800001Y-49050000I250001J0D01*
G01*
X123199999Y-49050000D01*
G75*
G02*
X123450000Y-49300001I0J-250001D01*
G01*
X123450000Y-52699999D01*
G75*
G02*
X123199999Y-52950000I-250001J0D01*
G01*
X119800001Y-52950000D01*
G75*
G02*
X119550000Y-52699999I0J250001D01*
G01*
G37*
G36*
G01*
X93900000Y-73950001D02*
X93900000Y-73049999D01*
G75*
G02*
X94149999Y-72800000I249999J0D01*
G01*
X94850001Y-72800000D01*
G75*
G02*
X95100000Y-73049999I0J-249999D01*
G01*
X95100000Y-73950001D01*
G75*
G02*
X94850001Y-74200000I-249999J0D01*
G01*
X94149999Y-74200000D01*
G75*
G02*
X93900000Y-73950001I0J249999D01*
G01*
G37*
G36*
G01*
X91900000Y-73950001D02*
X91900000Y-73049999D01*
G75*
G02*
X92149999Y-72800000I249999J0D01*
G01*
X92850001Y-72800000D01*
G75*
G02*
X93100000Y-73049999I0J-249999D01*
G01*
X93100000Y-73950001D01*
G75*
G02*
X92850001Y-74200000I-249999J0D01*
G01*
X92149999Y-74200000D01*
G75*
G02*
X91900000Y-73950001I0J249999D01*
G01*
G37*
G36*
G01*
X122900000Y-80450001D02*
X122900000Y-79549999D01*
G75*
G02*
X123149999Y-79300000I249999J0D01*
G01*
X123850001Y-79300000D01*
G75*
G02*
X124100000Y-79549999I0J-249999D01*
G01*
X124100000Y-80450001D01*
G75*
G02*
X123850001Y-80700000I-249999J0D01*
G01*
X123149999Y-80700000D01*
G75*
G02*
X122900000Y-80450001I0J249999D01*
G01*
G37*
G36*
G01*
X120900000Y-80450001D02*
X120900000Y-79549999D01*
G75*
G02*
X121149999Y-79300000I249999J0D01*
G01*
X121850001Y-79300000D01*
G75*
G02*
X122100000Y-79549999I0J-249999D01*
G01*
X122100000Y-80450001D01*
G75*
G02*
X121850001Y-80700000I-249999J0D01*
G01*
X121149999Y-80700000D01*
G75*
G02*
X120900000Y-80450001I0J249999D01*
G01*
G37*
D13*
X147500000Y-51500000D03*
G36*
G01*
X144150000Y-52250000D02*
X144150000Y-50750000D01*
G75*
G02*
X144400000Y-50500000I250000J0D01*
G01*
X145600000Y-50500000D01*
G75*
G02*
X145850000Y-50750000I0J-250000D01*
G01*
X145850000Y-52250000D01*
G75*
G02*
X145600000Y-52500000I-250000J0D01*
G01*
X144400000Y-52500000D01*
G75*
G02*
X144150000Y-52250000I0J250000D01*
G01*
G37*
X130000000Y-77500000D03*
G36*
G01*
X126650000Y-78250000D02*
X126650000Y-76750000D01*
G75*
G02*
X126900000Y-76500000I250000J0D01*
G01*
X128100000Y-76500000D01*
G75*
G02*
X128350000Y-76750000I0J-250000D01*
G01*
X128350000Y-78250000D01*
G75*
G02*
X128100000Y-78500000I-250000J0D01*
G01*
X126900000Y-78500000D01*
G75*
G02*
X126650000Y-78250000I0J250000D01*
G01*
G37*
D14*
X111500000Y-50500000D03*
X108000000Y-58000000D03*
D15*
X91500000Y-50500000D03*
X91500000Y-58000000D03*
G36*
G01*
X152950000Y-62750000D02*
X154050000Y-62750000D01*
G75*
G02*
X154300000Y-63000000I0J-250000D01*
G01*
X154300000Y-66000000D01*
G75*
G02*
X154050000Y-66250000I-250000J0D01*
G01*
X152950000Y-66250000D01*
G75*
G02*
X152700000Y-66000000I0J250000D01*
G01*
X152700000Y-63000000D01*
G75*
G02*
X152950000Y-62750000I250000J0D01*
G01*
G37*
G36*
G01*
X152950000Y-57350000D02*
X154050000Y-57350000D01*
G75*
G02*
X154300000Y-57600000I0J-250000D01*
G01*
X154300000Y-60600000D01*
G75*
G02*
X154050000Y-60850000I-250000J0D01*
G01*
X152950000Y-60850000D01*
G75*
G02*
X152700000Y-60600000I0J250000D01*
G01*
X152700000Y-57600000D01*
G75*
G02*
X152950000Y-57350000I250000J0D01*
G01*
G37*
D16*
X147000000Y-62000000D03*
G36*
G01*
X145245000Y-60500000D02*
X144945000Y-60500000D01*
G75*
G02*
X144795000Y-60350000I0J150000D01*
G01*
X144795000Y-58700000D01*
G75*
G02*
X144945000Y-58550000I150000J0D01*
G01*
X145245000Y-58550000D01*
G75*
G02*
X145395000Y-58700000I0J-150000D01*
G01*
X145395000Y-60350000D01*
G75*
G02*
X145245000Y-60500000I-150000J0D01*
G01*
G37*
G36*
G01*
X146515000Y-60500000D02*
X146215000Y-60500000D01*
G75*
G02*
X146065000Y-60350000I0J150000D01*
G01*
X146065000Y-58700000D01*
G75*
G02*
X146215000Y-58550000I150000J0D01*
G01*
X146515000Y-58550000D01*
G75*
G02*
X146665000Y-58700000I0J-150000D01*
G01*
X146665000Y-60350000D01*
G75*
G02*
X146515000Y-60500000I-150000J0D01*
G01*
G37*
G36*
G01*
X147785000Y-60500000D02*
X147485000Y-60500000D01*
G75*
G02*
X147335000Y-60350000I0J150000D01*
G01*
X147335000Y-58700000D01*
G75*
G02*
X147485000Y-58550000I150000J0D01*
G01*
X147785000Y-58550000D01*
G75*
G02*
X147935000Y-58700000I0J-150000D01*
G01*
X147935000Y-60350000D01*
G75*
G02*
X147785000Y-60500000I-150000J0D01*
G01*
G37*
G36*
G01*
X149055000Y-60500000D02*
X148755000Y-60500000D01*
G75*
G02*
X148605000Y-60350000I0J150000D01*
G01*
X148605000Y-58700000D01*
G75*
G02*
X148755000Y-58550000I150000J0D01*
G01*
X149055000Y-58550000D01*
G75*
G02*
X149205000Y-58700000I0J-150000D01*
G01*
X149205000Y-60350000D01*
G75*
G02*
X149055000Y-60500000I-150000J0D01*
G01*
G37*
G36*
G01*
X149055000Y-65450000D02*
X148755000Y-65450000D01*
G75*
G02*
X148605000Y-65300000I0J150000D01*
G01*
X148605000Y-63650000D01*
G75*
G02*
X148755000Y-63500000I150000J0D01*
G01*
X149055000Y-63500000D01*
G75*
G02*
X149205000Y-63650000I0J-150000D01*
G01*
X149205000Y-65300000D01*
G75*
G02*
X149055000Y-65450000I-150000J0D01*
G01*
G37*
G36*
G01*
X147785000Y-65450000D02*
X147485000Y-65450000D01*
G75*
G02*
X147335000Y-65300000I0J150000D01*
G01*
X147335000Y-63650000D01*
G75*
G02*
X147485000Y-63500000I150000J0D01*
G01*
X147785000Y-63500000D01*
G75*
G02*
X147935000Y-63650000I0J-150000D01*
G01*
X147935000Y-65300000D01*
G75*
G02*
X147785000Y-65450000I-150000J0D01*
G01*
G37*
G36*
G01*
X146515000Y-65450000D02*
X146215000Y-65450000D01*
G75*
G02*
X146065000Y-65300000I0J150000D01*
G01*
X146065000Y-63650000D01*
G75*
G02*
X146215000Y-63500000I150000J0D01*
G01*
X146515000Y-63500000D01*
G75*
G02*
X146665000Y-63650000I0J-150000D01*
G01*
X146665000Y-65300000D01*
G75*
G02*
X146515000Y-65450000I-150000J0D01*
G01*
G37*
G36*
G01*
X145245000Y-65450000D02*
X144945000Y-65450000D01*
G75*
G02*
X144795000Y-65300000I0J150000D01*
G01*
X144795000Y-63650000D01*
G75*
G02*
X144945000Y-63500000I150000J0D01*
G01*
X145245000Y-63500000D01*
G75*
G02*
X145395000Y-63650000I0J-150000D01*
G01*
X145395000Y-65300000D01*
G75*
G02*
X145245000Y-65450000I-150000J0D01*
G01*
G37*
D17*
X142800000Y-59700000D03*
X138200000Y-59700000D03*
X140500000Y-59700000D03*
D18*
X140500000Y-66000000D03*
G36*
G01*
X132049999Y-72900000D02*
X132950001Y-72900000D01*
G75*
G02*
X133200000Y-73149999I0J-249999D01*
G01*
X133200000Y-73850001D01*
G75*
G02*
X132950001Y-74100000I-249999J0D01*
G01*
X132049999Y-74100000D01*
G75*
G02*
X131800000Y-73850001I0J249999D01*
G01*
X131800000Y-73149999D01*
G75*
G02*
X132049999Y-72900000I249999J0D01*
G01*
G37*
G36*
G01*
X132049999Y-70900000D02*
X132950001Y-70900000D01*
G75*
G02*
X133200000Y-71149999I0J-249999D01*
G01*
X133200000Y-71850001D01*
G75*
G02*
X132950001Y-72100000I-249999J0D01*
G01*
X132049999Y-72100000D01*
G75*
G02*
X131800000Y-71850001I0J249999D01*
G01*
X131800000Y-71149999D01*
G75*
G02*
X132049999Y-70900000I249999J0D01*
G01*
G37*
G36*
G01*
X154900000Y-54450001D02*
X154900000Y-53549999D01*
G75*
G02*
X155149999Y-53300000I249999J0D01*
G01*
X155850001Y-53300000D01*
G75*
G02*
X156100000Y-53549999I0J-249999D01*
G01*
X156100000Y-54450001D01*
G75*
G02*
X155850001Y-54700000I-249999J0D01*
G01*
X155149999Y-54700000D01*
G75*
G02*
X154900000Y-54450001I0J249999D01*
G01*
G37*
G36*
G01*
X152900000Y-54450001D02*
X152900000Y-53549999D01*
G75*
G02*
X153149999Y-53300000I249999J0D01*
G01*
X153850001Y-53300000D01*
G75*
G02*
X154100000Y-53549999I0J-249999D01*
G01*
X154100000Y-54450001D01*
G75*
G02*
X153850001Y-54700000I-249999J0D01*
G01*
X153149999Y-54700000D01*
G75*
G02*
X152900000Y-54450001I0J249999D01*
G01*
G37*
G36*
G01*
X146600000Y-67748999D02*
X146600000Y-68649001D01*
G75*
G02*
X146350001Y-68899000I-249999J0D01*
G01*
X145649999Y-68899000D01*
G75*
G02*
X145400000Y-68649001I0J249999D01*
G01*
X145400000Y-67748999D01*
G75*
G02*
X145649999Y-67499000I249999J0D01*
G01*
X146350001Y-67499000D01*
G75*
G02*
X146600000Y-67748999I0J-249999D01*
G01*
G37*
G36*
G01*
X148600000Y-67748999D02*
X148600000Y-68649001D01*
G75*
G02*
X148350001Y-68899000I-249999J0D01*
G01*
X147649999Y-68899000D01*
G75*
G02*
X147400000Y-68649001I0J249999D01*
G01*
X147400000Y-67748999D01*
G75*
G02*
X147649999Y-67499000I249999J0D01*
G01*
X148350001Y-67499000D01*
G75*
G02*
X148600000Y-67748999I0J-249999D01*
G01*
G37*
G36*
G01*
X150100000Y-67748999D02*
X150100000Y-68649001D01*
G75*
G02*
X149850001Y-68899000I-249999J0D01*
G01*
X149149999Y-68899000D01*
G75*
G02*
X148900000Y-68649001I0J249999D01*
G01*
X148900000Y-67748999D01*
G75*
G02*
X149149999Y-67499000I249999J0D01*
G01*
X149850001Y-67499000D01*
G75*
G02*
X150100000Y-67748999I0J-249999D01*
G01*
G37*
G36*
G01*
X152100000Y-67748999D02*
X152100000Y-68649001D01*
G75*
G02*
X151850001Y-68899000I-249999J0D01*
G01*
X151149999Y-68899000D01*
G75*
G02*
X150900000Y-68649001I0J249999D01*
G01*
X150900000Y-67748999D01*
G75*
G02*
X151149999Y-67499000I249999J0D01*
G01*
X151850001Y-67499000D01*
G75*
G02*
X152100000Y-67748999I0J-249999D01*
G01*
G37*
D19*
X88500000Y-72500000D03*
X90500000Y-71550000D03*
X90500000Y-73450000D03*
X121500000Y-77000000D03*
X123500000Y-76050000D03*
X123500000Y-77950000D03*
D20*
X141500000Y-70500000D03*
X139000000Y-70500000D03*
G36*
G01*
X135650000Y-71225000D02*
X135650000Y-69775000D01*
G75*
G02*
X135900000Y-69525000I250000J0D01*
G01*
X137100000Y-69525000D01*
G75*
G02*
X137350000Y-69775000I0J-250000D01*
G01*
X137350000Y-71225000D01*
G75*
G02*
X137100000Y-71475000I-250000J0D01*
G01*
X135900000Y-71475000D01*
G75*
G02*
X135650000Y-71225000I0J250000D01*
G01*
G37*
X148000000Y-73000000D03*
X150500000Y-73000000D03*
X153000000Y-73000000D03*
G36*
G01*
X156350000Y-72275000D02*
X156350000Y-73725000D01*
G75*
G02*
X156100000Y-73975000I-250000J0D01*
G01*
X154900000Y-73975000D01*
G75*
G02*
X154650000Y-73725000I0J250000D01*
G01*
X154650000Y-72275000D01*
G75*
G02*
X154900000Y-72025000I250000J0D01*
G01*
X156100000Y-72025000D01*
G75*
G02*
X156350000Y-72275000I0J-250000D01*
G01*
G37*
X141500000Y-77500000D03*
X139000000Y-77500000D03*
G36*
G01*
X135650000Y-78225000D02*
X135650000Y-76775000D01*
G75*
G02*
X135900000Y-76525000I250000J0D01*
G01*
X137100000Y-76525000D01*
G75*
G02*
X137350000Y-76775000I0J-250000D01*
G01*
X137350000Y-78225000D01*
G75*
G02*
X137100000Y-78475000I-250000J0D01*
G01*
X135900000Y-78475000D01*
G75*
G02*
X135650000Y-78225000I0J250000D01*
G01*
G37*
X133000000Y-63500000D03*
X130500000Y-63500000D03*
G36*
G01*
X127150000Y-64225000D02*
X127150000Y-62775000D01*
G75*
G02*
X127400000Y-62525000I250000J0D01*
G01*
X128600000Y-62525000D01*
G75*
G02*
X128850000Y-62775000I0J-250000D01*
G01*
X128850000Y-64225000D01*
G75*
G02*
X128600000Y-64475000I-250000J0D01*
G01*
X127400000Y-64475000D01*
G75*
G02*
X127150000Y-64225000I0J250000D01*
G01*
G37*
D21*
X148000000Y-79000000D03*
X150000000Y-79000000D03*
X152000000Y-79000000D03*
X154000000Y-79000000D03*
G36*
G01*
X156600000Y-78374999D02*
X156600000Y-79625001D01*
G75*
G02*
X156350001Y-79875000I-249999J0D01*
G01*
X155649999Y-79875000D01*
G75*
G02*
X155400000Y-79625001I0J249999D01*
G01*
X155400000Y-78374999D01*
G75*
G02*
X155649999Y-78125000I249999J0D01*
G01*
X156350001Y-78125000D01*
G75*
G02*
X156600000Y-78374999I0J-249999D01*
G01*
G37*
G36*
G01*
X154987500Y-56475000D02*
X154987500Y-55525000D01*
G75*
G02*
X155237500Y-55275000I250000J0D01*
G01*
X155912500Y-55275000D01*
G75*
G02*
X156162500Y-55525000I0J-250000D01*
G01*
X156162500Y-56475000D01*
G75*
G02*
X155912500Y-56725000I-250000J0D01*
G01*
X155237500Y-56725000D01*
G75*
G02*
X154987500Y-56475000I0J250000D01*
G01*
G37*
G36*
G01*
X152912500Y-56475000D02*
X152912500Y-55525000D01*
G75*
G02*
X153162500Y-55275000I250000J0D01*
G01*
X153837500Y-55275000D01*
G75*
G02*
X154087500Y-55525000I0J-250000D01*
G01*
X154087500Y-56475000D01*
G75*
G02*
X153837500Y-56725000I-250000J0D01*
G01*
X153162500Y-56725000D01*
G75*
G02*
X152912500Y-56475000I0J250000D01*
G01*
G37*
G36*
G01*
X134512500Y-59025000D02*
X134512500Y-59975000D01*
G75*
G02*
X134262500Y-60225000I-250000J0D01*
G01*
X133587500Y-60225000D01*
G75*
G02*
X133337500Y-59975000I0J250000D01*
G01*
X133337500Y-59025000D01*
G75*
G02*
X133587500Y-58775000I250000J0D01*
G01*
X134262500Y-58775000D01*
G75*
G02*
X134512500Y-59025000I0J-250000D01*
G01*
G37*
G36*
G01*
X136587500Y-59025000D02*
X136587500Y-59975000D01*
G75*
G02*
X136337500Y-60225000I-250000J0D01*
G01*
X135662500Y-60225000D01*
G75*
G02*
X135412500Y-59975000I0J250000D01*
G01*
X135412500Y-59025000D01*
G75*
G02*
X135662500Y-58775000I250000J0D01*
G01*
X136337500Y-58775000D01*
G75*
G02*
X136587500Y-59025000I0J-250000D01*
G01*
G37*
D22*
X114000000Y-77000000D03*
X114000000Y-70500000D03*
D23*
X176500000Y-52000000D03*
X176500000Y-54540000D03*
X176500000Y-57080000D03*
X176500000Y-59620000D03*
X176500000Y-62160000D03*
X176500000Y-64700000D03*
X176500000Y-67240000D03*
X176500000Y-69780000D03*
X176500000Y-72320000D03*
X176500000Y-74860000D03*
X176500000Y-77400000D03*
X176500000Y-79940000D03*
X161260000Y-79940000D03*
X161260000Y-77400000D03*
X161260000Y-74860000D03*
X161260000Y-72320000D03*
X161260000Y-69780000D03*
X161260000Y-67240000D03*
X161260000Y-64700000D03*
X161260000Y-62160000D03*
X161260000Y-59620000D03*
X161260000Y-57080000D03*
X161260000Y-54540000D03*
X161260000Y-52000000D03*
M02*
