G04 #@! TF.GenerationSoftware,KiCad,Pcbnew,(5.1.9)-1*
G04 #@! TF.CreationDate,2021-06-06T22:42:38-05:00*
G04 #@! TF.ProjectId,BoilerBot,426f696c-6572-4426-9f74-2e6b69636164,rev?*
G04 #@! TF.SameCoordinates,Original*
G04 #@! TF.FileFunction,Soldermask,Bot*
G04 #@! TF.FilePolarity,Negative*
%FSLAX46Y46*%
G04 Gerber Fmt 4.6, Leading zero omitted, Abs format (unit mm)*
G04 Created by KiCad (PCBNEW (5.1.9)-1) date 2021-06-06 22:42:38*
%MOMM*%
%LPD*%
G01*
G04 APERTURE LIST*
%ADD10O,1.700000X2.000000*%
%ADD11C,2.500000*%
%ADD12C,1.600000*%
%ADD13O,1.700000X1.950000*%
%ADD14O,1.200000X1.750000*%
%ADD15C,1.500000*%
%ADD16C,1.879600*%
G04 APERTURE END LIST*
G36*
G01*
X114550000Y-52699999D02*
X114550000Y-49300001D01*
G75*
G02*
X114800001Y-49050000I250001J0D01*
G01*
X118199999Y-49050000D01*
G75*
G02*
X118450000Y-49300001I0J-250001D01*
G01*
X118450000Y-52699999D01*
G75*
G02*
X118199999Y-52950000I-250001J0D01*
G01*
X114800001Y-52950000D01*
G75*
G02*
X114550000Y-52699999I0J250001D01*
G01*
G37*
G36*
G01*
X119550000Y-52699999D02*
X119550000Y-49300001D01*
G75*
G02*
X119800001Y-49050000I250001J0D01*
G01*
X123199999Y-49050000D01*
G75*
G02*
X123450000Y-49300001I0J-250001D01*
G01*
X123450000Y-52699999D01*
G75*
G02*
X123199999Y-52950000I-250001J0D01*
G01*
X119800001Y-52950000D01*
G75*
G02*
X119550000Y-52699999I0J250001D01*
G01*
G37*
D10*
X147500000Y-51500000D03*
G36*
G01*
X144150000Y-52250000D02*
X144150000Y-50750000D01*
G75*
G02*
X144400000Y-50500000I250000J0D01*
G01*
X145600000Y-50500000D01*
G75*
G02*
X145850000Y-50750000I0J-250000D01*
G01*
X145850000Y-52250000D01*
G75*
G02*
X145600000Y-52500000I-250000J0D01*
G01*
X144400000Y-52500000D01*
G75*
G02*
X144150000Y-52250000I0J250000D01*
G01*
G37*
X130000000Y-77500000D03*
G36*
G01*
X126650000Y-78250000D02*
X126650000Y-76750000D01*
G75*
G02*
X126900000Y-76500000I250000J0D01*
G01*
X128100000Y-76500000D01*
G75*
G02*
X128350000Y-76750000I0J-250000D01*
G01*
X128350000Y-78250000D01*
G75*
G02*
X128100000Y-78500000I-250000J0D01*
G01*
X126900000Y-78500000D01*
G75*
G02*
X126650000Y-78250000I0J250000D01*
G01*
G37*
D11*
X111500000Y-50500000D03*
X108000000Y-58000000D03*
D12*
X91500000Y-50500000D03*
X91500000Y-58000000D03*
D13*
X141500000Y-70500000D03*
X139000000Y-70500000D03*
G36*
G01*
X135650000Y-71225000D02*
X135650000Y-69775000D01*
G75*
G02*
X135900000Y-69525000I250000J0D01*
G01*
X137100000Y-69525000D01*
G75*
G02*
X137350000Y-69775000I0J-250000D01*
G01*
X137350000Y-71225000D01*
G75*
G02*
X137100000Y-71475000I-250000J0D01*
G01*
X135900000Y-71475000D01*
G75*
G02*
X135650000Y-71225000I0J250000D01*
G01*
G37*
X148000000Y-73000000D03*
X150500000Y-73000000D03*
X153000000Y-73000000D03*
G36*
G01*
X156350000Y-72275000D02*
X156350000Y-73725000D01*
G75*
G02*
X156100000Y-73975000I-250000J0D01*
G01*
X154900000Y-73975000D01*
G75*
G02*
X154650000Y-73725000I0J250000D01*
G01*
X154650000Y-72275000D01*
G75*
G02*
X154900000Y-72025000I250000J0D01*
G01*
X156100000Y-72025000D01*
G75*
G02*
X156350000Y-72275000I0J-250000D01*
G01*
G37*
X141500000Y-77500000D03*
X139000000Y-77500000D03*
G36*
G01*
X135650000Y-78225000D02*
X135650000Y-76775000D01*
G75*
G02*
X135900000Y-76525000I250000J0D01*
G01*
X137100000Y-76525000D01*
G75*
G02*
X137350000Y-76775000I0J-250000D01*
G01*
X137350000Y-78225000D01*
G75*
G02*
X137100000Y-78475000I-250000J0D01*
G01*
X135900000Y-78475000D01*
G75*
G02*
X135650000Y-78225000I0J250000D01*
G01*
G37*
X133000000Y-63500000D03*
X130500000Y-63500000D03*
G36*
G01*
X127150000Y-64225000D02*
X127150000Y-62775000D01*
G75*
G02*
X127400000Y-62525000I250000J0D01*
G01*
X128600000Y-62525000D01*
G75*
G02*
X128850000Y-62775000I0J-250000D01*
G01*
X128850000Y-64225000D01*
G75*
G02*
X128600000Y-64475000I-250000J0D01*
G01*
X127400000Y-64475000D01*
G75*
G02*
X127150000Y-64225000I0J250000D01*
G01*
G37*
D14*
X148000000Y-79000000D03*
X150000000Y-79000000D03*
X152000000Y-79000000D03*
X154000000Y-79000000D03*
G36*
G01*
X156600000Y-78374999D02*
X156600000Y-79625001D01*
G75*
G02*
X156350001Y-79875000I-249999J0D01*
G01*
X155649999Y-79875000D01*
G75*
G02*
X155400000Y-79625001I0J249999D01*
G01*
X155400000Y-78374999D01*
G75*
G02*
X155649999Y-78125000I249999J0D01*
G01*
X156350001Y-78125000D01*
G75*
G02*
X156600000Y-78374999I0J-249999D01*
G01*
G37*
D15*
X114000000Y-77000000D03*
X114000000Y-70500000D03*
D16*
X176500000Y-52000000D03*
X176500000Y-54540000D03*
X176500000Y-57080000D03*
X176500000Y-59620000D03*
X176500000Y-62160000D03*
X176500000Y-64700000D03*
X176500000Y-67240000D03*
X176500000Y-69780000D03*
X176500000Y-72320000D03*
X176500000Y-74860000D03*
X176500000Y-77400000D03*
X176500000Y-79940000D03*
X161260000Y-79940000D03*
X161260000Y-77400000D03*
X161260000Y-74860000D03*
X161260000Y-72320000D03*
X161260000Y-69780000D03*
X161260000Y-67240000D03*
X161260000Y-64700000D03*
X161260000Y-62160000D03*
X161260000Y-59620000D03*
X161260000Y-57080000D03*
X161260000Y-54540000D03*
X161260000Y-52000000D03*
M02*
