G04 #@! TF.GenerationSoftware,KiCad,Pcbnew,(5.1.9)-1*
G04 #@! TF.CreationDate,2021-05-18T22:57:50-05:00*
G04 #@! TF.ProjectId,BoilerBot,426f696c-6572-4426-9f74-2e6b69636164,rev?*
G04 #@! TF.SameCoordinates,Original*
G04 #@! TF.FileFunction,Copper,L1,Top*
G04 #@! TF.FilePolarity,Positive*
%FSLAX46Y46*%
G04 Gerber Fmt 4.6, Leading zero omitted, Abs format (unit mm)*
G04 Created by KiCad (PCBNEW (5.1.9)-1) date 2021-05-18 22:57:50*
%MOMM*%
%LPD*%
G01*
G04 APERTURE LIST*
G04 #@! TA.AperFunction,ComponentPad*
%ADD10C,2.500000*%
G04 #@! TD*
G04 #@! TA.AperFunction,ComponentPad*
%ADD11C,1.600000*%
G04 #@! TD*
G04 #@! TA.AperFunction,ComponentPad*
%ADD12C,0.500000*%
G04 #@! TD*
G04 #@! TA.AperFunction,SMDPad,CuDef*
%ADD13R,3.000000X2.290000*%
G04 #@! TD*
G04 #@! TA.AperFunction,SMDPad,CuDef*
%ADD14R,1.500000X2.000000*%
G04 #@! TD*
G04 #@! TA.AperFunction,SMDPad,CuDef*
%ADD15R,3.800000X2.000000*%
G04 #@! TD*
G04 #@! TA.AperFunction,SMDPad,CuDef*
%ADD16R,0.900000X0.800000*%
G04 #@! TD*
G04 #@! TA.AperFunction,ComponentPad*
%ADD17O,1.700000X1.950000*%
G04 #@! TD*
G04 #@! TA.AperFunction,ComponentPad*
%ADD18C,2.600000*%
G04 #@! TD*
G04 #@! TA.AperFunction,ComponentPad*
%ADD19R,2.600000X2.600000*%
G04 #@! TD*
G04 #@! TA.AperFunction,ComponentPad*
%ADD20O,1.200000X1.750000*%
G04 #@! TD*
G04 #@! TA.AperFunction,ComponentPad*
%ADD21C,1.500000*%
G04 #@! TD*
G04 #@! TA.AperFunction,ComponentPad*
%ADD22C,1.879600*%
G04 #@! TD*
G04 #@! TA.AperFunction,ViaPad*
%ADD23C,0.609600*%
G04 #@! TD*
G04 #@! TA.AperFunction,Conductor*
%ADD24C,0.254000*%
G04 #@! TD*
G04 #@! TA.AperFunction,Conductor*
%ADD25C,0.762000*%
G04 #@! TD*
G04 #@! TA.AperFunction,Conductor*
%ADD26C,2.540000*%
G04 #@! TD*
G04 #@! TA.AperFunction,Conductor*
%ADD27C,0.100000*%
G04 #@! TD*
G04 APERTURE END LIST*
D10*
X106500000Y-61750000D03*
X103000000Y-69250000D03*
D11*
X86500000Y-61750000D03*
X86500000Y-69250000D03*
G04 #@! TA.AperFunction,SMDPad,CuDef*
G36*
G01*
X152950000Y-62750000D02*
X154050000Y-62750000D01*
G75*
G02*
X154300000Y-63000000I0J-250000D01*
G01*
X154300000Y-66000000D01*
G75*
G02*
X154050000Y-66250000I-250000J0D01*
G01*
X152950000Y-66250000D01*
G75*
G02*
X152700000Y-66000000I0J250000D01*
G01*
X152700000Y-63000000D01*
G75*
G02*
X152950000Y-62750000I250000J0D01*
G01*
G37*
G04 #@! TD.AperFunction*
G04 #@! TA.AperFunction,SMDPad,CuDef*
G36*
G01*
X152950000Y-57350000D02*
X154050000Y-57350000D01*
G75*
G02*
X154300000Y-57600000I0J-250000D01*
G01*
X154300000Y-60600000D01*
G75*
G02*
X154050000Y-60850000I-250000J0D01*
G01*
X152950000Y-60850000D01*
G75*
G02*
X152700000Y-60600000I0J250000D01*
G01*
X152700000Y-57600000D01*
G75*
G02*
X152950000Y-57350000I250000J0D01*
G01*
G37*
G04 #@! TD.AperFunction*
D12*
X148000000Y-61350000D03*
X148000000Y-62650000D03*
X147000000Y-61350000D03*
X147000000Y-62650000D03*
X146000000Y-61350000D03*
X146000000Y-62650000D03*
D13*
X147000000Y-62000000D03*
G04 #@! TA.AperFunction,SMDPad,CuDef*
G36*
G01*
X145245000Y-60500000D02*
X144945000Y-60500000D01*
G75*
G02*
X144795000Y-60350000I0J150000D01*
G01*
X144795000Y-58700000D01*
G75*
G02*
X144945000Y-58550000I150000J0D01*
G01*
X145245000Y-58550000D01*
G75*
G02*
X145395000Y-58700000I0J-150000D01*
G01*
X145395000Y-60350000D01*
G75*
G02*
X145245000Y-60500000I-150000J0D01*
G01*
G37*
G04 #@! TD.AperFunction*
G04 #@! TA.AperFunction,SMDPad,CuDef*
G36*
G01*
X146515000Y-60500000D02*
X146215000Y-60500000D01*
G75*
G02*
X146065000Y-60350000I0J150000D01*
G01*
X146065000Y-58700000D01*
G75*
G02*
X146215000Y-58550000I150000J0D01*
G01*
X146515000Y-58550000D01*
G75*
G02*
X146665000Y-58700000I0J-150000D01*
G01*
X146665000Y-60350000D01*
G75*
G02*
X146515000Y-60500000I-150000J0D01*
G01*
G37*
G04 #@! TD.AperFunction*
G04 #@! TA.AperFunction,SMDPad,CuDef*
G36*
G01*
X147785000Y-60500000D02*
X147485000Y-60500000D01*
G75*
G02*
X147335000Y-60350000I0J150000D01*
G01*
X147335000Y-58700000D01*
G75*
G02*
X147485000Y-58550000I150000J0D01*
G01*
X147785000Y-58550000D01*
G75*
G02*
X147935000Y-58700000I0J-150000D01*
G01*
X147935000Y-60350000D01*
G75*
G02*
X147785000Y-60500000I-150000J0D01*
G01*
G37*
G04 #@! TD.AperFunction*
G04 #@! TA.AperFunction,SMDPad,CuDef*
G36*
G01*
X149055000Y-60500000D02*
X148755000Y-60500000D01*
G75*
G02*
X148605000Y-60350000I0J150000D01*
G01*
X148605000Y-58700000D01*
G75*
G02*
X148755000Y-58550000I150000J0D01*
G01*
X149055000Y-58550000D01*
G75*
G02*
X149205000Y-58700000I0J-150000D01*
G01*
X149205000Y-60350000D01*
G75*
G02*
X149055000Y-60500000I-150000J0D01*
G01*
G37*
G04 #@! TD.AperFunction*
G04 #@! TA.AperFunction,SMDPad,CuDef*
G36*
G01*
X149055000Y-65450000D02*
X148755000Y-65450000D01*
G75*
G02*
X148605000Y-65300000I0J150000D01*
G01*
X148605000Y-63650000D01*
G75*
G02*
X148755000Y-63500000I150000J0D01*
G01*
X149055000Y-63500000D01*
G75*
G02*
X149205000Y-63650000I0J-150000D01*
G01*
X149205000Y-65300000D01*
G75*
G02*
X149055000Y-65450000I-150000J0D01*
G01*
G37*
G04 #@! TD.AperFunction*
G04 #@! TA.AperFunction,SMDPad,CuDef*
G36*
G01*
X147785000Y-65450000D02*
X147485000Y-65450000D01*
G75*
G02*
X147335000Y-65300000I0J150000D01*
G01*
X147335000Y-63650000D01*
G75*
G02*
X147485000Y-63500000I150000J0D01*
G01*
X147785000Y-63500000D01*
G75*
G02*
X147935000Y-63650000I0J-150000D01*
G01*
X147935000Y-65300000D01*
G75*
G02*
X147785000Y-65450000I-150000J0D01*
G01*
G37*
G04 #@! TD.AperFunction*
G04 #@! TA.AperFunction,SMDPad,CuDef*
G36*
G01*
X146515000Y-65450000D02*
X146215000Y-65450000D01*
G75*
G02*
X146065000Y-65300000I0J150000D01*
G01*
X146065000Y-63650000D01*
G75*
G02*
X146215000Y-63500000I150000J0D01*
G01*
X146515000Y-63500000D01*
G75*
G02*
X146665000Y-63650000I0J-150000D01*
G01*
X146665000Y-65300000D01*
G75*
G02*
X146515000Y-65450000I-150000J0D01*
G01*
G37*
G04 #@! TD.AperFunction*
G04 #@! TA.AperFunction,SMDPad,CuDef*
G36*
G01*
X145245000Y-65450000D02*
X144945000Y-65450000D01*
G75*
G02*
X144795000Y-65300000I0J150000D01*
G01*
X144795000Y-63650000D01*
G75*
G02*
X144945000Y-63500000I150000J0D01*
G01*
X145245000Y-63500000D01*
G75*
G02*
X145395000Y-63650000I0J-150000D01*
G01*
X145395000Y-65300000D01*
G75*
G02*
X145245000Y-65450000I-150000J0D01*
G01*
G37*
G04 #@! TD.AperFunction*
D14*
X142800000Y-59700000D03*
X138200000Y-59700000D03*
X140500000Y-59700000D03*
D15*
X140500000Y-66000000D03*
G04 #@! TA.AperFunction,SMDPad,CuDef*
G36*
G01*
X132049999Y-78900000D02*
X132950001Y-78900000D01*
G75*
G02*
X133200000Y-79149999I0J-249999D01*
G01*
X133200000Y-79850001D01*
G75*
G02*
X132950001Y-80100000I-249999J0D01*
G01*
X132049999Y-80100000D01*
G75*
G02*
X131800000Y-79850001I0J249999D01*
G01*
X131800000Y-79149999D01*
G75*
G02*
X132049999Y-78900000I249999J0D01*
G01*
G37*
G04 #@! TD.AperFunction*
G04 #@! TA.AperFunction,SMDPad,CuDef*
G36*
G01*
X132049999Y-76900000D02*
X132950001Y-76900000D01*
G75*
G02*
X133200000Y-77149999I0J-249999D01*
G01*
X133200000Y-77850001D01*
G75*
G02*
X132950001Y-78100000I-249999J0D01*
G01*
X132049999Y-78100000D01*
G75*
G02*
X131800000Y-77850001I0J249999D01*
G01*
X131800000Y-77149999D01*
G75*
G02*
X132049999Y-76900000I249999J0D01*
G01*
G37*
G04 #@! TD.AperFunction*
G04 #@! TA.AperFunction,SMDPad,CuDef*
G36*
G01*
X154900000Y-54450001D02*
X154900000Y-53549999D01*
G75*
G02*
X155149999Y-53300000I249999J0D01*
G01*
X155850001Y-53300000D01*
G75*
G02*
X156100000Y-53549999I0J-249999D01*
G01*
X156100000Y-54450001D01*
G75*
G02*
X155850001Y-54700000I-249999J0D01*
G01*
X155149999Y-54700000D01*
G75*
G02*
X154900000Y-54450001I0J249999D01*
G01*
G37*
G04 #@! TD.AperFunction*
G04 #@! TA.AperFunction,SMDPad,CuDef*
G36*
G01*
X152900000Y-54450001D02*
X152900000Y-53549999D01*
G75*
G02*
X153149999Y-53300000I249999J0D01*
G01*
X153850001Y-53300000D01*
G75*
G02*
X154100000Y-53549999I0J-249999D01*
G01*
X154100000Y-54450001D01*
G75*
G02*
X153850001Y-54700000I-249999J0D01*
G01*
X153149999Y-54700000D01*
G75*
G02*
X152900000Y-54450001I0J249999D01*
G01*
G37*
G04 #@! TD.AperFunction*
G04 #@! TA.AperFunction,SMDPad,CuDef*
G36*
G01*
X146600000Y-67748999D02*
X146600000Y-68649001D01*
G75*
G02*
X146350001Y-68899000I-249999J0D01*
G01*
X145649999Y-68899000D01*
G75*
G02*
X145400000Y-68649001I0J249999D01*
G01*
X145400000Y-67748999D01*
G75*
G02*
X145649999Y-67499000I249999J0D01*
G01*
X146350001Y-67499000D01*
G75*
G02*
X146600000Y-67748999I0J-249999D01*
G01*
G37*
G04 #@! TD.AperFunction*
G04 #@! TA.AperFunction,SMDPad,CuDef*
G36*
G01*
X148600000Y-67748999D02*
X148600000Y-68649001D01*
G75*
G02*
X148350001Y-68899000I-249999J0D01*
G01*
X147649999Y-68899000D01*
G75*
G02*
X147400000Y-68649001I0J249999D01*
G01*
X147400000Y-67748999D01*
G75*
G02*
X147649999Y-67499000I249999J0D01*
G01*
X148350001Y-67499000D01*
G75*
G02*
X148600000Y-67748999I0J-249999D01*
G01*
G37*
G04 #@! TD.AperFunction*
G04 #@! TA.AperFunction,SMDPad,CuDef*
G36*
G01*
X150100000Y-67748999D02*
X150100000Y-68649001D01*
G75*
G02*
X149850001Y-68899000I-249999J0D01*
G01*
X149149999Y-68899000D01*
G75*
G02*
X148900000Y-68649001I0J249999D01*
G01*
X148900000Y-67748999D01*
G75*
G02*
X149149999Y-67499000I249999J0D01*
G01*
X149850001Y-67499000D01*
G75*
G02*
X150100000Y-67748999I0J-249999D01*
G01*
G37*
G04 #@! TD.AperFunction*
G04 #@! TA.AperFunction,SMDPad,CuDef*
G36*
G01*
X152100000Y-67748999D02*
X152100000Y-68649001D01*
G75*
G02*
X151850001Y-68899000I-249999J0D01*
G01*
X151149999Y-68899000D01*
G75*
G02*
X150900000Y-68649001I0J249999D01*
G01*
X150900000Y-67748999D01*
G75*
G02*
X151149999Y-67499000I249999J0D01*
G01*
X151850001Y-67499000D01*
G75*
G02*
X152100000Y-67748999I0J-249999D01*
G01*
G37*
G04 #@! TD.AperFunction*
D16*
X88500000Y-72500000D03*
X90500000Y-71550000D03*
X90500000Y-73450000D03*
X123000000Y-78500000D03*
X125000000Y-77550000D03*
X125000000Y-79450000D03*
D17*
X141500000Y-70500000D03*
X139000000Y-70500000D03*
G04 #@! TA.AperFunction,ComponentPad*
G36*
G01*
X135650000Y-71225000D02*
X135650000Y-69775000D01*
G75*
G02*
X135900000Y-69525000I250000J0D01*
G01*
X137100000Y-69525000D01*
G75*
G02*
X137350000Y-69775000I0J-250000D01*
G01*
X137350000Y-71225000D01*
G75*
G02*
X137100000Y-71475000I-250000J0D01*
G01*
X135900000Y-71475000D01*
G75*
G02*
X135650000Y-71225000I0J250000D01*
G01*
G37*
G04 #@! TD.AperFunction*
X148000000Y-73000000D03*
X150500000Y-73000000D03*
X153000000Y-73000000D03*
G04 #@! TA.AperFunction,ComponentPad*
G36*
G01*
X156350000Y-72275000D02*
X156350000Y-73725000D01*
G75*
G02*
X156100000Y-73975000I-250000J0D01*
G01*
X154900000Y-73975000D01*
G75*
G02*
X154650000Y-73725000I0J250000D01*
G01*
X154650000Y-72275000D01*
G75*
G02*
X154900000Y-72025000I250000J0D01*
G01*
X156100000Y-72025000D01*
G75*
G02*
X156350000Y-72275000I0J-250000D01*
G01*
G37*
G04 #@! TD.AperFunction*
D18*
X112000000Y-53000000D03*
X107000000Y-53000000D03*
D19*
X102000000Y-53000000D03*
D17*
X141500000Y-77500000D03*
X139000000Y-77500000D03*
G04 #@! TA.AperFunction,ComponentPad*
G36*
G01*
X135650000Y-78225000D02*
X135650000Y-76775000D01*
G75*
G02*
X135900000Y-76525000I250000J0D01*
G01*
X137100000Y-76525000D01*
G75*
G02*
X137350000Y-76775000I0J-250000D01*
G01*
X137350000Y-78225000D01*
G75*
G02*
X137100000Y-78475000I-250000J0D01*
G01*
X135900000Y-78475000D01*
G75*
G02*
X135650000Y-78225000I0J250000D01*
G01*
G37*
G04 #@! TD.AperFunction*
X133000000Y-63500000D03*
X130500000Y-63500000D03*
G04 #@! TA.AperFunction,ComponentPad*
G36*
G01*
X127150000Y-64225000D02*
X127150000Y-62775000D01*
G75*
G02*
X127400000Y-62525000I250000J0D01*
G01*
X128600000Y-62525000D01*
G75*
G02*
X128850000Y-62775000I0J-250000D01*
G01*
X128850000Y-64225000D01*
G75*
G02*
X128600000Y-64475000I-250000J0D01*
G01*
X127400000Y-64475000D01*
G75*
G02*
X127150000Y-64225000I0J250000D01*
G01*
G37*
G04 #@! TD.AperFunction*
D20*
X148000000Y-79000000D03*
X150000000Y-79000000D03*
X152000000Y-79000000D03*
X154000000Y-79000000D03*
G04 #@! TA.AperFunction,ComponentPad*
G36*
G01*
X156600000Y-78374999D02*
X156600000Y-79625001D01*
G75*
G02*
X156350001Y-79875000I-249999J0D01*
G01*
X155649999Y-79875000D01*
G75*
G02*
X155400000Y-79625001I0J249999D01*
G01*
X155400000Y-78374999D01*
G75*
G02*
X155649999Y-78125000I249999J0D01*
G01*
X156350001Y-78125000D01*
G75*
G02*
X156600000Y-78374999I0J-249999D01*
G01*
G37*
G04 #@! TD.AperFunction*
D18*
X149000000Y-53000000D03*
D19*
X144000000Y-53000000D03*
D18*
X127000000Y-53000000D03*
X122000000Y-53000000D03*
D19*
X117000000Y-53000000D03*
D18*
X97000000Y-53000000D03*
X92000000Y-53000000D03*
D19*
X87000000Y-53000000D03*
D18*
X139000000Y-53000000D03*
D19*
X134000000Y-53000000D03*
G04 #@! TA.AperFunction,SMDPad,CuDef*
G36*
G01*
X154987500Y-56475000D02*
X154987500Y-55525000D01*
G75*
G02*
X155237500Y-55275000I250000J0D01*
G01*
X155912500Y-55275000D01*
G75*
G02*
X156162500Y-55525000I0J-250000D01*
G01*
X156162500Y-56475000D01*
G75*
G02*
X155912500Y-56725000I-250000J0D01*
G01*
X155237500Y-56725000D01*
G75*
G02*
X154987500Y-56475000I0J250000D01*
G01*
G37*
G04 #@! TD.AperFunction*
G04 #@! TA.AperFunction,SMDPad,CuDef*
G36*
G01*
X152912500Y-56475000D02*
X152912500Y-55525000D01*
G75*
G02*
X153162500Y-55275000I250000J0D01*
G01*
X153837500Y-55275000D01*
G75*
G02*
X154087500Y-55525000I0J-250000D01*
G01*
X154087500Y-56475000D01*
G75*
G02*
X153837500Y-56725000I-250000J0D01*
G01*
X153162500Y-56725000D01*
G75*
G02*
X152912500Y-56475000I0J250000D01*
G01*
G37*
G04 #@! TD.AperFunction*
G04 #@! TA.AperFunction,SMDPad,CuDef*
G36*
G01*
X134512500Y-59025000D02*
X134512500Y-59975000D01*
G75*
G02*
X134262500Y-60225000I-250000J0D01*
G01*
X133587500Y-60225000D01*
G75*
G02*
X133337500Y-59975000I0J250000D01*
G01*
X133337500Y-59025000D01*
G75*
G02*
X133587500Y-58775000I250000J0D01*
G01*
X134262500Y-58775000D01*
G75*
G02*
X134512500Y-59025000I0J-250000D01*
G01*
G37*
G04 #@! TD.AperFunction*
G04 #@! TA.AperFunction,SMDPad,CuDef*
G36*
G01*
X136587500Y-59025000D02*
X136587500Y-59975000D01*
G75*
G02*
X136337500Y-60225000I-250000J0D01*
G01*
X135662500Y-60225000D01*
G75*
G02*
X135412500Y-59975000I0J250000D01*
G01*
X135412500Y-59025000D01*
G75*
G02*
X135662500Y-58775000I250000J0D01*
G01*
X136337500Y-58775000D01*
G75*
G02*
X136587500Y-59025000I0J-250000D01*
G01*
G37*
G04 #@! TD.AperFunction*
D21*
X116000000Y-77750000D03*
X116000000Y-71250000D03*
D22*
X176500000Y-52000000D03*
X176500000Y-54540000D03*
X176500000Y-57080000D03*
X176500000Y-59620000D03*
X176500000Y-62160000D03*
X176500000Y-64700000D03*
X176500000Y-67240000D03*
X176500000Y-69780000D03*
X176500000Y-72320000D03*
X176500000Y-74860000D03*
X176500000Y-77400000D03*
X176500000Y-79940000D03*
X161260000Y-79940000D03*
X161260000Y-77400000D03*
X161260000Y-74860000D03*
X161260000Y-72320000D03*
X161260000Y-69780000D03*
X161260000Y-67240000D03*
X161260000Y-64700000D03*
X161260000Y-62160000D03*
X161260000Y-59620000D03*
X161260000Y-57080000D03*
X161260000Y-54540000D03*
X161260000Y-52000000D03*
D23*
X147955000Y-76327000D03*
X151384000Y-67056000D03*
X150495000Y-70104000D03*
X91694000Y-71501000D03*
X126111000Y-77597000D03*
X132715000Y-59563000D03*
X145923000Y-66929000D03*
X145923000Y-73025000D03*
X151765000Y-75438000D03*
X149733000Y-64516000D03*
X149606000Y-67056000D03*
X146431000Y-58039000D03*
X153416000Y-52832000D03*
D24*
X151500000Y-67172000D02*
X151384000Y-67056000D01*
X151500000Y-68199000D02*
X151500000Y-67172000D01*
X125000000Y-79450000D02*
X126683801Y-81133801D01*
X176500000Y-77400000D02*
X174809000Y-77400000D01*
X174809000Y-77400000D02*
X171450000Y-74041000D01*
X171450000Y-74041000D02*
X167513000Y-74041000D01*
X167513000Y-74041000D02*
X164826801Y-76727199D01*
X164826801Y-76727199D02*
X164826801Y-81133801D01*
X126683801Y-81133801D02*
X164826801Y-81133801D01*
X90500000Y-73450000D02*
X98584000Y-81534000D01*
X165481000Y-81534000D02*
X165481000Y-77089000D01*
X98584000Y-81534000D02*
X165481000Y-81534000D01*
X165481000Y-77089000D02*
X167767000Y-74803000D01*
X171363000Y-74803000D02*
X176500000Y-79940000D01*
X167767000Y-74803000D02*
X171363000Y-74803000D01*
X147000020Y-66085020D02*
X151783412Y-66085020D01*
X146365000Y-65450000D02*
X147000020Y-66085020D01*
X146365000Y-64475000D02*
X146365000Y-65450000D01*
X155478392Y-69780000D02*
X161260000Y-69780000D01*
X151783412Y-66085020D02*
X155478392Y-69780000D01*
X153477220Y-67240000D02*
X161260000Y-67240000D01*
X151941230Y-65704010D02*
X153477220Y-67240000D01*
X147889010Y-65704010D02*
X151941230Y-65704010D01*
X147635000Y-65450000D02*
X147889010Y-65704010D01*
X147635000Y-64475000D02*
X147635000Y-65450000D01*
X137000000Y-79500000D02*
X139000000Y-77500000D01*
X132500000Y-79500000D02*
X137000000Y-79500000D01*
X145900000Y-77400000D02*
X161260000Y-77400000D01*
X139000000Y-70500000D02*
X145900000Y-77400000D01*
X157479564Y-72320000D02*
X161260000Y-72320000D01*
X154312574Y-69153010D02*
X157479564Y-72320000D01*
X136153010Y-69153010D02*
X154312574Y-69153010D01*
X130500000Y-63500000D02*
X136153010Y-69153010D01*
D25*
X151000000Y-62000000D02*
X147000000Y-62000000D01*
X153500000Y-64500000D02*
X151000000Y-62000000D01*
X145100000Y-62000000D02*
X142800000Y-59700000D01*
X147000000Y-62000000D02*
X145100000Y-62000000D01*
X142800000Y-56800000D02*
X139000000Y-53000000D01*
X142800000Y-59700000D02*
X142800000Y-56800000D01*
X145095000Y-63555000D02*
X146000000Y-62650000D01*
X145095000Y-64475000D02*
X145095000Y-63555000D01*
D26*
X97000000Y-53000000D02*
X97000000Y-57122000D01*
X97000000Y-57122000D02*
X105156000Y-65278000D01*
X105156000Y-65278000D02*
X108331000Y-65278000D01*
X112000000Y-61609000D02*
X112000000Y-53000000D01*
X108331000Y-65278000D02*
X112000000Y-61609000D01*
D24*
X91645000Y-71550000D02*
X91694000Y-71501000D01*
X90500000Y-71550000D02*
X91645000Y-71550000D01*
X126064000Y-77550000D02*
X126111000Y-77597000D01*
X125000000Y-77550000D02*
X126064000Y-77550000D01*
X132778000Y-59500000D02*
X132715000Y-59563000D01*
X133925000Y-59500000D02*
X132778000Y-59500000D01*
X145095000Y-67294000D02*
X146000000Y-68199000D01*
X145095000Y-64475000D02*
X145095000Y-67294000D01*
X137699000Y-68199000D02*
X133000000Y-63500000D01*
X146000000Y-68199000D02*
X137699000Y-68199000D01*
X146000000Y-67006000D02*
X145923000Y-66929000D01*
X146000000Y-68199000D02*
X146000000Y-67006000D01*
X147975000Y-73025000D02*
X148000000Y-73000000D01*
X145923000Y-73025000D02*
X147975000Y-73025000D01*
X155575000Y-62425000D02*
X155575000Y-56000000D01*
X153500000Y-64500000D02*
X155575000Y-62425000D01*
X155575000Y-54075000D02*
X155500000Y-54000000D01*
X155575000Y-56000000D02*
X155575000Y-54075000D01*
X150438000Y-75438000D02*
X148000000Y-73000000D01*
X151765000Y-75438000D02*
X150438000Y-75438000D01*
X116749999Y-78499999D02*
X116000000Y-77750000D01*
X123000000Y-78500000D02*
X116749999Y-78499999D01*
D25*
X152391990Y-54891990D02*
X153500000Y-56000000D01*
X152391990Y-53716148D02*
X152391990Y-54891990D01*
X149867841Y-51191999D02*
X152391990Y-53716148D01*
X135808001Y-51191999D02*
X149867841Y-51191999D01*
X134000000Y-53000000D02*
X135808001Y-51191999D01*
X153500000Y-56000000D02*
X153500000Y-59100000D01*
X149330000Y-59100000D02*
X148905000Y-59525000D01*
X153500000Y-59100000D02*
X149330000Y-59100000D01*
D24*
X134000000Y-57500000D02*
X136000000Y-59500000D01*
X134000000Y-53000000D02*
X134000000Y-57500000D01*
X138000000Y-59500000D02*
X138200000Y-59700000D01*
X136000000Y-59500000D02*
X138000000Y-59500000D01*
D26*
X104175999Y-50175999D02*
X107000000Y-53000000D01*
X94824001Y-50175999D02*
X104175999Y-50175999D01*
X92000000Y-53000000D02*
X94824001Y-50175999D01*
D25*
X120064999Y-51064999D02*
X122000000Y-53000000D01*
X108935001Y-51064999D02*
X120064999Y-51064999D01*
X107000000Y-53000000D02*
X108935001Y-51064999D01*
D26*
X87000000Y-53250000D02*
X103000000Y-69250000D01*
X87000000Y-53000000D02*
X87000000Y-53250000D01*
D25*
X103000000Y-69250000D02*
X108804000Y-69250000D01*
X117000000Y-61054000D02*
X117000000Y-53000000D01*
X108804000Y-69250000D02*
X117000000Y-61054000D01*
X147635000Y-54365000D02*
X149000000Y-53000000D01*
X147635000Y-59525000D02*
X147635000Y-54365000D01*
X145095000Y-54095000D02*
X144000000Y-53000000D01*
X145095000Y-59525000D02*
X145095000Y-54095000D01*
D26*
X106500000Y-57500000D02*
X102000000Y-53000000D01*
X106500000Y-61750000D02*
X106500000Y-57500000D01*
D24*
X88500000Y-71250000D02*
X86500000Y-69250000D01*
X88500000Y-72500000D02*
X88500000Y-71250000D01*
X149692000Y-64475000D02*
X149733000Y-64516000D01*
X148905000Y-64475000D02*
X149692000Y-64475000D01*
X149606000Y-68093000D02*
X149500000Y-68199000D01*
X149606000Y-67056000D02*
X149606000Y-68093000D01*
X149500000Y-68199000D02*
X148000000Y-68199000D01*
X146365000Y-58105000D02*
X146431000Y-58039000D01*
X146365000Y-59525000D02*
X146365000Y-58105000D01*
X153416000Y-53916000D02*
X153500000Y-54000000D01*
X153416000Y-52832000D02*
X153416000Y-53916000D01*
X177606300Y-51278317D02*
X177525933Y-51158039D01*
X177341961Y-50974067D01*
X177125634Y-50829522D01*
X176885263Y-50729957D01*
X176630087Y-50679200D01*
X176369913Y-50679200D01*
X176114737Y-50729957D01*
X175874366Y-50829522D01*
X175658039Y-50974067D01*
X175474067Y-51158039D01*
X175329522Y-51374366D01*
X175229957Y-51614737D01*
X175179200Y-51869913D01*
X175179200Y-52130087D01*
X175229957Y-52385263D01*
X175329522Y-52625634D01*
X175474067Y-52841961D01*
X175658039Y-53025933D01*
X175874366Y-53170478D01*
X176114633Y-53270000D01*
X175874366Y-53369522D01*
X175658039Y-53514067D01*
X175474067Y-53698039D01*
X175329522Y-53914366D01*
X175229957Y-54154737D01*
X175179200Y-54409913D01*
X175179200Y-54670087D01*
X175229957Y-54925263D01*
X175329522Y-55165634D01*
X175474067Y-55381961D01*
X175658039Y-55565933D01*
X175874366Y-55710478D01*
X176114633Y-55810000D01*
X175874366Y-55909522D01*
X175658039Y-56054067D01*
X175474067Y-56238039D01*
X175329522Y-56454366D01*
X175229957Y-56694737D01*
X175179200Y-56949913D01*
X175179200Y-57210087D01*
X175229957Y-57465263D01*
X175329522Y-57705634D01*
X175474067Y-57921961D01*
X175658039Y-58105933D01*
X175801670Y-58201904D01*
X175675623Y-58269277D01*
X175587129Y-58527524D01*
X176500000Y-59440395D01*
X176514143Y-59426253D01*
X176693748Y-59605858D01*
X176679605Y-59620000D01*
X176693748Y-59634143D01*
X176514143Y-59813748D01*
X176500000Y-59799605D01*
X175587129Y-60712476D01*
X175675623Y-60970723D01*
X175807332Y-61034313D01*
X175658039Y-61134067D01*
X175474067Y-61318039D01*
X175329522Y-61534366D01*
X175229957Y-61774737D01*
X175179200Y-62029913D01*
X175179200Y-62290087D01*
X175229957Y-62545263D01*
X175329522Y-62785634D01*
X175474067Y-63001961D01*
X175658039Y-63185933D01*
X175874366Y-63330478D01*
X176114633Y-63430000D01*
X175874366Y-63529522D01*
X175658039Y-63674067D01*
X175474067Y-63858039D01*
X175329522Y-64074366D01*
X175229957Y-64314737D01*
X175179200Y-64569913D01*
X175179200Y-64830087D01*
X175229957Y-65085263D01*
X175329522Y-65325634D01*
X175474067Y-65541961D01*
X175658039Y-65725933D01*
X175874366Y-65870478D01*
X176114633Y-65970000D01*
X175874366Y-66069522D01*
X175658039Y-66214067D01*
X175474067Y-66398039D01*
X175329522Y-66614366D01*
X175229957Y-66854737D01*
X175179200Y-67109913D01*
X175179200Y-67370087D01*
X175229957Y-67625263D01*
X175329522Y-67865634D01*
X175474067Y-68081961D01*
X175658039Y-68265933D01*
X175874366Y-68410478D01*
X176114633Y-68510000D01*
X175874366Y-68609522D01*
X175658039Y-68754067D01*
X175474067Y-68938039D01*
X175329522Y-69154366D01*
X175229957Y-69394737D01*
X175179200Y-69649913D01*
X175179200Y-69910087D01*
X175229957Y-70165263D01*
X175329522Y-70405634D01*
X175474067Y-70621961D01*
X175658039Y-70805933D01*
X175874366Y-70950478D01*
X176114633Y-71050000D01*
X175874366Y-71149522D01*
X175658039Y-71294067D01*
X175474067Y-71478039D01*
X175329522Y-71694366D01*
X175229957Y-71934737D01*
X175179200Y-72189913D01*
X175179200Y-72450087D01*
X175229957Y-72705263D01*
X175329522Y-72945634D01*
X175474067Y-73161961D01*
X175658039Y-73345933D01*
X175874366Y-73490478D01*
X176114633Y-73590000D01*
X175874366Y-73689522D01*
X175658039Y-73834067D01*
X175474067Y-74018039D01*
X175329522Y-74234366D01*
X175229957Y-74474737D01*
X175179200Y-74729913D01*
X175179200Y-74990087D01*
X175229957Y-75245263D01*
X175329522Y-75485634D01*
X175474067Y-75701961D01*
X175658039Y-75885933D01*
X175874366Y-76030478D01*
X176114633Y-76130000D01*
X175874366Y-76229522D01*
X175658039Y-76374067D01*
X175474067Y-76558039D01*
X175329522Y-76774366D01*
X175280796Y-76892000D01*
X175019421Y-76892000D01*
X171826855Y-73699435D01*
X171810948Y-73680052D01*
X171733595Y-73616571D01*
X171645343Y-73569399D01*
X171549585Y-73540351D01*
X171474947Y-73533000D01*
X171474944Y-73533000D01*
X171450000Y-73530543D01*
X171425056Y-73533000D01*
X167537943Y-73533000D01*
X167512999Y-73530543D01*
X167488055Y-73533000D01*
X167488053Y-73533000D01*
X167413415Y-73540351D01*
X167317657Y-73569399D01*
X167279196Y-73589957D01*
X167229404Y-73616571D01*
X167174810Y-73661376D01*
X167152052Y-73680052D01*
X167136150Y-73699429D01*
X164485236Y-76350344D01*
X164465853Y-76366251D01*
X164402372Y-76443604D01*
X164355200Y-76531857D01*
X164326152Y-76627615D01*
X164320226Y-76687784D01*
X164316344Y-76727199D01*
X164318801Y-76752143D01*
X164318802Y-80625801D01*
X162390276Y-80625801D01*
X162430478Y-80565634D01*
X162530043Y-80325263D01*
X162580800Y-80070087D01*
X162580800Y-79809913D01*
X162530043Y-79554737D01*
X162430478Y-79314366D01*
X162285933Y-79098039D01*
X162101961Y-78914067D01*
X161885634Y-78769522D01*
X161645367Y-78670000D01*
X161885634Y-78570478D01*
X162101961Y-78425933D01*
X162285933Y-78241961D01*
X162430478Y-78025634D01*
X162530043Y-77785263D01*
X162580800Y-77530087D01*
X162580800Y-77269913D01*
X162530043Y-77014737D01*
X162430478Y-76774366D01*
X162285933Y-76558039D01*
X162101961Y-76374067D01*
X161885634Y-76229522D01*
X161645367Y-76130000D01*
X161885634Y-76030478D01*
X162101961Y-75885933D01*
X162285933Y-75701961D01*
X162430478Y-75485634D01*
X162530043Y-75245263D01*
X162580800Y-74990087D01*
X162580800Y-74729913D01*
X162530043Y-74474737D01*
X162430478Y-74234366D01*
X162285933Y-74018039D01*
X162101961Y-73834067D01*
X161885634Y-73689522D01*
X161645367Y-73590000D01*
X161885634Y-73490478D01*
X162101961Y-73345933D01*
X162285933Y-73161961D01*
X162430478Y-72945634D01*
X162530043Y-72705263D01*
X162580800Y-72450087D01*
X162580800Y-72189913D01*
X162530043Y-71934737D01*
X162430478Y-71694366D01*
X162285933Y-71478039D01*
X162101961Y-71294067D01*
X161885634Y-71149522D01*
X161645367Y-71050000D01*
X161885634Y-70950478D01*
X162101961Y-70805933D01*
X162285933Y-70621961D01*
X162430478Y-70405634D01*
X162530043Y-70165263D01*
X162580800Y-69910087D01*
X162580800Y-69649913D01*
X162530043Y-69394737D01*
X162430478Y-69154366D01*
X162285933Y-68938039D01*
X162101961Y-68754067D01*
X161885634Y-68609522D01*
X161645367Y-68510000D01*
X161885634Y-68410478D01*
X162101961Y-68265933D01*
X162285933Y-68081961D01*
X162430478Y-67865634D01*
X162530043Y-67625263D01*
X162580800Y-67370087D01*
X162580800Y-67109913D01*
X162530043Y-66854737D01*
X162430478Y-66614366D01*
X162285933Y-66398039D01*
X162101961Y-66214067D01*
X161885634Y-66069522D01*
X161645367Y-65970000D01*
X161885634Y-65870478D01*
X162101961Y-65725933D01*
X162285933Y-65541961D01*
X162430478Y-65325634D01*
X162530043Y-65085263D01*
X162580800Y-64830087D01*
X162580800Y-64569913D01*
X162530043Y-64314737D01*
X162430478Y-64074366D01*
X162285933Y-63858039D01*
X162101961Y-63674067D01*
X161885634Y-63529522D01*
X161645367Y-63430000D01*
X161885634Y-63330478D01*
X162101961Y-63185933D01*
X162285933Y-63001961D01*
X162430478Y-62785634D01*
X162530043Y-62545263D01*
X162580800Y-62290087D01*
X162580800Y-62029913D01*
X162530043Y-61774737D01*
X162430478Y-61534366D01*
X162285933Y-61318039D01*
X162101961Y-61134067D01*
X161885634Y-60989522D01*
X161645367Y-60890000D01*
X161885634Y-60790478D01*
X162101961Y-60645933D01*
X162285933Y-60461961D01*
X162430478Y-60245634D01*
X162530043Y-60005263D01*
X162580800Y-59750087D01*
X162580800Y-59684977D01*
X174918916Y-59684977D01*
X174961973Y-59992184D01*
X175064135Y-60285086D01*
X175149277Y-60444377D01*
X175407524Y-60532871D01*
X176320395Y-59620000D01*
X175407524Y-58707129D01*
X175149277Y-58795623D01*
X175014403Y-59074976D01*
X174936619Y-59375275D01*
X174918916Y-59684977D01*
X162580800Y-59684977D01*
X162580800Y-59489913D01*
X162530043Y-59234737D01*
X162430478Y-58994366D01*
X162285933Y-58778039D01*
X162101961Y-58594067D01*
X161885634Y-58449522D01*
X161645367Y-58350000D01*
X161885634Y-58250478D01*
X162101961Y-58105933D01*
X162285933Y-57921961D01*
X162430478Y-57705634D01*
X162530043Y-57465263D01*
X162580800Y-57210087D01*
X162580800Y-56949913D01*
X162530043Y-56694737D01*
X162430478Y-56454366D01*
X162285933Y-56238039D01*
X162101961Y-56054067D01*
X161885634Y-55909522D01*
X161645367Y-55810000D01*
X161885634Y-55710478D01*
X162101961Y-55565933D01*
X162285933Y-55381961D01*
X162430478Y-55165634D01*
X162530043Y-54925263D01*
X162580800Y-54670087D01*
X162580800Y-54409913D01*
X162530043Y-54154737D01*
X162430478Y-53914366D01*
X162285933Y-53698039D01*
X162101961Y-53514067D01*
X161885634Y-53369522D01*
X161645367Y-53270000D01*
X161885634Y-53170478D01*
X162101961Y-53025933D01*
X162285933Y-52841961D01*
X162430478Y-52625634D01*
X162530043Y-52385263D01*
X162580800Y-52130087D01*
X162580800Y-51869913D01*
X162530043Y-51614737D01*
X162430478Y-51374366D01*
X162285933Y-51158039D01*
X162101961Y-50974067D01*
X161885634Y-50829522D01*
X161808863Y-50797722D01*
X166946237Y-50797722D01*
X166946237Y-51202278D01*
X167025162Y-51599060D01*
X167179979Y-51972821D01*
X167404738Y-52309197D01*
X167690803Y-52595262D01*
X168027179Y-52820021D01*
X168400940Y-52974838D01*
X168797722Y-53053763D01*
X169202278Y-53053763D01*
X169599060Y-52974838D01*
X169972821Y-52820021D01*
X170309197Y-52595262D01*
X170595262Y-52309197D01*
X170820021Y-51972821D01*
X170974838Y-51599060D01*
X171053763Y-51202278D01*
X171053763Y-50797722D01*
X170974838Y-50400940D01*
X170820021Y-50027179D01*
X170595262Y-49690803D01*
X170309197Y-49404738D01*
X169972821Y-49179979D01*
X169599060Y-49025162D01*
X169202278Y-48946237D01*
X168797722Y-48946237D01*
X168400940Y-49025162D01*
X168027179Y-49179979D01*
X167690803Y-49404738D01*
X167404738Y-49690803D01*
X167179979Y-50027179D01*
X167025162Y-50400940D01*
X166946237Y-50797722D01*
X161808863Y-50797722D01*
X161645263Y-50729957D01*
X161390087Y-50679200D01*
X161129913Y-50679200D01*
X160874737Y-50729957D01*
X160634366Y-50829522D01*
X160418039Y-50974067D01*
X160234067Y-51158039D01*
X160089522Y-51374366D01*
X159989957Y-51614737D01*
X159939200Y-51869913D01*
X159939200Y-52130087D01*
X159989957Y-52385263D01*
X160089522Y-52625634D01*
X160234067Y-52841961D01*
X160418039Y-53025933D01*
X160634366Y-53170478D01*
X160874633Y-53270000D01*
X160634366Y-53369522D01*
X160418039Y-53514067D01*
X160234067Y-53698039D01*
X160089522Y-53914366D01*
X159989957Y-54154737D01*
X159939200Y-54409913D01*
X159939200Y-54670087D01*
X159989957Y-54925263D01*
X160089522Y-55165634D01*
X160234067Y-55381961D01*
X160418039Y-55565933D01*
X160634366Y-55710478D01*
X160874633Y-55810000D01*
X160634366Y-55909522D01*
X160418039Y-56054067D01*
X160234067Y-56238039D01*
X160089522Y-56454366D01*
X159989957Y-56694737D01*
X159939200Y-56949913D01*
X159939200Y-57210087D01*
X159989957Y-57465263D01*
X160089522Y-57705634D01*
X160234067Y-57921961D01*
X160418039Y-58105933D01*
X160634366Y-58250478D01*
X160874633Y-58350000D01*
X160634366Y-58449522D01*
X160418039Y-58594067D01*
X160234067Y-58778039D01*
X160089522Y-58994366D01*
X159989957Y-59234737D01*
X159939200Y-59489913D01*
X159939200Y-59750087D01*
X159989957Y-60005263D01*
X160089522Y-60245634D01*
X160234067Y-60461961D01*
X160418039Y-60645933D01*
X160634366Y-60790478D01*
X160874633Y-60890000D01*
X160634366Y-60989522D01*
X160418039Y-61134067D01*
X160234067Y-61318039D01*
X160089522Y-61534366D01*
X159989957Y-61774737D01*
X159939200Y-62029913D01*
X159939200Y-62290087D01*
X159989957Y-62545263D01*
X160089522Y-62785634D01*
X160234067Y-63001961D01*
X160418039Y-63185933D01*
X160634366Y-63330478D01*
X160874633Y-63430000D01*
X160634366Y-63529522D01*
X160418039Y-63674067D01*
X160234067Y-63858039D01*
X160089522Y-64074366D01*
X159989957Y-64314737D01*
X159939200Y-64569913D01*
X159939200Y-64830087D01*
X159989957Y-65085263D01*
X160089522Y-65325634D01*
X160234067Y-65541961D01*
X160418039Y-65725933D01*
X160634366Y-65870478D01*
X160874633Y-65970000D01*
X160634366Y-66069522D01*
X160418039Y-66214067D01*
X160234067Y-66398039D01*
X160089522Y-66614366D01*
X160040796Y-66732000D01*
X153687640Y-66732000D01*
X153588483Y-66632843D01*
X154050000Y-66632843D01*
X154173462Y-66620683D01*
X154292179Y-66584671D01*
X154401589Y-66526190D01*
X154497488Y-66447488D01*
X154576190Y-66351589D01*
X154634671Y-66242179D01*
X154670683Y-66123462D01*
X154682843Y-66000000D01*
X154682843Y-64035577D01*
X155916571Y-62801850D01*
X155935948Y-62785948D01*
X155971439Y-62742702D01*
X155999429Y-62708596D01*
X156046600Y-62620345D01*
X156046601Y-62620342D01*
X156075649Y-62524585D01*
X156083000Y-62449947D01*
X156083000Y-62449945D01*
X156085457Y-62425001D01*
X156083000Y-62400057D01*
X156083000Y-57081414D01*
X156154679Y-57059671D01*
X156264089Y-57001190D01*
X156359988Y-56922488D01*
X156438690Y-56826589D01*
X156497171Y-56717179D01*
X156533183Y-56598462D01*
X156545343Y-56475000D01*
X156545343Y-55525000D01*
X156533183Y-55401538D01*
X156497171Y-55282821D01*
X156438690Y-55173411D01*
X156359988Y-55077512D01*
X156264089Y-54998810D01*
X156209549Y-54969658D01*
X156297488Y-54897488D01*
X156376190Y-54801589D01*
X156434671Y-54692179D01*
X156470683Y-54573462D01*
X156482843Y-54450001D01*
X156482843Y-53549999D01*
X156470683Y-53426538D01*
X156434671Y-53307821D01*
X156376190Y-53198411D01*
X156297488Y-53102512D01*
X156201589Y-53023810D01*
X156092179Y-52965329D01*
X155973462Y-52929317D01*
X155850001Y-52917157D01*
X155149999Y-52917157D01*
X155026538Y-52929317D01*
X154907821Y-52965329D01*
X154798411Y-53023810D01*
X154702512Y-53102512D01*
X154623810Y-53198411D01*
X154565329Y-53307821D01*
X154529317Y-53426538D01*
X154517157Y-53549999D01*
X154517157Y-54450001D01*
X154529317Y-54573462D01*
X154565329Y-54692179D01*
X154623810Y-54801589D01*
X154702512Y-54897488D01*
X154798411Y-54976190D01*
X154868091Y-55013435D01*
X154790012Y-55077512D01*
X154711310Y-55173411D01*
X154652829Y-55282821D01*
X154616817Y-55401538D01*
X154604657Y-55525000D01*
X154604657Y-56475000D01*
X154616817Y-56598462D01*
X154652829Y-56717179D01*
X154711310Y-56826589D01*
X154790012Y-56922488D01*
X154885911Y-57001190D01*
X154995321Y-57059671D01*
X155067001Y-57081415D01*
X155067000Y-62214579D01*
X154596037Y-62685542D01*
X154576190Y-62648411D01*
X154497488Y-62552512D01*
X154401589Y-62473810D01*
X154292179Y-62415329D01*
X154173462Y-62379317D01*
X154050000Y-62367157D01*
X152950000Y-62367157D01*
X152826538Y-62379317D01*
X152707821Y-62415329D01*
X152598411Y-62473810D01*
X152572613Y-62494982D01*
X151565284Y-61487654D01*
X151541422Y-61458578D01*
X151425392Y-61363355D01*
X151293015Y-61292598D01*
X151149378Y-61249026D01*
X151037426Y-61238000D01*
X151037423Y-61238000D01*
X151000000Y-61234314D01*
X150962577Y-61238000D01*
X148882843Y-61238000D01*
X148882843Y-60882843D01*
X149055000Y-60882843D01*
X149158953Y-60872605D01*
X149258910Y-60842283D01*
X149351032Y-60793043D01*
X149431777Y-60726777D01*
X149498043Y-60646032D01*
X149547283Y-60553910D01*
X149577605Y-60453953D01*
X149587843Y-60350000D01*
X149587843Y-59919787D01*
X149645630Y-59862000D01*
X152317157Y-59862000D01*
X152317157Y-60600000D01*
X152329317Y-60723462D01*
X152365329Y-60842179D01*
X152423810Y-60951589D01*
X152502512Y-61047488D01*
X152598411Y-61126190D01*
X152707821Y-61184671D01*
X152826538Y-61220683D01*
X152950000Y-61232843D01*
X154050000Y-61232843D01*
X154173462Y-61220683D01*
X154292179Y-61184671D01*
X154401589Y-61126190D01*
X154497488Y-61047488D01*
X154576190Y-60951589D01*
X154634671Y-60842179D01*
X154670683Y-60723462D01*
X154682843Y-60600000D01*
X154682843Y-57600000D01*
X154670683Y-57476538D01*
X154634671Y-57357821D01*
X154576190Y-57248411D01*
X154497488Y-57152512D01*
X154401589Y-57073810D01*
X154292179Y-57015329D01*
X154262000Y-57006174D01*
X154262000Y-56941354D01*
X154284988Y-56922488D01*
X154363690Y-56826589D01*
X154422171Y-56717179D01*
X154458183Y-56598462D01*
X154470343Y-56475000D01*
X154470343Y-55525000D01*
X154458183Y-55401538D01*
X154422171Y-55282821D01*
X154363690Y-55173411D01*
X154284988Y-55077512D01*
X154189089Y-54998810D01*
X154174180Y-54990841D01*
X154201589Y-54976190D01*
X154297488Y-54897488D01*
X154376190Y-54801589D01*
X154434671Y-54692179D01*
X154470683Y-54573462D01*
X154482843Y-54450001D01*
X154482843Y-53549999D01*
X154470683Y-53426538D01*
X154434671Y-53307821D01*
X154376190Y-53198411D01*
X154297488Y-53102512D01*
X154201589Y-53023810D01*
X154092179Y-52965329D01*
X154088912Y-52964338D01*
X154101800Y-52899545D01*
X154101800Y-52764455D01*
X154075445Y-52631960D01*
X154023748Y-52507152D01*
X153948695Y-52394828D01*
X153853172Y-52299305D01*
X153740848Y-52224252D01*
X153616040Y-52172555D01*
X153483545Y-52146200D01*
X153348455Y-52146200D01*
X153215960Y-52172555D01*
X153091152Y-52224252D01*
X152978828Y-52299305D01*
X152883305Y-52394828D01*
X152808252Y-52507152D01*
X152756555Y-52631960D01*
X152730200Y-52764455D01*
X152730200Y-52899545D01*
X152749365Y-52995892D01*
X150433125Y-50679653D01*
X150409263Y-50650577D01*
X150293233Y-50555354D01*
X150160856Y-50484597D01*
X150017219Y-50441025D01*
X149905267Y-50429999D01*
X149905264Y-50429999D01*
X149867841Y-50426313D01*
X149830418Y-50429999D01*
X135845424Y-50429999D01*
X135808001Y-50426313D01*
X135770578Y-50429999D01*
X135770575Y-50429999D01*
X135658623Y-50441025D01*
X135514986Y-50484597D01*
X135486693Y-50499720D01*
X135382608Y-50555354D01*
X135340220Y-50590142D01*
X135266579Y-50650577D01*
X135242717Y-50679653D01*
X134605213Y-51317157D01*
X132700000Y-51317157D01*
X132625311Y-51324513D01*
X132553492Y-51346299D01*
X132487304Y-51381678D01*
X132429289Y-51429289D01*
X132381678Y-51487304D01*
X132346299Y-51553492D01*
X132324513Y-51625311D01*
X132317157Y-51700000D01*
X132317157Y-54300000D01*
X132324513Y-54374689D01*
X132346299Y-54446508D01*
X132381678Y-54512696D01*
X132429289Y-54570711D01*
X132487304Y-54618322D01*
X132553492Y-54653701D01*
X132625311Y-54675487D01*
X132700000Y-54682843D01*
X133492000Y-54682843D01*
X133492001Y-57475046D01*
X133489543Y-57500000D01*
X133493321Y-57538352D01*
X133499352Y-57599585D01*
X133518331Y-57662150D01*
X133528400Y-57695343D01*
X133575571Y-57783595D01*
X133606601Y-57821405D01*
X133639053Y-57860948D01*
X133658430Y-57876850D01*
X134173737Y-58392157D01*
X133587500Y-58392157D01*
X133464038Y-58404317D01*
X133345321Y-58440329D01*
X133235911Y-58498810D01*
X133140012Y-58577512D01*
X133061310Y-58673411D01*
X133002829Y-58782821D01*
X132966817Y-58901538D01*
X132964597Y-58924082D01*
X132915040Y-58903555D01*
X132782545Y-58877200D01*
X132647455Y-58877200D01*
X132514960Y-58903555D01*
X132390152Y-58955252D01*
X132277828Y-59030305D01*
X132182305Y-59125828D01*
X132107252Y-59238152D01*
X132055555Y-59362960D01*
X132029200Y-59495455D01*
X132029200Y-59630545D01*
X132055555Y-59763040D01*
X132107252Y-59887848D01*
X132182305Y-60000172D01*
X132277828Y-60095695D01*
X132390152Y-60170748D01*
X132514960Y-60222445D01*
X132647455Y-60248800D01*
X132782545Y-60248800D01*
X132915040Y-60222445D01*
X132994449Y-60189553D01*
X133002829Y-60217179D01*
X133061310Y-60326589D01*
X133140012Y-60422488D01*
X133235911Y-60501190D01*
X133345321Y-60559671D01*
X133464038Y-60595683D01*
X133587500Y-60607843D01*
X134262500Y-60607843D01*
X134385962Y-60595683D01*
X134504679Y-60559671D01*
X134614089Y-60501190D01*
X134709988Y-60422488D01*
X134788690Y-60326589D01*
X134847171Y-60217179D01*
X134883183Y-60098462D01*
X134895343Y-59975000D01*
X134895343Y-59113764D01*
X135029657Y-59248078D01*
X135029657Y-59975000D01*
X135041817Y-60098462D01*
X135077829Y-60217179D01*
X135136310Y-60326589D01*
X135215012Y-60422488D01*
X135310911Y-60501190D01*
X135420321Y-60559671D01*
X135539038Y-60595683D01*
X135662500Y-60607843D01*
X136337500Y-60607843D01*
X136460962Y-60595683D01*
X136579679Y-60559671D01*
X136689089Y-60501190D01*
X136784988Y-60422488D01*
X136863690Y-60326589D01*
X136922171Y-60217179D01*
X136958183Y-60098462D01*
X136967093Y-60008000D01*
X137067157Y-60008000D01*
X137067157Y-60700000D01*
X137074513Y-60774689D01*
X137096299Y-60846508D01*
X137131678Y-60912696D01*
X137179289Y-60970711D01*
X137237304Y-61018322D01*
X137303492Y-61053701D01*
X137375311Y-61075487D01*
X137450000Y-61082843D01*
X138950000Y-61082843D01*
X139024689Y-61075487D01*
X139096508Y-61053701D01*
X139162696Y-61018322D01*
X139188715Y-60996969D01*
X139219463Y-61054494D01*
X139298815Y-61151185D01*
X139395506Y-61230537D01*
X139505820Y-61289502D01*
X139625518Y-61325812D01*
X139750000Y-61338072D01*
X140214250Y-61335000D01*
X140373000Y-61176250D01*
X140373000Y-59827000D01*
X140353000Y-59827000D01*
X140353000Y-59573000D01*
X140373000Y-59573000D01*
X140373000Y-58223750D01*
X140214250Y-58065000D01*
X139750000Y-58061928D01*
X139625518Y-58074188D01*
X139505820Y-58110498D01*
X139395506Y-58169463D01*
X139298815Y-58248815D01*
X139219463Y-58345506D01*
X139188715Y-58403031D01*
X139162696Y-58381678D01*
X139096508Y-58346299D01*
X139024689Y-58324513D01*
X138950000Y-58317157D01*
X137450000Y-58317157D01*
X137375311Y-58324513D01*
X137303492Y-58346299D01*
X137237304Y-58381678D01*
X137179289Y-58429289D01*
X137131678Y-58487304D01*
X137096299Y-58553492D01*
X137074513Y-58625311D01*
X137067157Y-58700000D01*
X137067157Y-58992000D01*
X136967093Y-58992000D01*
X136958183Y-58901538D01*
X136922171Y-58782821D01*
X136863690Y-58673411D01*
X136784988Y-58577512D01*
X136689089Y-58498810D01*
X136579679Y-58440329D01*
X136460962Y-58404317D01*
X136337500Y-58392157D01*
X135662500Y-58392157D01*
X135615233Y-58396812D01*
X134508000Y-57289580D01*
X134508000Y-54682843D01*
X135300000Y-54682843D01*
X135374689Y-54675487D01*
X135446508Y-54653701D01*
X135512696Y-54618322D01*
X135570711Y-54570711D01*
X135618322Y-54512696D01*
X135653701Y-54446508D01*
X135675487Y-54374689D01*
X135682843Y-54300000D01*
X135682843Y-52394787D01*
X136123631Y-51953999D01*
X137677194Y-51953999D01*
X137510317Y-52203748D01*
X137383600Y-52509670D01*
X137319000Y-52834436D01*
X137319000Y-53165564D01*
X137383600Y-53490330D01*
X137510317Y-53796252D01*
X137694282Y-54071575D01*
X137928425Y-54305718D01*
X138203748Y-54489683D01*
X138509670Y-54616400D01*
X138834436Y-54681000D01*
X139165564Y-54681000D01*
X139490330Y-54616400D01*
X139524582Y-54602212D01*
X142038001Y-57115631D01*
X142038000Y-58318339D01*
X141975311Y-58324513D01*
X141903492Y-58346299D01*
X141837304Y-58381678D01*
X141811285Y-58403031D01*
X141780537Y-58345506D01*
X141701185Y-58248815D01*
X141604494Y-58169463D01*
X141494180Y-58110498D01*
X141374482Y-58074188D01*
X141250000Y-58061928D01*
X140785750Y-58065000D01*
X140627000Y-58223750D01*
X140627000Y-59573000D01*
X140647000Y-59573000D01*
X140647000Y-59827000D01*
X140627000Y-59827000D01*
X140627000Y-61176250D01*
X140785750Y-61335000D01*
X141250000Y-61338072D01*
X141374482Y-61325812D01*
X141494180Y-61289502D01*
X141604494Y-61230537D01*
X141701185Y-61151185D01*
X141780537Y-61054494D01*
X141811285Y-60996969D01*
X141837304Y-61018322D01*
X141903492Y-61053701D01*
X141975311Y-61075487D01*
X142050000Y-61082843D01*
X143105213Y-61082843D01*
X144534720Y-62512351D01*
X144558578Y-62541422D01*
X144674608Y-62636645D01*
X144806985Y-62707402D01*
X144851472Y-62720897D01*
X144582649Y-62989721D01*
X144553579Y-63013578D01*
X144529722Y-63042648D01*
X144529721Y-63042649D01*
X144458355Y-63129608D01*
X144387599Y-63261985D01*
X144344027Y-63405622D01*
X144329314Y-63555000D01*
X144333001Y-63592433D01*
X144333000Y-64512425D01*
X144344026Y-64624377D01*
X144387598Y-64768014D01*
X144412157Y-64813961D01*
X144412157Y-65300000D01*
X144422395Y-65403953D01*
X144452717Y-65503910D01*
X144501957Y-65596032D01*
X144568223Y-65676777D01*
X144587000Y-65692187D01*
X144587001Y-67269046D01*
X144584543Y-67294000D01*
X144594352Y-67393584D01*
X144623400Y-67489343D01*
X144670571Y-67577595D01*
X144709917Y-67625538D01*
X144734053Y-67654948D01*
X144753430Y-67670850D01*
X144773580Y-67691000D01*
X137909420Y-67691000D01*
X137218420Y-67000000D01*
X137961928Y-67000000D01*
X137974188Y-67124482D01*
X138010498Y-67244180D01*
X138069463Y-67354494D01*
X138148815Y-67451185D01*
X138245506Y-67530537D01*
X138355820Y-67589502D01*
X138475518Y-67625812D01*
X138600000Y-67638072D01*
X140214250Y-67635000D01*
X140373000Y-67476250D01*
X140373000Y-66127000D01*
X140627000Y-66127000D01*
X140627000Y-67476250D01*
X140785750Y-67635000D01*
X142400000Y-67638072D01*
X142524482Y-67625812D01*
X142644180Y-67589502D01*
X142754494Y-67530537D01*
X142851185Y-67451185D01*
X142930537Y-67354494D01*
X142989502Y-67244180D01*
X143025812Y-67124482D01*
X143038072Y-67000000D01*
X143035000Y-66285750D01*
X142876250Y-66127000D01*
X140627000Y-66127000D01*
X140373000Y-66127000D01*
X138123750Y-66127000D01*
X137965000Y-66285750D01*
X137961928Y-67000000D01*
X137218420Y-67000000D01*
X135218420Y-65000000D01*
X137961928Y-65000000D01*
X137965000Y-65714250D01*
X138123750Y-65873000D01*
X140373000Y-65873000D01*
X140373000Y-64523750D01*
X140627000Y-64523750D01*
X140627000Y-65873000D01*
X142876250Y-65873000D01*
X143035000Y-65714250D01*
X143038072Y-65000000D01*
X143025812Y-64875518D01*
X142989502Y-64755820D01*
X142930537Y-64645506D01*
X142851185Y-64548815D01*
X142754494Y-64469463D01*
X142644180Y-64410498D01*
X142524482Y-64374188D01*
X142400000Y-64361928D01*
X140785750Y-64365000D01*
X140627000Y-64523750D01*
X140373000Y-64523750D01*
X140214250Y-64365000D01*
X138600000Y-64361928D01*
X138475518Y-64374188D01*
X138355820Y-64410498D01*
X138245506Y-64469463D01*
X138148815Y-64548815D01*
X138069463Y-64645506D01*
X138010498Y-64755820D01*
X137974188Y-64875518D01*
X137961928Y-65000000D01*
X135218420Y-65000000D01*
X134183292Y-63964872D01*
X134213188Y-63866317D01*
X134231000Y-63685471D01*
X134231000Y-63314528D01*
X134213188Y-63133682D01*
X134142798Y-62901637D01*
X134028491Y-62687784D01*
X133874660Y-62500340D01*
X133687215Y-62346509D01*
X133473362Y-62232202D01*
X133241317Y-62161812D01*
X133000000Y-62138044D01*
X132758682Y-62161812D01*
X132526637Y-62232202D01*
X132312784Y-62346509D01*
X132125340Y-62500340D01*
X131971509Y-62687785D01*
X131857202Y-62901638D01*
X131786812Y-63133683D01*
X131769000Y-63314529D01*
X131769000Y-63685472D01*
X131786812Y-63866318D01*
X131857202Y-64098363D01*
X131903614Y-64185194D01*
X131683292Y-63964872D01*
X131713188Y-63866317D01*
X131731000Y-63685471D01*
X131731000Y-63314528D01*
X131713188Y-63133682D01*
X131642798Y-62901637D01*
X131528491Y-62687784D01*
X131374660Y-62500340D01*
X131187215Y-62346509D01*
X130973362Y-62232202D01*
X130741317Y-62161812D01*
X130500000Y-62138044D01*
X130258682Y-62161812D01*
X130026637Y-62232202D01*
X129812784Y-62346509D01*
X129625340Y-62500340D01*
X129487433Y-62668381D01*
X129488072Y-62525000D01*
X129475812Y-62400518D01*
X129439502Y-62280820D01*
X129380537Y-62170506D01*
X129301185Y-62073815D01*
X129204494Y-61994463D01*
X129094180Y-61935498D01*
X128974482Y-61899188D01*
X128850000Y-61886928D01*
X128285750Y-61890000D01*
X128127000Y-62048750D01*
X128127000Y-63373000D01*
X128147000Y-63373000D01*
X128147000Y-63627000D01*
X128127000Y-63627000D01*
X128127000Y-64951250D01*
X128285750Y-65110000D01*
X128850000Y-65113072D01*
X128974482Y-65100812D01*
X129094180Y-65064502D01*
X129204494Y-65005537D01*
X129301185Y-64926185D01*
X129380537Y-64829494D01*
X129439502Y-64719180D01*
X129475812Y-64599482D01*
X129488072Y-64475000D01*
X129487433Y-64331619D01*
X129625341Y-64499660D01*
X129812785Y-64653491D01*
X130026638Y-64767798D01*
X130258683Y-64838188D01*
X130500000Y-64861956D01*
X130741318Y-64838188D01*
X130973363Y-64767798D01*
X131022900Y-64741320D01*
X135284816Y-69003236D01*
X135198815Y-69073815D01*
X135119463Y-69170506D01*
X135060498Y-69280820D01*
X135024188Y-69400518D01*
X135011928Y-69525000D01*
X135015000Y-70214250D01*
X135173750Y-70373000D01*
X136373000Y-70373000D01*
X136373000Y-70353000D01*
X136627000Y-70353000D01*
X136627000Y-70373000D01*
X136647000Y-70373000D01*
X136647000Y-70627000D01*
X136627000Y-70627000D01*
X136627000Y-71951250D01*
X136785750Y-72110000D01*
X137350000Y-72113072D01*
X137474482Y-72100812D01*
X137594180Y-72064502D01*
X137704494Y-72005537D01*
X137801185Y-71926185D01*
X137880537Y-71829494D01*
X137939502Y-71719180D01*
X137975812Y-71599482D01*
X137988072Y-71475000D01*
X137987433Y-71331619D01*
X138125341Y-71499660D01*
X138312785Y-71653491D01*
X138526638Y-71767798D01*
X138758683Y-71838188D01*
X139000000Y-71861956D01*
X139241318Y-71838188D01*
X139473363Y-71767798D01*
X139522900Y-71741320D01*
X145523145Y-77741565D01*
X145539052Y-77760948D01*
X145616405Y-77824429D01*
X145704657Y-77871601D01*
X145800415Y-77900649D01*
X145875053Y-77908000D01*
X145875056Y-77908000D01*
X145900000Y-77910457D01*
X145924944Y-77908000D01*
X147069186Y-77908000D01*
X147043693Y-77933275D01*
X146907610Y-78135054D01*
X146813507Y-78359504D01*
X146765000Y-78598000D01*
X146765000Y-78873000D01*
X147873000Y-78873000D01*
X147873000Y-78853000D01*
X148127000Y-78853000D01*
X148127000Y-78873000D01*
X148147000Y-78873000D01*
X148147000Y-79127000D01*
X148127000Y-79127000D01*
X148127000Y-80343731D01*
X148317609Y-80468462D01*
X148355282Y-80464591D01*
X148580533Y-80372421D01*
X148783474Y-80238078D01*
X148956307Y-80066725D01*
X149092390Y-79864946D01*
X149141007Y-79748986D01*
X149180382Y-79822651D01*
X149302972Y-79972028D01*
X149452349Y-80094618D01*
X149622771Y-80185711D01*
X149807690Y-80241805D01*
X150000000Y-80260746D01*
X150192309Y-80241805D01*
X150377228Y-80185711D01*
X150547651Y-80094618D01*
X150697028Y-79972028D01*
X150819618Y-79822651D01*
X150910711Y-79652229D01*
X150966805Y-79467310D01*
X150981000Y-79323187D01*
X150981000Y-78676814D01*
X150966805Y-78532691D01*
X150910711Y-78347771D01*
X150819618Y-78177349D01*
X150697028Y-78027972D01*
X150550841Y-77908000D01*
X151449160Y-77908000D01*
X151302973Y-78027972D01*
X151180383Y-78177349D01*
X151089289Y-78347771D01*
X151033195Y-78532690D01*
X151019000Y-78676813D01*
X151019000Y-79323186D01*
X151033195Y-79467309D01*
X151089289Y-79652228D01*
X151180382Y-79822651D01*
X151302972Y-79972028D01*
X151452349Y-80094618D01*
X151622771Y-80185711D01*
X151807690Y-80241805D01*
X152000000Y-80260746D01*
X152192309Y-80241805D01*
X152377228Y-80185711D01*
X152547651Y-80094618D01*
X152697028Y-79972028D01*
X152819618Y-79822651D01*
X152910711Y-79652229D01*
X152966805Y-79467310D01*
X152981000Y-79323187D01*
X152981000Y-78676814D01*
X152966805Y-78532691D01*
X152910711Y-78347771D01*
X152819618Y-78177349D01*
X152697028Y-78027972D01*
X152550841Y-77908000D01*
X153449160Y-77908000D01*
X153302973Y-78027972D01*
X153180383Y-78177349D01*
X153089289Y-78347771D01*
X153033195Y-78532690D01*
X153019000Y-78676813D01*
X153019000Y-79323186D01*
X153033195Y-79467309D01*
X153089289Y-79652228D01*
X153180382Y-79822651D01*
X153302972Y-79972028D01*
X153452349Y-80094618D01*
X153622771Y-80185711D01*
X153807690Y-80241805D01*
X154000000Y-80260746D01*
X154192309Y-80241805D01*
X154377228Y-80185711D01*
X154547651Y-80094618D01*
X154697028Y-79972028D01*
X154819618Y-79822651D01*
X154910711Y-79652229D01*
X154966805Y-79467310D01*
X154981000Y-79323187D01*
X154981000Y-78676814D01*
X154966805Y-78532691D01*
X154910711Y-78347771D01*
X154819618Y-78177349D01*
X154697028Y-78027972D01*
X154550841Y-77908000D01*
X155226288Y-77908000D01*
X155202512Y-77927512D01*
X155123810Y-78023411D01*
X155065329Y-78132821D01*
X155029317Y-78251538D01*
X155017157Y-78374999D01*
X155017157Y-79625001D01*
X155029317Y-79748462D01*
X155065329Y-79867179D01*
X155123810Y-79976589D01*
X155202512Y-80072488D01*
X155298411Y-80151190D01*
X155407821Y-80209671D01*
X155526538Y-80245683D01*
X155649999Y-80257843D01*
X156350001Y-80257843D01*
X156473462Y-80245683D01*
X156592179Y-80209671D01*
X156701589Y-80151190D01*
X156797488Y-80072488D01*
X156876190Y-79976589D01*
X156934671Y-79867179D01*
X156970683Y-79748462D01*
X156982843Y-79625001D01*
X156982843Y-78374999D01*
X156970683Y-78251538D01*
X156934671Y-78132821D01*
X156876190Y-78023411D01*
X156797488Y-77927512D01*
X156773712Y-77908000D01*
X160040796Y-77908000D01*
X160089522Y-78025634D01*
X160234067Y-78241961D01*
X160418039Y-78425933D01*
X160634366Y-78570478D01*
X160874633Y-78670000D01*
X160634366Y-78769522D01*
X160418039Y-78914067D01*
X160234067Y-79098039D01*
X160089522Y-79314366D01*
X159989957Y-79554737D01*
X159939200Y-79809913D01*
X159939200Y-80070087D01*
X159989957Y-80325263D01*
X160089522Y-80565634D01*
X160129724Y-80625801D01*
X126894222Y-80625801D01*
X125832843Y-79564423D01*
X125832843Y-79050000D01*
X125825487Y-78975311D01*
X125803701Y-78903492D01*
X125768322Y-78837304D01*
X125720711Y-78779289D01*
X125662696Y-78731678D01*
X125596508Y-78696299D01*
X125524689Y-78674513D01*
X125450000Y-78667157D01*
X124550000Y-78667157D01*
X124475311Y-78674513D01*
X124403492Y-78696299D01*
X124337304Y-78731678D01*
X124279289Y-78779289D01*
X124231678Y-78837304D01*
X124196299Y-78903492D01*
X124174513Y-78975311D01*
X124167157Y-79050000D01*
X124167157Y-79850000D01*
X124174513Y-79924689D01*
X124196299Y-79996508D01*
X124231678Y-80062696D01*
X124279289Y-80120711D01*
X124337304Y-80168322D01*
X124403492Y-80203701D01*
X124475311Y-80225487D01*
X124550000Y-80232843D01*
X125064423Y-80232843D01*
X125857579Y-81026000D01*
X98794421Y-81026000D01*
X95407027Y-77638606D01*
X114869000Y-77638606D01*
X114869000Y-77861394D01*
X114912464Y-78079900D01*
X114997721Y-78285729D01*
X115121495Y-78470970D01*
X115279030Y-78628505D01*
X115464271Y-78752279D01*
X115670100Y-78837536D01*
X115888606Y-78881000D01*
X116111394Y-78881000D01*
X116329900Y-78837536D01*
X116357630Y-78826050D01*
X116373149Y-78841569D01*
X116389051Y-78860946D01*
X116408428Y-78876848D01*
X116408429Y-78876849D01*
X116466404Y-78924428D01*
X116554655Y-78971599D01*
X116650414Y-79000647D01*
X116749999Y-79010456D01*
X116774953Y-79007998D01*
X122184618Y-79008000D01*
X122196299Y-79046508D01*
X122231678Y-79112696D01*
X122279289Y-79170711D01*
X122337304Y-79218322D01*
X122403492Y-79253701D01*
X122475311Y-79275487D01*
X122550000Y-79282843D01*
X123450000Y-79282843D01*
X123524689Y-79275487D01*
X123596508Y-79253701D01*
X123662696Y-79218322D01*
X123720711Y-79170711D01*
X123768322Y-79112696D01*
X123803701Y-79046508D01*
X123825487Y-78974689D01*
X123832843Y-78900000D01*
X123832843Y-78100000D01*
X123825487Y-78025311D01*
X123803701Y-77953492D01*
X123768322Y-77887304D01*
X123720711Y-77829289D01*
X123662696Y-77781678D01*
X123596508Y-77746299D01*
X123524689Y-77724513D01*
X123450000Y-77717157D01*
X122550000Y-77717157D01*
X122475311Y-77724513D01*
X122403492Y-77746299D01*
X122337304Y-77781678D01*
X122279289Y-77829289D01*
X122231678Y-77887304D01*
X122196299Y-77953492D01*
X122184618Y-77992001D01*
X117105021Y-77991999D01*
X117131000Y-77861394D01*
X117131000Y-77638606D01*
X117087536Y-77420100D01*
X117002279Y-77214271D01*
X116959335Y-77150000D01*
X124167157Y-77150000D01*
X124167157Y-77950000D01*
X124174513Y-78024689D01*
X124196299Y-78096508D01*
X124231678Y-78162696D01*
X124279289Y-78220711D01*
X124337304Y-78268322D01*
X124403492Y-78303701D01*
X124475311Y-78325487D01*
X124550000Y-78332843D01*
X125450000Y-78332843D01*
X125524689Y-78325487D01*
X125596508Y-78303701D01*
X125662696Y-78268322D01*
X125720711Y-78220711D01*
X125752348Y-78182161D01*
X125786152Y-78204748D01*
X125910960Y-78256445D01*
X126043455Y-78282800D01*
X126178545Y-78282800D01*
X126311040Y-78256445D01*
X126435848Y-78204748D01*
X126548172Y-78129695D01*
X126577867Y-78100000D01*
X131161928Y-78100000D01*
X131174188Y-78224482D01*
X131210498Y-78344180D01*
X131269463Y-78454494D01*
X131348815Y-78551185D01*
X131445506Y-78630537D01*
X131555820Y-78689502D01*
X131601754Y-78703436D01*
X131523810Y-78798411D01*
X131465329Y-78907821D01*
X131429317Y-79026538D01*
X131417157Y-79149999D01*
X131417157Y-79850001D01*
X131429317Y-79973462D01*
X131465329Y-80092179D01*
X131523810Y-80201589D01*
X131602512Y-80297488D01*
X131698411Y-80376190D01*
X131807821Y-80434671D01*
X131926538Y-80470683D01*
X132049999Y-80482843D01*
X132950001Y-80482843D01*
X133073462Y-80470683D01*
X133192179Y-80434671D01*
X133301589Y-80376190D01*
X133397488Y-80297488D01*
X133476190Y-80201589D01*
X133534671Y-80092179D01*
X133560206Y-80008000D01*
X136975056Y-80008000D01*
X137000000Y-80010457D01*
X137024944Y-80008000D01*
X137024947Y-80008000D01*
X137099585Y-80000649D01*
X137195343Y-79971601D01*
X137283595Y-79924429D01*
X137360948Y-79860948D01*
X137376855Y-79841565D01*
X138091420Y-79127000D01*
X146765000Y-79127000D01*
X146765000Y-79402000D01*
X146813507Y-79640496D01*
X146907610Y-79864946D01*
X147043693Y-80066725D01*
X147216526Y-80238078D01*
X147419467Y-80372421D01*
X147644718Y-80464591D01*
X147682391Y-80468462D01*
X147873000Y-80343731D01*
X147873000Y-79127000D01*
X146765000Y-79127000D01*
X138091420Y-79127000D01*
X138477101Y-78741320D01*
X138526638Y-78767798D01*
X138758683Y-78838188D01*
X139000000Y-78861956D01*
X139241318Y-78838188D01*
X139473363Y-78767798D01*
X139687216Y-78653491D01*
X139874660Y-78499660D01*
X140028491Y-78312215D01*
X140142798Y-78098362D01*
X140213188Y-77866317D01*
X140231000Y-77685471D01*
X140231000Y-77314529D01*
X140269000Y-77314529D01*
X140269000Y-77685472D01*
X140286812Y-77866318D01*
X140357202Y-78098363D01*
X140471509Y-78312216D01*
X140625341Y-78499660D01*
X140812785Y-78653491D01*
X141026638Y-78767798D01*
X141258683Y-78838188D01*
X141500000Y-78861956D01*
X141741318Y-78838188D01*
X141973363Y-78767798D01*
X142187216Y-78653491D01*
X142374660Y-78499660D01*
X142528491Y-78312215D01*
X142642798Y-78098362D01*
X142713188Y-77866317D01*
X142731000Y-77685471D01*
X142731000Y-77314528D01*
X142713188Y-77133682D01*
X142642798Y-76901637D01*
X142528491Y-76687784D01*
X142374660Y-76500340D01*
X142187215Y-76346509D01*
X141973362Y-76232202D01*
X141741317Y-76161812D01*
X141500000Y-76138044D01*
X141258682Y-76161812D01*
X141026637Y-76232202D01*
X140812784Y-76346509D01*
X140625340Y-76500340D01*
X140471509Y-76687785D01*
X140357202Y-76901638D01*
X140286812Y-77133683D01*
X140269000Y-77314529D01*
X140231000Y-77314529D01*
X140231000Y-77314528D01*
X140213188Y-77133682D01*
X140142798Y-76901637D01*
X140028491Y-76687784D01*
X139874660Y-76500340D01*
X139687215Y-76346509D01*
X139473362Y-76232202D01*
X139241317Y-76161812D01*
X139000000Y-76138044D01*
X138758682Y-76161812D01*
X138526637Y-76232202D01*
X138312784Y-76346509D01*
X138125340Y-76500340D01*
X137987433Y-76668381D01*
X137988072Y-76525000D01*
X137975812Y-76400518D01*
X137939502Y-76280820D01*
X137880537Y-76170506D01*
X137801185Y-76073815D01*
X137704494Y-75994463D01*
X137594180Y-75935498D01*
X137474482Y-75899188D01*
X137350000Y-75886928D01*
X136785750Y-75890000D01*
X136627000Y-76048750D01*
X136627000Y-77373000D01*
X136647000Y-77373000D01*
X136647000Y-77627000D01*
X136627000Y-77627000D01*
X136627000Y-77647000D01*
X136373000Y-77647000D01*
X136373000Y-77627000D01*
X135173750Y-77627000D01*
X135015000Y-77785750D01*
X135011928Y-78475000D01*
X135024188Y-78599482D01*
X135060498Y-78719180D01*
X135119463Y-78829494D01*
X135198815Y-78926185D01*
X135279011Y-78992000D01*
X133560206Y-78992000D01*
X133534671Y-78907821D01*
X133476190Y-78798411D01*
X133398246Y-78703436D01*
X133444180Y-78689502D01*
X133554494Y-78630537D01*
X133651185Y-78551185D01*
X133730537Y-78454494D01*
X133789502Y-78344180D01*
X133825812Y-78224482D01*
X133838072Y-78100000D01*
X133835000Y-77785750D01*
X133676250Y-77627000D01*
X132627000Y-77627000D01*
X132627000Y-77647000D01*
X132373000Y-77647000D01*
X132373000Y-77627000D01*
X131323750Y-77627000D01*
X131165000Y-77785750D01*
X131161928Y-78100000D01*
X126577867Y-78100000D01*
X126643695Y-78034172D01*
X126718748Y-77921848D01*
X126770445Y-77797040D01*
X126796800Y-77664545D01*
X126796800Y-77529455D01*
X126770445Y-77396960D01*
X126718748Y-77272152D01*
X126643695Y-77159828D01*
X126548172Y-77064305D01*
X126435848Y-76989252D01*
X126311040Y-76937555D01*
X126178545Y-76911200D01*
X126043455Y-76911200D01*
X125910960Y-76937555D01*
X125794288Y-76985882D01*
X125768322Y-76937304D01*
X125737708Y-76900000D01*
X131161928Y-76900000D01*
X131165000Y-77214250D01*
X131323750Y-77373000D01*
X132373000Y-77373000D01*
X132373000Y-76423750D01*
X132627000Y-76423750D01*
X132627000Y-77373000D01*
X133676250Y-77373000D01*
X133835000Y-77214250D01*
X133838072Y-76900000D01*
X133825812Y-76775518D01*
X133789502Y-76655820D01*
X133730537Y-76545506D01*
X133713709Y-76525000D01*
X135011928Y-76525000D01*
X135015000Y-77214250D01*
X135173750Y-77373000D01*
X136373000Y-77373000D01*
X136373000Y-76048750D01*
X136214250Y-75890000D01*
X135650000Y-75886928D01*
X135525518Y-75899188D01*
X135405820Y-75935498D01*
X135295506Y-75994463D01*
X135198815Y-76073815D01*
X135119463Y-76170506D01*
X135060498Y-76280820D01*
X135024188Y-76400518D01*
X135011928Y-76525000D01*
X133713709Y-76525000D01*
X133651185Y-76448815D01*
X133554494Y-76369463D01*
X133444180Y-76310498D01*
X133324482Y-76274188D01*
X133200000Y-76261928D01*
X132785750Y-76265000D01*
X132627000Y-76423750D01*
X132373000Y-76423750D01*
X132214250Y-76265000D01*
X131800000Y-76261928D01*
X131675518Y-76274188D01*
X131555820Y-76310498D01*
X131445506Y-76369463D01*
X131348815Y-76448815D01*
X131269463Y-76545506D01*
X131210498Y-76655820D01*
X131174188Y-76775518D01*
X131161928Y-76900000D01*
X125737708Y-76900000D01*
X125720711Y-76879289D01*
X125662696Y-76831678D01*
X125596508Y-76796299D01*
X125524689Y-76774513D01*
X125450000Y-76767157D01*
X124550000Y-76767157D01*
X124475311Y-76774513D01*
X124403492Y-76796299D01*
X124337304Y-76831678D01*
X124279289Y-76879289D01*
X124231678Y-76937304D01*
X124196299Y-77003492D01*
X124174513Y-77075311D01*
X124167157Y-77150000D01*
X116959335Y-77150000D01*
X116878505Y-77029030D01*
X116720970Y-76871495D01*
X116535729Y-76747721D01*
X116329900Y-76662464D01*
X116111394Y-76619000D01*
X115888606Y-76619000D01*
X115670100Y-76662464D01*
X115464271Y-76747721D01*
X115279030Y-76871495D01*
X115121495Y-77029030D01*
X114997721Y-77214271D01*
X114912464Y-77420100D01*
X114869000Y-77638606D01*
X95407027Y-77638606D01*
X91332843Y-73564423D01*
X91332843Y-73050000D01*
X91325487Y-72975311D01*
X91303701Y-72903492D01*
X91268322Y-72837304D01*
X91220711Y-72779289D01*
X91162696Y-72731678D01*
X91096508Y-72696299D01*
X91024689Y-72674513D01*
X90950000Y-72667157D01*
X90050000Y-72667157D01*
X89975311Y-72674513D01*
X89903492Y-72696299D01*
X89837304Y-72731678D01*
X89779289Y-72779289D01*
X89731678Y-72837304D01*
X89696299Y-72903492D01*
X89674513Y-72975311D01*
X89667157Y-73050000D01*
X89667157Y-73850000D01*
X89674513Y-73924689D01*
X89696299Y-73996508D01*
X89731678Y-74062696D01*
X89779289Y-74120711D01*
X89837304Y-74168322D01*
X89903492Y-74203701D01*
X89975311Y-74225487D01*
X90050000Y-74232843D01*
X90564423Y-74232843D01*
X97937879Y-81606300D01*
X78393700Y-81606300D01*
X78393700Y-78797722D01*
X78946237Y-78797722D01*
X78946237Y-79202278D01*
X79025162Y-79599060D01*
X79179979Y-79972821D01*
X79404738Y-80309197D01*
X79690803Y-80595262D01*
X80027179Y-80820021D01*
X80400940Y-80974838D01*
X80797722Y-81053763D01*
X81202278Y-81053763D01*
X81599060Y-80974838D01*
X81972821Y-80820021D01*
X82309197Y-80595262D01*
X82595262Y-80309197D01*
X82820021Y-79972821D01*
X82974838Y-79599060D01*
X83053763Y-79202278D01*
X83053763Y-78797722D01*
X82974838Y-78400940D01*
X82820021Y-78027179D01*
X82595262Y-77690803D01*
X82309197Y-77404738D01*
X81972821Y-77179979D01*
X81599060Y-77025162D01*
X81202278Y-76946237D01*
X80797722Y-76946237D01*
X80400940Y-77025162D01*
X80027179Y-77179979D01*
X79690803Y-77404738D01*
X79404738Y-77690803D01*
X79179979Y-78027179D01*
X79025162Y-78400940D01*
X78946237Y-78797722D01*
X78393700Y-78797722D01*
X78393700Y-69133682D01*
X85319000Y-69133682D01*
X85319000Y-69366318D01*
X85364386Y-69594485D01*
X85453412Y-69809413D01*
X85582658Y-70002843D01*
X85747157Y-70167342D01*
X85940587Y-70296588D01*
X86155515Y-70385614D01*
X86383682Y-70431000D01*
X86616318Y-70431000D01*
X86844485Y-70385614D01*
X86895898Y-70364318D01*
X87992001Y-71460422D01*
X87992001Y-71722869D01*
X87975311Y-71724513D01*
X87903492Y-71746299D01*
X87837304Y-71781678D01*
X87779289Y-71829289D01*
X87731678Y-71887304D01*
X87696299Y-71953492D01*
X87674513Y-72025311D01*
X87667157Y-72100000D01*
X87667157Y-72900000D01*
X87674513Y-72974689D01*
X87696299Y-73046508D01*
X87731678Y-73112696D01*
X87779289Y-73170711D01*
X87837304Y-73218322D01*
X87903492Y-73253701D01*
X87975311Y-73275487D01*
X88050000Y-73282843D01*
X88950000Y-73282843D01*
X89024689Y-73275487D01*
X89096508Y-73253701D01*
X89162696Y-73218322D01*
X89220711Y-73170711D01*
X89268322Y-73112696D01*
X89303701Y-73046508D01*
X89325487Y-72974689D01*
X89332843Y-72900000D01*
X89332843Y-72100000D01*
X89325487Y-72025311D01*
X89303701Y-71953492D01*
X89268322Y-71887304D01*
X89220711Y-71829289D01*
X89162696Y-71781678D01*
X89096508Y-71746299D01*
X89024689Y-71724513D01*
X89008000Y-71722869D01*
X89008000Y-71274943D01*
X89010457Y-71249999D01*
X89007247Y-71217406D01*
X89000649Y-71150415D01*
X89000524Y-71150000D01*
X89667157Y-71150000D01*
X89667157Y-71950000D01*
X89674513Y-72024689D01*
X89696299Y-72096508D01*
X89731678Y-72162696D01*
X89779289Y-72220711D01*
X89837304Y-72268322D01*
X89903492Y-72303701D01*
X89975311Y-72325487D01*
X90050000Y-72332843D01*
X90950000Y-72332843D01*
X91024689Y-72325487D01*
X91096508Y-72303701D01*
X91162696Y-72268322D01*
X91220711Y-72220711D01*
X91231968Y-72206993D01*
X115222612Y-72206993D01*
X115288137Y-72445860D01*
X115535116Y-72561760D01*
X115799960Y-72627250D01*
X116072492Y-72639812D01*
X116342238Y-72598965D01*
X116598832Y-72506277D01*
X116711863Y-72445860D01*
X116777388Y-72206993D01*
X116000000Y-71429605D01*
X115222612Y-72206993D01*
X91231968Y-72206993D01*
X91268322Y-72162696D01*
X91303701Y-72096508D01*
X91311644Y-72070322D01*
X91369152Y-72108748D01*
X91493960Y-72160445D01*
X91626455Y-72186800D01*
X91761545Y-72186800D01*
X91894040Y-72160445D01*
X92018848Y-72108748D01*
X92131172Y-72033695D01*
X92226695Y-71938172D01*
X92301748Y-71825848D01*
X92353445Y-71701040D01*
X92379800Y-71568545D01*
X92379800Y-71433455D01*
X92357728Y-71322492D01*
X114610188Y-71322492D01*
X114651035Y-71592238D01*
X114743723Y-71848832D01*
X114804140Y-71961863D01*
X115043007Y-72027388D01*
X115820395Y-71250000D01*
X116179605Y-71250000D01*
X116956993Y-72027388D01*
X117195860Y-71961863D01*
X117311760Y-71714884D01*
X117371077Y-71475000D01*
X135011928Y-71475000D01*
X135024188Y-71599482D01*
X135060498Y-71719180D01*
X135119463Y-71829494D01*
X135198815Y-71926185D01*
X135295506Y-72005537D01*
X135405820Y-72064502D01*
X135525518Y-72100812D01*
X135650000Y-72113072D01*
X136214250Y-72110000D01*
X136373000Y-71951250D01*
X136373000Y-70627000D01*
X135173750Y-70627000D01*
X135015000Y-70785750D01*
X135011928Y-71475000D01*
X117371077Y-71475000D01*
X117377250Y-71450040D01*
X117389812Y-71177508D01*
X117348965Y-70907762D01*
X117256277Y-70651168D01*
X117195860Y-70538137D01*
X116956993Y-70472612D01*
X116179605Y-71250000D01*
X115820395Y-71250000D01*
X115043007Y-70472612D01*
X114804140Y-70538137D01*
X114688240Y-70785116D01*
X114622750Y-71049960D01*
X114610188Y-71322492D01*
X92357728Y-71322492D01*
X92353445Y-71300960D01*
X92301748Y-71176152D01*
X92226695Y-71063828D01*
X92131172Y-70968305D01*
X92018848Y-70893252D01*
X91894040Y-70841555D01*
X91761545Y-70815200D01*
X91626455Y-70815200D01*
X91493960Y-70841555D01*
X91369152Y-70893252D01*
X91277507Y-70954488D01*
X91268322Y-70937304D01*
X91220711Y-70879289D01*
X91162696Y-70831678D01*
X91096508Y-70796299D01*
X91024689Y-70774513D01*
X90950000Y-70767157D01*
X90050000Y-70767157D01*
X89975311Y-70774513D01*
X89903492Y-70796299D01*
X89837304Y-70831678D01*
X89779289Y-70879289D01*
X89731678Y-70937304D01*
X89696299Y-71003492D01*
X89674513Y-71075311D01*
X89667157Y-71150000D01*
X89000524Y-71150000D01*
X88971601Y-71054657D01*
X88942574Y-71000352D01*
X88924429Y-70966404D01*
X88876850Y-70908429D01*
X88860948Y-70889052D01*
X88841571Y-70873150D01*
X87614318Y-69645898D01*
X87635614Y-69594485D01*
X87681000Y-69366318D01*
X87681000Y-69133682D01*
X87635614Y-68905515D01*
X87546588Y-68690587D01*
X87417342Y-68497157D01*
X87252843Y-68332658D01*
X87059413Y-68203412D01*
X86844485Y-68114386D01*
X86616318Y-68069000D01*
X86383682Y-68069000D01*
X86155515Y-68114386D01*
X85940587Y-68203412D01*
X85747157Y-68332658D01*
X85582658Y-68497157D01*
X85453412Y-68690587D01*
X85364386Y-68905515D01*
X85319000Y-69133682D01*
X78393700Y-69133682D01*
X78393700Y-62742702D01*
X85686903Y-62742702D01*
X85758486Y-62986671D01*
X86013996Y-63107571D01*
X86288184Y-63176300D01*
X86570512Y-63190217D01*
X86850130Y-63148787D01*
X87116292Y-63053603D01*
X87241514Y-62986671D01*
X87313097Y-62742702D01*
X86500000Y-61929605D01*
X85686903Y-62742702D01*
X78393700Y-62742702D01*
X78393700Y-61820512D01*
X85059783Y-61820512D01*
X85101213Y-62100130D01*
X85196397Y-62366292D01*
X85263329Y-62491514D01*
X85507298Y-62563097D01*
X86320395Y-61750000D01*
X86679605Y-61750000D01*
X87492702Y-62563097D01*
X87736671Y-62491514D01*
X87857571Y-62236004D01*
X87926300Y-61961816D01*
X87940217Y-61679488D01*
X87898787Y-61399870D01*
X87803603Y-61133708D01*
X87736671Y-61008486D01*
X87492702Y-60936903D01*
X86679605Y-61750000D01*
X86320395Y-61750000D01*
X85507298Y-60936903D01*
X85263329Y-61008486D01*
X85142429Y-61263996D01*
X85073700Y-61538184D01*
X85059783Y-61820512D01*
X78393700Y-61820512D01*
X78393700Y-60757298D01*
X85686903Y-60757298D01*
X86500000Y-61570395D01*
X87313097Y-60757298D01*
X87241514Y-60513329D01*
X86986004Y-60392429D01*
X86711816Y-60323700D01*
X86429488Y-60309783D01*
X86149870Y-60351213D01*
X85883708Y-60446397D01*
X85758486Y-60513329D01*
X85686903Y-60757298D01*
X78393700Y-60757298D01*
X78393700Y-50797722D01*
X78946237Y-50797722D01*
X78946237Y-51202278D01*
X79025162Y-51599060D01*
X79179979Y-51972821D01*
X79404738Y-52309197D01*
X79690803Y-52595262D01*
X80027179Y-52820021D01*
X80400940Y-52974838D01*
X80797722Y-53053763D01*
X81202278Y-53053763D01*
X81599060Y-52974838D01*
X81972821Y-52820021D01*
X82309197Y-52595262D01*
X82595262Y-52309197D01*
X82820021Y-51972821D01*
X82933027Y-51700000D01*
X85317157Y-51700000D01*
X85317157Y-54300000D01*
X85324513Y-54374689D01*
X85346299Y-54446508D01*
X85381678Y-54512696D01*
X85429289Y-54570711D01*
X85487304Y-54618322D01*
X85553492Y-54653701D01*
X85625311Y-54675487D01*
X85700000Y-54682843D01*
X86097977Y-54682843D01*
X101889915Y-70474782D01*
X102078316Y-70629398D01*
X102365132Y-70782704D01*
X102676347Y-70877110D01*
X103000000Y-70908988D01*
X103323652Y-70877110D01*
X103634867Y-70782704D01*
X103921683Y-70629398D01*
X104173081Y-70423081D01*
X104279829Y-70293007D01*
X115222612Y-70293007D01*
X116000000Y-71070395D01*
X116777388Y-70293007D01*
X116711863Y-70054140D01*
X116464884Y-69938240D01*
X116200040Y-69872750D01*
X115927508Y-69860188D01*
X115657762Y-69901035D01*
X115401168Y-69993723D01*
X115288137Y-70054140D01*
X115222612Y-70293007D01*
X104279829Y-70293007D01*
X104379398Y-70171683D01*
X104464750Y-70012000D01*
X108766577Y-70012000D01*
X108804000Y-70015686D01*
X108841423Y-70012000D01*
X108841426Y-70012000D01*
X108953378Y-70000974D01*
X109097015Y-69957402D01*
X109229392Y-69886645D01*
X109345422Y-69791422D01*
X109369284Y-69762346D01*
X114656630Y-64475000D01*
X126511928Y-64475000D01*
X126524188Y-64599482D01*
X126560498Y-64719180D01*
X126619463Y-64829494D01*
X126698815Y-64926185D01*
X126795506Y-65005537D01*
X126905820Y-65064502D01*
X127025518Y-65100812D01*
X127150000Y-65113072D01*
X127714250Y-65110000D01*
X127873000Y-64951250D01*
X127873000Y-63627000D01*
X126673750Y-63627000D01*
X126515000Y-63785750D01*
X126511928Y-64475000D01*
X114656630Y-64475000D01*
X116606630Y-62525000D01*
X126511928Y-62525000D01*
X126515000Y-63214250D01*
X126673750Y-63373000D01*
X127873000Y-63373000D01*
X127873000Y-62048750D01*
X127714250Y-61890000D01*
X127150000Y-61886928D01*
X127025518Y-61899188D01*
X126905820Y-61935498D01*
X126795506Y-61994463D01*
X126698815Y-62073815D01*
X126619463Y-62170506D01*
X126560498Y-62280820D01*
X126524188Y-62400518D01*
X126511928Y-62525000D01*
X116606630Y-62525000D01*
X117512353Y-61619278D01*
X117541422Y-61595422D01*
X117636645Y-61479392D01*
X117707402Y-61347015D01*
X117750974Y-61203378D01*
X117762000Y-61091426D01*
X117762000Y-61091424D01*
X117765686Y-61054001D01*
X117762000Y-61016578D01*
X117762000Y-54682843D01*
X118300000Y-54682843D01*
X118374689Y-54675487D01*
X118446508Y-54653701D01*
X118512696Y-54618322D01*
X118570711Y-54570711D01*
X118618322Y-54512696D01*
X118653701Y-54446508D01*
X118675487Y-54374689D01*
X118682843Y-54300000D01*
X118682843Y-51826999D01*
X119749369Y-51826999D01*
X120397788Y-52475418D01*
X120383600Y-52509670D01*
X120319000Y-52834436D01*
X120319000Y-53165564D01*
X120383600Y-53490330D01*
X120510317Y-53796252D01*
X120694282Y-54071575D01*
X120928425Y-54305718D01*
X121203748Y-54489683D01*
X121509670Y-54616400D01*
X121834436Y-54681000D01*
X122165564Y-54681000D01*
X122490330Y-54616400D01*
X122796252Y-54489683D01*
X123071575Y-54305718D01*
X123305718Y-54071575D01*
X123489683Y-53796252D01*
X123616400Y-53490330D01*
X123681000Y-53165564D01*
X123681000Y-52834436D01*
X125319000Y-52834436D01*
X125319000Y-53165564D01*
X125383600Y-53490330D01*
X125510317Y-53796252D01*
X125694282Y-54071575D01*
X125928425Y-54305718D01*
X126203748Y-54489683D01*
X126509670Y-54616400D01*
X126834436Y-54681000D01*
X127165564Y-54681000D01*
X127490330Y-54616400D01*
X127796252Y-54489683D01*
X128071575Y-54305718D01*
X128305718Y-54071575D01*
X128489683Y-53796252D01*
X128616400Y-53490330D01*
X128681000Y-53165564D01*
X128681000Y-52834436D01*
X128616400Y-52509670D01*
X128489683Y-52203748D01*
X128305718Y-51928425D01*
X128071575Y-51694282D01*
X127796252Y-51510317D01*
X127490330Y-51383600D01*
X127165564Y-51319000D01*
X126834436Y-51319000D01*
X126509670Y-51383600D01*
X126203748Y-51510317D01*
X125928425Y-51694282D01*
X125694282Y-51928425D01*
X125510317Y-52203748D01*
X125383600Y-52509670D01*
X125319000Y-52834436D01*
X123681000Y-52834436D01*
X123616400Y-52509670D01*
X123489683Y-52203748D01*
X123305718Y-51928425D01*
X123071575Y-51694282D01*
X122796252Y-51510317D01*
X122490330Y-51383600D01*
X122165564Y-51319000D01*
X121834436Y-51319000D01*
X121509670Y-51383600D01*
X121475418Y-51397788D01*
X120630283Y-50552653D01*
X120606421Y-50523577D01*
X120490391Y-50428354D01*
X120358014Y-50357597D01*
X120214377Y-50314025D01*
X120102425Y-50302999D01*
X120102422Y-50302999D01*
X120064999Y-50299313D01*
X120027576Y-50302999D01*
X108972424Y-50302999D01*
X108935001Y-50299313D01*
X108897578Y-50302999D01*
X108897575Y-50302999D01*
X108785623Y-50314025D01*
X108641986Y-50357597D01*
X108580365Y-50390534D01*
X108509608Y-50428354D01*
X108467220Y-50463142D01*
X108393579Y-50523577D01*
X108369717Y-50552653D01*
X107628618Y-51293752D01*
X105400786Y-49065920D01*
X105349081Y-49002917D01*
X105097683Y-48796601D01*
X104810866Y-48643294D01*
X104499652Y-48548888D01*
X104257103Y-48524999D01*
X104257100Y-48524999D01*
X104175999Y-48517011D01*
X104094898Y-48524999D01*
X94905105Y-48524999D01*
X94824001Y-48517011D01*
X94742897Y-48524999D01*
X94500348Y-48548888D01*
X94189134Y-48643294D01*
X93902317Y-48796601D01*
X93650919Y-49002917D01*
X93599214Y-49065920D01*
X91056286Y-51608848D01*
X90928425Y-51694282D01*
X90694282Y-51928425D01*
X90510317Y-52203748D01*
X90383600Y-52509670D01*
X90319000Y-52834436D01*
X90319000Y-53165564D01*
X90383600Y-53490330D01*
X90510317Y-53796252D01*
X90694282Y-54071575D01*
X90928425Y-54305718D01*
X91203748Y-54489683D01*
X91509670Y-54616400D01*
X91834436Y-54681000D01*
X92165564Y-54681000D01*
X92490330Y-54616400D01*
X92796252Y-54489683D01*
X93071575Y-54305718D01*
X93305718Y-54071575D01*
X93391152Y-53943714D01*
X95507867Y-51826999D01*
X95795708Y-51826999D01*
X95694282Y-51928425D01*
X95510317Y-52203748D01*
X95383600Y-52509670D01*
X95319000Y-52834436D01*
X95319000Y-53165564D01*
X95349000Y-53316385D01*
X95349001Y-57040889D01*
X95341012Y-57122000D01*
X95369896Y-57415259D01*
X95372890Y-57445653D01*
X95419585Y-57599584D01*
X95467296Y-57756867D01*
X95620602Y-58043683D01*
X95775218Y-58232084D01*
X95826919Y-58295082D01*
X95889916Y-58346782D01*
X103931213Y-66388079D01*
X103982918Y-66451082D01*
X104234316Y-66657398D01*
X104521133Y-66810705D01*
X104832347Y-66905111D01*
X105074896Y-66929000D01*
X105074899Y-66929000D01*
X105156000Y-66936988D01*
X105237101Y-66929000D01*
X108249899Y-66929000D01*
X108331000Y-66936988D01*
X108412101Y-66929000D01*
X108412104Y-66929000D01*
X108654653Y-66905111D01*
X108965867Y-66810705D01*
X109252684Y-66657398D01*
X109504082Y-66451082D01*
X109555787Y-66388079D01*
X113110080Y-62833786D01*
X113173082Y-62782082D01*
X113379398Y-62530684D01*
X113389197Y-62512351D01*
X113532705Y-62243868D01*
X113579133Y-62090815D01*
X113627111Y-61932653D01*
X113651000Y-61690104D01*
X113651000Y-61690101D01*
X113658988Y-61609000D01*
X113651000Y-61527899D01*
X113651000Y-53316384D01*
X113681000Y-53165564D01*
X113681000Y-52834436D01*
X113616400Y-52509670D01*
X113489683Y-52203748D01*
X113305718Y-51928425D01*
X113204292Y-51826999D01*
X115317157Y-51826999D01*
X115317157Y-54300000D01*
X115324513Y-54374689D01*
X115346299Y-54446508D01*
X115381678Y-54512696D01*
X115429289Y-54570711D01*
X115487304Y-54618322D01*
X115553492Y-54653701D01*
X115625311Y-54675487D01*
X115700000Y-54682843D01*
X116238001Y-54682843D01*
X116238000Y-60738369D01*
X108488370Y-68488000D01*
X104464751Y-68488000D01*
X104379398Y-68328316D01*
X104224782Y-68139915D01*
X88682843Y-52597977D01*
X88682843Y-51700000D01*
X88675487Y-51625311D01*
X88653701Y-51553492D01*
X88618322Y-51487304D01*
X88570711Y-51429289D01*
X88512696Y-51381678D01*
X88446508Y-51346299D01*
X88374689Y-51324513D01*
X88300000Y-51317157D01*
X85700000Y-51317157D01*
X85625311Y-51324513D01*
X85553492Y-51346299D01*
X85487304Y-51381678D01*
X85429289Y-51429289D01*
X85381678Y-51487304D01*
X85346299Y-51553492D01*
X85324513Y-51625311D01*
X85317157Y-51700000D01*
X82933027Y-51700000D01*
X82974838Y-51599060D01*
X83053763Y-51202278D01*
X83053763Y-50797722D01*
X82974838Y-50400940D01*
X82820021Y-50027179D01*
X82595262Y-49690803D01*
X82309197Y-49404738D01*
X81972821Y-49179979D01*
X81599060Y-49025162D01*
X81202278Y-48946237D01*
X80797722Y-48946237D01*
X80400940Y-49025162D01*
X80027179Y-49179979D01*
X79690803Y-49404738D01*
X79404738Y-49690803D01*
X79179979Y-50027179D01*
X79025162Y-50400940D01*
X78946237Y-50797722D01*
X78393700Y-50797722D01*
X78393700Y-48393700D01*
X177606300Y-48393700D01*
X177606300Y-51278317D01*
G04 #@! TA.AperFunction,Conductor*
D27*
G36*
X177606300Y-51278317D02*
G01*
X177525933Y-51158039D01*
X177341961Y-50974067D01*
X177125634Y-50829522D01*
X176885263Y-50729957D01*
X176630087Y-50679200D01*
X176369913Y-50679200D01*
X176114737Y-50729957D01*
X175874366Y-50829522D01*
X175658039Y-50974067D01*
X175474067Y-51158039D01*
X175329522Y-51374366D01*
X175229957Y-51614737D01*
X175179200Y-51869913D01*
X175179200Y-52130087D01*
X175229957Y-52385263D01*
X175329522Y-52625634D01*
X175474067Y-52841961D01*
X175658039Y-53025933D01*
X175874366Y-53170478D01*
X176114633Y-53270000D01*
X175874366Y-53369522D01*
X175658039Y-53514067D01*
X175474067Y-53698039D01*
X175329522Y-53914366D01*
X175229957Y-54154737D01*
X175179200Y-54409913D01*
X175179200Y-54670087D01*
X175229957Y-54925263D01*
X175329522Y-55165634D01*
X175474067Y-55381961D01*
X175658039Y-55565933D01*
X175874366Y-55710478D01*
X176114633Y-55810000D01*
X175874366Y-55909522D01*
X175658039Y-56054067D01*
X175474067Y-56238039D01*
X175329522Y-56454366D01*
X175229957Y-56694737D01*
X175179200Y-56949913D01*
X175179200Y-57210087D01*
X175229957Y-57465263D01*
X175329522Y-57705634D01*
X175474067Y-57921961D01*
X175658039Y-58105933D01*
X175801670Y-58201904D01*
X175675623Y-58269277D01*
X175587129Y-58527524D01*
X176500000Y-59440395D01*
X176514143Y-59426253D01*
X176693748Y-59605858D01*
X176679605Y-59620000D01*
X176693748Y-59634143D01*
X176514143Y-59813748D01*
X176500000Y-59799605D01*
X175587129Y-60712476D01*
X175675623Y-60970723D01*
X175807332Y-61034313D01*
X175658039Y-61134067D01*
X175474067Y-61318039D01*
X175329522Y-61534366D01*
X175229957Y-61774737D01*
X175179200Y-62029913D01*
X175179200Y-62290087D01*
X175229957Y-62545263D01*
X175329522Y-62785634D01*
X175474067Y-63001961D01*
X175658039Y-63185933D01*
X175874366Y-63330478D01*
X176114633Y-63430000D01*
X175874366Y-63529522D01*
X175658039Y-63674067D01*
X175474067Y-63858039D01*
X175329522Y-64074366D01*
X175229957Y-64314737D01*
X175179200Y-64569913D01*
X175179200Y-64830087D01*
X175229957Y-65085263D01*
X175329522Y-65325634D01*
X175474067Y-65541961D01*
X175658039Y-65725933D01*
X175874366Y-65870478D01*
X176114633Y-65970000D01*
X175874366Y-66069522D01*
X175658039Y-66214067D01*
X175474067Y-66398039D01*
X175329522Y-66614366D01*
X175229957Y-66854737D01*
X175179200Y-67109913D01*
X175179200Y-67370087D01*
X175229957Y-67625263D01*
X175329522Y-67865634D01*
X175474067Y-68081961D01*
X175658039Y-68265933D01*
X175874366Y-68410478D01*
X176114633Y-68510000D01*
X175874366Y-68609522D01*
X175658039Y-68754067D01*
X175474067Y-68938039D01*
X175329522Y-69154366D01*
X175229957Y-69394737D01*
X175179200Y-69649913D01*
X175179200Y-69910087D01*
X175229957Y-70165263D01*
X175329522Y-70405634D01*
X175474067Y-70621961D01*
X175658039Y-70805933D01*
X175874366Y-70950478D01*
X176114633Y-71050000D01*
X175874366Y-71149522D01*
X175658039Y-71294067D01*
X175474067Y-71478039D01*
X175329522Y-71694366D01*
X175229957Y-71934737D01*
X175179200Y-72189913D01*
X175179200Y-72450087D01*
X175229957Y-72705263D01*
X175329522Y-72945634D01*
X175474067Y-73161961D01*
X175658039Y-73345933D01*
X175874366Y-73490478D01*
X176114633Y-73590000D01*
X175874366Y-73689522D01*
X175658039Y-73834067D01*
X175474067Y-74018039D01*
X175329522Y-74234366D01*
X175229957Y-74474737D01*
X175179200Y-74729913D01*
X175179200Y-74990087D01*
X175229957Y-75245263D01*
X175329522Y-75485634D01*
X175474067Y-75701961D01*
X175658039Y-75885933D01*
X175874366Y-76030478D01*
X176114633Y-76130000D01*
X175874366Y-76229522D01*
X175658039Y-76374067D01*
X175474067Y-76558039D01*
X175329522Y-76774366D01*
X175280796Y-76892000D01*
X175019421Y-76892000D01*
X171826855Y-73699435D01*
X171810948Y-73680052D01*
X171733595Y-73616571D01*
X171645343Y-73569399D01*
X171549585Y-73540351D01*
X171474947Y-73533000D01*
X171474944Y-73533000D01*
X171450000Y-73530543D01*
X171425056Y-73533000D01*
X167537943Y-73533000D01*
X167512999Y-73530543D01*
X167488055Y-73533000D01*
X167488053Y-73533000D01*
X167413415Y-73540351D01*
X167317657Y-73569399D01*
X167279196Y-73589957D01*
X167229404Y-73616571D01*
X167174810Y-73661376D01*
X167152052Y-73680052D01*
X167136150Y-73699429D01*
X164485236Y-76350344D01*
X164465853Y-76366251D01*
X164402372Y-76443604D01*
X164355200Y-76531857D01*
X164326152Y-76627615D01*
X164320226Y-76687784D01*
X164316344Y-76727199D01*
X164318801Y-76752143D01*
X164318802Y-80625801D01*
X162390276Y-80625801D01*
X162430478Y-80565634D01*
X162530043Y-80325263D01*
X162580800Y-80070087D01*
X162580800Y-79809913D01*
X162530043Y-79554737D01*
X162430478Y-79314366D01*
X162285933Y-79098039D01*
X162101961Y-78914067D01*
X161885634Y-78769522D01*
X161645367Y-78670000D01*
X161885634Y-78570478D01*
X162101961Y-78425933D01*
X162285933Y-78241961D01*
X162430478Y-78025634D01*
X162530043Y-77785263D01*
X162580800Y-77530087D01*
X162580800Y-77269913D01*
X162530043Y-77014737D01*
X162430478Y-76774366D01*
X162285933Y-76558039D01*
X162101961Y-76374067D01*
X161885634Y-76229522D01*
X161645367Y-76130000D01*
X161885634Y-76030478D01*
X162101961Y-75885933D01*
X162285933Y-75701961D01*
X162430478Y-75485634D01*
X162530043Y-75245263D01*
X162580800Y-74990087D01*
X162580800Y-74729913D01*
X162530043Y-74474737D01*
X162430478Y-74234366D01*
X162285933Y-74018039D01*
X162101961Y-73834067D01*
X161885634Y-73689522D01*
X161645367Y-73590000D01*
X161885634Y-73490478D01*
X162101961Y-73345933D01*
X162285933Y-73161961D01*
X162430478Y-72945634D01*
X162530043Y-72705263D01*
X162580800Y-72450087D01*
X162580800Y-72189913D01*
X162530043Y-71934737D01*
X162430478Y-71694366D01*
X162285933Y-71478039D01*
X162101961Y-71294067D01*
X161885634Y-71149522D01*
X161645367Y-71050000D01*
X161885634Y-70950478D01*
X162101961Y-70805933D01*
X162285933Y-70621961D01*
X162430478Y-70405634D01*
X162530043Y-70165263D01*
X162580800Y-69910087D01*
X162580800Y-69649913D01*
X162530043Y-69394737D01*
X162430478Y-69154366D01*
X162285933Y-68938039D01*
X162101961Y-68754067D01*
X161885634Y-68609522D01*
X161645367Y-68510000D01*
X161885634Y-68410478D01*
X162101961Y-68265933D01*
X162285933Y-68081961D01*
X162430478Y-67865634D01*
X162530043Y-67625263D01*
X162580800Y-67370087D01*
X162580800Y-67109913D01*
X162530043Y-66854737D01*
X162430478Y-66614366D01*
X162285933Y-66398039D01*
X162101961Y-66214067D01*
X161885634Y-66069522D01*
X161645367Y-65970000D01*
X161885634Y-65870478D01*
X162101961Y-65725933D01*
X162285933Y-65541961D01*
X162430478Y-65325634D01*
X162530043Y-65085263D01*
X162580800Y-64830087D01*
X162580800Y-64569913D01*
X162530043Y-64314737D01*
X162430478Y-64074366D01*
X162285933Y-63858039D01*
X162101961Y-63674067D01*
X161885634Y-63529522D01*
X161645367Y-63430000D01*
X161885634Y-63330478D01*
X162101961Y-63185933D01*
X162285933Y-63001961D01*
X162430478Y-62785634D01*
X162530043Y-62545263D01*
X162580800Y-62290087D01*
X162580800Y-62029913D01*
X162530043Y-61774737D01*
X162430478Y-61534366D01*
X162285933Y-61318039D01*
X162101961Y-61134067D01*
X161885634Y-60989522D01*
X161645367Y-60890000D01*
X161885634Y-60790478D01*
X162101961Y-60645933D01*
X162285933Y-60461961D01*
X162430478Y-60245634D01*
X162530043Y-60005263D01*
X162580800Y-59750087D01*
X162580800Y-59684977D01*
X174918916Y-59684977D01*
X174961973Y-59992184D01*
X175064135Y-60285086D01*
X175149277Y-60444377D01*
X175407524Y-60532871D01*
X176320395Y-59620000D01*
X175407524Y-58707129D01*
X175149277Y-58795623D01*
X175014403Y-59074976D01*
X174936619Y-59375275D01*
X174918916Y-59684977D01*
X162580800Y-59684977D01*
X162580800Y-59489913D01*
X162530043Y-59234737D01*
X162430478Y-58994366D01*
X162285933Y-58778039D01*
X162101961Y-58594067D01*
X161885634Y-58449522D01*
X161645367Y-58350000D01*
X161885634Y-58250478D01*
X162101961Y-58105933D01*
X162285933Y-57921961D01*
X162430478Y-57705634D01*
X162530043Y-57465263D01*
X162580800Y-57210087D01*
X162580800Y-56949913D01*
X162530043Y-56694737D01*
X162430478Y-56454366D01*
X162285933Y-56238039D01*
X162101961Y-56054067D01*
X161885634Y-55909522D01*
X161645367Y-55810000D01*
X161885634Y-55710478D01*
X162101961Y-55565933D01*
X162285933Y-55381961D01*
X162430478Y-55165634D01*
X162530043Y-54925263D01*
X162580800Y-54670087D01*
X162580800Y-54409913D01*
X162530043Y-54154737D01*
X162430478Y-53914366D01*
X162285933Y-53698039D01*
X162101961Y-53514067D01*
X161885634Y-53369522D01*
X161645367Y-53270000D01*
X161885634Y-53170478D01*
X162101961Y-53025933D01*
X162285933Y-52841961D01*
X162430478Y-52625634D01*
X162530043Y-52385263D01*
X162580800Y-52130087D01*
X162580800Y-51869913D01*
X162530043Y-51614737D01*
X162430478Y-51374366D01*
X162285933Y-51158039D01*
X162101961Y-50974067D01*
X161885634Y-50829522D01*
X161808863Y-50797722D01*
X166946237Y-50797722D01*
X166946237Y-51202278D01*
X167025162Y-51599060D01*
X167179979Y-51972821D01*
X167404738Y-52309197D01*
X167690803Y-52595262D01*
X168027179Y-52820021D01*
X168400940Y-52974838D01*
X168797722Y-53053763D01*
X169202278Y-53053763D01*
X169599060Y-52974838D01*
X169972821Y-52820021D01*
X170309197Y-52595262D01*
X170595262Y-52309197D01*
X170820021Y-51972821D01*
X170974838Y-51599060D01*
X171053763Y-51202278D01*
X171053763Y-50797722D01*
X170974838Y-50400940D01*
X170820021Y-50027179D01*
X170595262Y-49690803D01*
X170309197Y-49404738D01*
X169972821Y-49179979D01*
X169599060Y-49025162D01*
X169202278Y-48946237D01*
X168797722Y-48946237D01*
X168400940Y-49025162D01*
X168027179Y-49179979D01*
X167690803Y-49404738D01*
X167404738Y-49690803D01*
X167179979Y-50027179D01*
X167025162Y-50400940D01*
X166946237Y-50797722D01*
X161808863Y-50797722D01*
X161645263Y-50729957D01*
X161390087Y-50679200D01*
X161129913Y-50679200D01*
X160874737Y-50729957D01*
X160634366Y-50829522D01*
X160418039Y-50974067D01*
X160234067Y-51158039D01*
X160089522Y-51374366D01*
X159989957Y-51614737D01*
X159939200Y-51869913D01*
X159939200Y-52130087D01*
X159989957Y-52385263D01*
X160089522Y-52625634D01*
X160234067Y-52841961D01*
X160418039Y-53025933D01*
X160634366Y-53170478D01*
X160874633Y-53270000D01*
X160634366Y-53369522D01*
X160418039Y-53514067D01*
X160234067Y-53698039D01*
X160089522Y-53914366D01*
X159989957Y-54154737D01*
X159939200Y-54409913D01*
X159939200Y-54670087D01*
X159989957Y-54925263D01*
X160089522Y-55165634D01*
X160234067Y-55381961D01*
X160418039Y-55565933D01*
X160634366Y-55710478D01*
X160874633Y-55810000D01*
X160634366Y-55909522D01*
X160418039Y-56054067D01*
X160234067Y-56238039D01*
X160089522Y-56454366D01*
X159989957Y-56694737D01*
X159939200Y-56949913D01*
X159939200Y-57210087D01*
X159989957Y-57465263D01*
X160089522Y-57705634D01*
X160234067Y-57921961D01*
X160418039Y-58105933D01*
X160634366Y-58250478D01*
X160874633Y-58350000D01*
X160634366Y-58449522D01*
X160418039Y-58594067D01*
X160234067Y-58778039D01*
X160089522Y-58994366D01*
X159989957Y-59234737D01*
X159939200Y-59489913D01*
X159939200Y-59750087D01*
X159989957Y-60005263D01*
X160089522Y-60245634D01*
X160234067Y-60461961D01*
X160418039Y-60645933D01*
X160634366Y-60790478D01*
X160874633Y-60890000D01*
X160634366Y-60989522D01*
X160418039Y-61134067D01*
X160234067Y-61318039D01*
X160089522Y-61534366D01*
X159989957Y-61774737D01*
X159939200Y-62029913D01*
X159939200Y-62290087D01*
X159989957Y-62545263D01*
X160089522Y-62785634D01*
X160234067Y-63001961D01*
X160418039Y-63185933D01*
X160634366Y-63330478D01*
X160874633Y-63430000D01*
X160634366Y-63529522D01*
X160418039Y-63674067D01*
X160234067Y-63858039D01*
X160089522Y-64074366D01*
X159989957Y-64314737D01*
X159939200Y-64569913D01*
X159939200Y-64830087D01*
X159989957Y-65085263D01*
X160089522Y-65325634D01*
X160234067Y-65541961D01*
X160418039Y-65725933D01*
X160634366Y-65870478D01*
X160874633Y-65970000D01*
X160634366Y-66069522D01*
X160418039Y-66214067D01*
X160234067Y-66398039D01*
X160089522Y-66614366D01*
X160040796Y-66732000D01*
X153687640Y-66732000D01*
X153588483Y-66632843D01*
X154050000Y-66632843D01*
X154173462Y-66620683D01*
X154292179Y-66584671D01*
X154401589Y-66526190D01*
X154497488Y-66447488D01*
X154576190Y-66351589D01*
X154634671Y-66242179D01*
X154670683Y-66123462D01*
X154682843Y-66000000D01*
X154682843Y-64035577D01*
X155916571Y-62801850D01*
X155935948Y-62785948D01*
X155971439Y-62742702D01*
X155999429Y-62708596D01*
X156046600Y-62620345D01*
X156046601Y-62620342D01*
X156075649Y-62524585D01*
X156083000Y-62449947D01*
X156083000Y-62449945D01*
X156085457Y-62425001D01*
X156083000Y-62400057D01*
X156083000Y-57081414D01*
X156154679Y-57059671D01*
X156264089Y-57001190D01*
X156359988Y-56922488D01*
X156438690Y-56826589D01*
X156497171Y-56717179D01*
X156533183Y-56598462D01*
X156545343Y-56475000D01*
X156545343Y-55525000D01*
X156533183Y-55401538D01*
X156497171Y-55282821D01*
X156438690Y-55173411D01*
X156359988Y-55077512D01*
X156264089Y-54998810D01*
X156209549Y-54969658D01*
X156297488Y-54897488D01*
X156376190Y-54801589D01*
X156434671Y-54692179D01*
X156470683Y-54573462D01*
X156482843Y-54450001D01*
X156482843Y-53549999D01*
X156470683Y-53426538D01*
X156434671Y-53307821D01*
X156376190Y-53198411D01*
X156297488Y-53102512D01*
X156201589Y-53023810D01*
X156092179Y-52965329D01*
X155973462Y-52929317D01*
X155850001Y-52917157D01*
X155149999Y-52917157D01*
X155026538Y-52929317D01*
X154907821Y-52965329D01*
X154798411Y-53023810D01*
X154702512Y-53102512D01*
X154623810Y-53198411D01*
X154565329Y-53307821D01*
X154529317Y-53426538D01*
X154517157Y-53549999D01*
X154517157Y-54450001D01*
X154529317Y-54573462D01*
X154565329Y-54692179D01*
X154623810Y-54801589D01*
X154702512Y-54897488D01*
X154798411Y-54976190D01*
X154868091Y-55013435D01*
X154790012Y-55077512D01*
X154711310Y-55173411D01*
X154652829Y-55282821D01*
X154616817Y-55401538D01*
X154604657Y-55525000D01*
X154604657Y-56475000D01*
X154616817Y-56598462D01*
X154652829Y-56717179D01*
X154711310Y-56826589D01*
X154790012Y-56922488D01*
X154885911Y-57001190D01*
X154995321Y-57059671D01*
X155067001Y-57081415D01*
X155067000Y-62214579D01*
X154596037Y-62685542D01*
X154576190Y-62648411D01*
X154497488Y-62552512D01*
X154401589Y-62473810D01*
X154292179Y-62415329D01*
X154173462Y-62379317D01*
X154050000Y-62367157D01*
X152950000Y-62367157D01*
X152826538Y-62379317D01*
X152707821Y-62415329D01*
X152598411Y-62473810D01*
X152572613Y-62494982D01*
X151565284Y-61487654D01*
X151541422Y-61458578D01*
X151425392Y-61363355D01*
X151293015Y-61292598D01*
X151149378Y-61249026D01*
X151037426Y-61238000D01*
X151037423Y-61238000D01*
X151000000Y-61234314D01*
X150962577Y-61238000D01*
X148882843Y-61238000D01*
X148882843Y-60882843D01*
X149055000Y-60882843D01*
X149158953Y-60872605D01*
X149258910Y-60842283D01*
X149351032Y-60793043D01*
X149431777Y-60726777D01*
X149498043Y-60646032D01*
X149547283Y-60553910D01*
X149577605Y-60453953D01*
X149587843Y-60350000D01*
X149587843Y-59919787D01*
X149645630Y-59862000D01*
X152317157Y-59862000D01*
X152317157Y-60600000D01*
X152329317Y-60723462D01*
X152365329Y-60842179D01*
X152423810Y-60951589D01*
X152502512Y-61047488D01*
X152598411Y-61126190D01*
X152707821Y-61184671D01*
X152826538Y-61220683D01*
X152950000Y-61232843D01*
X154050000Y-61232843D01*
X154173462Y-61220683D01*
X154292179Y-61184671D01*
X154401589Y-61126190D01*
X154497488Y-61047488D01*
X154576190Y-60951589D01*
X154634671Y-60842179D01*
X154670683Y-60723462D01*
X154682843Y-60600000D01*
X154682843Y-57600000D01*
X154670683Y-57476538D01*
X154634671Y-57357821D01*
X154576190Y-57248411D01*
X154497488Y-57152512D01*
X154401589Y-57073810D01*
X154292179Y-57015329D01*
X154262000Y-57006174D01*
X154262000Y-56941354D01*
X154284988Y-56922488D01*
X154363690Y-56826589D01*
X154422171Y-56717179D01*
X154458183Y-56598462D01*
X154470343Y-56475000D01*
X154470343Y-55525000D01*
X154458183Y-55401538D01*
X154422171Y-55282821D01*
X154363690Y-55173411D01*
X154284988Y-55077512D01*
X154189089Y-54998810D01*
X154174180Y-54990841D01*
X154201589Y-54976190D01*
X154297488Y-54897488D01*
X154376190Y-54801589D01*
X154434671Y-54692179D01*
X154470683Y-54573462D01*
X154482843Y-54450001D01*
X154482843Y-53549999D01*
X154470683Y-53426538D01*
X154434671Y-53307821D01*
X154376190Y-53198411D01*
X154297488Y-53102512D01*
X154201589Y-53023810D01*
X154092179Y-52965329D01*
X154088912Y-52964338D01*
X154101800Y-52899545D01*
X154101800Y-52764455D01*
X154075445Y-52631960D01*
X154023748Y-52507152D01*
X153948695Y-52394828D01*
X153853172Y-52299305D01*
X153740848Y-52224252D01*
X153616040Y-52172555D01*
X153483545Y-52146200D01*
X153348455Y-52146200D01*
X153215960Y-52172555D01*
X153091152Y-52224252D01*
X152978828Y-52299305D01*
X152883305Y-52394828D01*
X152808252Y-52507152D01*
X152756555Y-52631960D01*
X152730200Y-52764455D01*
X152730200Y-52899545D01*
X152749365Y-52995892D01*
X150433125Y-50679653D01*
X150409263Y-50650577D01*
X150293233Y-50555354D01*
X150160856Y-50484597D01*
X150017219Y-50441025D01*
X149905267Y-50429999D01*
X149905264Y-50429999D01*
X149867841Y-50426313D01*
X149830418Y-50429999D01*
X135845424Y-50429999D01*
X135808001Y-50426313D01*
X135770578Y-50429999D01*
X135770575Y-50429999D01*
X135658623Y-50441025D01*
X135514986Y-50484597D01*
X135486693Y-50499720D01*
X135382608Y-50555354D01*
X135340220Y-50590142D01*
X135266579Y-50650577D01*
X135242717Y-50679653D01*
X134605213Y-51317157D01*
X132700000Y-51317157D01*
X132625311Y-51324513D01*
X132553492Y-51346299D01*
X132487304Y-51381678D01*
X132429289Y-51429289D01*
X132381678Y-51487304D01*
X132346299Y-51553492D01*
X132324513Y-51625311D01*
X132317157Y-51700000D01*
X132317157Y-54300000D01*
X132324513Y-54374689D01*
X132346299Y-54446508D01*
X132381678Y-54512696D01*
X132429289Y-54570711D01*
X132487304Y-54618322D01*
X132553492Y-54653701D01*
X132625311Y-54675487D01*
X132700000Y-54682843D01*
X133492000Y-54682843D01*
X133492001Y-57475046D01*
X133489543Y-57500000D01*
X133493321Y-57538352D01*
X133499352Y-57599585D01*
X133518331Y-57662150D01*
X133528400Y-57695343D01*
X133575571Y-57783595D01*
X133606601Y-57821405D01*
X133639053Y-57860948D01*
X133658430Y-57876850D01*
X134173737Y-58392157D01*
X133587500Y-58392157D01*
X133464038Y-58404317D01*
X133345321Y-58440329D01*
X133235911Y-58498810D01*
X133140012Y-58577512D01*
X133061310Y-58673411D01*
X133002829Y-58782821D01*
X132966817Y-58901538D01*
X132964597Y-58924082D01*
X132915040Y-58903555D01*
X132782545Y-58877200D01*
X132647455Y-58877200D01*
X132514960Y-58903555D01*
X132390152Y-58955252D01*
X132277828Y-59030305D01*
X132182305Y-59125828D01*
X132107252Y-59238152D01*
X132055555Y-59362960D01*
X132029200Y-59495455D01*
X132029200Y-59630545D01*
X132055555Y-59763040D01*
X132107252Y-59887848D01*
X132182305Y-60000172D01*
X132277828Y-60095695D01*
X132390152Y-60170748D01*
X132514960Y-60222445D01*
X132647455Y-60248800D01*
X132782545Y-60248800D01*
X132915040Y-60222445D01*
X132994449Y-60189553D01*
X133002829Y-60217179D01*
X133061310Y-60326589D01*
X133140012Y-60422488D01*
X133235911Y-60501190D01*
X133345321Y-60559671D01*
X133464038Y-60595683D01*
X133587500Y-60607843D01*
X134262500Y-60607843D01*
X134385962Y-60595683D01*
X134504679Y-60559671D01*
X134614089Y-60501190D01*
X134709988Y-60422488D01*
X134788690Y-60326589D01*
X134847171Y-60217179D01*
X134883183Y-60098462D01*
X134895343Y-59975000D01*
X134895343Y-59113764D01*
X135029657Y-59248078D01*
X135029657Y-59975000D01*
X135041817Y-60098462D01*
X135077829Y-60217179D01*
X135136310Y-60326589D01*
X135215012Y-60422488D01*
X135310911Y-60501190D01*
X135420321Y-60559671D01*
X135539038Y-60595683D01*
X135662500Y-60607843D01*
X136337500Y-60607843D01*
X136460962Y-60595683D01*
X136579679Y-60559671D01*
X136689089Y-60501190D01*
X136784988Y-60422488D01*
X136863690Y-60326589D01*
X136922171Y-60217179D01*
X136958183Y-60098462D01*
X136967093Y-60008000D01*
X137067157Y-60008000D01*
X137067157Y-60700000D01*
X137074513Y-60774689D01*
X137096299Y-60846508D01*
X137131678Y-60912696D01*
X137179289Y-60970711D01*
X137237304Y-61018322D01*
X137303492Y-61053701D01*
X137375311Y-61075487D01*
X137450000Y-61082843D01*
X138950000Y-61082843D01*
X139024689Y-61075487D01*
X139096508Y-61053701D01*
X139162696Y-61018322D01*
X139188715Y-60996969D01*
X139219463Y-61054494D01*
X139298815Y-61151185D01*
X139395506Y-61230537D01*
X139505820Y-61289502D01*
X139625518Y-61325812D01*
X139750000Y-61338072D01*
X140214250Y-61335000D01*
X140373000Y-61176250D01*
X140373000Y-59827000D01*
X140353000Y-59827000D01*
X140353000Y-59573000D01*
X140373000Y-59573000D01*
X140373000Y-58223750D01*
X140214250Y-58065000D01*
X139750000Y-58061928D01*
X139625518Y-58074188D01*
X139505820Y-58110498D01*
X139395506Y-58169463D01*
X139298815Y-58248815D01*
X139219463Y-58345506D01*
X139188715Y-58403031D01*
X139162696Y-58381678D01*
X139096508Y-58346299D01*
X139024689Y-58324513D01*
X138950000Y-58317157D01*
X137450000Y-58317157D01*
X137375311Y-58324513D01*
X137303492Y-58346299D01*
X137237304Y-58381678D01*
X137179289Y-58429289D01*
X137131678Y-58487304D01*
X137096299Y-58553492D01*
X137074513Y-58625311D01*
X137067157Y-58700000D01*
X137067157Y-58992000D01*
X136967093Y-58992000D01*
X136958183Y-58901538D01*
X136922171Y-58782821D01*
X136863690Y-58673411D01*
X136784988Y-58577512D01*
X136689089Y-58498810D01*
X136579679Y-58440329D01*
X136460962Y-58404317D01*
X136337500Y-58392157D01*
X135662500Y-58392157D01*
X135615233Y-58396812D01*
X134508000Y-57289580D01*
X134508000Y-54682843D01*
X135300000Y-54682843D01*
X135374689Y-54675487D01*
X135446508Y-54653701D01*
X135512696Y-54618322D01*
X135570711Y-54570711D01*
X135618322Y-54512696D01*
X135653701Y-54446508D01*
X135675487Y-54374689D01*
X135682843Y-54300000D01*
X135682843Y-52394787D01*
X136123631Y-51953999D01*
X137677194Y-51953999D01*
X137510317Y-52203748D01*
X137383600Y-52509670D01*
X137319000Y-52834436D01*
X137319000Y-53165564D01*
X137383600Y-53490330D01*
X137510317Y-53796252D01*
X137694282Y-54071575D01*
X137928425Y-54305718D01*
X138203748Y-54489683D01*
X138509670Y-54616400D01*
X138834436Y-54681000D01*
X139165564Y-54681000D01*
X139490330Y-54616400D01*
X139524582Y-54602212D01*
X142038001Y-57115631D01*
X142038000Y-58318339D01*
X141975311Y-58324513D01*
X141903492Y-58346299D01*
X141837304Y-58381678D01*
X141811285Y-58403031D01*
X141780537Y-58345506D01*
X141701185Y-58248815D01*
X141604494Y-58169463D01*
X141494180Y-58110498D01*
X141374482Y-58074188D01*
X141250000Y-58061928D01*
X140785750Y-58065000D01*
X140627000Y-58223750D01*
X140627000Y-59573000D01*
X140647000Y-59573000D01*
X140647000Y-59827000D01*
X140627000Y-59827000D01*
X140627000Y-61176250D01*
X140785750Y-61335000D01*
X141250000Y-61338072D01*
X141374482Y-61325812D01*
X141494180Y-61289502D01*
X141604494Y-61230537D01*
X141701185Y-61151185D01*
X141780537Y-61054494D01*
X141811285Y-60996969D01*
X141837304Y-61018322D01*
X141903492Y-61053701D01*
X141975311Y-61075487D01*
X142050000Y-61082843D01*
X143105213Y-61082843D01*
X144534720Y-62512351D01*
X144558578Y-62541422D01*
X144674608Y-62636645D01*
X144806985Y-62707402D01*
X144851472Y-62720897D01*
X144582649Y-62989721D01*
X144553579Y-63013578D01*
X144529722Y-63042648D01*
X144529721Y-63042649D01*
X144458355Y-63129608D01*
X144387599Y-63261985D01*
X144344027Y-63405622D01*
X144329314Y-63555000D01*
X144333001Y-63592433D01*
X144333000Y-64512425D01*
X144344026Y-64624377D01*
X144387598Y-64768014D01*
X144412157Y-64813961D01*
X144412157Y-65300000D01*
X144422395Y-65403953D01*
X144452717Y-65503910D01*
X144501957Y-65596032D01*
X144568223Y-65676777D01*
X144587000Y-65692187D01*
X144587001Y-67269046D01*
X144584543Y-67294000D01*
X144594352Y-67393584D01*
X144623400Y-67489343D01*
X144670571Y-67577595D01*
X144709917Y-67625538D01*
X144734053Y-67654948D01*
X144753430Y-67670850D01*
X144773580Y-67691000D01*
X137909420Y-67691000D01*
X137218420Y-67000000D01*
X137961928Y-67000000D01*
X137974188Y-67124482D01*
X138010498Y-67244180D01*
X138069463Y-67354494D01*
X138148815Y-67451185D01*
X138245506Y-67530537D01*
X138355820Y-67589502D01*
X138475518Y-67625812D01*
X138600000Y-67638072D01*
X140214250Y-67635000D01*
X140373000Y-67476250D01*
X140373000Y-66127000D01*
X140627000Y-66127000D01*
X140627000Y-67476250D01*
X140785750Y-67635000D01*
X142400000Y-67638072D01*
X142524482Y-67625812D01*
X142644180Y-67589502D01*
X142754494Y-67530537D01*
X142851185Y-67451185D01*
X142930537Y-67354494D01*
X142989502Y-67244180D01*
X143025812Y-67124482D01*
X143038072Y-67000000D01*
X143035000Y-66285750D01*
X142876250Y-66127000D01*
X140627000Y-66127000D01*
X140373000Y-66127000D01*
X138123750Y-66127000D01*
X137965000Y-66285750D01*
X137961928Y-67000000D01*
X137218420Y-67000000D01*
X135218420Y-65000000D01*
X137961928Y-65000000D01*
X137965000Y-65714250D01*
X138123750Y-65873000D01*
X140373000Y-65873000D01*
X140373000Y-64523750D01*
X140627000Y-64523750D01*
X140627000Y-65873000D01*
X142876250Y-65873000D01*
X143035000Y-65714250D01*
X143038072Y-65000000D01*
X143025812Y-64875518D01*
X142989502Y-64755820D01*
X142930537Y-64645506D01*
X142851185Y-64548815D01*
X142754494Y-64469463D01*
X142644180Y-64410498D01*
X142524482Y-64374188D01*
X142400000Y-64361928D01*
X140785750Y-64365000D01*
X140627000Y-64523750D01*
X140373000Y-64523750D01*
X140214250Y-64365000D01*
X138600000Y-64361928D01*
X138475518Y-64374188D01*
X138355820Y-64410498D01*
X138245506Y-64469463D01*
X138148815Y-64548815D01*
X138069463Y-64645506D01*
X138010498Y-64755820D01*
X137974188Y-64875518D01*
X137961928Y-65000000D01*
X135218420Y-65000000D01*
X134183292Y-63964872D01*
X134213188Y-63866317D01*
X134231000Y-63685471D01*
X134231000Y-63314528D01*
X134213188Y-63133682D01*
X134142798Y-62901637D01*
X134028491Y-62687784D01*
X133874660Y-62500340D01*
X133687215Y-62346509D01*
X133473362Y-62232202D01*
X133241317Y-62161812D01*
X133000000Y-62138044D01*
X132758682Y-62161812D01*
X132526637Y-62232202D01*
X132312784Y-62346509D01*
X132125340Y-62500340D01*
X131971509Y-62687785D01*
X131857202Y-62901638D01*
X131786812Y-63133683D01*
X131769000Y-63314529D01*
X131769000Y-63685472D01*
X131786812Y-63866318D01*
X131857202Y-64098363D01*
X131903614Y-64185194D01*
X131683292Y-63964872D01*
X131713188Y-63866317D01*
X131731000Y-63685471D01*
X131731000Y-63314528D01*
X131713188Y-63133682D01*
X131642798Y-62901637D01*
X131528491Y-62687784D01*
X131374660Y-62500340D01*
X131187215Y-62346509D01*
X130973362Y-62232202D01*
X130741317Y-62161812D01*
X130500000Y-62138044D01*
X130258682Y-62161812D01*
X130026637Y-62232202D01*
X129812784Y-62346509D01*
X129625340Y-62500340D01*
X129487433Y-62668381D01*
X129488072Y-62525000D01*
X129475812Y-62400518D01*
X129439502Y-62280820D01*
X129380537Y-62170506D01*
X129301185Y-62073815D01*
X129204494Y-61994463D01*
X129094180Y-61935498D01*
X128974482Y-61899188D01*
X128850000Y-61886928D01*
X128285750Y-61890000D01*
X128127000Y-62048750D01*
X128127000Y-63373000D01*
X128147000Y-63373000D01*
X128147000Y-63627000D01*
X128127000Y-63627000D01*
X128127000Y-64951250D01*
X128285750Y-65110000D01*
X128850000Y-65113072D01*
X128974482Y-65100812D01*
X129094180Y-65064502D01*
X129204494Y-65005537D01*
X129301185Y-64926185D01*
X129380537Y-64829494D01*
X129439502Y-64719180D01*
X129475812Y-64599482D01*
X129488072Y-64475000D01*
X129487433Y-64331619D01*
X129625341Y-64499660D01*
X129812785Y-64653491D01*
X130026638Y-64767798D01*
X130258683Y-64838188D01*
X130500000Y-64861956D01*
X130741318Y-64838188D01*
X130973363Y-64767798D01*
X131022900Y-64741320D01*
X135284816Y-69003236D01*
X135198815Y-69073815D01*
X135119463Y-69170506D01*
X135060498Y-69280820D01*
X135024188Y-69400518D01*
X135011928Y-69525000D01*
X135015000Y-70214250D01*
X135173750Y-70373000D01*
X136373000Y-70373000D01*
X136373000Y-70353000D01*
X136627000Y-70353000D01*
X136627000Y-70373000D01*
X136647000Y-70373000D01*
X136647000Y-70627000D01*
X136627000Y-70627000D01*
X136627000Y-71951250D01*
X136785750Y-72110000D01*
X137350000Y-72113072D01*
X137474482Y-72100812D01*
X137594180Y-72064502D01*
X137704494Y-72005537D01*
X137801185Y-71926185D01*
X137880537Y-71829494D01*
X137939502Y-71719180D01*
X137975812Y-71599482D01*
X137988072Y-71475000D01*
X137987433Y-71331619D01*
X138125341Y-71499660D01*
X138312785Y-71653491D01*
X138526638Y-71767798D01*
X138758683Y-71838188D01*
X139000000Y-71861956D01*
X139241318Y-71838188D01*
X139473363Y-71767798D01*
X139522900Y-71741320D01*
X145523145Y-77741565D01*
X145539052Y-77760948D01*
X145616405Y-77824429D01*
X145704657Y-77871601D01*
X145800415Y-77900649D01*
X145875053Y-77908000D01*
X145875056Y-77908000D01*
X145900000Y-77910457D01*
X145924944Y-77908000D01*
X147069186Y-77908000D01*
X147043693Y-77933275D01*
X146907610Y-78135054D01*
X146813507Y-78359504D01*
X146765000Y-78598000D01*
X146765000Y-78873000D01*
X147873000Y-78873000D01*
X147873000Y-78853000D01*
X148127000Y-78853000D01*
X148127000Y-78873000D01*
X148147000Y-78873000D01*
X148147000Y-79127000D01*
X148127000Y-79127000D01*
X148127000Y-80343731D01*
X148317609Y-80468462D01*
X148355282Y-80464591D01*
X148580533Y-80372421D01*
X148783474Y-80238078D01*
X148956307Y-80066725D01*
X149092390Y-79864946D01*
X149141007Y-79748986D01*
X149180382Y-79822651D01*
X149302972Y-79972028D01*
X149452349Y-80094618D01*
X149622771Y-80185711D01*
X149807690Y-80241805D01*
X150000000Y-80260746D01*
X150192309Y-80241805D01*
X150377228Y-80185711D01*
X150547651Y-80094618D01*
X150697028Y-79972028D01*
X150819618Y-79822651D01*
X150910711Y-79652229D01*
X150966805Y-79467310D01*
X150981000Y-79323187D01*
X150981000Y-78676814D01*
X150966805Y-78532691D01*
X150910711Y-78347771D01*
X150819618Y-78177349D01*
X150697028Y-78027972D01*
X150550841Y-77908000D01*
X151449160Y-77908000D01*
X151302973Y-78027972D01*
X151180383Y-78177349D01*
X151089289Y-78347771D01*
X151033195Y-78532690D01*
X151019000Y-78676813D01*
X151019000Y-79323186D01*
X151033195Y-79467309D01*
X151089289Y-79652228D01*
X151180382Y-79822651D01*
X151302972Y-79972028D01*
X151452349Y-80094618D01*
X151622771Y-80185711D01*
X151807690Y-80241805D01*
X152000000Y-80260746D01*
X152192309Y-80241805D01*
X152377228Y-80185711D01*
X152547651Y-80094618D01*
X152697028Y-79972028D01*
X152819618Y-79822651D01*
X152910711Y-79652229D01*
X152966805Y-79467310D01*
X152981000Y-79323187D01*
X152981000Y-78676814D01*
X152966805Y-78532691D01*
X152910711Y-78347771D01*
X152819618Y-78177349D01*
X152697028Y-78027972D01*
X152550841Y-77908000D01*
X153449160Y-77908000D01*
X153302973Y-78027972D01*
X153180383Y-78177349D01*
X153089289Y-78347771D01*
X153033195Y-78532690D01*
X153019000Y-78676813D01*
X153019000Y-79323186D01*
X153033195Y-79467309D01*
X153089289Y-79652228D01*
X153180382Y-79822651D01*
X153302972Y-79972028D01*
X153452349Y-80094618D01*
X153622771Y-80185711D01*
X153807690Y-80241805D01*
X154000000Y-80260746D01*
X154192309Y-80241805D01*
X154377228Y-80185711D01*
X154547651Y-80094618D01*
X154697028Y-79972028D01*
X154819618Y-79822651D01*
X154910711Y-79652229D01*
X154966805Y-79467310D01*
X154981000Y-79323187D01*
X154981000Y-78676814D01*
X154966805Y-78532691D01*
X154910711Y-78347771D01*
X154819618Y-78177349D01*
X154697028Y-78027972D01*
X154550841Y-77908000D01*
X155226288Y-77908000D01*
X155202512Y-77927512D01*
X155123810Y-78023411D01*
X155065329Y-78132821D01*
X155029317Y-78251538D01*
X155017157Y-78374999D01*
X155017157Y-79625001D01*
X155029317Y-79748462D01*
X155065329Y-79867179D01*
X155123810Y-79976589D01*
X155202512Y-80072488D01*
X155298411Y-80151190D01*
X155407821Y-80209671D01*
X155526538Y-80245683D01*
X155649999Y-80257843D01*
X156350001Y-80257843D01*
X156473462Y-80245683D01*
X156592179Y-80209671D01*
X156701589Y-80151190D01*
X156797488Y-80072488D01*
X156876190Y-79976589D01*
X156934671Y-79867179D01*
X156970683Y-79748462D01*
X156982843Y-79625001D01*
X156982843Y-78374999D01*
X156970683Y-78251538D01*
X156934671Y-78132821D01*
X156876190Y-78023411D01*
X156797488Y-77927512D01*
X156773712Y-77908000D01*
X160040796Y-77908000D01*
X160089522Y-78025634D01*
X160234067Y-78241961D01*
X160418039Y-78425933D01*
X160634366Y-78570478D01*
X160874633Y-78670000D01*
X160634366Y-78769522D01*
X160418039Y-78914067D01*
X160234067Y-79098039D01*
X160089522Y-79314366D01*
X159989957Y-79554737D01*
X159939200Y-79809913D01*
X159939200Y-80070087D01*
X159989957Y-80325263D01*
X160089522Y-80565634D01*
X160129724Y-80625801D01*
X126894222Y-80625801D01*
X125832843Y-79564423D01*
X125832843Y-79050000D01*
X125825487Y-78975311D01*
X125803701Y-78903492D01*
X125768322Y-78837304D01*
X125720711Y-78779289D01*
X125662696Y-78731678D01*
X125596508Y-78696299D01*
X125524689Y-78674513D01*
X125450000Y-78667157D01*
X124550000Y-78667157D01*
X124475311Y-78674513D01*
X124403492Y-78696299D01*
X124337304Y-78731678D01*
X124279289Y-78779289D01*
X124231678Y-78837304D01*
X124196299Y-78903492D01*
X124174513Y-78975311D01*
X124167157Y-79050000D01*
X124167157Y-79850000D01*
X124174513Y-79924689D01*
X124196299Y-79996508D01*
X124231678Y-80062696D01*
X124279289Y-80120711D01*
X124337304Y-80168322D01*
X124403492Y-80203701D01*
X124475311Y-80225487D01*
X124550000Y-80232843D01*
X125064423Y-80232843D01*
X125857579Y-81026000D01*
X98794421Y-81026000D01*
X95407027Y-77638606D01*
X114869000Y-77638606D01*
X114869000Y-77861394D01*
X114912464Y-78079900D01*
X114997721Y-78285729D01*
X115121495Y-78470970D01*
X115279030Y-78628505D01*
X115464271Y-78752279D01*
X115670100Y-78837536D01*
X115888606Y-78881000D01*
X116111394Y-78881000D01*
X116329900Y-78837536D01*
X116357630Y-78826050D01*
X116373149Y-78841569D01*
X116389051Y-78860946D01*
X116408428Y-78876848D01*
X116408429Y-78876849D01*
X116466404Y-78924428D01*
X116554655Y-78971599D01*
X116650414Y-79000647D01*
X116749999Y-79010456D01*
X116774953Y-79007998D01*
X122184618Y-79008000D01*
X122196299Y-79046508D01*
X122231678Y-79112696D01*
X122279289Y-79170711D01*
X122337304Y-79218322D01*
X122403492Y-79253701D01*
X122475311Y-79275487D01*
X122550000Y-79282843D01*
X123450000Y-79282843D01*
X123524689Y-79275487D01*
X123596508Y-79253701D01*
X123662696Y-79218322D01*
X123720711Y-79170711D01*
X123768322Y-79112696D01*
X123803701Y-79046508D01*
X123825487Y-78974689D01*
X123832843Y-78900000D01*
X123832843Y-78100000D01*
X123825487Y-78025311D01*
X123803701Y-77953492D01*
X123768322Y-77887304D01*
X123720711Y-77829289D01*
X123662696Y-77781678D01*
X123596508Y-77746299D01*
X123524689Y-77724513D01*
X123450000Y-77717157D01*
X122550000Y-77717157D01*
X122475311Y-77724513D01*
X122403492Y-77746299D01*
X122337304Y-77781678D01*
X122279289Y-77829289D01*
X122231678Y-77887304D01*
X122196299Y-77953492D01*
X122184618Y-77992001D01*
X117105021Y-77991999D01*
X117131000Y-77861394D01*
X117131000Y-77638606D01*
X117087536Y-77420100D01*
X117002279Y-77214271D01*
X116959335Y-77150000D01*
X124167157Y-77150000D01*
X124167157Y-77950000D01*
X124174513Y-78024689D01*
X124196299Y-78096508D01*
X124231678Y-78162696D01*
X124279289Y-78220711D01*
X124337304Y-78268322D01*
X124403492Y-78303701D01*
X124475311Y-78325487D01*
X124550000Y-78332843D01*
X125450000Y-78332843D01*
X125524689Y-78325487D01*
X125596508Y-78303701D01*
X125662696Y-78268322D01*
X125720711Y-78220711D01*
X125752348Y-78182161D01*
X125786152Y-78204748D01*
X125910960Y-78256445D01*
X126043455Y-78282800D01*
X126178545Y-78282800D01*
X126311040Y-78256445D01*
X126435848Y-78204748D01*
X126548172Y-78129695D01*
X126577867Y-78100000D01*
X131161928Y-78100000D01*
X131174188Y-78224482D01*
X131210498Y-78344180D01*
X131269463Y-78454494D01*
X131348815Y-78551185D01*
X131445506Y-78630537D01*
X131555820Y-78689502D01*
X131601754Y-78703436D01*
X131523810Y-78798411D01*
X131465329Y-78907821D01*
X131429317Y-79026538D01*
X131417157Y-79149999D01*
X131417157Y-79850001D01*
X131429317Y-79973462D01*
X131465329Y-80092179D01*
X131523810Y-80201589D01*
X131602512Y-80297488D01*
X131698411Y-80376190D01*
X131807821Y-80434671D01*
X131926538Y-80470683D01*
X132049999Y-80482843D01*
X132950001Y-80482843D01*
X133073462Y-80470683D01*
X133192179Y-80434671D01*
X133301589Y-80376190D01*
X133397488Y-80297488D01*
X133476190Y-80201589D01*
X133534671Y-80092179D01*
X133560206Y-80008000D01*
X136975056Y-80008000D01*
X137000000Y-80010457D01*
X137024944Y-80008000D01*
X137024947Y-80008000D01*
X137099585Y-80000649D01*
X137195343Y-79971601D01*
X137283595Y-79924429D01*
X137360948Y-79860948D01*
X137376855Y-79841565D01*
X138091420Y-79127000D01*
X146765000Y-79127000D01*
X146765000Y-79402000D01*
X146813507Y-79640496D01*
X146907610Y-79864946D01*
X147043693Y-80066725D01*
X147216526Y-80238078D01*
X147419467Y-80372421D01*
X147644718Y-80464591D01*
X147682391Y-80468462D01*
X147873000Y-80343731D01*
X147873000Y-79127000D01*
X146765000Y-79127000D01*
X138091420Y-79127000D01*
X138477101Y-78741320D01*
X138526638Y-78767798D01*
X138758683Y-78838188D01*
X139000000Y-78861956D01*
X139241318Y-78838188D01*
X139473363Y-78767798D01*
X139687216Y-78653491D01*
X139874660Y-78499660D01*
X140028491Y-78312215D01*
X140142798Y-78098362D01*
X140213188Y-77866317D01*
X140231000Y-77685471D01*
X140231000Y-77314529D01*
X140269000Y-77314529D01*
X140269000Y-77685472D01*
X140286812Y-77866318D01*
X140357202Y-78098363D01*
X140471509Y-78312216D01*
X140625341Y-78499660D01*
X140812785Y-78653491D01*
X141026638Y-78767798D01*
X141258683Y-78838188D01*
X141500000Y-78861956D01*
X141741318Y-78838188D01*
X141973363Y-78767798D01*
X142187216Y-78653491D01*
X142374660Y-78499660D01*
X142528491Y-78312215D01*
X142642798Y-78098362D01*
X142713188Y-77866317D01*
X142731000Y-77685471D01*
X142731000Y-77314528D01*
X142713188Y-77133682D01*
X142642798Y-76901637D01*
X142528491Y-76687784D01*
X142374660Y-76500340D01*
X142187215Y-76346509D01*
X141973362Y-76232202D01*
X141741317Y-76161812D01*
X141500000Y-76138044D01*
X141258682Y-76161812D01*
X141026637Y-76232202D01*
X140812784Y-76346509D01*
X140625340Y-76500340D01*
X140471509Y-76687785D01*
X140357202Y-76901638D01*
X140286812Y-77133683D01*
X140269000Y-77314529D01*
X140231000Y-77314529D01*
X140231000Y-77314528D01*
X140213188Y-77133682D01*
X140142798Y-76901637D01*
X140028491Y-76687784D01*
X139874660Y-76500340D01*
X139687215Y-76346509D01*
X139473362Y-76232202D01*
X139241317Y-76161812D01*
X139000000Y-76138044D01*
X138758682Y-76161812D01*
X138526637Y-76232202D01*
X138312784Y-76346509D01*
X138125340Y-76500340D01*
X137987433Y-76668381D01*
X137988072Y-76525000D01*
X137975812Y-76400518D01*
X137939502Y-76280820D01*
X137880537Y-76170506D01*
X137801185Y-76073815D01*
X137704494Y-75994463D01*
X137594180Y-75935498D01*
X137474482Y-75899188D01*
X137350000Y-75886928D01*
X136785750Y-75890000D01*
X136627000Y-76048750D01*
X136627000Y-77373000D01*
X136647000Y-77373000D01*
X136647000Y-77627000D01*
X136627000Y-77627000D01*
X136627000Y-77647000D01*
X136373000Y-77647000D01*
X136373000Y-77627000D01*
X135173750Y-77627000D01*
X135015000Y-77785750D01*
X135011928Y-78475000D01*
X135024188Y-78599482D01*
X135060498Y-78719180D01*
X135119463Y-78829494D01*
X135198815Y-78926185D01*
X135279011Y-78992000D01*
X133560206Y-78992000D01*
X133534671Y-78907821D01*
X133476190Y-78798411D01*
X133398246Y-78703436D01*
X133444180Y-78689502D01*
X133554494Y-78630537D01*
X133651185Y-78551185D01*
X133730537Y-78454494D01*
X133789502Y-78344180D01*
X133825812Y-78224482D01*
X133838072Y-78100000D01*
X133835000Y-77785750D01*
X133676250Y-77627000D01*
X132627000Y-77627000D01*
X132627000Y-77647000D01*
X132373000Y-77647000D01*
X132373000Y-77627000D01*
X131323750Y-77627000D01*
X131165000Y-77785750D01*
X131161928Y-78100000D01*
X126577867Y-78100000D01*
X126643695Y-78034172D01*
X126718748Y-77921848D01*
X126770445Y-77797040D01*
X126796800Y-77664545D01*
X126796800Y-77529455D01*
X126770445Y-77396960D01*
X126718748Y-77272152D01*
X126643695Y-77159828D01*
X126548172Y-77064305D01*
X126435848Y-76989252D01*
X126311040Y-76937555D01*
X126178545Y-76911200D01*
X126043455Y-76911200D01*
X125910960Y-76937555D01*
X125794288Y-76985882D01*
X125768322Y-76937304D01*
X125737708Y-76900000D01*
X131161928Y-76900000D01*
X131165000Y-77214250D01*
X131323750Y-77373000D01*
X132373000Y-77373000D01*
X132373000Y-76423750D01*
X132627000Y-76423750D01*
X132627000Y-77373000D01*
X133676250Y-77373000D01*
X133835000Y-77214250D01*
X133838072Y-76900000D01*
X133825812Y-76775518D01*
X133789502Y-76655820D01*
X133730537Y-76545506D01*
X133713709Y-76525000D01*
X135011928Y-76525000D01*
X135015000Y-77214250D01*
X135173750Y-77373000D01*
X136373000Y-77373000D01*
X136373000Y-76048750D01*
X136214250Y-75890000D01*
X135650000Y-75886928D01*
X135525518Y-75899188D01*
X135405820Y-75935498D01*
X135295506Y-75994463D01*
X135198815Y-76073815D01*
X135119463Y-76170506D01*
X135060498Y-76280820D01*
X135024188Y-76400518D01*
X135011928Y-76525000D01*
X133713709Y-76525000D01*
X133651185Y-76448815D01*
X133554494Y-76369463D01*
X133444180Y-76310498D01*
X133324482Y-76274188D01*
X133200000Y-76261928D01*
X132785750Y-76265000D01*
X132627000Y-76423750D01*
X132373000Y-76423750D01*
X132214250Y-76265000D01*
X131800000Y-76261928D01*
X131675518Y-76274188D01*
X131555820Y-76310498D01*
X131445506Y-76369463D01*
X131348815Y-76448815D01*
X131269463Y-76545506D01*
X131210498Y-76655820D01*
X131174188Y-76775518D01*
X131161928Y-76900000D01*
X125737708Y-76900000D01*
X125720711Y-76879289D01*
X125662696Y-76831678D01*
X125596508Y-76796299D01*
X125524689Y-76774513D01*
X125450000Y-76767157D01*
X124550000Y-76767157D01*
X124475311Y-76774513D01*
X124403492Y-76796299D01*
X124337304Y-76831678D01*
X124279289Y-76879289D01*
X124231678Y-76937304D01*
X124196299Y-77003492D01*
X124174513Y-77075311D01*
X124167157Y-77150000D01*
X116959335Y-77150000D01*
X116878505Y-77029030D01*
X116720970Y-76871495D01*
X116535729Y-76747721D01*
X116329900Y-76662464D01*
X116111394Y-76619000D01*
X115888606Y-76619000D01*
X115670100Y-76662464D01*
X115464271Y-76747721D01*
X115279030Y-76871495D01*
X115121495Y-77029030D01*
X114997721Y-77214271D01*
X114912464Y-77420100D01*
X114869000Y-77638606D01*
X95407027Y-77638606D01*
X91332843Y-73564423D01*
X91332843Y-73050000D01*
X91325487Y-72975311D01*
X91303701Y-72903492D01*
X91268322Y-72837304D01*
X91220711Y-72779289D01*
X91162696Y-72731678D01*
X91096508Y-72696299D01*
X91024689Y-72674513D01*
X90950000Y-72667157D01*
X90050000Y-72667157D01*
X89975311Y-72674513D01*
X89903492Y-72696299D01*
X89837304Y-72731678D01*
X89779289Y-72779289D01*
X89731678Y-72837304D01*
X89696299Y-72903492D01*
X89674513Y-72975311D01*
X89667157Y-73050000D01*
X89667157Y-73850000D01*
X89674513Y-73924689D01*
X89696299Y-73996508D01*
X89731678Y-74062696D01*
X89779289Y-74120711D01*
X89837304Y-74168322D01*
X89903492Y-74203701D01*
X89975311Y-74225487D01*
X90050000Y-74232843D01*
X90564423Y-74232843D01*
X97937879Y-81606300D01*
X78393700Y-81606300D01*
X78393700Y-78797722D01*
X78946237Y-78797722D01*
X78946237Y-79202278D01*
X79025162Y-79599060D01*
X79179979Y-79972821D01*
X79404738Y-80309197D01*
X79690803Y-80595262D01*
X80027179Y-80820021D01*
X80400940Y-80974838D01*
X80797722Y-81053763D01*
X81202278Y-81053763D01*
X81599060Y-80974838D01*
X81972821Y-80820021D01*
X82309197Y-80595262D01*
X82595262Y-80309197D01*
X82820021Y-79972821D01*
X82974838Y-79599060D01*
X83053763Y-79202278D01*
X83053763Y-78797722D01*
X82974838Y-78400940D01*
X82820021Y-78027179D01*
X82595262Y-77690803D01*
X82309197Y-77404738D01*
X81972821Y-77179979D01*
X81599060Y-77025162D01*
X81202278Y-76946237D01*
X80797722Y-76946237D01*
X80400940Y-77025162D01*
X80027179Y-77179979D01*
X79690803Y-77404738D01*
X79404738Y-77690803D01*
X79179979Y-78027179D01*
X79025162Y-78400940D01*
X78946237Y-78797722D01*
X78393700Y-78797722D01*
X78393700Y-69133682D01*
X85319000Y-69133682D01*
X85319000Y-69366318D01*
X85364386Y-69594485D01*
X85453412Y-69809413D01*
X85582658Y-70002843D01*
X85747157Y-70167342D01*
X85940587Y-70296588D01*
X86155515Y-70385614D01*
X86383682Y-70431000D01*
X86616318Y-70431000D01*
X86844485Y-70385614D01*
X86895898Y-70364318D01*
X87992001Y-71460422D01*
X87992001Y-71722869D01*
X87975311Y-71724513D01*
X87903492Y-71746299D01*
X87837304Y-71781678D01*
X87779289Y-71829289D01*
X87731678Y-71887304D01*
X87696299Y-71953492D01*
X87674513Y-72025311D01*
X87667157Y-72100000D01*
X87667157Y-72900000D01*
X87674513Y-72974689D01*
X87696299Y-73046508D01*
X87731678Y-73112696D01*
X87779289Y-73170711D01*
X87837304Y-73218322D01*
X87903492Y-73253701D01*
X87975311Y-73275487D01*
X88050000Y-73282843D01*
X88950000Y-73282843D01*
X89024689Y-73275487D01*
X89096508Y-73253701D01*
X89162696Y-73218322D01*
X89220711Y-73170711D01*
X89268322Y-73112696D01*
X89303701Y-73046508D01*
X89325487Y-72974689D01*
X89332843Y-72900000D01*
X89332843Y-72100000D01*
X89325487Y-72025311D01*
X89303701Y-71953492D01*
X89268322Y-71887304D01*
X89220711Y-71829289D01*
X89162696Y-71781678D01*
X89096508Y-71746299D01*
X89024689Y-71724513D01*
X89008000Y-71722869D01*
X89008000Y-71274943D01*
X89010457Y-71249999D01*
X89007247Y-71217406D01*
X89000649Y-71150415D01*
X89000524Y-71150000D01*
X89667157Y-71150000D01*
X89667157Y-71950000D01*
X89674513Y-72024689D01*
X89696299Y-72096508D01*
X89731678Y-72162696D01*
X89779289Y-72220711D01*
X89837304Y-72268322D01*
X89903492Y-72303701D01*
X89975311Y-72325487D01*
X90050000Y-72332843D01*
X90950000Y-72332843D01*
X91024689Y-72325487D01*
X91096508Y-72303701D01*
X91162696Y-72268322D01*
X91220711Y-72220711D01*
X91231968Y-72206993D01*
X115222612Y-72206993D01*
X115288137Y-72445860D01*
X115535116Y-72561760D01*
X115799960Y-72627250D01*
X116072492Y-72639812D01*
X116342238Y-72598965D01*
X116598832Y-72506277D01*
X116711863Y-72445860D01*
X116777388Y-72206993D01*
X116000000Y-71429605D01*
X115222612Y-72206993D01*
X91231968Y-72206993D01*
X91268322Y-72162696D01*
X91303701Y-72096508D01*
X91311644Y-72070322D01*
X91369152Y-72108748D01*
X91493960Y-72160445D01*
X91626455Y-72186800D01*
X91761545Y-72186800D01*
X91894040Y-72160445D01*
X92018848Y-72108748D01*
X92131172Y-72033695D01*
X92226695Y-71938172D01*
X92301748Y-71825848D01*
X92353445Y-71701040D01*
X92379800Y-71568545D01*
X92379800Y-71433455D01*
X92357728Y-71322492D01*
X114610188Y-71322492D01*
X114651035Y-71592238D01*
X114743723Y-71848832D01*
X114804140Y-71961863D01*
X115043007Y-72027388D01*
X115820395Y-71250000D01*
X116179605Y-71250000D01*
X116956993Y-72027388D01*
X117195860Y-71961863D01*
X117311760Y-71714884D01*
X117371077Y-71475000D01*
X135011928Y-71475000D01*
X135024188Y-71599482D01*
X135060498Y-71719180D01*
X135119463Y-71829494D01*
X135198815Y-71926185D01*
X135295506Y-72005537D01*
X135405820Y-72064502D01*
X135525518Y-72100812D01*
X135650000Y-72113072D01*
X136214250Y-72110000D01*
X136373000Y-71951250D01*
X136373000Y-70627000D01*
X135173750Y-70627000D01*
X135015000Y-70785750D01*
X135011928Y-71475000D01*
X117371077Y-71475000D01*
X117377250Y-71450040D01*
X117389812Y-71177508D01*
X117348965Y-70907762D01*
X117256277Y-70651168D01*
X117195860Y-70538137D01*
X116956993Y-70472612D01*
X116179605Y-71250000D01*
X115820395Y-71250000D01*
X115043007Y-70472612D01*
X114804140Y-70538137D01*
X114688240Y-70785116D01*
X114622750Y-71049960D01*
X114610188Y-71322492D01*
X92357728Y-71322492D01*
X92353445Y-71300960D01*
X92301748Y-71176152D01*
X92226695Y-71063828D01*
X92131172Y-70968305D01*
X92018848Y-70893252D01*
X91894040Y-70841555D01*
X91761545Y-70815200D01*
X91626455Y-70815200D01*
X91493960Y-70841555D01*
X91369152Y-70893252D01*
X91277507Y-70954488D01*
X91268322Y-70937304D01*
X91220711Y-70879289D01*
X91162696Y-70831678D01*
X91096508Y-70796299D01*
X91024689Y-70774513D01*
X90950000Y-70767157D01*
X90050000Y-70767157D01*
X89975311Y-70774513D01*
X89903492Y-70796299D01*
X89837304Y-70831678D01*
X89779289Y-70879289D01*
X89731678Y-70937304D01*
X89696299Y-71003492D01*
X89674513Y-71075311D01*
X89667157Y-71150000D01*
X89000524Y-71150000D01*
X88971601Y-71054657D01*
X88942574Y-71000352D01*
X88924429Y-70966404D01*
X88876850Y-70908429D01*
X88860948Y-70889052D01*
X88841571Y-70873150D01*
X87614318Y-69645898D01*
X87635614Y-69594485D01*
X87681000Y-69366318D01*
X87681000Y-69133682D01*
X87635614Y-68905515D01*
X87546588Y-68690587D01*
X87417342Y-68497157D01*
X87252843Y-68332658D01*
X87059413Y-68203412D01*
X86844485Y-68114386D01*
X86616318Y-68069000D01*
X86383682Y-68069000D01*
X86155515Y-68114386D01*
X85940587Y-68203412D01*
X85747157Y-68332658D01*
X85582658Y-68497157D01*
X85453412Y-68690587D01*
X85364386Y-68905515D01*
X85319000Y-69133682D01*
X78393700Y-69133682D01*
X78393700Y-62742702D01*
X85686903Y-62742702D01*
X85758486Y-62986671D01*
X86013996Y-63107571D01*
X86288184Y-63176300D01*
X86570512Y-63190217D01*
X86850130Y-63148787D01*
X87116292Y-63053603D01*
X87241514Y-62986671D01*
X87313097Y-62742702D01*
X86500000Y-61929605D01*
X85686903Y-62742702D01*
X78393700Y-62742702D01*
X78393700Y-61820512D01*
X85059783Y-61820512D01*
X85101213Y-62100130D01*
X85196397Y-62366292D01*
X85263329Y-62491514D01*
X85507298Y-62563097D01*
X86320395Y-61750000D01*
X86679605Y-61750000D01*
X87492702Y-62563097D01*
X87736671Y-62491514D01*
X87857571Y-62236004D01*
X87926300Y-61961816D01*
X87940217Y-61679488D01*
X87898787Y-61399870D01*
X87803603Y-61133708D01*
X87736671Y-61008486D01*
X87492702Y-60936903D01*
X86679605Y-61750000D01*
X86320395Y-61750000D01*
X85507298Y-60936903D01*
X85263329Y-61008486D01*
X85142429Y-61263996D01*
X85073700Y-61538184D01*
X85059783Y-61820512D01*
X78393700Y-61820512D01*
X78393700Y-60757298D01*
X85686903Y-60757298D01*
X86500000Y-61570395D01*
X87313097Y-60757298D01*
X87241514Y-60513329D01*
X86986004Y-60392429D01*
X86711816Y-60323700D01*
X86429488Y-60309783D01*
X86149870Y-60351213D01*
X85883708Y-60446397D01*
X85758486Y-60513329D01*
X85686903Y-60757298D01*
X78393700Y-60757298D01*
X78393700Y-50797722D01*
X78946237Y-50797722D01*
X78946237Y-51202278D01*
X79025162Y-51599060D01*
X79179979Y-51972821D01*
X79404738Y-52309197D01*
X79690803Y-52595262D01*
X80027179Y-52820021D01*
X80400940Y-52974838D01*
X80797722Y-53053763D01*
X81202278Y-53053763D01*
X81599060Y-52974838D01*
X81972821Y-52820021D01*
X82309197Y-52595262D01*
X82595262Y-52309197D01*
X82820021Y-51972821D01*
X82933027Y-51700000D01*
X85317157Y-51700000D01*
X85317157Y-54300000D01*
X85324513Y-54374689D01*
X85346299Y-54446508D01*
X85381678Y-54512696D01*
X85429289Y-54570711D01*
X85487304Y-54618322D01*
X85553492Y-54653701D01*
X85625311Y-54675487D01*
X85700000Y-54682843D01*
X86097977Y-54682843D01*
X101889915Y-70474782D01*
X102078316Y-70629398D01*
X102365132Y-70782704D01*
X102676347Y-70877110D01*
X103000000Y-70908988D01*
X103323652Y-70877110D01*
X103634867Y-70782704D01*
X103921683Y-70629398D01*
X104173081Y-70423081D01*
X104279829Y-70293007D01*
X115222612Y-70293007D01*
X116000000Y-71070395D01*
X116777388Y-70293007D01*
X116711863Y-70054140D01*
X116464884Y-69938240D01*
X116200040Y-69872750D01*
X115927508Y-69860188D01*
X115657762Y-69901035D01*
X115401168Y-69993723D01*
X115288137Y-70054140D01*
X115222612Y-70293007D01*
X104279829Y-70293007D01*
X104379398Y-70171683D01*
X104464750Y-70012000D01*
X108766577Y-70012000D01*
X108804000Y-70015686D01*
X108841423Y-70012000D01*
X108841426Y-70012000D01*
X108953378Y-70000974D01*
X109097015Y-69957402D01*
X109229392Y-69886645D01*
X109345422Y-69791422D01*
X109369284Y-69762346D01*
X114656630Y-64475000D01*
X126511928Y-64475000D01*
X126524188Y-64599482D01*
X126560498Y-64719180D01*
X126619463Y-64829494D01*
X126698815Y-64926185D01*
X126795506Y-65005537D01*
X126905820Y-65064502D01*
X127025518Y-65100812D01*
X127150000Y-65113072D01*
X127714250Y-65110000D01*
X127873000Y-64951250D01*
X127873000Y-63627000D01*
X126673750Y-63627000D01*
X126515000Y-63785750D01*
X126511928Y-64475000D01*
X114656630Y-64475000D01*
X116606630Y-62525000D01*
X126511928Y-62525000D01*
X126515000Y-63214250D01*
X126673750Y-63373000D01*
X127873000Y-63373000D01*
X127873000Y-62048750D01*
X127714250Y-61890000D01*
X127150000Y-61886928D01*
X127025518Y-61899188D01*
X126905820Y-61935498D01*
X126795506Y-61994463D01*
X126698815Y-62073815D01*
X126619463Y-62170506D01*
X126560498Y-62280820D01*
X126524188Y-62400518D01*
X126511928Y-62525000D01*
X116606630Y-62525000D01*
X117512353Y-61619278D01*
X117541422Y-61595422D01*
X117636645Y-61479392D01*
X117707402Y-61347015D01*
X117750974Y-61203378D01*
X117762000Y-61091426D01*
X117762000Y-61091424D01*
X117765686Y-61054001D01*
X117762000Y-61016578D01*
X117762000Y-54682843D01*
X118300000Y-54682843D01*
X118374689Y-54675487D01*
X118446508Y-54653701D01*
X118512696Y-54618322D01*
X118570711Y-54570711D01*
X118618322Y-54512696D01*
X118653701Y-54446508D01*
X118675487Y-54374689D01*
X118682843Y-54300000D01*
X118682843Y-51826999D01*
X119749369Y-51826999D01*
X120397788Y-52475418D01*
X120383600Y-52509670D01*
X120319000Y-52834436D01*
X120319000Y-53165564D01*
X120383600Y-53490330D01*
X120510317Y-53796252D01*
X120694282Y-54071575D01*
X120928425Y-54305718D01*
X121203748Y-54489683D01*
X121509670Y-54616400D01*
X121834436Y-54681000D01*
X122165564Y-54681000D01*
X122490330Y-54616400D01*
X122796252Y-54489683D01*
X123071575Y-54305718D01*
X123305718Y-54071575D01*
X123489683Y-53796252D01*
X123616400Y-53490330D01*
X123681000Y-53165564D01*
X123681000Y-52834436D01*
X125319000Y-52834436D01*
X125319000Y-53165564D01*
X125383600Y-53490330D01*
X125510317Y-53796252D01*
X125694282Y-54071575D01*
X125928425Y-54305718D01*
X126203748Y-54489683D01*
X126509670Y-54616400D01*
X126834436Y-54681000D01*
X127165564Y-54681000D01*
X127490330Y-54616400D01*
X127796252Y-54489683D01*
X128071575Y-54305718D01*
X128305718Y-54071575D01*
X128489683Y-53796252D01*
X128616400Y-53490330D01*
X128681000Y-53165564D01*
X128681000Y-52834436D01*
X128616400Y-52509670D01*
X128489683Y-52203748D01*
X128305718Y-51928425D01*
X128071575Y-51694282D01*
X127796252Y-51510317D01*
X127490330Y-51383600D01*
X127165564Y-51319000D01*
X126834436Y-51319000D01*
X126509670Y-51383600D01*
X126203748Y-51510317D01*
X125928425Y-51694282D01*
X125694282Y-51928425D01*
X125510317Y-52203748D01*
X125383600Y-52509670D01*
X125319000Y-52834436D01*
X123681000Y-52834436D01*
X123616400Y-52509670D01*
X123489683Y-52203748D01*
X123305718Y-51928425D01*
X123071575Y-51694282D01*
X122796252Y-51510317D01*
X122490330Y-51383600D01*
X122165564Y-51319000D01*
X121834436Y-51319000D01*
X121509670Y-51383600D01*
X121475418Y-51397788D01*
X120630283Y-50552653D01*
X120606421Y-50523577D01*
X120490391Y-50428354D01*
X120358014Y-50357597D01*
X120214377Y-50314025D01*
X120102425Y-50302999D01*
X120102422Y-50302999D01*
X120064999Y-50299313D01*
X120027576Y-50302999D01*
X108972424Y-50302999D01*
X108935001Y-50299313D01*
X108897578Y-50302999D01*
X108897575Y-50302999D01*
X108785623Y-50314025D01*
X108641986Y-50357597D01*
X108580365Y-50390534D01*
X108509608Y-50428354D01*
X108467220Y-50463142D01*
X108393579Y-50523577D01*
X108369717Y-50552653D01*
X107628618Y-51293752D01*
X105400786Y-49065920D01*
X105349081Y-49002917D01*
X105097683Y-48796601D01*
X104810866Y-48643294D01*
X104499652Y-48548888D01*
X104257103Y-48524999D01*
X104257100Y-48524999D01*
X104175999Y-48517011D01*
X104094898Y-48524999D01*
X94905105Y-48524999D01*
X94824001Y-48517011D01*
X94742897Y-48524999D01*
X94500348Y-48548888D01*
X94189134Y-48643294D01*
X93902317Y-48796601D01*
X93650919Y-49002917D01*
X93599214Y-49065920D01*
X91056286Y-51608848D01*
X90928425Y-51694282D01*
X90694282Y-51928425D01*
X90510317Y-52203748D01*
X90383600Y-52509670D01*
X90319000Y-52834436D01*
X90319000Y-53165564D01*
X90383600Y-53490330D01*
X90510317Y-53796252D01*
X90694282Y-54071575D01*
X90928425Y-54305718D01*
X91203748Y-54489683D01*
X91509670Y-54616400D01*
X91834436Y-54681000D01*
X92165564Y-54681000D01*
X92490330Y-54616400D01*
X92796252Y-54489683D01*
X93071575Y-54305718D01*
X93305718Y-54071575D01*
X93391152Y-53943714D01*
X95507867Y-51826999D01*
X95795708Y-51826999D01*
X95694282Y-51928425D01*
X95510317Y-52203748D01*
X95383600Y-52509670D01*
X95319000Y-52834436D01*
X95319000Y-53165564D01*
X95349000Y-53316385D01*
X95349001Y-57040889D01*
X95341012Y-57122000D01*
X95369896Y-57415259D01*
X95372890Y-57445653D01*
X95419585Y-57599584D01*
X95467296Y-57756867D01*
X95620602Y-58043683D01*
X95775218Y-58232084D01*
X95826919Y-58295082D01*
X95889916Y-58346782D01*
X103931213Y-66388079D01*
X103982918Y-66451082D01*
X104234316Y-66657398D01*
X104521133Y-66810705D01*
X104832347Y-66905111D01*
X105074896Y-66929000D01*
X105074899Y-66929000D01*
X105156000Y-66936988D01*
X105237101Y-66929000D01*
X108249899Y-66929000D01*
X108331000Y-66936988D01*
X108412101Y-66929000D01*
X108412104Y-66929000D01*
X108654653Y-66905111D01*
X108965867Y-66810705D01*
X109252684Y-66657398D01*
X109504082Y-66451082D01*
X109555787Y-66388079D01*
X113110080Y-62833786D01*
X113173082Y-62782082D01*
X113379398Y-62530684D01*
X113389197Y-62512351D01*
X113532705Y-62243868D01*
X113579133Y-62090815D01*
X113627111Y-61932653D01*
X113651000Y-61690104D01*
X113651000Y-61690101D01*
X113658988Y-61609000D01*
X113651000Y-61527899D01*
X113651000Y-53316384D01*
X113681000Y-53165564D01*
X113681000Y-52834436D01*
X113616400Y-52509670D01*
X113489683Y-52203748D01*
X113305718Y-51928425D01*
X113204292Y-51826999D01*
X115317157Y-51826999D01*
X115317157Y-54300000D01*
X115324513Y-54374689D01*
X115346299Y-54446508D01*
X115381678Y-54512696D01*
X115429289Y-54570711D01*
X115487304Y-54618322D01*
X115553492Y-54653701D01*
X115625311Y-54675487D01*
X115700000Y-54682843D01*
X116238001Y-54682843D01*
X116238000Y-60738369D01*
X108488370Y-68488000D01*
X104464751Y-68488000D01*
X104379398Y-68328316D01*
X104224782Y-68139915D01*
X88682843Y-52597977D01*
X88682843Y-51700000D01*
X88675487Y-51625311D01*
X88653701Y-51553492D01*
X88618322Y-51487304D01*
X88570711Y-51429289D01*
X88512696Y-51381678D01*
X88446508Y-51346299D01*
X88374689Y-51324513D01*
X88300000Y-51317157D01*
X85700000Y-51317157D01*
X85625311Y-51324513D01*
X85553492Y-51346299D01*
X85487304Y-51381678D01*
X85429289Y-51429289D01*
X85381678Y-51487304D01*
X85346299Y-51553492D01*
X85324513Y-51625311D01*
X85317157Y-51700000D01*
X82933027Y-51700000D01*
X82974838Y-51599060D01*
X83053763Y-51202278D01*
X83053763Y-50797722D01*
X82974838Y-50400940D01*
X82820021Y-50027179D01*
X82595262Y-49690803D01*
X82309197Y-49404738D01*
X81972821Y-49179979D01*
X81599060Y-49025162D01*
X81202278Y-48946237D01*
X80797722Y-48946237D01*
X80400940Y-49025162D01*
X80027179Y-49179979D01*
X79690803Y-49404738D01*
X79404738Y-49690803D01*
X79179979Y-50027179D01*
X79025162Y-50400940D01*
X78946237Y-50797722D01*
X78393700Y-50797722D01*
X78393700Y-48393700D01*
X177606300Y-48393700D01*
X177606300Y-51278317D01*
G37*
G04 #@! TD.AperFunction*
D24*
X155830898Y-71389754D02*
X155785750Y-71390000D01*
X155627000Y-71548750D01*
X155627000Y-72873000D01*
X156826250Y-72873000D01*
X156985000Y-72714250D01*
X156985756Y-72544613D01*
X157102714Y-72661571D01*
X157118616Y-72680948D01*
X157137993Y-72696850D01*
X157195968Y-72744429D01*
X157261187Y-72779289D01*
X157284221Y-72791601D01*
X157379979Y-72820649D01*
X157454617Y-72828000D01*
X157454619Y-72828000D01*
X157479563Y-72830457D01*
X157504507Y-72828000D01*
X160040796Y-72828000D01*
X160089522Y-72945634D01*
X160234067Y-73161961D01*
X160418039Y-73345933D01*
X160634366Y-73490478D01*
X160874633Y-73590000D01*
X160634366Y-73689522D01*
X160418039Y-73834067D01*
X160234067Y-74018039D01*
X160089522Y-74234366D01*
X159989957Y-74474737D01*
X159939200Y-74729913D01*
X159939200Y-74990087D01*
X159989957Y-75245263D01*
X160089522Y-75485634D01*
X160234067Y-75701961D01*
X160418039Y-75885933D01*
X160634366Y-76030478D01*
X160874633Y-76130000D01*
X160634366Y-76229522D01*
X160418039Y-76374067D01*
X160234067Y-76558039D01*
X160089522Y-76774366D01*
X160040796Y-76892000D01*
X146110420Y-76892000D01*
X142175875Y-72957455D01*
X145237200Y-72957455D01*
X145237200Y-73092545D01*
X145263555Y-73225040D01*
X145315252Y-73349848D01*
X145390305Y-73462172D01*
X145485828Y-73557695D01*
X145598152Y-73632748D01*
X145722960Y-73684445D01*
X145855455Y-73710800D01*
X145990545Y-73710800D01*
X146123040Y-73684445D01*
X146247848Y-73632748D01*
X146360172Y-73557695D01*
X146384867Y-73533000D01*
X146837375Y-73533000D01*
X146857202Y-73598362D01*
X146971509Y-73812215D01*
X147125340Y-73999660D01*
X147312784Y-74153491D01*
X147526637Y-74267798D01*
X147758682Y-74338188D01*
X148000000Y-74361956D01*
X148241317Y-74338188D01*
X148473362Y-74267798D01*
X148522900Y-74241320D01*
X150061145Y-75779565D01*
X150077052Y-75798948D01*
X150154405Y-75862429D01*
X150242657Y-75909601D01*
X150338415Y-75938649D01*
X150413053Y-75946000D01*
X150413056Y-75946000D01*
X150438000Y-75948457D01*
X150462944Y-75946000D01*
X151303133Y-75946000D01*
X151327828Y-75970695D01*
X151440152Y-76045748D01*
X151564960Y-76097445D01*
X151697455Y-76123800D01*
X151832545Y-76123800D01*
X151965040Y-76097445D01*
X152089848Y-76045748D01*
X152202172Y-75970695D01*
X152297695Y-75875172D01*
X152372748Y-75762848D01*
X152424445Y-75638040D01*
X152450800Y-75505545D01*
X152450800Y-75370455D01*
X152424445Y-75237960D01*
X152372748Y-75113152D01*
X152297695Y-75000828D01*
X152202172Y-74905305D01*
X152089848Y-74830252D01*
X151965040Y-74778555D01*
X151832545Y-74752200D01*
X151697455Y-74752200D01*
X151564960Y-74778555D01*
X151440152Y-74830252D01*
X151327828Y-74905305D01*
X151303133Y-74930000D01*
X150648420Y-74930000D01*
X149939806Y-74221386D01*
X150026637Y-74267798D01*
X150258682Y-74338188D01*
X150500000Y-74361956D01*
X150741317Y-74338188D01*
X150973362Y-74267798D01*
X151187215Y-74153491D01*
X151374660Y-73999660D01*
X151528491Y-73812216D01*
X151642798Y-73598363D01*
X151713188Y-73366318D01*
X151731000Y-73185472D01*
X151731000Y-72814529D01*
X151731000Y-72814528D01*
X151769000Y-72814528D01*
X151769000Y-73185471D01*
X151786812Y-73366317D01*
X151857202Y-73598362D01*
X151971509Y-73812215D01*
X152125340Y-73999660D01*
X152312784Y-74153491D01*
X152526637Y-74267798D01*
X152758682Y-74338188D01*
X153000000Y-74361956D01*
X153241317Y-74338188D01*
X153473362Y-74267798D01*
X153687215Y-74153491D01*
X153874660Y-73999660D01*
X154012567Y-73831619D01*
X154011928Y-73975000D01*
X154024188Y-74099482D01*
X154060498Y-74219180D01*
X154119463Y-74329494D01*
X154198815Y-74426185D01*
X154295506Y-74505537D01*
X154405820Y-74564502D01*
X154525518Y-74600812D01*
X154650000Y-74613072D01*
X155214250Y-74610000D01*
X155373000Y-74451250D01*
X155373000Y-73127000D01*
X155627000Y-73127000D01*
X155627000Y-74451250D01*
X155785750Y-74610000D01*
X156350000Y-74613072D01*
X156474482Y-74600812D01*
X156594180Y-74564502D01*
X156704494Y-74505537D01*
X156801185Y-74426185D01*
X156880537Y-74329494D01*
X156939502Y-74219180D01*
X156975812Y-74099482D01*
X156988072Y-73975000D01*
X156985000Y-73285750D01*
X156826250Y-73127000D01*
X155627000Y-73127000D01*
X155373000Y-73127000D01*
X155353000Y-73127000D01*
X155353000Y-72873000D01*
X155373000Y-72873000D01*
X155373000Y-71548750D01*
X155214250Y-71390000D01*
X154650000Y-71386928D01*
X154525518Y-71399188D01*
X154405820Y-71435498D01*
X154295506Y-71494463D01*
X154198815Y-71573815D01*
X154119463Y-71670506D01*
X154060498Y-71780820D01*
X154024188Y-71900518D01*
X154011928Y-72025000D01*
X154012567Y-72168381D01*
X153874660Y-72000340D01*
X153687216Y-71846509D01*
X153473363Y-71732202D01*
X153241318Y-71661812D01*
X153000000Y-71638044D01*
X152758683Y-71661812D01*
X152526638Y-71732202D01*
X152312785Y-71846509D01*
X152125341Y-72000340D01*
X151971509Y-72187784D01*
X151857202Y-72401637D01*
X151786812Y-72633682D01*
X151769000Y-72814528D01*
X151731000Y-72814528D01*
X151713188Y-72633683D01*
X151642798Y-72401638D01*
X151528491Y-72187785D01*
X151374660Y-72000340D01*
X151187216Y-71846509D01*
X150973363Y-71732202D01*
X150741318Y-71661812D01*
X150500000Y-71638044D01*
X150258683Y-71661812D01*
X150026638Y-71732202D01*
X149812785Y-71846509D01*
X149625341Y-72000340D01*
X149471509Y-72187784D01*
X149357202Y-72401637D01*
X149286812Y-72633682D01*
X149269000Y-72814528D01*
X149269000Y-73185471D01*
X149286812Y-73366317D01*
X149357202Y-73598362D01*
X149403616Y-73685196D01*
X149183292Y-73464872D01*
X149213188Y-73366318D01*
X149231000Y-73185472D01*
X149231000Y-72814529D01*
X149213188Y-72633683D01*
X149142798Y-72401638D01*
X149028491Y-72187785D01*
X148874660Y-72000340D01*
X148687216Y-71846509D01*
X148473363Y-71732202D01*
X148241318Y-71661812D01*
X148000000Y-71638044D01*
X147758683Y-71661812D01*
X147526638Y-71732202D01*
X147312785Y-71846509D01*
X147125341Y-72000340D01*
X146971509Y-72187784D01*
X146857202Y-72401637D01*
X146822207Y-72517000D01*
X146384867Y-72517000D01*
X146360172Y-72492305D01*
X146247848Y-72417252D01*
X146123040Y-72365555D01*
X145990545Y-72339200D01*
X145855455Y-72339200D01*
X145722960Y-72365555D01*
X145598152Y-72417252D01*
X145485828Y-72492305D01*
X145390305Y-72587828D01*
X145315252Y-72700152D01*
X145263555Y-72824960D01*
X145237200Y-72957455D01*
X142175875Y-72957455D01*
X140939804Y-71721384D01*
X141026638Y-71767798D01*
X141258683Y-71838188D01*
X141500000Y-71861956D01*
X141741318Y-71838188D01*
X141973363Y-71767798D01*
X142187216Y-71653491D01*
X142374660Y-71499660D01*
X142528491Y-71312215D01*
X142642798Y-71098362D01*
X142713188Y-70866317D01*
X142731000Y-70685471D01*
X142731000Y-70314528D01*
X142713188Y-70133682D01*
X142642798Y-69901637D01*
X142528491Y-69687784D01*
X142506518Y-69661010D01*
X154102154Y-69661010D01*
X155830898Y-71389754D01*
G04 #@! TA.AperFunction,Conductor*
D27*
G36*
X155830898Y-71389754D02*
G01*
X155785750Y-71390000D01*
X155627000Y-71548750D01*
X155627000Y-72873000D01*
X156826250Y-72873000D01*
X156985000Y-72714250D01*
X156985756Y-72544613D01*
X157102714Y-72661571D01*
X157118616Y-72680948D01*
X157137993Y-72696850D01*
X157195968Y-72744429D01*
X157261187Y-72779289D01*
X157284221Y-72791601D01*
X157379979Y-72820649D01*
X157454617Y-72828000D01*
X157454619Y-72828000D01*
X157479563Y-72830457D01*
X157504507Y-72828000D01*
X160040796Y-72828000D01*
X160089522Y-72945634D01*
X160234067Y-73161961D01*
X160418039Y-73345933D01*
X160634366Y-73490478D01*
X160874633Y-73590000D01*
X160634366Y-73689522D01*
X160418039Y-73834067D01*
X160234067Y-74018039D01*
X160089522Y-74234366D01*
X159989957Y-74474737D01*
X159939200Y-74729913D01*
X159939200Y-74990087D01*
X159989957Y-75245263D01*
X160089522Y-75485634D01*
X160234067Y-75701961D01*
X160418039Y-75885933D01*
X160634366Y-76030478D01*
X160874633Y-76130000D01*
X160634366Y-76229522D01*
X160418039Y-76374067D01*
X160234067Y-76558039D01*
X160089522Y-76774366D01*
X160040796Y-76892000D01*
X146110420Y-76892000D01*
X142175875Y-72957455D01*
X145237200Y-72957455D01*
X145237200Y-73092545D01*
X145263555Y-73225040D01*
X145315252Y-73349848D01*
X145390305Y-73462172D01*
X145485828Y-73557695D01*
X145598152Y-73632748D01*
X145722960Y-73684445D01*
X145855455Y-73710800D01*
X145990545Y-73710800D01*
X146123040Y-73684445D01*
X146247848Y-73632748D01*
X146360172Y-73557695D01*
X146384867Y-73533000D01*
X146837375Y-73533000D01*
X146857202Y-73598362D01*
X146971509Y-73812215D01*
X147125340Y-73999660D01*
X147312784Y-74153491D01*
X147526637Y-74267798D01*
X147758682Y-74338188D01*
X148000000Y-74361956D01*
X148241317Y-74338188D01*
X148473362Y-74267798D01*
X148522900Y-74241320D01*
X150061145Y-75779565D01*
X150077052Y-75798948D01*
X150154405Y-75862429D01*
X150242657Y-75909601D01*
X150338415Y-75938649D01*
X150413053Y-75946000D01*
X150413056Y-75946000D01*
X150438000Y-75948457D01*
X150462944Y-75946000D01*
X151303133Y-75946000D01*
X151327828Y-75970695D01*
X151440152Y-76045748D01*
X151564960Y-76097445D01*
X151697455Y-76123800D01*
X151832545Y-76123800D01*
X151965040Y-76097445D01*
X152089848Y-76045748D01*
X152202172Y-75970695D01*
X152297695Y-75875172D01*
X152372748Y-75762848D01*
X152424445Y-75638040D01*
X152450800Y-75505545D01*
X152450800Y-75370455D01*
X152424445Y-75237960D01*
X152372748Y-75113152D01*
X152297695Y-75000828D01*
X152202172Y-74905305D01*
X152089848Y-74830252D01*
X151965040Y-74778555D01*
X151832545Y-74752200D01*
X151697455Y-74752200D01*
X151564960Y-74778555D01*
X151440152Y-74830252D01*
X151327828Y-74905305D01*
X151303133Y-74930000D01*
X150648420Y-74930000D01*
X149939806Y-74221386D01*
X150026637Y-74267798D01*
X150258682Y-74338188D01*
X150500000Y-74361956D01*
X150741317Y-74338188D01*
X150973362Y-74267798D01*
X151187215Y-74153491D01*
X151374660Y-73999660D01*
X151528491Y-73812216D01*
X151642798Y-73598363D01*
X151713188Y-73366318D01*
X151731000Y-73185472D01*
X151731000Y-72814529D01*
X151731000Y-72814528D01*
X151769000Y-72814528D01*
X151769000Y-73185471D01*
X151786812Y-73366317D01*
X151857202Y-73598362D01*
X151971509Y-73812215D01*
X152125340Y-73999660D01*
X152312784Y-74153491D01*
X152526637Y-74267798D01*
X152758682Y-74338188D01*
X153000000Y-74361956D01*
X153241317Y-74338188D01*
X153473362Y-74267798D01*
X153687215Y-74153491D01*
X153874660Y-73999660D01*
X154012567Y-73831619D01*
X154011928Y-73975000D01*
X154024188Y-74099482D01*
X154060498Y-74219180D01*
X154119463Y-74329494D01*
X154198815Y-74426185D01*
X154295506Y-74505537D01*
X154405820Y-74564502D01*
X154525518Y-74600812D01*
X154650000Y-74613072D01*
X155214250Y-74610000D01*
X155373000Y-74451250D01*
X155373000Y-73127000D01*
X155627000Y-73127000D01*
X155627000Y-74451250D01*
X155785750Y-74610000D01*
X156350000Y-74613072D01*
X156474482Y-74600812D01*
X156594180Y-74564502D01*
X156704494Y-74505537D01*
X156801185Y-74426185D01*
X156880537Y-74329494D01*
X156939502Y-74219180D01*
X156975812Y-74099482D01*
X156988072Y-73975000D01*
X156985000Y-73285750D01*
X156826250Y-73127000D01*
X155627000Y-73127000D01*
X155373000Y-73127000D01*
X155353000Y-73127000D01*
X155353000Y-72873000D01*
X155373000Y-72873000D01*
X155373000Y-71548750D01*
X155214250Y-71390000D01*
X154650000Y-71386928D01*
X154525518Y-71399188D01*
X154405820Y-71435498D01*
X154295506Y-71494463D01*
X154198815Y-71573815D01*
X154119463Y-71670506D01*
X154060498Y-71780820D01*
X154024188Y-71900518D01*
X154011928Y-72025000D01*
X154012567Y-72168381D01*
X153874660Y-72000340D01*
X153687216Y-71846509D01*
X153473363Y-71732202D01*
X153241318Y-71661812D01*
X153000000Y-71638044D01*
X152758683Y-71661812D01*
X152526638Y-71732202D01*
X152312785Y-71846509D01*
X152125341Y-72000340D01*
X151971509Y-72187784D01*
X151857202Y-72401637D01*
X151786812Y-72633682D01*
X151769000Y-72814528D01*
X151731000Y-72814528D01*
X151713188Y-72633683D01*
X151642798Y-72401638D01*
X151528491Y-72187785D01*
X151374660Y-72000340D01*
X151187216Y-71846509D01*
X150973363Y-71732202D01*
X150741318Y-71661812D01*
X150500000Y-71638044D01*
X150258683Y-71661812D01*
X150026638Y-71732202D01*
X149812785Y-71846509D01*
X149625341Y-72000340D01*
X149471509Y-72187784D01*
X149357202Y-72401637D01*
X149286812Y-72633682D01*
X149269000Y-72814528D01*
X149269000Y-73185471D01*
X149286812Y-73366317D01*
X149357202Y-73598362D01*
X149403616Y-73685196D01*
X149183292Y-73464872D01*
X149213188Y-73366318D01*
X149231000Y-73185472D01*
X149231000Y-72814529D01*
X149213188Y-72633683D01*
X149142798Y-72401638D01*
X149028491Y-72187785D01*
X148874660Y-72000340D01*
X148687216Y-71846509D01*
X148473363Y-71732202D01*
X148241318Y-71661812D01*
X148000000Y-71638044D01*
X147758683Y-71661812D01*
X147526638Y-71732202D01*
X147312785Y-71846509D01*
X147125341Y-72000340D01*
X146971509Y-72187784D01*
X146857202Y-72401637D01*
X146822207Y-72517000D01*
X146384867Y-72517000D01*
X146360172Y-72492305D01*
X146247848Y-72417252D01*
X146123040Y-72365555D01*
X145990545Y-72339200D01*
X145855455Y-72339200D01*
X145722960Y-72365555D01*
X145598152Y-72417252D01*
X145485828Y-72492305D01*
X145390305Y-72587828D01*
X145315252Y-72700152D01*
X145263555Y-72824960D01*
X145237200Y-72957455D01*
X142175875Y-72957455D01*
X140939804Y-71721384D01*
X141026638Y-71767798D01*
X141258683Y-71838188D01*
X141500000Y-71861956D01*
X141741318Y-71838188D01*
X141973363Y-71767798D01*
X142187216Y-71653491D01*
X142374660Y-71499660D01*
X142528491Y-71312215D01*
X142642798Y-71098362D01*
X142713188Y-70866317D01*
X142731000Y-70685471D01*
X142731000Y-70314528D01*
X142713188Y-70133682D01*
X142642798Y-69901637D01*
X142528491Y-69687784D01*
X142506518Y-69661010D01*
X154102154Y-69661010D01*
X155830898Y-71389754D01*
G37*
G04 #@! TD.AperFunction*
D24*
X151843408Y-66863436D02*
X151785750Y-66864000D01*
X151627000Y-67022750D01*
X151627000Y-68072000D01*
X152576250Y-68072000D01*
X152735000Y-67913250D01*
X152736165Y-67756193D01*
X153624982Y-68645010D01*
X152736188Y-68645010D01*
X152735000Y-68484750D01*
X152576250Y-68326000D01*
X151627000Y-68326000D01*
X151627000Y-68346000D01*
X151373000Y-68346000D01*
X151373000Y-68326000D01*
X151353000Y-68326000D01*
X151353000Y-68072000D01*
X151373000Y-68072000D01*
X151373000Y-67022750D01*
X151214250Y-66864000D01*
X150900000Y-66860928D01*
X150775518Y-66873188D01*
X150655820Y-66909498D01*
X150545506Y-66968463D01*
X150448815Y-67047815D01*
X150369463Y-67144506D01*
X150310498Y-67254820D01*
X150296564Y-67300754D01*
X150259517Y-67270350D01*
X150265445Y-67256040D01*
X150291800Y-67123545D01*
X150291800Y-66988455D01*
X150265445Y-66855960D01*
X150213748Y-66731152D01*
X150138695Y-66618828D01*
X150112887Y-66593020D01*
X151572992Y-66593020D01*
X151843408Y-66863436D01*
G04 #@! TA.AperFunction,Conductor*
D27*
G36*
X151843408Y-66863436D02*
G01*
X151785750Y-66864000D01*
X151627000Y-67022750D01*
X151627000Y-68072000D01*
X152576250Y-68072000D01*
X152735000Y-67913250D01*
X152736165Y-67756193D01*
X153624982Y-68645010D01*
X152736188Y-68645010D01*
X152735000Y-68484750D01*
X152576250Y-68326000D01*
X151627000Y-68326000D01*
X151627000Y-68346000D01*
X151373000Y-68346000D01*
X151373000Y-68326000D01*
X151353000Y-68326000D01*
X151353000Y-68072000D01*
X151373000Y-68072000D01*
X151373000Y-67022750D01*
X151214250Y-66864000D01*
X150900000Y-66860928D01*
X150775518Y-66873188D01*
X150655820Y-66909498D01*
X150545506Y-66968463D01*
X150448815Y-67047815D01*
X150369463Y-67144506D01*
X150310498Y-67254820D01*
X150296564Y-67300754D01*
X150259517Y-67270350D01*
X150265445Y-67256040D01*
X150291800Y-67123545D01*
X150291800Y-66988455D01*
X150265445Y-66855960D01*
X150213748Y-66731152D01*
X150138695Y-66618828D01*
X150112887Y-66593020D01*
X151572992Y-66593020D01*
X151843408Y-66863436D01*
G37*
G04 #@! TD.AperFunction*
M02*
