G04 #@! TF.GenerationSoftware,KiCad,Pcbnew,(5.1.9)-1*
G04 #@! TF.CreationDate,2021-06-06T22:42:38-05:00*
G04 #@! TF.ProjectId,BoilerBot,426f696c-6572-4426-9f74-2e6b69636164,rev?*
G04 #@! TF.SameCoordinates,Original*
G04 #@! TF.FileFunction,Paste,Top*
G04 #@! TF.FilePolarity,Positive*
%FSLAX46Y46*%
G04 Gerber Fmt 4.6, Leading zero omitted, Abs format (unit mm)*
G04 Created by KiCad (PCBNEW (5.1.9)-1) date 2021-06-06 22:42:38*
%MOMM*%
%LPD*%
G01*
G04 APERTURE LIST*
%ADD10R,1.500000X2.000000*%
%ADD11R,3.800000X2.000000*%
%ADD12R,0.900000X0.800000*%
G04 APERTURE END LIST*
G36*
G01*
X93900000Y-73950001D02*
X93900000Y-73049999D01*
G75*
G02*
X94149999Y-72800000I249999J0D01*
G01*
X94850001Y-72800000D01*
G75*
G02*
X95100000Y-73049999I0J-249999D01*
G01*
X95100000Y-73950001D01*
G75*
G02*
X94850001Y-74200000I-249999J0D01*
G01*
X94149999Y-74200000D01*
G75*
G02*
X93900000Y-73950001I0J249999D01*
G01*
G37*
G36*
G01*
X91900000Y-73950001D02*
X91900000Y-73049999D01*
G75*
G02*
X92149999Y-72800000I249999J0D01*
G01*
X92850001Y-72800000D01*
G75*
G02*
X93100000Y-73049999I0J-249999D01*
G01*
X93100000Y-73950001D01*
G75*
G02*
X92850001Y-74200000I-249999J0D01*
G01*
X92149999Y-74200000D01*
G75*
G02*
X91900000Y-73950001I0J249999D01*
G01*
G37*
G36*
G01*
X122900000Y-80450001D02*
X122900000Y-79549999D01*
G75*
G02*
X123149999Y-79300000I249999J0D01*
G01*
X123850001Y-79300000D01*
G75*
G02*
X124100000Y-79549999I0J-249999D01*
G01*
X124100000Y-80450001D01*
G75*
G02*
X123850001Y-80700000I-249999J0D01*
G01*
X123149999Y-80700000D01*
G75*
G02*
X122900000Y-80450001I0J249999D01*
G01*
G37*
G36*
G01*
X120900000Y-80450001D02*
X120900000Y-79549999D01*
G75*
G02*
X121149999Y-79300000I249999J0D01*
G01*
X121850001Y-79300000D01*
G75*
G02*
X122100000Y-79549999I0J-249999D01*
G01*
X122100000Y-80450001D01*
G75*
G02*
X121850001Y-80700000I-249999J0D01*
G01*
X121149999Y-80700000D01*
G75*
G02*
X120900000Y-80450001I0J249999D01*
G01*
G37*
G36*
G01*
X152950000Y-62750000D02*
X154050000Y-62750000D01*
G75*
G02*
X154300000Y-63000000I0J-250000D01*
G01*
X154300000Y-66000000D01*
G75*
G02*
X154050000Y-66250000I-250000J0D01*
G01*
X152950000Y-66250000D01*
G75*
G02*
X152700000Y-66000000I0J250000D01*
G01*
X152700000Y-63000000D01*
G75*
G02*
X152950000Y-62750000I250000J0D01*
G01*
G37*
G36*
G01*
X152950000Y-57350000D02*
X154050000Y-57350000D01*
G75*
G02*
X154300000Y-57600000I0J-250000D01*
G01*
X154300000Y-60600000D01*
G75*
G02*
X154050000Y-60850000I-250000J0D01*
G01*
X152950000Y-60850000D01*
G75*
G02*
X152700000Y-60600000I0J250000D01*
G01*
X152700000Y-57600000D01*
G75*
G02*
X152950000Y-57350000I250000J0D01*
G01*
G37*
G36*
G01*
X148135000Y-61910000D02*
X147365000Y-61910000D01*
G75*
G02*
X147125000Y-61670000I0J240000D01*
G01*
X147125000Y-61190000D01*
G75*
G02*
X147365000Y-60950000I240000J0D01*
G01*
X148135000Y-60950000D01*
G75*
G02*
X148375000Y-61190000I0J-240000D01*
G01*
X148375000Y-61670000D01*
G75*
G02*
X148135000Y-61910000I-240000J0D01*
G01*
G37*
G36*
G01*
X146635000Y-61910000D02*
X145865000Y-61910000D01*
G75*
G02*
X145625000Y-61670000I0J240000D01*
G01*
X145625000Y-61190000D01*
G75*
G02*
X145865000Y-60950000I240000J0D01*
G01*
X146635000Y-60950000D01*
G75*
G02*
X146875000Y-61190000I0J-240000D01*
G01*
X146875000Y-61670000D01*
G75*
G02*
X146635000Y-61910000I-240000J0D01*
G01*
G37*
G36*
G01*
X148135000Y-63050000D02*
X147365000Y-63050000D01*
G75*
G02*
X147125000Y-62810000I0J240000D01*
G01*
X147125000Y-62330000D01*
G75*
G02*
X147365000Y-62090000I240000J0D01*
G01*
X148135000Y-62090000D01*
G75*
G02*
X148375000Y-62330000I0J-240000D01*
G01*
X148375000Y-62810000D01*
G75*
G02*
X148135000Y-63050000I-240000J0D01*
G01*
G37*
G36*
G01*
X146635000Y-63050000D02*
X145865000Y-63050000D01*
G75*
G02*
X145625000Y-62810000I0J240000D01*
G01*
X145625000Y-62330000D01*
G75*
G02*
X145865000Y-62090000I240000J0D01*
G01*
X146635000Y-62090000D01*
G75*
G02*
X146875000Y-62330000I0J-240000D01*
G01*
X146875000Y-62810000D01*
G75*
G02*
X146635000Y-63050000I-240000J0D01*
G01*
G37*
G36*
G01*
X145245000Y-60500000D02*
X144945000Y-60500000D01*
G75*
G02*
X144795000Y-60350000I0J150000D01*
G01*
X144795000Y-58700000D01*
G75*
G02*
X144945000Y-58550000I150000J0D01*
G01*
X145245000Y-58550000D01*
G75*
G02*
X145395000Y-58700000I0J-150000D01*
G01*
X145395000Y-60350000D01*
G75*
G02*
X145245000Y-60500000I-150000J0D01*
G01*
G37*
G36*
G01*
X146515000Y-60500000D02*
X146215000Y-60500000D01*
G75*
G02*
X146065000Y-60350000I0J150000D01*
G01*
X146065000Y-58700000D01*
G75*
G02*
X146215000Y-58550000I150000J0D01*
G01*
X146515000Y-58550000D01*
G75*
G02*
X146665000Y-58700000I0J-150000D01*
G01*
X146665000Y-60350000D01*
G75*
G02*
X146515000Y-60500000I-150000J0D01*
G01*
G37*
G36*
G01*
X147785000Y-60500000D02*
X147485000Y-60500000D01*
G75*
G02*
X147335000Y-60350000I0J150000D01*
G01*
X147335000Y-58700000D01*
G75*
G02*
X147485000Y-58550000I150000J0D01*
G01*
X147785000Y-58550000D01*
G75*
G02*
X147935000Y-58700000I0J-150000D01*
G01*
X147935000Y-60350000D01*
G75*
G02*
X147785000Y-60500000I-150000J0D01*
G01*
G37*
G36*
G01*
X149055000Y-60500000D02*
X148755000Y-60500000D01*
G75*
G02*
X148605000Y-60350000I0J150000D01*
G01*
X148605000Y-58700000D01*
G75*
G02*
X148755000Y-58550000I150000J0D01*
G01*
X149055000Y-58550000D01*
G75*
G02*
X149205000Y-58700000I0J-150000D01*
G01*
X149205000Y-60350000D01*
G75*
G02*
X149055000Y-60500000I-150000J0D01*
G01*
G37*
G36*
G01*
X149055000Y-65450000D02*
X148755000Y-65450000D01*
G75*
G02*
X148605000Y-65300000I0J150000D01*
G01*
X148605000Y-63650000D01*
G75*
G02*
X148755000Y-63500000I150000J0D01*
G01*
X149055000Y-63500000D01*
G75*
G02*
X149205000Y-63650000I0J-150000D01*
G01*
X149205000Y-65300000D01*
G75*
G02*
X149055000Y-65450000I-150000J0D01*
G01*
G37*
G36*
G01*
X147785000Y-65450000D02*
X147485000Y-65450000D01*
G75*
G02*
X147335000Y-65300000I0J150000D01*
G01*
X147335000Y-63650000D01*
G75*
G02*
X147485000Y-63500000I150000J0D01*
G01*
X147785000Y-63500000D01*
G75*
G02*
X147935000Y-63650000I0J-150000D01*
G01*
X147935000Y-65300000D01*
G75*
G02*
X147785000Y-65450000I-150000J0D01*
G01*
G37*
G36*
G01*
X146515000Y-65450000D02*
X146215000Y-65450000D01*
G75*
G02*
X146065000Y-65300000I0J150000D01*
G01*
X146065000Y-63650000D01*
G75*
G02*
X146215000Y-63500000I150000J0D01*
G01*
X146515000Y-63500000D01*
G75*
G02*
X146665000Y-63650000I0J-150000D01*
G01*
X146665000Y-65300000D01*
G75*
G02*
X146515000Y-65450000I-150000J0D01*
G01*
G37*
G36*
G01*
X145245000Y-65450000D02*
X144945000Y-65450000D01*
G75*
G02*
X144795000Y-65300000I0J150000D01*
G01*
X144795000Y-63650000D01*
G75*
G02*
X144945000Y-63500000I150000J0D01*
G01*
X145245000Y-63500000D01*
G75*
G02*
X145395000Y-63650000I0J-150000D01*
G01*
X145395000Y-65300000D01*
G75*
G02*
X145245000Y-65450000I-150000J0D01*
G01*
G37*
D10*
X142800000Y-59700000D03*
X138200000Y-59700000D03*
X140500000Y-59700000D03*
D11*
X140500000Y-66000000D03*
G36*
G01*
X132049999Y-72900000D02*
X132950001Y-72900000D01*
G75*
G02*
X133200000Y-73149999I0J-249999D01*
G01*
X133200000Y-73850001D01*
G75*
G02*
X132950001Y-74100000I-249999J0D01*
G01*
X132049999Y-74100000D01*
G75*
G02*
X131800000Y-73850001I0J249999D01*
G01*
X131800000Y-73149999D01*
G75*
G02*
X132049999Y-72900000I249999J0D01*
G01*
G37*
G36*
G01*
X132049999Y-70900000D02*
X132950001Y-70900000D01*
G75*
G02*
X133200000Y-71149999I0J-249999D01*
G01*
X133200000Y-71850001D01*
G75*
G02*
X132950001Y-72100000I-249999J0D01*
G01*
X132049999Y-72100000D01*
G75*
G02*
X131800000Y-71850001I0J249999D01*
G01*
X131800000Y-71149999D01*
G75*
G02*
X132049999Y-70900000I249999J0D01*
G01*
G37*
G36*
G01*
X154900000Y-54450001D02*
X154900000Y-53549999D01*
G75*
G02*
X155149999Y-53300000I249999J0D01*
G01*
X155850001Y-53300000D01*
G75*
G02*
X156100000Y-53549999I0J-249999D01*
G01*
X156100000Y-54450001D01*
G75*
G02*
X155850001Y-54700000I-249999J0D01*
G01*
X155149999Y-54700000D01*
G75*
G02*
X154900000Y-54450001I0J249999D01*
G01*
G37*
G36*
G01*
X152900000Y-54450001D02*
X152900000Y-53549999D01*
G75*
G02*
X153149999Y-53300000I249999J0D01*
G01*
X153850001Y-53300000D01*
G75*
G02*
X154100000Y-53549999I0J-249999D01*
G01*
X154100000Y-54450001D01*
G75*
G02*
X153850001Y-54700000I-249999J0D01*
G01*
X153149999Y-54700000D01*
G75*
G02*
X152900000Y-54450001I0J249999D01*
G01*
G37*
G36*
G01*
X146600000Y-67748999D02*
X146600000Y-68649001D01*
G75*
G02*
X146350001Y-68899000I-249999J0D01*
G01*
X145649999Y-68899000D01*
G75*
G02*
X145400000Y-68649001I0J249999D01*
G01*
X145400000Y-67748999D01*
G75*
G02*
X145649999Y-67499000I249999J0D01*
G01*
X146350001Y-67499000D01*
G75*
G02*
X146600000Y-67748999I0J-249999D01*
G01*
G37*
G36*
G01*
X148600000Y-67748999D02*
X148600000Y-68649001D01*
G75*
G02*
X148350001Y-68899000I-249999J0D01*
G01*
X147649999Y-68899000D01*
G75*
G02*
X147400000Y-68649001I0J249999D01*
G01*
X147400000Y-67748999D01*
G75*
G02*
X147649999Y-67499000I249999J0D01*
G01*
X148350001Y-67499000D01*
G75*
G02*
X148600000Y-67748999I0J-249999D01*
G01*
G37*
G36*
G01*
X150100000Y-67748999D02*
X150100000Y-68649001D01*
G75*
G02*
X149850001Y-68899000I-249999J0D01*
G01*
X149149999Y-68899000D01*
G75*
G02*
X148900000Y-68649001I0J249999D01*
G01*
X148900000Y-67748999D01*
G75*
G02*
X149149999Y-67499000I249999J0D01*
G01*
X149850001Y-67499000D01*
G75*
G02*
X150100000Y-67748999I0J-249999D01*
G01*
G37*
G36*
G01*
X152100000Y-67748999D02*
X152100000Y-68649001D01*
G75*
G02*
X151850001Y-68899000I-249999J0D01*
G01*
X151149999Y-68899000D01*
G75*
G02*
X150900000Y-68649001I0J249999D01*
G01*
X150900000Y-67748999D01*
G75*
G02*
X151149999Y-67499000I249999J0D01*
G01*
X151850001Y-67499000D01*
G75*
G02*
X152100000Y-67748999I0J-249999D01*
G01*
G37*
D12*
X88500000Y-72500000D03*
X90500000Y-71550000D03*
X90500000Y-73450000D03*
X121500000Y-77000000D03*
X123500000Y-76050000D03*
X123500000Y-77950000D03*
G36*
G01*
X154987500Y-56475000D02*
X154987500Y-55525000D01*
G75*
G02*
X155237500Y-55275000I250000J0D01*
G01*
X155912500Y-55275000D01*
G75*
G02*
X156162500Y-55525000I0J-250000D01*
G01*
X156162500Y-56475000D01*
G75*
G02*
X155912500Y-56725000I-250000J0D01*
G01*
X155237500Y-56725000D01*
G75*
G02*
X154987500Y-56475000I0J250000D01*
G01*
G37*
G36*
G01*
X152912500Y-56475000D02*
X152912500Y-55525000D01*
G75*
G02*
X153162500Y-55275000I250000J0D01*
G01*
X153837500Y-55275000D01*
G75*
G02*
X154087500Y-55525000I0J-250000D01*
G01*
X154087500Y-56475000D01*
G75*
G02*
X153837500Y-56725000I-250000J0D01*
G01*
X153162500Y-56725000D01*
G75*
G02*
X152912500Y-56475000I0J250000D01*
G01*
G37*
G36*
G01*
X134512500Y-59025000D02*
X134512500Y-59975000D01*
G75*
G02*
X134262500Y-60225000I-250000J0D01*
G01*
X133587500Y-60225000D01*
G75*
G02*
X133337500Y-59975000I0J250000D01*
G01*
X133337500Y-59025000D01*
G75*
G02*
X133587500Y-58775000I250000J0D01*
G01*
X134262500Y-58775000D01*
G75*
G02*
X134512500Y-59025000I0J-250000D01*
G01*
G37*
G36*
G01*
X136587500Y-59025000D02*
X136587500Y-59975000D01*
G75*
G02*
X136337500Y-60225000I-250000J0D01*
G01*
X135662500Y-60225000D01*
G75*
G02*
X135412500Y-59975000I0J250000D01*
G01*
X135412500Y-59025000D01*
G75*
G02*
X135662500Y-58775000I250000J0D01*
G01*
X136337500Y-58775000D01*
G75*
G02*
X136587500Y-59025000I0J-250000D01*
G01*
G37*
M02*
