G04 #@! TF.GenerationSoftware,KiCad,Pcbnew,(5.1.9)-1*
G04 #@! TF.CreationDate,2021-06-06T22:42:38-05:00*
G04 #@! TF.ProjectId,BoilerBot,426f696c-6572-4426-9f74-2e6b69636164,rev?*
G04 #@! TF.SameCoordinates,Original*
G04 #@! TF.FileFunction,Copper,L1,Top*
G04 #@! TF.FilePolarity,Positive*
%FSLAX46Y46*%
G04 Gerber Fmt 4.6, Leading zero omitted, Abs format (unit mm)*
G04 Created by KiCad (PCBNEW (5.1.9)-1) date 2021-06-06 22:42:38*
%MOMM*%
%LPD*%
G01*
G04 APERTURE LIST*
G04 #@! TA.AperFunction,ComponentPad*
%ADD10O,1.700000X2.000000*%
G04 #@! TD*
G04 #@! TA.AperFunction,ComponentPad*
%ADD11C,2.500000*%
G04 #@! TD*
G04 #@! TA.AperFunction,ComponentPad*
%ADD12C,1.600000*%
G04 #@! TD*
G04 #@! TA.AperFunction,ComponentPad*
%ADD13C,0.500000*%
G04 #@! TD*
G04 #@! TA.AperFunction,SMDPad,CuDef*
%ADD14R,3.000000X2.290000*%
G04 #@! TD*
G04 #@! TA.AperFunction,SMDPad,CuDef*
%ADD15R,1.500000X2.000000*%
G04 #@! TD*
G04 #@! TA.AperFunction,SMDPad,CuDef*
%ADD16R,3.800000X2.000000*%
G04 #@! TD*
G04 #@! TA.AperFunction,SMDPad,CuDef*
%ADD17R,0.900000X0.800000*%
G04 #@! TD*
G04 #@! TA.AperFunction,ComponentPad*
%ADD18O,1.700000X1.950000*%
G04 #@! TD*
G04 #@! TA.AperFunction,ComponentPad*
%ADD19O,1.200000X1.750000*%
G04 #@! TD*
G04 #@! TA.AperFunction,ComponentPad*
%ADD20C,1.500000*%
G04 #@! TD*
G04 #@! TA.AperFunction,ComponentPad*
%ADD21C,1.879600*%
G04 #@! TD*
G04 #@! TA.AperFunction,ViaPad*
%ADD22C,0.609600*%
G04 #@! TD*
G04 #@! TA.AperFunction,Conductor*
%ADD23C,0.254000*%
G04 #@! TD*
G04 #@! TA.AperFunction,Conductor*
%ADD24C,0.762000*%
G04 #@! TD*
G04 #@! TA.AperFunction,Conductor*
%ADD25C,2.540000*%
G04 #@! TD*
G04 #@! TA.AperFunction,Conductor*
%ADD26C,0.100000*%
G04 #@! TD*
G04 APERTURE END LIST*
G04 #@! TA.AperFunction,ComponentPad*
G36*
G01*
X114550000Y-52699999D02*
X114550000Y-49300001D01*
G75*
G02*
X114800001Y-49050000I250001J0D01*
G01*
X118199999Y-49050000D01*
G75*
G02*
X118450000Y-49300001I0J-250001D01*
G01*
X118450000Y-52699999D01*
G75*
G02*
X118199999Y-52950000I-250001J0D01*
G01*
X114800001Y-52950000D01*
G75*
G02*
X114550000Y-52699999I0J250001D01*
G01*
G37*
G04 #@! TD.AperFunction*
G04 #@! TA.AperFunction,ComponentPad*
G36*
G01*
X119550000Y-52699999D02*
X119550000Y-49300001D01*
G75*
G02*
X119800001Y-49050000I250001J0D01*
G01*
X123199999Y-49050000D01*
G75*
G02*
X123450000Y-49300001I0J-250001D01*
G01*
X123450000Y-52699999D01*
G75*
G02*
X123199999Y-52950000I-250001J0D01*
G01*
X119800001Y-52950000D01*
G75*
G02*
X119550000Y-52699999I0J250001D01*
G01*
G37*
G04 #@! TD.AperFunction*
G04 #@! TA.AperFunction,SMDPad,CuDef*
G36*
G01*
X93900000Y-73950001D02*
X93900000Y-73049999D01*
G75*
G02*
X94149999Y-72800000I249999J0D01*
G01*
X94850001Y-72800000D01*
G75*
G02*
X95100000Y-73049999I0J-249999D01*
G01*
X95100000Y-73950001D01*
G75*
G02*
X94850001Y-74200000I-249999J0D01*
G01*
X94149999Y-74200000D01*
G75*
G02*
X93900000Y-73950001I0J249999D01*
G01*
G37*
G04 #@! TD.AperFunction*
G04 #@! TA.AperFunction,SMDPad,CuDef*
G36*
G01*
X91900000Y-73950001D02*
X91900000Y-73049999D01*
G75*
G02*
X92149999Y-72800000I249999J0D01*
G01*
X92850001Y-72800000D01*
G75*
G02*
X93100000Y-73049999I0J-249999D01*
G01*
X93100000Y-73950001D01*
G75*
G02*
X92850001Y-74200000I-249999J0D01*
G01*
X92149999Y-74200000D01*
G75*
G02*
X91900000Y-73950001I0J249999D01*
G01*
G37*
G04 #@! TD.AperFunction*
G04 #@! TA.AperFunction,SMDPad,CuDef*
G36*
G01*
X122900000Y-80450001D02*
X122900000Y-79549999D01*
G75*
G02*
X123149999Y-79300000I249999J0D01*
G01*
X123850001Y-79300000D01*
G75*
G02*
X124100000Y-79549999I0J-249999D01*
G01*
X124100000Y-80450001D01*
G75*
G02*
X123850001Y-80700000I-249999J0D01*
G01*
X123149999Y-80700000D01*
G75*
G02*
X122900000Y-80450001I0J249999D01*
G01*
G37*
G04 #@! TD.AperFunction*
G04 #@! TA.AperFunction,SMDPad,CuDef*
G36*
G01*
X120900000Y-80450001D02*
X120900000Y-79549999D01*
G75*
G02*
X121149999Y-79300000I249999J0D01*
G01*
X121850001Y-79300000D01*
G75*
G02*
X122100000Y-79549999I0J-249999D01*
G01*
X122100000Y-80450001D01*
G75*
G02*
X121850001Y-80700000I-249999J0D01*
G01*
X121149999Y-80700000D01*
G75*
G02*
X120900000Y-80450001I0J249999D01*
G01*
G37*
G04 #@! TD.AperFunction*
D10*
X147500000Y-51500000D03*
G04 #@! TA.AperFunction,ComponentPad*
G36*
G01*
X144150000Y-52250000D02*
X144150000Y-50750000D01*
G75*
G02*
X144400000Y-50500000I250000J0D01*
G01*
X145600000Y-50500000D01*
G75*
G02*
X145850000Y-50750000I0J-250000D01*
G01*
X145850000Y-52250000D01*
G75*
G02*
X145600000Y-52500000I-250000J0D01*
G01*
X144400000Y-52500000D01*
G75*
G02*
X144150000Y-52250000I0J250000D01*
G01*
G37*
G04 #@! TD.AperFunction*
X130000000Y-77500000D03*
G04 #@! TA.AperFunction,ComponentPad*
G36*
G01*
X126650000Y-78250000D02*
X126650000Y-76750000D01*
G75*
G02*
X126900000Y-76500000I250000J0D01*
G01*
X128100000Y-76500000D01*
G75*
G02*
X128350000Y-76750000I0J-250000D01*
G01*
X128350000Y-78250000D01*
G75*
G02*
X128100000Y-78500000I-250000J0D01*
G01*
X126900000Y-78500000D01*
G75*
G02*
X126650000Y-78250000I0J250000D01*
G01*
G37*
G04 #@! TD.AperFunction*
D11*
X111500000Y-50500000D03*
X108000000Y-58000000D03*
D12*
X91500000Y-50500000D03*
X91500000Y-58000000D03*
G04 #@! TA.AperFunction,SMDPad,CuDef*
G36*
G01*
X152950000Y-62750000D02*
X154050000Y-62750000D01*
G75*
G02*
X154300000Y-63000000I0J-250000D01*
G01*
X154300000Y-66000000D01*
G75*
G02*
X154050000Y-66250000I-250000J0D01*
G01*
X152950000Y-66250000D01*
G75*
G02*
X152700000Y-66000000I0J250000D01*
G01*
X152700000Y-63000000D01*
G75*
G02*
X152950000Y-62750000I250000J0D01*
G01*
G37*
G04 #@! TD.AperFunction*
G04 #@! TA.AperFunction,SMDPad,CuDef*
G36*
G01*
X152950000Y-57350000D02*
X154050000Y-57350000D01*
G75*
G02*
X154300000Y-57600000I0J-250000D01*
G01*
X154300000Y-60600000D01*
G75*
G02*
X154050000Y-60850000I-250000J0D01*
G01*
X152950000Y-60850000D01*
G75*
G02*
X152700000Y-60600000I0J250000D01*
G01*
X152700000Y-57600000D01*
G75*
G02*
X152950000Y-57350000I250000J0D01*
G01*
G37*
G04 #@! TD.AperFunction*
D13*
X148000000Y-61350000D03*
X148000000Y-62650000D03*
X147000000Y-61350000D03*
X147000000Y-62650000D03*
X146000000Y-61350000D03*
X146000000Y-62650000D03*
D14*
X147000000Y-62000000D03*
G04 #@! TA.AperFunction,SMDPad,CuDef*
G36*
G01*
X145245000Y-60500000D02*
X144945000Y-60500000D01*
G75*
G02*
X144795000Y-60350000I0J150000D01*
G01*
X144795000Y-58700000D01*
G75*
G02*
X144945000Y-58550000I150000J0D01*
G01*
X145245000Y-58550000D01*
G75*
G02*
X145395000Y-58700000I0J-150000D01*
G01*
X145395000Y-60350000D01*
G75*
G02*
X145245000Y-60500000I-150000J0D01*
G01*
G37*
G04 #@! TD.AperFunction*
G04 #@! TA.AperFunction,SMDPad,CuDef*
G36*
G01*
X146515000Y-60500000D02*
X146215000Y-60500000D01*
G75*
G02*
X146065000Y-60350000I0J150000D01*
G01*
X146065000Y-58700000D01*
G75*
G02*
X146215000Y-58550000I150000J0D01*
G01*
X146515000Y-58550000D01*
G75*
G02*
X146665000Y-58700000I0J-150000D01*
G01*
X146665000Y-60350000D01*
G75*
G02*
X146515000Y-60500000I-150000J0D01*
G01*
G37*
G04 #@! TD.AperFunction*
G04 #@! TA.AperFunction,SMDPad,CuDef*
G36*
G01*
X147785000Y-60500000D02*
X147485000Y-60500000D01*
G75*
G02*
X147335000Y-60350000I0J150000D01*
G01*
X147335000Y-58700000D01*
G75*
G02*
X147485000Y-58550000I150000J0D01*
G01*
X147785000Y-58550000D01*
G75*
G02*
X147935000Y-58700000I0J-150000D01*
G01*
X147935000Y-60350000D01*
G75*
G02*
X147785000Y-60500000I-150000J0D01*
G01*
G37*
G04 #@! TD.AperFunction*
G04 #@! TA.AperFunction,SMDPad,CuDef*
G36*
G01*
X149055000Y-60500000D02*
X148755000Y-60500000D01*
G75*
G02*
X148605000Y-60350000I0J150000D01*
G01*
X148605000Y-58700000D01*
G75*
G02*
X148755000Y-58550000I150000J0D01*
G01*
X149055000Y-58550000D01*
G75*
G02*
X149205000Y-58700000I0J-150000D01*
G01*
X149205000Y-60350000D01*
G75*
G02*
X149055000Y-60500000I-150000J0D01*
G01*
G37*
G04 #@! TD.AperFunction*
G04 #@! TA.AperFunction,SMDPad,CuDef*
G36*
G01*
X149055000Y-65450000D02*
X148755000Y-65450000D01*
G75*
G02*
X148605000Y-65300000I0J150000D01*
G01*
X148605000Y-63650000D01*
G75*
G02*
X148755000Y-63500000I150000J0D01*
G01*
X149055000Y-63500000D01*
G75*
G02*
X149205000Y-63650000I0J-150000D01*
G01*
X149205000Y-65300000D01*
G75*
G02*
X149055000Y-65450000I-150000J0D01*
G01*
G37*
G04 #@! TD.AperFunction*
G04 #@! TA.AperFunction,SMDPad,CuDef*
G36*
G01*
X147785000Y-65450000D02*
X147485000Y-65450000D01*
G75*
G02*
X147335000Y-65300000I0J150000D01*
G01*
X147335000Y-63650000D01*
G75*
G02*
X147485000Y-63500000I150000J0D01*
G01*
X147785000Y-63500000D01*
G75*
G02*
X147935000Y-63650000I0J-150000D01*
G01*
X147935000Y-65300000D01*
G75*
G02*
X147785000Y-65450000I-150000J0D01*
G01*
G37*
G04 #@! TD.AperFunction*
G04 #@! TA.AperFunction,SMDPad,CuDef*
G36*
G01*
X146515000Y-65450000D02*
X146215000Y-65450000D01*
G75*
G02*
X146065000Y-65300000I0J150000D01*
G01*
X146065000Y-63650000D01*
G75*
G02*
X146215000Y-63500000I150000J0D01*
G01*
X146515000Y-63500000D01*
G75*
G02*
X146665000Y-63650000I0J-150000D01*
G01*
X146665000Y-65300000D01*
G75*
G02*
X146515000Y-65450000I-150000J0D01*
G01*
G37*
G04 #@! TD.AperFunction*
G04 #@! TA.AperFunction,SMDPad,CuDef*
G36*
G01*
X145245000Y-65450000D02*
X144945000Y-65450000D01*
G75*
G02*
X144795000Y-65300000I0J150000D01*
G01*
X144795000Y-63650000D01*
G75*
G02*
X144945000Y-63500000I150000J0D01*
G01*
X145245000Y-63500000D01*
G75*
G02*
X145395000Y-63650000I0J-150000D01*
G01*
X145395000Y-65300000D01*
G75*
G02*
X145245000Y-65450000I-150000J0D01*
G01*
G37*
G04 #@! TD.AperFunction*
D15*
X142800000Y-59700000D03*
X138200000Y-59700000D03*
X140500000Y-59700000D03*
D16*
X140500000Y-66000000D03*
G04 #@! TA.AperFunction,SMDPad,CuDef*
G36*
G01*
X132049999Y-72900000D02*
X132950001Y-72900000D01*
G75*
G02*
X133200000Y-73149999I0J-249999D01*
G01*
X133200000Y-73850001D01*
G75*
G02*
X132950001Y-74100000I-249999J0D01*
G01*
X132049999Y-74100000D01*
G75*
G02*
X131800000Y-73850001I0J249999D01*
G01*
X131800000Y-73149999D01*
G75*
G02*
X132049999Y-72900000I249999J0D01*
G01*
G37*
G04 #@! TD.AperFunction*
G04 #@! TA.AperFunction,SMDPad,CuDef*
G36*
G01*
X132049999Y-70900000D02*
X132950001Y-70900000D01*
G75*
G02*
X133200000Y-71149999I0J-249999D01*
G01*
X133200000Y-71850001D01*
G75*
G02*
X132950001Y-72100000I-249999J0D01*
G01*
X132049999Y-72100000D01*
G75*
G02*
X131800000Y-71850001I0J249999D01*
G01*
X131800000Y-71149999D01*
G75*
G02*
X132049999Y-70900000I249999J0D01*
G01*
G37*
G04 #@! TD.AperFunction*
G04 #@! TA.AperFunction,SMDPad,CuDef*
G36*
G01*
X154900000Y-54450001D02*
X154900000Y-53549999D01*
G75*
G02*
X155149999Y-53300000I249999J0D01*
G01*
X155850001Y-53300000D01*
G75*
G02*
X156100000Y-53549999I0J-249999D01*
G01*
X156100000Y-54450001D01*
G75*
G02*
X155850001Y-54700000I-249999J0D01*
G01*
X155149999Y-54700000D01*
G75*
G02*
X154900000Y-54450001I0J249999D01*
G01*
G37*
G04 #@! TD.AperFunction*
G04 #@! TA.AperFunction,SMDPad,CuDef*
G36*
G01*
X152900000Y-54450001D02*
X152900000Y-53549999D01*
G75*
G02*
X153149999Y-53300000I249999J0D01*
G01*
X153850001Y-53300000D01*
G75*
G02*
X154100000Y-53549999I0J-249999D01*
G01*
X154100000Y-54450001D01*
G75*
G02*
X153850001Y-54700000I-249999J0D01*
G01*
X153149999Y-54700000D01*
G75*
G02*
X152900000Y-54450001I0J249999D01*
G01*
G37*
G04 #@! TD.AperFunction*
G04 #@! TA.AperFunction,SMDPad,CuDef*
G36*
G01*
X146600000Y-67748999D02*
X146600000Y-68649001D01*
G75*
G02*
X146350001Y-68899000I-249999J0D01*
G01*
X145649999Y-68899000D01*
G75*
G02*
X145400000Y-68649001I0J249999D01*
G01*
X145400000Y-67748999D01*
G75*
G02*
X145649999Y-67499000I249999J0D01*
G01*
X146350001Y-67499000D01*
G75*
G02*
X146600000Y-67748999I0J-249999D01*
G01*
G37*
G04 #@! TD.AperFunction*
G04 #@! TA.AperFunction,SMDPad,CuDef*
G36*
G01*
X148600000Y-67748999D02*
X148600000Y-68649001D01*
G75*
G02*
X148350001Y-68899000I-249999J0D01*
G01*
X147649999Y-68899000D01*
G75*
G02*
X147400000Y-68649001I0J249999D01*
G01*
X147400000Y-67748999D01*
G75*
G02*
X147649999Y-67499000I249999J0D01*
G01*
X148350001Y-67499000D01*
G75*
G02*
X148600000Y-67748999I0J-249999D01*
G01*
G37*
G04 #@! TD.AperFunction*
G04 #@! TA.AperFunction,SMDPad,CuDef*
G36*
G01*
X150100000Y-67748999D02*
X150100000Y-68649001D01*
G75*
G02*
X149850001Y-68899000I-249999J0D01*
G01*
X149149999Y-68899000D01*
G75*
G02*
X148900000Y-68649001I0J249999D01*
G01*
X148900000Y-67748999D01*
G75*
G02*
X149149999Y-67499000I249999J0D01*
G01*
X149850001Y-67499000D01*
G75*
G02*
X150100000Y-67748999I0J-249999D01*
G01*
G37*
G04 #@! TD.AperFunction*
G04 #@! TA.AperFunction,SMDPad,CuDef*
G36*
G01*
X152100000Y-67748999D02*
X152100000Y-68649001D01*
G75*
G02*
X151850001Y-68899000I-249999J0D01*
G01*
X151149999Y-68899000D01*
G75*
G02*
X150900000Y-68649001I0J249999D01*
G01*
X150900000Y-67748999D01*
G75*
G02*
X151149999Y-67499000I249999J0D01*
G01*
X151850001Y-67499000D01*
G75*
G02*
X152100000Y-67748999I0J-249999D01*
G01*
G37*
G04 #@! TD.AperFunction*
D17*
X88500000Y-72500000D03*
X90500000Y-71550000D03*
X90500000Y-73450000D03*
X121500000Y-77000000D03*
X123500000Y-76050000D03*
X123500000Y-77950000D03*
D18*
X141500000Y-70500000D03*
X139000000Y-70500000D03*
G04 #@! TA.AperFunction,ComponentPad*
G36*
G01*
X135650000Y-71225000D02*
X135650000Y-69775000D01*
G75*
G02*
X135900000Y-69525000I250000J0D01*
G01*
X137100000Y-69525000D01*
G75*
G02*
X137350000Y-69775000I0J-250000D01*
G01*
X137350000Y-71225000D01*
G75*
G02*
X137100000Y-71475000I-250000J0D01*
G01*
X135900000Y-71475000D01*
G75*
G02*
X135650000Y-71225000I0J250000D01*
G01*
G37*
G04 #@! TD.AperFunction*
X148000000Y-73000000D03*
X150500000Y-73000000D03*
X153000000Y-73000000D03*
G04 #@! TA.AperFunction,ComponentPad*
G36*
G01*
X156350000Y-72275000D02*
X156350000Y-73725000D01*
G75*
G02*
X156100000Y-73975000I-250000J0D01*
G01*
X154900000Y-73975000D01*
G75*
G02*
X154650000Y-73725000I0J250000D01*
G01*
X154650000Y-72275000D01*
G75*
G02*
X154900000Y-72025000I250000J0D01*
G01*
X156100000Y-72025000D01*
G75*
G02*
X156350000Y-72275000I0J-250000D01*
G01*
G37*
G04 #@! TD.AperFunction*
X141500000Y-77500000D03*
X139000000Y-77500000D03*
G04 #@! TA.AperFunction,ComponentPad*
G36*
G01*
X135650000Y-78225000D02*
X135650000Y-76775000D01*
G75*
G02*
X135900000Y-76525000I250000J0D01*
G01*
X137100000Y-76525000D01*
G75*
G02*
X137350000Y-76775000I0J-250000D01*
G01*
X137350000Y-78225000D01*
G75*
G02*
X137100000Y-78475000I-250000J0D01*
G01*
X135900000Y-78475000D01*
G75*
G02*
X135650000Y-78225000I0J250000D01*
G01*
G37*
G04 #@! TD.AperFunction*
X133000000Y-63500000D03*
X130500000Y-63500000D03*
G04 #@! TA.AperFunction,ComponentPad*
G36*
G01*
X127150000Y-64225000D02*
X127150000Y-62775000D01*
G75*
G02*
X127400000Y-62525000I250000J0D01*
G01*
X128600000Y-62525000D01*
G75*
G02*
X128850000Y-62775000I0J-250000D01*
G01*
X128850000Y-64225000D01*
G75*
G02*
X128600000Y-64475000I-250000J0D01*
G01*
X127400000Y-64475000D01*
G75*
G02*
X127150000Y-64225000I0J250000D01*
G01*
G37*
G04 #@! TD.AperFunction*
D19*
X148000000Y-79000000D03*
X150000000Y-79000000D03*
X152000000Y-79000000D03*
X154000000Y-79000000D03*
G04 #@! TA.AperFunction,ComponentPad*
G36*
G01*
X156600000Y-78374999D02*
X156600000Y-79625001D01*
G75*
G02*
X156350001Y-79875000I-249999J0D01*
G01*
X155649999Y-79875000D01*
G75*
G02*
X155400000Y-79625001I0J249999D01*
G01*
X155400000Y-78374999D01*
G75*
G02*
X155649999Y-78125000I249999J0D01*
G01*
X156350001Y-78125000D01*
G75*
G02*
X156600000Y-78374999I0J-249999D01*
G01*
G37*
G04 #@! TD.AperFunction*
G04 #@! TA.AperFunction,SMDPad,CuDef*
G36*
G01*
X154987500Y-56475000D02*
X154987500Y-55525000D01*
G75*
G02*
X155237500Y-55275000I250000J0D01*
G01*
X155912500Y-55275000D01*
G75*
G02*
X156162500Y-55525000I0J-250000D01*
G01*
X156162500Y-56475000D01*
G75*
G02*
X155912500Y-56725000I-250000J0D01*
G01*
X155237500Y-56725000D01*
G75*
G02*
X154987500Y-56475000I0J250000D01*
G01*
G37*
G04 #@! TD.AperFunction*
G04 #@! TA.AperFunction,SMDPad,CuDef*
G36*
G01*
X152912500Y-56475000D02*
X152912500Y-55525000D01*
G75*
G02*
X153162500Y-55275000I250000J0D01*
G01*
X153837500Y-55275000D01*
G75*
G02*
X154087500Y-55525000I0J-250000D01*
G01*
X154087500Y-56475000D01*
G75*
G02*
X153837500Y-56725000I-250000J0D01*
G01*
X153162500Y-56725000D01*
G75*
G02*
X152912500Y-56475000I0J250000D01*
G01*
G37*
G04 #@! TD.AperFunction*
G04 #@! TA.AperFunction,SMDPad,CuDef*
G36*
G01*
X134512500Y-59025000D02*
X134512500Y-59975000D01*
G75*
G02*
X134262500Y-60225000I-250000J0D01*
G01*
X133587500Y-60225000D01*
G75*
G02*
X133337500Y-59975000I0J250000D01*
G01*
X133337500Y-59025000D01*
G75*
G02*
X133587500Y-58775000I250000J0D01*
G01*
X134262500Y-58775000D01*
G75*
G02*
X134512500Y-59025000I0J-250000D01*
G01*
G37*
G04 #@! TD.AperFunction*
G04 #@! TA.AperFunction,SMDPad,CuDef*
G36*
G01*
X136587500Y-59025000D02*
X136587500Y-59975000D01*
G75*
G02*
X136337500Y-60225000I-250000J0D01*
G01*
X135662500Y-60225000D01*
G75*
G02*
X135412500Y-59975000I0J250000D01*
G01*
X135412500Y-59025000D01*
G75*
G02*
X135662500Y-58775000I250000J0D01*
G01*
X136337500Y-58775000D01*
G75*
G02*
X136587500Y-59025000I0J-250000D01*
G01*
G37*
G04 #@! TD.AperFunction*
D20*
X114000000Y-77000000D03*
X114000000Y-70500000D03*
D21*
X176500000Y-52000000D03*
X176500000Y-54540000D03*
X176500000Y-57080000D03*
X176500000Y-59620000D03*
X176500000Y-62160000D03*
X176500000Y-64700000D03*
X176500000Y-67240000D03*
X176500000Y-69780000D03*
X176500000Y-72320000D03*
X176500000Y-74860000D03*
X176500000Y-77400000D03*
X176500000Y-79940000D03*
X161260000Y-79940000D03*
X161260000Y-77400000D03*
X161260000Y-74860000D03*
X161260000Y-72320000D03*
X161260000Y-69780000D03*
X161260000Y-67240000D03*
X161260000Y-64700000D03*
X161260000Y-62160000D03*
X161260000Y-59620000D03*
X161260000Y-57080000D03*
X161260000Y-54540000D03*
X161260000Y-52000000D03*
D22*
X147955000Y-76327000D03*
X151384000Y-67056000D03*
X150495000Y-70104000D03*
X132334000Y-70104000D03*
X140462000Y-62103000D03*
X140462000Y-64643000D03*
X132461000Y-74930000D03*
X145364200Y-70612000D03*
X91694000Y-71501000D03*
X132715000Y-59563000D03*
X145923000Y-66929000D03*
X145923000Y-73025000D03*
X151765000Y-75438000D03*
X149733000Y-64516000D03*
X149606000Y-67056000D03*
X146431000Y-58039000D03*
X153416000Y-52832000D03*
D23*
X151500000Y-67172000D02*
X151384000Y-67056000D01*
X151500000Y-68199000D02*
X151500000Y-67172000D01*
X132500000Y-70270000D02*
X132334000Y-70104000D01*
X132500000Y-71500000D02*
X132500000Y-70270000D01*
X140500000Y-62065000D02*
X140462000Y-62103000D01*
X140500000Y-59700000D02*
X140500000Y-62065000D01*
X140500000Y-66000000D02*
X140500000Y-64681000D01*
X140500000Y-64681000D02*
X140462000Y-64643000D01*
X176500000Y-77400000D02*
X174809000Y-77400000D01*
X174809000Y-77400000D02*
X171450000Y-74041000D01*
X171450000Y-74041000D02*
X167513000Y-74041000D01*
X167513000Y-74041000D02*
X164826801Y-76727199D01*
X164826801Y-76727199D02*
X164826801Y-81133801D01*
X126683801Y-81133801D02*
X164826801Y-81133801D01*
X125550000Y-80000000D02*
X126661000Y-81111000D01*
X123500000Y-80000000D02*
X125550000Y-80000000D01*
X126661000Y-81111000D02*
X126683801Y-81133801D01*
X165481000Y-81534000D02*
X165481000Y-77089000D01*
X98584000Y-81534000D02*
X165481000Y-81534000D01*
X165481000Y-77089000D02*
X167767000Y-74803000D01*
X171363000Y-74803000D02*
X176500000Y-79940000D01*
X167767000Y-74803000D02*
X171363000Y-74803000D01*
X94500000Y-77450000D02*
X98584000Y-81534000D01*
X94500000Y-73500000D02*
X94500000Y-77450000D01*
X147000020Y-66085020D02*
X151783412Y-66085020D01*
X146365000Y-65450000D02*
X147000020Y-66085020D01*
X146365000Y-64475000D02*
X146365000Y-65450000D01*
X155478392Y-69780000D02*
X161260000Y-69780000D01*
X151783412Y-66085020D02*
X155478392Y-69780000D01*
X153477220Y-67240000D02*
X161260000Y-67240000D01*
X151941230Y-65704010D02*
X153477220Y-67240000D01*
X147889010Y-65704010D02*
X151941230Y-65704010D01*
X147635000Y-65450000D02*
X147889010Y-65704010D01*
X147635000Y-64475000D02*
X147635000Y-65450000D01*
X132500000Y-74891000D02*
X132461000Y-74930000D01*
X132500000Y-73500000D02*
X132500000Y-74891000D01*
X145900000Y-77400000D02*
X161260000Y-77400000D01*
X139000000Y-70500000D02*
X145900000Y-77400000D01*
X160710990Y-71770990D02*
X161260000Y-72320000D01*
X146523190Y-71770990D02*
X160710990Y-71770990D01*
X145364200Y-70612000D02*
X146523190Y-71770990D01*
D24*
X151000000Y-62000000D02*
X147000000Y-62000000D01*
X153500000Y-64500000D02*
X151000000Y-62000000D01*
X145100000Y-62000000D02*
X142800000Y-59700000D01*
X147000000Y-62000000D02*
X145100000Y-62000000D01*
X145095000Y-63555000D02*
X146000000Y-62650000D01*
X145095000Y-64475000D02*
X145095000Y-63555000D01*
D23*
X91645000Y-71550000D02*
X91694000Y-71501000D01*
X90500000Y-71550000D02*
X91645000Y-71550000D01*
X132778000Y-59500000D02*
X132715000Y-59563000D01*
X133925000Y-59500000D02*
X132778000Y-59500000D01*
X145095000Y-67294000D02*
X146000000Y-68199000D01*
X145095000Y-64475000D02*
X145095000Y-67294000D01*
X137699000Y-68199000D02*
X133000000Y-63500000D01*
X146000000Y-68199000D02*
X137699000Y-68199000D01*
X146000000Y-67006000D02*
X145923000Y-66929000D01*
X146000000Y-68199000D02*
X146000000Y-67006000D01*
X147975000Y-73025000D02*
X148000000Y-73000000D01*
X145923000Y-73025000D02*
X147975000Y-73025000D01*
X155575000Y-62425000D02*
X155575000Y-56000000D01*
X153500000Y-64500000D02*
X155575000Y-62425000D01*
X155575000Y-54075000D02*
X155500000Y-54000000D01*
X155575000Y-56000000D02*
X155575000Y-54075000D01*
X150438000Y-75438000D02*
X148000000Y-73000000D01*
X151765000Y-75438000D02*
X150438000Y-75438000D01*
D24*
X140762000Y-63500000D02*
X133000000Y-63500000D01*
X142800000Y-61462000D02*
X140762000Y-63500000D01*
X142800000Y-59700000D02*
X142800000Y-61462000D01*
X129008010Y-79008010D02*
X127500000Y-77500000D01*
X130562506Y-79008010D02*
X129008010Y-79008010D01*
X133708010Y-75862506D02*
X130562506Y-79008010D01*
X133708010Y-64208010D02*
X133708010Y-75862506D01*
X133000000Y-63500000D02*
X133708010Y-64208010D01*
D23*
X126050000Y-76050000D02*
X127500000Y-77500000D01*
X123500000Y-76050000D02*
X126050000Y-76050000D01*
X121500000Y-77000000D02*
X114000000Y-77000000D01*
D24*
X153500000Y-56000000D02*
X153500000Y-59100000D01*
X149330000Y-59100000D02*
X148905000Y-59525000D01*
X153500000Y-59100000D02*
X149330000Y-59100000D01*
D23*
X138000000Y-59500000D02*
X138200000Y-59700000D01*
X136000000Y-59500000D02*
X138000000Y-59500000D01*
D24*
X138110992Y-59610992D02*
X138200000Y-59700000D01*
X138110992Y-52631760D02*
X138110992Y-59610992D01*
X140750762Y-49991990D02*
X138110992Y-52631760D01*
X148062506Y-49991990D02*
X140750762Y-49991990D01*
X148905000Y-50834484D02*
X148062506Y-49991990D01*
X148905000Y-59525000D02*
X148905000Y-50834484D01*
X126641990Y-74141990D02*
X130000000Y-77500000D01*
X126641990Y-62461020D02*
X126641990Y-74141990D01*
X130836020Y-58266990D02*
X126641990Y-62461020D01*
X134766990Y-58266990D02*
X130836020Y-58266990D01*
X136000000Y-59500000D02*
X134766990Y-58266990D01*
D23*
X103461020Y-62461020D02*
X91500000Y-50500000D01*
X126641990Y-62461020D02*
X103461020Y-62461020D01*
D25*
X121500000Y-52950000D02*
X121500000Y-51000000D01*
X116450000Y-58000000D02*
X121500000Y-52950000D01*
X108000000Y-58000000D02*
X116450000Y-58000000D01*
X116000000Y-50500000D02*
X116500000Y-51000000D01*
X111500000Y-50500000D02*
X116000000Y-50500000D01*
D23*
X88500000Y-61000000D02*
X91500000Y-58000000D01*
X88500000Y-72500000D02*
X88500000Y-61000000D01*
X149692000Y-64475000D02*
X149733000Y-64516000D01*
X148905000Y-64475000D02*
X149692000Y-64475000D01*
X149606000Y-68093000D02*
X149500000Y-68199000D01*
X149606000Y-67056000D02*
X149606000Y-68093000D01*
X149500000Y-68199000D02*
X148000000Y-68199000D01*
X146365000Y-58105000D02*
X146431000Y-58039000D01*
X146365000Y-59525000D02*
X146365000Y-58105000D01*
X153416000Y-53916000D02*
X153500000Y-54000000D01*
X153416000Y-52832000D02*
X153416000Y-53916000D01*
D24*
X147635000Y-51635000D02*
X147500000Y-51500000D01*
X147635000Y-59525000D02*
X147635000Y-51635000D01*
X145095000Y-51595000D02*
X145000000Y-51500000D01*
X145095000Y-59525000D02*
X145095000Y-51595000D01*
D23*
X121500000Y-79950000D02*
X123500000Y-77950000D01*
X121500000Y-80000000D02*
X121500000Y-79950000D01*
X92450000Y-73450000D02*
X92500000Y-73500000D01*
X90500000Y-73450000D02*
X92450000Y-73450000D01*
X177606300Y-51278317D02*
X177525933Y-51158039D01*
X177341961Y-50974067D01*
X177125634Y-50829522D01*
X176885263Y-50729957D01*
X176630087Y-50679200D01*
X176369913Y-50679200D01*
X176114737Y-50729957D01*
X175874366Y-50829522D01*
X175658039Y-50974067D01*
X175474067Y-51158039D01*
X175329522Y-51374366D01*
X175229957Y-51614737D01*
X175179200Y-51869913D01*
X175179200Y-52130087D01*
X175229957Y-52385263D01*
X175329522Y-52625634D01*
X175474067Y-52841961D01*
X175658039Y-53025933D01*
X175874366Y-53170478D01*
X176114633Y-53270000D01*
X175874366Y-53369522D01*
X175658039Y-53514067D01*
X175474067Y-53698039D01*
X175329522Y-53914366D01*
X175229957Y-54154737D01*
X175179200Y-54409913D01*
X175179200Y-54670087D01*
X175229957Y-54925263D01*
X175329522Y-55165634D01*
X175474067Y-55381961D01*
X175658039Y-55565933D01*
X175874366Y-55710478D01*
X176114633Y-55810000D01*
X175874366Y-55909522D01*
X175658039Y-56054067D01*
X175474067Y-56238039D01*
X175329522Y-56454366D01*
X175229957Y-56694737D01*
X175179200Y-56949913D01*
X175179200Y-57210087D01*
X175229957Y-57465263D01*
X175329522Y-57705634D01*
X175474067Y-57921961D01*
X175658039Y-58105933D01*
X175801670Y-58201904D01*
X175675623Y-58269277D01*
X175587129Y-58527524D01*
X176500000Y-59440395D01*
X176514143Y-59426253D01*
X176693748Y-59605858D01*
X176679605Y-59620000D01*
X176693748Y-59634143D01*
X176514143Y-59813748D01*
X176500000Y-59799605D01*
X175587129Y-60712476D01*
X175675623Y-60970723D01*
X175807332Y-61034313D01*
X175658039Y-61134067D01*
X175474067Y-61318039D01*
X175329522Y-61534366D01*
X175229957Y-61774737D01*
X175179200Y-62029913D01*
X175179200Y-62290087D01*
X175229957Y-62545263D01*
X175329522Y-62785634D01*
X175474067Y-63001961D01*
X175658039Y-63185933D01*
X175874366Y-63330478D01*
X176114633Y-63430000D01*
X175874366Y-63529522D01*
X175658039Y-63674067D01*
X175474067Y-63858039D01*
X175329522Y-64074366D01*
X175229957Y-64314737D01*
X175179200Y-64569913D01*
X175179200Y-64830087D01*
X175229957Y-65085263D01*
X175329522Y-65325634D01*
X175474067Y-65541961D01*
X175658039Y-65725933D01*
X175874366Y-65870478D01*
X176114633Y-65970000D01*
X175874366Y-66069522D01*
X175658039Y-66214067D01*
X175474067Y-66398039D01*
X175329522Y-66614366D01*
X175229957Y-66854737D01*
X175179200Y-67109913D01*
X175179200Y-67370087D01*
X175229957Y-67625263D01*
X175329522Y-67865634D01*
X175474067Y-68081961D01*
X175658039Y-68265933D01*
X175874366Y-68410478D01*
X176114633Y-68510000D01*
X175874366Y-68609522D01*
X175658039Y-68754067D01*
X175474067Y-68938039D01*
X175329522Y-69154366D01*
X175229957Y-69394737D01*
X175179200Y-69649913D01*
X175179200Y-69910087D01*
X175229957Y-70165263D01*
X175329522Y-70405634D01*
X175474067Y-70621961D01*
X175658039Y-70805933D01*
X175874366Y-70950478D01*
X176114633Y-71050000D01*
X175874366Y-71149522D01*
X175658039Y-71294067D01*
X175474067Y-71478039D01*
X175329522Y-71694366D01*
X175229957Y-71934737D01*
X175179200Y-72189913D01*
X175179200Y-72450087D01*
X175229957Y-72705263D01*
X175329522Y-72945634D01*
X175474067Y-73161961D01*
X175658039Y-73345933D01*
X175874366Y-73490478D01*
X176114633Y-73590000D01*
X175874366Y-73689522D01*
X175658039Y-73834067D01*
X175474067Y-74018039D01*
X175329522Y-74234366D01*
X175229957Y-74474737D01*
X175179200Y-74729913D01*
X175179200Y-74990087D01*
X175229957Y-75245263D01*
X175329522Y-75485634D01*
X175474067Y-75701961D01*
X175658039Y-75885933D01*
X175874366Y-76030478D01*
X176114633Y-76130000D01*
X175874366Y-76229522D01*
X175658039Y-76374067D01*
X175474067Y-76558039D01*
X175329522Y-76774366D01*
X175280796Y-76892000D01*
X175019421Y-76892000D01*
X171826855Y-73699435D01*
X171810948Y-73680052D01*
X171733595Y-73616571D01*
X171645343Y-73569399D01*
X171549585Y-73540351D01*
X171474947Y-73533000D01*
X171474944Y-73533000D01*
X171450000Y-73530543D01*
X171425056Y-73533000D01*
X167537943Y-73533000D01*
X167512999Y-73530543D01*
X167488055Y-73533000D01*
X167488053Y-73533000D01*
X167413415Y-73540351D01*
X167317657Y-73569399D01*
X167279196Y-73589957D01*
X167229404Y-73616571D01*
X167174810Y-73661376D01*
X167152052Y-73680052D01*
X167136150Y-73699429D01*
X164485236Y-76350344D01*
X164465853Y-76366251D01*
X164402372Y-76443604D01*
X164355200Y-76531857D01*
X164326152Y-76627615D01*
X164320226Y-76687784D01*
X164316344Y-76727199D01*
X164318801Y-76752143D01*
X164318802Y-80625801D01*
X162390276Y-80625801D01*
X162430478Y-80565634D01*
X162530043Y-80325263D01*
X162580800Y-80070087D01*
X162580800Y-79809913D01*
X162530043Y-79554737D01*
X162430478Y-79314366D01*
X162285933Y-79098039D01*
X162101961Y-78914067D01*
X161885634Y-78769522D01*
X161645367Y-78670000D01*
X161885634Y-78570478D01*
X162101961Y-78425933D01*
X162285933Y-78241961D01*
X162430478Y-78025634D01*
X162530043Y-77785263D01*
X162580800Y-77530087D01*
X162580800Y-77269913D01*
X162530043Y-77014737D01*
X162430478Y-76774366D01*
X162285933Y-76558039D01*
X162101961Y-76374067D01*
X161885634Y-76229522D01*
X161645367Y-76130000D01*
X161885634Y-76030478D01*
X162101961Y-75885933D01*
X162285933Y-75701961D01*
X162430478Y-75485634D01*
X162530043Y-75245263D01*
X162580800Y-74990087D01*
X162580800Y-74729913D01*
X162530043Y-74474737D01*
X162430478Y-74234366D01*
X162285933Y-74018039D01*
X162101961Y-73834067D01*
X161885634Y-73689522D01*
X161645367Y-73590000D01*
X161885634Y-73490478D01*
X162101961Y-73345933D01*
X162285933Y-73161961D01*
X162430478Y-72945634D01*
X162530043Y-72705263D01*
X162580800Y-72450087D01*
X162580800Y-72189913D01*
X162530043Y-71934737D01*
X162430478Y-71694366D01*
X162285933Y-71478039D01*
X162101961Y-71294067D01*
X161885634Y-71149522D01*
X161645367Y-71050000D01*
X161885634Y-70950478D01*
X162101961Y-70805933D01*
X162285933Y-70621961D01*
X162430478Y-70405634D01*
X162530043Y-70165263D01*
X162580800Y-69910087D01*
X162580800Y-69649913D01*
X162530043Y-69394737D01*
X162430478Y-69154366D01*
X162285933Y-68938039D01*
X162101961Y-68754067D01*
X161885634Y-68609522D01*
X161645367Y-68510000D01*
X161885634Y-68410478D01*
X162101961Y-68265933D01*
X162285933Y-68081961D01*
X162430478Y-67865634D01*
X162530043Y-67625263D01*
X162580800Y-67370087D01*
X162580800Y-67109913D01*
X162530043Y-66854737D01*
X162430478Y-66614366D01*
X162285933Y-66398039D01*
X162101961Y-66214067D01*
X161885634Y-66069522D01*
X161645367Y-65970000D01*
X161885634Y-65870478D01*
X162101961Y-65725933D01*
X162285933Y-65541961D01*
X162430478Y-65325634D01*
X162530043Y-65085263D01*
X162580800Y-64830087D01*
X162580800Y-64569913D01*
X162530043Y-64314737D01*
X162430478Y-64074366D01*
X162285933Y-63858039D01*
X162101961Y-63674067D01*
X161885634Y-63529522D01*
X161645367Y-63430000D01*
X161885634Y-63330478D01*
X162101961Y-63185933D01*
X162285933Y-63001961D01*
X162430478Y-62785634D01*
X162530043Y-62545263D01*
X162580800Y-62290087D01*
X162580800Y-62029913D01*
X162530043Y-61774737D01*
X162430478Y-61534366D01*
X162285933Y-61318039D01*
X162101961Y-61134067D01*
X161885634Y-60989522D01*
X161645367Y-60890000D01*
X161885634Y-60790478D01*
X162101961Y-60645933D01*
X162285933Y-60461961D01*
X162430478Y-60245634D01*
X162530043Y-60005263D01*
X162580800Y-59750087D01*
X162580800Y-59684977D01*
X174918916Y-59684977D01*
X174961973Y-59992184D01*
X175064135Y-60285086D01*
X175149277Y-60444377D01*
X175407524Y-60532871D01*
X176320395Y-59620000D01*
X175407524Y-58707129D01*
X175149277Y-58795623D01*
X175014403Y-59074976D01*
X174936619Y-59375275D01*
X174918916Y-59684977D01*
X162580800Y-59684977D01*
X162580800Y-59489913D01*
X162530043Y-59234737D01*
X162430478Y-58994366D01*
X162285933Y-58778039D01*
X162101961Y-58594067D01*
X161885634Y-58449522D01*
X161645367Y-58350000D01*
X161885634Y-58250478D01*
X162101961Y-58105933D01*
X162285933Y-57921961D01*
X162430478Y-57705634D01*
X162530043Y-57465263D01*
X162580800Y-57210087D01*
X162580800Y-56949913D01*
X162530043Y-56694737D01*
X162430478Y-56454366D01*
X162285933Y-56238039D01*
X162101961Y-56054067D01*
X161885634Y-55909522D01*
X161645367Y-55810000D01*
X161885634Y-55710478D01*
X162101961Y-55565933D01*
X162285933Y-55381961D01*
X162430478Y-55165634D01*
X162530043Y-54925263D01*
X162580800Y-54670087D01*
X162580800Y-54409913D01*
X162530043Y-54154737D01*
X162430478Y-53914366D01*
X162285933Y-53698039D01*
X162101961Y-53514067D01*
X161885634Y-53369522D01*
X161645367Y-53270000D01*
X161885634Y-53170478D01*
X162101961Y-53025933D01*
X162285933Y-52841961D01*
X162430478Y-52625634D01*
X162530043Y-52385263D01*
X162580800Y-52130087D01*
X162580800Y-51869913D01*
X162530043Y-51614737D01*
X162430478Y-51374366D01*
X162359619Y-51268317D01*
X166647682Y-51268317D01*
X166647682Y-51731683D01*
X166738080Y-52186146D01*
X166915403Y-52614240D01*
X167172835Y-52999515D01*
X167500485Y-53327165D01*
X167885760Y-53584597D01*
X168313854Y-53761920D01*
X168768317Y-53852318D01*
X169231683Y-53852318D01*
X169686146Y-53761920D01*
X170114240Y-53584597D01*
X170499515Y-53327165D01*
X170827165Y-52999515D01*
X171084597Y-52614240D01*
X171261920Y-52186146D01*
X171352318Y-51731683D01*
X171352318Y-51268317D01*
X171261920Y-50813854D01*
X171084597Y-50385760D01*
X170827165Y-50000485D01*
X170499515Y-49672835D01*
X170114240Y-49415403D01*
X169686146Y-49238080D01*
X169231683Y-49147682D01*
X168768317Y-49147682D01*
X168313854Y-49238080D01*
X167885760Y-49415403D01*
X167500485Y-49672835D01*
X167172835Y-50000485D01*
X166915403Y-50385760D01*
X166738080Y-50813854D01*
X166647682Y-51268317D01*
X162359619Y-51268317D01*
X162285933Y-51158039D01*
X162101961Y-50974067D01*
X161885634Y-50829522D01*
X161645263Y-50729957D01*
X161390087Y-50679200D01*
X161129913Y-50679200D01*
X160874737Y-50729957D01*
X160634366Y-50829522D01*
X160418039Y-50974067D01*
X160234067Y-51158039D01*
X160089522Y-51374366D01*
X159989957Y-51614737D01*
X159939200Y-51869913D01*
X159939200Y-52130087D01*
X159989957Y-52385263D01*
X160089522Y-52625634D01*
X160234067Y-52841961D01*
X160418039Y-53025933D01*
X160634366Y-53170478D01*
X160874633Y-53270000D01*
X160634366Y-53369522D01*
X160418039Y-53514067D01*
X160234067Y-53698039D01*
X160089522Y-53914366D01*
X159989957Y-54154737D01*
X159939200Y-54409913D01*
X159939200Y-54670087D01*
X159989957Y-54925263D01*
X160089522Y-55165634D01*
X160234067Y-55381961D01*
X160418039Y-55565933D01*
X160634366Y-55710478D01*
X160874633Y-55810000D01*
X160634366Y-55909522D01*
X160418039Y-56054067D01*
X160234067Y-56238039D01*
X160089522Y-56454366D01*
X159989957Y-56694737D01*
X159939200Y-56949913D01*
X159939200Y-57210087D01*
X159989957Y-57465263D01*
X160089522Y-57705634D01*
X160234067Y-57921961D01*
X160418039Y-58105933D01*
X160634366Y-58250478D01*
X160874633Y-58350000D01*
X160634366Y-58449522D01*
X160418039Y-58594067D01*
X160234067Y-58778039D01*
X160089522Y-58994366D01*
X159989957Y-59234737D01*
X159939200Y-59489913D01*
X159939200Y-59750087D01*
X159989957Y-60005263D01*
X160089522Y-60245634D01*
X160234067Y-60461961D01*
X160418039Y-60645933D01*
X160634366Y-60790478D01*
X160874633Y-60890000D01*
X160634366Y-60989522D01*
X160418039Y-61134067D01*
X160234067Y-61318039D01*
X160089522Y-61534366D01*
X159989957Y-61774737D01*
X159939200Y-62029913D01*
X159939200Y-62290087D01*
X159989957Y-62545263D01*
X160089522Y-62785634D01*
X160234067Y-63001961D01*
X160418039Y-63185933D01*
X160634366Y-63330478D01*
X160874633Y-63430000D01*
X160634366Y-63529522D01*
X160418039Y-63674067D01*
X160234067Y-63858039D01*
X160089522Y-64074366D01*
X159989957Y-64314737D01*
X159939200Y-64569913D01*
X159939200Y-64830087D01*
X159989957Y-65085263D01*
X160089522Y-65325634D01*
X160234067Y-65541961D01*
X160418039Y-65725933D01*
X160634366Y-65870478D01*
X160874633Y-65970000D01*
X160634366Y-66069522D01*
X160418039Y-66214067D01*
X160234067Y-66398039D01*
X160089522Y-66614366D01*
X160040796Y-66732000D01*
X153687640Y-66732000D01*
X153588483Y-66632843D01*
X154050000Y-66632843D01*
X154173462Y-66620683D01*
X154292179Y-66584671D01*
X154401589Y-66526190D01*
X154497488Y-66447488D01*
X154576190Y-66351589D01*
X154634671Y-66242179D01*
X154670683Y-66123462D01*
X154682843Y-66000000D01*
X154682843Y-64035577D01*
X155916571Y-62801850D01*
X155935948Y-62785948D01*
X155969869Y-62744615D01*
X155999429Y-62708596D01*
X156046600Y-62620345D01*
X156046601Y-62620342D01*
X156075649Y-62524585D01*
X156083000Y-62449947D01*
X156083000Y-62449945D01*
X156085457Y-62425001D01*
X156083000Y-62400057D01*
X156083000Y-57081414D01*
X156154679Y-57059671D01*
X156264089Y-57001190D01*
X156359988Y-56922488D01*
X156438690Y-56826589D01*
X156497171Y-56717179D01*
X156533183Y-56598462D01*
X156545343Y-56475000D01*
X156545343Y-55525000D01*
X156533183Y-55401538D01*
X156497171Y-55282821D01*
X156438690Y-55173411D01*
X156359988Y-55077512D01*
X156264089Y-54998810D01*
X156209549Y-54969658D01*
X156297488Y-54897488D01*
X156376190Y-54801589D01*
X156434671Y-54692179D01*
X156470683Y-54573462D01*
X156482843Y-54450001D01*
X156482843Y-53549999D01*
X156470683Y-53426538D01*
X156434671Y-53307821D01*
X156376190Y-53198411D01*
X156297488Y-53102512D01*
X156201589Y-53023810D01*
X156092179Y-52965329D01*
X155973462Y-52929317D01*
X155850001Y-52917157D01*
X155149999Y-52917157D01*
X155026538Y-52929317D01*
X154907821Y-52965329D01*
X154798411Y-53023810D01*
X154702512Y-53102512D01*
X154623810Y-53198411D01*
X154565329Y-53307821D01*
X154529317Y-53426538D01*
X154517157Y-53549999D01*
X154517157Y-54450001D01*
X154529317Y-54573462D01*
X154565329Y-54692179D01*
X154623810Y-54801589D01*
X154702512Y-54897488D01*
X154798411Y-54976190D01*
X154868091Y-55013435D01*
X154790012Y-55077512D01*
X154711310Y-55173411D01*
X154652829Y-55282821D01*
X154616817Y-55401538D01*
X154604657Y-55525000D01*
X154604657Y-56475000D01*
X154616817Y-56598462D01*
X154652829Y-56717179D01*
X154711310Y-56826589D01*
X154790012Y-56922488D01*
X154885911Y-57001190D01*
X154995321Y-57059671D01*
X155067001Y-57081415D01*
X155067000Y-62214579D01*
X154596037Y-62685542D01*
X154576190Y-62648411D01*
X154497488Y-62552512D01*
X154401589Y-62473810D01*
X154292179Y-62415329D01*
X154173462Y-62379317D01*
X154050000Y-62367157D01*
X152950000Y-62367157D01*
X152826538Y-62379317D01*
X152707821Y-62415329D01*
X152598411Y-62473810D01*
X152572613Y-62494982D01*
X151565284Y-61487654D01*
X151541422Y-61458578D01*
X151425392Y-61363355D01*
X151293015Y-61292598D01*
X151149378Y-61249026D01*
X151037426Y-61238000D01*
X151037423Y-61238000D01*
X151000000Y-61234314D01*
X150962577Y-61238000D01*
X148882843Y-61238000D01*
X148882843Y-60882843D01*
X149055000Y-60882843D01*
X149158953Y-60872605D01*
X149258910Y-60842283D01*
X149351032Y-60793043D01*
X149431777Y-60726777D01*
X149498043Y-60646032D01*
X149547283Y-60553910D01*
X149577605Y-60453953D01*
X149587843Y-60350000D01*
X149587843Y-59919787D01*
X149645630Y-59862000D01*
X152317157Y-59862000D01*
X152317157Y-60600000D01*
X152329317Y-60723462D01*
X152365329Y-60842179D01*
X152423810Y-60951589D01*
X152502512Y-61047488D01*
X152598411Y-61126190D01*
X152707821Y-61184671D01*
X152826538Y-61220683D01*
X152950000Y-61232843D01*
X154050000Y-61232843D01*
X154173462Y-61220683D01*
X154292179Y-61184671D01*
X154401589Y-61126190D01*
X154497488Y-61047488D01*
X154576190Y-60951589D01*
X154634671Y-60842179D01*
X154670683Y-60723462D01*
X154682843Y-60600000D01*
X154682843Y-57600000D01*
X154670683Y-57476538D01*
X154634671Y-57357821D01*
X154576190Y-57248411D01*
X154497488Y-57152512D01*
X154401589Y-57073810D01*
X154292179Y-57015329D01*
X154262000Y-57006174D01*
X154262000Y-56941354D01*
X154284988Y-56922488D01*
X154363690Y-56826589D01*
X154422171Y-56717179D01*
X154458183Y-56598462D01*
X154470343Y-56475000D01*
X154470343Y-55525000D01*
X154458183Y-55401538D01*
X154422171Y-55282821D01*
X154363690Y-55173411D01*
X154284988Y-55077512D01*
X154189089Y-54998810D01*
X154174180Y-54990841D01*
X154201589Y-54976190D01*
X154297488Y-54897488D01*
X154376190Y-54801589D01*
X154434671Y-54692179D01*
X154470683Y-54573462D01*
X154482843Y-54450001D01*
X154482843Y-53549999D01*
X154470683Y-53426538D01*
X154434671Y-53307821D01*
X154376190Y-53198411D01*
X154297488Y-53102512D01*
X154201589Y-53023810D01*
X154092179Y-52965329D01*
X154088912Y-52964338D01*
X154101800Y-52899545D01*
X154101800Y-52764455D01*
X154075445Y-52631960D01*
X154023748Y-52507152D01*
X153948695Y-52394828D01*
X153853172Y-52299305D01*
X153740848Y-52224252D01*
X153616040Y-52172555D01*
X153483545Y-52146200D01*
X153348455Y-52146200D01*
X153215960Y-52172555D01*
X153091152Y-52224252D01*
X152978828Y-52299305D01*
X152883305Y-52394828D01*
X152808252Y-52507152D01*
X152756555Y-52631960D01*
X152730200Y-52764455D01*
X152730200Y-52899545D01*
X152756555Y-53032040D01*
X152764630Y-53051534D01*
X152702512Y-53102512D01*
X152623810Y-53198411D01*
X152565329Y-53307821D01*
X152529317Y-53426538D01*
X152517157Y-53549999D01*
X152517157Y-54450001D01*
X152529317Y-54573462D01*
X152565329Y-54692179D01*
X152623810Y-54801589D01*
X152702512Y-54897488D01*
X152798411Y-54976190D01*
X152825820Y-54990841D01*
X152810911Y-54998810D01*
X152715012Y-55077512D01*
X152636310Y-55173411D01*
X152577829Y-55282821D01*
X152541817Y-55401538D01*
X152529657Y-55525000D01*
X152529657Y-56475000D01*
X152541817Y-56598462D01*
X152577829Y-56717179D01*
X152636310Y-56826589D01*
X152715012Y-56922488D01*
X152738000Y-56941354D01*
X152738000Y-57006174D01*
X152707821Y-57015329D01*
X152598411Y-57073810D01*
X152502512Y-57152512D01*
X152423810Y-57248411D01*
X152365329Y-57357821D01*
X152329317Y-57476538D01*
X152317157Y-57600000D01*
X152317157Y-58338000D01*
X149667000Y-58338000D01*
X149667000Y-50871906D01*
X149670686Y-50834483D01*
X149660391Y-50729957D01*
X149655974Y-50685106D01*
X149612402Y-50541469D01*
X149541645Y-50409092D01*
X149446422Y-50293062D01*
X149417351Y-50269204D01*
X148627790Y-49479643D01*
X148603928Y-49450568D01*
X148487898Y-49355345D01*
X148355521Y-49284588D01*
X148211884Y-49241016D01*
X148099932Y-49229990D01*
X148099929Y-49229990D01*
X148062506Y-49226304D01*
X148025083Y-49229990D01*
X140788185Y-49229990D01*
X140750762Y-49226304D01*
X140713339Y-49229990D01*
X140713336Y-49229990D01*
X140601384Y-49241016D01*
X140457747Y-49284588D01*
X140396126Y-49317525D01*
X140325369Y-49355345D01*
X140314353Y-49364386D01*
X140209340Y-49450568D01*
X140185478Y-49479644D01*
X137598646Y-52066476D01*
X137569570Y-52090338D01*
X137536200Y-52131000D01*
X137474347Y-52206368D01*
X137464788Y-52224252D01*
X137403590Y-52338746D01*
X137360018Y-52482383D01*
X137355062Y-52532705D01*
X137345306Y-52631760D01*
X137348992Y-52669183D01*
X137348993Y-58332497D01*
X137303492Y-58346299D01*
X137237304Y-58381678D01*
X137179289Y-58429289D01*
X137131678Y-58487304D01*
X137096299Y-58553492D01*
X137074513Y-58625311D01*
X137067157Y-58700000D01*
X137067157Y-58992000D01*
X136967093Y-58992000D01*
X136958183Y-58901538D01*
X136922171Y-58782821D01*
X136863690Y-58673411D01*
X136784988Y-58577512D01*
X136689089Y-58498810D01*
X136579679Y-58440329D01*
X136460962Y-58404317D01*
X136337500Y-58392157D01*
X135969788Y-58392157D01*
X135332274Y-57754644D01*
X135308412Y-57725568D01*
X135192382Y-57630345D01*
X135060005Y-57559588D01*
X134916368Y-57516016D01*
X134804416Y-57504990D01*
X134804413Y-57504990D01*
X134766990Y-57501304D01*
X134729567Y-57504990D01*
X130873442Y-57504990D01*
X130836019Y-57501304D01*
X130798596Y-57504990D01*
X130798594Y-57504990D01*
X130686642Y-57516016D01*
X130543005Y-57559588D01*
X130410628Y-57630345D01*
X130294598Y-57725568D01*
X130270741Y-57754638D01*
X126129644Y-61895736D01*
X126100568Y-61919598D01*
X126073140Y-61953020D01*
X103671440Y-61953020D01*
X99718420Y-58000000D01*
X106341012Y-58000000D01*
X106372889Y-58323653D01*
X106467295Y-58634867D01*
X106620602Y-58921684D01*
X106826918Y-59173082D01*
X107078316Y-59379398D01*
X107365133Y-59532705D01*
X107676347Y-59627111D01*
X107918896Y-59651000D01*
X116368899Y-59651000D01*
X116450000Y-59658988D01*
X116531101Y-59651000D01*
X116531104Y-59651000D01*
X116773653Y-59627111D01*
X117084867Y-59532705D01*
X117371684Y-59379398D01*
X117623082Y-59173082D01*
X117674787Y-59110079D01*
X122610086Y-54174781D01*
X122673082Y-54123082D01*
X122761303Y-54015584D01*
X122879398Y-53871685D01*
X123032704Y-53584868D01*
X123032705Y-53584867D01*
X123109156Y-53332843D01*
X123199999Y-53332843D01*
X123323461Y-53320683D01*
X123442178Y-53284671D01*
X123551588Y-53226190D01*
X123647487Y-53147487D01*
X123726190Y-53051588D01*
X123784671Y-52942178D01*
X123820683Y-52823461D01*
X123832843Y-52699999D01*
X123832843Y-49300001D01*
X123820683Y-49176539D01*
X123784671Y-49057822D01*
X123726190Y-48948412D01*
X123647487Y-48852513D01*
X123551588Y-48773810D01*
X123442178Y-48715329D01*
X123323461Y-48679317D01*
X123199999Y-48667157D01*
X119800001Y-48667157D01*
X119676539Y-48679317D01*
X119557822Y-48715329D01*
X119448412Y-48773810D01*
X119352513Y-48852513D01*
X119273810Y-48948412D01*
X119215329Y-49057822D01*
X119179317Y-49176539D01*
X119167157Y-49300001D01*
X119167157Y-52699999D01*
X119179317Y-52823461D01*
X119205467Y-52909666D01*
X115766134Y-56349000D01*
X107918896Y-56349000D01*
X107676347Y-56372889D01*
X107365133Y-56467295D01*
X107078316Y-56620602D01*
X106826918Y-56826918D01*
X106620602Y-57078316D01*
X106467295Y-57365133D01*
X106372889Y-57676347D01*
X106341012Y-58000000D01*
X99718420Y-58000000D01*
X92614318Y-50895898D01*
X92635614Y-50844485D01*
X92681000Y-50616318D01*
X92681000Y-50500000D01*
X109841012Y-50500000D01*
X109872889Y-50823653D01*
X109967295Y-51134867D01*
X110120602Y-51421684D01*
X110326918Y-51673082D01*
X110578316Y-51879398D01*
X110865133Y-52032705D01*
X111176347Y-52127111D01*
X111418896Y-52151000D01*
X114167157Y-52151000D01*
X114167157Y-52699999D01*
X114179317Y-52823461D01*
X114215329Y-52942178D01*
X114273810Y-53051588D01*
X114352513Y-53147487D01*
X114448412Y-53226190D01*
X114557822Y-53284671D01*
X114676539Y-53320683D01*
X114800001Y-53332843D01*
X118199999Y-53332843D01*
X118323461Y-53320683D01*
X118442178Y-53284671D01*
X118551588Y-53226190D01*
X118647487Y-53147487D01*
X118726190Y-53051588D01*
X118784671Y-52942178D01*
X118820683Y-52823461D01*
X118832843Y-52699999D01*
X118832843Y-49300001D01*
X118820683Y-49176539D01*
X118784671Y-49057822D01*
X118726190Y-48948412D01*
X118647487Y-48852513D01*
X118551588Y-48773810D01*
X118442178Y-48715329D01*
X118323461Y-48679317D01*
X118199999Y-48667157D01*
X114800001Y-48667157D01*
X114676539Y-48679317D01*
X114557822Y-48715329D01*
X114448412Y-48773810D01*
X114356794Y-48849000D01*
X111418896Y-48849000D01*
X111176347Y-48872889D01*
X110865133Y-48967295D01*
X110578316Y-49120602D01*
X110326918Y-49326918D01*
X110120602Y-49578316D01*
X109967295Y-49865133D01*
X109872889Y-50176347D01*
X109841012Y-50500000D01*
X92681000Y-50500000D01*
X92681000Y-50383682D01*
X92635614Y-50155515D01*
X92546588Y-49940587D01*
X92417342Y-49747157D01*
X92252843Y-49582658D01*
X92059413Y-49453412D01*
X91844485Y-49364386D01*
X91616318Y-49319000D01*
X91383682Y-49319000D01*
X91155515Y-49364386D01*
X90940587Y-49453412D01*
X90747157Y-49582658D01*
X90582658Y-49747157D01*
X90453412Y-49940587D01*
X90364386Y-50155515D01*
X90319000Y-50383682D01*
X90319000Y-50616318D01*
X90364386Y-50844485D01*
X90453412Y-51059413D01*
X90582658Y-51252843D01*
X90747157Y-51417342D01*
X90940587Y-51546588D01*
X91155515Y-51635614D01*
X91383682Y-51681000D01*
X91616318Y-51681000D01*
X91844485Y-51635614D01*
X91895898Y-51614318D01*
X103084165Y-62802585D01*
X103100072Y-62821968D01*
X103177425Y-62885449D01*
X103265677Y-62932621D01*
X103361435Y-62961669D01*
X103436073Y-62969020D01*
X103436076Y-62969020D01*
X103461020Y-62971477D01*
X103485964Y-62969020D01*
X125879990Y-62969020D01*
X125879991Y-74104557D01*
X125876304Y-74141990D01*
X125891017Y-74291368D01*
X125934589Y-74435005D01*
X126005345Y-74567382D01*
X126070198Y-74646405D01*
X126100569Y-74683412D01*
X126129639Y-74707269D01*
X127539527Y-76117157D01*
X126900000Y-76117157D01*
X126841353Y-76122933D01*
X126426855Y-75708435D01*
X126410948Y-75689052D01*
X126333595Y-75625571D01*
X126245343Y-75578399D01*
X126149585Y-75549351D01*
X126074947Y-75542000D01*
X126074944Y-75542000D01*
X126050000Y-75539543D01*
X126025056Y-75542000D01*
X124315382Y-75542000D01*
X124303701Y-75503492D01*
X124268322Y-75437304D01*
X124220711Y-75379289D01*
X124162696Y-75331678D01*
X124096508Y-75296299D01*
X124024689Y-75274513D01*
X123950000Y-75267157D01*
X123050000Y-75267157D01*
X122975311Y-75274513D01*
X122903492Y-75296299D01*
X122837304Y-75331678D01*
X122779289Y-75379289D01*
X122731678Y-75437304D01*
X122696299Y-75503492D01*
X122674513Y-75575311D01*
X122667157Y-75650000D01*
X122667157Y-76450000D01*
X122674513Y-76524689D01*
X122696299Y-76596508D01*
X122731678Y-76662696D01*
X122779289Y-76720711D01*
X122837304Y-76768322D01*
X122903492Y-76803701D01*
X122975311Y-76825487D01*
X123050000Y-76832843D01*
X123950000Y-76832843D01*
X124024689Y-76825487D01*
X124096508Y-76803701D01*
X124162696Y-76768322D01*
X124220711Y-76720711D01*
X124268322Y-76662696D01*
X124303701Y-76596508D01*
X124315382Y-76558000D01*
X125839580Y-76558000D01*
X126267157Y-76985577D01*
X126267157Y-78250000D01*
X126279317Y-78373462D01*
X126315329Y-78492179D01*
X126373810Y-78601589D01*
X126452512Y-78697488D01*
X126548411Y-78776190D01*
X126657821Y-78834671D01*
X126776538Y-78870683D01*
X126900000Y-78882843D01*
X127805212Y-78882843D01*
X128442731Y-79520362D01*
X128466588Y-79549432D01*
X128582618Y-79644655D01*
X128714995Y-79715412D01*
X128858632Y-79758984D01*
X128970584Y-79770010D01*
X128970586Y-79770010D01*
X129008009Y-79773696D01*
X129045432Y-79770010D01*
X130525083Y-79770010D01*
X130562506Y-79773696D01*
X130599929Y-79770010D01*
X130599932Y-79770010D01*
X130711884Y-79758984D01*
X130855521Y-79715412D01*
X130987898Y-79644655D01*
X131103928Y-79549432D01*
X131127790Y-79520356D01*
X131521146Y-79127000D01*
X146765000Y-79127000D01*
X146765000Y-79402000D01*
X146813507Y-79640496D01*
X146907610Y-79864946D01*
X147043693Y-80066725D01*
X147216526Y-80238078D01*
X147419467Y-80372421D01*
X147644718Y-80464591D01*
X147682391Y-80468462D01*
X147873000Y-80343731D01*
X147873000Y-79127000D01*
X146765000Y-79127000D01*
X131521146Y-79127000D01*
X132173146Y-78475000D01*
X135011928Y-78475000D01*
X135024188Y-78599482D01*
X135060498Y-78719180D01*
X135119463Y-78829494D01*
X135198815Y-78926185D01*
X135295506Y-79005537D01*
X135405820Y-79064502D01*
X135525518Y-79100812D01*
X135650000Y-79113072D01*
X136214250Y-79110000D01*
X136373000Y-78951250D01*
X136373000Y-77627000D01*
X135173750Y-77627000D01*
X135015000Y-77785750D01*
X135011928Y-78475000D01*
X132173146Y-78475000D01*
X134123146Y-76525000D01*
X135011928Y-76525000D01*
X135015000Y-77214250D01*
X135173750Y-77373000D01*
X136373000Y-77373000D01*
X136373000Y-76048750D01*
X136627000Y-76048750D01*
X136627000Y-77373000D01*
X136647000Y-77373000D01*
X136647000Y-77627000D01*
X136627000Y-77627000D01*
X136627000Y-78951250D01*
X136785750Y-79110000D01*
X137350000Y-79113072D01*
X137474482Y-79100812D01*
X137594180Y-79064502D01*
X137704494Y-79005537D01*
X137801185Y-78926185D01*
X137880537Y-78829494D01*
X137939502Y-78719180D01*
X137975812Y-78599482D01*
X137988072Y-78475000D01*
X137987433Y-78331619D01*
X138125341Y-78499660D01*
X138312785Y-78653491D01*
X138526638Y-78767798D01*
X138758683Y-78838188D01*
X139000000Y-78861956D01*
X139241318Y-78838188D01*
X139473363Y-78767798D01*
X139687216Y-78653491D01*
X139874660Y-78499660D01*
X140028491Y-78312215D01*
X140142798Y-78098362D01*
X140213188Y-77866317D01*
X140231000Y-77685471D01*
X140231000Y-77314529D01*
X140269000Y-77314529D01*
X140269000Y-77685472D01*
X140286812Y-77866318D01*
X140357202Y-78098363D01*
X140471509Y-78312216D01*
X140625341Y-78499660D01*
X140812785Y-78653491D01*
X141026638Y-78767798D01*
X141258683Y-78838188D01*
X141500000Y-78861956D01*
X141741318Y-78838188D01*
X141973363Y-78767798D01*
X142187216Y-78653491D01*
X142374660Y-78499660D01*
X142528491Y-78312215D01*
X142642798Y-78098362D01*
X142713188Y-77866317D01*
X142731000Y-77685471D01*
X142731000Y-77314528D01*
X142713188Y-77133682D01*
X142642798Y-76901637D01*
X142528491Y-76687784D01*
X142374660Y-76500340D01*
X142187215Y-76346509D01*
X141973362Y-76232202D01*
X141741317Y-76161812D01*
X141500000Y-76138044D01*
X141258682Y-76161812D01*
X141026637Y-76232202D01*
X140812784Y-76346509D01*
X140625340Y-76500340D01*
X140471509Y-76687785D01*
X140357202Y-76901638D01*
X140286812Y-77133683D01*
X140269000Y-77314529D01*
X140231000Y-77314529D01*
X140231000Y-77314528D01*
X140213188Y-77133682D01*
X140142798Y-76901637D01*
X140028491Y-76687784D01*
X139874660Y-76500340D01*
X139687215Y-76346509D01*
X139473362Y-76232202D01*
X139241317Y-76161812D01*
X139000000Y-76138044D01*
X138758682Y-76161812D01*
X138526637Y-76232202D01*
X138312784Y-76346509D01*
X138125340Y-76500340D01*
X137987433Y-76668381D01*
X137988072Y-76525000D01*
X137975812Y-76400518D01*
X137939502Y-76280820D01*
X137880537Y-76170506D01*
X137801185Y-76073815D01*
X137704494Y-75994463D01*
X137594180Y-75935498D01*
X137474482Y-75899188D01*
X137350000Y-75886928D01*
X136785750Y-75890000D01*
X136627000Y-76048750D01*
X136373000Y-76048750D01*
X136214250Y-75890000D01*
X135650000Y-75886928D01*
X135525518Y-75899188D01*
X135405820Y-75935498D01*
X135295506Y-75994463D01*
X135198815Y-76073815D01*
X135119463Y-76170506D01*
X135060498Y-76280820D01*
X135024188Y-76400518D01*
X135011928Y-76525000D01*
X134123146Y-76525000D01*
X134220362Y-76427785D01*
X134249432Y-76403928D01*
X134344655Y-76287898D01*
X134415412Y-76155521D01*
X134458984Y-76011884D01*
X134470010Y-75899932D01*
X134470010Y-75899930D01*
X134473696Y-75862507D01*
X134470010Y-75825084D01*
X134470010Y-71475000D01*
X135011928Y-71475000D01*
X135024188Y-71599482D01*
X135060498Y-71719180D01*
X135119463Y-71829494D01*
X135198815Y-71926185D01*
X135295506Y-72005537D01*
X135405820Y-72064502D01*
X135525518Y-72100812D01*
X135650000Y-72113072D01*
X136214250Y-72110000D01*
X136373000Y-71951250D01*
X136373000Y-70627000D01*
X135173750Y-70627000D01*
X135015000Y-70785750D01*
X135011928Y-71475000D01*
X134470010Y-71475000D01*
X134470010Y-69525000D01*
X135011928Y-69525000D01*
X135015000Y-70214250D01*
X135173750Y-70373000D01*
X136373000Y-70373000D01*
X136373000Y-69048750D01*
X136214250Y-68890000D01*
X135650000Y-68886928D01*
X135525518Y-68899188D01*
X135405820Y-68935498D01*
X135295506Y-68994463D01*
X135198815Y-69073815D01*
X135119463Y-69170506D01*
X135060498Y-69280820D01*
X135024188Y-69400518D01*
X135011928Y-69525000D01*
X134470010Y-69525000D01*
X134470010Y-65688430D01*
X137322145Y-68540565D01*
X137338052Y-68559948D01*
X137415405Y-68623429D01*
X137503657Y-68670601D01*
X137599415Y-68699649D01*
X137674053Y-68707000D01*
X137674056Y-68707000D01*
X137699000Y-68709457D01*
X137723944Y-68707000D01*
X145022869Y-68707000D01*
X145029317Y-68772462D01*
X145065329Y-68891179D01*
X145123810Y-69000589D01*
X145202512Y-69096488D01*
X145298411Y-69175190D01*
X145407821Y-69233671D01*
X145526538Y-69269683D01*
X145649999Y-69281843D01*
X146350001Y-69281843D01*
X146473462Y-69269683D01*
X146592179Y-69233671D01*
X146701589Y-69175190D01*
X146797488Y-69096488D01*
X146876190Y-69000589D01*
X146934671Y-68891179D01*
X146970683Y-68772462D01*
X146982843Y-68649001D01*
X146982843Y-67748999D01*
X146970683Y-67625538D01*
X146934671Y-67506821D01*
X146876190Y-67397411D01*
X146797488Y-67301512D01*
X146701589Y-67222810D01*
X146592179Y-67164329D01*
X146570546Y-67157767D01*
X146582445Y-67129040D01*
X146608800Y-66996545D01*
X146608800Y-66861455D01*
X146582445Y-66728960D01*
X146530748Y-66604152D01*
X146455695Y-66491828D01*
X146360172Y-66396305D01*
X146247848Y-66321252D01*
X146123040Y-66269555D01*
X145990545Y-66243200D01*
X145855455Y-66243200D01*
X145722960Y-66269555D01*
X145603000Y-66319244D01*
X145603000Y-65692187D01*
X145621777Y-65676777D01*
X145688043Y-65596032D01*
X145730000Y-65517536D01*
X145771957Y-65596032D01*
X145838223Y-65676777D01*
X145918968Y-65743043D01*
X145971266Y-65770997D01*
X145988150Y-65791570D01*
X146004053Y-65810948D01*
X146023430Y-65826850D01*
X146623165Y-66426585D01*
X146639072Y-66445968D01*
X146688308Y-66486374D01*
X146716424Y-66509449D01*
X146747745Y-66526190D01*
X146804677Y-66556621D01*
X146900435Y-66585669D01*
X146975073Y-66593020D01*
X146975076Y-66593020D01*
X147000020Y-66595477D01*
X147024964Y-66593020D01*
X149099113Y-66593020D01*
X149073305Y-66618828D01*
X148998252Y-66731152D01*
X148946555Y-66855960D01*
X148920200Y-66988455D01*
X148920200Y-67123545D01*
X148927146Y-67158467D01*
X148907821Y-67164329D01*
X148798411Y-67222810D01*
X148750000Y-67262540D01*
X148701589Y-67222810D01*
X148592179Y-67164329D01*
X148473462Y-67128317D01*
X148350001Y-67116157D01*
X147649999Y-67116157D01*
X147526538Y-67128317D01*
X147407821Y-67164329D01*
X147298411Y-67222810D01*
X147202512Y-67301512D01*
X147123810Y-67397411D01*
X147065329Y-67506821D01*
X147029317Y-67625538D01*
X147017157Y-67748999D01*
X147017157Y-68649001D01*
X147029317Y-68772462D01*
X147065329Y-68891179D01*
X147123810Y-69000589D01*
X147202512Y-69096488D01*
X147298411Y-69175190D01*
X147407821Y-69233671D01*
X147526538Y-69269683D01*
X147649999Y-69281843D01*
X148350001Y-69281843D01*
X148473462Y-69269683D01*
X148592179Y-69233671D01*
X148701589Y-69175190D01*
X148750000Y-69135460D01*
X148798411Y-69175190D01*
X148907821Y-69233671D01*
X149026538Y-69269683D01*
X149149999Y-69281843D01*
X149850001Y-69281843D01*
X149973462Y-69269683D01*
X150092179Y-69233671D01*
X150201589Y-69175190D01*
X150296564Y-69097246D01*
X150310498Y-69143180D01*
X150369463Y-69253494D01*
X150448815Y-69350185D01*
X150545506Y-69429537D01*
X150655820Y-69488502D01*
X150775518Y-69524812D01*
X150900000Y-69537072D01*
X151214250Y-69534000D01*
X151373000Y-69375250D01*
X151373000Y-68326000D01*
X151627000Y-68326000D01*
X151627000Y-69375250D01*
X151785750Y-69534000D01*
X152100000Y-69537072D01*
X152224482Y-69524812D01*
X152344180Y-69488502D01*
X152454494Y-69429537D01*
X152551185Y-69350185D01*
X152630537Y-69253494D01*
X152689502Y-69143180D01*
X152725812Y-69023482D01*
X152738072Y-68899000D01*
X152735000Y-68484750D01*
X152576250Y-68326000D01*
X151627000Y-68326000D01*
X151373000Y-68326000D01*
X151353000Y-68326000D01*
X151353000Y-68072000D01*
X151373000Y-68072000D01*
X151373000Y-67022750D01*
X151214250Y-66864000D01*
X150900000Y-66860928D01*
X150775518Y-66873188D01*
X150655820Y-66909498D01*
X150545506Y-66968463D01*
X150448815Y-67047815D01*
X150369463Y-67144506D01*
X150310498Y-67254820D01*
X150296564Y-67300754D01*
X150259517Y-67270350D01*
X150265445Y-67256040D01*
X150291800Y-67123545D01*
X150291800Y-66988455D01*
X150265445Y-66855960D01*
X150213748Y-66731152D01*
X150138695Y-66618828D01*
X150112887Y-66593020D01*
X151572992Y-66593020D01*
X151843408Y-66863436D01*
X151785750Y-66864000D01*
X151627000Y-67022750D01*
X151627000Y-68072000D01*
X152576250Y-68072000D01*
X152735000Y-67913250D01*
X152736165Y-67756193D01*
X155101537Y-70121565D01*
X155117444Y-70140948D01*
X155194797Y-70204429D01*
X155283049Y-70251601D01*
X155378807Y-70280649D01*
X155453445Y-70288000D01*
X155453448Y-70288000D01*
X155478392Y-70290457D01*
X155503336Y-70288000D01*
X160040796Y-70288000D01*
X160089522Y-70405634D01*
X160234067Y-70621961D01*
X160418039Y-70805933D01*
X160634366Y-70950478D01*
X160874633Y-71050000D01*
X160634366Y-71149522D01*
X160464549Y-71262990D01*
X146733611Y-71262990D01*
X146050000Y-70579380D01*
X146050000Y-70544455D01*
X146023645Y-70411960D01*
X145971948Y-70287152D01*
X145896895Y-70174828D01*
X145801372Y-70079305D01*
X145689048Y-70004252D01*
X145564240Y-69952555D01*
X145431745Y-69926200D01*
X145296655Y-69926200D01*
X145164160Y-69952555D01*
X145039352Y-70004252D01*
X144927028Y-70079305D01*
X144831505Y-70174828D01*
X144756452Y-70287152D01*
X144704755Y-70411960D01*
X144678400Y-70544455D01*
X144678400Y-70679545D01*
X144704755Y-70812040D01*
X144756452Y-70936848D01*
X144831505Y-71049172D01*
X144927028Y-71144695D01*
X145039352Y-71219748D01*
X145164160Y-71271445D01*
X145296655Y-71297800D01*
X145331580Y-71297800D01*
X146146339Y-72112560D01*
X146162242Y-72131938D01*
X146181619Y-72147840D01*
X146239594Y-72195419D01*
X146327845Y-72242590D01*
X146327847Y-72242591D01*
X146423605Y-72271639D01*
X146498243Y-72278990D01*
X146498245Y-72278990D01*
X146523189Y-72281447D01*
X146548133Y-72278990D01*
X146922758Y-72278990D01*
X146857202Y-72401637D01*
X146822207Y-72517000D01*
X146384867Y-72517000D01*
X146360172Y-72492305D01*
X146247848Y-72417252D01*
X146123040Y-72365555D01*
X145990545Y-72339200D01*
X145855455Y-72339200D01*
X145722960Y-72365555D01*
X145598152Y-72417252D01*
X145485828Y-72492305D01*
X145390305Y-72587828D01*
X145315252Y-72700152D01*
X145263555Y-72824960D01*
X145237200Y-72957455D01*
X145237200Y-73092545D01*
X145263555Y-73225040D01*
X145315252Y-73349848D01*
X145390305Y-73462172D01*
X145485828Y-73557695D01*
X145598152Y-73632748D01*
X145722960Y-73684445D01*
X145855455Y-73710800D01*
X145990545Y-73710800D01*
X146123040Y-73684445D01*
X146247848Y-73632748D01*
X146360172Y-73557695D01*
X146384867Y-73533000D01*
X146837375Y-73533000D01*
X146857202Y-73598362D01*
X146971509Y-73812215D01*
X147125340Y-73999660D01*
X147312784Y-74153491D01*
X147526637Y-74267798D01*
X147758682Y-74338188D01*
X148000000Y-74361956D01*
X148241317Y-74338188D01*
X148473362Y-74267798D01*
X148522900Y-74241320D01*
X150061145Y-75779565D01*
X150077052Y-75798948D01*
X150154405Y-75862429D01*
X150242657Y-75909601D01*
X150338415Y-75938649D01*
X150413053Y-75946000D01*
X150413056Y-75946000D01*
X150438000Y-75948457D01*
X150462944Y-75946000D01*
X151303133Y-75946000D01*
X151327828Y-75970695D01*
X151440152Y-76045748D01*
X151564960Y-76097445D01*
X151697455Y-76123800D01*
X151832545Y-76123800D01*
X151965040Y-76097445D01*
X152089848Y-76045748D01*
X152202172Y-75970695D01*
X152297695Y-75875172D01*
X152372748Y-75762848D01*
X152424445Y-75638040D01*
X152450800Y-75505545D01*
X152450800Y-75370455D01*
X152424445Y-75237960D01*
X152372748Y-75113152D01*
X152297695Y-75000828D01*
X152202172Y-74905305D01*
X152089848Y-74830252D01*
X151965040Y-74778555D01*
X151832545Y-74752200D01*
X151697455Y-74752200D01*
X151564960Y-74778555D01*
X151440152Y-74830252D01*
X151327828Y-74905305D01*
X151303133Y-74930000D01*
X150648420Y-74930000D01*
X149939806Y-74221386D01*
X150026637Y-74267798D01*
X150258682Y-74338188D01*
X150500000Y-74361956D01*
X150741317Y-74338188D01*
X150973362Y-74267798D01*
X151187215Y-74153491D01*
X151374660Y-73999660D01*
X151528491Y-73812216D01*
X151642798Y-73598363D01*
X151713188Y-73366318D01*
X151731000Y-73185472D01*
X151731000Y-72814529D01*
X151713188Y-72633683D01*
X151642798Y-72401638D01*
X151577241Y-72278990D01*
X151922758Y-72278990D01*
X151857202Y-72401637D01*
X151786812Y-72633682D01*
X151769000Y-72814528D01*
X151769000Y-73185471D01*
X151786812Y-73366317D01*
X151857202Y-73598362D01*
X151971509Y-73812215D01*
X152125340Y-73999660D01*
X152312784Y-74153491D01*
X152526637Y-74267798D01*
X152758682Y-74338188D01*
X153000000Y-74361956D01*
X153241317Y-74338188D01*
X153473362Y-74267798D01*
X153687215Y-74153491D01*
X153874660Y-73999660D01*
X154012567Y-73831619D01*
X154011928Y-73975000D01*
X154024188Y-74099482D01*
X154060498Y-74219180D01*
X154119463Y-74329494D01*
X154198815Y-74426185D01*
X154295506Y-74505537D01*
X154405820Y-74564502D01*
X154525518Y-74600812D01*
X154650000Y-74613072D01*
X155214250Y-74610000D01*
X155373000Y-74451250D01*
X155373000Y-73127000D01*
X155627000Y-73127000D01*
X155627000Y-74451250D01*
X155785750Y-74610000D01*
X156350000Y-74613072D01*
X156474482Y-74600812D01*
X156594180Y-74564502D01*
X156704494Y-74505537D01*
X156801185Y-74426185D01*
X156880537Y-74329494D01*
X156939502Y-74219180D01*
X156975812Y-74099482D01*
X156988072Y-73975000D01*
X156985000Y-73285750D01*
X156826250Y-73127000D01*
X155627000Y-73127000D01*
X155373000Y-73127000D01*
X155353000Y-73127000D01*
X155353000Y-72873000D01*
X155373000Y-72873000D01*
X155373000Y-72853000D01*
X155627000Y-72853000D01*
X155627000Y-72873000D01*
X156826250Y-72873000D01*
X156985000Y-72714250D01*
X156986940Y-72278990D01*
X159939200Y-72278990D01*
X159939200Y-72450087D01*
X159989957Y-72705263D01*
X160089522Y-72945634D01*
X160234067Y-73161961D01*
X160418039Y-73345933D01*
X160634366Y-73490478D01*
X160874633Y-73590000D01*
X160634366Y-73689522D01*
X160418039Y-73834067D01*
X160234067Y-74018039D01*
X160089522Y-74234366D01*
X159989957Y-74474737D01*
X159939200Y-74729913D01*
X159939200Y-74990087D01*
X159989957Y-75245263D01*
X160089522Y-75485634D01*
X160234067Y-75701961D01*
X160418039Y-75885933D01*
X160634366Y-76030478D01*
X160874633Y-76130000D01*
X160634366Y-76229522D01*
X160418039Y-76374067D01*
X160234067Y-76558039D01*
X160089522Y-76774366D01*
X160040796Y-76892000D01*
X146110420Y-76892000D01*
X140939804Y-71721384D01*
X141026638Y-71767798D01*
X141258683Y-71838188D01*
X141500000Y-71861956D01*
X141741318Y-71838188D01*
X141973363Y-71767798D01*
X142187216Y-71653491D01*
X142374660Y-71499660D01*
X142528491Y-71312215D01*
X142642798Y-71098362D01*
X142713188Y-70866317D01*
X142731000Y-70685471D01*
X142731000Y-70314528D01*
X142713188Y-70133682D01*
X142642798Y-69901637D01*
X142528491Y-69687784D01*
X142374660Y-69500340D01*
X142187215Y-69346509D01*
X141973362Y-69232202D01*
X141741317Y-69161812D01*
X141500000Y-69138044D01*
X141258682Y-69161812D01*
X141026637Y-69232202D01*
X140812784Y-69346509D01*
X140625340Y-69500340D01*
X140471509Y-69687785D01*
X140357202Y-69901638D01*
X140286812Y-70133683D01*
X140269000Y-70314529D01*
X140269000Y-70685472D01*
X140286812Y-70866318D01*
X140357202Y-71098363D01*
X140403614Y-71185194D01*
X140183292Y-70964872D01*
X140213188Y-70866317D01*
X140231000Y-70685471D01*
X140231000Y-70314528D01*
X140213188Y-70133682D01*
X140142798Y-69901637D01*
X140028491Y-69687784D01*
X139874660Y-69500340D01*
X139687215Y-69346509D01*
X139473362Y-69232202D01*
X139241317Y-69161812D01*
X139000000Y-69138044D01*
X138758682Y-69161812D01*
X138526637Y-69232202D01*
X138312784Y-69346509D01*
X138125340Y-69500340D01*
X137987433Y-69668381D01*
X137988072Y-69525000D01*
X137975812Y-69400518D01*
X137939502Y-69280820D01*
X137880537Y-69170506D01*
X137801185Y-69073815D01*
X137704494Y-68994463D01*
X137594180Y-68935498D01*
X137474482Y-68899188D01*
X137350000Y-68886928D01*
X136785750Y-68890000D01*
X136627000Y-69048750D01*
X136627000Y-70373000D01*
X136647000Y-70373000D01*
X136647000Y-70627000D01*
X136627000Y-70627000D01*
X136627000Y-71951250D01*
X136785750Y-72110000D01*
X137350000Y-72113072D01*
X137474482Y-72100812D01*
X137594180Y-72064502D01*
X137704494Y-72005537D01*
X137801185Y-71926185D01*
X137880537Y-71829494D01*
X137939502Y-71719180D01*
X137975812Y-71599482D01*
X137988072Y-71475000D01*
X137987433Y-71331619D01*
X138125341Y-71499660D01*
X138312785Y-71653491D01*
X138526638Y-71767798D01*
X138758683Y-71838188D01*
X139000000Y-71861956D01*
X139241318Y-71838188D01*
X139473363Y-71767798D01*
X139522900Y-71741320D01*
X145523145Y-77741565D01*
X145539052Y-77760948D01*
X145616405Y-77824429D01*
X145704657Y-77871601D01*
X145800415Y-77900649D01*
X145875053Y-77908000D01*
X145875056Y-77908000D01*
X145900000Y-77910457D01*
X145924944Y-77908000D01*
X147069186Y-77908000D01*
X147043693Y-77933275D01*
X146907610Y-78135054D01*
X146813507Y-78359504D01*
X146765000Y-78598000D01*
X146765000Y-78873000D01*
X147873000Y-78873000D01*
X147873000Y-78853000D01*
X148127000Y-78853000D01*
X148127000Y-78873000D01*
X148147000Y-78873000D01*
X148147000Y-79127000D01*
X148127000Y-79127000D01*
X148127000Y-80343731D01*
X148317609Y-80468462D01*
X148355282Y-80464591D01*
X148580533Y-80372421D01*
X148783474Y-80238078D01*
X148956307Y-80066725D01*
X149092390Y-79864946D01*
X149141007Y-79748986D01*
X149180382Y-79822651D01*
X149302972Y-79972028D01*
X149452349Y-80094618D01*
X149622771Y-80185711D01*
X149807690Y-80241805D01*
X150000000Y-80260746D01*
X150192309Y-80241805D01*
X150377228Y-80185711D01*
X150547651Y-80094618D01*
X150697028Y-79972028D01*
X150819618Y-79822651D01*
X150910711Y-79652229D01*
X150966805Y-79467310D01*
X150981000Y-79323187D01*
X150981000Y-78676814D01*
X150966805Y-78532691D01*
X150910711Y-78347771D01*
X150819618Y-78177349D01*
X150697028Y-78027972D01*
X150550841Y-77908000D01*
X151449160Y-77908000D01*
X151302973Y-78027972D01*
X151180383Y-78177349D01*
X151089289Y-78347771D01*
X151033195Y-78532690D01*
X151019000Y-78676813D01*
X151019000Y-79323186D01*
X151033195Y-79467309D01*
X151089289Y-79652228D01*
X151180382Y-79822651D01*
X151302972Y-79972028D01*
X151452349Y-80094618D01*
X151622771Y-80185711D01*
X151807690Y-80241805D01*
X152000000Y-80260746D01*
X152192309Y-80241805D01*
X152377228Y-80185711D01*
X152547651Y-80094618D01*
X152697028Y-79972028D01*
X152819618Y-79822651D01*
X152910711Y-79652229D01*
X152966805Y-79467310D01*
X152981000Y-79323187D01*
X152981000Y-78676814D01*
X152966805Y-78532691D01*
X152910711Y-78347771D01*
X152819618Y-78177349D01*
X152697028Y-78027972D01*
X152550841Y-77908000D01*
X153449160Y-77908000D01*
X153302973Y-78027972D01*
X153180383Y-78177349D01*
X153089289Y-78347771D01*
X153033195Y-78532690D01*
X153019000Y-78676813D01*
X153019000Y-79323186D01*
X153033195Y-79467309D01*
X153089289Y-79652228D01*
X153180382Y-79822651D01*
X153302972Y-79972028D01*
X153452349Y-80094618D01*
X153622771Y-80185711D01*
X153807690Y-80241805D01*
X154000000Y-80260746D01*
X154192309Y-80241805D01*
X154377228Y-80185711D01*
X154547651Y-80094618D01*
X154697028Y-79972028D01*
X154819618Y-79822651D01*
X154910711Y-79652229D01*
X154966805Y-79467310D01*
X154981000Y-79323187D01*
X154981000Y-78676814D01*
X154966805Y-78532691D01*
X154910711Y-78347771D01*
X154819618Y-78177349D01*
X154697028Y-78027972D01*
X154550841Y-77908000D01*
X155226288Y-77908000D01*
X155202512Y-77927512D01*
X155123810Y-78023411D01*
X155065329Y-78132821D01*
X155029317Y-78251538D01*
X155017157Y-78374999D01*
X155017157Y-79625001D01*
X155029317Y-79748462D01*
X155065329Y-79867179D01*
X155123810Y-79976589D01*
X155202512Y-80072488D01*
X155298411Y-80151190D01*
X155407821Y-80209671D01*
X155526538Y-80245683D01*
X155649999Y-80257843D01*
X156350001Y-80257843D01*
X156473462Y-80245683D01*
X156592179Y-80209671D01*
X156701589Y-80151190D01*
X156797488Y-80072488D01*
X156876190Y-79976589D01*
X156934671Y-79867179D01*
X156970683Y-79748462D01*
X156982843Y-79625001D01*
X156982843Y-78374999D01*
X156970683Y-78251538D01*
X156934671Y-78132821D01*
X156876190Y-78023411D01*
X156797488Y-77927512D01*
X156773712Y-77908000D01*
X160040796Y-77908000D01*
X160089522Y-78025634D01*
X160234067Y-78241961D01*
X160418039Y-78425933D01*
X160634366Y-78570478D01*
X160874633Y-78670000D01*
X160634366Y-78769522D01*
X160418039Y-78914067D01*
X160234067Y-79098039D01*
X160089522Y-79314366D01*
X159989957Y-79554737D01*
X159939200Y-79809913D01*
X159939200Y-80070087D01*
X159989957Y-80325263D01*
X160089522Y-80565634D01*
X160129724Y-80625801D01*
X126894222Y-80625801D01*
X125926855Y-79658435D01*
X125910948Y-79639052D01*
X125833595Y-79575571D01*
X125745343Y-79528399D01*
X125649585Y-79499351D01*
X125574947Y-79492000D01*
X125574944Y-79492000D01*
X125550000Y-79489543D01*
X125525056Y-79492000D01*
X124477131Y-79492000D01*
X124470683Y-79426538D01*
X124434671Y-79307821D01*
X124376190Y-79198411D01*
X124297488Y-79102512D01*
X124201589Y-79023810D01*
X124092179Y-78965329D01*
X123973462Y-78929317D01*
X123850001Y-78917157D01*
X123251264Y-78917157D01*
X123435578Y-78732843D01*
X123950000Y-78732843D01*
X124024689Y-78725487D01*
X124096508Y-78703701D01*
X124162696Y-78668322D01*
X124220711Y-78620711D01*
X124268322Y-78562696D01*
X124303701Y-78496508D01*
X124325487Y-78424689D01*
X124332843Y-78350000D01*
X124332843Y-77550000D01*
X124325487Y-77475311D01*
X124303701Y-77403492D01*
X124268322Y-77337304D01*
X124220711Y-77279289D01*
X124162696Y-77231678D01*
X124096508Y-77196299D01*
X124024689Y-77174513D01*
X123950000Y-77167157D01*
X123050000Y-77167157D01*
X122975311Y-77174513D01*
X122903492Y-77196299D01*
X122837304Y-77231678D01*
X122779289Y-77279289D01*
X122731678Y-77337304D01*
X122696299Y-77403492D01*
X122674513Y-77475311D01*
X122667157Y-77550000D01*
X122667157Y-78064422D01*
X121814423Y-78917157D01*
X121149999Y-78917157D01*
X121026538Y-78929317D01*
X120907821Y-78965329D01*
X120798411Y-79023810D01*
X120702512Y-79102512D01*
X120623810Y-79198411D01*
X120565329Y-79307821D01*
X120529317Y-79426538D01*
X120517157Y-79549999D01*
X120517157Y-80450001D01*
X120529317Y-80573462D01*
X120565329Y-80692179D01*
X120623810Y-80801589D01*
X120702512Y-80897488D01*
X120798411Y-80976190D01*
X120891599Y-81026000D01*
X98794421Y-81026000D01*
X95008000Y-77239580D01*
X95008000Y-76888606D01*
X112869000Y-76888606D01*
X112869000Y-77111394D01*
X112912464Y-77329900D01*
X112997721Y-77535729D01*
X113121495Y-77720970D01*
X113279030Y-77878505D01*
X113464271Y-78002279D01*
X113670100Y-78087536D01*
X113888606Y-78131000D01*
X114111394Y-78131000D01*
X114329900Y-78087536D01*
X114535729Y-78002279D01*
X114720970Y-77878505D01*
X114878505Y-77720970D01*
X115002279Y-77535729D01*
X115013765Y-77508000D01*
X120684618Y-77508000D01*
X120696299Y-77546508D01*
X120731678Y-77612696D01*
X120779289Y-77670711D01*
X120837304Y-77718322D01*
X120903492Y-77753701D01*
X120975311Y-77775487D01*
X121050000Y-77782843D01*
X121950000Y-77782843D01*
X122024689Y-77775487D01*
X122096508Y-77753701D01*
X122162696Y-77718322D01*
X122220711Y-77670711D01*
X122268322Y-77612696D01*
X122303701Y-77546508D01*
X122325487Y-77474689D01*
X122332843Y-77400000D01*
X122332843Y-76600000D01*
X122325487Y-76525311D01*
X122303701Y-76453492D01*
X122268322Y-76387304D01*
X122220711Y-76329289D01*
X122162696Y-76281678D01*
X122096508Y-76246299D01*
X122024689Y-76224513D01*
X121950000Y-76217157D01*
X121050000Y-76217157D01*
X120975311Y-76224513D01*
X120903492Y-76246299D01*
X120837304Y-76281678D01*
X120779289Y-76329289D01*
X120731678Y-76387304D01*
X120696299Y-76453492D01*
X120684618Y-76492000D01*
X115013765Y-76492000D01*
X115002279Y-76464271D01*
X114878505Y-76279030D01*
X114720970Y-76121495D01*
X114535729Y-75997721D01*
X114329900Y-75912464D01*
X114111394Y-75869000D01*
X113888606Y-75869000D01*
X113670100Y-75912464D01*
X113464271Y-75997721D01*
X113279030Y-76121495D01*
X113121495Y-76279030D01*
X112997721Y-76464271D01*
X112912464Y-76670100D01*
X112869000Y-76888606D01*
X95008000Y-76888606D01*
X95008000Y-74560206D01*
X95092179Y-74534671D01*
X95201589Y-74476190D01*
X95297488Y-74397488D01*
X95376190Y-74301589D01*
X95434671Y-74192179D01*
X95470683Y-74073462D01*
X95482843Y-73950001D01*
X95482843Y-73049999D01*
X95470683Y-72926538D01*
X95434671Y-72807821D01*
X95376190Y-72698411D01*
X95297488Y-72602512D01*
X95201589Y-72523810D01*
X95092179Y-72465329D01*
X94973462Y-72429317D01*
X94850001Y-72417157D01*
X94149999Y-72417157D01*
X94026538Y-72429317D01*
X93907821Y-72465329D01*
X93798411Y-72523810D01*
X93702512Y-72602512D01*
X93623810Y-72698411D01*
X93565329Y-72807821D01*
X93529317Y-72926538D01*
X93517157Y-73049999D01*
X93517157Y-73950001D01*
X93529317Y-74073462D01*
X93565329Y-74192179D01*
X93623810Y-74301589D01*
X93702512Y-74397488D01*
X93798411Y-74476190D01*
X93907821Y-74534671D01*
X93992000Y-74560206D01*
X93992001Y-77425046D01*
X93989543Y-77450000D01*
X93997956Y-77535409D01*
X93999352Y-77549585D01*
X94011325Y-77589053D01*
X94028400Y-77645343D01*
X94075571Y-77733595D01*
X94102465Y-77766365D01*
X94139053Y-77810948D01*
X94158430Y-77826850D01*
X97937879Y-81606300D01*
X78393700Y-81606300D01*
X78393700Y-78268317D01*
X81647682Y-78268317D01*
X81647682Y-78731683D01*
X81738080Y-79186146D01*
X81915403Y-79614240D01*
X82172835Y-79999515D01*
X82500485Y-80327165D01*
X82885760Y-80584597D01*
X83313854Y-80761920D01*
X83768317Y-80852318D01*
X84231683Y-80852318D01*
X84686146Y-80761920D01*
X85114240Y-80584597D01*
X85499515Y-80327165D01*
X85827165Y-79999515D01*
X86084597Y-79614240D01*
X86261920Y-79186146D01*
X86352318Y-78731683D01*
X86352318Y-78268317D01*
X86261920Y-77813854D01*
X86084597Y-77385760D01*
X85827165Y-77000485D01*
X85499515Y-76672835D01*
X85114240Y-76415403D01*
X84686146Y-76238080D01*
X84231683Y-76147682D01*
X83768317Y-76147682D01*
X83313854Y-76238080D01*
X82885760Y-76415403D01*
X82500485Y-76672835D01*
X82172835Y-77000485D01*
X81915403Y-77385760D01*
X81738080Y-77813854D01*
X81647682Y-78268317D01*
X78393700Y-78268317D01*
X78393700Y-72100000D01*
X87667157Y-72100000D01*
X87667157Y-72900000D01*
X87674513Y-72974689D01*
X87696299Y-73046508D01*
X87731678Y-73112696D01*
X87779289Y-73170711D01*
X87837304Y-73218322D01*
X87903492Y-73253701D01*
X87975311Y-73275487D01*
X88050000Y-73282843D01*
X88950000Y-73282843D01*
X89024689Y-73275487D01*
X89096508Y-73253701D01*
X89162696Y-73218322D01*
X89220711Y-73170711D01*
X89268322Y-73112696D01*
X89301834Y-73050000D01*
X89667157Y-73050000D01*
X89667157Y-73850000D01*
X89674513Y-73924689D01*
X89696299Y-73996508D01*
X89731678Y-74062696D01*
X89779289Y-74120711D01*
X89837304Y-74168322D01*
X89903492Y-74203701D01*
X89975311Y-74225487D01*
X90050000Y-74232843D01*
X90950000Y-74232843D01*
X91024689Y-74225487D01*
X91096508Y-74203701D01*
X91162696Y-74168322D01*
X91220711Y-74120711D01*
X91268322Y-74062696D01*
X91303701Y-73996508D01*
X91315382Y-73958000D01*
X91517945Y-73958000D01*
X91529317Y-74073462D01*
X91565329Y-74192179D01*
X91623810Y-74301589D01*
X91702512Y-74397488D01*
X91798411Y-74476190D01*
X91907821Y-74534671D01*
X92026538Y-74570683D01*
X92149999Y-74582843D01*
X92850001Y-74582843D01*
X92973462Y-74570683D01*
X93092179Y-74534671D01*
X93201589Y-74476190D01*
X93297488Y-74397488D01*
X93376190Y-74301589D01*
X93434671Y-74192179D01*
X93470683Y-74073462D01*
X93482843Y-73950001D01*
X93482843Y-73049999D01*
X93470683Y-72926538D01*
X93434671Y-72807821D01*
X93376190Y-72698411D01*
X93297488Y-72602512D01*
X93201589Y-72523810D01*
X93092179Y-72465329D01*
X92973462Y-72429317D01*
X92850001Y-72417157D01*
X92149999Y-72417157D01*
X92026538Y-72429317D01*
X91907821Y-72465329D01*
X91798411Y-72523810D01*
X91702512Y-72602512D01*
X91623810Y-72698411D01*
X91565329Y-72807821D01*
X91529317Y-72926538D01*
X91527794Y-72942000D01*
X91315382Y-72942000D01*
X91303701Y-72903492D01*
X91268322Y-72837304D01*
X91220711Y-72779289D01*
X91162696Y-72731678D01*
X91096508Y-72696299D01*
X91024689Y-72674513D01*
X90950000Y-72667157D01*
X90050000Y-72667157D01*
X89975311Y-72674513D01*
X89903492Y-72696299D01*
X89837304Y-72731678D01*
X89779289Y-72779289D01*
X89731678Y-72837304D01*
X89696299Y-72903492D01*
X89674513Y-72975311D01*
X89667157Y-73050000D01*
X89301834Y-73050000D01*
X89303701Y-73046508D01*
X89325487Y-72974689D01*
X89332843Y-72900000D01*
X89332843Y-72100000D01*
X89325487Y-72025311D01*
X89303701Y-71953492D01*
X89268322Y-71887304D01*
X89220711Y-71829289D01*
X89162696Y-71781678D01*
X89096508Y-71746299D01*
X89024689Y-71724513D01*
X89008000Y-71722869D01*
X89008000Y-71150000D01*
X89667157Y-71150000D01*
X89667157Y-71950000D01*
X89674513Y-72024689D01*
X89696299Y-72096508D01*
X89731678Y-72162696D01*
X89779289Y-72220711D01*
X89837304Y-72268322D01*
X89903492Y-72303701D01*
X89975311Y-72325487D01*
X90050000Y-72332843D01*
X90950000Y-72332843D01*
X91024689Y-72325487D01*
X91096508Y-72303701D01*
X91162696Y-72268322D01*
X91220711Y-72220711D01*
X91268322Y-72162696D01*
X91303701Y-72096508D01*
X91311644Y-72070322D01*
X91369152Y-72108748D01*
X91493960Y-72160445D01*
X91626455Y-72186800D01*
X91761545Y-72186800D01*
X91894040Y-72160445D01*
X92018848Y-72108748D01*
X92131172Y-72033695D01*
X92226695Y-71938172D01*
X92301748Y-71825848D01*
X92353445Y-71701040D01*
X92379800Y-71568545D01*
X92379800Y-71456993D01*
X113222612Y-71456993D01*
X113288137Y-71695860D01*
X113535116Y-71811760D01*
X113799960Y-71877250D01*
X114072492Y-71889812D01*
X114342238Y-71848965D01*
X114598832Y-71756277D01*
X114711863Y-71695860D01*
X114777388Y-71456993D01*
X114000000Y-70679605D01*
X113222612Y-71456993D01*
X92379800Y-71456993D01*
X92379800Y-71433455D01*
X92353445Y-71300960D01*
X92301748Y-71176152D01*
X92226695Y-71063828D01*
X92131172Y-70968305D01*
X92018848Y-70893252D01*
X91894040Y-70841555D01*
X91761545Y-70815200D01*
X91626455Y-70815200D01*
X91493960Y-70841555D01*
X91369152Y-70893252D01*
X91277507Y-70954488D01*
X91268322Y-70937304D01*
X91220711Y-70879289D01*
X91162696Y-70831678D01*
X91096508Y-70796299D01*
X91024689Y-70774513D01*
X90950000Y-70767157D01*
X90050000Y-70767157D01*
X89975311Y-70774513D01*
X89903492Y-70796299D01*
X89837304Y-70831678D01*
X89779289Y-70879289D01*
X89731678Y-70937304D01*
X89696299Y-71003492D01*
X89674513Y-71075311D01*
X89667157Y-71150000D01*
X89008000Y-71150000D01*
X89008000Y-70572492D01*
X112610188Y-70572492D01*
X112651035Y-70842238D01*
X112743723Y-71098832D01*
X112804140Y-71211863D01*
X113043007Y-71277388D01*
X113820395Y-70500000D01*
X114179605Y-70500000D01*
X114956993Y-71277388D01*
X115195860Y-71211863D01*
X115311760Y-70964884D01*
X115377250Y-70700040D01*
X115389812Y-70427508D01*
X115348965Y-70157762D01*
X115256277Y-69901168D01*
X115195860Y-69788137D01*
X114956993Y-69722612D01*
X114179605Y-70500000D01*
X113820395Y-70500000D01*
X113043007Y-69722612D01*
X112804140Y-69788137D01*
X112688240Y-70035116D01*
X112622750Y-70299960D01*
X112610188Y-70572492D01*
X89008000Y-70572492D01*
X89008000Y-69543007D01*
X113222612Y-69543007D01*
X114000000Y-70320395D01*
X114777388Y-69543007D01*
X114711863Y-69304140D01*
X114464884Y-69188240D01*
X114200040Y-69122750D01*
X113927508Y-69110188D01*
X113657762Y-69151035D01*
X113401168Y-69243723D01*
X113288137Y-69304140D01*
X113222612Y-69543007D01*
X89008000Y-69543007D01*
X89008000Y-61210420D01*
X91104102Y-59114318D01*
X91155515Y-59135614D01*
X91383682Y-59181000D01*
X91616318Y-59181000D01*
X91844485Y-59135614D01*
X92059413Y-59046588D01*
X92252843Y-58917342D01*
X92417342Y-58752843D01*
X92546588Y-58559413D01*
X92635614Y-58344485D01*
X92681000Y-58116318D01*
X92681000Y-57883682D01*
X92635614Y-57655515D01*
X92546588Y-57440587D01*
X92417342Y-57247157D01*
X92252843Y-57082658D01*
X92059413Y-56953412D01*
X91844485Y-56864386D01*
X91616318Y-56819000D01*
X91383682Y-56819000D01*
X91155515Y-56864386D01*
X90940587Y-56953412D01*
X90747157Y-57082658D01*
X90582658Y-57247157D01*
X90453412Y-57440587D01*
X90364386Y-57655515D01*
X90319000Y-57883682D01*
X90319000Y-58116318D01*
X90364386Y-58344485D01*
X90385682Y-58395898D01*
X88158430Y-60623150D01*
X88139053Y-60639052D01*
X88123151Y-60658429D01*
X88123150Y-60658430D01*
X88075571Y-60716405D01*
X88044418Y-60774689D01*
X88028400Y-60804657D01*
X88002499Y-60890043D01*
X87999352Y-60900416D01*
X87989543Y-61000000D01*
X87992001Y-61024954D01*
X87992000Y-71722869D01*
X87975311Y-71724513D01*
X87903492Y-71746299D01*
X87837304Y-71781678D01*
X87779289Y-71829289D01*
X87731678Y-71887304D01*
X87696299Y-71953492D01*
X87674513Y-72025311D01*
X87667157Y-72100000D01*
X78393700Y-72100000D01*
X78393700Y-51268317D01*
X81647682Y-51268317D01*
X81647682Y-51731683D01*
X81738080Y-52186146D01*
X81915403Y-52614240D01*
X82172835Y-52999515D01*
X82500485Y-53327165D01*
X82885760Y-53584597D01*
X83313854Y-53761920D01*
X83768317Y-53852318D01*
X84231683Y-53852318D01*
X84686146Y-53761920D01*
X85114240Y-53584597D01*
X85499515Y-53327165D01*
X85827165Y-52999515D01*
X86084597Y-52614240D01*
X86261920Y-52186146D01*
X86352318Y-51731683D01*
X86352318Y-51268317D01*
X86261920Y-50813854D01*
X86084597Y-50385760D01*
X85827165Y-50000485D01*
X85499515Y-49672835D01*
X85114240Y-49415403D01*
X84686146Y-49238080D01*
X84231683Y-49147682D01*
X83768317Y-49147682D01*
X83313854Y-49238080D01*
X82885760Y-49415403D01*
X82500485Y-49672835D01*
X82172835Y-50000485D01*
X81915403Y-50385760D01*
X81738080Y-50813854D01*
X81647682Y-51268317D01*
X78393700Y-51268317D01*
X78393700Y-48393700D01*
X177606300Y-48393700D01*
X177606300Y-51278317D01*
G04 #@! TA.AperFunction,Conductor*
D26*
G36*
X177606300Y-51278317D02*
G01*
X177525933Y-51158039D01*
X177341961Y-50974067D01*
X177125634Y-50829522D01*
X176885263Y-50729957D01*
X176630087Y-50679200D01*
X176369913Y-50679200D01*
X176114737Y-50729957D01*
X175874366Y-50829522D01*
X175658039Y-50974067D01*
X175474067Y-51158039D01*
X175329522Y-51374366D01*
X175229957Y-51614737D01*
X175179200Y-51869913D01*
X175179200Y-52130087D01*
X175229957Y-52385263D01*
X175329522Y-52625634D01*
X175474067Y-52841961D01*
X175658039Y-53025933D01*
X175874366Y-53170478D01*
X176114633Y-53270000D01*
X175874366Y-53369522D01*
X175658039Y-53514067D01*
X175474067Y-53698039D01*
X175329522Y-53914366D01*
X175229957Y-54154737D01*
X175179200Y-54409913D01*
X175179200Y-54670087D01*
X175229957Y-54925263D01*
X175329522Y-55165634D01*
X175474067Y-55381961D01*
X175658039Y-55565933D01*
X175874366Y-55710478D01*
X176114633Y-55810000D01*
X175874366Y-55909522D01*
X175658039Y-56054067D01*
X175474067Y-56238039D01*
X175329522Y-56454366D01*
X175229957Y-56694737D01*
X175179200Y-56949913D01*
X175179200Y-57210087D01*
X175229957Y-57465263D01*
X175329522Y-57705634D01*
X175474067Y-57921961D01*
X175658039Y-58105933D01*
X175801670Y-58201904D01*
X175675623Y-58269277D01*
X175587129Y-58527524D01*
X176500000Y-59440395D01*
X176514143Y-59426253D01*
X176693748Y-59605858D01*
X176679605Y-59620000D01*
X176693748Y-59634143D01*
X176514143Y-59813748D01*
X176500000Y-59799605D01*
X175587129Y-60712476D01*
X175675623Y-60970723D01*
X175807332Y-61034313D01*
X175658039Y-61134067D01*
X175474067Y-61318039D01*
X175329522Y-61534366D01*
X175229957Y-61774737D01*
X175179200Y-62029913D01*
X175179200Y-62290087D01*
X175229957Y-62545263D01*
X175329522Y-62785634D01*
X175474067Y-63001961D01*
X175658039Y-63185933D01*
X175874366Y-63330478D01*
X176114633Y-63430000D01*
X175874366Y-63529522D01*
X175658039Y-63674067D01*
X175474067Y-63858039D01*
X175329522Y-64074366D01*
X175229957Y-64314737D01*
X175179200Y-64569913D01*
X175179200Y-64830087D01*
X175229957Y-65085263D01*
X175329522Y-65325634D01*
X175474067Y-65541961D01*
X175658039Y-65725933D01*
X175874366Y-65870478D01*
X176114633Y-65970000D01*
X175874366Y-66069522D01*
X175658039Y-66214067D01*
X175474067Y-66398039D01*
X175329522Y-66614366D01*
X175229957Y-66854737D01*
X175179200Y-67109913D01*
X175179200Y-67370087D01*
X175229957Y-67625263D01*
X175329522Y-67865634D01*
X175474067Y-68081961D01*
X175658039Y-68265933D01*
X175874366Y-68410478D01*
X176114633Y-68510000D01*
X175874366Y-68609522D01*
X175658039Y-68754067D01*
X175474067Y-68938039D01*
X175329522Y-69154366D01*
X175229957Y-69394737D01*
X175179200Y-69649913D01*
X175179200Y-69910087D01*
X175229957Y-70165263D01*
X175329522Y-70405634D01*
X175474067Y-70621961D01*
X175658039Y-70805933D01*
X175874366Y-70950478D01*
X176114633Y-71050000D01*
X175874366Y-71149522D01*
X175658039Y-71294067D01*
X175474067Y-71478039D01*
X175329522Y-71694366D01*
X175229957Y-71934737D01*
X175179200Y-72189913D01*
X175179200Y-72450087D01*
X175229957Y-72705263D01*
X175329522Y-72945634D01*
X175474067Y-73161961D01*
X175658039Y-73345933D01*
X175874366Y-73490478D01*
X176114633Y-73590000D01*
X175874366Y-73689522D01*
X175658039Y-73834067D01*
X175474067Y-74018039D01*
X175329522Y-74234366D01*
X175229957Y-74474737D01*
X175179200Y-74729913D01*
X175179200Y-74990087D01*
X175229957Y-75245263D01*
X175329522Y-75485634D01*
X175474067Y-75701961D01*
X175658039Y-75885933D01*
X175874366Y-76030478D01*
X176114633Y-76130000D01*
X175874366Y-76229522D01*
X175658039Y-76374067D01*
X175474067Y-76558039D01*
X175329522Y-76774366D01*
X175280796Y-76892000D01*
X175019421Y-76892000D01*
X171826855Y-73699435D01*
X171810948Y-73680052D01*
X171733595Y-73616571D01*
X171645343Y-73569399D01*
X171549585Y-73540351D01*
X171474947Y-73533000D01*
X171474944Y-73533000D01*
X171450000Y-73530543D01*
X171425056Y-73533000D01*
X167537943Y-73533000D01*
X167512999Y-73530543D01*
X167488055Y-73533000D01*
X167488053Y-73533000D01*
X167413415Y-73540351D01*
X167317657Y-73569399D01*
X167279196Y-73589957D01*
X167229404Y-73616571D01*
X167174810Y-73661376D01*
X167152052Y-73680052D01*
X167136150Y-73699429D01*
X164485236Y-76350344D01*
X164465853Y-76366251D01*
X164402372Y-76443604D01*
X164355200Y-76531857D01*
X164326152Y-76627615D01*
X164320226Y-76687784D01*
X164316344Y-76727199D01*
X164318801Y-76752143D01*
X164318802Y-80625801D01*
X162390276Y-80625801D01*
X162430478Y-80565634D01*
X162530043Y-80325263D01*
X162580800Y-80070087D01*
X162580800Y-79809913D01*
X162530043Y-79554737D01*
X162430478Y-79314366D01*
X162285933Y-79098039D01*
X162101961Y-78914067D01*
X161885634Y-78769522D01*
X161645367Y-78670000D01*
X161885634Y-78570478D01*
X162101961Y-78425933D01*
X162285933Y-78241961D01*
X162430478Y-78025634D01*
X162530043Y-77785263D01*
X162580800Y-77530087D01*
X162580800Y-77269913D01*
X162530043Y-77014737D01*
X162430478Y-76774366D01*
X162285933Y-76558039D01*
X162101961Y-76374067D01*
X161885634Y-76229522D01*
X161645367Y-76130000D01*
X161885634Y-76030478D01*
X162101961Y-75885933D01*
X162285933Y-75701961D01*
X162430478Y-75485634D01*
X162530043Y-75245263D01*
X162580800Y-74990087D01*
X162580800Y-74729913D01*
X162530043Y-74474737D01*
X162430478Y-74234366D01*
X162285933Y-74018039D01*
X162101961Y-73834067D01*
X161885634Y-73689522D01*
X161645367Y-73590000D01*
X161885634Y-73490478D01*
X162101961Y-73345933D01*
X162285933Y-73161961D01*
X162430478Y-72945634D01*
X162530043Y-72705263D01*
X162580800Y-72450087D01*
X162580800Y-72189913D01*
X162530043Y-71934737D01*
X162430478Y-71694366D01*
X162285933Y-71478039D01*
X162101961Y-71294067D01*
X161885634Y-71149522D01*
X161645367Y-71050000D01*
X161885634Y-70950478D01*
X162101961Y-70805933D01*
X162285933Y-70621961D01*
X162430478Y-70405634D01*
X162530043Y-70165263D01*
X162580800Y-69910087D01*
X162580800Y-69649913D01*
X162530043Y-69394737D01*
X162430478Y-69154366D01*
X162285933Y-68938039D01*
X162101961Y-68754067D01*
X161885634Y-68609522D01*
X161645367Y-68510000D01*
X161885634Y-68410478D01*
X162101961Y-68265933D01*
X162285933Y-68081961D01*
X162430478Y-67865634D01*
X162530043Y-67625263D01*
X162580800Y-67370087D01*
X162580800Y-67109913D01*
X162530043Y-66854737D01*
X162430478Y-66614366D01*
X162285933Y-66398039D01*
X162101961Y-66214067D01*
X161885634Y-66069522D01*
X161645367Y-65970000D01*
X161885634Y-65870478D01*
X162101961Y-65725933D01*
X162285933Y-65541961D01*
X162430478Y-65325634D01*
X162530043Y-65085263D01*
X162580800Y-64830087D01*
X162580800Y-64569913D01*
X162530043Y-64314737D01*
X162430478Y-64074366D01*
X162285933Y-63858039D01*
X162101961Y-63674067D01*
X161885634Y-63529522D01*
X161645367Y-63430000D01*
X161885634Y-63330478D01*
X162101961Y-63185933D01*
X162285933Y-63001961D01*
X162430478Y-62785634D01*
X162530043Y-62545263D01*
X162580800Y-62290087D01*
X162580800Y-62029913D01*
X162530043Y-61774737D01*
X162430478Y-61534366D01*
X162285933Y-61318039D01*
X162101961Y-61134067D01*
X161885634Y-60989522D01*
X161645367Y-60890000D01*
X161885634Y-60790478D01*
X162101961Y-60645933D01*
X162285933Y-60461961D01*
X162430478Y-60245634D01*
X162530043Y-60005263D01*
X162580800Y-59750087D01*
X162580800Y-59684977D01*
X174918916Y-59684977D01*
X174961973Y-59992184D01*
X175064135Y-60285086D01*
X175149277Y-60444377D01*
X175407524Y-60532871D01*
X176320395Y-59620000D01*
X175407524Y-58707129D01*
X175149277Y-58795623D01*
X175014403Y-59074976D01*
X174936619Y-59375275D01*
X174918916Y-59684977D01*
X162580800Y-59684977D01*
X162580800Y-59489913D01*
X162530043Y-59234737D01*
X162430478Y-58994366D01*
X162285933Y-58778039D01*
X162101961Y-58594067D01*
X161885634Y-58449522D01*
X161645367Y-58350000D01*
X161885634Y-58250478D01*
X162101961Y-58105933D01*
X162285933Y-57921961D01*
X162430478Y-57705634D01*
X162530043Y-57465263D01*
X162580800Y-57210087D01*
X162580800Y-56949913D01*
X162530043Y-56694737D01*
X162430478Y-56454366D01*
X162285933Y-56238039D01*
X162101961Y-56054067D01*
X161885634Y-55909522D01*
X161645367Y-55810000D01*
X161885634Y-55710478D01*
X162101961Y-55565933D01*
X162285933Y-55381961D01*
X162430478Y-55165634D01*
X162530043Y-54925263D01*
X162580800Y-54670087D01*
X162580800Y-54409913D01*
X162530043Y-54154737D01*
X162430478Y-53914366D01*
X162285933Y-53698039D01*
X162101961Y-53514067D01*
X161885634Y-53369522D01*
X161645367Y-53270000D01*
X161885634Y-53170478D01*
X162101961Y-53025933D01*
X162285933Y-52841961D01*
X162430478Y-52625634D01*
X162530043Y-52385263D01*
X162580800Y-52130087D01*
X162580800Y-51869913D01*
X162530043Y-51614737D01*
X162430478Y-51374366D01*
X162359619Y-51268317D01*
X166647682Y-51268317D01*
X166647682Y-51731683D01*
X166738080Y-52186146D01*
X166915403Y-52614240D01*
X167172835Y-52999515D01*
X167500485Y-53327165D01*
X167885760Y-53584597D01*
X168313854Y-53761920D01*
X168768317Y-53852318D01*
X169231683Y-53852318D01*
X169686146Y-53761920D01*
X170114240Y-53584597D01*
X170499515Y-53327165D01*
X170827165Y-52999515D01*
X171084597Y-52614240D01*
X171261920Y-52186146D01*
X171352318Y-51731683D01*
X171352318Y-51268317D01*
X171261920Y-50813854D01*
X171084597Y-50385760D01*
X170827165Y-50000485D01*
X170499515Y-49672835D01*
X170114240Y-49415403D01*
X169686146Y-49238080D01*
X169231683Y-49147682D01*
X168768317Y-49147682D01*
X168313854Y-49238080D01*
X167885760Y-49415403D01*
X167500485Y-49672835D01*
X167172835Y-50000485D01*
X166915403Y-50385760D01*
X166738080Y-50813854D01*
X166647682Y-51268317D01*
X162359619Y-51268317D01*
X162285933Y-51158039D01*
X162101961Y-50974067D01*
X161885634Y-50829522D01*
X161645263Y-50729957D01*
X161390087Y-50679200D01*
X161129913Y-50679200D01*
X160874737Y-50729957D01*
X160634366Y-50829522D01*
X160418039Y-50974067D01*
X160234067Y-51158039D01*
X160089522Y-51374366D01*
X159989957Y-51614737D01*
X159939200Y-51869913D01*
X159939200Y-52130087D01*
X159989957Y-52385263D01*
X160089522Y-52625634D01*
X160234067Y-52841961D01*
X160418039Y-53025933D01*
X160634366Y-53170478D01*
X160874633Y-53270000D01*
X160634366Y-53369522D01*
X160418039Y-53514067D01*
X160234067Y-53698039D01*
X160089522Y-53914366D01*
X159989957Y-54154737D01*
X159939200Y-54409913D01*
X159939200Y-54670087D01*
X159989957Y-54925263D01*
X160089522Y-55165634D01*
X160234067Y-55381961D01*
X160418039Y-55565933D01*
X160634366Y-55710478D01*
X160874633Y-55810000D01*
X160634366Y-55909522D01*
X160418039Y-56054067D01*
X160234067Y-56238039D01*
X160089522Y-56454366D01*
X159989957Y-56694737D01*
X159939200Y-56949913D01*
X159939200Y-57210087D01*
X159989957Y-57465263D01*
X160089522Y-57705634D01*
X160234067Y-57921961D01*
X160418039Y-58105933D01*
X160634366Y-58250478D01*
X160874633Y-58350000D01*
X160634366Y-58449522D01*
X160418039Y-58594067D01*
X160234067Y-58778039D01*
X160089522Y-58994366D01*
X159989957Y-59234737D01*
X159939200Y-59489913D01*
X159939200Y-59750087D01*
X159989957Y-60005263D01*
X160089522Y-60245634D01*
X160234067Y-60461961D01*
X160418039Y-60645933D01*
X160634366Y-60790478D01*
X160874633Y-60890000D01*
X160634366Y-60989522D01*
X160418039Y-61134067D01*
X160234067Y-61318039D01*
X160089522Y-61534366D01*
X159989957Y-61774737D01*
X159939200Y-62029913D01*
X159939200Y-62290087D01*
X159989957Y-62545263D01*
X160089522Y-62785634D01*
X160234067Y-63001961D01*
X160418039Y-63185933D01*
X160634366Y-63330478D01*
X160874633Y-63430000D01*
X160634366Y-63529522D01*
X160418039Y-63674067D01*
X160234067Y-63858039D01*
X160089522Y-64074366D01*
X159989957Y-64314737D01*
X159939200Y-64569913D01*
X159939200Y-64830087D01*
X159989957Y-65085263D01*
X160089522Y-65325634D01*
X160234067Y-65541961D01*
X160418039Y-65725933D01*
X160634366Y-65870478D01*
X160874633Y-65970000D01*
X160634366Y-66069522D01*
X160418039Y-66214067D01*
X160234067Y-66398039D01*
X160089522Y-66614366D01*
X160040796Y-66732000D01*
X153687640Y-66732000D01*
X153588483Y-66632843D01*
X154050000Y-66632843D01*
X154173462Y-66620683D01*
X154292179Y-66584671D01*
X154401589Y-66526190D01*
X154497488Y-66447488D01*
X154576190Y-66351589D01*
X154634671Y-66242179D01*
X154670683Y-66123462D01*
X154682843Y-66000000D01*
X154682843Y-64035577D01*
X155916571Y-62801850D01*
X155935948Y-62785948D01*
X155969869Y-62744615D01*
X155999429Y-62708596D01*
X156046600Y-62620345D01*
X156046601Y-62620342D01*
X156075649Y-62524585D01*
X156083000Y-62449947D01*
X156083000Y-62449945D01*
X156085457Y-62425001D01*
X156083000Y-62400057D01*
X156083000Y-57081414D01*
X156154679Y-57059671D01*
X156264089Y-57001190D01*
X156359988Y-56922488D01*
X156438690Y-56826589D01*
X156497171Y-56717179D01*
X156533183Y-56598462D01*
X156545343Y-56475000D01*
X156545343Y-55525000D01*
X156533183Y-55401538D01*
X156497171Y-55282821D01*
X156438690Y-55173411D01*
X156359988Y-55077512D01*
X156264089Y-54998810D01*
X156209549Y-54969658D01*
X156297488Y-54897488D01*
X156376190Y-54801589D01*
X156434671Y-54692179D01*
X156470683Y-54573462D01*
X156482843Y-54450001D01*
X156482843Y-53549999D01*
X156470683Y-53426538D01*
X156434671Y-53307821D01*
X156376190Y-53198411D01*
X156297488Y-53102512D01*
X156201589Y-53023810D01*
X156092179Y-52965329D01*
X155973462Y-52929317D01*
X155850001Y-52917157D01*
X155149999Y-52917157D01*
X155026538Y-52929317D01*
X154907821Y-52965329D01*
X154798411Y-53023810D01*
X154702512Y-53102512D01*
X154623810Y-53198411D01*
X154565329Y-53307821D01*
X154529317Y-53426538D01*
X154517157Y-53549999D01*
X154517157Y-54450001D01*
X154529317Y-54573462D01*
X154565329Y-54692179D01*
X154623810Y-54801589D01*
X154702512Y-54897488D01*
X154798411Y-54976190D01*
X154868091Y-55013435D01*
X154790012Y-55077512D01*
X154711310Y-55173411D01*
X154652829Y-55282821D01*
X154616817Y-55401538D01*
X154604657Y-55525000D01*
X154604657Y-56475000D01*
X154616817Y-56598462D01*
X154652829Y-56717179D01*
X154711310Y-56826589D01*
X154790012Y-56922488D01*
X154885911Y-57001190D01*
X154995321Y-57059671D01*
X155067001Y-57081415D01*
X155067000Y-62214579D01*
X154596037Y-62685542D01*
X154576190Y-62648411D01*
X154497488Y-62552512D01*
X154401589Y-62473810D01*
X154292179Y-62415329D01*
X154173462Y-62379317D01*
X154050000Y-62367157D01*
X152950000Y-62367157D01*
X152826538Y-62379317D01*
X152707821Y-62415329D01*
X152598411Y-62473810D01*
X152572613Y-62494982D01*
X151565284Y-61487654D01*
X151541422Y-61458578D01*
X151425392Y-61363355D01*
X151293015Y-61292598D01*
X151149378Y-61249026D01*
X151037426Y-61238000D01*
X151037423Y-61238000D01*
X151000000Y-61234314D01*
X150962577Y-61238000D01*
X148882843Y-61238000D01*
X148882843Y-60882843D01*
X149055000Y-60882843D01*
X149158953Y-60872605D01*
X149258910Y-60842283D01*
X149351032Y-60793043D01*
X149431777Y-60726777D01*
X149498043Y-60646032D01*
X149547283Y-60553910D01*
X149577605Y-60453953D01*
X149587843Y-60350000D01*
X149587843Y-59919787D01*
X149645630Y-59862000D01*
X152317157Y-59862000D01*
X152317157Y-60600000D01*
X152329317Y-60723462D01*
X152365329Y-60842179D01*
X152423810Y-60951589D01*
X152502512Y-61047488D01*
X152598411Y-61126190D01*
X152707821Y-61184671D01*
X152826538Y-61220683D01*
X152950000Y-61232843D01*
X154050000Y-61232843D01*
X154173462Y-61220683D01*
X154292179Y-61184671D01*
X154401589Y-61126190D01*
X154497488Y-61047488D01*
X154576190Y-60951589D01*
X154634671Y-60842179D01*
X154670683Y-60723462D01*
X154682843Y-60600000D01*
X154682843Y-57600000D01*
X154670683Y-57476538D01*
X154634671Y-57357821D01*
X154576190Y-57248411D01*
X154497488Y-57152512D01*
X154401589Y-57073810D01*
X154292179Y-57015329D01*
X154262000Y-57006174D01*
X154262000Y-56941354D01*
X154284988Y-56922488D01*
X154363690Y-56826589D01*
X154422171Y-56717179D01*
X154458183Y-56598462D01*
X154470343Y-56475000D01*
X154470343Y-55525000D01*
X154458183Y-55401538D01*
X154422171Y-55282821D01*
X154363690Y-55173411D01*
X154284988Y-55077512D01*
X154189089Y-54998810D01*
X154174180Y-54990841D01*
X154201589Y-54976190D01*
X154297488Y-54897488D01*
X154376190Y-54801589D01*
X154434671Y-54692179D01*
X154470683Y-54573462D01*
X154482843Y-54450001D01*
X154482843Y-53549999D01*
X154470683Y-53426538D01*
X154434671Y-53307821D01*
X154376190Y-53198411D01*
X154297488Y-53102512D01*
X154201589Y-53023810D01*
X154092179Y-52965329D01*
X154088912Y-52964338D01*
X154101800Y-52899545D01*
X154101800Y-52764455D01*
X154075445Y-52631960D01*
X154023748Y-52507152D01*
X153948695Y-52394828D01*
X153853172Y-52299305D01*
X153740848Y-52224252D01*
X153616040Y-52172555D01*
X153483545Y-52146200D01*
X153348455Y-52146200D01*
X153215960Y-52172555D01*
X153091152Y-52224252D01*
X152978828Y-52299305D01*
X152883305Y-52394828D01*
X152808252Y-52507152D01*
X152756555Y-52631960D01*
X152730200Y-52764455D01*
X152730200Y-52899545D01*
X152756555Y-53032040D01*
X152764630Y-53051534D01*
X152702512Y-53102512D01*
X152623810Y-53198411D01*
X152565329Y-53307821D01*
X152529317Y-53426538D01*
X152517157Y-53549999D01*
X152517157Y-54450001D01*
X152529317Y-54573462D01*
X152565329Y-54692179D01*
X152623810Y-54801589D01*
X152702512Y-54897488D01*
X152798411Y-54976190D01*
X152825820Y-54990841D01*
X152810911Y-54998810D01*
X152715012Y-55077512D01*
X152636310Y-55173411D01*
X152577829Y-55282821D01*
X152541817Y-55401538D01*
X152529657Y-55525000D01*
X152529657Y-56475000D01*
X152541817Y-56598462D01*
X152577829Y-56717179D01*
X152636310Y-56826589D01*
X152715012Y-56922488D01*
X152738000Y-56941354D01*
X152738000Y-57006174D01*
X152707821Y-57015329D01*
X152598411Y-57073810D01*
X152502512Y-57152512D01*
X152423810Y-57248411D01*
X152365329Y-57357821D01*
X152329317Y-57476538D01*
X152317157Y-57600000D01*
X152317157Y-58338000D01*
X149667000Y-58338000D01*
X149667000Y-50871906D01*
X149670686Y-50834483D01*
X149660391Y-50729957D01*
X149655974Y-50685106D01*
X149612402Y-50541469D01*
X149541645Y-50409092D01*
X149446422Y-50293062D01*
X149417351Y-50269204D01*
X148627790Y-49479643D01*
X148603928Y-49450568D01*
X148487898Y-49355345D01*
X148355521Y-49284588D01*
X148211884Y-49241016D01*
X148099932Y-49229990D01*
X148099929Y-49229990D01*
X148062506Y-49226304D01*
X148025083Y-49229990D01*
X140788185Y-49229990D01*
X140750762Y-49226304D01*
X140713339Y-49229990D01*
X140713336Y-49229990D01*
X140601384Y-49241016D01*
X140457747Y-49284588D01*
X140396126Y-49317525D01*
X140325369Y-49355345D01*
X140314353Y-49364386D01*
X140209340Y-49450568D01*
X140185478Y-49479644D01*
X137598646Y-52066476D01*
X137569570Y-52090338D01*
X137536200Y-52131000D01*
X137474347Y-52206368D01*
X137464788Y-52224252D01*
X137403590Y-52338746D01*
X137360018Y-52482383D01*
X137355062Y-52532705D01*
X137345306Y-52631760D01*
X137348992Y-52669183D01*
X137348993Y-58332497D01*
X137303492Y-58346299D01*
X137237304Y-58381678D01*
X137179289Y-58429289D01*
X137131678Y-58487304D01*
X137096299Y-58553492D01*
X137074513Y-58625311D01*
X137067157Y-58700000D01*
X137067157Y-58992000D01*
X136967093Y-58992000D01*
X136958183Y-58901538D01*
X136922171Y-58782821D01*
X136863690Y-58673411D01*
X136784988Y-58577512D01*
X136689089Y-58498810D01*
X136579679Y-58440329D01*
X136460962Y-58404317D01*
X136337500Y-58392157D01*
X135969788Y-58392157D01*
X135332274Y-57754644D01*
X135308412Y-57725568D01*
X135192382Y-57630345D01*
X135060005Y-57559588D01*
X134916368Y-57516016D01*
X134804416Y-57504990D01*
X134804413Y-57504990D01*
X134766990Y-57501304D01*
X134729567Y-57504990D01*
X130873442Y-57504990D01*
X130836019Y-57501304D01*
X130798596Y-57504990D01*
X130798594Y-57504990D01*
X130686642Y-57516016D01*
X130543005Y-57559588D01*
X130410628Y-57630345D01*
X130294598Y-57725568D01*
X130270741Y-57754638D01*
X126129644Y-61895736D01*
X126100568Y-61919598D01*
X126073140Y-61953020D01*
X103671440Y-61953020D01*
X99718420Y-58000000D01*
X106341012Y-58000000D01*
X106372889Y-58323653D01*
X106467295Y-58634867D01*
X106620602Y-58921684D01*
X106826918Y-59173082D01*
X107078316Y-59379398D01*
X107365133Y-59532705D01*
X107676347Y-59627111D01*
X107918896Y-59651000D01*
X116368899Y-59651000D01*
X116450000Y-59658988D01*
X116531101Y-59651000D01*
X116531104Y-59651000D01*
X116773653Y-59627111D01*
X117084867Y-59532705D01*
X117371684Y-59379398D01*
X117623082Y-59173082D01*
X117674787Y-59110079D01*
X122610086Y-54174781D01*
X122673082Y-54123082D01*
X122761303Y-54015584D01*
X122879398Y-53871685D01*
X123032704Y-53584868D01*
X123032705Y-53584867D01*
X123109156Y-53332843D01*
X123199999Y-53332843D01*
X123323461Y-53320683D01*
X123442178Y-53284671D01*
X123551588Y-53226190D01*
X123647487Y-53147487D01*
X123726190Y-53051588D01*
X123784671Y-52942178D01*
X123820683Y-52823461D01*
X123832843Y-52699999D01*
X123832843Y-49300001D01*
X123820683Y-49176539D01*
X123784671Y-49057822D01*
X123726190Y-48948412D01*
X123647487Y-48852513D01*
X123551588Y-48773810D01*
X123442178Y-48715329D01*
X123323461Y-48679317D01*
X123199999Y-48667157D01*
X119800001Y-48667157D01*
X119676539Y-48679317D01*
X119557822Y-48715329D01*
X119448412Y-48773810D01*
X119352513Y-48852513D01*
X119273810Y-48948412D01*
X119215329Y-49057822D01*
X119179317Y-49176539D01*
X119167157Y-49300001D01*
X119167157Y-52699999D01*
X119179317Y-52823461D01*
X119205467Y-52909666D01*
X115766134Y-56349000D01*
X107918896Y-56349000D01*
X107676347Y-56372889D01*
X107365133Y-56467295D01*
X107078316Y-56620602D01*
X106826918Y-56826918D01*
X106620602Y-57078316D01*
X106467295Y-57365133D01*
X106372889Y-57676347D01*
X106341012Y-58000000D01*
X99718420Y-58000000D01*
X92614318Y-50895898D01*
X92635614Y-50844485D01*
X92681000Y-50616318D01*
X92681000Y-50500000D01*
X109841012Y-50500000D01*
X109872889Y-50823653D01*
X109967295Y-51134867D01*
X110120602Y-51421684D01*
X110326918Y-51673082D01*
X110578316Y-51879398D01*
X110865133Y-52032705D01*
X111176347Y-52127111D01*
X111418896Y-52151000D01*
X114167157Y-52151000D01*
X114167157Y-52699999D01*
X114179317Y-52823461D01*
X114215329Y-52942178D01*
X114273810Y-53051588D01*
X114352513Y-53147487D01*
X114448412Y-53226190D01*
X114557822Y-53284671D01*
X114676539Y-53320683D01*
X114800001Y-53332843D01*
X118199999Y-53332843D01*
X118323461Y-53320683D01*
X118442178Y-53284671D01*
X118551588Y-53226190D01*
X118647487Y-53147487D01*
X118726190Y-53051588D01*
X118784671Y-52942178D01*
X118820683Y-52823461D01*
X118832843Y-52699999D01*
X118832843Y-49300001D01*
X118820683Y-49176539D01*
X118784671Y-49057822D01*
X118726190Y-48948412D01*
X118647487Y-48852513D01*
X118551588Y-48773810D01*
X118442178Y-48715329D01*
X118323461Y-48679317D01*
X118199999Y-48667157D01*
X114800001Y-48667157D01*
X114676539Y-48679317D01*
X114557822Y-48715329D01*
X114448412Y-48773810D01*
X114356794Y-48849000D01*
X111418896Y-48849000D01*
X111176347Y-48872889D01*
X110865133Y-48967295D01*
X110578316Y-49120602D01*
X110326918Y-49326918D01*
X110120602Y-49578316D01*
X109967295Y-49865133D01*
X109872889Y-50176347D01*
X109841012Y-50500000D01*
X92681000Y-50500000D01*
X92681000Y-50383682D01*
X92635614Y-50155515D01*
X92546588Y-49940587D01*
X92417342Y-49747157D01*
X92252843Y-49582658D01*
X92059413Y-49453412D01*
X91844485Y-49364386D01*
X91616318Y-49319000D01*
X91383682Y-49319000D01*
X91155515Y-49364386D01*
X90940587Y-49453412D01*
X90747157Y-49582658D01*
X90582658Y-49747157D01*
X90453412Y-49940587D01*
X90364386Y-50155515D01*
X90319000Y-50383682D01*
X90319000Y-50616318D01*
X90364386Y-50844485D01*
X90453412Y-51059413D01*
X90582658Y-51252843D01*
X90747157Y-51417342D01*
X90940587Y-51546588D01*
X91155515Y-51635614D01*
X91383682Y-51681000D01*
X91616318Y-51681000D01*
X91844485Y-51635614D01*
X91895898Y-51614318D01*
X103084165Y-62802585D01*
X103100072Y-62821968D01*
X103177425Y-62885449D01*
X103265677Y-62932621D01*
X103361435Y-62961669D01*
X103436073Y-62969020D01*
X103436076Y-62969020D01*
X103461020Y-62971477D01*
X103485964Y-62969020D01*
X125879990Y-62969020D01*
X125879991Y-74104557D01*
X125876304Y-74141990D01*
X125891017Y-74291368D01*
X125934589Y-74435005D01*
X126005345Y-74567382D01*
X126070198Y-74646405D01*
X126100569Y-74683412D01*
X126129639Y-74707269D01*
X127539527Y-76117157D01*
X126900000Y-76117157D01*
X126841353Y-76122933D01*
X126426855Y-75708435D01*
X126410948Y-75689052D01*
X126333595Y-75625571D01*
X126245343Y-75578399D01*
X126149585Y-75549351D01*
X126074947Y-75542000D01*
X126074944Y-75542000D01*
X126050000Y-75539543D01*
X126025056Y-75542000D01*
X124315382Y-75542000D01*
X124303701Y-75503492D01*
X124268322Y-75437304D01*
X124220711Y-75379289D01*
X124162696Y-75331678D01*
X124096508Y-75296299D01*
X124024689Y-75274513D01*
X123950000Y-75267157D01*
X123050000Y-75267157D01*
X122975311Y-75274513D01*
X122903492Y-75296299D01*
X122837304Y-75331678D01*
X122779289Y-75379289D01*
X122731678Y-75437304D01*
X122696299Y-75503492D01*
X122674513Y-75575311D01*
X122667157Y-75650000D01*
X122667157Y-76450000D01*
X122674513Y-76524689D01*
X122696299Y-76596508D01*
X122731678Y-76662696D01*
X122779289Y-76720711D01*
X122837304Y-76768322D01*
X122903492Y-76803701D01*
X122975311Y-76825487D01*
X123050000Y-76832843D01*
X123950000Y-76832843D01*
X124024689Y-76825487D01*
X124096508Y-76803701D01*
X124162696Y-76768322D01*
X124220711Y-76720711D01*
X124268322Y-76662696D01*
X124303701Y-76596508D01*
X124315382Y-76558000D01*
X125839580Y-76558000D01*
X126267157Y-76985577D01*
X126267157Y-78250000D01*
X126279317Y-78373462D01*
X126315329Y-78492179D01*
X126373810Y-78601589D01*
X126452512Y-78697488D01*
X126548411Y-78776190D01*
X126657821Y-78834671D01*
X126776538Y-78870683D01*
X126900000Y-78882843D01*
X127805212Y-78882843D01*
X128442731Y-79520362D01*
X128466588Y-79549432D01*
X128582618Y-79644655D01*
X128714995Y-79715412D01*
X128858632Y-79758984D01*
X128970584Y-79770010D01*
X128970586Y-79770010D01*
X129008009Y-79773696D01*
X129045432Y-79770010D01*
X130525083Y-79770010D01*
X130562506Y-79773696D01*
X130599929Y-79770010D01*
X130599932Y-79770010D01*
X130711884Y-79758984D01*
X130855521Y-79715412D01*
X130987898Y-79644655D01*
X131103928Y-79549432D01*
X131127790Y-79520356D01*
X131521146Y-79127000D01*
X146765000Y-79127000D01*
X146765000Y-79402000D01*
X146813507Y-79640496D01*
X146907610Y-79864946D01*
X147043693Y-80066725D01*
X147216526Y-80238078D01*
X147419467Y-80372421D01*
X147644718Y-80464591D01*
X147682391Y-80468462D01*
X147873000Y-80343731D01*
X147873000Y-79127000D01*
X146765000Y-79127000D01*
X131521146Y-79127000D01*
X132173146Y-78475000D01*
X135011928Y-78475000D01*
X135024188Y-78599482D01*
X135060498Y-78719180D01*
X135119463Y-78829494D01*
X135198815Y-78926185D01*
X135295506Y-79005537D01*
X135405820Y-79064502D01*
X135525518Y-79100812D01*
X135650000Y-79113072D01*
X136214250Y-79110000D01*
X136373000Y-78951250D01*
X136373000Y-77627000D01*
X135173750Y-77627000D01*
X135015000Y-77785750D01*
X135011928Y-78475000D01*
X132173146Y-78475000D01*
X134123146Y-76525000D01*
X135011928Y-76525000D01*
X135015000Y-77214250D01*
X135173750Y-77373000D01*
X136373000Y-77373000D01*
X136373000Y-76048750D01*
X136627000Y-76048750D01*
X136627000Y-77373000D01*
X136647000Y-77373000D01*
X136647000Y-77627000D01*
X136627000Y-77627000D01*
X136627000Y-78951250D01*
X136785750Y-79110000D01*
X137350000Y-79113072D01*
X137474482Y-79100812D01*
X137594180Y-79064502D01*
X137704494Y-79005537D01*
X137801185Y-78926185D01*
X137880537Y-78829494D01*
X137939502Y-78719180D01*
X137975812Y-78599482D01*
X137988072Y-78475000D01*
X137987433Y-78331619D01*
X138125341Y-78499660D01*
X138312785Y-78653491D01*
X138526638Y-78767798D01*
X138758683Y-78838188D01*
X139000000Y-78861956D01*
X139241318Y-78838188D01*
X139473363Y-78767798D01*
X139687216Y-78653491D01*
X139874660Y-78499660D01*
X140028491Y-78312215D01*
X140142798Y-78098362D01*
X140213188Y-77866317D01*
X140231000Y-77685471D01*
X140231000Y-77314529D01*
X140269000Y-77314529D01*
X140269000Y-77685472D01*
X140286812Y-77866318D01*
X140357202Y-78098363D01*
X140471509Y-78312216D01*
X140625341Y-78499660D01*
X140812785Y-78653491D01*
X141026638Y-78767798D01*
X141258683Y-78838188D01*
X141500000Y-78861956D01*
X141741318Y-78838188D01*
X141973363Y-78767798D01*
X142187216Y-78653491D01*
X142374660Y-78499660D01*
X142528491Y-78312215D01*
X142642798Y-78098362D01*
X142713188Y-77866317D01*
X142731000Y-77685471D01*
X142731000Y-77314528D01*
X142713188Y-77133682D01*
X142642798Y-76901637D01*
X142528491Y-76687784D01*
X142374660Y-76500340D01*
X142187215Y-76346509D01*
X141973362Y-76232202D01*
X141741317Y-76161812D01*
X141500000Y-76138044D01*
X141258682Y-76161812D01*
X141026637Y-76232202D01*
X140812784Y-76346509D01*
X140625340Y-76500340D01*
X140471509Y-76687785D01*
X140357202Y-76901638D01*
X140286812Y-77133683D01*
X140269000Y-77314529D01*
X140231000Y-77314529D01*
X140231000Y-77314528D01*
X140213188Y-77133682D01*
X140142798Y-76901637D01*
X140028491Y-76687784D01*
X139874660Y-76500340D01*
X139687215Y-76346509D01*
X139473362Y-76232202D01*
X139241317Y-76161812D01*
X139000000Y-76138044D01*
X138758682Y-76161812D01*
X138526637Y-76232202D01*
X138312784Y-76346509D01*
X138125340Y-76500340D01*
X137987433Y-76668381D01*
X137988072Y-76525000D01*
X137975812Y-76400518D01*
X137939502Y-76280820D01*
X137880537Y-76170506D01*
X137801185Y-76073815D01*
X137704494Y-75994463D01*
X137594180Y-75935498D01*
X137474482Y-75899188D01*
X137350000Y-75886928D01*
X136785750Y-75890000D01*
X136627000Y-76048750D01*
X136373000Y-76048750D01*
X136214250Y-75890000D01*
X135650000Y-75886928D01*
X135525518Y-75899188D01*
X135405820Y-75935498D01*
X135295506Y-75994463D01*
X135198815Y-76073815D01*
X135119463Y-76170506D01*
X135060498Y-76280820D01*
X135024188Y-76400518D01*
X135011928Y-76525000D01*
X134123146Y-76525000D01*
X134220362Y-76427785D01*
X134249432Y-76403928D01*
X134344655Y-76287898D01*
X134415412Y-76155521D01*
X134458984Y-76011884D01*
X134470010Y-75899932D01*
X134470010Y-75899930D01*
X134473696Y-75862507D01*
X134470010Y-75825084D01*
X134470010Y-71475000D01*
X135011928Y-71475000D01*
X135024188Y-71599482D01*
X135060498Y-71719180D01*
X135119463Y-71829494D01*
X135198815Y-71926185D01*
X135295506Y-72005537D01*
X135405820Y-72064502D01*
X135525518Y-72100812D01*
X135650000Y-72113072D01*
X136214250Y-72110000D01*
X136373000Y-71951250D01*
X136373000Y-70627000D01*
X135173750Y-70627000D01*
X135015000Y-70785750D01*
X135011928Y-71475000D01*
X134470010Y-71475000D01*
X134470010Y-69525000D01*
X135011928Y-69525000D01*
X135015000Y-70214250D01*
X135173750Y-70373000D01*
X136373000Y-70373000D01*
X136373000Y-69048750D01*
X136214250Y-68890000D01*
X135650000Y-68886928D01*
X135525518Y-68899188D01*
X135405820Y-68935498D01*
X135295506Y-68994463D01*
X135198815Y-69073815D01*
X135119463Y-69170506D01*
X135060498Y-69280820D01*
X135024188Y-69400518D01*
X135011928Y-69525000D01*
X134470010Y-69525000D01*
X134470010Y-65688430D01*
X137322145Y-68540565D01*
X137338052Y-68559948D01*
X137415405Y-68623429D01*
X137503657Y-68670601D01*
X137599415Y-68699649D01*
X137674053Y-68707000D01*
X137674056Y-68707000D01*
X137699000Y-68709457D01*
X137723944Y-68707000D01*
X145022869Y-68707000D01*
X145029317Y-68772462D01*
X145065329Y-68891179D01*
X145123810Y-69000589D01*
X145202512Y-69096488D01*
X145298411Y-69175190D01*
X145407821Y-69233671D01*
X145526538Y-69269683D01*
X145649999Y-69281843D01*
X146350001Y-69281843D01*
X146473462Y-69269683D01*
X146592179Y-69233671D01*
X146701589Y-69175190D01*
X146797488Y-69096488D01*
X146876190Y-69000589D01*
X146934671Y-68891179D01*
X146970683Y-68772462D01*
X146982843Y-68649001D01*
X146982843Y-67748999D01*
X146970683Y-67625538D01*
X146934671Y-67506821D01*
X146876190Y-67397411D01*
X146797488Y-67301512D01*
X146701589Y-67222810D01*
X146592179Y-67164329D01*
X146570546Y-67157767D01*
X146582445Y-67129040D01*
X146608800Y-66996545D01*
X146608800Y-66861455D01*
X146582445Y-66728960D01*
X146530748Y-66604152D01*
X146455695Y-66491828D01*
X146360172Y-66396305D01*
X146247848Y-66321252D01*
X146123040Y-66269555D01*
X145990545Y-66243200D01*
X145855455Y-66243200D01*
X145722960Y-66269555D01*
X145603000Y-66319244D01*
X145603000Y-65692187D01*
X145621777Y-65676777D01*
X145688043Y-65596032D01*
X145730000Y-65517536D01*
X145771957Y-65596032D01*
X145838223Y-65676777D01*
X145918968Y-65743043D01*
X145971266Y-65770997D01*
X145988150Y-65791570D01*
X146004053Y-65810948D01*
X146023430Y-65826850D01*
X146623165Y-66426585D01*
X146639072Y-66445968D01*
X146688308Y-66486374D01*
X146716424Y-66509449D01*
X146747745Y-66526190D01*
X146804677Y-66556621D01*
X146900435Y-66585669D01*
X146975073Y-66593020D01*
X146975076Y-66593020D01*
X147000020Y-66595477D01*
X147024964Y-66593020D01*
X149099113Y-66593020D01*
X149073305Y-66618828D01*
X148998252Y-66731152D01*
X148946555Y-66855960D01*
X148920200Y-66988455D01*
X148920200Y-67123545D01*
X148927146Y-67158467D01*
X148907821Y-67164329D01*
X148798411Y-67222810D01*
X148750000Y-67262540D01*
X148701589Y-67222810D01*
X148592179Y-67164329D01*
X148473462Y-67128317D01*
X148350001Y-67116157D01*
X147649999Y-67116157D01*
X147526538Y-67128317D01*
X147407821Y-67164329D01*
X147298411Y-67222810D01*
X147202512Y-67301512D01*
X147123810Y-67397411D01*
X147065329Y-67506821D01*
X147029317Y-67625538D01*
X147017157Y-67748999D01*
X147017157Y-68649001D01*
X147029317Y-68772462D01*
X147065329Y-68891179D01*
X147123810Y-69000589D01*
X147202512Y-69096488D01*
X147298411Y-69175190D01*
X147407821Y-69233671D01*
X147526538Y-69269683D01*
X147649999Y-69281843D01*
X148350001Y-69281843D01*
X148473462Y-69269683D01*
X148592179Y-69233671D01*
X148701589Y-69175190D01*
X148750000Y-69135460D01*
X148798411Y-69175190D01*
X148907821Y-69233671D01*
X149026538Y-69269683D01*
X149149999Y-69281843D01*
X149850001Y-69281843D01*
X149973462Y-69269683D01*
X150092179Y-69233671D01*
X150201589Y-69175190D01*
X150296564Y-69097246D01*
X150310498Y-69143180D01*
X150369463Y-69253494D01*
X150448815Y-69350185D01*
X150545506Y-69429537D01*
X150655820Y-69488502D01*
X150775518Y-69524812D01*
X150900000Y-69537072D01*
X151214250Y-69534000D01*
X151373000Y-69375250D01*
X151373000Y-68326000D01*
X151627000Y-68326000D01*
X151627000Y-69375250D01*
X151785750Y-69534000D01*
X152100000Y-69537072D01*
X152224482Y-69524812D01*
X152344180Y-69488502D01*
X152454494Y-69429537D01*
X152551185Y-69350185D01*
X152630537Y-69253494D01*
X152689502Y-69143180D01*
X152725812Y-69023482D01*
X152738072Y-68899000D01*
X152735000Y-68484750D01*
X152576250Y-68326000D01*
X151627000Y-68326000D01*
X151373000Y-68326000D01*
X151353000Y-68326000D01*
X151353000Y-68072000D01*
X151373000Y-68072000D01*
X151373000Y-67022750D01*
X151214250Y-66864000D01*
X150900000Y-66860928D01*
X150775518Y-66873188D01*
X150655820Y-66909498D01*
X150545506Y-66968463D01*
X150448815Y-67047815D01*
X150369463Y-67144506D01*
X150310498Y-67254820D01*
X150296564Y-67300754D01*
X150259517Y-67270350D01*
X150265445Y-67256040D01*
X150291800Y-67123545D01*
X150291800Y-66988455D01*
X150265445Y-66855960D01*
X150213748Y-66731152D01*
X150138695Y-66618828D01*
X150112887Y-66593020D01*
X151572992Y-66593020D01*
X151843408Y-66863436D01*
X151785750Y-66864000D01*
X151627000Y-67022750D01*
X151627000Y-68072000D01*
X152576250Y-68072000D01*
X152735000Y-67913250D01*
X152736165Y-67756193D01*
X155101537Y-70121565D01*
X155117444Y-70140948D01*
X155194797Y-70204429D01*
X155283049Y-70251601D01*
X155378807Y-70280649D01*
X155453445Y-70288000D01*
X155453448Y-70288000D01*
X155478392Y-70290457D01*
X155503336Y-70288000D01*
X160040796Y-70288000D01*
X160089522Y-70405634D01*
X160234067Y-70621961D01*
X160418039Y-70805933D01*
X160634366Y-70950478D01*
X160874633Y-71050000D01*
X160634366Y-71149522D01*
X160464549Y-71262990D01*
X146733611Y-71262990D01*
X146050000Y-70579380D01*
X146050000Y-70544455D01*
X146023645Y-70411960D01*
X145971948Y-70287152D01*
X145896895Y-70174828D01*
X145801372Y-70079305D01*
X145689048Y-70004252D01*
X145564240Y-69952555D01*
X145431745Y-69926200D01*
X145296655Y-69926200D01*
X145164160Y-69952555D01*
X145039352Y-70004252D01*
X144927028Y-70079305D01*
X144831505Y-70174828D01*
X144756452Y-70287152D01*
X144704755Y-70411960D01*
X144678400Y-70544455D01*
X144678400Y-70679545D01*
X144704755Y-70812040D01*
X144756452Y-70936848D01*
X144831505Y-71049172D01*
X144927028Y-71144695D01*
X145039352Y-71219748D01*
X145164160Y-71271445D01*
X145296655Y-71297800D01*
X145331580Y-71297800D01*
X146146339Y-72112560D01*
X146162242Y-72131938D01*
X146181619Y-72147840D01*
X146239594Y-72195419D01*
X146327845Y-72242590D01*
X146327847Y-72242591D01*
X146423605Y-72271639D01*
X146498243Y-72278990D01*
X146498245Y-72278990D01*
X146523189Y-72281447D01*
X146548133Y-72278990D01*
X146922758Y-72278990D01*
X146857202Y-72401637D01*
X146822207Y-72517000D01*
X146384867Y-72517000D01*
X146360172Y-72492305D01*
X146247848Y-72417252D01*
X146123040Y-72365555D01*
X145990545Y-72339200D01*
X145855455Y-72339200D01*
X145722960Y-72365555D01*
X145598152Y-72417252D01*
X145485828Y-72492305D01*
X145390305Y-72587828D01*
X145315252Y-72700152D01*
X145263555Y-72824960D01*
X145237200Y-72957455D01*
X145237200Y-73092545D01*
X145263555Y-73225040D01*
X145315252Y-73349848D01*
X145390305Y-73462172D01*
X145485828Y-73557695D01*
X145598152Y-73632748D01*
X145722960Y-73684445D01*
X145855455Y-73710800D01*
X145990545Y-73710800D01*
X146123040Y-73684445D01*
X146247848Y-73632748D01*
X146360172Y-73557695D01*
X146384867Y-73533000D01*
X146837375Y-73533000D01*
X146857202Y-73598362D01*
X146971509Y-73812215D01*
X147125340Y-73999660D01*
X147312784Y-74153491D01*
X147526637Y-74267798D01*
X147758682Y-74338188D01*
X148000000Y-74361956D01*
X148241317Y-74338188D01*
X148473362Y-74267798D01*
X148522900Y-74241320D01*
X150061145Y-75779565D01*
X150077052Y-75798948D01*
X150154405Y-75862429D01*
X150242657Y-75909601D01*
X150338415Y-75938649D01*
X150413053Y-75946000D01*
X150413056Y-75946000D01*
X150438000Y-75948457D01*
X150462944Y-75946000D01*
X151303133Y-75946000D01*
X151327828Y-75970695D01*
X151440152Y-76045748D01*
X151564960Y-76097445D01*
X151697455Y-76123800D01*
X151832545Y-76123800D01*
X151965040Y-76097445D01*
X152089848Y-76045748D01*
X152202172Y-75970695D01*
X152297695Y-75875172D01*
X152372748Y-75762848D01*
X152424445Y-75638040D01*
X152450800Y-75505545D01*
X152450800Y-75370455D01*
X152424445Y-75237960D01*
X152372748Y-75113152D01*
X152297695Y-75000828D01*
X152202172Y-74905305D01*
X152089848Y-74830252D01*
X151965040Y-74778555D01*
X151832545Y-74752200D01*
X151697455Y-74752200D01*
X151564960Y-74778555D01*
X151440152Y-74830252D01*
X151327828Y-74905305D01*
X151303133Y-74930000D01*
X150648420Y-74930000D01*
X149939806Y-74221386D01*
X150026637Y-74267798D01*
X150258682Y-74338188D01*
X150500000Y-74361956D01*
X150741317Y-74338188D01*
X150973362Y-74267798D01*
X151187215Y-74153491D01*
X151374660Y-73999660D01*
X151528491Y-73812216D01*
X151642798Y-73598363D01*
X151713188Y-73366318D01*
X151731000Y-73185472D01*
X151731000Y-72814529D01*
X151713188Y-72633683D01*
X151642798Y-72401638D01*
X151577241Y-72278990D01*
X151922758Y-72278990D01*
X151857202Y-72401637D01*
X151786812Y-72633682D01*
X151769000Y-72814528D01*
X151769000Y-73185471D01*
X151786812Y-73366317D01*
X151857202Y-73598362D01*
X151971509Y-73812215D01*
X152125340Y-73999660D01*
X152312784Y-74153491D01*
X152526637Y-74267798D01*
X152758682Y-74338188D01*
X153000000Y-74361956D01*
X153241317Y-74338188D01*
X153473362Y-74267798D01*
X153687215Y-74153491D01*
X153874660Y-73999660D01*
X154012567Y-73831619D01*
X154011928Y-73975000D01*
X154024188Y-74099482D01*
X154060498Y-74219180D01*
X154119463Y-74329494D01*
X154198815Y-74426185D01*
X154295506Y-74505537D01*
X154405820Y-74564502D01*
X154525518Y-74600812D01*
X154650000Y-74613072D01*
X155214250Y-74610000D01*
X155373000Y-74451250D01*
X155373000Y-73127000D01*
X155627000Y-73127000D01*
X155627000Y-74451250D01*
X155785750Y-74610000D01*
X156350000Y-74613072D01*
X156474482Y-74600812D01*
X156594180Y-74564502D01*
X156704494Y-74505537D01*
X156801185Y-74426185D01*
X156880537Y-74329494D01*
X156939502Y-74219180D01*
X156975812Y-74099482D01*
X156988072Y-73975000D01*
X156985000Y-73285750D01*
X156826250Y-73127000D01*
X155627000Y-73127000D01*
X155373000Y-73127000D01*
X155353000Y-73127000D01*
X155353000Y-72873000D01*
X155373000Y-72873000D01*
X155373000Y-72853000D01*
X155627000Y-72853000D01*
X155627000Y-72873000D01*
X156826250Y-72873000D01*
X156985000Y-72714250D01*
X156986940Y-72278990D01*
X159939200Y-72278990D01*
X159939200Y-72450087D01*
X159989957Y-72705263D01*
X160089522Y-72945634D01*
X160234067Y-73161961D01*
X160418039Y-73345933D01*
X160634366Y-73490478D01*
X160874633Y-73590000D01*
X160634366Y-73689522D01*
X160418039Y-73834067D01*
X160234067Y-74018039D01*
X160089522Y-74234366D01*
X159989957Y-74474737D01*
X159939200Y-74729913D01*
X159939200Y-74990087D01*
X159989957Y-75245263D01*
X160089522Y-75485634D01*
X160234067Y-75701961D01*
X160418039Y-75885933D01*
X160634366Y-76030478D01*
X160874633Y-76130000D01*
X160634366Y-76229522D01*
X160418039Y-76374067D01*
X160234067Y-76558039D01*
X160089522Y-76774366D01*
X160040796Y-76892000D01*
X146110420Y-76892000D01*
X140939804Y-71721384D01*
X141026638Y-71767798D01*
X141258683Y-71838188D01*
X141500000Y-71861956D01*
X141741318Y-71838188D01*
X141973363Y-71767798D01*
X142187216Y-71653491D01*
X142374660Y-71499660D01*
X142528491Y-71312215D01*
X142642798Y-71098362D01*
X142713188Y-70866317D01*
X142731000Y-70685471D01*
X142731000Y-70314528D01*
X142713188Y-70133682D01*
X142642798Y-69901637D01*
X142528491Y-69687784D01*
X142374660Y-69500340D01*
X142187215Y-69346509D01*
X141973362Y-69232202D01*
X141741317Y-69161812D01*
X141500000Y-69138044D01*
X141258682Y-69161812D01*
X141026637Y-69232202D01*
X140812784Y-69346509D01*
X140625340Y-69500340D01*
X140471509Y-69687785D01*
X140357202Y-69901638D01*
X140286812Y-70133683D01*
X140269000Y-70314529D01*
X140269000Y-70685472D01*
X140286812Y-70866318D01*
X140357202Y-71098363D01*
X140403614Y-71185194D01*
X140183292Y-70964872D01*
X140213188Y-70866317D01*
X140231000Y-70685471D01*
X140231000Y-70314528D01*
X140213188Y-70133682D01*
X140142798Y-69901637D01*
X140028491Y-69687784D01*
X139874660Y-69500340D01*
X139687215Y-69346509D01*
X139473362Y-69232202D01*
X139241317Y-69161812D01*
X139000000Y-69138044D01*
X138758682Y-69161812D01*
X138526637Y-69232202D01*
X138312784Y-69346509D01*
X138125340Y-69500340D01*
X137987433Y-69668381D01*
X137988072Y-69525000D01*
X137975812Y-69400518D01*
X137939502Y-69280820D01*
X137880537Y-69170506D01*
X137801185Y-69073815D01*
X137704494Y-68994463D01*
X137594180Y-68935498D01*
X137474482Y-68899188D01*
X137350000Y-68886928D01*
X136785750Y-68890000D01*
X136627000Y-69048750D01*
X136627000Y-70373000D01*
X136647000Y-70373000D01*
X136647000Y-70627000D01*
X136627000Y-70627000D01*
X136627000Y-71951250D01*
X136785750Y-72110000D01*
X137350000Y-72113072D01*
X137474482Y-72100812D01*
X137594180Y-72064502D01*
X137704494Y-72005537D01*
X137801185Y-71926185D01*
X137880537Y-71829494D01*
X137939502Y-71719180D01*
X137975812Y-71599482D01*
X137988072Y-71475000D01*
X137987433Y-71331619D01*
X138125341Y-71499660D01*
X138312785Y-71653491D01*
X138526638Y-71767798D01*
X138758683Y-71838188D01*
X139000000Y-71861956D01*
X139241318Y-71838188D01*
X139473363Y-71767798D01*
X139522900Y-71741320D01*
X145523145Y-77741565D01*
X145539052Y-77760948D01*
X145616405Y-77824429D01*
X145704657Y-77871601D01*
X145800415Y-77900649D01*
X145875053Y-77908000D01*
X145875056Y-77908000D01*
X145900000Y-77910457D01*
X145924944Y-77908000D01*
X147069186Y-77908000D01*
X147043693Y-77933275D01*
X146907610Y-78135054D01*
X146813507Y-78359504D01*
X146765000Y-78598000D01*
X146765000Y-78873000D01*
X147873000Y-78873000D01*
X147873000Y-78853000D01*
X148127000Y-78853000D01*
X148127000Y-78873000D01*
X148147000Y-78873000D01*
X148147000Y-79127000D01*
X148127000Y-79127000D01*
X148127000Y-80343731D01*
X148317609Y-80468462D01*
X148355282Y-80464591D01*
X148580533Y-80372421D01*
X148783474Y-80238078D01*
X148956307Y-80066725D01*
X149092390Y-79864946D01*
X149141007Y-79748986D01*
X149180382Y-79822651D01*
X149302972Y-79972028D01*
X149452349Y-80094618D01*
X149622771Y-80185711D01*
X149807690Y-80241805D01*
X150000000Y-80260746D01*
X150192309Y-80241805D01*
X150377228Y-80185711D01*
X150547651Y-80094618D01*
X150697028Y-79972028D01*
X150819618Y-79822651D01*
X150910711Y-79652229D01*
X150966805Y-79467310D01*
X150981000Y-79323187D01*
X150981000Y-78676814D01*
X150966805Y-78532691D01*
X150910711Y-78347771D01*
X150819618Y-78177349D01*
X150697028Y-78027972D01*
X150550841Y-77908000D01*
X151449160Y-77908000D01*
X151302973Y-78027972D01*
X151180383Y-78177349D01*
X151089289Y-78347771D01*
X151033195Y-78532690D01*
X151019000Y-78676813D01*
X151019000Y-79323186D01*
X151033195Y-79467309D01*
X151089289Y-79652228D01*
X151180382Y-79822651D01*
X151302972Y-79972028D01*
X151452349Y-80094618D01*
X151622771Y-80185711D01*
X151807690Y-80241805D01*
X152000000Y-80260746D01*
X152192309Y-80241805D01*
X152377228Y-80185711D01*
X152547651Y-80094618D01*
X152697028Y-79972028D01*
X152819618Y-79822651D01*
X152910711Y-79652229D01*
X152966805Y-79467310D01*
X152981000Y-79323187D01*
X152981000Y-78676814D01*
X152966805Y-78532691D01*
X152910711Y-78347771D01*
X152819618Y-78177349D01*
X152697028Y-78027972D01*
X152550841Y-77908000D01*
X153449160Y-77908000D01*
X153302973Y-78027972D01*
X153180383Y-78177349D01*
X153089289Y-78347771D01*
X153033195Y-78532690D01*
X153019000Y-78676813D01*
X153019000Y-79323186D01*
X153033195Y-79467309D01*
X153089289Y-79652228D01*
X153180382Y-79822651D01*
X153302972Y-79972028D01*
X153452349Y-80094618D01*
X153622771Y-80185711D01*
X153807690Y-80241805D01*
X154000000Y-80260746D01*
X154192309Y-80241805D01*
X154377228Y-80185711D01*
X154547651Y-80094618D01*
X154697028Y-79972028D01*
X154819618Y-79822651D01*
X154910711Y-79652229D01*
X154966805Y-79467310D01*
X154981000Y-79323187D01*
X154981000Y-78676814D01*
X154966805Y-78532691D01*
X154910711Y-78347771D01*
X154819618Y-78177349D01*
X154697028Y-78027972D01*
X154550841Y-77908000D01*
X155226288Y-77908000D01*
X155202512Y-77927512D01*
X155123810Y-78023411D01*
X155065329Y-78132821D01*
X155029317Y-78251538D01*
X155017157Y-78374999D01*
X155017157Y-79625001D01*
X155029317Y-79748462D01*
X155065329Y-79867179D01*
X155123810Y-79976589D01*
X155202512Y-80072488D01*
X155298411Y-80151190D01*
X155407821Y-80209671D01*
X155526538Y-80245683D01*
X155649999Y-80257843D01*
X156350001Y-80257843D01*
X156473462Y-80245683D01*
X156592179Y-80209671D01*
X156701589Y-80151190D01*
X156797488Y-80072488D01*
X156876190Y-79976589D01*
X156934671Y-79867179D01*
X156970683Y-79748462D01*
X156982843Y-79625001D01*
X156982843Y-78374999D01*
X156970683Y-78251538D01*
X156934671Y-78132821D01*
X156876190Y-78023411D01*
X156797488Y-77927512D01*
X156773712Y-77908000D01*
X160040796Y-77908000D01*
X160089522Y-78025634D01*
X160234067Y-78241961D01*
X160418039Y-78425933D01*
X160634366Y-78570478D01*
X160874633Y-78670000D01*
X160634366Y-78769522D01*
X160418039Y-78914067D01*
X160234067Y-79098039D01*
X160089522Y-79314366D01*
X159989957Y-79554737D01*
X159939200Y-79809913D01*
X159939200Y-80070087D01*
X159989957Y-80325263D01*
X160089522Y-80565634D01*
X160129724Y-80625801D01*
X126894222Y-80625801D01*
X125926855Y-79658435D01*
X125910948Y-79639052D01*
X125833595Y-79575571D01*
X125745343Y-79528399D01*
X125649585Y-79499351D01*
X125574947Y-79492000D01*
X125574944Y-79492000D01*
X125550000Y-79489543D01*
X125525056Y-79492000D01*
X124477131Y-79492000D01*
X124470683Y-79426538D01*
X124434671Y-79307821D01*
X124376190Y-79198411D01*
X124297488Y-79102512D01*
X124201589Y-79023810D01*
X124092179Y-78965329D01*
X123973462Y-78929317D01*
X123850001Y-78917157D01*
X123251264Y-78917157D01*
X123435578Y-78732843D01*
X123950000Y-78732843D01*
X124024689Y-78725487D01*
X124096508Y-78703701D01*
X124162696Y-78668322D01*
X124220711Y-78620711D01*
X124268322Y-78562696D01*
X124303701Y-78496508D01*
X124325487Y-78424689D01*
X124332843Y-78350000D01*
X124332843Y-77550000D01*
X124325487Y-77475311D01*
X124303701Y-77403492D01*
X124268322Y-77337304D01*
X124220711Y-77279289D01*
X124162696Y-77231678D01*
X124096508Y-77196299D01*
X124024689Y-77174513D01*
X123950000Y-77167157D01*
X123050000Y-77167157D01*
X122975311Y-77174513D01*
X122903492Y-77196299D01*
X122837304Y-77231678D01*
X122779289Y-77279289D01*
X122731678Y-77337304D01*
X122696299Y-77403492D01*
X122674513Y-77475311D01*
X122667157Y-77550000D01*
X122667157Y-78064422D01*
X121814423Y-78917157D01*
X121149999Y-78917157D01*
X121026538Y-78929317D01*
X120907821Y-78965329D01*
X120798411Y-79023810D01*
X120702512Y-79102512D01*
X120623810Y-79198411D01*
X120565329Y-79307821D01*
X120529317Y-79426538D01*
X120517157Y-79549999D01*
X120517157Y-80450001D01*
X120529317Y-80573462D01*
X120565329Y-80692179D01*
X120623810Y-80801589D01*
X120702512Y-80897488D01*
X120798411Y-80976190D01*
X120891599Y-81026000D01*
X98794421Y-81026000D01*
X95008000Y-77239580D01*
X95008000Y-76888606D01*
X112869000Y-76888606D01*
X112869000Y-77111394D01*
X112912464Y-77329900D01*
X112997721Y-77535729D01*
X113121495Y-77720970D01*
X113279030Y-77878505D01*
X113464271Y-78002279D01*
X113670100Y-78087536D01*
X113888606Y-78131000D01*
X114111394Y-78131000D01*
X114329900Y-78087536D01*
X114535729Y-78002279D01*
X114720970Y-77878505D01*
X114878505Y-77720970D01*
X115002279Y-77535729D01*
X115013765Y-77508000D01*
X120684618Y-77508000D01*
X120696299Y-77546508D01*
X120731678Y-77612696D01*
X120779289Y-77670711D01*
X120837304Y-77718322D01*
X120903492Y-77753701D01*
X120975311Y-77775487D01*
X121050000Y-77782843D01*
X121950000Y-77782843D01*
X122024689Y-77775487D01*
X122096508Y-77753701D01*
X122162696Y-77718322D01*
X122220711Y-77670711D01*
X122268322Y-77612696D01*
X122303701Y-77546508D01*
X122325487Y-77474689D01*
X122332843Y-77400000D01*
X122332843Y-76600000D01*
X122325487Y-76525311D01*
X122303701Y-76453492D01*
X122268322Y-76387304D01*
X122220711Y-76329289D01*
X122162696Y-76281678D01*
X122096508Y-76246299D01*
X122024689Y-76224513D01*
X121950000Y-76217157D01*
X121050000Y-76217157D01*
X120975311Y-76224513D01*
X120903492Y-76246299D01*
X120837304Y-76281678D01*
X120779289Y-76329289D01*
X120731678Y-76387304D01*
X120696299Y-76453492D01*
X120684618Y-76492000D01*
X115013765Y-76492000D01*
X115002279Y-76464271D01*
X114878505Y-76279030D01*
X114720970Y-76121495D01*
X114535729Y-75997721D01*
X114329900Y-75912464D01*
X114111394Y-75869000D01*
X113888606Y-75869000D01*
X113670100Y-75912464D01*
X113464271Y-75997721D01*
X113279030Y-76121495D01*
X113121495Y-76279030D01*
X112997721Y-76464271D01*
X112912464Y-76670100D01*
X112869000Y-76888606D01*
X95008000Y-76888606D01*
X95008000Y-74560206D01*
X95092179Y-74534671D01*
X95201589Y-74476190D01*
X95297488Y-74397488D01*
X95376190Y-74301589D01*
X95434671Y-74192179D01*
X95470683Y-74073462D01*
X95482843Y-73950001D01*
X95482843Y-73049999D01*
X95470683Y-72926538D01*
X95434671Y-72807821D01*
X95376190Y-72698411D01*
X95297488Y-72602512D01*
X95201589Y-72523810D01*
X95092179Y-72465329D01*
X94973462Y-72429317D01*
X94850001Y-72417157D01*
X94149999Y-72417157D01*
X94026538Y-72429317D01*
X93907821Y-72465329D01*
X93798411Y-72523810D01*
X93702512Y-72602512D01*
X93623810Y-72698411D01*
X93565329Y-72807821D01*
X93529317Y-72926538D01*
X93517157Y-73049999D01*
X93517157Y-73950001D01*
X93529317Y-74073462D01*
X93565329Y-74192179D01*
X93623810Y-74301589D01*
X93702512Y-74397488D01*
X93798411Y-74476190D01*
X93907821Y-74534671D01*
X93992000Y-74560206D01*
X93992001Y-77425046D01*
X93989543Y-77450000D01*
X93997956Y-77535409D01*
X93999352Y-77549585D01*
X94011325Y-77589053D01*
X94028400Y-77645343D01*
X94075571Y-77733595D01*
X94102465Y-77766365D01*
X94139053Y-77810948D01*
X94158430Y-77826850D01*
X97937879Y-81606300D01*
X78393700Y-81606300D01*
X78393700Y-78268317D01*
X81647682Y-78268317D01*
X81647682Y-78731683D01*
X81738080Y-79186146D01*
X81915403Y-79614240D01*
X82172835Y-79999515D01*
X82500485Y-80327165D01*
X82885760Y-80584597D01*
X83313854Y-80761920D01*
X83768317Y-80852318D01*
X84231683Y-80852318D01*
X84686146Y-80761920D01*
X85114240Y-80584597D01*
X85499515Y-80327165D01*
X85827165Y-79999515D01*
X86084597Y-79614240D01*
X86261920Y-79186146D01*
X86352318Y-78731683D01*
X86352318Y-78268317D01*
X86261920Y-77813854D01*
X86084597Y-77385760D01*
X85827165Y-77000485D01*
X85499515Y-76672835D01*
X85114240Y-76415403D01*
X84686146Y-76238080D01*
X84231683Y-76147682D01*
X83768317Y-76147682D01*
X83313854Y-76238080D01*
X82885760Y-76415403D01*
X82500485Y-76672835D01*
X82172835Y-77000485D01*
X81915403Y-77385760D01*
X81738080Y-77813854D01*
X81647682Y-78268317D01*
X78393700Y-78268317D01*
X78393700Y-72100000D01*
X87667157Y-72100000D01*
X87667157Y-72900000D01*
X87674513Y-72974689D01*
X87696299Y-73046508D01*
X87731678Y-73112696D01*
X87779289Y-73170711D01*
X87837304Y-73218322D01*
X87903492Y-73253701D01*
X87975311Y-73275487D01*
X88050000Y-73282843D01*
X88950000Y-73282843D01*
X89024689Y-73275487D01*
X89096508Y-73253701D01*
X89162696Y-73218322D01*
X89220711Y-73170711D01*
X89268322Y-73112696D01*
X89301834Y-73050000D01*
X89667157Y-73050000D01*
X89667157Y-73850000D01*
X89674513Y-73924689D01*
X89696299Y-73996508D01*
X89731678Y-74062696D01*
X89779289Y-74120711D01*
X89837304Y-74168322D01*
X89903492Y-74203701D01*
X89975311Y-74225487D01*
X90050000Y-74232843D01*
X90950000Y-74232843D01*
X91024689Y-74225487D01*
X91096508Y-74203701D01*
X91162696Y-74168322D01*
X91220711Y-74120711D01*
X91268322Y-74062696D01*
X91303701Y-73996508D01*
X91315382Y-73958000D01*
X91517945Y-73958000D01*
X91529317Y-74073462D01*
X91565329Y-74192179D01*
X91623810Y-74301589D01*
X91702512Y-74397488D01*
X91798411Y-74476190D01*
X91907821Y-74534671D01*
X92026538Y-74570683D01*
X92149999Y-74582843D01*
X92850001Y-74582843D01*
X92973462Y-74570683D01*
X93092179Y-74534671D01*
X93201589Y-74476190D01*
X93297488Y-74397488D01*
X93376190Y-74301589D01*
X93434671Y-74192179D01*
X93470683Y-74073462D01*
X93482843Y-73950001D01*
X93482843Y-73049999D01*
X93470683Y-72926538D01*
X93434671Y-72807821D01*
X93376190Y-72698411D01*
X93297488Y-72602512D01*
X93201589Y-72523810D01*
X93092179Y-72465329D01*
X92973462Y-72429317D01*
X92850001Y-72417157D01*
X92149999Y-72417157D01*
X92026538Y-72429317D01*
X91907821Y-72465329D01*
X91798411Y-72523810D01*
X91702512Y-72602512D01*
X91623810Y-72698411D01*
X91565329Y-72807821D01*
X91529317Y-72926538D01*
X91527794Y-72942000D01*
X91315382Y-72942000D01*
X91303701Y-72903492D01*
X91268322Y-72837304D01*
X91220711Y-72779289D01*
X91162696Y-72731678D01*
X91096508Y-72696299D01*
X91024689Y-72674513D01*
X90950000Y-72667157D01*
X90050000Y-72667157D01*
X89975311Y-72674513D01*
X89903492Y-72696299D01*
X89837304Y-72731678D01*
X89779289Y-72779289D01*
X89731678Y-72837304D01*
X89696299Y-72903492D01*
X89674513Y-72975311D01*
X89667157Y-73050000D01*
X89301834Y-73050000D01*
X89303701Y-73046508D01*
X89325487Y-72974689D01*
X89332843Y-72900000D01*
X89332843Y-72100000D01*
X89325487Y-72025311D01*
X89303701Y-71953492D01*
X89268322Y-71887304D01*
X89220711Y-71829289D01*
X89162696Y-71781678D01*
X89096508Y-71746299D01*
X89024689Y-71724513D01*
X89008000Y-71722869D01*
X89008000Y-71150000D01*
X89667157Y-71150000D01*
X89667157Y-71950000D01*
X89674513Y-72024689D01*
X89696299Y-72096508D01*
X89731678Y-72162696D01*
X89779289Y-72220711D01*
X89837304Y-72268322D01*
X89903492Y-72303701D01*
X89975311Y-72325487D01*
X90050000Y-72332843D01*
X90950000Y-72332843D01*
X91024689Y-72325487D01*
X91096508Y-72303701D01*
X91162696Y-72268322D01*
X91220711Y-72220711D01*
X91268322Y-72162696D01*
X91303701Y-72096508D01*
X91311644Y-72070322D01*
X91369152Y-72108748D01*
X91493960Y-72160445D01*
X91626455Y-72186800D01*
X91761545Y-72186800D01*
X91894040Y-72160445D01*
X92018848Y-72108748D01*
X92131172Y-72033695D01*
X92226695Y-71938172D01*
X92301748Y-71825848D01*
X92353445Y-71701040D01*
X92379800Y-71568545D01*
X92379800Y-71456993D01*
X113222612Y-71456993D01*
X113288137Y-71695860D01*
X113535116Y-71811760D01*
X113799960Y-71877250D01*
X114072492Y-71889812D01*
X114342238Y-71848965D01*
X114598832Y-71756277D01*
X114711863Y-71695860D01*
X114777388Y-71456993D01*
X114000000Y-70679605D01*
X113222612Y-71456993D01*
X92379800Y-71456993D01*
X92379800Y-71433455D01*
X92353445Y-71300960D01*
X92301748Y-71176152D01*
X92226695Y-71063828D01*
X92131172Y-70968305D01*
X92018848Y-70893252D01*
X91894040Y-70841555D01*
X91761545Y-70815200D01*
X91626455Y-70815200D01*
X91493960Y-70841555D01*
X91369152Y-70893252D01*
X91277507Y-70954488D01*
X91268322Y-70937304D01*
X91220711Y-70879289D01*
X91162696Y-70831678D01*
X91096508Y-70796299D01*
X91024689Y-70774513D01*
X90950000Y-70767157D01*
X90050000Y-70767157D01*
X89975311Y-70774513D01*
X89903492Y-70796299D01*
X89837304Y-70831678D01*
X89779289Y-70879289D01*
X89731678Y-70937304D01*
X89696299Y-71003492D01*
X89674513Y-71075311D01*
X89667157Y-71150000D01*
X89008000Y-71150000D01*
X89008000Y-70572492D01*
X112610188Y-70572492D01*
X112651035Y-70842238D01*
X112743723Y-71098832D01*
X112804140Y-71211863D01*
X113043007Y-71277388D01*
X113820395Y-70500000D01*
X114179605Y-70500000D01*
X114956993Y-71277388D01*
X115195860Y-71211863D01*
X115311760Y-70964884D01*
X115377250Y-70700040D01*
X115389812Y-70427508D01*
X115348965Y-70157762D01*
X115256277Y-69901168D01*
X115195860Y-69788137D01*
X114956993Y-69722612D01*
X114179605Y-70500000D01*
X113820395Y-70500000D01*
X113043007Y-69722612D01*
X112804140Y-69788137D01*
X112688240Y-70035116D01*
X112622750Y-70299960D01*
X112610188Y-70572492D01*
X89008000Y-70572492D01*
X89008000Y-69543007D01*
X113222612Y-69543007D01*
X114000000Y-70320395D01*
X114777388Y-69543007D01*
X114711863Y-69304140D01*
X114464884Y-69188240D01*
X114200040Y-69122750D01*
X113927508Y-69110188D01*
X113657762Y-69151035D01*
X113401168Y-69243723D01*
X113288137Y-69304140D01*
X113222612Y-69543007D01*
X89008000Y-69543007D01*
X89008000Y-61210420D01*
X91104102Y-59114318D01*
X91155515Y-59135614D01*
X91383682Y-59181000D01*
X91616318Y-59181000D01*
X91844485Y-59135614D01*
X92059413Y-59046588D01*
X92252843Y-58917342D01*
X92417342Y-58752843D01*
X92546588Y-58559413D01*
X92635614Y-58344485D01*
X92681000Y-58116318D01*
X92681000Y-57883682D01*
X92635614Y-57655515D01*
X92546588Y-57440587D01*
X92417342Y-57247157D01*
X92252843Y-57082658D01*
X92059413Y-56953412D01*
X91844485Y-56864386D01*
X91616318Y-56819000D01*
X91383682Y-56819000D01*
X91155515Y-56864386D01*
X90940587Y-56953412D01*
X90747157Y-57082658D01*
X90582658Y-57247157D01*
X90453412Y-57440587D01*
X90364386Y-57655515D01*
X90319000Y-57883682D01*
X90319000Y-58116318D01*
X90364386Y-58344485D01*
X90385682Y-58395898D01*
X88158430Y-60623150D01*
X88139053Y-60639052D01*
X88123151Y-60658429D01*
X88123150Y-60658430D01*
X88075571Y-60716405D01*
X88044418Y-60774689D01*
X88028400Y-60804657D01*
X88002499Y-60890043D01*
X87999352Y-60900416D01*
X87989543Y-61000000D01*
X87992001Y-61024954D01*
X87992000Y-71722869D01*
X87975311Y-71724513D01*
X87903492Y-71746299D01*
X87837304Y-71781678D01*
X87779289Y-71829289D01*
X87731678Y-71887304D01*
X87696299Y-71953492D01*
X87674513Y-72025311D01*
X87667157Y-72100000D01*
X78393700Y-72100000D01*
X78393700Y-51268317D01*
X81647682Y-51268317D01*
X81647682Y-51731683D01*
X81738080Y-52186146D01*
X81915403Y-52614240D01*
X82172835Y-52999515D01*
X82500485Y-53327165D01*
X82885760Y-53584597D01*
X83313854Y-53761920D01*
X83768317Y-53852318D01*
X84231683Y-53852318D01*
X84686146Y-53761920D01*
X85114240Y-53584597D01*
X85499515Y-53327165D01*
X85827165Y-52999515D01*
X86084597Y-52614240D01*
X86261920Y-52186146D01*
X86352318Y-51731683D01*
X86352318Y-51268317D01*
X86261920Y-50813854D01*
X86084597Y-50385760D01*
X85827165Y-50000485D01*
X85499515Y-49672835D01*
X85114240Y-49415403D01*
X84686146Y-49238080D01*
X84231683Y-49147682D01*
X83768317Y-49147682D01*
X83313854Y-49238080D01*
X82885760Y-49415403D01*
X82500485Y-49672835D01*
X82172835Y-50000485D01*
X81915403Y-50385760D01*
X81738080Y-50813854D01*
X81647682Y-51268317D01*
X78393700Y-51268317D01*
X78393700Y-48393700D01*
X177606300Y-48393700D01*
X177606300Y-51278317D01*
G37*
G04 #@! TD.AperFunction*
D23*
X143767157Y-52250000D02*
X143779317Y-52373462D01*
X143815329Y-52492179D01*
X143873810Y-52601589D01*
X143952512Y-52697488D01*
X144048411Y-52776190D01*
X144157821Y-52834671D01*
X144276538Y-52870683D01*
X144333001Y-52876244D01*
X144333000Y-59562425D01*
X144344026Y-59674377D01*
X144387598Y-59818014D01*
X144412157Y-59863961D01*
X144412157Y-60234527D01*
X143932843Y-59755213D01*
X143932843Y-58700000D01*
X143925487Y-58625311D01*
X143903701Y-58553492D01*
X143868322Y-58487304D01*
X143820711Y-58429289D01*
X143762696Y-58381678D01*
X143696508Y-58346299D01*
X143624689Y-58324513D01*
X143550000Y-58317157D01*
X142050000Y-58317157D01*
X141975311Y-58324513D01*
X141903492Y-58346299D01*
X141837304Y-58381678D01*
X141811285Y-58403031D01*
X141780537Y-58345506D01*
X141701185Y-58248815D01*
X141604494Y-58169463D01*
X141494180Y-58110498D01*
X141374482Y-58074188D01*
X141250000Y-58061928D01*
X140785750Y-58065000D01*
X140627000Y-58223750D01*
X140627000Y-59573000D01*
X140647000Y-59573000D01*
X140647000Y-59827000D01*
X140627000Y-59827000D01*
X140627000Y-61176250D01*
X140785750Y-61335000D01*
X141250000Y-61338072D01*
X141374482Y-61325812D01*
X141494180Y-61289502D01*
X141604494Y-61230537D01*
X141701185Y-61151185D01*
X141780537Y-61054494D01*
X141811285Y-60996969D01*
X141837304Y-61018322D01*
X141903492Y-61053701D01*
X141975311Y-61075487D01*
X142038001Y-61081661D01*
X142038001Y-61146368D01*
X140446370Y-62738000D01*
X134055332Y-62738000D01*
X134028491Y-62687784D01*
X133874660Y-62500340D01*
X133687215Y-62346509D01*
X133473362Y-62232202D01*
X133241317Y-62161812D01*
X133000000Y-62138044D01*
X132758682Y-62161812D01*
X132526637Y-62232202D01*
X132312784Y-62346509D01*
X132125340Y-62500340D01*
X131971509Y-62687785D01*
X131857202Y-62901638D01*
X131786812Y-63133683D01*
X131769000Y-63314529D01*
X131769000Y-63685472D01*
X131786812Y-63866318D01*
X131857202Y-64098363D01*
X131971509Y-64312216D01*
X132125341Y-64499660D01*
X132312785Y-64653491D01*
X132526638Y-64767798D01*
X132758683Y-64838188D01*
X132946010Y-64856638D01*
X132946011Y-70263812D01*
X132785750Y-70265000D01*
X132627000Y-70423750D01*
X132627000Y-71373000D01*
X132647000Y-71373000D01*
X132647000Y-71627000D01*
X132627000Y-71627000D01*
X132627000Y-71647000D01*
X132373000Y-71647000D01*
X132373000Y-71627000D01*
X131323750Y-71627000D01*
X131165000Y-71785750D01*
X131161928Y-72100000D01*
X131174188Y-72224482D01*
X131210498Y-72344180D01*
X131269463Y-72454494D01*
X131348815Y-72551185D01*
X131445506Y-72630537D01*
X131555820Y-72689502D01*
X131601754Y-72703436D01*
X131523810Y-72798411D01*
X131465329Y-72907821D01*
X131429317Y-73026538D01*
X131417157Y-73149999D01*
X131417157Y-73850001D01*
X131429317Y-73973462D01*
X131465329Y-74092179D01*
X131523810Y-74201589D01*
X131602512Y-74297488D01*
X131698411Y-74376190D01*
X131807821Y-74434671D01*
X131926538Y-74470683D01*
X131948306Y-74472827D01*
X131928305Y-74492828D01*
X131853252Y-74605152D01*
X131801555Y-74729960D01*
X131775200Y-74862455D01*
X131775200Y-74997545D01*
X131801555Y-75130040D01*
X131853252Y-75254848D01*
X131928305Y-75367172D01*
X132023828Y-75462695D01*
X132136152Y-75537748D01*
X132260960Y-75589445D01*
X132393455Y-75615800D01*
X132528545Y-75615800D01*
X132661040Y-75589445D01*
X132785848Y-75537748D01*
X132898172Y-75462695D01*
X132946011Y-75414856D01*
X132946011Y-75546874D01*
X131228522Y-77264364D01*
X131213188Y-77108682D01*
X131142798Y-76876637D01*
X131028491Y-76662784D01*
X130874660Y-76475340D01*
X130687215Y-76321509D01*
X130473362Y-76207202D01*
X130241317Y-76136812D01*
X130000000Y-76113044D01*
X129758682Y-76136812D01*
X129724739Y-76147108D01*
X127403990Y-73826360D01*
X127403990Y-70900000D01*
X131161928Y-70900000D01*
X131165000Y-71214250D01*
X131323750Y-71373000D01*
X132373000Y-71373000D01*
X132373000Y-70423750D01*
X132214250Y-70265000D01*
X131800000Y-70261928D01*
X131675518Y-70274188D01*
X131555820Y-70310498D01*
X131445506Y-70369463D01*
X131348815Y-70448815D01*
X131269463Y-70545506D01*
X131210498Y-70655820D01*
X131174188Y-70775518D01*
X131161928Y-70900000D01*
X127403990Y-70900000D01*
X127403990Y-65111689D01*
X127714250Y-65110000D01*
X127873000Y-64951250D01*
X127873000Y-63627000D01*
X127853000Y-63627000D01*
X127853000Y-63373000D01*
X127873000Y-63373000D01*
X127873000Y-63353000D01*
X128127000Y-63353000D01*
X128127000Y-63373000D01*
X128147000Y-63373000D01*
X128147000Y-63627000D01*
X128127000Y-63627000D01*
X128127000Y-64951250D01*
X128285750Y-65110000D01*
X128850000Y-65113072D01*
X128974482Y-65100812D01*
X129094180Y-65064502D01*
X129204494Y-65005537D01*
X129301185Y-64926185D01*
X129380537Y-64829494D01*
X129439502Y-64719180D01*
X129475812Y-64599482D01*
X129488072Y-64475000D01*
X129487433Y-64331619D01*
X129625341Y-64499660D01*
X129812785Y-64653491D01*
X130026638Y-64767798D01*
X130258683Y-64838188D01*
X130500000Y-64861956D01*
X130741318Y-64838188D01*
X130973363Y-64767798D01*
X131187216Y-64653491D01*
X131374660Y-64499660D01*
X131528491Y-64312215D01*
X131642798Y-64098362D01*
X131713188Y-63866317D01*
X131731000Y-63685471D01*
X131731000Y-63314528D01*
X131713188Y-63133682D01*
X131642798Y-62901637D01*
X131528491Y-62687784D01*
X131374660Y-62500340D01*
X131187215Y-62346509D01*
X130973362Y-62232202D01*
X130741317Y-62161812D01*
X130500000Y-62138044D01*
X130258682Y-62161812D01*
X130026637Y-62232202D01*
X129812784Y-62346509D01*
X129625340Y-62500340D01*
X129487433Y-62668381D01*
X129488072Y-62525000D01*
X129475812Y-62400518D01*
X129439502Y-62280820D01*
X129380537Y-62170506D01*
X129301185Y-62073815D01*
X129204494Y-61994463D01*
X129094180Y-61935498D01*
X128974482Y-61899188D01*
X128850000Y-61886928D01*
X128290667Y-61889973D01*
X131151651Y-59028990D01*
X132279796Y-59028990D01*
X132277828Y-59030305D01*
X132182305Y-59125828D01*
X132107252Y-59238152D01*
X132055555Y-59362960D01*
X132029200Y-59495455D01*
X132029200Y-59630545D01*
X132055555Y-59763040D01*
X132107252Y-59887848D01*
X132182305Y-60000172D01*
X132277828Y-60095695D01*
X132390152Y-60170748D01*
X132514960Y-60222445D01*
X132647455Y-60248800D01*
X132782545Y-60248800D01*
X132915040Y-60222445D01*
X132994449Y-60189553D01*
X133002829Y-60217179D01*
X133061310Y-60326589D01*
X133140012Y-60422488D01*
X133235911Y-60501190D01*
X133345321Y-60559671D01*
X133464038Y-60595683D01*
X133587500Y-60607843D01*
X134262500Y-60607843D01*
X134385962Y-60595683D01*
X134504679Y-60559671D01*
X134614089Y-60501190D01*
X134709988Y-60422488D01*
X134788690Y-60326589D01*
X134847171Y-60217179D01*
X134883183Y-60098462D01*
X134895343Y-59975000D01*
X134895343Y-59472974D01*
X135029657Y-59607288D01*
X135029657Y-59975000D01*
X135041817Y-60098462D01*
X135077829Y-60217179D01*
X135136310Y-60326589D01*
X135215012Y-60422488D01*
X135310911Y-60501190D01*
X135420321Y-60559671D01*
X135539038Y-60595683D01*
X135662500Y-60607843D01*
X136337500Y-60607843D01*
X136460962Y-60595683D01*
X136579679Y-60559671D01*
X136689089Y-60501190D01*
X136784988Y-60422488D01*
X136863690Y-60326589D01*
X136922171Y-60217179D01*
X136958183Y-60098462D01*
X136967093Y-60008000D01*
X137067157Y-60008000D01*
X137067157Y-60700000D01*
X137074513Y-60774689D01*
X137096299Y-60846508D01*
X137131678Y-60912696D01*
X137179289Y-60970711D01*
X137237304Y-61018322D01*
X137303492Y-61053701D01*
X137375311Y-61075487D01*
X137450000Y-61082843D01*
X138950000Y-61082843D01*
X139024689Y-61075487D01*
X139096508Y-61053701D01*
X139162696Y-61018322D01*
X139188715Y-60996969D01*
X139219463Y-61054494D01*
X139298815Y-61151185D01*
X139395506Y-61230537D01*
X139505820Y-61289502D01*
X139625518Y-61325812D01*
X139750000Y-61338072D01*
X140214250Y-61335000D01*
X140373000Y-61176250D01*
X140373000Y-59827000D01*
X140353000Y-59827000D01*
X140353000Y-59573000D01*
X140373000Y-59573000D01*
X140373000Y-58223750D01*
X140214250Y-58065000D01*
X139750000Y-58061928D01*
X139625518Y-58074188D01*
X139505820Y-58110498D01*
X139395506Y-58169463D01*
X139298815Y-58248815D01*
X139219463Y-58345506D01*
X139188715Y-58403031D01*
X139162696Y-58381678D01*
X139096508Y-58346299D01*
X139024689Y-58324513D01*
X138950000Y-58317157D01*
X138872992Y-58317157D01*
X138872992Y-52947390D01*
X141066392Y-50753990D01*
X143767157Y-50753990D01*
X143767157Y-52250000D01*
G04 #@! TA.AperFunction,Conductor*
D26*
G36*
X143767157Y-52250000D02*
G01*
X143779317Y-52373462D01*
X143815329Y-52492179D01*
X143873810Y-52601589D01*
X143952512Y-52697488D01*
X144048411Y-52776190D01*
X144157821Y-52834671D01*
X144276538Y-52870683D01*
X144333001Y-52876244D01*
X144333000Y-59562425D01*
X144344026Y-59674377D01*
X144387598Y-59818014D01*
X144412157Y-59863961D01*
X144412157Y-60234527D01*
X143932843Y-59755213D01*
X143932843Y-58700000D01*
X143925487Y-58625311D01*
X143903701Y-58553492D01*
X143868322Y-58487304D01*
X143820711Y-58429289D01*
X143762696Y-58381678D01*
X143696508Y-58346299D01*
X143624689Y-58324513D01*
X143550000Y-58317157D01*
X142050000Y-58317157D01*
X141975311Y-58324513D01*
X141903492Y-58346299D01*
X141837304Y-58381678D01*
X141811285Y-58403031D01*
X141780537Y-58345506D01*
X141701185Y-58248815D01*
X141604494Y-58169463D01*
X141494180Y-58110498D01*
X141374482Y-58074188D01*
X141250000Y-58061928D01*
X140785750Y-58065000D01*
X140627000Y-58223750D01*
X140627000Y-59573000D01*
X140647000Y-59573000D01*
X140647000Y-59827000D01*
X140627000Y-59827000D01*
X140627000Y-61176250D01*
X140785750Y-61335000D01*
X141250000Y-61338072D01*
X141374482Y-61325812D01*
X141494180Y-61289502D01*
X141604494Y-61230537D01*
X141701185Y-61151185D01*
X141780537Y-61054494D01*
X141811285Y-60996969D01*
X141837304Y-61018322D01*
X141903492Y-61053701D01*
X141975311Y-61075487D01*
X142038001Y-61081661D01*
X142038001Y-61146368D01*
X140446370Y-62738000D01*
X134055332Y-62738000D01*
X134028491Y-62687784D01*
X133874660Y-62500340D01*
X133687215Y-62346509D01*
X133473362Y-62232202D01*
X133241317Y-62161812D01*
X133000000Y-62138044D01*
X132758682Y-62161812D01*
X132526637Y-62232202D01*
X132312784Y-62346509D01*
X132125340Y-62500340D01*
X131971509Y-62687785D01*
X131857202Y-62901638D01*
X131786812Y-63133683D01*
X131769000Y-63314529D01*
X131769000Y-63685472D01*
X131786812Y-63866318D01*
X131857202Y-64098363D01*
X131971509Y-64312216D01*
X132125341Y-64499660D01*
X132312785Y-64653491D01*
X132526638Y-64767798D01*
X132758683Y-64838188D01*
X132946010Y-64856638D01*
X132946011Y-70263812D01*
X132785750Y-70265000D01*
X132627000Y-70423750D01*
X132627000Y-71373000D01*
X132647000Y-71373000D01*
X132647000Y-71627000D01*
X132627000Y-71627000D01*
X132627000Y-71647000D01*
X132373000Y-71647000D01*
X132373000Y-71627000D01*
X131323750Y-71627000D01*
X131165000Y-71785750D01*
X131161928Y-72100000D01*
X131174188Y-72224482D01*
X131210498Y-72344180D01*
X131269463Y-72454494D01*
X131348815Y-72551185D01*
X131445506Y-72630537D01*
X131555820Y-72689502D01*
X131601754Y-72703436D01*
X131523810Y-72798411D01*
X131465329Y-72907821D01*
X131429317Y-73026538D01*
X131417157Y-73149999D01*
X131417157Y-73850001D01*
X131429317Y-73973462D01*
X131465329Y-74092179D01*
X131523810Y-74201589D01*
X131602512Y-74297488D01*
X131698411Y-74376190D01*
X131807821Y-74434671D01*
X131926538Y-74470683D01*
X131948306Y-74472827D01*
X131928305Y-74492828D01*
X131853252Y-74605152D01*
X131801555Y-74729960D01*
X131775200Y-74862455D01*
X131775200Y-74997545D01*
X131801555Y-75130040D01*
X131853252Y-75254848D01*
X131928305Y-75367172D01*
X132023828Y-75462695D01*
X132136152Y-75537748D01*
X132260960Y-75589445D01*
X132393455Y-75615800D01*
X132528545Y-75615800D01*
X132661040Y-75589445D01*
X132785848Y-75537748D01*
X132898172Y-75462695D01*
X132946011Y-75414856D01*
X132946011Y-75546874D01*
X131228522Y-77264364D01*
X131213188Y-77108682D01*
X131142798Y-76876637D01*
X131028491Y-76662784D01*
X130874660Y-76475340D01*
X130687215Y-76321509D01*
X130473362Y-76207202D01*
X130241317Y-76136812D01*
X130000000Y-76113044D01*
X129758682Y-76136812D01*
X129724739Y-76147108D01*
X127403990Y-73826360D01*
X127403990Y-70900000D01*
X131161928Y-70900000D01*
X131165000Y-71214250D01*
X131323750Y-71373000D01*
X132373000Y-71373000D01*
X132373000Y-70423750D01*
X132214250Y-70265000D01*
X131800000Y-70261928D01*
X131675518Y-70274188D01*
X131555820Y-70310498D01*
X131445506Y-70369463D01*
X131348815Y-70448815D01*
X131269463Y-70545506D01*
X131210498Y-70655820D01*
X131174188Y-70775518D01*
X131161928Y-70900000D01*
X127403990Y-70900000D01*
X127403990Y-65111689D01*
X127714250Y-65110000D01*
X127873000Y-64951250D01*
X127873000Y-63627000D01*
X127853000Y-63627000D01*
X127853000Y-63373000D01*
X127873000Y-63373000D01*
X127873000Y-63353000D01*
X128127000Y-63353000D01*
X128127000Y-63373000D01*
X128147000Y-63373000D01*
X128147000Y-63627000D01*
X128127000Y-63627000D01*
X128127000Y-64951250D01*
X128285750Y-65110000D01*
X128850000Y-65113072D01*
X128974482Y-65100812D01*
X129094180Y-65064502D01*
X129204494Y-65005537D01*
X129301185Y-64926185D01*
X129380537Y-64829494D01*
X129439502Y-64719180D01*
X129475812Y-64599482D01*
X129488072Y-64475000D01*
X129487433Y-64331619D01*
X129625341Y-64499660D01*
X129812785Y-64653491D01*
X130026638Y-64767798D01*
X130258683Y-64838188D01*
X130500000Y-64861956D01*
X130741318Y-64838188D01*
X130973363Y-64767798D01*
X131187216Y-64653491D01*
X131374660Y-64499660D01*
X131528491Y-64312215D01*
X131642798Y-64098362D01*
X131713188Y-63866317D01*
X131731000Y-63685471D01*
X131731000Y-63314528D01*
X131713188Y-63133682D01*
X131642798Y-62901637D01*
X131528491Y-62687784D01*
X131374660Y-62500340D01*
X131187215Y-62346509D01*
X130973362Y-62232202D01*
X130741317Y-62161812D01*
X130500000Y-62138044D01*
X130258682Y-62161812D01*
X130026637Y-62232202D01*
X129812784Y-62346509D01*
X129625340Y-62500340D01*
X129487433Y-62668381D01*
X129488072Y-62525000D01*
X129475812Y-62400518D01*
X129439502Y-62280820D01*
X129380537Y-62170506D01*
X129301185Y-62073815D01*
X129204494Y-61994463D01*
X129094180Y-61935498D01*
X128974482Y-61899188D01*
X128850000Y-61886928D01*
X128290667Y-61889973D01*
X131151651Y-59028990D01*
X132279796Y-59028990D01*
X132277828Y-59030305D01*
X132182305Y-59125828D01*
X132107252Y-59238152D01*
X132055555Y-59362960D01*
X132029200Y-59495455D01*
X132029200Y-59630545D01*
X132055555Y-59763040D01*
X132107252Y-59887848D01*
X132182305Y-60000172D01*
X132277828Y-60095695D01*
X132390152Y-60170748D01*
X132514960Y-60222445D01*
X132647455Y-60248800D01*
X132782545Y-60248800D01*
X132915040Y-60222445D01*
X132994449Y-60189553D01*
X133002829Y-60217179D01*
X133061310Y-60326589D01*
X133140012Y-60422488D01*
X133235911Y-60501190D01*
X133345321Y-60559671D01*
X133464038Y-60595683D01*
X133587500Y-60607843D01*
X134262500Y-60607843D01*
X134385962Y-60595683D01*
X134504679Y-60559671D01*
X134614089Y-60501190D01*
X134709988Y-60422488D01*
X134788690Y-60326589D01*
X134847171Y-60217179D01*
X134883183Y-60098462D01*
X134895343Y-59975000D01*
X134895343Y-59472974D01*
X135029657Y-59607288D01*
X135029657Y-59975000D01*
X135041817Y-60098462D01*
X135077829Y-60217179D01*
X135136310Y-60326589D01*
X135215012Y-60422488D01*
X135310911Y-60501190D01*
X135420321Y-60559671D01*
X135539038Y-60595683D01*
X135662500Y-60607843D01*
X136337500Y-60607843D01*
X136460962Y-60595683D01*
X136579679Y-60559671D01*
X136689089Y-60501190D01*
X136784988Y-60422488D01*
X136863690Y-60326589D01*
X136922171Y-60217179D01*
X136958183Y-60098462D01*
X136967093Y-60008000D01*
X137067157Y-60008000D01*
X137067157Y-60700000D01*
X137074513Y-60774689D01*
X137096299Y-60846508D01*
X137131678Y-60912696D01*
X137179289Y-60970711D01*
X137237304Y-61018322D01*
X137303492Y-61053701D01*
X137375311Y-61075487D01*
X137450000Y-61082843D01*
X138950000Y-61082843D01*
X139024689Y-61075487D01*
X139096508Y-61053701D01*
X139162696Y-61018322D01*
X139188715Y-60996969D01*
X139219463Y-61054494D01*
X139298815Y-61151185D01*
X139395506Y-61230537D01*
X139505820Y-61289502D01*
X139625518Y-61325812D01*
X139750000Y-61338072D01*
X140214250Y-61335000D01*
X140373000Y-61176250D01*
X140373000Y-59827000D01*
X140353000Y-59827000D01*
X140353000Y-59573000D01*
X140373000Y-59573000D01*
X140373000Y-58223750D01*
X140214250Y-58065000D01*
X139750000Y-58061928D01*
X139625518Y-58074188D01*
X139505820Y-58110498D01*
X139395506Y-58169463D01*
X139298815Y-58248815D01*
X139219463Y-58345506D01*
X139188715Y-58403031D01*
X139162696Y-58381678D01*
X139096508Y-58346299D01*
X139024689Y-58324513D01*
X138950000Y-58317157D01*
X138872992Y-58317157D01*
X138872992Y-52947390D01*
X141066392Y-50753990D01*
X143767157Y-50753990D01*
X143767157Y-52250000D01*
G37*
G04 #@! TD.AperFunction*
D23*
X144534720Y-62512351D02*
X144558578Y-62541422D01*
X144674608Y-62636645D01*
X144806985Y-62707402D01*
X144851472Y-62720897D01*
X144582649Y-62989721D01*
X144553579Y-63013578D01*
X144529722Y-63042648D01*
X144529721Y-63042649D01*
X144458355Y-63129608D01*
X144387599Y-63261985D01*
X144344027Y-63405622D01*
X144329314Y-63555000D01*
X144333001Y-63592433D01*
X144333000Y-64512425D01*
X144344026Y-64624377D01*
X144387598Y-64768014D01*
X144412157Y-64813961D01*
X144412157Y-65300000D01*
X144422395Y-65403953D01*
X144452717Y-65503910D01*
X144501957Y-65596032D01*
X144568223Y-65676777D01*
X144587000Y-65692187D01*
X144587001Y-67269046D01*
X144584543Y-67294000D01*
X144594352Y-67393584D01*
X144623400Y-67489343D01*
X144670571Y-67577595D01*
X144709917Y-67625538D01*
X144734053Y-67654948D01*
X144753430Y-67670850D01*
X144773580Y-67691000D01*
X137909420Y-67691000D01*
X137218420Y-67000000D01*
X137961928Y-67000000D01*
X137974188Y-67124482D01*
X138010498Y-67244180D01*
X138069463Y-67354494D01*
X138148815Y-67451185D01*
X138245506Y-67530537D01*
X138355820Y-67589502D01*
X138475518Y-67625812D01*
X138600000Y-67638072D01*
X140214250Y-67635000D01*
X140373000Y-67476250D01*
X140373000Y-66127000D01*
X140627000Y-66127000D01*
X140627000Y-67476250D01*
X140785750Y-67635000D01*
X142400000Y-67638072D01*
X142524482Y-67625812D01*
X142644180Y-67589502D01*
X142754494Y-67530537D01*
X142851185Y-67451185D01*
X142930537Y-67354494D01*
X142989502Y-67244180D01*
X143025812Y-67124482D01*
X143038072Y-67000000D01*
X143035000Y-66285750D01*
X142876250Y-66127000D01*
X140627000Y-66127000D01*
X140373000Y-66127000D01*
X138123750Y-66127000D01*
X137965000Y-66285750D01*
X137961928Y-67000000D01*
X137218420Y-67000000D01*
X135218420Y-65000000D01*
X137961928Y-65000000D01*
X137965000Y-65714250D01*
X138123750Y-65873000D01*
X140373000Y-65873000D01*
X140373000Y-64523750D01*
X140627000Y-64523750D01*
X140627000Y-65873000D01*
X142876250Y-65873000D01*
X143035000Y-65714250D01*
X143038072Y-65000000D01*
X143025812Y-64875518D01*
X142989502Y-64755820D01*
X142930537Y-64645506D01*
X142851185Y-64548815D01*
X142754494Y-64469463D01*
X142644180Y-64410498D01*
X142524482Y-64374188D01*
X142400000Y-64361928D01*
X140785750Y-64365000D01*
X140627000Y-64523750D01*
X140373000Y-64523750D01*
X140214250Y-64365000D01*
X138600000Y-64361928D01*
X138475518Y-64374188D01*
X138355820Y-64410498D01*
X138245506Y-64469463D01*
X138148815Y-64548815D01*
X138069463Y-64645506D01*
X138010498Y-64755820D01*
X137974188Y-64875518D01*
X137961928Y-65000000D01*
X135218420Y-65000000D01*
X134480420Y-64262000D01*
X140724577Y-64262000D01*
X140762000Y-64265686D01*
X140799423Y-64262000D01*
X140799426Y-64262000D01*
X140911378Y-64250974D01*
X141055015Y-64207402D01*
X141187392Y-64136645D01*
X141303422Y-64041422D01*
X141327284Y-64012346D01*
X143312352Y-62027279D01*
X143341422Y-62003422D01*
X143436645Y-61887392D01*
X143507402Y-61755015D01*
X143550974Y-61611378D01*
X143558395Y-61536026D01*
X144534720Y-62512351D01*
G04 #@! TA.AperFunction,Conductor*
D26*
G36*
X144534720Y-62512351D02*
G01*
X144558578Y-62541422D01*
X144674608Y-62636645D01*
X144806985Y-62707402D01*
X144851472Y-62720897D01*
X144582649Y-62989721D01*
X144553579Y-63013578D01*
X144529722Y-63042648D01*
X144529721Y-63042649D01*
X144458355Y-63129608D01*
X144387599Y-63261985D01*
X144344027Y-63405622D01*
X144329314Y-63555000D01*
X144333001Y-63592433D01*
X144333000Y-64512425D01*
X144344026Y-64624377D01*
X144387598Y-64768014D01*
X144412157Y-64813961D01*
X144412157Y-65300000D01*
X144422395Y-65403953D01*
X144452717Y-65503910D01*
X144501957Y-65596032D01*
X144568223Y-65676777D01*
X144587000Y-65692187D01*
X144587001Y-67269046D01*
X144584543Y-67294000D01*
X144594352Y-67393584D01*
X144623400Y-67489343D01*
X144670571Y-67577595D01*
X144709917Y-67625538D01*
X144734053Y-67654948D01*
X144753430Y-67670850D01*
X144773580Y-67691000D01*
X137909420Y-67691000D01*
X137218420Y-67000000D01*
X137961928Y-67000000D01*
X137974188Y-67124482D01*
X138010498Y-67244180D01*
X138069463Y-67354494D01*
X138148815Y-67451185D01*
X138245506Y-67530537D01*
X138355820Y-67589502D01*
X138475518Y-67625812D01*
X138600000Y-67638072D01*
X140214250Y-67635000D01*
X140373000Y-67476250D01*
X140373000Y-66127000D01*
X140627000Y-66127000D01*
X140627000Y-67476250D01*
X140785750Y-67635000D01*
X142400000Y-67638072D01*
X142524482Y-67625812D01*
X142644180Y-67589502D01*
X142754494Y-67530537D01*
X142851185Y-67451185D01*
X142930537Y-67354494D01*
X142989502Y-67244180D01*
X143025812Y-67124482D01*
X143038072Y-67000000D01*
X143035000Y-66285750D01*
X142876250Y-66127000D01*
X140627000Y-66127000D01*
X140373000Y-66127000D01*
X138123750Y-66127000D01*
X137965000Y-66285750D01*
X137961928Y-67000000D01*
X137218420Y-67000000D01*
X135218420Y-65000000D01*
X137961928Y-65000000D01*
X137965000Y-65714250D01*
X138123750Y-65873000D01*
X140373000Y-65873000D01*
X140373000Y-64523750D01*
X140627000Y-64523750D01*
X140627000Y-65873000D01*
X142876250Y-65873000D01*
X143035000Y-65714250D01*
X143038072Y-65000000D01*
X143025812Y-64875518D01*
X142989502Y-64755820D01*
X142930537Y-64645506D01*
X142851185Y-64548815D01*
X142754494Y-64469463D01*
X142644180Y-64410498D01*
X142524482Y-64374188D01*
X142400000Y-64361928D01*
X140785750Y-64365000D01*
X140627000Y-64523750D01*
X140373000Y-64523750D01*
X140214250Y-64365000D01*
X138600000Y-64361928D01*
X138475518Y-64374188D01*
X138355820Y-64410498D01*
X138245506Y-64469463D01*
X138148815Y-64548815D01*
X138069463Y-64645506D01*
X138010498Y-64755820D01*
X137974188Y-64875518D01*
X137961928Y-65000000D01*
X135218420Y-65000000D01*
X134480420Y-64262000D01*
X140724577Y-64262000D01*
X140762000Y-64265686D01*
X140799423Y-64262000D01*
X140799426Y-64262000D01*
X140911378Y-64250974D01*
X141055015Y-64207402D01*
X141187392Y-64136645D01*
X141303422Y-64041422D01*
X141327284Y-64012346D01*
X143312352Y-62027279D01*
X143341422Y-62003422D01*
X143436645Y-61887392D01*
X143507402Y-61755015D01*
X143550974Y-61611378D01*
X143558395Y-61536026D01*
X144534720Y-62512351D01*
G37*
G04 #@! TD.AperFunction*
M02*
