M48
; DRILL file {KiCad (5.1.9)-1} date 06/06/21 22:43:17
; FORMAT={-:-/ absolute / metric / decimal}
; #@! TF.CreationDate,2021-06-06T22:43:17-05:00
; #@! TF.GenerationSoftware,Kicad,Pcbnew,(5.1.9)-1
; #@! TF.FileFunction,Plated,1,2,PTH
FMAT,2
METRIC
T1C0.200
T2C0.305
T3C0.750
T4C0.800
T5C0.950
T6C1.000
T7C1.016
T8C1.300
T9C2.500
%
G90
G05
T1
X146.0Y-61.35
X146.0Y-62.65
X147.0Y-61.35
X147.0Y-62.65
X148.0Y-61.35
X148.0Y-62.65
T2
X91.694Y-71.501
X132.334Y-70.104
X132.461Y-74.93
X132.715Y-59.563
X140.462Y-62.103
X140.462Y-64.643
X145.364Y-70.612
X145.923Y-66.929
X145.923Y-73.025
X146.431Y-58.039
X147.955Y-76.327
X149.606Y-67.056
X149.733Y-64.516
X150.495Y-70.104
X151.384Y-67.056
X151.765Y-75.438
X153.416Y-52.832
T3
X148.0Y-79.0
X150.0Y-79.0
X152.0Y-79.0
X154.0Y-79.0
X156.0Y-79.0
T4
X114.0Y-70.5
X114.0Y-77.0
T5
X128.0Y-63.5
X130.5Y-63.5
X133.0Y-63.5
X136.5Y-70.5
X136.5Y-77.5
X139.0Y-70.5
X139.0Y-77.5
X141.5Y-70.5
X141.5Y-77.5
X148.0Y-73.0
X150.5Y-73.0
X153.0Y-73.0
X155.5Y-73.0
T6
X91.5Y-50.5
X91.5Y-58.0
X127.5Y-77.5
X130.0Y-77.5
X145.0Y-51.5
X147.5Y-51.5
T7
X161.26Y-52.0
X161.26Y-54.54
X161.26Y-57.08
X161.26Y-59.62
X161.26Y-62.16
X161.26Y-64.7
X161.26Y-67.24
X161.26Y-69.78
X161.26Y-72.32
X161.26Y-74.86
X161.26Y-77.4
X161.26Y-79.94
X176.5Y-52.0
X176.5Y-54.54
X176.5Y-57.08
X176.5Y-59.62
X176.5Y-62.16
X176.5Y-64.7
X176.5Y-67.24
X176.5Y-69.78
X176.5Y-72.32
X176.5Y-74.86
X176.5Y-77.4
X176.5Y-79.94
T8
X108.0Y-58.0
X111.5Y-50.5
T9
X116.5Y-51.0
X121.5Y-51.0
T0
M30
