G04 #@! TF.GenerationSoftware,KiCad,Pcbnew,(5.1.9)-1*
G04 #@! TF.CreationDate,2021-06-06T22:42:38-05:00*
G04 #@! TF.ProjectId,BoilerBot,426f696c-6572-4426-9f74-2e6b69636164,rev?*
G04 #@! TF.SameCoordinates,Original*
G04 #@! TF.FileFunction,Copper,L2,Bot*
G04 #@! TF.FilePolarity,Positive*
%FSLAX46Y46*%
G04 Gerber Fmt 4.6, Leading zero omitted, Abs format (unit mm)*
G04 Created by KiCad (PCBNEW (5.1.9)-1) date 2021-06-06 22:42:38*
%MOMM*%
%LPD*%
G01*
G04 APERTURE LIST*
G04 #@! TA.AperFunction,ComponentPad*
%ADD10O,1.700000X2.000000*%
G04 #@! TD*
G04 #@! TA.AperFunction,ComponentPad*
%ADD11C,2.500000*%
G04 #@! TD*
G04 #@! TA.AperFunction,ComponentPad*
%ADD12C,1.600000*%
G04 #@! TD*
G04 #@! TA.AperFunction,SMDPad,CuDef*
%ADD13R,2.500000X1.800000*%
G04 #@! TD*
G04 #@! TA.AperFunction,ComponentPad*
%ADD14C,0.500000*%
G04 #@! TD*
G04 #@! TA.AperFunction,ComponentPad*
%ADD15O,1.700000X1.950000*%
G04 #@! TD*
G04 #@! TA.AperFunction,ComponentPad*
%ADD16O,1.200000X1.750000*%
G04 #@! TD*
G04 #@! TA.AperFunction,ComponentPad*
%ADD17C,1.500000*%
G04 #@! TD*
G04 #@! TA.AperFunction,ComponentPad*
%ADD18C,1.879600*%
G04 #@! TD*
G04 #@! TA.AperFunction,ViaPad*
%ADD19C,0.609600*%
G04 #@! TD*
G04 #@! TA.AperFunction,Conductor*
%ADD20C,0.254000*%
G04 #@! TD*
G04 #@! TA.AperFunction,Conductor*
%ADD21C,2.540000*%
G04 #@! TD*
G04 #@! TA.AperFunction,Conductor*
%ADD22C,0.100000*%
G04 #@! TD*
G04 APERTURE END LIST*
G04 #@! TA.AperFunction,ComponentPad*
G36*
G01*
X114550000Y-52699999D02*
X114550000Y-49300001D01*
G75*
G02*
X114800001Y-49050000I250001J0D01*
G01*
X118199999Y-49050000D01*
G75*
G02*
X118450000Y-49300001I0J-250001D01*
G01*
X118450000Y-52699999D01*
G75*
G02*
X118199999Y-52950000I-250001J0D01*
G01*
X114800001Y-52950000D01*
G75*
G02*
X114550000Y-52699999I0J250001D01*
G01*
G37*
G04 #@! TD.AperFunction*
G04 #@! TA.AperFunction,ComponentPad*
G36*
G01*
X119550000Y-52699999D02*
X119550000Y-49300001D01*
G75*
G02*
X119800001Y-49050000I250001J0D01*
G01*
X123199999Y-49050000D01*
G75*
G02*
X123450000Y-49300001I0J-250001D01*
G01*
X123450000Y-52699999D01*
G75*
G02*
X123199999Y-52950000I-250001J0D01*
G01*
X119800001Y-52950000D01*
G75*
G02*
X119550000Y-52699999I0J250001D01*
G01*
G37*
G04 #@! TD.AperFunction*
D10*
X147500000Y-51500000D03*
G04 #@! TA.AperFunction,ComponentPad*
G36*
G01*
X144150000Y-52250000D02*
X144150000Y-50750000D01*
G75*
G02*
X144400000Y-50500000I250000J0D01*
G01*
X145600000Y-50500000D01*
G75*
G02*
X145850000Y-50750000I0J-250000D01*
G01*
X145850000Y-52250000D01*
G75*
G02*
X145600000Y-52500000I-250000J0D01*
G01*
X144400000Y-52500000D01*
G75*
G02*
X144150000Y-52250000I0J250000D01*
G01*
G37*
G04 #@! TD.AperFunction*
X130000000Y-77500000D03*
G04 #@! TA.AperFunction,ComponentPad*
G36*
G01*
X126650000Y-78250000D02*
X126650000Y-76750000D01*
G75*
G02*
X126900000Y-76500000I250000J0D01*
G01*
X128100000Y-76500000D01*
G75*
G02*
X128350000Y-76750000I0J-250000D01*
G01*
X128350000Y-78250000D01*
G75*
G02*
X128100000Y-78500000I-250000J0D01*
G01*
X126900000Y-78500000D01*
G75*
G02*
X126650000Y-78250000I0J250000D01*
G01*
G37*
G04 #@! TD.AperFunction*
D11*
X111500000Y-50500000D03*
X108000000Y-58000000D03*
D12*
X91500000Y-50500000D03*
X91500000Y-58000000D03*
D13*
X147000000Y-62000000D03*
D14*
X148000000Y-61350000D03*
X148000000Y-62650000D03*
X147000000Y-61350000D03*
X147000000Y-62650000D03*
X146000000Y-61350000D03*
X146000000Y-62650000D03*
D15*
X141500000Y-70500000D03*
X139000000Y-70500000D03*
G04 #@! TA.AperFunction,ComponentPad*
G36*
G01*
X135650000Y-71225000D02*
X135650000Y-69775000D01*
G75*
G02*
X135900000Y-69525000I250000J0D01*
G01*
X137100000Y-69525000D01*
G75*
G02*
X137350000Y-69775000I0J-250000D01*
G01*
X137350000Y-71225000D01*
G75*
G02*
X137100000Y-71475000I-250000J0D01*
G01*
X135900000Y-71475000D01*
G75*
G02*
X135650000Y-71225000I0J250000D01*
G01*
G37*
G04 #@! TD.AperFunction*
X148000000Y-73000000D03*
X150500000Y-73000000D03*
X153000000Y-73000000D03*
G04 #@! TA.AperFunction,ComponentPad*
G36*
G01*
X156350000Y-72275000D02*
X156350000Y-73725000D01*
G75*
G02*
X156100000Y-73975000I-250000J0D01*
G01*
X154900000Y-73975000D01*
G75*
G02*
X154650000Y-73725000I0J250000D01*
G01*
X154650000Y-72275000D01*
G75*
G02*
X154900000Y-72025000I250000J0D01*
G01*
X156100000Y-72025000D01*
G75*
G02*
X156350000Y-72275000I0J-250000D01*
G01*
G37*
G04 #@! TD.AperFunction*
X141500000Y-77500000D03*
X139000000Y-77500000D03*
G04 #@! TA.AperFunction,ComponentPad*
G36*
G01*
X135650000Y-78225000D02*
X135650000Y-76775000D01*
G75*
G02*
X135900000Y-76525000I250000J0D01*
G01*
X137100000Y-76525000D01*
G75*
G02*
X137350000Y-76775000I0J-250000D01*
G01*
X137350000Y-78225000D01*
G75*
G02*
X137100000Y-78475000I-250000J0D01*
G01*
X135900000Y-78475000D01*
G75*
G02*
X135650000Y-78225000I0J250000D01*
G01*
G37*
G04 #@! TD.AperFunction*
X133000000Y-63500000D03*
X130500000Y-63500000D03*
G04 #@! TA.AperFunction,ComponentPad*
G36*
G01*
X127150000Y-64225000D02*
X127150000Y-62775000D01*
G75*
G02*
X127400000Y-62525000I250000J0D01*
G01*
X128600000Y-62525000D01*
G75*
G02*
X128850000Y-62775000I0J-250000D01*
G01*
X128850000Y-64225000D01*
G75*
G02*
X128600000Y-64475000I-250000J0D01*
G01*
X127400000Y-64475000D01*
G75*
G02*
X127150000Y-64225000I0J250000D01*
G01*
G37*
G04 #@! TD.AperFunction*
D16*
X148000000Y-79000000D03*
X150000000Y-79000000D03*
X152000000Y-79000000D03*
X154000000Y-79000000D03*
G04 #@! TA.AperFunction,ComponentPad*
G36*
G01*
X156600000Y-78374999D02*
X156600000Y-79625001D01*
G75*
G02*
X156350001Y-79875000I-249999J0D01*
G01*
X155649999Y-79875000D01*
G75*
G02*
X155400000Y-79625001I0J249999D01*
G01*
X155400000Y-78374999D01*
G75*
G02*
X155649999Y-78125000I249999J0D01*
G01*
X156350001Y-78125000D01*
G75*
G02*
X156600000Y-78374999I0J-249999D01*
G01*
G37*
G04 #@! TD.AperFunction*
D17*
X114000000Y-77000000D03*
X114000000Y-70500000D03*
D18*
X176500000Y-52000000D03*
X176500000Y-54540000D03*
X176500000Y-57080000D03*
X176500000Y-59620000D03*
X176500000Y-62160000D03*
X176500000Y-64700000D03*
X176500000Y-67240000D03*
X176500000Y-69780000D03*
X176500000Y-72320000D03*
X176500000Y-74860000D03*
X176500000Y-77400000D03*
X176500000Y-79940000D03*
X161260000Y-79940000D03*
X161260000Y-77400000D03*
X161260000Y-74860000D03*
X161260000Y-72320000D03*
X161260000Y-69780000D03*
X161260000Y-67240000D03*
X161260000Y-64700000D03*
X161260000Y-62160000D03*
X161260000Y-59620000D03*
X161260000Y-57080000D03*
X161260000Y-54540000D03*
X161260000Y-52000000D03*
D19*
X147955000Y-76327000D03*
X151384000Y-67056000D03*
X150495000Y-70104000D03*
X132334000Y-70104000D03*
X140462000Y-62103000D03*
X140462000Y-64643000D03*
X132461000Y-74930000D03*
X145364200Y-70612000D03*
X91694000Y-71501000D03*
X132715000Y-59563000D03*
X145923000Y-66929000D03*
X145923000Y-73025000D03*
X151765000Y-75438000D03*
X149733000Y-64516000D03*
X149606000Y-67056000D03*
X146431000Y-58039000D03*
X153416000Y-52832000D03*
D20*
X148000000Y-76372000D02*
X147955000Y-76327000D01*
X148000000Y-79000000D02*
X148000000Y-76372000D01*
X150495000Y-67945000D02*
X150495000Y-70104000D01*
X151384000Y-67056000D02*
X150495000Y-67945000D01*
X132730000Y-70500000D02*
X136500000Y-70500000D01*
X132334000Y-70104000D02*
X132730000Y-70500000D01*
X140462000Y-62103000D02*
X140462000Y-64643000D01*
X161260000Y-75427780D02*
X161260000Y-74860000D01*
X156558770Y-80129010D02*
X161260000Y-75427780D01*
X151129010Y-80129010D02*
X156558770Y-80129010D01*
X150000000Y-79000000D02*
X151129010Y-80129010D01*
X160689980Y-80510020D02*
X161260000Y-79940000D01*
X142010020Y-80510020D02*
X160689980Y-80510020D01*
X139000000Y-77500000D02*
X142010020Y-80510020D01*
X137770990Y-78729010D02*
X139000000Y-77500000D01*
X135691230Y-78729010D02*
X137770990Y-78729010D01*
X132461000Y-75498780D02*
X135691230Y-78729010D01*
X132461000Y-74930000D02*
X132461000Y-75498780D01*
X139481210Y-64729010D02*
X145364200Y-70612000D01*
X131729010Y-64729010D02*
X139481210Y-64729010D01*
X130500000Y-63500000D02*
X131729010Y-64729010D01*
X160066199Y-65893801D02*
X161260000Y-64700000D01*
X160066199Y-70471581D02*
X160066199Y-65893801D01*
X156308770Y-74229010D02*
X160066199Y-70471581D01*
X151729010Y-74229010D02*
X156308770Y-74229010D01*
X150500000Y-73000000D02*
X151729010Y-74229010D01*
X153000000Y-70420000D02*
X161260000Y-62160000D01*
X153000000Y-73000000D02*
X153000000Y-70420000D01*
X145923000Y-66929000D02*
X145923000Y-73025000D01*
X152438000Y-75438000D02*
X151765000Y-75438000D01*
X156000000Y-79000000D02*
X152438000Y-75438000D01*
X149395990Y-72417705D02*
X154249695Y-67564000D01*
X149395990Y-74395990D02*
X149395990Y-72417705D01*
X154000000Y-79000000D02*
X149395990Y-74395990D01*
X160066199Y-55733801D02*
X161260000Y-54540000D01*
X160066199Y-57230801D02*
X160066199Y-55733801D01*
X154249695Y-63047305D02*
X160066199Y-57230801D01*
X154249695Y-67564000D02*
X154249695Y-63047305D01*
X146895990Y-66364010D02*
X161260000Y-52000000D01*
X146895990Y-73895990D02*
X146895990Y-66364010D01*
X152000000Y-79000000D02*
X146895990Y-73895990D01*
D21*
X121500000Y-52950000D02*
X121500000Y-51000000D01*
X116450000Y-58000000D02*
X121500000Y-52950000D01*
X108000000Y-58000000D02*
X116450000Y-58000000D01*
X116000000Y-50500000D02*
X116500000Y-51000000D01*
X111500000Y-50500000D02*
X116000000Y-50500000D01*
D20*
X149733000Y-66929000D02*
X149606000Y-67056000D01*
X149733000Y-64516000D02*
X149733000Y-66929000D01*
X151638000Y-52832000D02*
X153416000Y-52832000D01*
X146431000Y-58039000D02*
X151638000Y-52832000D01*
X177606300Y-51278317D02*
X177525933Y-51158039D01*
X177341961Y-50974067D01*
X177125634Y-50829522D01*
X176885263Y-50729957D01*
X176630087Y-50679200D01*
X176369913Y-50679200D01*
X176114737Y-50729957D01*
X175874366Y-50829522D01*
X175658039Y-50974067D01*
X175474067Y-51158039D01*
X175329522Y-51374366D01*
X175229957Y-51614737D01*
X175179200Y-51869913D01*
X175179200Y-52130087D01*
X175229957Y-52385263D01*
X175329522Y-52625634D01*
X175474067Y-52841961D01*
X175658039Y-53025933D01*
X175874366Y-53170478D01*
X176114633Y-53270000D01*
X175874366Y-53369522D01*
X175658039Y-53514067D01*
X175474067Y-53698039D01*
X175329522Y-53914366D01*
X175229957Y-54154737D01*
X175179200Y-54409913D01*
X175179200Y-54670087D01*
X175229957Y-54925263D01*
X175329522Y-55165634D01*
X175474067Y-55381961D01*
X175658039Y-55565933D01*
X175874366Y-55710478D01*
X176114633Y-55810000D01*
X175874366Y-55909522D01*
X175658039Y-56054067D01*
X175474067Y-56238039D01*
X175329522Y-56454366D01*
X175229957Y-56694737D01*
X175179200Y-56949913D01*
X175179200Y-57210087D01*
X175229957Y-57465263D01*
X175329522Y-57705634D01*
X175474067Y-57921961D01*
X175658039Y-58105933D01*
X175874366Y-58250478D01*
X176114633Y-58350000D01*
X175874366Y-58449522D01*
X175658039Y-58594067D01*
X175474067Y-58778039D01*
X175329522Y-58994366D01*
X175229957Y-59234737D01*
X175179200Y-59489913D01*
X175179200Y-59750087D01*
X175229957Y-60005263D01*
X175329522Y-60245634D01*
X175474067Y-60461961D01*
X175658039Y-60645933D01*
X175874366Y-60790478D01*
X176114633Y-60890000D01*
X175874366Y-60989522D01*
X175658039Y-61134067D01*
X175474067Y-61318039D01*
X175329522Y-61534366D01*
X175229957Y-61774737D01*
X175179200Y-62029913D01*
X175179200Y-62290087D01*
X175229957Y-62545263D01*
X175329522Y-62785634D01*
X175474067Y-63001961D01*
X175658039Y-63185933D01*
X175874366Y-63330478D01*
X176114633Y-63430000D01*
X175874366Y-63529522D01*
X175658039Y-63674067D01*
X175474067Y-63858039D01*
X175329522Y-64074366D01*
X175229957Y-64314737D01*
X175179200Y-64569913D01*
X175179200Y-64830087D01*
X175229957Y-65085263D01*
X175329522Y-65325634D01*
X175474067Y-65541961D01*
X175658039Y-65725933D01*
X175874366Y-65870478D01*
X176114633Y-65970000D01*
X175874366Y-66069522D01*
X175658039Y-66214067D01*
X175474067Y-66398039D01*
X175329522Y-66614366D01*
X175229957Y-66854737D01*
X175179200Y-67109913D01*
X175179200Y-67370087D01*
X175229957Y-67625263D01*
X175329522Y-67865634D01*
X175474067Y-68081961D01*
X175658039Y-68265933D01*
X175874366Y-68410478D01*
X176114633Y-68510000D01*
X175874366Y-68609522D01*
X175658039Y-68754067D01*
X175474067Y-68938039D01*
X175329522Y-69154366D01*
X175229957Y-69394737D01*
X175179200Y-69649913D01*
X175179200Y-69910087D01*
X175229957Y-70165263D01*
X175329522Y-70405634D01*
X175474067Y-70621961D01*
X175658039Y-70805933D01*
X175874366Y-70950478D01*
X176114633Y-71050000D01*
X175874366Y-71149522D01*
X175658039Y-71294067D01*
X175474067Y-71478039D01*
X175329522Y-71694366D01*
X175229957Y-71934737D01*
X175179200Y-72189913D01*
X175179200Y-72450087D01*
X175229957Y-72705263D01*
X175329522Y-72945634D01*
X175474067Y-73161961D01*
X175658039Y-73345933D01*
X175874366Y-73490478D01*
X176114633Y-73590000D01*
X175874366Y-73689522D01*
X175658039Y-73834067D01*
X175474067Y-74018039D01*
X175329522Y-74234366D01*
X175229957Y-74474737D01*
X175179200Y-74729913D01*
X175179200Y-74990087D01*
X175229957Y-75245263D01*
X175329522Y-75485634D01*
X175474067Y-75701961D01*
X175658039Y-75885933D01*
X175874366Y-76030478D01*
X176114633Y-76130000D01*
X175874366Y-76229522D01*
X175658039Y-76374067D01*
X175474067Y-76558039D01*
X175329522Y-76774366D01*
X175229957Y-77014737D01*
X175179200Y-77269913D01*
X175179200Y-77530087D01*
X175229957Y-77785263D01*
X175329522Y-78025634D01*
X175474067Y-78241961D01*
X175658039Y-78425933D01*
X175874366Y-78570478D01*
X176114633Y-78670000D01*
X175874366Y-78769522D01*
X175658039Y-78914067D01*
X175474067Y-79098039D01*
X175329522Y-79314366D01*
X175229957Y-79554737D01*
X175179200Y-79809913D01*
X175179200Y-80070087D01*
X175229957Y-80325263D01*
X175329522Y-80565634D01*
X175474067Y-80781961D01*
X175658039Y-80965933D01*
X175874366Y-81110478D01*
X176114737Y-81210043D01*
X176369913Y-81260800D01*
X176630087Y-81260800D01*
X176885263Y-81210043D01*
X177125634Y-81110478D01*
X177341961Y-80965933D01*
X177525933Y-80781961D01*
X177606301Y-80661682D01*
X177606301Y-81606300D01*
X78393700Y-81606300D01*
X78393700Y-78268317D01*
X81647682Y-78268317D01*
X81647682Y-78731683D01*
X81738080Y-79186146D01*
X81915403Y-79614240D01*
X82172835Y-79999515D01*
X82500485Y-80327165D01*
X82885760Y-80584597D01*
X83313854Y-80761920D01*
X83768317Y-80852318D01*
X84231683Y-80852318D01*
X84686146Y-80761920D01*
X85114240Y-80584597D01*
X85499515Y-80327165D01*
X85827165Y-79999515D01*
X86084597Y-79614240D01*
X86261920Y-79186146D01*
X86352318Y-78731683D01*
X86352318Y-78500000D01*
X126011928Y-78500000D01*
X126024188Y-78624482D01*
X126060498Y-78744180D01*
X126119463Y-78854494D01*
X126198815Y-78951185D01*
X126295506Y-79030537D01*
X126405820Y-79089502D01*
X126525518Y-79125812D01*
X126650000Y-79138072D01*
X127214250Y-79135000D01*
X127373000Y-78976250D01*
X127373000Y-77627000D01*
X126173750Y-77627000D01*
X126015000Y-77785750D01*
X126011928Y-78500000D01*
X86352318Y-78500000D01*
X86352318Y-78268317D01*
X86261920Y-77813854D01*
X86084597Y-77385760D01*
X85827165Y-77000485D01*
X85715286Y-76888606D01*
X112869000Y-76888606D01*
X112869000Y-77111394D01*
X112912464Y-77329900D01*
X112997721Y-77535729D01*
X113121495Y-77720970D01*
X113279030Y-77878505D01*
X113464271Y-78002279D01*
X113670100Y-78087536D01*
X113888606Y-78131000D01*
X114111394Y-78131000D01*
X114329900Y-78087536D01*
X114535729Y-78002279D01*
X114720970Y-77878505D01*
X114878505Y-77720970D01*
X115002279Y-77535729D01*
X115087536Y-77329900D01*
X115131000Y-77111394D01*
X115131000Y-76888606D01*
X115087536Y-76670100D01*
X115017079Y-76500000D01*
X126011928Y-76500000D01*
X126015000Y-77214250D01*
X126173750Y-77373000D01*
X127373000Y-77373000D01*
X127373000Y-76023750D01*
X127627000Y-76023750D01*
X127627000Y-77373000D01*
X127647000Y-77373000D01*
X127647000Y-77627000D01*
X127627000Y-77627000D01*
X127627000Y-78976250D01*
X127785750Y-79135000D01*
X128350000Y-79138072D01*
X128474482Y-79125812D01*
X128594180Y-79089502D01*
X128704494Y-79030537D01*
X128801185Y-78951185D01*
X128880537Y-78854494D01*
X128939502Y-78744180D01*
X128975812Y-78624482D01*
X128988072Y-78500000D01*
X128987455Y-78356646D01*
X129125341Y-78524660D01*
X129312785Y-78678491D01*
X129526638Y-78792798D01*
X129758683Y-78863188D01*
X130000000Y-78886956D01*
X130241318Y-78863188D01*
X130473363Y-78792798D01*
X130687216Y-78678491D01*
X130874660Y-78524660D01*
X131028491Y-78337215D01*
X131142798Y-78123362D01*
X131213188Y-77891317D01*
X131231000Y-77710471D01*
X131231000Y-77289528D01*
X131213188Y-77108682D01*
X131142798Y-76876637D01*
X131028491Y-76662784D01*
X130874660Y-76475340D01*
X130687215Y-76321509D01*
X130473362Y-76207202D01*
X130241317Y-76136812D01*
X130000000Y-76113044D01*
X129758682Y-76136812D01*
X129526637Y-76207202D01*
X129312784Y-76321509D01*
X129125340Y-76475340D01*
X128987455Y-76643354D01*
X128988072Y-76500000D01*
X128975812Y-76375518D01*
X128939502Y-76255820D01*
X128880537Y-76145506D01*
X128801185Y-76048815D01*
X128704494Y-75969463D01*
X128594180Y-75910498D01*
X128474482Y-75874188D01*
X128350000Y-75861928D01*
X127785750Y-75865000D01*
X127627000Y-76023750D01*
X127373000Y-76023750D01*
X127214250Y-75865000D01*
X126650000Y-75861928D01*
X126525518Y-75874188D01*
X126405820Y-75910498D01*
X126295506Y-75969463D01*
X126198815Y-76048815D01*
X126119463Y-76145506D01*
X126060498Y-76255820D01*
X126024188Y-76375518D01*
X126011928Y-76500000D01*
X115017079Y-76500000D01*
X115002279Y-76464271D01*
X114878505Y-76279030D01*
X114720970Y-76121495D01*
X114535729Y-75997721D01*
X114329900Y-75912464D01*
X114111394Y-75869000D01*
X113888606Y-75869000D01*
X113670100Y-75912464D01*
X113464271Y-75997721D01*
X113279030Y-76121495D01*
X113121495Y-76279030D01*
X112997721Y-76464271D01*
X112912464Y-76670100D01*
X112869000Y-76888606D01*
X85715286Y-76888606D01*
X85499515Y-76672835D01*
X85114240Y-76415403D01*
X84686146Y-76238080D01*
X84231683Y-76147682D01*
X83768317Y-76147682D01*
X83313854Y-76238080D01*
X82885760Y-76415403D01*
X82500485Y-76672835D01*
X82172835Y-77000485D01*
X81915403Y-77385760D01*
X81738080Y-77813854D01*
X81647682Y-78268317D01*
X78393700Y-78268317D01*
X78393700Y-74862455D01*
X131775200Y-74862455D01*
X131775200Y-74997545D01*
X131801555Y-75130040D01*
X131853252Y-75254848D01*
X131928305Y-75367172D01*
X131953001Y-75391868D01*
X131953001Y-75473826D01*
X131950543Y-75498780D01*
X131959473Y-75589445D01*
X131960352Y-75598365D01*
X131967863Y-75623125D01*
X131989400Y-75694123D01*
X132036571Y-75782375D01*
X132072662Y-75826352D01*
X132100053Y-75859728D01*
X132119430Y-75875630D01*
X135314380Y-79070581D01*
X135330282Y-79089958D01*
X135349659Y-79105860D01*
X135407634Y-79153439D01*
X135454806Y-79178653D01*
X135495887Y-79200611D01*
X135591645Y-79229659D01*
X135666283Y-79237010D01*
X135666285Y-79237010D01*
X135691229Y-79239467D01*
X135716173Y-79237010D01*
X137746046Y-79237010D01*
X137770990Y-79239467D01*
X137795934Y-79237010D01*
X137795937Y-79237010D01*
X137870575Y-79229659D01*
X137966333Y-79200611D01*
X138054585Y-79153439D01*
X138131938Y-79089958D01*
X138147845Y-79070575D01*
X138477100Y-78741320D01*
X138526638Y-78767798D01*
X138758683Y-78838188D01*
X139000000Y-78861956D01*
X139241318Y-78838188D01*
X139473363Y-78767798D01*
X139522900Y-78741320D01*
X141633170Y-80851591D01*
X141649072Y-80870968D01*
X141668449Y-80886870D01*
X141726424Y-80934449D01*
X141773596Y-80959663D01*
X141814677Y-80981621D01*
X141910435Y-81010669D01*
X141985073Y-81018020D01*
X141985075Y-81018020D01*
X142010019Y-81020477D01*
X142034963Y-81018020D01*
X160495993Y-81018020D01*
X160634366Y-81110478D01*
X160874737Y-81210043D01*
X161129913Y-81260800D01*
X161390087Y-81260800D01*
X161645263Y-81210043D01*
X161885634Y-81110478D01*
X162101961Y-80965933D01*
X162285933Y-80781961D01*
X162430478Y-80565634D01*
X162530043Y-80325263D01*
X162580800Y-80070087D01*
X162580800Y-79809913D01*
X162530043Y-79554737D01*
X162430478Y-79314366D01*
X162285933Y-79098039D01*
X162101961Y-78914067D01*
X161885634Y-78769522D01*
X161645367Y-78670000D01*
X161885634Y-78570478D01*
X162101961Y-78425933D01*
X162259577Y-78268317D01*
X166647682Y-78268317D01*
X166647682Y-78731683D01*
X166738080Y-79186146D01*
X166915403Y-79614240D01*
X167172835Y-79999515D01*
X167500485Y-80327165D01*
X167885760Y-80584597D01*
X168313854Y-80761920D01*
X168768317Y-80852318D01*
X169231683Y-80852318D01*
X169686146Y-80761920D01*
X170114240Y-80584597D01*
X170499515Y-80327165D01*
X170827165Y-79999515D01*
X171084597Y-79614240D01*
X171261920Y-79186146D01*
X171352318Y-78731683D01*
X171352318Y-78268317D01*
X171261920Y-77813854D01*
X171084597Y-77385760D01*
X170827165Y-77000485D01*
X170499515Y-76672835D01*
X170114240Y-76415403D01*
X169686146Y-76238080D01*
X169231683Y-76147682D01*
X168768317Y-76147682D01*
X168313854Y-76238080D01*
X167885760Y-76415403D01*
X167500485Y-76672835D01*
X167172835Y-77000485D01*
X166915403Y-77385760D01*
X166738080Y-77813854D01*
X166647682Y-78268317D01*
X162259577Y-78268317D01*
X162285933Y-78241961D01*
X162430478Y-78025634D01*
X162530043Y-77785263D01*
X162580800Y-77530087D01*
X162580800Y-77269913D01*
X162530043Y-77014737D01*
X162430478Y-76774366D01*
X162285933Y-76558039D01*
X162101961Y-76374067D01*
X161885634Y-76229522D01*
X161645367Y-76130000D01*
X161885634Y-76030478D01*
X162101961Y-75885933D01*
X162285933Y-75701961D01*
X162430478Y-75485634D01*
X162530043Y-75245263D01*
X162580800Y-74990087D01*
X162580800Y-74729913D01*
X162530043Y-74474737D01*
X162430478Y-74234366D01*
X162285933Y-74018039D01*
X162101961Y-73834067D01*
X161885634Y-73689522D01*
X161645367Y-73590000D01*
X161885634Y-73490478D01*
X162101961Y-73345933D01*
X162285933Y-73161961D01*
X162430478Y-72945634D01*
X162530043Y-72705263D01*
X162580800Y-72450087D01*
X162580800Y-72189913D01*
X162530043Y-71934737D01*
X162430478Y-71694366D01*
X162285933Y-71478039D01*
X162101961Y-71294067D01*
X161885634Y-71149522D01*
X161645367Y-71050000D01*
X161885634Y-70950478D01*
X162101961Y-70805933D01*
X162285933Y-70621961D01*
X162430478Y-70405634D01*
X162530043Y-70165263D01*
X162580800Y-69910087D01*
X162580800Y-69649913D01*
X162530043Y-69394737D01*
X162430478Y-69154366D01*
X162285933Y-68938039D01*
X162101961Y-68754067D01*
X161885634Y-68609522D01*
X161645367Y-68510000D01*
X161885634Y-68410478D01*
X162101961Y-68265933D01*
X162285933Y-68081961D01*
X162430478Y-67865634D01*
X162530043Y-67625263D01*
X162580800Y-67370087D01*
X162580800Y-67109913D01*
X162530043Y-66854737D01*
X162430478Y-66614366D01*
X162285933Y-66398039D01*
X162101961Y-66214067D01*
X161885634Y-66069522D01*
X161645367Y-65970000D01*
X161885634Y-65870478D01*
X162101961Y-65725933D01*
X162285933Y-65541961D01*
X162430478Y-65325634D01*
X162530043Y-65085263D01*
X162580800Y-64830087D01*
X162580800Y-64569913D01*
X162530043Y-64314737D01*
X162430478Y-64074366D01*
X162285933Y-63858039D01*
X162101961Y-63674067D01*
X161885634Y-63529522D01*
X161645367Y-63430000D01*
X161885634Y-63330478D01*
X162101961Y-63185933D01*
X162285933Y-63001961D01*
X162430478Y-62785634D01*
X162530043Y-62545263D01*
X162580800Y-62290087D01*
X162580800Y-62029913D01*
X162530043Y-61774737D01*
X162430478Y-61534366D01*
X162285933Y-61318039D01*
X162101961Y-61134067D01*
X161958330Y-61038096D01*
X162084377Y-60970723D01*
X162172871Y-60712476D01*
X161260000Y-59799605D01*
X160347129Y-60712476D01*
X160435623Y-60970723D01*
X160567332Y-61034313D01*
X160418039Y-61134067D01*
X160234067Y-61318039D01*
X160089522Y-61534366D01*
X159989957Y-61774737D01*
X159939200Y-62029913D01*
X159939200Y-62290087D01*
X159989957Y-62545263D01*
X160038682Y-62662897D01*
X152658430Y-70043150D01*
X152639053Y-70059052D01*
X152623151Y-70078429D01*
X152623150Y-70078430D01*
X152575571Y-70136405D01*
X152556789Y-70171545D01*
X152528400Y-70224657D01*
X152504133Y-70304656D01*
X152499352Y-70320416D01*
X152489543Y-70420000D01*
X152492001Y-70444954D01*
X152492000Y-71750716D01*
X152312785Y-71846509D01*
X152125341Y-72000340D01*
X151971509Y-72187784D01*
X151857202Y-72401637D01*
X151786812Y-72633682D01*
X151769000Y-72814528D01*
X151769000Y-73185471D01*
X151786812Y-73366317D01*
X151857202Y-73598362D01*
X151903616Y-73685196D01*
X151683292Y-73464872D01*
X151713188Y-73366318D01*
X151731000Y-73185472D01*
X151731000Y-72814529D01*
X151713188Y-72633683D01*
X151642798Y-72401638D01*
X151528491Y-72187785D01*
X151374660Y-72000340D01*
X151187216Y-71846509D01*
X150973363Y-71732202D01*
X150840283Y-71691833D01*
X154591266Y-67940850D01*
X154610643Y-67924948D01*
X154629319Y-67902190D01*
X154674124Y-67847596D01*
X154721295Y-67759345D01*
X154721296Y-67759342D01*
X154750344Y-67663585D01*
X154757695Y-67588947D01*
X154757695Y-67588945D01*
X154760152Y-67564001D01*
X154757695Y-67539057D01*
X154757695Y-63257725D01*
X158330443Y-59684977D01*
X159678916Y-59684977D01*
X159721973Y-59992184D01*
X159824135Y-60285086D01*
X159909277Y-60444377D01*
X160167524Y-60532871D01*
X161080395Y-59620000D01*
X161439605Y-59620000D01*
X162352476Y-60532871D01*
X162610723Y-60444377D01*
X162745597Y-60165024D01*
X162823381Y-59864725D01*
X162841084Y-59555023D01*
X162798027Y-59247816D01*
X162695865Y-58954914D01*
X162610723Y-58795623D01*
X162352476Y-58707129D01*
X161439605Y-59620000D01*
X161080395Y-59620000D01*
X160167524Y-58707129D01*
X159909277Y-58795623D01*
X159774403Y-59074976D01*
X159696619Y-59375275D01*
X159678916Y-59684977D01*
X158330443Y-59684977D01*
X160177747Y-57837673D01*
X160234067Y-57921961D01*
X160418039Y-58105933D01*
X160561670Y-58201904D01*
X160435623Y-58269277D01*
X160347129Y-58527524D01*
X161260000Y-59440395D01*
X162172871Y-58527524D01*
X162084377Y-58269277D01*
X161952668Y-58205687D01*
X162101961Y-58105933D01*
X162285933Y-57921961D01*
X162430478Y-57705634D01*
X162530043Y-57465263D01*
X162580800Y-57210087D01*
X162580800Y-56949913D01*
X162530043Y-56694737D01*
X162430478Y-56454366D01*
X162285933Y-56238039D01*
X162101961Y-56054067D01*
X161885634Y-55909522D01*
X161645367Y-55810000D01*
X161885634Y-55710478D01*
X162101961Y-55565933D01*
X162285933Y-55381961D01*
X162430478Y-55165634D01*
X162530043Y-54925263D01*
X162580800Y-54670087D01*
X162580800Y-54409913D01*
X162530043Y-54154737D01*
X162430478Y-53914366D01*
X162285933Y-53698039D01*
X162101961Y-53514067D01*
X161885634Y-53369522D01*
X161645367Y-53270000D01*
X161885634Y-53170478D01*
X162101961Y-53025933D01*
X162285933Y-52841961D01*
X162430478Y-52625634D01*
X162530043Y-52385263D01*
X162580800Y-52130087D01*
X162580800Y-51869913D01*
X162530043Y-51614737D01*
X162430478Y-51374366D01*
X162359619Y-51268317D01*
X166647682Y-51268317D01*
X166647682Y-51731683D01*
X166738080Y-52186146D01*
X166915403Y-52614240D01*
X167172835Y-52999515D01*
X167500485Y-53327165D01*
X167885760Y-53584597D01*
X168313854Y-53761920D01*
X168768317Y-53852318D01*
X169231683Y-53852318D01*
X169686146Y-53761920D01*
X170114240Y-53584597D01*
X170499515Y-53327165D01*
X170827165Y-52999515D01*
X171084597Y-52614240D01*
X171261920Y-52186146D01*
X171352318Y-51731683D01*
X171352318Y-51268317D01*
X171261920Y-50813854D01*
X171084597Y-50385760D01*
X170827165Y-50000485D01*
X170499515Y-49672835D01*
X170114240Y-49415403D01*
X169686146Y-49238080D01*
X169231683Y-49147682D01*
X168768317Y-49147682D01*
X168313854Y-49238080D01*
X167885760Y-49415403D01*
X167500485Y-49672835D01*
X167172835Y-50000485D01*
X166915403Y-50385760D01*
X166738080Y-50813854D01*
X166647682Y-51268317D01*
X162359619Y-51268317D01*
X162285933Y-51158039D01*
X162101961Y-50974067D01*
X161885634Y-50829522D01*
X161645263Y-50729957D01*
X161390087Y-50679200D01*
X161129913Y-50679200D01*
X160874737Y-50729957D01*
X160634366Y-50829522D01*
X160418039Y-50974067D01*
X160234067Y-51158039D01*
X160089522Y-51374366D01*
X159989957Y-51614737D01*
X159939200Y-51869913D01*
X159939200Y-52130087D01*
X159989957Y-52385263D01*
X160038683Y-52502897D01*
X146554420Y-65987160D01*
X146535043Y-66003062D01*
X146519141Y-66022439D01*
X146519140Y-66022440D01*
X146471561Y-66080415D01*
X146424390Y-66168667D01*
X146398278Y-66254748D01*
X146395342Y-66264426D01*
X146385533Y-66364010D01*
X146387991Y-66388964D01*
X146387990Y-73871046D01*
X146385533Y-73895990D01*
X146387990Y-73920934D01*
X146387990Y-73920936D01*
X146395341Y-73995574D01*
X146424389Y-74091332D01*
X146471561Y-74179585D01*
X146535042Y-74256938D01*
X146554425Y-74272845D01*
X147922780Y-75641200D01*
X147887455Y-75641200D01*
X147754960Y-75667555D01*
X147630152Y-75719252D01*
X147517828Y-75794305D01*
X147422305Y-75889828D01*
X147347252Y-76002152D01*
X147295555Y-76126960D01*
X147269200Y-76259455D01*
X147269200Y-76394545D01*
X147295555Y-76527040D01*
X147347252Y-76651848D01*
X147422305Y-76764172D01*
X147492001Y-76833868D01*
X147492000Y-77884188D01*
X147452350Y-77905382D01*
X147302973Y-78027972D01*
X147180383Y-78177349D01*
X147089289Y-78347771D01*
X147033195Y-78532690D01*
X147019000Y-78676813D01*
X147019000Y-79323186D01*
X147033195Y-79467309D01*
X147089289Y-79652228D01*
X147180382Y-79822651D01*
X147302972Y-79972028D01*
X147339518Y-80002020D01*
X142220441Y-80002020D01*
X141235918Y-79017498D01*
X141373000Y-78945155D01*
X141373000Y-77627000D01*
X141627000Y-77627000D01*
X141627000Y-78945155D01*
X141856890Y-79066476D01*
X142119858Y-78974352D01*
X142371193Y-78827496D01*
X142589049Y-78634429D01*
X142765053Y-78402570D01*
X142892442Y-78140830D01*
X142966320Y-77859267D01*
X142826165Y-77627000D01*
X141627000Y-77627000D01*
X141373000Y-77627000D01*
X141353000Y-77627000D01*
X141353000Y-77373000D01*
X141373000Y-77373000D01*
X141373000Y-76054845D01*
X141627000Y-76054845D01*
X141627000Y-77373000D01*
X142826165Y-77373000D01*
X142966320Y-77140733D01*
X142892442Y-76859170D01*
X142765053Y-76597430D01*
X142589049Y-76365571D01*
X142371193Y-76172504D01*
X142119858Y-76025648D01*
X141856890Y-75933524D01*
X141627000Y-76054845D01*
X141373000Y-76054845D01*
X141143110Y-75933524D01*
X140880142Y-76025648D01*
X140628807Y-76172504D01*
X140410951Y-76365571D01*
X140234947Y-76597430D01*
X140113535Y-76846890D01*
X140028491Y-76687784D01*
X139874660Y-76500340D01*
X139687215Y-76346509D01*
X139473362Y-76232202D01*
X139241317Y-76161812D01*
X139000000Y-76138044D01*
X138758682Y-76161812D01*
X138526637Y-76232202D01*
X138312784Y-76346509D01*
X138125340Y-76500340D01*
X137971509Y-76687785D01*
X137857202Y-76901638D01*
X137786812Y-77133683D01*
X137769000Y-77314529D01*
X137769000Y-77685472D01*
X137786812Y-77866318D01*
X137816708Y-77964872D01*
X137732843Y-78048737D01*
X137732843Y-76775000D01*
X137720683Y-76651538D01*
X137684671Y-76532821D01*
X137626190Y-76423411D01*
X137547488Y-76327512D01*
X137451589Y-76248810D01*
X137342179Y-76190329D01*
X137223462Y-76154317D01*
X137100000Y-76142157D01*
X135900000Y-76142157D01*
X135776538Y-76154317D01*
X135657821Y-76190329D01*
X135548411Y-76248810D01*
X135452512Y-76327512D01*
X135373810Y-76423411D01*
X135315329Y-76532821D01*
X135279317Y-76651538D01*
X135267157Y-76775000D01*
X135267157Y-77586516D01*
X133015371Y-75334731D01*
X133068748Y-75254848D01*
X133120445Y-75130040D01*
X133146800Y-74997545D01*
X133146800Y-74862455D01*
X133120445Y-74729960D01*
X133068748Y-74605152D01*
X132993695Y-74492828D01*
X132898172Y-74397305D01*
X132785848Y-74322252D01*
X132661040Y-74270555D01*
X132528545Y-74244200D01*
X132393455Y-74244200D01*
X132260960Y-74270555D01*
X132136152Y-74322252D01*
X132023828Y-74397305D01*
X131928305Y-74492828D01*
X131853252Y-74605152D01*
X131801555Y-74729960D01*
X131775200Y-74862455D01*
X78393700Y-74862455D01*
X78393700Y-70388606D01*
X112869000Y-70388606D01*
X112869000Y-70611394D01*
X112912464Y-70829900D01*
X112997721Y-71035729D01*
X113121495Y-71220970D01*
X113279030Y-71378505D01*
X113464271Y-71502279D01*
X113670100Y-71587536D01*
X113888606Y-71631000D01*
X114111394Y-71631000D01*
X114329900Y-71587536D01*
X114535729Y-71502279D01*
X114720970Y-71378505D01*
X114878505Y-71220970D01*
X115002279Y-71035729D01*
X115087536Y-70829900D01*
X115131000Y-70611394D01*
X115131000Y-70388606D01*
X115087536Y-70170100D01*
X115032179Y-70036455D01*
X131648200Y-70036455D01*
X131648200Y-70171545D01*
X131674555Y-70304040D01*
X131726252Y-70428848D01*
X131801305Y-70541172D01*
X131896828Y-70636695D01*
X132009152Y-70711748D01*
X132133960Y-70763445D01*
X132266455Y-70789800D01*
X132301380Y-70789800D01*
X132353145Y-70841565D01*
X132369052Y-70860948D01*
X132446405Y-70924429D01*
X132534657Y-70971601D01*
X132630415Y-71000649D01*
X132705053Y-71008000D01*
X132705056Y-71008000D01*
X132730000Y-71010457D01*
X132754944Y-71008000D01*
X135267157Y-71008000D01*
X135267157Y-71225000D01*
X135279317Y-71348462D01*
X135315329Y-71467179D01*
X135373810Y-71576589D01*
X135452512Y-71672488D01*
X135548411Y-71751190D01*
X135657821Y-71809671D01*
X135776538Y-71845683D01*
X135900000Y-71857843D01*
X137100000Y-71857843D01*
X137223462Y-71845683D01*
X137342179Y-71809671D01*
X137451589Y-71751190D01*
X137547488Y-71672488D01*
X137626190Y-71576589D01*
X137684671Y-71467179D01*
X137720683Y-71348462D01*
X137732843Y-71225000D01*
X137732843Y-70314529D01*
X137769000Y-70314529D01*
X137769000Y-70685472D01*
X137786812Y-70866318D01*
X137857202Y-71098363D01*
X137971509Y-71312216D01*
X138125341Y-71499660D01*
X138312785Y-71653491D01*
X138526638Y-71767798D01*
X138758683Y-71838188D01*
X139000000Y-71861956D01*
X139241318Y-71838188D01*
X139473363Y-71767798D01*
X139687216Y-71653491D01*
X139874660Y-71499660D01*
X140028491Y-71312215D01*
X140113535Y-71153110D01*
X140234947Y-71402570D01*
X140410951Y-71634429D01*
X140628807Y-71827496D01*
X140880142Y-71974352D01*
X141143110Y-72066476D01*
X141373000Y-71945155D01*
X141373000Y-70627000D01*
X141627000Y-70627000D01*
X141627000Y-71945155D01*
X141856890Y-72066476D01*
X142119858Y-71974352D01*
X142371193Y-71827496D01*
X142589049Y-71634429D01*
X142765053Y-71402570D01*
X142892442Y-71140830D01*
X142966320Y-70859267D01*
X142826165Y-70627000D01*
X141627000Y-70627000D01*
X141373000Y-70627000D01*
X141353000Y-70627000D01*
X141353000Y-70373000D01*
X141373000Y-70373000D01*
X141373000Y-69054845D01*
X141627000Y-69054845D01*
X141627000Y-70373000D01*
X142826165Y-70373000D01*
X142966320Y-70140733D01*
X142892442Y-69859170D01*
X142765053Y-69597430D01*
X142589049Y-69365571D01*
X142371193Y-69172504D01*
X142119858Y-69025648D01*
X141856890Y-68933524D01*
X141627000Y-69054845D01*
X141373000Y-69054845D01*
X141143110Y-68933524D01*
X140880142Y-69025648D01*
X140628807Y-69172504D01*
X140410951Y-69365571D01*
X140234947Y-69597430D01*
X140113535Y-69846890D01*
X140028491Y-69687784D01*
X139874660Y-69500340D01*
X139687215Y-69346509D01*
X139473362Y-69232202D01*
X139241317Y-69161812D01*
X139000000Y-69138044D01*
X138758682Y-69161812D01*
X138526637Y-69232202D01*
X138312784Y-69346509D01*
X138125340Y-69500340D01*
X137971509Y-69687785D01*
X137857202Y-69901638D01*
X137786812Y-70133683D01*
X137769000Y-70314529D01*
X137732843Y-70314529D01*
X137732843Y-69775000D01*
X137720683Y-69651538D01*
X137684671Y-69532821D01*
X137626190Y-69423411D01*
X137547488Y-69327512D01*
X137451589Y-69248810D01*
X137342179Y-69190329D01*
X137223462Y-69154317D01*
X137100000Y-69142157D01*
X135900000Y-69142157D01*
X135776538Y-69154317D01*
X135657821Y-69190329D01*
X135548411Y-69248810D01*
X135452512Y-69327512D01*
X135373810Y-69423411D01*
X135315329Y-69532821D01*
X135279317Y-69651538D01*
X135267157Y-69775000D01*
X135267157Y-69992000D01*
X133010957Y-69992000D01*
X132993445Y-69903960D01*
X132941748Y-69779152D01*
X132866695Y-69666828D01*
X132771172Y-69571305D01*
X132658848Y-69496252D01*
X132534040Y-69444555D01*
X132401545Y-69418200D01*
X132266455Y-69418200D01*
X132133960Y-69444555D01*
X132009152Y-69496252D01*
X131896828Y-69571305D01*
X131801305Y-69666828D01*
X131726252Y-69779152D01*
X131674555Y-69903960D01*
X131648200Y-70036455D01*
X115032179Y-70036455D01*
X115002279Y-69964271D01*
X114878505Y-69779030D01*
X114720970Y-69621495D01*
X114535729Y-69497721D01*
X114329900Y-69412464D01*
X114111394Y-69369000D01*
X113888606Y-69369000D01*
X113670100Y-69412464D01*
X113464271Y-69497721D01*
X113279030Y-69621495D01*
X113121495Y-69779030D01*
X112997721Y-69964271D01*
X112912464Y-70170100D01*
X112869000Y-70388606D01*
X78393700Y-70388606D01*
X78393700Y-62775000D01*
X126767157Y-62775000D01*
X126767157Y-64225000D01*
X126779317Y-64348462D01*
X126815329Y-64467179D01*
X126873810Y-64576589D01*
X126952512Y-64672488D01*
X127048411Y-64751190D01*
X127157821Y-64809671D01*
X127276538Y-64845683D01*
X127400000Y-64857843D01*
X128600000Y-64857843D01*
X128723462Y-64845683D01*
X128842179Y-64809671D01*
X128951589Y-64751190D01*
X129047488Y-64672488D01*
X129126190Y-64576589D01*
X129184671Y-64467179D01*
X129220683Y-64348462D01*
X129232843Y-64225000D01*
X129232843Y-63314529D01*
X129269000Y-63314529D01*
X129269000Y-63685472D01*
X129286812Y-63866318D01*
X129357202Y-64098363D01*
X129471509Y-64312216D01*
X129625341Y-64499660D01*
X129812785Y-64653491D01*
X130026638Y-64767798D01*
X130258683Y-64838188D01*
X130500000Y-64861956D01*
X130741318Y-64838188D01*
X130973363Y-64767798D01*
X131022900Y-64741320D01*
X131352155Y-65070575D01*
X131368062Y-65089958D01*
X131445415Y-65153439D01*
X131533667Y-65200611D01*
X131629425Y-65229659D01*
X131704063Y-65237010D01*
X131704066Y-65237010D01*
X131729010Y-65239467D01*
X131753954Y-65237010D01*
X139270790Y-65237010D01*
X144678400Y-70644621D01*
X144678400Y-70679545D01*
X144704755Y-70812040D01*
X144756452Y-70936848D01*
X144831505Y-71049172D01*
X144927028Y-71144695D01*
X145039352Y-71219748D01*
X145164160Y-71271445D01*
X145296655Y-71297800D01*
X145431745Y-71297800D01*
X145564240Y-71271445D01*
X145689048Y-71219748D01*
X145801372Y-71144695D01*
X145896895Y-71049172D01*
X145971948Y-70936848D01*
X146023645Y-70812040D01*
X146050000Y-70679545D01*
X146050000Y-70544455D01*
X146023645Y-70411960D01*
X145971948Y-70287152D01*
X145896895Y-70174828D01*
X145801372Y-70079305D01*
X145689048Y-70004252D01*
X145564240Y-69952555D01*
X145431745Y-69926200D01*
X145396821Y-69926200D01*
X140740547Y-65269927D01*
X140786848Y-65250748D01*
X140899172Y-65175695D01*
X140994695Y-65080172D01*
X141069748Y-64967848D01*
X141121445Y-64843040D01*
X141147800Y-64710545D01*
X141147800Y-64575455D01*
X141121445Y-64442960D01*
X141069748Y-64318152D01*
X140994695Y-64205828D01*
X140970000Y-64181133D01*
X140970000Y-62564867D01*
X140994695Y-62540172D01*
X141069748Y-62427848D01*
X141121445Y-62303040D01*
X141147800Y-62170545D01*
X141147800Y-62035455D01*
X141121445Y-61902960D01*
X141069748Y-61778152D01*
X140994695Y-61665828D01*
X140899172Y-61570305D01*
X140786848Y-61495252D01*
X140662040Y-61443555D01*
X140529545Y-61417200D01*
X140394455Y-61417200D01*
X140261960Y-61443555D01*
X140137152Y-61495252D01*
X140024828Y-61570305D01*
X139929305Y-61665828D01*
X139854252Y-61778152D01*
X139802555Y-61902960D01*
X139776200Y-62035455D01*
X139776200Y-62170545D01*
X139802555Y-62303040D01*
X139854252Y-62427848D01*
X139929305Y-62540172D01*
X139954000Y-62564867D01*
X139954001Y-64181132D01*
X139929305Y-64205828D01*
X139854252Y-64318152D01*
X139835755Y-64362807D01*
X139764805Y-64304581D01*
X139676553Y-64257409D01*
X139580795Y-64228361D01*
X139506157Y-64221010D01*
X139506154Y-64221010D01*
X139481210Y-64218553D01*
X139456266Y-64221010D01*
X134353418Y-64221010D01*
X134392442Y-64140830D01*
X134466320Y-63859267D01*
X134326165Y-63627000D01*
X133127000Y-63627000D01*
X133127000Y-63647000D01*
X132873000Y-63647000D01*
X132873000Y-63627000D01*
X132853000Y-63627000D01*
X132853000Y-63373000D01*
X132873000Y-63373000D01*
X132873000Y-62054845D01*
X133127000Y-62054845D01*
X133127000Y-63373000D01*
X134326165Y-63373000D01*
X134466320Y-63140733D01*
X134392442Y-62859170D01*
X134265053Y-62597430D01*
X134089049Y-62365571D01*
X133871193Y-62172504D01*
X133619858Y-62025648D01*
X133356890Y-61933524D01*
X133127000Y-62054845D01*
X132873000Y-62054845D01*
X132643110Y-61933524D01*
X132380142Y-62025648D01*
X132128807Y-62172504D01*
X131910951Y-62365571D01*
X131734947Y-62597430D01*
X131613535Y-62846890D01*
X131528491Y-62687784D01*
X131374660Y-62500340D01*
X131187215Y-62346509D01*
X130973362Y-62232202D01*
X130741317Y-62161812D01*
X130500000Y-62138044D01*
X130258682Y-62161812D01*
X130026637Y-62232202D01*
X129812784Y-62346509D01*
X129625340Y-62500340D01*
X129471509Y-62687785D01*
X129357202Y-62901638D01*
X129286812Y-63133683D01*
X129269000Y-63314529D01*
X129232843Y-63314529D01*
X129232843Y-62775000D01*
X129220683Y-62651538D01*
X129184671Y-62532821D01*
X129126190Y-62423411D01*
X129047488Y-62327512D01*
X128951589Y-62248810D01*
X128842179Y-62190329D01*
X128723462Y-62154317D01*
X128600000Y-62142157D01*
X127400000Y-62142157D01*
X127276538Y-62154317D01*
X127157821Y-62190329D01*
X127048411Y-62248810D01*
X126952512Y-62327512D01*
X126873810Y-62423411D01*
X126815329Y-62532821D01*
X126779317Y-62651538D01*
X126767157Y-62775000D01*
X78393700Y-62775000D01*
X78393700Y-61100000D01*
X145111928Y-61100000D01*
X145115000Y-61714250D01*
X145273750Y-61873000D01*
X145581658Y-61873000D01*
X145580141Y-61943807D01*
X145577784Y-61946164D01*
X145578937Y-62000000D01*
X145577784Y-62053836D01*
X145580141Y-62056193D01*
X145581658Y-62127000D01*
X145273750Y-62127000D01*
X145115000Y-62285750D01*
X145111928Y-62900000D01*
X145124188Y-63024482D01*
X145160498Y-63144180D01*
X145219463Y-63254494D01*
X145298815Y-63351185D01*
X145395506Y-63430537D01*
X145505820Y-63489502D01*
X145625518Y-63525812D01*
X145750000Y-63538072D01*
X146714250Y-63535000D01*
X146747106Y-63502144D01*
X146913998Y-63535113D01*
X147088328Y-63534884D01*
X147252711Y-63501961D01*
X147285750Y-63535000D01*
X148250000Y-63538072D01*
X148374482Y-63525812D01*
X148494180Y-63489502D01*
X148604494Y-63430537D01*
X148701185Y-63351185D01*
X148780537Y-63254494D01*
X148839502Y-63144180D01*
X148875812Y-63024482D01*
X148888072Y-62900000D01*
X148885000Y-62285750D01*
X148726250Y-62127000D01*
X148418342Y-62127000D01*
X148419859Y-62056193D01*
X148422216Y-62053836D01*
X148421063Y-62000000D01*
X148422216Y-61946164D01*
X148419859Y-61943807D01*
X148418342Y-61873000D01*
X148726250Y-61873000D01*
X148885000Y-61714250D01*
X148888072Y-61100000D01*
X148875812Y-60975518D01*
X148839502Y-60855820D01*
X148780537Y-60745506D01*
X148701185Y-60648815D01*
X148604494Y-60569463D01*
X148494180Y-60510498D01*
X148374482Y-60474188D01*
X148250000Y-60461928D01*
X147285750Y-60465000D01*
X147252894Y-60497856D01*
X147086002Y-60464887D01*
X146911672Y-60465116D01*
X146747289Y-60498039D01*
X146714250Y-60465000D01*
X145750000Y-60461928D01*
X145625518Y-60474188D01*
X145505820Y-60510498D01*
X145395506Y-60569463D01*
X145298815Y-60648815D01*
X145219463Y-60745506D01*
X145160498Y-60855820D01*
X145124188Y-60975518D01*
X145111928Y-61100000D01*
X78393700Y-61100000D01*
X78393700Y-57883682D01*
X90319000Y-57883682D01*
X90319000Y-58116318D01*
X90364386Y-58344485D01*
X90453412Y-58559413D01*
X90582658Y-58752843D01*
X90747157Y-58917342D01*
X90940587Y-59046588D01*
X91155515Y-59135614D01*
X91383682Y-59181000D01*
X91616318Y-59181000D01*
X91844485Y-59135614D01*
X92059413Y-59046588D01*
X92252843Y-58917342D01*
X92417342Y-58752843D01*
X92546588Y-58559413D01*
X92635614Y-58344485D01*
X92681000Y-58116318D01*
X92681000Y-58000000D01*
X106341012Y-58000000D01*
X106372889Y-58323653D01*
X106467295Y-58634867D01*
X106620602Y-58921684D01*
X106826918Y-59173082D01*
X107078316Y-59379398D01*
X107365133Y-59532705D01*
X107676347Y-59627111D01*
X107918896Y-59651000D01*
X116368899Y-59651000D01*
X116450000Y-59658988D01*
X116531101Y-59651000D01*
X116531104Y-59651000D01*
X116773653Y-59627111D01*
X117084867Y-59532705D01*
X117371684Y-59379398D01*
X117623082Y-59173082D01*
X117674787Y-59110079D01*
X118813411Y-57971455D01*
X145745200Y-57971455D01*
X145745200Y-58106545D01*
X145771555Y-58239040D01*
X145823252Y-58363848D01*
X145898305Y-58476172D01*
X145993828Y-58571695D01*
X146106152Y-58646748D01*
X146230960Y-58698445D01*
X146363455Y-58724800D01*
X146498545Y-58724800D01*
X146631040Y-58698445D01*
X146755848Y-58646748D01*
X146868172Y-58571695D01*
X146963695Y-58476172D01*
X147038748Y-58363848D01*
X147090445Y-58239040D01*
X147116800Y-58106545D01*
X147116800Y-58071620D01*
X151848421Y-53340000D01*
X152954133Y-53340000D01*
X152978828Y-53364695D01*
X153091152Y-53439748D01*
X153215960Y-53491445D01*
X153348455Y-53517800D01*
X153483545Y-53517800D01*
X153616040Y-53491445D01*
X153740848Y-53439748D01*
X153853172Y-53364695D01*
X153948695Y-53269172D01*
X154023748Y-53156848D01*
X154075445Y-53032040D01*
X154101800Y-52899545D01*
X154101800Y-52764455D01*
X154075445Y-52631960D01*
X154023748Y-52507152D01*
X153948695Y-52394828D01*
X153853172Y-52299305D01*
X153740848Y-52224252D01*
X153616040Y-52172555D01*
X153483545Y-52146200D01*
X153348455Y-52146200D01*
X153215960Y-52172555D01*
X153091152Y-52224252D01*
X152978828Y-52299305D01*
X152954133Y-52324000D01*
X151662943Y-52324000D01*
X151637999Y-52321543D01*
X151613055Y-52324000D01*
X151613053Y-52324000D01*
X151538415Y-52331351D01*
X151442657Y-52360399D01*
X151418218Y-52373462D01*
X151354404Y-52407571D01*
X151299810Y-52452376D01*
X151277052Y-52471052D01*
X151261150Y-52490429D01*
X146398380Y-57353200D01*
X146363455Y-57353200D01*
X146230960Y-57379555D01*
X146106152Y-57431252D01*
X145993828Y-57506305D01*
X145898305Y-57601828D01*
X145823252Y-57714152D01*
X145771555Y-57838960D01*
X145745200Y-57971455D01*
X118813411Y-57971455D01*
X122610086Y-54174781D01*
X122673082Y-54123082D01*
X122749847Y-54029543D01*
X122879398Y-53871685D01*
X123032704Y-53584868D01*
X123032705Y-53584867D01*
X123109156Y-53332843D01*
X123199999Y-53332843D01*
X123323461Y-53320683D01*
X123442178Y-53284671D01*
X123551588Y-53226190D01*
X123647487Y-53147487D01*
X123726190Y-53051588D01*
X123784671Y-52942178D01*
X123820683Y-52823461D01*
X123832843Y-52699999D01*
X123832843Y-50750000D01*
X143767157Y-50750000D01*
X143767157Y-52250000D01*
X143779317Y-52373462D01*
X143815329Y-52492179D01*
X143873810Y-52601589D01*
X143952512Y-52697488D01*
X144048411Y-52776190D01*
X144157821Y-52834671D01*
X144276538Y-52870683D01*
X144400000Y-52882843D01*
X145600000Y-52882843D01*
X145723462Y-52870683D01*
X145842179Y-52834671D01*
X145951589Y-52776190D01*
X146047488Y-52697488D01*
X146126190Y-52601589D01*
X146184671Y-52492179D01*
X146220683Y-52373462D01*
X146232843Y-52250000D01*
X146232843Y-51289529D01*
X146269000Y-51289529D01*
X146269000Y-51710472D01*
X146286812Y-51891318D01*
X146357202Y-52123363D01*
X146471510Y-52337216D01*
X146625341Y-52524660D01*
X146812785Y-52678491D01*
X147026638Y-52792798D01*
X147258683Y-52863188D01*
X147500000Y-52886956D01*
X147741318Y-52863188D01*
X147973363Y-52792798D01*
X148187216Y-52678491D01*
X148374660Y-52524660D01*
X148528491Y-52337215D01*
X148642798Y-52123362D01*
X148713188Y-51891317D01*
X148731000Y-51710471D01*
X148731000Y-51289528D01*
X148713188Y-51108682D01*
X148642798Y-50876637D01*
X148528491Y-50662784D01*
X148374660Y-50475340D01*
X148187215Y-50321509D01*
X147973362Y-50207202D01*
X147741317Y-50136812D01*
X147500000Y-50113044D01*
X147258682Y-50136812D01*
X147026637Y-50207202D01*
X146812784Y-50321509D01*
X146625340Y-50475340D01*
X146471509Y-50662785D01*
X146357202Y-50876638D01*
X146286812Y-51108683D01*
X146269000Y-51289529D01*
X146232843Y-51289529D01*
X146232843Y-50750000D01*
X146220683Y-50626538D01*
X146184671Y-50507821D01*
X146126190Y-50398411D01*
X146047488Y-50302512D01*
X145951589Y-50223810D01*
X145842179Y-50165329D01*
X145723462Y-50129317D01*
X145600000Y-50117157D01*
X144400000Y-50117157D01*
X144276538Y-50129317D01*
X144157821Y-50165329D01*
X144048411Y-50223810D01*
X143952512Y-50302512D01*
X143873810Y-50398411D01*
X143815329Y-50507821D01*
X143779317Y-50626538D01*
X143767157Y-50750000D01*
X123832843Y-50750000D01*
X123832843Y-49300001D01*
X123820683Y-49176539D01*
X123784671Y-49057822D01*
X123726190Y-48948412D01*
X123647487Y-48852513D01*
X123551588Y-48773810D01*
X123442178Y-48715329D01*
X123323461Y-48679317D01*
X123199999Y-48667157D01*
X119800001Y-48667157D01*
X119676539Y-48679317D01*
X119557822Y-48715329D01*
X119448412Y-48773810D01*
X119352513Y-48852513D01*
X119273810Y-48948412D01*
X119215329Y-49057822D01*
X119179317Y-49176539D01*
X119167157Y-49300001D01*
X119167157Y-52699999D01*
X119179317Y-52823461D01*
X119205467Y-52909666D01*
X115766134Y-56349000D01*
X107918896Y-56349000D01*
X107676347Y-56372889D01*
X107365133Y-56467295D01*
X107078316Y-56620602D01*
X106826918Y-56826918D01*
X106620602Y-57078316D01*
X106467295Y-57365133D01*
X106372889Y-57676347D01*
X106341012Y-58000000D01*
X92681000Y-58000000D01*
X92681000Y-57883682D01*
X92635614Y-57655515D01*
X92546588Y-57440587D01*
X92417342Y-57247157D01*
X92252843Y-57082658D01*
X92059413Y-56953412D01*
X91844485Y-56864386D01*
X91616318Y-56819000D01*
X91383682Y-56819000D01*
X91155515Y-56864386D01*
X90940587Y-56953412D01*
X90747157Y-57082658D01*
X90582658Y-57247157D01*
X90453412Y-57440587D01*
X90364386Y-57655515D01*
X90319000Y-57883682D01*
X78393700Y-57883682D01*
X78393700Y-51268317D01*
X81647682Y-51268317D01*
X81647682Y-51731683D01*
X81738080Y-52186146D01*
X81915403Y-52614240D01*
X82172835Y-52999515D01*
X82500485Y-53327165D01*
X82885760Y-53584597D01*
X83313854Y-53761920D01*
X83768317Y-53852318D01*
X84231683Y-53852318D01*
X84686146Y-53761920D01*
X85114240Y-53584597D01*
X85499515Y-53327165D01*
X85827165Y-52999515D01*
X86084597Y-52614240D01*
X86261920Y-52186146D01*
X86352318Y-51731683D01*
X86352318Y-51268317D01*
X86261920Y-50813854D01*
X86084597Y-50385760D01*
X86083209Y-50383682D01*
X90319000Y-50383682D01*
X90319000Y-50616318D01*
X90364386Y-50844485D01*
X90453412Y-51059413D01*
X90582658Y-51252843D01*
X90747157Y-51417342D01*
X90940587Y-51546588D01*
X91155515Y-51635614D01*
X91383682Y-51681000D01*
X91616318Y-51681000D01*
X91844485Y-51635614D01*
X92059413Y-51546588D01*
X92252843Y-51417342D01*
X92417342Y-51252843D01*
X92546588Y-51059413D01*
X92635614Y-50844485D01*
X92681000Y-50616318D01*
X92681000Y-50500000D01*
X109841012Y-50500000D01*
X109872889Y-50823653D01*
X109967295Y-51134867D01*
X110120602Y-51421684D01*
X110326918Y-51673082D01*
X110578316Y-51879398D01*
X110865133Y-52032705D01*
X111176347Y-52127111D01*
X111418896Y-52151000D01*
X114167157Y-52151000D01*
X114167157Y-52699999D01*
X114179317Y-52823461D01*
X114215329Y-52942178D01*
X114273810Y-53051588D01*
X114352513Y-53147487D01*
X114448412Y-53226190D01*
X114557822Y-53284671D01*
X114676539Y-53320683D01*
X114800001Y-53332843D01*
X118199999Y-53332843D01*
X118323461Y-53320683D01*
X118442178Y-53284671D01*
X118551588Y-53226190D01*
X118647487Y-53147487D01*
X118726190Y-53051588D01*
X118784671Y-52942178D01*
X118820683Y-52823461D01*
X118832843Y-52699999D01*
X118832843Y-49300001D01*
X118820683Y-49176539D01*
X118784671Y-49057822D01*
X118726190Y-48948412D01*
X118647487Y-48852513D01*
X118551588Y-48773810D01*
X118442178Y-48715329D01*
X118323461Y-48679317D01*
X118199999Y-48667157D01*
X114800001Y-48667157D01*
X114676539Y-48679317D01*
X114557822Y-48715329D01*
X114448412Y-48773810D01*
X114356794Y-48849000D01*
X111418896Y-48849000D01*
X111176347Y-48872889D01*
X110865133Y-48967295D01*
X110578316Y-49120602D01*
X110326918Y-49326918D01*
X110120602Y-49578316D01*
X109967295Y-49865133D01*
X109872889Y-50176347D01*
X109841012Y-50500000D01*
X92681000Y-50500000D01*
X92681000Y-50383682D01*
X92635614Y-50155515D01*
X92546588Y-49940587D01*
X92417342Y-49747157D01*
X92252843Y-49582658D01*
X92059413Y-49453412D01*
X91844485Y-49364386D01*
X91616318Y-49319000D01*
X91383682Y-49319000D01*
X91155515Y-49364386D01*
X90940587Y-49453412D01*
X90747157Y-49582658D01*
X90582658Y-49747157D01*
X90453412Y-49940587D01*
X90364386Y-50155515D01*
X90319000Y-50383682D01*
X86083209Y-50383682D01*
X85827165Y-50000485D01*
X85499515Y-49672835D01*
X85114240Y-49415403D01*
X84686146Y-49238080D01*
X84231683Y-49147682D01*
X83768317Y-49147682D01*
X83313854Y-49238080D01*
X82885760Y-49415403D01*
X82500485Y-49672835D01*
X82172835Y-50000485D01*
X81915403Y-50385760D01*
X81738080Y-50813854D01*
X81647682Y-51268317D01*
X78393700Y-51268317D01*
X78393700Y-48393700D01*
X177606300Y-48393700D01*
X177606300Y-51278317D01*
G04 #@! TA.AperFunction,Conductor*
D22*
G36*
X177606300Y-51278317D02*
G01*
X177525933Y-51158039D01*
X177341961Y-50974067D01*
X177125634Y-50829522D01*
X176885263Y-50729957D01*
X176630087Y-50679200D01*
X176369913Y-50679200D01*
X176114737Y-50729957D01*
X175874366Y-50829522D01*
X175658039Y-50974067D01*
X175474067Y-51158039D01*
X175329522Y-51374366D01*
X175229957Y-51614737D01*
X175179200Y-51869913D01*
X175179200Y-52130087D01*
X175229957Y-52385263D01*
X175329522Y-52625634D01*
X175474067Y-52841961D01*
X175658039Y-53025933D01*
X175874366Y-53170478D01*
X176114633Y-53270000D01*
X175874366Y-53369522D01*
X175658039Y-53514067D01*
X175474067Y-53698039D01*
X175329522Y-53914366D01*
X175229957Y-54154737D01*
X175179200Y-54409913D01*
X175179200Y-54670087D01*
X175229957Y-54925263D01*
X175329522Y-55165634D01*
X175474067Y-55381961D01*
X175658039Y-55565933D01*
X175874366Y-55710478D01*
X176114633Y-55810000D01*
X175874366Y-55909522D01*
X175658039Y-56054067D01*
X175474067Y-56238039D01*
X175329522Y-56454366D01*
X175229957Y-56694737D01*
X175179200Y-56949913D01*
X175179200Y-57210087D01*
X175229957Y-57465263D01*
X175329522Y-57705634D01*
X175474067Y-57921961D01*
X175658039Y-58105933D01*
X175874366Y-58250478D01*
X176114633Y-58350000D01*
X175874366Y-58449522D01*
X175658039Y-58594067D01*
X175474067Y-58778039D01*
X175329522Y-58994366D01*
X175229957Y-59234737D01*
X175179200Y-59489913D01*
X175179200Y-59750087D01*
X175229957Y-60005263D01*
X175329522Y-60245634D01*
X175474067Y-60461961D01*
X175658039Y-60645933D01*
X175874366Y-60790478D01*
X176114633Y-60890000D01*
X175874366Y-60989522D01*
X175658039Y-61134067D01*
X175474067Y-61318039D01*
X175329522Y-61534366D01*
X175229957Y-61774737D01*
X175179200Y-62029913D01*
X175179200Y-62290087D01*
X175229957Y-62545263D01*
X175329522Y-62785634D01*
X175474067Y-63001961D01*
X175658039Y-63185933D01*
X175874366Y-63330478D01*
X176114633Y-63430000D01*
X175874366Y-63529522D01*
X175658039Y-63674067D01*
X175474067Y-63858039D01*
X175329522Y-64074366D01*
X175229957Y-64314737D01*
X175179200Y-64569913D01*
X175179200Y-64830087D01*
X175229957Y-65085263D01*
X175329522Y-65325634D01*
X175474067Y-65541961D01*
X175658039Y-65725933D01*
X175874366Y-65870478D01*
X176114633Y-65970000D01*
X175874366Y-66069522D01*
X175658039Y-66214067D01*
X175474067Y-66398039D01*
X175329522Y-66614366D01*
X175229957Y-66854737D01*
X175179200Y-67109913D01*
X175179200Y-67370087D01*
X175229957Y-67625263D01*
X175329522Y-67865634D01*
X175474067Y-68081961D01*
X175658039Y-68265933D01*
X175874366Y-68410478D01*
X176114633Y-68510000D01*
X175874366Y-68609522D01*
X175658039Y-68754067D01*
X175474067Y-68938039D01*
X175329522Y-69154366D01*
X175229957Y-69394737D01*
X175179200Y-69649913D01*
X175179200Y-69910087D01*
X175229957Y-70165263D01*
X175329522Y-70405634D01*
X175474067Y-70621961D01*
X175658039Y-70805933D01*
X175874366Y-70950478D01*
X176114633Y-71050000D01*
X175874366Y-71149522D01*
X175658039Y-71294067D01*
X175474067Y-71478039D01*
X175329522Y-71694366D01*
X175229957Y-71934737D01*
X175179200Y-72189913D01*
X175179200Y-72450087D01*
X175229957Y-72705263D01*
X175329522Y-72945634D01*
X175474067Y-73161961D01*
X175658039Y-73345933D01*
X175874366Y-73490478D01*
X176114633Y-73590000D01*
X175874366Y-73689522D01*
X175658039Y-73834067D01*
X175474067Y-74018039D01*
X175329522Y-74234366D01*
X175229957Y-74474737D01*
X175179200Y-74729913D01*
X175179200Y-74990087D01*
X175229957Y-75245263D01*
X175329522Y-75485634D01*
X175474067Y-75701961D01*
X175658039Y-75885933D01*
X175874366Y-76030478D01*
X176114633Y-76130000D01*
X175874366Y-76229522D01*
X175658039Y-76374067D01*
X175474067Y-76558039D01*
X175329522Y-76774366D01*
X175229957Y-77014737D01*
X175179200Y-77269913D01*
X175179200Y-77530087D01*
X175229957Y-77785263D01*
X175329522Y-78025634D01*
X175474067Y-78241961D01*
X175658039Y-78425933D01*
X175874366Y-78570478D01*
X176114633Y-78670000D01*
X175874366Y-78769522D01*
X175658039Y-78914067D01*
X175474067Y-79098039D01*
X175329522Y-79314366D01*
X175229957Y-79554737D01*
X175179200Y-79809913D01*
X175179200Y-80070087D01*
X175229957Y-80325263D01*
X175329522Y-80565634D01*
X175474067Y-80781961D01*
X175658039Y-80965933D01*
X175874366Y-81110478D01*
X176114737Y-81210043D01*
X176369913Y-81260800D01*
X176630087Y-81260800D01*
X176885263Y-81210043D01*
X177125634Y-81110478D01*
X177341961Y-80965933D01*
X177525933Y-80781961D01*
X177606301Y-80661682D01*
X177606301Y-81606300D01*
X78393700Y-81606300D01*
X78393700Y-78268317D01*
X81647682Y-78268317D01*
X81647682Y-78731683D01*
X81738080Y-79186146D01*
X81915403Y-79614240D01*
X82172835Y-79999515D01*
X82500485Y-80327165D01*
X82885760Y-80584597D01*
X83313854Y-80761920D01*
X83768317Y-80852318D01*
X84231683Y-80852318D01*
X84686146Y-80761920D01*
X85114240Y-80584597D01*
X85499515Y-80327165D01*
X85827165Y-79999515D01*
X86084597Y-79614240D01*
X86261920Y-79186146D01*
X86352318Y-78731683D01*
X86352318Y-78500000D01*
X126011928Y-78500000D01*
X126024188Y-78624482D01*
X126060498Y-78744180D01*
X126119463Y-78854494D01*
X126198815Y-78951185D01*
X126295506Y-79030537D01*
X126405820Y-79089502D01*
X126525518Y-79125812D01*
X126650000Y-79138072D01*
X127214250Y-79135000D01*
X127373000Y-78976250D01*
X127373000Y-77627000D01*
X126173750Y-77627000D01*
X126015000Y-77785750D01*
X126011928Y-78500000D01*
X86352318Y-78500000D01*
X86352318Y-78268317D01*
X86261920Y-77813854D01*
X86084597Y-77385760D01*
X85827165Y-77000485D01*
X85715286Y-76888606D01*
X112869000Y-76888606D01*
X112869000Y-77111394D01*
X112912464Y-77329900D01*
X112997721Y-77535729D01*
X113121495Y-77720970D01*
X113279030Y-77878505D01*
X113464271Y-78002279D01*
X113670100Y-78087536D01*
X113888606Y-78131000D01*
X114111394Y-78131000D01*
X114329900Y-78087536D01*
X114535729Y-78002279D01*
X114720970Y-77878505D01*
X114878505Y-77720970D01*
X115002279Y-77535729D01*
X115087536Y-77329900D01*
X115131000Y-77111394D01*
X115131000Y-76888606D01*
X115087536Y-76670100D01*
X115017079Y-76500000D01*
X126011928Y-76500000D01*
X126015000Y-77214250D01*
X126173750Y-77373000D01*
X127373000Y-77373000D01*
X127373000Y-76023750D01*
X127627000Y-76023750D01*
X127627000Y-77373000D01*
X127647000Y-77373000D01*
X127647000Y-77627000D01*
X127627000Y-77627000D01*
X127627000Y-78976250D01*
X127785750Y-79135000D01*
X128350000Y-79138072D01*
X128474482Y-79125812D01*
X128594180Y-79089502D01*
X128704494Y-79030537D01*
X128801185Y-78951185D01*
X128880537Y-78854494D01*
X128939502Y-78744180D01*
X128975812Y-78624482D01*
X128988072Y-78500000D01*
X128987455Y-78356646D01*
X129125341Y-78524660D01*
X129312785Y-78678491D01*
X129526638Y-78792798D01*
X129758683Y-78863188D01*
X130000000Y-78886956D01*
X130241318Y-78863188D01*
X130473363Y-78792798D01*
X130687216Y-78678491D01*
X130874660Y-78524660D01*
X131028491Y-78337215D01*
X131142798Y-78123362D01*
X131213188Y-77891317D01*
X131231000Y-77710471D01*
X131231000Y-77289528D01*
X131213188Y-77108682D01*
X131142798Y-76876637D01*
X131028491Y-76662784D01*
X130874660Y-76475340D01*
X130687215Y-76321509D01*
X130473362Y-76207202D01*
X130241317Y-76136812D01*
X130000000Y-76113044D01*
X129758682Y-76136812D01*
X129526637Y-76207202D01*
X129312784Y-76321509D01*
X129125340Y-76475340D01*
X128987455Y-76643354D01*
X128988072Y-76500000D01*
X128975812Y-76375518D01*
X128939502Y-76255820D01*
X128880537Y-76145506D01*
X128801185Y-76048815D01*
X128704494Y-75969463D01*
X128594180Y-75910498D01*
X128474482Y-75874188D01*
X128350000Y-75861928D01*
X127785750Y-75865000D01*
X127627000Y-76023750D01*
X127373000Y-76023750D01*
X127214250Y-75865000D01*
X126650000Y-75861928D01*
X126525518Y-75874188D01*
X126405820Y-75910498D01*
X126295506Y-75969463D01*
X126198815Y-76048815D01*
X126119463Y-76145506D01*
X126060498Y-76255820D01*
X126024188Y-76375518D01*
X126011928Y-76500000D01*
X115017079Y-76500000D01*
X115002279Y-76464271D01*
X114878505Y-76279030D01*
X114720970Y-76121495D01*
X114535729Y-75997721D01*
X114329900Y-75912464D01*
X114111394Y-75869000D01*
X113888606Y-75869000D01*
X113670100Y-75912464D01*
X113464271Y-75997721D01*
X113279030Y-76121495D01*
X113121495Y-76279030D01*
X112997721Y-76464271D01*
X112912464Y-76670100D01*
X112869000Y-76888606D01*
X85715286Y-76888606D01*
X85499515Y-76672835D01*
X85114240Y-76415403D01*
X84686146Y-76238080D01*
X84231683Y-76147682D01*
X83768317Y-76147682D01*
X83313854Y-76238080D01*
X82885760Y-76415403D01*
X82500485Y-76672835D01*
X82172835Y-77000485D01*
X81915403Y-77385760D01*
X81738080Y-77813854D01*
X81647682Y-78268317D01*
X78393700Y-78268317D01*
X78393700Y-74862455D01*
X131775200Y-74862455D01*
X131775200Y-74997545D01*
X131801555Y-75130040D01*
X131853252Y-75254848D01*
X131928305Y-75367172D01*
X131953001Y-75391868D01*
X131953001Y-75473826D01*
X131950543Y-75498780D01*
X131959473Y-75589445D01*
X131960352Y-75598365D01*
X131967863Y-75623125D01*
X131989400Y-75694123D01*
X132036571Y-75782375D01*
X132072662Y-75826352D01*
X132100053Y-75859728D01*
X132119430Y-75875630D01*
X135314380Y-79070581D01*
X135330282Y-79089958D01*
X135349659Y-79105860D01*
X135407634Y-79153439D01*
X135454806Y-79178653D01*
X135495887Y-79200611D01*
X135591645Y-79229659D01*
X135666283Y-79237010D01*
X135666285Y-79237010D01*
X135691229Y-79239467D01*
X135716173Y-79237010D01*
X137746046Y-79237010D01*
X137770990Y-79239467D01*
X137795934Y-79237010D01*
X137795937Y-79237010D01*
X137870575Y-79229659D01*
X137966333Y-79200611D01*
X138054585Y-79153439D01*
X138131938Y-79089958D01*
X138147845Y-79070575D01*
X138477100Y-78741320D01*
X138526638Y-78767798D01*
X138758683Y-78838188D01*
X139000000Y-78861956D01*
X139241318Y-78838188D01*
X139473363Y-78767798D01*
X139522900Y-78741320D01*
X141633170Y-80851591D01*
X141649072Y-80870968D01*
X141668449Y-80886870D01*
X141726424Y-80934449D01*
X141773596Y-80959663D01*
X141814677Y-80981621D01*
X141910435Y-81010669D01*
X141985073Y-81018020D01*
X141985075Y-81018020D01*
X142010019Y-81020477D01*
X142034963Y-81018020D01*
X160495993Y-81018020D01*
X160634366Y-81110478D01*
X160874737Y-81210043D01*
X161129913Y-81260800D01*
X161390087Y-81260800D01*
X161645263Y-81210043D01*
X161885634Y-81110478D01*
X162101961Y-80965933D01*
X162285933Y-80781961D01*
X162430478Y-80565634D01*
X162530043Y-80325263D01*
X162580800Y-80070087D01*
X162580800Y-79809913D01*
X162530043Y-79554737D01*
X162430478Y-79314366D01*
X162285933Y-79098039D01*
X162101961Y-78914067D01*
X161885634Y-78769522D01*
X161645367Y-78670000D01*
X161885634Y-78570478D01*
X162101961Y-78425933D01*
X162259577Y-78268317D01*
X166647682Y-78268317D01*
X166647682Y-78731683D01*
X166738080Y-79186146D01*
X166915403Y-79614240D01*
X167172835Y-79999515D01*
X167500485Y-80327165D01*
X167885760Y-80584597D01*
X168313854Y-80761920D01*
X168768317Y-80852318D01*
X169231683Y-80852318D01*
X169686146Y-80761920D01*
X170114240Y-80584597D01*
X170499515Y-80327165D01*
X170827165Y-79999515D01*
X171084597Y-79614240D01*
X171261920Y-79186146D01*
X171352318Y-78731683D01*
X171352318Y-78268317D01*
X171261920Y-77813854D01*
X171084597Y-77385760D01*
X170827165Y-77000485D01*
X170499515Y-76672835D01*
X170114240Y-76415403D01*
X169686146Y-76238080D01*
X169231683Y-76147682D01*
X168768317Y-76147682D01*
X168313854Y-76238080D01*
X167885760Y-76415403D01*
X167500485Y-76672835D01*
X167172835Y-77000485D01*
X166915403Y-77385760D01*
X166738080Y-77813854D01*
X166647682Y-78268317D01*
X162259577Y-78268317D01*
X162285933Y-78241961D01*
X162430478Y-78025634D01*
X162530043Y-77785263D01*
X162580800Y-77530087D01*
X162580800Y-77269913D01*
X162530043Y-77014737D01*
X162430478Y-76774366D01*
X162285933Y-76558039D01*
X162101961Y-76374067D01*
X161885634Y-76229522D01*
X161645367Y-76130000D01*
X161885634Y-76030478D01*
X162101961Y-75885933D01*
X162285933Y-75701961D01*
X162430478Y-75485634D01*
X162530043Y-75245263D01*
X162580800Y-74990087D01*
X162580800Y-74729913D01*
X162530043Y-74474737D01*
X162430478Y-74234366D01*
X162285933Y-74018039D01*
X162101961Y-73834067D01*
X161885634Y-73689522D01*
X161645367Y-73590000D01*
X161885634Y-73490478D01*
X162101961Y-73345933D01*
X162285933Y-73161961D01*
X162430478Y-72945634D01*
X162530043Y-72705263D01*
X162580800Y-72450087D01*
X162580800Y-72189913D01*
X162530043Y-71934737D01*
X162430478Y-71694366D01*
X162285933Y-71478039D01*
X162101961Y-71294067D01*
X161885634Y-71149522D01*
X161645367Y-71050000D01*
X161885634Y-70950478D01*
X162101961Y-70805933D01*
X162285933Y-70621961D01*
X162430478Y-70405634D01*
X162530043Y-70165263D01*
X162580800Y-69910087D01*
X162580800Y-69649913D01*
X162530043Y-69394737D01*
X162430478Y-69154366D01*
X162285933Y-68938039D01*
X162101961Y-68754067D01*
X161885634Y-68609522D01*
X161645367Y-68510000D01*
X161885634Y-68410478D01*
X162101961Y-68265933D01*
X162285933Y-68081961D01*
X162430478Y-67865634D01*
X162530043Y-67625263D01*
X162580800Y-67370087D01*
X162580800Y-67109913D01*
X162530043Y-66854737D01*
X162430478Y-66614366D01*
X162285933Y-66398039D01*
X162101961Y-66214067D01*
X161885634Y-66069522D01*
X161645367Y-65970000D01*
X161885634Y-65870478D01*
X162101961Y-65725933D01*
X162285933Y-65541961D01*
X162430478Y-65325634D01*
X162530043Y-65085263D01*
X162580800Y-64830087D01*
X162580800Y-64569913D01*
X162530043Y-64314737D01*
X162430478Y-64074366D01*
X162285933Y-63858039D01*
X162101961Y-63674067D01*
X161885634Y-63529522D01*
X161645367Y-63430000D01*
X161885634Y-63330478D01*
X162101961Y-63185933D01*
X162285933Y-63001961D01*
X162430478Y-62785634D01*
X162530043Y-62545263D01*
X162580800Y-62290087D01*
X162580800Y-62029913D01*
X162530043Y-61774737D01*
X162430478Y-61534366D01*
X162285933Y-61318039D01*
X162101961Y-61134067D01*
X161958330Y-61038096D01*
X162084377Y-60970723D01*
X162172871Y-60712476D01*
X161260000Y-59799605D01*
X160347129Y-60712476D01*
X160435623Y-60970723D01*
X160567332Y-61034313D01*
X160418039Y-61134067D01*
X160234067Y-61318039D01*
X160089522Y-61534366D01*
X159989957Y-61774737D01*
X159939200Y-62029913D01*
X159939200Y-62290087D01*
X159989957Y-62545263D01*
X160038682Y-62662897D01*
X152658430Y-70043150D01*
X152639053Y-70059052D01*
X152623151Y-70078429D01*
X152623150Y-70078430D01*
X152575571Y-70136405D01*
X152556789Y-70171545D01*
X152528400Y-70224657D01*
X152504133Y-70304656D01*
X152499352Y-70320416D01*
X152489543Y-70420000D01*
X152492001Y-70444954D01*
X152492000Y-71750716D01*
X152312785Y-71846509D01*
X152125341Y-72000340D01*
X151971509Y-72187784D01*
X151857202Y-72401637D01*
X151786812Y-72633682D01*
X151769000Y-72814528D01*
X151769000Y-73185471D01*
X151786812Y-73366317D01*
X151857202Y-73598362D01*
X151903616Y-73685196D01*
X151683292Y-73464872D01*
X151713188Y-73366318D01*
X151731000Y-73185472D01*
X151731000Y-72814529D01*
X151713188Y-72633683D01*
X151642798Y-72401638D01*
X151528491Y-72187785D01*
X151374660Y-72000340D01*
X151187216Y-71846509D01*
X150973363Y-71732202D01*
X150840283Y-71691833D01*
X154591266Y-67940850D01*
X154610643Y-67924948D01*
X154629319Y-67902190D01*
X154674124Y-67847596D01*
X154721295Y-67759345D01*
X154721296Y-67759342D01*
X154750344Y-67663585D01*
X154757695Y-67588947D01*
X154757695Y-67588945D01*
X154760152Y-67564001D01*
X154757695Y-67539057D01*
X154757695Y-63257725D01*
X158330443Y-59684977D01*
X159678916Y-59684977D01*
X159721973Y-59992184D01*
X159824135Y-60285086D01*
X159909277Y-60444377D01*
X160167524Y-60532871D01*
X161080395Y-59620000D01*
X161439605Y-59620000D01*
X162352476Y-60532871D01*
X162610723Y-60444377D01*
X162745597Y-60165024D01*
X162823381Y-59864725D01*
X162841084Y-59555023D01*
X162798027Y-59247816D01*
X162695865Y-58954914D01*
X162610723Y-58795623D01*
X162352476Y-58707129D01*
X161439605Y-59620000D01*
X161080395Y-59620000D01*
X160167524Y-58707129D01*
X159909277Y-58795623D01*
X159774403Y-59074976D01*
X159696619Y-59375275D01*
X159678916Y-59684977D01*
X158330443Y-59684977D01*
X160177747Y-57837673D01*
X160234067Y-57921961D01*
X160418039Y-58105933D01*
X160561670Y-58201904D01*
X160435623Y-58269277D01*
X160347129Y-58527524D01*
X161260000Y-59440395D01*
X162172871Y-58527524D01*
X162084377Y-58269277D01*
X161952668Y-58205687D01*
X162101961Y-58105933D01*
X162285933Y-57921961D01*
X162430478Y-57705634D01*
X162530043Y-57465263D01*
X162580800Y-57210087D01*
X162580800Y-56949913D01*
X162530043Y-56694737D01*
X162430478Y-56454366D01*
X162285933Y-56238039D01*
X162101961Y-56054067D01*
X161885634Y-55909522D01*
X161645367Y-55810000D01*
X161885634Y-55710478D01*
X162101961Y-55565933D01*
X162285933Y-55381961D01*
X162430478Y-55165634D01*
X162530043Y-54925263D01*
X162580800Y-54670087D01*
X162580800Y-54409913D01*
X162530043Y-54154737D01*
X162430478Y-53914366D01*
X162285933Y-53698039D01*
X162101961Y-53514067D01*
X161885634Y-53369522D01*
X161645367Y-53270000D01*
X161885634Y-53170478D01*
X162101961Y-53025933D01*
X162285933Y-52841961D01*
X162430478Y-52625634D01*
X162530043Y-52385263D01*
X162580800Y-52130087D01*
X162580800Y-51869913D01*
X162530043Y-51614737D01*
X162430478Y-51374366D01*
X162359619Y-51268317D01*
X166647682Y-51268317D01*
X166647682Y-51731683D01*
X166738080Y-52186146D01*
X166915403Y-52614240D01*
X167172835Y-52999515D01*
X167500485Y-53327165D01*
X167885760Y-53584597D01*
X168313854Y-53761920D01*
X168768317Y-53852318D01*
X169231683Y-53852318D01*
X169686146Y-53761920D01*
X170114240Y-53584597D01*
X170499515Y-53327165D01*
X170827165Y-52999515D01*
X171084597Y-52614240D01*
X171261920Y-52186146D01*
X171352318Y-51731683D01*
X171352318Y-51268317D01*
X171261920Y-50813854D01*
X171084597Y-50385760D01*
X170827165Y-50000485D01*
X170499515Y-49672835D01*
X170114240Y-49415403D01*
X169686146Y-49238080D01*
X169231683Y-49147682D01*
X168768317Y-49147682D01*
X168313854Y-49238080D01*
X167885760Y-49415403D01*
X167500485Y-49672835D01*
X167172835Y-50000485D01*
X166915403Y-50385760D01*
X166738080Y-50813854D01*
X166647682Y-51268317D01*
X162359619Y-51268317D01*
X162285933Y-51158039D01*
X162101961Y-50974067D01*
X161885634Y-50829522D01*
X161645263Y-50729957D01*
X161390087Y-50679200D01*
X161129913Y-50679200D01*
X160874737Y-50729957D01*
X160634366Y-50829522D01*
X160418039Y-50974067D01*
X160234067Y-51158039D01*
X160089522Y-51374366D01*
X159989957Y-51614737D01*
X159939200Y-51869913D01*
X159939200Y-52130087D01*
X159989957Y-52385263D01*
X160038683Y-52502897D01*
X146554420Y-65987160D01*
X146535043Y-66003062D01*
X146519141Y-66022439D01*
X146519140Y-66022440D01*
X146471561Y-66080415D01*
X146424390Y-66168667D01*
X146398278Y-66254748D01*
X146395342Y-66264426D01*
X146385533Y-66364010D01*
X146387991Y-66388964D01*
X146387990Y-73871046D01*
X146385533Y-73895990D01*
X146387990Y-73920934D01*
X146387990Y-73920936D01*
X146395341Y-73995574D01*
X146424389Y-74091332D01*
X146471561Y-74179585D01*
X146535042Y-74256938D01*
X146554425Y-74272845D01*
X147922780Y-75641200D01*
X147887455Y-75641200D01*
X147754960Y-75667555D01*
X147630152Y-75719252D01*
X147517828Y-75794305D01*
X147422305Y-75889828D01*
X147347252Y-76002152D01*
X147295555Y-76126960D01*
X147269200Y-76259455D01*
X147269200Y-76394545D01*
X147295555Y-76527040D01*
X147347252Y-76651848D01*
X147422305Y-76764172D01*
X147492001Y-76833868D01*
X147492000Y-77884188D01*
X147452350Y-77905382D01*
X147302973Y-78027972D01*
X147180383Y-78177349D01*
X147089289Y-78347771D01*
X147033195Y-78532690D01*
X147019000Y-78676813D01*
X147019000Y-79323186D01*
X147033195Y-79467309D01*
X147089289Y-79652228D01*
X147180382Y-79822651D01*
X147302972Y-79972028D01*
X147339518Y-80002020D01*
X142220441Y-80002020D01*
X141235918Y-79017498D01*
X141373000Y-78945155D01*
X141373000Y-77627000D01*
X141627000Y-77627000D01*
X141627000Y-78945155D01*
X141856890Y-79066476D01*
X142119858Y-78974352D01*
X142371193Y-78827496D01*
X142589049Y-78634429D01*
X142765053Y-78402570D01*
X142892442Y-78140830D01*
X142966320Y-77859267D01*
X142826165Y-77627000D01*
X141627000Y-77627000D01*
X141373000Y-77627000D01*
X141353000Y-77627000D01*
X141353000Y-77373000D01*
X141373000Y-77373000D01*
X141373000Y-76054845D01*
X141627000Y-76054845D01*
X141627000Y-77373000D01*
X142826165Y-77373000D01*
X142966320Y-77140733D01*
X142892442Y-76859170D01*
X142765053Y-76597430D01*
X142589049Y-76365571D01*
X142371193Y-76172504D01*
X142119858Y-76025648D01*
X141856890Y-75933524D01*
X141627000Y-76054845D01*
X141373000Y-76054845D01*
X141143110Y-75933524D01*
X140880142Y-76025648D01*
X140628807Y-76172504D01*
X140410951Y-76365571D01*
X140234947Y-76597430D01*
X140113535Y-76846890D01*
X140028491Y-76687784D01*
X139874660Y-76500340D01*
X139687215Y-76346509D01*
X139473362Y-76232202D01*
X139241317Y-76161812D01*
X139000000Y-76138044D01*
X138758682Y-76161812D01*
X138526637Y-76232202D01*
X138312784Y-76346509D01*
X138125340Y-76500340D01*
X137971509Y-76687785D01*
X137857202Y-76901638D01*
X137786812Y-77133683D01*
X137769000Y-77314529D01*
X137769000Y-77685472D01*
X137786812Y-77866318D01*
X137816708Y-77964872D01*
X137732843Y-78048737D01*
X137732843Y-76775000D01*
X137720683Y-76651538D01*
X137684671Y-76532821D01*
X137626190Y-76423411D01*
X137547488Y-76327512D01*
X137451589Y-76248810D01*
X137342179Y-76190329D01*
X137223462Y-76154317D01*
X137100000Y-76142157D01*
X135900000Y-76142157D01*
X135776538Y-76154317D01*
X135657821Y-76190329D01*
X135548411Y-76248810D01*
X135452512Y-76327512D01*
X135373810Y-76423411D01*
X135315329Y-76532821D01*
X135279317Y-76651538D01*
X135267157Y-76775000D01*
X135267157Y-77586516D01*
X133015371Y-75334731D01*
X133068748Y-75254848D01*
X133120445Y-75130040D01*
X133146800Y-74997545D01*
X133146800Y-74862455D01*
X133120445Y-74729960D01*
X133068748Y-74605152D01*
X132993695Y-74492828D01*
X132898172Y-74397305D01*
X132785848Y-74322252D01*
X132661040Y-74270555D01*
X132528545Y-74244200D01*
X132393455Y-74244200D01*
X132260960Y-74270555D01*
X132136152Y-74322252D01*
X132023828Y-74397305D01*
X131928305Y-74492828D01*
X131853252Y-74605152D01*
X131801555Y-74729960D01*
X131775200Y-74862455D01*
X78393700Y-74862455D01*
X78393700Y-70388606D01*
X112869000Y-70388606D01*
X112869000Y-70611394D01*
X112912464Y-70829900D01*
X112997721Y-71035729D01*
X113121495Y-71220970D01*
X113279030Y-71378505D01*
X113464271Y-71502279D01*
X113670100Y-71587536D01*
X113888606Y-71631000D01*
X114111394Y-71631000D01*
X114329900Y-71587536D01*
X114535729Y-71502279D01*
X114720970Y-71378505D01*
X114878505Y-71220970D01*
X115002279Y-71035729D01*
X115087536Y-70829900D01*
X115131000Y-70611394D01*
X115131000Y-70388606D01*
X115087536Y-70170100D01*
X115032179Y-70036455D01*
X131648200Y-70036455D01*
X131648200Y-70171545D01*
X131674555Y-70304040D01*
X131726252Y-70428848D01*
X131801305Y-70541172D01*
X131896828Y-70636695D01*
X132009152Y-70711748D01*
X132133960Y-70763445D01*
X132266455Y-70789800D01*
X132301380Y-70789800D01*
X132353145Y-70841565D01*
X132369052Y-70860948D01*
X132446405Y-70924429D01*
X132534657Y-70971601D01*
X132630415Y-71000649D01*
X132705053Y-71008000D01*
X132705056Y-71008000D01*
X132730000Y-71010457D01*
X132754944Y-71008000D01*
X135267157Y-71008000D01*
X135267157Y-71225000D01*
X135279317Y-71348462D01*
X135315329Y-71467179D01*
X135373810Y-71576589D01*
X135452512Y-71672488D01*
X135548411Y-71751190D01*
X135657821Y-71809671D01*
X135776538Y-71845683D01*
X135900000Y-71857843D01*
X137100000Y-71857843D01*
X137223462Y-71845683D01*
X137342179Y-71809671D01*
X137451589Y-71751190D01*
X137547488Y-71672488D01*
X137626190Y-71576589D01*
X137684671Y-71467179D01*
X137720683Y-71348462D01*
X137732843Y-71225000D01*
X137732843Y-70314529D01*
X137769000Y-70314529D01*
X137769000Y-70685472D01*
X137786812Y-70866318D01*
X137857202Y-71098363D01*
X137971509Y-71312216D01*
X138125341Y-71499660D01*
X138312785Y-71653491D01*
X138526638Y-71767798D01*
X138758683Y-71838188D01*
X139000000Y-71861956D01*
X139241318Y-71838188D01*
X139473363Y-71767798D01*
X139687216Y-71653491D01*
X139874660Y-71499660D01*
X140028491Y-71312215D01*
X140113535Y-71153110D01*
X140234947Y-71402570D01*
X140410951Y-71634429D01*
X140628807Y-71827496D01*
X140880142Y-71974352D01*
X141143110Y-72066476D01*
X141373000Y-71945155D01*
X141373000Y-70627000D01*
X141627000Y-70627000D01*
X141627000Y-71945155D01*
X141856890Y-72066476D01*
X142119858Y-71974352D01*
X142371193Y-71827496D01*
X142589049Y-71634429D01*
X142765053Y-71402570D01*
X142892442Y-71140830D01*
X142966320Y-70859267D01*
X142826165Y-70627000D01*
X141627000Y-70627000D01*
X141373000Y-70627000D01*
X141353000Y-70627000D01*
X141353000Y-70373000D01*
X141373000Y-70373000D01*
X141373000Y-69054845D01*
X141627000Y-69054845D01*
X141627000Y-70373000D01*
X142826165Y-70373000D01*
X142966320Y-70140733D01*
X142892442Y-69859170D01*
X142765053Y-69597430D01*
X142589049Y-69365571D01*
X142371193Y-69172504D01*
X142119858Y-69025648D01*
X141856890Y-68933524D01*
X141627000Y-69054845D01*
X141373000Y-69054845D01*
X141143110Y-68933524D01*
X140880142Y-69025648D01*
X140628807Y-69172504D01*
X140410951Y-69365571D01*
X140234947Y-69597430D01*
X140113535Y-69846890D01*
X140028491Y-69687784D01*
X139874660Y-69500340D01*
X139687215Y-69346509D01*
X139473362Y-69232202D01*
X139241317Y-69161812D01*
X139000000Y-69138044D01*
X138758682Y-69161812D01*
X138526637Y-69232202D01*
X138312784Y-69346509D01*
X138125340Y-69500340D01*
X137971509Y-69687785D01*
X137857202Y-69901638D01*
X137786812Y-70133683D01*
X137769000Y-70314529D01*
X137732843Y-70314529D01*
X137732843Y-69775000D01*
X137720683Y-69651538D01*
X137684671Y-69532821D01*
X137626190Y-69423411D01*
X137547488Y-69327512D01*
X137451589Y-69248810D01*
X137342179Y-69190329D01*
X137223462Y-69154317D01*
X137100000Y-69142157D01*
X135900000Y-69142157D01*
X135776538Y-69154317D01*
X135657821Y-69190329D01*
X135548411Y-69248810D01*
X135452512Y-69327512D01*
X135373810Y-69423411D01*
X135315329Y-69532821D01*
X135279317Y-69651538D01*
X135267157Y-69775000D01*
X135267157Y-69992000D01*
X133010957Y-69992000D01*
X132993445Y-69903960D01*
X132941748Y-69779152D01*
X132866695Y-69666828D01*
X132771172Y-69571305D01*
X132658848Y-69496252D01*
X132534040Y-69444555D01*
X132401545Y-69418200D01*
X132266455Y-69418200D01*
X132133960Y-69444555D01*
X132009152Y-69496252D01*
X131896828Y-69571305D01*
X131801305Y-69666828D01*
X131726252Y-69779152D01*
X131674555Y-69903960D01*
X131648200Y-70036455D01*
X115032179Y-70036455D01*
X115002279Y-69964271D01*
X114878505Y-69779030D01*
X114720970Y-69621495D01*
X114535729Y-69497721D01*
X114329900Y-69412464D01*
X114111394Y-69369000D01*
X113888606Y-69369000D01*
X113670100Y-69412464D01*
X113464271Y-69497721D01*
X113279030Y-69621495D01*
X113121495Y-69779030D01*
X112997721Y-69964271D01*
X112912464Y-70170100D01*
X112869000Y-70388606D01*
X78393700Y-70388606D01*
X78393700Y-62775000D01*
X126767157Y-62775000D01*
X126767157Y-64225000D01*
X126779317Y-64348462D01*
X126815329Y-64467179D01*
X126873810Y-64576589D01*
X126952512Y-64672488D01*
X127048411Y-64751190D01*
X127157821Y-64809671D01*
X127276538Y-64845683D01*
X127400000Y-64857843D01*
X128600000Y-64857843D01*
X128723462Y-64845683D01*
X128842179Y-64809671D01*
X128951589Y-64751190D01*
X129047488Y-64672488D01*
X129126190Y-64576589D01*
X129184671Y-64467179D01*
X129220683Y-64348462D01*
X129232843Y-64225000D01*
X129232843Y-63314529D01*
X129269000Y-63314529D01*
X129269000Y-63685472D01*
X129286812Y-63866318D01*
X129357202Y-64098363D01*
X129471509Y-64312216D01*
X129625341Y-64499660D01*
X129812785Y-64653491D01*
X130026638Y-64767798D01*
X130258683Y-64838188D01*
X130500000Y-64861956D01*
X130741318Y-64838188D01*
X130973363Y-64767798D01*
X131022900Y-64741320D01*
X131352155Y-65070575D01*
X131368062Y-65089958D01*
X131445415Y-65153439D01*
X131533667Y-65200611D01*
X131629425Y-65229659D01*
X131704063Y-65237010D01*
X131704066Y-65237010D01*
X131729010Y-65239467D01*
X131753954Y-65237010D01*
X139270790Y-65237010D01*
X144678400Y-70644621D01*
X144678400Y-70679545D01*
X144704755Y-70812040D01*
X144756452Y-70936848D01*
X144831505Y-71049172D01*
X144927028Y-71144695D01*
X145039352Y-71219748D01*
X145164160Y-71271445D01*
X145296655Y-71297800D01*
X145431745Y-71297800D01*
X145564240Y-71271445D01*
X145689048Y-71219748D01*
X145801372Y-71144695D01*
X145896895Y-71049172D01*
X145971948Y-70936848D01*
X146023645Y-70812040D01*
X146050000Y-70679545D01*
X146050000Y-70544455D01*
X146023645Y-70411960D01*
X145971948Y-70287152D01*
X145896895Y-70174828D01*
X145801372Y-70079305D01*
X145689048Y-70004252D01*
X145564240Y-69952555D01*
X145431745Y-69926200D01*
X145396821Y-69926200D01*
X140740547Y-65269927D01*
X140786848Y-65250748D01*
X140899172Y-65175695D01*
X140994695Y-65080172D01*
X141069748Y-64967848D01*
X141121445Y-64843040D01*
X141147800Y-64710545D01*
X141147800Y-64575455D01*
X141121445Y-64442960D01*
X141069748Y-64318152D01*
X140994695Y-64205828D01*
X140970000Y-64181133D01*
X140970000Y-62564867D01*
X140994695Y-62540172D01*
X141069748Y-62427848D01*
X141121445Y-62303040D01*
X141147800Y-62170545D01*
X141147800Y-62035455D01*
X141121445Y-61902960D01*
X141069748Y-61778152D01*
X140994695Y-61665828D01*
X140899172Y-61570305D01*
X140786848Y-61495252D01*
X140662040Y-61443555D01*
X140529545Y-61417200D01*
X140394455Y-61417200D01*
X140261960Y-61443555D01*
X140137152Y-61495252D01*
X140024828Y-61570305D01*
X139929305Y-61665828D01*
X139854252Y-61778152D01*
X139802555Y-61902960D01*
X139776200Y-62035455D01*
X139776200Y-62170545D01*
X139802555Y-62303040D01*
X139854252Y-62427848D01*
X139929305Y-62540172D01*
X139954000Y-62564867D01*
X139954001Y-64181132D01*
X139929305Y-64205828D01*
X139854252Y-64318152D01*
X139835755Y-64362807D01*
X139764805Y-64304581D01*
X139676553Y-64257409D01*
X139580795Y-64228361D01*
X139506157Y-64221010D01*
X139506154Y-64221010D01*
X139481210Y-64218553D01*
X139456266Y-64221010D01*
X134353418Y-64221010D01*
X134392442Y-64140830D01*
X134466320Y-63859267D01*
X134326165Y-63627000D01*
X133127000Y-63627000D01*
X133127000Y-63647000D01*
X132873000Y-63647000D01*
X132873000Y-63627000D01*
X132853000Y-63627000D01*
X132853000Y-63373000D01*
X132873000Y-63373000D01*
X132873000Y-62054845D01*
X133127000Y-62054845D01*
X133127000Y-63373000D01*
X134326165Y-63373000D01*
X134466320Y-63140733D01*
X134392442Y-62859170D01*
X134265053Y-62597430D01*
X134089049Y-62365571D01*
X133871193Y-62172504D01*
X133619858Y-62025648D01*
X133356890Y-61933524D01*
X133127000Y-62054845D01*
X132873000Y-62054845D01*
X132643110Y-61933524D01*
X132380142Y-62025648D01*
X132128807Y-62172504D01*
X131910951Y-62365571D01*
X131734947Y-62597430D01*
X131613535Y-62846890D01*
X131528491Y-62687784D01*
X131374660Y-62500340D01*
X131187215Y-62346509D01*
X130973362Y-62232202D01*
X130741317Y-62161812D01*
X130500000Y-62138044D01*
X130258682Y-62161812D01*
X130026637Y-62232202D01*
X129812784Y-62346509D01*
X129625340Y-62500340D01*
X129471509Y-62687785D01*
X129357202Y-62901638D01*
X129286812Y-63133683D01*
X129269000Y-63314529D01*
X129232843Y-63314529D01*
X129232843Y-62775000D01*
X129220683Y-62651538D01*
X129184671Y-62532821D01*
X129126190Y-62423411D01*
X129047488Y-62327512D01*
X128951589Y-62248810D01*
X128842179Y-62190329D01*
X128723462Y-62154317D01*
X128600000Y-62142157D01*
X127400000Y-62142157D01*
X127276538Y-62154317D01*
X127157821Y-62190329D01*
X127048411Y-62248810D01*
X126952512Y-62327512D01*
X126873810Y-62423411D01*
X126815329Y-62532821D01*
X126779317Y-62651538D01*
X126767157Y-62775000D01*
X78393700Y-62775000D01*
X78393700Y-61100000D01*
X145111928Y-61100000D01*
X145115000Y-61714250D01*
X145273750Y-61873000D01*
X145581658Y-61873000D01*
X145580141Y-61943807D01*
X145577784Y-61946164D01*
X145578937Y-62000000D01*
X145577784Y-62053836D01*
X145580141Y-62056193D01*
X145581658Y-62127000D01*
X145273750Y-62127000D01*
X145115000Y-62285750D01*
X145111928Y-62900000D01*
X145124188Y-63024482D01*
X145160498Y-63144180D01*
X145219463Y-63254494D01*
X145298815Y-63351185D01*
X145395506Y-63430537D01*
X145505820Y-63489502D01*
X145625518Y-63525812D01*
X145750000Y-63538072D01*
X146714250Y-63535000D01*
X146747106Y-63502144D01*
X146913998Y-63535113D01*
X147088328Y-63534884D01*
X147252711Y-63501961D01*
X147285750Y-63535000D01*
X148250000Y-63538072D01*
X148374482Y-63525812D01*
X148494180Y-63489502D01*
X148604494Y-63430537D01*
X148701185Y-63351185D01*
X148780537Y-63254494D01*
X148839502Y-63144180D01*
X148875812Y-63024482D01*
X148888072Y-62900000D01*
X148885000Y-62285750D01*
X148726250Y-62127000D01*
X148418342Y-62127000D01*
X148419859Y-62056193D01*
X148422216Y-62053836D01*
X148421063Y-62000000D01*
X148422216Y-61946164D01*
X148419859Y-61943807D01*
X148418342Y-61873000D01*
X148726250Y-61873000D01*
X148885000Y-61714250D01*
X148888072Y-61100000D01*
X148875812Y-60975518D01*
X148839502Y-60855820D01*
X148780537Y-60745506D01*
X148701185Y-60648815D01*
X148604494Y-60569463D01*
X148494180Y-60510498D01*
X148374482Y-60474188D01*
X148250000Y-60461928D01*
X147285750Y-60465000D01*
X147252894Y-60497856D01*
X147086002Y-60464887D01*
X146911672Y-60465116D01*
X146747289Y-60498039D01*
X146714250Y-60465000D01*
X145750000Y-60461928D01*
X145625518Y-60474188D01*
X145505820Y-60510498D01*
X145395506Y-60569463D01*
X145298815Y-60648815D01*
X145219463Y-60745506D01*
X145160498Y-60855820D01*
X145124188Y-60975518D01*
X145111928Y-61100000D01*
X78393700Y-61100000D01*
X78393700Y-57883682D01*
X90319000Y-57883682D01*
X90319000Y-58116318D01*
X90364386Y-58344485D01*
X90453412Y-58559413D01*
X90582658Y-58752843D01*
X90747157Y-58917342D01*
X90940587Y-59046588D01*
X91155515Y-59135614D01*
X91383682Y-59181000D01*
X91616318Y-59181000D01*
X91844485Y-59135614D01*
X92059413Y-59046588D01*
X92252843Y-58917342D01*
X92417342Y-58752843D01*
X92546588Y-58559413D01*
X92635614Y-58344485D01*
X92681000Y-58116318D01*
X92681000Y-58000000D01*
X106341012Y-58000000D01*
X106372889Y-58323653D01*
X106467295Y-58634867D01*
X106620602Y-58921684D01*
X106826918Y-59173082D01*
X107078316Y-59379398D01*
X107365133Y-59532705D01*
X107676347Y-59627111D01*
X107918896Y-59651000D01*
X116368899Y-59651000D01*
X116450000Y-59658988D01*
X116531101Y-59651000D01*
X116531104Y-59651000D01*
X116773653Y-59627111D01*
X117084867Y-59532705D01*
X117371684Y-59379398D01*
X117623082Y-59173082D01*
X117674787Y-59110079D01*
X118813411Y-57971455D01*
X145745200Y-57971455D01*
X145745200Y-58106545D01*
X145771555Y-58239040D01*
X145823252Y-58363848D01*
X145898305Y-58476172D01*
X145993828Y-58571695D01*
X146106152Y-58646748D01*
X146230960Y-58698445D01*
X146363455Y-58724800D01*
X146498545Y-58724800D01*
X146631040Y-58698445D01*
X146755848Y-58646748D01*
X146868172Y-58571695D01*
X146963695Y-58476172D01*
X147038748Y-58363848D01*
X147090445Y-58239040D01*
X147116800Y-58106545D01*
X147116800Y-58071620D01*
X151848421Y-53340000D01*
X152954133Y-53340000D01*
X152978828Y-53364695D01*
X153091152Y-53439748D01*
X153215960Y-53491445D01*
X153348455Y-53517800D01*
X153483545Y-53517800D01*
X153616040Y-53491445D01*
X153740848Y-53439748D01*
X153853172Y-53364695D01*
X153948695Y-53269172D01*
X154023748Y-53156848D01*
X154075445Y-53032040D01*
X154101800Y-52899545D01*
X154101800Y-52764455D01*
X154075445Y-52631960D01*
X154023748Y-52507152D01*
X153948695Y-52394828D01*
X153853172Y-52299305D01*
X153740848Y-52224252D01*
X153616040Y-52172555D01*
X153483545Y-52146200D01*
X153348455Y-52146200D01*
X153215960Y-52172555D01*
X153091152Y-52224252D01*
X152978828Y-52299305D01*
X152954133Y-52324000D01*
X151662943Y-52324000D01*
X151637999Y-52321543D01*
X151613055Y-52324000D01*
X151613053Y-52324000D01*
X151538415Y-52331351D01*
X151442657Y-52360399D01*
X151418218Y-52373462D01*
X151354404Y-52407571D01*
X151299810Y-52452376D01*
X151277052Y-52471052D01*
X151261150Y-52490429D01*
X146398380Y-57353200D01*
X146363455Y-57353200D01*
X146230960Y-57379555D01*
X146106152Y-57431252D01*
X145993828Y-57506305D01*
X145898305Y-57601828D01*
X145823252Y-57714152D01*
X145771555Y-57838960D01*
X145745200Y-57971455D01*
X118813411Y-57971455D01*
X122610086Y-54174781D01*
X122673082Y-54123082D01*
X122749847Y-54029543D01*
X122879398Y-53871685D01*
X123032704Y-53584868D01*
X123032705Y-53584867D01*
X123109156Y-53332843D01*
X123199999Y-53332843D01*
X123323461Y-53320683D01*
X123442178Y-53284671D01*
X123551588Y-53226190D01*
X123647487Y-53147487D01*
X123726190Y-53051588D01*
X123784671Y-52942178D01*
X123820683Y-52823461D01*
X123832843Y-52699999D01*
X123832843Y-50750000D01*
X143767157Y-50750000D01*
X143767157Y-52250000D01*
X143779317Y-52373462D01*
X143815329Y-52492179D01*
X143873810Y-52601589D01*
X143952512Y-52697488D01*
X144048411Y-52776190D01*
X144157821Y-52834671D01*
X144276538Y-52870683D01*
X144400000Y-52882843D01*
X145600000Y-52882843D01*
X145723462Y-52870683D01*
X145842179Y-52834671D01*
X145951589Y-52776190D01*
X146047488Y-52697488D01*
X146126190Y-52601589D01*
X146184671Y-52492179D01*
X146220683Y-52373462D01*
X146232843Y-52250000D01*
X146232843Y-51289529D01*
X146269000Y-51289529D01*
X146269000Y-51710472D01*
X146286812Y-51891318D01*
X146357202Y-52123363D01*
X146471510Y-52337216D01*
X146625341Y-52524660D01*
X146812785Y-52678491D01*
X147026638Y-52792798D01*
X147258683Y-52863188D01*
X147500000Y-52886956D01*
X147741318Y-52863188D01*
X147973363Y-52792798D01*
X148187216Y-52678491D01*
X148374660Y-52524660D01*
X148528491Y-52337215D01*
X148642798Y-52123362D01*
X148713188Y-51891317D01*
X148731000Y-51710471D01*
X148731000Y-51289528D01*
X148713188Y-51108682D01*
X148642798Y-50876637D01*
X148528491Y-50662784D01*
X148374660Y-50475340D01*
X148187215Y-50321509D01*
X147973362Y-50207202D01*
X147741317Y-50136812D01*
X147500000Y-50113044D01*
X147258682Y-50136812D01*
X147026637Y-50207202D01*
X146812784Y-50321509D01*
X146625340Y-50475340D01*
X146471509Y-50662785D01*
X146357202Y-50876638D01*
X146286812Y-51108683D01*
X146269000Y-51289529D01*
X146232843Y-51289529D01*
X146232843Y-50750000D01*
X146220683Y-50626538D01*
X146184671Y-50507821D01*
X146126190Y-50398411D01*
X146047488Y-50302512D01*
X145951589Y-50223810D01*
X145842179Y-50165329D01*
X145723462Y-50129317D01*
X145600000Y-50117157D01*
X144400000Y-50117157D01*
X144276538Y-50129317D01*
X144157821Y-50165329D01*
X144048411Y-50223810D01*
X143952512Y-50302512D01*
X143873810Y-50398411D01*
X143815329Y-50507821D01*
X143779317Y-50626538D01*
X143767157Y-50750000D01*
X123832843Y-50750000D01*
X123832843Y-49300001D01*
X123820683Y-49176539D01*
X123784671Y-49057822D01*
X123726190Y-48948412D01*
X123647487Y-48852513D01*
X123551588Y-48773810D01*
X123442178Y-48715329D01*
X123323461Y-48679317D01*
X123199999Y-48667157D01*
X119800001Y-48667157D01*
X119676539Y-48679317D01*
X119557822Y-48715329D01*
X119448412Y-48773810D01*
X119352513Y-48852513D01*
X119273810Y-48948412D01*
X119215329Y-49057822D01*
X119179317Y-49176539D01*
X119167157Y-49300001D01*
X119167157Y-52699999D01*
X119179317Y-52823461D01*
X119205467Y-52909666D01*
X115766134Y-56349000D01*
X107918896Y-56349000D01*
X107676347Y-56372889D01*
X107365133Y-56467295D01*
X107078316Y-56620602D01*
X106826918Y-56826918D01*
X106620602Y-57078316D01*
X106467295Y-57365133D01*
X106372889Y-57676347D01*
X106341012Y-58000000D01*
X92681000Y-58000000D01*
X92681000Y-57883682D01*
X92635614Y-57655515D01*
X92546588Y-57440587D01*
X92417342Y-57247157D01*
X92252843Y-57082658D01*
X92059413Y-56953412D01*
X91844485Y-56864386D01*
X91616318Y-56819000D01*
X91383682Y-56819000D01*
X91155515Y-56864386D01*
X90940587Y-56953412D01*
X90747157Y-57082658D01*
X90582658Y-57247157D01*
X90453412Y-57440587D01*
X90364386Y-57655515D01*
X90319000Y-57883682D01*
X78393700Y-57883682D01*
X78393700Y-51268317D01*
X81647682Y-51268317D01*
X81647682Y-51731683D01*
X81738080Y-52186146D01*
X81915403Y-52614240D01*
X82172835Y-52999515D01*
X82500485Y-53327165D01*
X82885760Y-53584597D01*
X83313854Y-53761920D01*
X83768317Y-53852318D01*
X84231683Y-53852318D01*
X84686146Y-53761920D01*
X85114240Y-53584597D01*
X85499515Y-53327165D01*
X85827165Y-52999515D01*
X86084597Y-52614240D01*
X86261920Y-52186146D01*
X86352318Y-51731683D01*
X86352318Y-51268317D01*
X86261920Y-50813854D01*
X86084597Y-50385760D01*
X86083209Y-50383682D01*
X90319000Y-50383682D01*
X90319000Y-50616318D01*
X90364386Y-50844485D01*
X90453412Y-51059413D01*
X90582658Y-51252843D01*
X90747157Y-51417342D01*
X90940587Y-51546588D01*
X91155515Y-51635614D01*
X91383682Y-51681000D01*
X91616318Y-51681000D01*
X91844485Y-51635614D01*
X92059413Y-51546588D01*
X92252843Y-51417342D01*
X92417342Y-51252843D01*
X92546588Y-51059413D01*
X92635614Y-50844485D01*
X92681000Y-50616318D01*
X92681000Y-50500000D01*
X109841012Y-50500000D01*
X109872889Y-50823653D01*
X109967295Y-51134867D01*
X110120602Y-51421684D01*
X110326918Y-51673082D01*
X110578316Y-51879398D01*
X110865133Y-52032705D01*
X111176347Y-52127111D01*
X111418896Y-52151000D01*
X114167157Y-52151000D01*
X114167157Y-52699999D01*
X114179317Y-52823461D01*
X114215329Y-52942178D01*
X114273810Y-53051588D01*
X114352513Y-53147487D01*
X114448412Y-53226190D01*
X114557822Y-53284671D01*
X114676539Y-53320683D01*
X114800001Y-53332843D01*
X118199999Y-53332843D01*
X118323461Y-53320683D01*
X118442178Y-53284671D01*
X118551588Y-53226190D01*
X118647487Y-53147487D01*
X118726190Y-53051588D01*
X118784671Y-52942178D01*
X118820683Y-52823461D01*
X118832843Y-52699999D01*
X118832843Y-49300001D01*
X118820683Y-49176539D01*
X118784671Y-49057822D01*
X118726190Y-48948412D01*
X118647487Y-48852513D01*
X118551588Y-48773810D01*
X118442178Y-48715329D01*
X118323461Y-48679317D01*
X118199999Y-48667157D01*
X114800001Y-48667157D01*
X114676539Y-48679317D01*
X114557822Y-48715329D01*
X114448412Y-48773810D01*
X114356794Y-48849000D01*
X111418896Y-48849000D01*
X111176347Y-48872889D01*
X110865133Y-48967295D01*
X110578316Y-49120602D01*
X110326918Y-49326918D01*
X110120602Y-49578316D01*
X109967295Y-49865133D01*
X109872889Y-50176347D01*
X109841012Y-50500000D01*
X92681000Y-50500000D01*
X92681000Y-50383682D01*
X92635614Y-50155515D01*
X92546588Y-49940587D01*
X92417342Y-49747157D01*
X92252843Y-49582658D01*
X92059413Y-49453412D01*
X91844485Y-49364386D01*
X91616318Y-49319000D01*
X91383682Y-49319000D01*
X91155515Y-49364386D01*
X90940587Y-49453412D01*
X90747157Y-49582658D01*
X90582658Y-49747157D01*
X90453412Y-49940587D01*
X90364386Y-50155515D01*
X90319000Y-50383682D01*
X86083209Y-50383682D01*
X85827165Y-50000485D01*
X85499515Y-49672835D01*
X85114240Y-49415403D01*
X84686146Y-49238080D01*
X84231683Y-49147682D01*
X83768317Y-49147682D01*
X83313854Y-49238080D01*
X82885760Y-49415403D01*
X82500485Y-49672835D01*
X82172835Y-50000485D01*
X81915403Y-50385760D01*
X81738080Y-50813854D01*
X81647682Y-51268317D01*
X78393700Y-51268317D01*
X78393700Y-48393700D01*
X177606300Y-48393700D01*
X177606300Y-51278317D01*
G37*
G04 #@! TD.AperFunction*
D20*
X160634366Y-70950478D02*
X160874633Y-71050000D01*
X160634366Y-71149522D01*
X160418039Y-71294067D01*
X160234067Y-71478039D01*
X160089522Y-71694366D01*
X159989957Y-71934737D01*
X159939200Y-72189913D01*
X159939200Y-72450087D01*
X159989957Y-72705263D01*
X160089522Y-72945634D01*
X160234067Y-73161961D01*
X160418039Y-73345933D01*
X160634366Y-73490478D01*
X160874633Y-73590000D01*
X160634366Y-73689522D01*
X160418039Y-73834067D01*
X160234067Y-74018039D01*
X160089522Y-74234366D01*
X159989957Y-74474737D01*
X159939200Y-74729913D01*
X159939200Y-74990087D01*
X159989957Y-75245263D01*
X160089522Y-75485634D01*
X160234067Y-75701961D01*
X160250733Y-75718627D01*
X157096362Y-78872998D01*
X157076252Y-78872998D01*
X157235000Y-78714250D01*
X157238072Y-78125000D01*
X157225812Y-78000518D01*
X157189502Y-77880820D01*
X157130537Y-77770506D01*
X157051185Y-77673815D01*
X156954494Y-77594463D01*
X156844180Y-77535498D01*
X156724482Y-77499188D01*
X156600000Y-77486928D01*
X156285750Y-77490000D01*
X156127000Y-77648750D01*
X156127000Y-78873000D01*
X156147000Y-78873000D01*
X156147000Y-79127000D01*
X156127000Y-79127000D01*
X156127000Y-79147000D01*
X155873000Y-79147000D01*
X155873000Y-79127000D01*
X155853000Y-79127000D01*
X155853000Y-78873000D01*
X155873000Y-78873000D01*
X155873000Y-77648750D01*
X155714250Y-77490000D01*
X155400000Y-77486928D01*
X155275518Y-77499188D01*
X155155820Y-77535498D01*
X155045506Y-77594463D01*
X154948815Y-77673815D01*
X154869463Y-77770506D01*
X154810498Y-77880820D01*
X154774188Y-78000518D01*
X154763506Y-78108976D01*
X154697028Y-78027972D01*
X154547651Y-77905382D01*
X154377229Y-77814289D01*
X154192310Y-77758195D01*
X154000000Y-77739254D01*
X153807691Y-77758195D01*
X153622772Y-77814289D01*
X153564081Y-77845660D01*
X149939806Y-74221386D01*
X150026637Y-74267798D01*
X150258682Y-74338188D01*
X150500000Y-74361956D01*
X150741317Y-74338188D01*
X150973362Y-74267798D01*
X151022900Y-74241320D01*
X151352155Y-74570575D01*
X151368062Y-74589958D01*
X151445415Y-74653439D01*
X151533667Y-74700611D01*
X151629425Y-74729659D01*
X151704063Y-74737010D01*
X151704066Y-74737010D01*
X151729010Y-74739467D01*
X151753954Y-74737010D01*
X156283826Y-74737010D01*
X156308770Y-74739467D01*
X156333714Y-74737010D01*
X156333717Y-74737010D01*
X156408355Y-74729659D01*
X156504113Y-74700611D01*
X156592365Y-74653439D01*
X156669718Y-74589958D01*
X156685625Y-74570575D01*
X160407770Y-70848431D01*
X160427147Y-70832529D01*
X160438018Y-70819283D01*
X160634366Y-70950478D01*
G04 #@! TA.AperFunction,Conductor*
D22*
G36*
X160634366Y-70950478D02*
G01*
X160874633Y-71050000D01*
X160634366Y-71149522D01*
X160418039Y-71294067D01*
X160234067Y-71478039D01*
X160089522Y-71694366D01*
X159989957Y-71934737D01*
X159939200Y-72189913D01*
X159939200Y-72450087D01*
X159989957Y-72705263D01*
X160089522Y-72945634D01*
X160234067Y-73161961D01*
X160418039Y-73345933D01*
X160634366Y-73490478D01*
X160874633Y-73590000D01*
X160634366Y-73689522D01*
X160418039Y-73834067D01*
X160234067Y-74018039D01*
X160089522Y-74234366D01*
X159989957Y-74474737D01*
X159939200Y-74729913D01*
X159939200Y-74990087D01*
X159989957Y-75245263D01*
X160089522Y-75485634D01*
X160234067Y-75701961D01*
X160250733Y-75718627D01*
X157096362Y-78872998D01*
X157076252Y-78872998D01*
X157235000Y-78714250D01*
X157238072Y-78125000D01*
X157225812Y-78000518D01*
X157189502Y-77880820D01*
X157130537Y-77770506D01*
X157051185Y-77673815D01*
X156954494Y-77594463D01*
X156844180Y-77535498D01*
X156724482Y-77499188D01*
X156600000Y-77486928D01*
X156285750Y-77490000D01*
X156127000Y-77648750D01*
X156127000Y-78873000D01*
X156147000Y-78873000D01*
X156147000Y-79127000D01*
X156127000Y-79127000D01*
X156127000Y-79147000D01*
X155873000Y-79147000D01*
X155873000Y-79127000D01*
X155853000Y-79127000D01*
X155853000Y-78873000D01*
X155873000Y-78873000D01*
X155873000Y-77648750D01*
X155714250Y-77490000D01*
X155400000Y-77486928D01*
X155275518Y-77499188D01*
X155155820Y-77535498D01*
X155045506Y-77594463D01*
X154948815Y-77673815D01*
X154869463Y-77770506D01*
X154810498Y-77880820D01*
X154774188Y-78000518D01*
X154763506Y-78108976D01*
X154697028Y-78027972D01*
X154547651Y-77905382D01*
X154377229Y-77814289D01*
X154192310Y-77758195D01*
X154000000Y-77739254D01*
X153807691Y-77758195D01*
X153622772Y-77814289D01*
X153564081Y-77845660D01*
X149939806Y-74221386D01*
X150026637Y-74267798D01*
X150258682Y-74338188D01*
X150500000Y-74361956D01*
X150741317Y-74338188D01*
X150973362Y-74267798D01*
X151022900Y-74241320D01*
X151352155Y-74570575D01*
X151368062Y-74589958D01*
X151445415Y-74653439D01*
X151533667Y-74700611D01*
X151629425Y-74729659D01*
X151704063Y-74737010D01*
X151704066Y-74737010D01*
X151729010Y-74739467D01*
X151753954Y-74737010D01*
X156283826Y-74737010D01*
X156308770Y-74739467D01*
X156333714Y-74737010D01*
X156333717Y-74737010D01*
X156408355Y-74729659D01*
X156504113Y-74700611D01*
X156592365Y-74653439D01*
X156669718Y-74589958D01*
X156685625Y-74570575D01*
X160407770Y-70848431D01*
X160427147Y-70832529D01*
X160438018Y-70819283D01*
X160634366Y-70950478D01*
G37*
G04 #@! TD.AperFunction*
D20*
X160089522Y-53914366D02*
X159989957Y-54154737D01*
X159939200Y-54409913D01*
X159939200Y-54670087D01*
X159989957Y-54925263D01*
X160038683Y-55042897D01*
X159724629Y-55356951D01*
X159705252Y-55372853D01*
X159689350Y-55392230D01*
X159689349Y-55392231D01*
X159641770Y-55450206D01*
X159594599Y-55538458D01*
X159565551Y-55634217D01*
X159555742Y-55733801D01*
X159558200Y-55758755D01*
X159558199Y-57020381D01*
X153908125Y-62670455D01*
X153888748Y-62686357D01*
X153872846Y-62705734D01*
X153872845Y-62705735D01*
X153825266Y-62763710D01*
X153793069Y-62823948D01*
X153778095Y-62851962D01*
X153761392Y-62907026D01*
X153749047Y-62947721D01*
X153739238Y-63047305D01*
X153741696Y-63072259D01*
X153741695Y-67353579D01*
X151160562Y-69934712D01*
X151154445Y-69903960D01*
X151102748Y-69779152D01*
X151027695Y-69666828D01*
X151003000Y-69642133D01*
X151003000Y-68155420D01*
X151416620Y-67741800D01*
X151451545Y-67741800D01*
X151584040Y-67715445D01*
X151708848Y-67663748D01*
X151821172Y-67588695D01*
X151916695Y-67493172D01*
X151991748Y-67380848D01*
X152043445Y-67256040D01*
X152069800Y-67123545D01*
X152069800Y-66988455D01*
X152043445Y-66855960D01*
X151991748Y-66731152D01*
X151916695Y-66618828D01*
X151821172Y-66523305D01*
X151708848Y-66448252D01*
X151584040Y-66396555D01*
X151451545Y-66370200D01*
X151316455Y-66370200D01*
X151183960Y-66396555D01*
X151059152Y-66448252D01*
X150946828Y-66523305D01*
X150851305Y-66618828D01*
X150776252Y-66731152D01*
X150724555Y-66855960D01*
X150698200Y-66988455D01*
X150698200Y-67023380D01*
X150153435Y-67568145D01*
X150134052Y-67584052D01*
X150070571Y-67661405D01*
X150023399Y-67749658D01*
X149994351Y-67845416D01*
X149987000Y-67920053D01*
X149984543Y-67945000D01*
X149987000Y-67969944D01*
X149987001Y-69642132D01*
X149962305Y-69666828D01*
X149887252Y-69779152D01*
X149835555Y-69903960D01*
X149809200Y-70036455D01*
X149809200Y-70171545D01*
X149835555Y-70304040D01*
X149887252Y-70428848D01*
X149962305Y-70541172D01*
X150057828Y-70636695D01*
X150170152Y-70711748D01*
X150294960Y-70763445D01*
X150325713Y-70769562D01*
X149149745Y-71945530D01*
X149089049Y-71865571D01*
X148871193Y-71672504D01*
X148619858Y-71525648D01*
X148356890Y-71433524D01*
X148127000Y-71554845D01*
X148127000Y-72873000D01*
X148147000Y-72873000D01*
X148147000Y-73127000D01*
X148127000Y-73127000D01*
X148127000Y-73147000D01*
X147873000Y-73147000D01*
X147873000Y-73127000D01*
X147853000Y-73127000D01*
X147853000Y-72873000D01*
X147873000Y-72873000D01*
X147873000Y-71554845D01*
X147643110Y-71433524D01*
X147403990Y-71517293D01*
X147403990Y-66574430D01*
X149130187Y-64848233D01*
X149200305Y-64953172D01*
X149225000Y-64977867D01*
X149225001Y-66485771D01*
X149168828Y-66523305D01*
X149073305Y-66618828D01*
X148998252Y-66731152D01*
X148946555Y-66855960D01*
X148920200Y-66988455D01*
X148920200Y-67123545D01*
X148946555Y-67256040D01*
X148998252Y-67380848D01*
X149073305Y-67493172D01*
X149168828Y-67588695D01*
X149281152Y-67663748D01*
X149405960Y-67715445D01*
X149538455Y-67741800D01*
X149673545Y-67741800D01*
X149806040Y-67715445D01*
X149930848Y-67663748D01*
X150043172Y-67588695D01*
X150138695Y-67493172D01*
X150213748Y-67380848D01*
X150265445Y-67256040D01*
X150291800Y-67123545D01*
X150291800Y-66988455D01*
X150265445Y-66855960D01*
X150241000Y-66796944D01*
X150241000Y-64977867D01*
X150265695Y-64953172D01*
X150340748Y-64840848D01*
X150392445Y-64716040D01*
X150418800Y-64583545D01*
X150418800Y-64448455D01*
X150392445Y-64315960D01*
X150340748Y-64191152D01*
X150265695Y-64078828D01*
X150170172Y-63983305D01*
X150065233Y-63913187D01*
X160140806Y-53837614D01*
X160089522Y-53914366D01*
G04 #@! TA.AperFunction,Conductor*
D22*
G36*
X160089522Y-53914366D02*
G01*
X159989957Y-54154737D01*
X159939200Y-54409913D01*
X159939200Y-54670087D01*
X159989957Y-54925263D01*
X160038683Y-55042897D01*
X159724629Y-55356951D01*
X159705252Y-55372853D01*
X159689350Y-55392230D01*
X159689349Y-55392231D01*
X159641770Y-55450206D01*
X159594599Y-55538458D01*
X159565551Y-55634217D01*
X159555742Y-55733801D01*
X159558200Y-55758755D01*
X159558199Y-57020381D01*
X153908125Y-62670455D01*
X153888748Y-62686357D01*
X153872846Y-62705734D01*
X153872845Y-62705735D01*
X153825266Y-62763710D01*
X153793069Y-62823948D01*
X153778095Y-62851962D01*
X153761392Y-62907026D01*
X153749047Y-62947721D01*
X153739238Y-63047305D01*
X153741696Y-63072259D01*
X153741695Y-67353579D01*
X151160562Y-69934712D01*
X151154445Y-69903960D01*
X151102748Y-69779152D01*
X151027695Y-69666828D01*
X151003000Y-69642133D01*
X151003000Y-68155420D01*
X151416620Y-67741800D01*
X151451545Y-67741800D01*
X151584040Y-67715445D01*
X151708848Y-67663748D01*
X151821172Y-67588695D01*
X151916695Y-67493172D01*
X151991748Y-67380848D01*
X152043445Y-67256040D01*
X152069800Y-67123545D01*
X152069800Y-66988455D01*
X152043445Y-66855960D01*
X151991748Y-66731152D01*
X151916695Y-66618828D01*
X151821172Y-66523305D01*
X151708848Y-66448252D01*
X151584040Y-66396555D01*
X151451545Y-66370200D01*
X151316455Y-66370200D01*
X151183960Y-66396555D01*
X151059152Y-66448252D01*
X150946828Y-66523305D01*
X150851305Y-66618828D01*
X150776252Y-66731152D01*
X150724555Y-66855960D01*
X150698200Y-66988455D01*
X150698200Y-67023380D01*
X150153435Y-67568145D01*
X150134052Y-67584052D01*
X150070571Y-67661405D01*
X150023399Y-67749658D01*
X149994351Y-67845416D01*
X149987000Y-67920053D01*
X149984543Y-67945000D01*
X149987000Y-67969944D01*
X149987001Y-69642132D01*
X149962305Y-69666828D01*
X149887252Y-69779152D01*
X149835555Y-69903960D01*
X149809200Y-70036455D01*
X149809200Y-70171545D01*
X149835555Y-70304040D01*
X149887252Y-70428848D01*
X149962305Y-70541172D01*
X150057828Y-70636695D01*
X150170152Y-70711748D01*
X150294960Y-70763445D01*
X150325713Y-70769562D01*
X149149745Y-71945530D01*
X149089049Y-71865571D01*
X148871193Y-71672504D01*
X148619858Y-71525648D01*
X148356890Y-71433524D01*
X148127000Y-71554845D01*
X148127000Y-72873000D01*
X148147000Y-72873000D01*
X148147000Y-73127000D01*
X148127000Y-73127000D01*
X148127000Y-73147000D01*
X147873000Y-73147000D01*
X147873000Y-73127000D01*
X147853000Y-73127000D01*
X147853000Y-72873000D01*
X147873000Y-72873000D01*
X147873000Y-71554845D01*
X147643110Y-71433524D01*
X147403990Y-71517293D01*
X147403990Y-66574430D01*
X149130187Y-64848233D01*
X149200305Y-64953172D01*
X149225000Y-64977867D01*
X149225001Y-66485771D01*
X149168828Y-66523305D01*
X149073305Y-66618828D01*
X148998252Y-66731152D01*
X148946555Y-66855960D01*
X148920200Y-66988455D01*
X148920200Y-67123545D01*
X148946555Y-67256040D01*
X148998252Y-67380848D01*
X149073305Y-67493172D01*
X149168828Y-67588695D01*
X149281152Y-67663748D01*
X149405960Y-67715445D01*
X149538455Y-67741800D01*
X149673545Y-67741800D01*
X149806040Y-67715445D01*
X149930848Y-67663748D01*
X150043172Y-67588695D01*
X150138695Y-67493172D01*
X150213748Y-67380848D01*
X150265445Y-67256040D01*
X150291800Y-67123545D01*
X150291800Y-66988455D01*
X150265445Y-66855960D01*
X150241000Y-66796944D01*
X150241000Y-64977867D01*
X150265695Y-64953172D01*
X150340748Y-64840848D01*
X150392445Y-64716040D01*
X150418800Y-64583545D01*
X150418800Y-64448455D01*
X150392445Y-64315960D01*
X150340748Y-64191152D01*
X150265695Y-64078828D01*
X150170172Y-63983305D01*
X150065233Y-63913187D01*
X160140806Y-53837614D01*
X160089522Y-53914366D01*
G37*
G04 #@! TD.AperFunction*
D20*
X147116042Y-62558152D02*
X147114887Y-62563998D01*
X147115116Y-62738328D01*
X147115858Y-62742032D01*
X147016971Y-62840919D01*
X147000000Y-62823948D01*
X146983029Y-62840919D01*
X146883958Y-62741848D01*
X146885113Y-62736002D01*
X146884884Y-62561672D01*
X146884142Y-62557968D01*
X146983029Y-62459081D01*
X147000000Y-62476052D01*
X147016971Y-62459081D01*
X147116042Y-62558152D01*
G04 #@! TA.AperFunction,Conductor*
D22*
G36*
X147116042Y-62558152D02*
G01*
X147114887Y-62563998D01*
X147115116Y-62738328D01*
X147115858Y-62742032D01*
X147016971Y-62840919D01*
X147000000Y-62823948D01*
X146983029Y-62840919D01*
X146883958Y-62741848D01*
X146885113Y-62736002D01*
X146884884Y-62561672D01*
X146884142Y-62557968D01*
X146983029Y-62459081D01*
X147000000Y-62476052D01*
X147016971Y-62459081D01*
X147116042Y-62558152D01*
G37*
G04 #@! TD.AperFunction*
D20*
X147116042Y-61258152D02*
X147114887Y-61263998D01*
X147115116Y-61438328D01*
X147115858Y-61442032D01*
X147016971Y-61540919D01*
X147000000Y-61523948D01*
X146983029Y-61540919D01*
X146883958Y-61441848D01*
X146885113Y-61436002D01*
X146884884Y-61261672D01*
X146884142Y-61257968D01*
X146983029Y-61159081D01*
X147000000Y-61176052D01*
X147016971Y-61159081D01*
X147116042Y-61258152D01*
G04 #@! TA.AperFunction,Conductor*
D22*
G36*
X147116042Y-61258152D02*
G01*
X147114887Y-61263998D01*
X147115116Y-61438328D01*
X147115858Y-61442032D01*
X147016971Y-61540919D01*
X147000000Y-61523948D01*
X146983029Y-61540919D01*
X146883958Y-61441848D01*
X146885113Y-61436002D01*
X146884884Y-61261672D01*
X146884142Y-61257968D01*
X146983029Y-61159081D01*
X147000000Y-61176052D01*
X147016971Y-61159081D01*
X147116042Y-61258152D01*
G37*
G04 #@! TD.AperFunction*
M02*
