%FSLAX45Y45*%
G04 Gerber Fmt 4.5, Leading zero omitted, Abs format (unit mm)*
G04 Created by KiCad (PCBNEW (5.1.9)-1) date 2021-06-06 22:43:18*
%MOMM*%
%LPD*%
G01*
G04 APERTURE LIST*
%TA.AperFunction,Profile*%
%ADD10C,0.025400*%
%TD*%
%ADD11C,0.200000*%
%ADD12C,0.300000*%
G04 APERTURE END LIST*
D10*
X8595000Y-7850000D02*
G75*
G03*
X8595000Y-7850000I-195000J0D01*
G01*
X17095000Y-7850000D02*
G75*
G03*
X17095000Y-7850000I-195000J0D01*
G01*
X7800000Y-8200000D02*
X7800000Y-4800000D01*
X17800000Y-8200000D02*
X7800000Y-8200000D01*
X17800000Y-4800000D02*
X17800000Y-8200000D01*
X17095000Y-5150000D02*
G75*
G03*
X17095000Y-5150000I-195000J0D01*
G01*
X8595000Y-5150000D02*
G75*
G03*
X8595000Y-5150000I-195000J0D01*
G01*
X7800000Y-4800000D02*
X17800000Y-4800000D01*
D11*
X14590000Y-6125000D02*
X14610000Y-6145000D01*
X14610000Y-6125000D02*
X14590000Y-6145000D01*
X14590000Y-6255000D02*
X14610000Y-6275000D01*
X14610000Y-6255000D02*
X14590000Y-6275000D01*
X14690000Y-6125000D02*
X14710000Y-6145000D01*
X14710000Y-6125000D02*
X14690000Y-6145000D01*
X14690000Y-6255000D02*
X14710000Y-6275000D01*
X14710000Y-6255000D02*
X14690000Y-6275000D01*
X14790000Y-6125000D02*
X14810000Y-6145000D01*
X14810000Y-6125000D02*
X14790000Y-6145000D01*
X14790000Y-6255000D02*
X14810000Y-6275000D01*
X14810000Y-6255000D02*
X14790000Y-6275000D01*
X9184640Y-7150100D02*
G75*
G03*
X9184640Y-7150100I-15240J0D01*
G01*
X13248640Y-7010400D02*
G75*
G03*
X13248640Y-7010400I-15240J0D01*
G01*
X13261340Y-7493000D02*
G75*
G03*
X13261340Y-7493000I-15240J0D01*
G01*
X13286740Y-5956300D02*
G75*
G03*
X13286740Y-5956300I-15240J0D01*
G01*
X14061440Y-6210300D02*
G75*
G03*
X14061440Y-6210300I-15240J0D01*
G01*
X14061440Y-6464300D02*
G75*
G03*
X14061440Y-6464300I-15240J0D01*
G01*
X14551660Y-7061200D02*
G75*
G03*
X14551660Y-7061200I-15240J0D01*
G01*
X14607540Y-6692900D02*
G75*
G03*
X14607540Y-6692900I-15240J0D01*
G01*
X14607540Y-7302500D02*
G75*
G03*
X14607540Y-7302500I-15240J0D01*
G01*
X14658340Y-5803900D02*
G75*
G03*
X14658340Y-5803900I-15240J0D01*
G01*
X14810740Y-7632700D02*
G75*
G03*
X14810740Y-7632700I-15240J0D01*
G01*
X14975840Y-6705600D02*
G75*
G03*
X14975840Y-6705600I-15240J0D01*
G01*
X14988540Y-6451600D02*
G75*
G03*
X14988540Y-6451600I-15240J0D01*
G01*
X15064740Y-7010400D02*
G75*
G03*
X15064740Y-7010400I-15240J0D01*
G01*
X15153640Y-6705600D02*
G75*
G03*
X15153640Y-6705600I-15240J0D01*
G01*
X15191740Y-7543800D02*
G75*
G03*
X15191740Y-7543800I-15240J0D01*
G01*
X15356840Y-5283200D02*
G75*
G03*
X15356840Y-5283200I-15240J0D01*
G01*
X14800000Y-7862500D02*
X14800000Y-7937500D01*
X14762500Y-7900000D02*
X14837500Y-7900000D01*
X15000000Y-7862500D02*
X15000000Y-7937500D01*
X14962500Y-7900000D02*
X15037500Y-7900000D01*
X15200000Y-7862500D02*
X15200000Y-7937500D01*
X15162500Y-7900000D02*
X15237500Y-7900000D01*
X15400000Y-7862500D02*
X15400000Y-7937500D01*
X15362500Y-7900000D02*
X15437500Y-7900000D01*
X15600000Y-7862500D02*
X15600000Y-7937500D01*
X15562500Y-7900000D02*
X15637500Y-7900000D01*
X11428284Y-7078284D02*
X11428284Y-7021715D01*
X11371715Y-7021715D01*
X11371715Y-7078284D01*
X11428284Y-7078284D01*
X11428284Y-7728284D02*
X11428284Y-7671715D01*
X11371715Y-7671715D01*
X11371715Y-7728284D01*
X11428284Y-7728284D01*
X12800000Y-6397500D02*
X12847500Y-6350000D01*
X12800000Y-6302500D01*
X12752500Y-6350000D01*
X12800000Y-6397500D01*
X13050000Y-6397500D02*
X13097500Y-6350000D01*
X13050000Y-6302500D01*
X13002500Y-6350000D01*
X13050000Y-6397500D01*
X13300000Y-6397500D02*
X13347500Y-6350000D01*
X13300000Y-6302500D01*
X13252500Y-6350000D01*
X13300000Y-6397500D01*
X13650000Y-7097500D02*
X13697500Y-7050000D01*
X13650000Y-7002500D01*
X13602500Y-7050000D01*
X13650000Y-7097500D01*
X13650000Y-7797500D02*
X13697500Y-7750000D01*
X13650000Y-7702500D01*
X13602500Y-7750000D01*
X13650000Y-7797500D01*
X13900000Y-7097500D02*
X13947500Y-7050000D01*
X13900000Y-7002500D01*
X13852500Y-7050000D01*
X13900000Y-7097500D01*
X13900000Y-7797500D02*
X13947500Y-7750000D01*
X13900000Y-7702500D01*
X13852500Y-7750000D01*
X13900000Y-7797500D01*
X14150000Y-7097500D02*
X14197500Y-7050000D01*
X14150000Y-7002500D01*
X14102500Y-7050000D01*
X14150000Y-7097500D01*
X14150000Y-7797500D02*
X14197500Y-7750000D01*
X14150000Y-7702500D01*
X14102500Y-7750000D01*
X14150000Y-7797500D01*
X14800000Y-7347500D02*
X14847500Y-7300000D01*
X14800000Y-7252500D01*
X14752500Y-7300000D01*
X14800000Y-7347500D01*
X15050000Y-7347500D02*
X15097500Y-7300000D01*
X15050000Y-7252500D01*
X15002500Y-7300000D01*
X15050000Y-7347500D01*
X15300000Y-7347500D02*
X15347500Y-7300000D01*
X15300000Y-7252500D01*
X15252500Y-7300000D01*
X15300000Y-7347500D01*
X15550000Y-7347500D02*
X15597500Y-7300000D01*
X15550000Y-7252500D01*
X15502500Y-7300000D01*
X15550000Y-7347500D01*
X9100000Y-5000000D02*
X9200000Y-5100000D01*
X9200000Y-5000000D02*
X9100000Y-5100000D01*
X9200000Y-5050000D02*
G75*
G03*
X9200000Y-5050000I-50000J0D01*
G01*
X9100000Y-5750000D02*
X9200000Y-5850000D01*
X9200000Y-5750000D02*
X9100000Y-5850000D01*
X9200000Y-5800000D02*
G75*
G03*
X9200000Y-5800000I-50000J0D01*
G01*
X12700000Y-7700000D02*
X12800000Y-7800000D01*
X12800000Y-7700000D02*
X12700000Y-7800000D01*
X12800000Y-7750000D02*
G75*
G03*
X12800000Y-7750000I-50000J0D01*
G01*
X12950000Y-7700000D02*
X13050000Y-7800000D01*
X13050000Y-7700000D02*
X12950000Y-7800000D01*
X13050000Y-7750000D02*
G75*
G03*
X13050000Y-7750000I-50000J0D01*
G01*
X14450000Y-5100000D02*
X14550000Y-5200000D01*
X14550000Y-5100000D02*
X14450000Y-5200000D01*
X14550000Y-5150000D02*
G75*
G03*
X14550000Y-5150000I-50000J0D01*
G01*
X14700000Y-5100000D02*
X14800000Y-5200000D01*
X14800000Y-5100000D02*
X14700000Y-5200000D01*
X14800000Y-5150000D02*
G75*
G03*
X14800000Y-5150000I-50000J0D01*
G01*
X16075200Y-5149200D02*
X16176800Y-5250800D01*
X16176800Y-5149200D02*
X16075200Y-5250800D01*
X16126000Y-5149200D02*
X16126000Y-5250800D01*
X16075200Y-5200000D02*
X16176800Y-5200000D01*
X16075200Y-5403200D02*
X16176800Y-5504800D01*
X16176800Y-5403200D02*
X16075200Y-5504800D01*
X16126000Y-5403200D02*
X16126000Y-5504800D01*
X16075200Y-5454000D02*
X16176800Y-5454000D01*
X16075200Y-5657200D02*
X16176800Y-5758800D01*
X16176800Y-5657200D02*
X16075200Y-5758800D01*
X16126000Y-5657200D02*
X16126000Y-5758800D01*
X16075200Y-5708000D02*
X16176800Y-5708000D01*
X16075200Y-5911200D02*
X16176800Y-6012800D01*
X16176800Y-5911200D02*
X16075200Y-6012800D01*
X16126000Y-5911200D02*
X16126000Y-6012800D01*
X16075200Y-5962000D02*
X16176800Y-5962000D01*
X16075200Y-6165200D02*
X16176800Y-6266800D01*
X16176800Y-6165200D02*
X16075200Y-6266800D01*
X16126000Y-6165200D02*
X16126000Y-6266800D01*
X16075200Y-6216000D02*
X16176800Y-6216000D01*
X16075200Y-6419200D02*
X16176800Y-6520800D01*
X16176800Y-6419200D02*
X16075200Y-6520800D01*
X16126000Y-6419200D02*
X16126000Y-6520800D01*
X16075200Y-6470000D02*
X16176800Y-6470000D01*
X16075200Y-6673200D02*
X16176800Y-6774800D01*
X16176800Y-6673200D02*
X16075200Y-6774800D01*
X16126000Y-6673200D02*
X16126000Y-6774800D01*
X16075200Y-6724000D02*
X16176800Y-6724000D01*
X16075200Y-6927200D02*
X16176800Y-7028800D01*
X16176800Y-6927200D02*
X16075200Y-7028800D01*
X16126000Y-6927200D02*
X16126000Y-7028800D01*
X16075200Y-6978000D02*
X16176800Y-6978000D01*
X16075200Y-7181200D02*
X16176800Y-7282800D01*
X16176800Y-7181200D02*
X16075200Y-7282800D01*
X16126000Y-7181200D02*
X16126000Y-7282800D01*
X16075200Y-7232000D02*
X16176800Y-7232000D01*
X16075200Y-7435200D02*
X16176800Y-7536800D01*
X16176800Y-7435200D02*
X16075200Y-7536800D01*
X16126000Y-7435200D02*
X16126000Y-7536800D01*
X16075200Y-7486000D02*
X16176800Y-7486000D01*
X16075200Y-7689200D02*
X16176800Y-7790800D01*
X16176800Y-7689200D02*
X16075200Y-7790800D01*
X16126000Y-7689200D02*
X16126000Y-7790800D01*
X16075200Y-7740000D02*
X16176800Y-7740000D01*
X16075200Y-7943200D02*
X16176800Y-8044800D01*
X16176800Y-7943200D02*
X16075200Y-8044800D01*
X16126000Y-7943200D02*
X16126000Y-8044800D01*
X16075200Y-7994000D02*
X16176800Y-7994000D01*
X17599200Y-5149200D02*
X17700800Y-5250800D01*
X17700800Y-5149200D02*
X17599200Y-5250800D01*
X17650000Y-5149200D02*
X17650000Y-5250800D01*
X17599200Y-5200000D02*
X17700800Y-5200000D01*
X17599200Y-5403200D02*
X17700800Y-5504800D01*
X17700800Y-5403200D02*
X17599200Y-5504800D01*
X17650000Y-5403200D02*
X17650000Y-5504800D01*
X17599200Y-5454000D02*
X17700800Y-5454000D01*
X17599200Y-5657200D02*
X17700800Y-5758800D01*
X17700800Y-5657200D02*
X17599200Y-5758800D01*
X17650000Y-5657200D02*
X17650000Y-5758800D01*
X17599200Y-5708000D02*
X17700800Y-5708000D01*
X17599200Y-5911200D02*
X17700800Y-6012800D01*
X17700800Y-5911200D02*
X17599200Y-6012800D01*
X17650000Y-5911200D02*
X17650000Y-6012800D01*
X17599200Y-5962000D02*
X17700800Y-5962000D01*
X17599200Y-6165200D02*
X17700800Y-6266800D01*
X17700800Y-6165200D02*
X17599200Y-6266800D01*
X17650000Y-6165200D02*
X17650000Y-6266800D01*
X17599200Y-6216000D02*
X17700800Y-6216000D01*
X17599200Y-6419200D02*
X17700800Y-6520800D01*
X17700800Y-6419200D02*
X17599200Y-6520800D01*
X17650000Y-6419200D02*
X17650000Y-6520800D01*
X17599200Y-6470000D02*
X17700800Y-6470000D01*
X17599200Y-6673200D02*
X17700800Y-6774800D01*
X17700800Y-6673200D02*
X17599200Y-6774800D01*
X17650000Y-6673200D02*
X17650000Y-6774800D01*
X17599200Y-6724000D02*
X17700800Y-6724000D01*
X17599200Y-6927200D02*
X17700800Y-7028800D01*
X17700800Y-6927200D02*
X17599200Y-7028800D01*
X17650000Y-6927200D02*
X17650000Y-7028800D01*
X17599200Y-6978000D02*
X17700800Y-6978000D01*
X17599200Y-7181200D02*
X17700800Y-7282800D01*
X17700800Y-7181200D02*
X17599200Y-7282800D01*
X17650000Y-7181200D02*
X17650000Y-7282800D01*
X17599200Y-7232000D02*
X17700800Y-7232000D01*
X17599200Y-7435200D02*
X17700800Y-7536800D01*
X17700800Y-7435200D02*
X17599200Y-7536800D01*
X17650000Y-7435200D02*
X17650000Y-7536800D01*
X17599200Y-7486000D02*
X17700800Y-7486000D01*
X17599200Y-7689200D02*
X17700800Y-7790800D01*
X17700800Y-7689200D02*
X17599200Y-7790800D01*
X17650000Y-7689200D02*
X17650000Y-7790800D01*
X17599200Y-7740000D02*
X17700800Y-7740000D01*
X17599200Y-7943200D02*
X17700800Y-8044800D01*
X17700800Y-7943200D02*
X17599200Y-8044800D01*
X17650000Y-7943200D02*
X17650000Y-8044800D01*
X17599200Y-7994000D02*
X17700800Y-7994000D01*
X10735000Y-5735000D02*
X10865000Y-5865000D01*
X10865000Y-5735000D02*
X10735000Y-5865000D01*
X10845962Y-5845962D02*
X10845962Y-5754038D01*
X10754038Y-5754038D01*
X10754038Y-5845962D01*
X10845962Y-5845962D01*
X11085000Y-4985000D02*
X11215000Y-5115000D01*
X11215000Y-4985000D02*
X11085000Y-5115000D01*
X11195962Y-5095962D02*
X11195962Y-5004038D01*
X11104038Y-5004038D01*
X11104038Y-5095962D01*
X11195962Y-5095962D01*
X11525000Y-4975000D02*
X11775000Y-5225000D01*
X11775000Y-4975000D02*
X11525000Y-5225000D01*
X11650000Y-5225000D02*
X11775000Y-5100000D01*
X11650000Y-4975000D01*
X11525000Y-5100000D01*
X11650000Y-5225000D01*
X12025000Y-4975000D02*
X12275000Y-5225000D01*
X12275000Y-4975000D02*
X12025000Y-5225000D01*
X12150000Y-5225000D02*
X12275000Y-5100000D01*
X12150000Y-4975000D01*
X12025000Y-5100000D01*
X12150000Y-5225000D01*
D12*
X8085158Y-8666984D02*
X8085158Y-8366984D01*
X8156587Y-8366984D01*
X8199444Y-8381270D01*
X8228016Y-8409842D01*
X8242301Y-8438413D01*
X8256587Y-8495556D01*
X8256587Y-8538413D01*
X8242301Y-8595556D01*
X8228016Y-8624127D01*
X8199444Y-8652699D01*
X8156587Y-8666984D01*
X8085158Y-8666984D01*
X8385158Y-8666984D02*
X8385158Y-8466984D01*
X8385158Y-8524127D02*
X8399444Y-8495556D01*
X8413730Y-8481270D01*
X8442301Y-8466984D01*
X8470873Y-8466984D01*
X8570873Y-8666984D02*
X8570873Y-8466984D01*
X8570873Y-8366984D02*
X8556587Y-8381270D01*
X8570873Y-8395556D01*
X8585158Y-8381270D01*
X8570873Y-8366984D01*
X8570873Y-8395556D01*
X8756587Y-8666984D02*
X8728016Y-8652699D01*
X8713730Y-8624127D01*
X8713730Y-8366984D01*
X8913730Y-8666984D02*
X8885158Y-8652699D01*
X8870873Y-8624127D01*
X8870873Y-8366984D01*
X9256587Y-8666984D02*
X9256587Y-8366984D01*
X9356587Y-8581270D01*
X9456587Y-8366984D01*
X9456587Y-8666984D01*
X9728016Y-8666984D02*
X9728016Y-8509842D01*
X9713730Y-8481270D01*
X9685158Y-8466984D01*
X9628016Y-8466984D01*
X9599444Y-8481270D01*
X9728016Y-8652699D02*
X9699444Y-8666984D01*
X9628016Y-8666984D01*
X9599444Y-8652699D01*
X9585158Y-8624127D01*
X9585158Y-8595556D01*
X9599444Y-8566984D01*
X9628016Y-8552699D01*
X9699444Y-8552699D01*
X9728016Y-8538413D01*
X9870873Y-8466984D02*
X9870873Y-8766984D01*
X9870873Y-8481270D02*
X9899444Y-8466984D01*
X9956587Y-8466984D01*
X9985158Y-8481270D01*
X9999444Y-8495556D01*
X10013730Y-8524127D01*
X10013730Y-8609842D01*
X9999444Y-8638413D01*
X9985158Y-8652699D01*
X9956587Y-8666984D01*
X9899444Y-8666984D01*
X9870873Y-8652699D01*
X10142301Y-8638413D02*
X10156587Y-8652699D01*
X10142301Y-8666984D01*
X10128016Y-8652699D01*
X10142301Y-8638413D01*
X10142301Y-8666984D01*
X10142301Y-8481270D02*
X10156587Y-8495556D01*
X10142301Y-8509842D01*
X10128016Y-8495556D01*
X10142301Y-8481270D01*
X10142301Y-8509842D01*
X7778730Y-9151270D02*
X7798730Y-9171270D01*
X7798730Y-9151270D02*
X7778730Y-9171270D01*
X8142301Y-8996984D02*
X8170873Y-8996984D01*
X8199444Y-9011270D01*
X8213730Y-9025556D01*
X8228016Y-9054127D01*
X8242301Y-9111270D01*
X8242301Y-9182699D01*
X8228016Y-9239842D01*
X8213730Y-9268413D01*
X8199444Y-9282699D01*
X8170873Y-9296984D01*
X8142301Y-9296984D01*
X8113730Y-9282699D01*
X8099444Y-9268413D01*
X8085158Y-9239842D01*
X8070873Y-9182699D01*
X8070873Y-9111270D01*
X8085158Y-9054127D01*
X8099444Y-9025556D01*
X8113730Y-9011270D01*
X8142301Y-8996984D01*
X8370873Y-9268413D02*
X8385158Y-9282699D01*
X8370873Y-9296984D01*
X8356587Y-9282699D01*
X8370873Y-9268413D01*
X8370873Y-9296984D01*
X8499444Y-9025556D02*
X8513730Y-9011270D01*
X8542301Y-8996984D01*
X8613730Y-8996984D01*
X8642301Y-9011270D01*
X8656587Y-9025556D01*
X8670873Y-9054127D01*
X8670873Y-9082699D01*
X8656587Y-9125556D01*
X8485158Y-9296984D01*
X8670873Y-9296984D01*
X8856587Y-8996984D02*
X8885158Y-8996984D01*
X8913730Y-9011270D01*
X8928016Y-9025556D01*
X8942301Y-9054127D01*
X8956587Y-9111270D01*
X8956587Y-9182699D01*
X8942301Y-9239842D01*
X8928016Y-9268413D01*
X8913730Y-9282699D01*
X8885158Y-9296984D01*
X8856587Y-9296984D01*
X8828016Y-9282699D01*
X8813730Y-9268413D01*
X8799444Y-9239842D01*
X8785158Y-9182699D01*
X8785158Y-9111270D01*
X8799444Y-9054127D01*
X8813730Y-9025556D01*
X8828016Y-9011270D01*
X8856587Y-8996984D01*
X9085158Y-9296984D02*
X9085158Y-9096984D01*
X9085158Y-9125556D02*
X9099444Y-9111270D01*
X9128016Y-9096984D01*
X9170873Y-9096984D01*
X9199444Y-9111270D01*
X9213730Y-9139842D01*
X9213730Y-9296984D01*
X9213730Y-9139842D02*
X9228016Y-9111270D01*
X9256587Y-9096984D01*
X9299444Y-9096984D01*
X9328016Y-9111270D01*
X9342301Y-9139842D01*
X9342301Y-9296984D01*
X9485158Y-9296984D02*
X9485158Y-9096984D01*
X9485158Y-9125556D02*
X9499444Y-9111270D01*
X9528016Y-9096984D01*
X9570873Y-9096984D01*
X9599444Y-9111270D01*
X9613730Y-9139842D01*
X9613730Y-9296984D01*
X9613730Y-9139842D02*
X9628016Y-9111270D01*
X9656587Y-9096984D01*
X9699444Y-9096984D01*
X9728016Y-9111270D01*
X9742301Y-9139842D01*
X9742301Y-9296984D01*
X10328016Y-8982699D02*
X10070873Y-9368413D01*
X10713730Y-8996984D02*
X10742301Y-8996984D01*
X10770873Y-9011270D01*
X10785158Y-9025556D01*
X10799444Y-9054127D01*
X10813730Y-9111270D01*
X10813730Y-9182699D01*
X10799444Y-9239842D01*
X10785158Y-9268413D01*
X10770873Y-9282699D01*
X10742301Y-9296984D01*
X10713730Y-9296984D01*
X10685158Y-9282699D01*
X10670873Y-9268413D01*
X10656587Y-9239842D01*
X10642301Y-9182699D01*
X10642301Y-9111270D01*
X10656587Y-9054127D01*
X10670873Y-9025556D01*
X10685158Y-9011270D01*
X10713730Y-8996984D01*
X10942301Y-9268413D02*
X10956587Y-9282699D01*
X10942301Y-9296984D01*
X10928016Y-9282699D01*
X10942301Y-9268413D01*
X10942301Y-9296984D01*
X11142301Y-8996984D02*
X11170873Y-8996984D01*
X11199444Y-9011270D01*
X11213730Y-9025556D01*
X11228016Y-9054127D01*
X11242301Y-9111270D01*
X11242301Y-9182699D01*
X11228016Y-9239842D01*
X11213730Y-9268413D01*
X11199444Y-9282699D01*
X11170873Y-9296984D01*
X11142301Y-9296984D01*
X11113730Y-9282699D01*
X11099444Y-9268413D01*
X11085158Y-9239842D01*
X11070873Y-9182699D01*
X11070873Y-9111270D01*
X11085158Y-9054127D01*
X11099444Y-9025556D01*
X11113730Y-9011270D01*
X11142301Y-8996984D01*
X11428016Y-8996984D02*
X11456587Y-8996984D01*
X11485158Y-9011270D01*
X11499444Y-9025556D01*
X11513730Y-9054127D01*
X11528016Y-9111270D01*
X11528016Y-9182699D01*
X11513730Y-9239842D01*
X11499444Y-9268413D01*
X11485158Y-9282699D01*
X11456587Y-9296984D01*
X11428016Y-9296984D01*
X11399444Y-9282699D01*
X11385158Y-9268413D01*
X11370873Y-9239842D01*
X11356587Y-9182699D01*
X11356587Y-9111270D01*
X11370873Y-9054127D01*
X11385158Y-9025556D01*
X11399444Y-9011270D01*
X11428016Y-8996984D01*
X11699444Y-9125556D02*
X11670873Y-9111270D01*
X11656587Y-9096984D01*
X11642301Y-9068413D01*
X11642301Y-9054127D01*
X11656587Y-9025556D01*
X11670873Y-9011270D01*
X11699444Y-8996984D01*
X11756587Y-8996984D01*
X11785158Y-9011270D01*
X11799444Y-9025556D01*
X11813730Y-9054127D01*
X11813730Y-9068413D01*
X11799444Y-9096984D01*
X11785158Y-9111270D01*
X11756587Y-9125556D01*
X11699444Y-9125556D01*
X11670873Y-9139842D01*
X11656587Y-9154127D01*
X11642301Y-9182699D01*
X11642301Y-9239842D01*
X11656587Y-9268413D01*
X11670873Y-9282699D01*
X11699444Y-9296984D01*
X11756587Y-9296984D01*
X11785158Y-9282699D01*
X11799444Y-9268413D01*
X11813730Y-9239842D01*
X11813730Y-9182699D01*
X11799444Y-9154127D01*
X11785158Y-9139842D01*
X11756587Y-9125556D01*
X11928016Y-8996984D02*
X11928016Y-9054127D01*
X12042301Y-8996984D02*
X12042301Y-9054127D01*
X12485158Y-9411270D02*
X12470873Y-9396984D01*
X12442301Y-9354127D01*
X12428016Y-9325556D01*
X12413730Y-9282699D01*
X12399444Y-9211270D01*
X12399444Y-9154127D01*
X12413730Y-9082699D01*
X12428016Y-9039842D01*
X12442301Y-9011270D01*
X12470873Y-8968413D01*
X12485158Y-8954127D01*
X12728016Y-8996984D02*
X12670873Y-8996984D01*
X12642301Y-9011270D01*
X12628016Y-9025556D01*
X12599444Y-9068413D01*
X12585158Y-9125556D01*
X12585158Y-9239842D01*
X12599444Y-9268413D01*
X12613730Y-9282699D01*
X12642301Y-9296984D01*
X12699444Y-9296984D01*
X12728016Y-9282699D01*
X12742301Y-9268413D01*
X12756587Y-9239842D01*
X12756587Y-9168413D01*
X12742301Y-9139842D01*
X12728016Y-9125556D01*
X12699444Y-9111270D01*
X12642301Y-9111270D01*
X12613730Y-9125556D01*
X12599444Y-9139842D01*
X12585158Y-9168413D01*
X13113730Y-9296984D02*
X13113730Y-8996984D01*
X13242301Y-9296984D02*
X13242301Y-9139842D01*
X13228016Y-9111270D01*
X13199444Y-9096984D01*
X13156587Y-9096984D01*
X13128016Y-9111270D01*
X13113730Y-9125556D01*
X13428016Y-9296984D02*
X13399444Y-9282699D01*
X13385158Y-9268413D01*
X13370873Y-9239842D01*
X13370873Y-9154127D01*
X13385158Y-9125556D01*
X13399444Y-9111270D01*
X13428016Y-9096984D01*
X13470873Y-9096984D01*
X13499444Y-9111270D01*
X13513730Y-9125556D01*
X13528016Y-9154127D01*
X13528016Y-9239842D01*
X13513730Y-9268413D01*
X13499444Y-9282699D01*
X13470873Y-9296984D01*
X13428016Y-9296984D01*
X13699444Y-9296984D02*
X13670873Y-9282699D01*
X13656587Y-9254127D01*
X13656587Y-8996984D01*
X13928016Y-9282699D02*
X13899444Y-9296984D01*
X13842301Y-9296984D01*
X13813730Y-9282699D01*
X13799444Y-9254127D01*
X13799444Y-9139842D01*
X13813730Y-9111270D01*
X13842301Y-9096984D01*
X13899444Y-9096984D01*
X13928016Y-9111270D01*
X13942301Y-9139842D01*
X13942301Y-9168413D01*
X13799444Y-9196984D01*
X14056587Y-9282699D02*
X14085158Y-9296984D01*
X14142301Y-9296984D01*
X14170873Y-9282699D01*
X14185158Y-9254127D01*
X14185158Y-9239842D01*
X14170873Y-9211270D01*
X14142301Y-9196984D01*
X14099444Y-9196984D01*
X14070873Y-9182699D01*
X14056587Y-9154127D01*
X14056587Y-9139842D01*
X14070873Y-9111270D01*
X14099444Y-9096984D01*
X14142301Y-9096984D01*
X14170873Y-9111270D01*
X14285158Y-9411270D02*
X14299444Y-9396984D01*
X14328016Y-9354127D01*
X14342301Y-9325556D01*
X14356587Y-9282699D01*
X14370873Y-9211270D01*
X14370873Y-9154127D01*
X14356587Y-9082699D01*
X14342301Y-9039842D01*
X14328016Y-9011270D01*
X14299444Y-8968413D01*
X14285158Y-8954127D01*
X7798730Y-9557270D02*
G75*
G03*
X7798730Y-9557270I-15240J0D01*
G01*
X8142301Y-9392984D02*
X8170873Y-9392984D01*
X8199444Y-9407270D01*
X8213730Y-9421556D01*
X8228016Y-9450127D01*
X8242301Y-9507270D01*
X8242301Y-9578699D01*
X8228016Y-9635842D01*
X8213730Y-9664413D01*
X8199444Y-9678699D01*
X8170873Y-9692984D01*
X8142301Y-9692984D01*
X8113730Y-9678699D01*
X8099444Y-9664413D01*
X8085158Y-9635842D01*
X8070873Y-9578699D01*
X8070873Y-9507270D01*
X8085158Y-9450127D01*
X8099444Y-9421556D01*
X8113730Y-9407270D01*
X8142301Y-9392984D01*
X8370873Y-9664413D02*
X8385158Y-9678699D01*
X8370873Y-9692984D01*
X8356587Y-9678699D01*
X8370873Y-9664413D01*
X8370873Y-9692984D01*
X8485158Y-9392984D02*
X8670873Y-9392984D01*
X8570873Y-9507270D01*
X8613730Y-9507270D01*
X8642301Y-9521556D01*
X8656587Y-9535842D01*
X8670873Y-9564413D01*
X8670873Y-9635842D01*
X8656587Y-9664413D01*
X8642301Y-9678699D01*
X8613730Y-9692984D01*
X8528016Y-9692984D01*
X8499444Y-9678699D01*
X8485158Y-9664413D01*
X8856587Y-9392984D02*
X8885158Y-9392984D01*
X8913730Y-9407270D01*
X8928016Y-9421556D01*
X8942301Y-9450127D01*
X8956587Y-9507270D01*
X8956587Y-9578699D01*
X8942301Y-9635842D01*
X8928016Y-9664413D01*
X8913730Y-9678699D01*
X8885158Y-9692984D01*
X8856587Y-9692984D01*
X8828016Y-9678699D01*
X8813730Y-9664413D01*
X8799444Y-9635842D01*
X8785158Y-9578699D01*
X8785158Y-9507270D01*
X8799444Y-9450127D01*
X8813730Y-9421556D01*
X8828016Y-9407270D01*
X8856587Y-9392984D01*
X9085158Y-9692984D02*
X9085158Y-9492984D01*
X9085158Y-9521556D02*
X9099444Y-9507270D01*
X9128016Y-9492984D01*
X9170873Y-9492984D01*
X9199444Y-9507270D01*
X9213730Y-9535842D01*
X9213730Y-9692984D01*
X9213730Y-9535842D02*
X9228016Y-9507270D01*
X9256587Y-9492984D01*
X9299444Y-9492984D01*
X9328016Y-9507270D01*
X9342301Y-9535842D01*
X9342301Y-9692984D01*
X9485158Y-9692984D02*
X9485158Y-9492984D01*
X9485158Y-9521556D02*
X9499444Y-9507270D01*
X9528016Y-9492984D01*
X9570873Y-9492984D01*
X9599444Y-9507270D01*
X9613730Y-9535842D01*
X9613730Y-9692984D01*
X9613730Y-9535842D02*
X9628016Y-9507270D01*
X9656587Y-9492984D01*
X9699444Y-9492984D01*
X9728016Y-9507270D01*
X9742301Y-9535842D01*
X9742301Y-9692984D01*
X10328016Y-9378699D02*
X10070873Y-9764413D01*
X10713730Y-9392984D02*
X10742301Y-9392984D01*
X10770873Y-9407270D01*
X10785158Y-9421556D01*
X10799444Y-9450127D01*
X10813730Y-9507270D01*
X10813730Y-9578699D01*
X10799444Y-9635842D01*
X10785158Y-9664413D01*
X10770873Y-9678699D01*
X10742301Y-9692984D01*
X10713730Y-9692984D01*
X10685158Y-9678699D01*
X10670873Y-9664413D01*
X10656587Y-9635842D01*
X10642301Y-9578699D01*
X10642301Y-9507270D01*
X10656587Y-9450127D01*
X10670873Y-9421556D01*
X10685158Y-9407270D01*
X10713730Y-9392984D01*
X10942301Y-9664413D02*
X10956587Y-9678699D01*
X10942301Y-9692984D01*
X10928016Y-9678699D01*
X10942301Y-9664413D01*
X10942301Y-9692984D01*
X11142301Y-9392984D02*
X11170873Y-9392984D01*
X11199444Y-9407270D01*
X11213730Y-9421556D01*
X11228016Y-9450127D01*
X11242301Y-9507270D01*
X11242301Y-9578699D01*
X11228016Y-9635842D01*
X11213730Y-9664413D01*
X11199444Y-9678699D01*
X11170873Y-9692984D01*
X11142301Y-9692984D01*
X11113730Y-9678699D01*
X11099444Y-9664413D01*
X11085158Y-9635842D01*
X11070873Y-9578699D01*
X11070873Y-9507270D01*
X11085158Y-9450127D01*
X11099444Y-9421556D01*
X11113730Y-9407270D01*
X11142301Y-9392984D01*
X11528016Y-9692984D02*
X11356587Y-9692984D01*
X11442301Y-9692984D02*
X11442301Y-9392984D01*
X11413730Y-9435842D01*
X11385158Y-9464413D01*
X11356587Y-9478699D01*
X11642301Y-9421556D02*
X11656587Y-9407270D01*
X11685158Y-9392984D01*
X11756587Y-9392984D01*
X11785158Y-9407270D01*
X11799444Y-9421556D01*
X11813730Y-9450127D01*
X11813730Y-9478699D01*
X11799444Y-9521556D01*
X11628016Y-9692984D01*
X11813730Y-9692984D01*
X11928016Y-9392984D02*
X11928016Y-9450127D01*
X12042301Y-9392984D02*
X12042301Y-9450127D01*
X12485158Y-9807270D02*
X12470873Y-9792984D01*
X12442301Y-9750127D01*
X12428016Y-9721556D01*
X12413730Y-9678699D01*
X12399444Y-9607270D01*
X12399444Y-9550127D01*
X12413730Y-9478699D01*
X12428016Y-9435842D01*
X12442301Y-9407270D01*
X12470873Y-9364413D01*
X12485158Y-9350127D01*
X12756587Y-9692984D02*
X12585158Y-9692984D01*
X12670873Y-9692984D02*
X12670873Y-9392984D01*
X12642301Y-9435842D01*
X12613730Y-9464413D01*
X12585158Y-9478699D01*
X12856587Y-9392984D02*
X13056587Y-9392984D01*
X12928016Y-9692984D01*
X13399444Y-9692984D02*
X13399444Y-9392984D01*
X13528016Y-9692984D02*
X13528016Y-9535842D01*
X13513730Y-9507270D01*
X13485158Y-9492984D01*
X13442301Y-9492984D01*
X13413730Y-9507270D01*
X13399444Y-9521556D01*
X13713730Y-9692984D02*
X13685158Y-9678699D01*
X13670873Y-9664413D01*
X13656587Y-9635842D01*
X13656587Y-9550127D01*
X13670873Y-9521556D01*
X13685158Y-9507270D01*
X13713730Y-9492984D01*
X13756587Y-9492984D01*
X13785158Y-9507270D01*
X13799444Y-9521556D01*
X13813730Y-9550127D01*
X13813730Y-9635842D01*
X13799444Y-9664413D01*
X13785158Y-9678699D01*
X13756587Y-9692984D01*
X13713730Y-9692984D01*
X13985158Y-9692984D02*
X13956587Y-9678699D01*
X13942301Y-9650127D01*
X13942301Y-9392984D01*
X14213730Y-9678699D02*
X14185158Y-9692984D01*
X14128016Y-9692984D01*
X14099444Y-9678699D01*
X14085158Y-9650127D01*
X14085158Y-9535842D01*
X14099444Y-9507270D01*
X14128016Y-9492984D01*
X14185158Y-9492984D01*
X14213730Y-9507270D01*
X14228016Y-9535842D01*
X14228016Y-9564413D01*
X14085158Y-9592984D01*
X14342301Y-9678699D02*
X14370873Y-9692984D01*
X14428016Y-9692984D01*
X14456587Y-9678699D01*
X14470873Y-9650127D01*
X14470873Y-9635842D01*
X14456587Y-9607270D01*
X14428016Y-9592984D01*
X14385158Y-9592984D01*
X14356587Y-9578699D01*
X14342301Y-9550127D01*
X14342301Y-9535842D01*
X14356587Y-9507270D01*
X14385158Y-9492984D01*
X14428016Y-9492984D01*
X14456587Y-9507270D01*
X14570873Y-9807270D02*
X14585158Y-9792984D01*
X14613730Y-9750127D01*
X14628016Y-9721556D01*
X14642301Y-9678699D01*
X14656587Y-9607270D01*
X14656587Y-9550127D01*
X14642301Y-9478699D01*
X14628016Y-9435842D01*
X14613730Y-9407270D01*
X14585158Y-9364413D01*
X14570873Y-9350127D01*
X7761230Y-9915770D02*
X7761230Y-9990770D01*
X7723730Y-9953270D02*
X7798730Y-9953270D01*
X8142301Y-9788984D02*
X8170873Y-9788984D01*
X8199444Y-9803270D01*
X8213730Y-9817556D01*
X8228016Y-9846127D01*
X8242301Y-9903270D01*
X8242301Y-9974699D01*
X8228016Y-10031842D01*
X8213730Y-10060413D01*
X8199444Y-10074699D01*
X8170873Y-10088984D01*
X8142301Y-10088984D01*
X8113730Y-10074699D01*
X8099444Y-10060413D01*
X8085158Y-10031842D01*
X8070873Y-9974699D01*
X8070873Y-9903270D01*
X8085158Y-9846127D01*
X8099444Y-9817556D01*
X8113730Y-9803270D01*
X8142301Y-9788984D01*
X8370873Y-10060413D02*
X8385158Y-10074699D01*
X8370873Y-10088984D01*
X8356587Y-10074699D01*
X8370873Y-10060413D01*
X8370873Y-10088984D01*
X8485158Y-9788984D02*
X8685158Y-9788984D01*
X8556587Y-10088984D01*
X8942301Y-9788984D02*
X8799444Y-9788984D01*
X8785158Y-9931842D01*
X8799444Y-9917556D01*
X8828016Y-9903270D01*
X8899444Y-9903270D01*
X8928016Y-9917556D01*
X8942301Y-9931842D01*
X8956587Y-9960413D01*
X8956587Y-10031842D01*
X8942301Y-10060413D01*
X8928016Y-10074699D01*
X8899444Y-10088984D01*
X8828016Y-10088984D01*
X8799444Y-10074699D01*
X8785158Y-10060413D01*
X9085158Y-10088984D02*
X9085158Y-9888984D01*
X9085158Y-9917556D02*
X9099444Y-9903270D01*
X9128016Y-9888984D01*
X9170873Y-9888984D01*
X9199444Y-9903270D01*
X9213730Y-9931842D01*
X9213730Y-10088984D01*
X9213730Y-9931842D02*
X9228016Y-9903270D01*
X9256587Y-9888984D01*
X9299444Y-9888984D01*
X9328016Y-9903270D01*
X9342301Y-9931842D01*
X9342301Y-10088984D01*
X9485158Y-10088984D02*
X9485158Y-9888984D01*
X9485158Y-9917556D02*
X9499444Y-9903270D01*
X9528016Y-9888984D01*
X9570873Y-9888984D01*
X9599444Y-9903270D01*
X9613730Y-9931842D01*
X9613730Y-10088984D01*
X9613730Y-9931842D02*
X9628016Y-9903270D01*
X9656587Y-9888984D01*
X9699444Y-9888984D01*
X9728016Y-9903270D01*
X9742301Y-9931842D01*
X9742301Y-10088984D01*
X10328016Y-9774699D02*
X10070873Y-10160413D01*
X10713730Y-9788984D02*
X10742301Y-9788984D01*
X10770873Y-9803270D01*
X10785158Y-9817556D01*
X10799444Y-9846127D01*
X10813730Y-9903270D01*
X10813730Y-9974699D01*
X10799444Y-10031842D01*
X10785158Y-10060413D01*
X10770873Y-10074699D01*
X10742301Y-10088984D01*
X10713730Y-10088984D01*
X10685158Y-10074699D01*
X10670873Y-10060413D01*
X10656587Y-10031842D01*
X10642301Y-9974699D01*
X10642301Y-9903270D01*
X10656587Y-9846127D01*
X10670873Y-9817556D01*
X10685158Y-9803270D01*
X10713730Y-9788984D01*
X10942301Y-10060413D02*
X10956587Y-10074699D01*
X10942301Y-10088984D01*
X10928016Y-10074699D01*
X10942301Y-10060413D01*
X10942301Y-10088984D01*
X11142301Y-9788984D02*
X11170873Y-9788984D01*
X11199444Y-9803270D01*
X11213730Y-9817556D01*
X11228016Y-9846127D01*
X11242301Y-9903270D01*
X11242301Y-9974699D01*
X11228016Y-10031842D01*
X11213730Y-10060413D01*
X11199444Y-10074699D01*
X11170873Y-10088984D01*
X11142301Y-10088984D01*
X11113730Y-10074699D01*
X11099444Y-10060413D01*
X11085158Y-10031842D01*
X11070873Y-9974699D01*
X11070873Y-9903270D01*
X11085158Y-9846127D01*
X11099444Y-9817556D01*
X11113730Y-9803270D01*
X11142301Y-9788984D01*
X11342301Y-9788984D02*
X11528016Y-9788984D01*
X11428016Y-9903270D01*
X11470873Y-9903270D01*
X11499444Y-9917556D01*
X11513730Y-9931842D01*
X11528016Y-9960413D01*
X11528016Y-10031842D01*
X11513730Y-10060413D01*
X11499444Y-10074699D01*
X11470873Y-10088984D01*
X11385158Y-10088984D01*
X11356587Y-10074699D01*
X11342301Y-10060413D01*
X11713730Y-9788984D02*
X11742301Y-9788984D01*
X11770873Y-9803270D01*
X11785158Y-9817556D01*
X11799444Y-9846127D01*
X11813730Y-9903270D01*
X11813730Y-9974699D01*
X11799444Y-10031842D01*
X11785158Y-10060413D01*
X11770873Y-10074699D01*
X11742301Y-10088984D01*
X11713730Y-10088984D01*
X11685158Y-10074699D01*
X11670873Y-10060413D01*
X11656587Y-10031842D01*
X11642301Y-9974699D01*
X11642301Y-9903270D01*
X11656587Y-9846127D01*
X11670873Y-9817556D01*
X11685158Y-9803270D01*
X11713730Y-9788984D01*
X11928016Y-9788984D02*
X11928016Y-9846127D01*
X12042301Y-9788984D02*
X12042301Y-9846127D01*
X12485158Y-10203270D02*
X12470873Y-10188984D01*
X12442301Y-10146127D01*
X12428016Y-10117556D01*
X12413730Y-10074699D01*
X12399444Y-10003270D01*
X12399444Y-9946127D01*
X12413730Y-9874699D01*
X12428016Y-9831842D01*
X12442301Y-9803270D01*
X12470873Y-9760413D01*
X12485158Y-9746127D01*
X12742301Y-9788984D02*
X12599444Y-9788984D01*
X12585158Y-9931842D01*
X12599444Y-9917556D01*
X12628016Y-9903270D01*
X12699444Y-9903270D01*
X12728016Y-9917556D01*
X12742301Y-9931842D01*
X12756587Y-9960413D01*
X12756587Y-10031842D01*
X12742301Y-10060413D01*
X12728016Y-10074699D01*
X12699444Y-10088984D01*
X12628016Y-10088984D01*
X12599444Y-10074699D01*
X12585158Y-10060413D01*
X13113730Y-10088984D02*
X13113730Y-9788984D01*
X13242301Y-10088984D02*
X13242301Y-9931842D01*
X13228016Y-9903270D01*
X13199444Y-9888984D01*
X13156587Y-9888984D01*
X13128016Y-9903270D01*
X13113730Y-9917556D01*
X13428016Y-10088984D02*
X13399444Y-10074699D01*
X13385158Y-10060413D01*
X13370873Y-10031842D01*
X13370873Y-9946127D01*
X13385158Y-9917556D01*
X13399444Y-9903270D01*
X13428016Y-9888984D01*
X13470873Y-9888984D01*
X13499444Y-9903270D01*
X13513730Y-9917556D01*
X13528016Y-9946127D01*
X13528016Y-10031842D01*
X13513730Y-10060413D01*
X13499444Y-10074699D01*
X13470873Y-10088984D01*
X13428016Y-10088984D01*
X13699444Y-10088984D02*
X13670873Y-10074699D01*
X13656587Y-10046127D01*
X13656587Y-9788984D01*
X13928016Y-10074699D02*
X13899444Y-10088984D01*
X13842301Y-10088984D01*
X13813730Y-10074699D01*
X13799444Y-10046127D01*
X13799444Y-9931842D01*
X13813730Y-9903270D01*
X13842301Y-9888984D01*
X13899444Y-9888984D01*
X13928016Y-9903270D01*
X13942301Y-9931842D01*
X13942301Y-9960413D01*
X13799444Y-9988984D01*
X14056587Y-10074699D02*
X14085158Y-10088984D01*
X14142301Y-10088984D01*
X14170873Y-10074699D01*
X14185158Y-10046127D01*
X14185158Y-10031842D01*
X14170873Y-10003270D01*
X14142301Y-9988984D01*
X14099444Y-9988984D01*
X14070873Y-9974699D01*
X14056587Y-9946127D01*
X14056587Y-9931842D01*
X14070873Y-9903270D01*
X14099444Y-9888984D01*
X14142301Y-9888984D01*
X14170873Y-9903270D01*
X14285158Y-10203270D02*
X14299444Y-10188984D01*
X14328016Y-10146127D01*
X14342301Y-10117556D01*
X14356587Y-10074699D01*
X14370873Y-10003270D01*
X14370873Y-9946127D01*
X14356587Y-9874699D01*
X14342301Y-9831842D01*
X14328016Y-9803270D01*
X14299444Y-9760413D01*
X14285158Y-9746127D01*
X7787014Y-10377555D02*
X7787014Y-10320986D01*
X7730445Y-10320986D01*
X7730445Y-10377555D01*
X7787014Y-10377555D01*
X8142301Y-10184984D02*
X8170873Y-10184984D01*
X8199444Y-10199270D01*
X8213730Y-10213556D01*
X8228016Y-10242127D01*
X8242301Y-10299270D01*
X8242301Y-10370699D01*
X8228016Y-10427842D01*
X8213730Y-10456413D01*
X8199444Y-10470699D01*
X8170873Y-10484984D01*
X8142301Y-10484984D01*
X8113730Y-10470699D01*
X8099444Y-10456413D01*
X8085158Y-10427842D01*
X8070873Y-10370699D01*
X8070873Y-10299270D01*
X8085158Y-10242127D01*
X8099444Y-10213556D01*
X8113730Y-10199270D01*
X8142301Y-10184984D01*
X8370873Y-10456413D02*
X8385158Y-10470699D01*
X8370873Y-10484984D01*
X8356587Y-10470699D01*
X8370873Y-10456413D01*
X8370873Y-10484984D01*
X8556587Y-10313556D02*
X8528016Y-10299270D01*
X8513730Y-10284984D01*
X8499444Y-10256413D01*
X8499444Y-10242127D01*
X8513730Y-10213556D01*
X8528016Y-10199270D01*
X8556587Y-10184984D01*
X8613730Y-10184984D01*
X8642301Y-10199270D01*
X8656587Y-10213556D01*
X8670873Y-10242127D01*
X8670873Y-10256413D01*
X8656587Y-10284984D01*
X8642301Y-10299270D01*
X8613730Y-10313556D01*
X8556587Y-10313556D01*
X8528016Y-10327842D01*
X8513730Y-10342127D01*
X8499444Y-10370699D01*
X8499444Y-10427842D01*
X8513730Y-10456413D01*
X8528016Y-10470699D01*
X8556587Y-10484984D01*
X8613730Y-10484984D01*
X8642301Y-10470699D01*
X8656587Y-10456413D01*
X8670873Y-10427842D01*
X8670873Y-10370699D01*
X8656587Y-10342127D01*
X8642301Y-10327842D01*
X8613730Y-10313556D01*
X8856587Y-10184984D02*
X8885158Y-10184984D01*
X8913730Y-10199270D01*
X8928016Y-10213556D01*
X8942301Y-10242127D01*
X8956587Y-10299270D01*
X8956587Y-10370699D01*
X8942301Y-10427842D01*
X8928016Y-10456413D01*
X8913730Y-10470699D01*
X8885158Y-10484984D01*
X8856587Y-10484984D01*
X8828016Y-10470699D01*
X8813730Y-10456413D01*
X8799444Y-10427842D01*
X8785158Y-10370699D01*
X8785158Y-10299270D01*
X8799444Y-10242127D01*
X8813730Y-10213556D01*
X8828016Y-10199270D01*
X8856587Y-10184984D01*
X9085158Y-10484984D02*
X9085158Y-10284984D01*
X9085158Y-10313556D02*
X9099444Y-10299270D01*
X9128016Y-10284984D01*
X9170873Y-10284984D01*
X9199444Y-10299270D01*
X9213730Y-10327842D01*
X9213730Y-10484984D01*
X9213730Y-10327842D02*
X9228016Y-10299270D01*
X9256587Y-10284984D01*
X9299444Y-10284984D01*
X9328016Y-10299270D01*
X9342301Y-10327842D01*
X9342301Y-10484984D01*
X9485158Y-10484984D02*
X9485158Y-10284984D01*
X9485158Y-10313556D02*
X9499444Y-10299270D01*
X9528016Y-10284984D01*
X9570873Y-10284984D01*
X9599444Y-10299270D01*
X9613730Y-10327842D01*
X9613730Y-10484984D01*
X9613730Y-10327842D02*
X9628016Y-10299270D01*
X9656587Y-10284984D01*
X9699444Y-10284984D01*
X9728016Y-10299270D01*
X9742301Y-10327842D01*
X9742301Y-10484984D01*
X10328016Y-10170699D02*
X10070873Y-10556413D01*
X10713730Y-10184984D02*
X10742301Y-10184984D01*
X10770873Y-10199270D01*
X10785158Y-10213556D01*
X10799444Y-10242127D01*
X10813730Y-10299270D01*
X10813730Y-10370699D01*
X10799444Y-10427842D01*
X10785158Y-10456413D01*
X10770873Y-10470699D01*
X10742301Y-10484984D01*
X10713730Y-10484984D01*
X10685158Y-10470699D01*
X10670873Y-10456413D01*
X10656587Y-10427842D01*
X10642301Y-10370699D01*
X10642301Y-10299270D01*
X10656587Y-10242127D01*
X10670873Y-10213556D01*
X10685158Y-10199270D01*
X10713730Y-10184984D01*
X10942301Y-10456413D02*
X10956587Y-10470699D01*
X10942301Y-10484984D01*
X10928016Y-10470699D01*
X10942301Y-10456413D01*
X10942301Y-10484984D01*
X11142301Y-10184984D02*
X11170873Y-10184984D01*
X11199444Y-10199270D01*
X11213730Y-10213556D01*
X11228016Y-10242127D01*
X11242301Y-10299270D01*
X11242301Y-10370699D01*
X11228016Y-10427842D01*
X11213730Y-10456413D01*
X11199444Y-10470699D01*
X11170873Y-10484984D01*
X11142301Y-10484984D01*
X11113730Y-10470699D01*
X11099444Y-10456413D01*
X11085158Y-10427842D01*
X11070873Y-10370699D01*
X11070873Y-10299270D01*
X11085158Y-10242127D01*
X11099444Y-10213556D01*
X11113730Y-10199270D01*
X11142301Y-10184984D01*
X11342301Y-10184984D02*
X11528016Y-10184984D01*
X11428016Y-10299270D01*
X11470873Y-10299270D01*
X11499444Y-10313556D01*
X11513730Y-10327842D01*
X11528016Y-10356413D01*
X11528016Y-10427842D01*
X11513730Y-10456413D01*
X11499444Y-10470699D01*
X11470873Y-10484984D01*
X11385158Y-10484984D01*
X11356587Y-10470699D01*
X11342301Y-10456413D01*
X11813730Y-10484984D02*
X11642301Y-10484984D01*
X11728016Y-10484984D02*
X11728016Y-10184984D01*
X11699444Y-10227842D01*
X11670873Y-10256413D01*
X11642301Y-10270699D01*
X11928016Y-10184984D02*
X11928016Y-10242127D01*
X12042301Y-10184984D02*
X12042301Y-10242127D01*
X12485158Y-10599270D02*
X12470873Y-10584984D01*
X12442301Y-10542127D01*
X12428016Y-10513556D01*
X12413730Y-10470699D01*
X12399444Y-10399270D01*
X12399444Y-10342127D01*
X12413730Y-10270699D01*
X12428016Y-10227842D01*
X12442301Y-10199270D01*
X12470873Y-10156413D01*
X12485158Y-10142127D01*
X12585158Y-10213556D02*
X12599444Y-10199270D01*
X12628016Y-10184984D01*
X12699444Y-10184984D01*
X12728016Y-10199270D01*
X12742301Y-10213556D01*
X12756587Y-10242127D01*
X12756587Y-10270699D01*
X12742301Y-10313556D01*
X12570873Y-10484984D01*
X12756587Y-10484984D01*
X13113730Y-10484984D02*
X13113730Y-10184984D01*
X13242301Y-10484984D02*
X13242301Y-10327842D01*
X13228016Y-10299270D01*
X13199444Y-10284984D01*
X13156587Y-10284984D01*
X13128016Y-10299270D01*
X13113730Y-10313556D01*
X13428016Y-10484984D02*
X13399444Y-10470699D01*
X13385158Y-10456413D01*
X13370873Y-10427842D01*
X13370873Y-10342127D01*
X13385158Y-10313556D01*
X13399444Y-10299270D01*
X13428016Y-10284984D01*
X13470873Y-10284984D01*
X13499444Y-10299270D01*
X13513730Y-10313556D01*
X13528016Y-10342127D01*
X13528016Y-10427842D01*
X13513730Y-10456413D01*
X13499444Y-10470699D01*
X13470873Y-10484984D01*
X13428016Y-10484984D01*
X13699444Y-10484984D02*
X13670873Y-10470699D01*
X13656587Y-10442127D01*
X13656587Y-10184984D01*
X13928016Y-10470699D02*
X13899444Y-10484984D01*
X13842301Y-10484984D01*
X13813730Y-10470699D01*
X13799444Y-10442127D01*
X13799444Y-10327842D01*
X13813730Y-10299270D01*
X13842301Y-10284984D01*
X13899444Y-10284984D01*
X13928016Y-10299270D01*
X13942301Y-10327842D01*
X13942301Y-10356413D01*
X13799444Y-10384984D01*
X14056587Y-10470699D02*
X14085158Y-10484984D01*
X14142301Y-10484984D01*
X14170873Y-10470699D01*
X14185158Y-10442127D01*
X14185158Y-10427842D01*
X14170873Y-10399270D01*
X14142301Y-10384984D01*
X14099444Y-10384984D01*
X14070873Y-10370699D01*
X14056587Y-10342127D01*
X14056587Y-10327842D01*
X14070873Y-10299270D01*
X14099444Y-10284984D01*
X14142301Y-10284984D01*
X14170873Y-10299270D01*
X14285158Y-10599270D02*
X14299444Y-10584984D01*
X14328016Y-10542127D01*
X14342301Y-10513556D01*
X14356587Y-10470699D01*
X14370873Y-10399270D01*
X14370873Y-10342127D01*
X14356587Y-10270699D01*
X14342301Y-10227842D01*
X14328016Y-10199270D01*
X14299444Y-10156413D01*
X14285158Y-10142127D01*
X7751230Y-10792770D02*
X7798730Y-10745270D01*
X7751230Y-10697770D01*
X7703730Y-10745270D01*
X7751230Y-10792770D01*
X8142301Y-10580984D02*
X8170873Y-10580984D01*
X8199444Y-10595270D01*
X8213730Y-10609556D01*
X8228016Y-10638127D01*
X8242301Y-10695270D01*
X8242301Y-10766699D01*
X8228016Y-10823842D01*
X8213730Y-10852413D01*
X8199444Y-10866699D01*
X8170873Y-10880984D01*
X8142301Y-10880984D01*
X8113730Y-10866699D01*
X8099444Y-10852413D01*
X8085158Y-10823842D01*
X8070873Y-10766699D01*
X8070873Y-10695270D01*
X8085158Y-10638127D01*
X8099444Y-10609556D01*
X8113730Y-10595270D01*
X8142301Y-10580984D01*
X8370873Y-10852413D02*
X8385158Y-10866699D01*
X8370873Y-10880984D01*
X8356587Y-10866699D01*
X8370873Y-10852413D01*
X8370873Y-10880984D01*
X8528016Y-10880984D02*
X8585158Y-10880984D01*
X8613730Y-10866699D01*
X8628016Y-10852413D01*
X8656587Y-10809556D01*
X8670873Y-10752413D01*
X8670873Y-10638127D01*
X8656587Y-10609556D01*
X8642301Y-10595270D01*
X8613730Y-10580984D01*
X8556587Y-10580984D01*
X8528016Y-10595270D01*
X8513730Y-10609556D01*
X8499444Y-10638127D01*
X8499444Y-10709556D01*
X8513730Y-10738127D01*
X8528016Y-10752413D01*
X8556587Y-10766699D01*
X8613730Y-10766699D01*
X8642301Y-10752413D01*
X8656587Y-10738127D01*
X8670873Y-10709556D01*
X8942301Y-10580984D02*
X8799444Y-10580984D01*
X8785158Y-10723842D01*
X8799444Y-10709556D01*
X8828016Y-10695270D01*
X8899444Y-10695270D01*
X8928016Y-10709556D01*
X8942301Y-10723842D01*
X8956587Y-10752413D01*
X8956587Y-10823842D01*
X8942301Y-10852413D01*
X8928016Y-10866699D01*
X8899444Y-10880984D01*
X8828016Y-10880984D01*
X8799444Y-10866699D01*
X8785158Y-10852413D01*
X9085158Y-10880984D02*
X9085158Y-10680984D01*
X9085158Y-10709556D02*
X9099444Y-10695270D01*
X9128016Y-10680984D01*
X9170873Y-10680984D01*
X9199444Y-10695270D01*
X9213730Y-10723842D01*
X9213730Y-10880984D01*
X9213730Y-10723842D02*
X9228016Y-10695270D01*
X9256587Y-10680984D01*
X9299444Y-10680984D01*
X9328016Y-10695270D01*
X9342301Y-10723842D01*
X9342301Y-10880984D01*
X9485158Y-10880984D02*
X9485158Y-10680984D01*
X9485158Y-10709556D02*
X9499444Y-10695270D01*
X9528016Y-10680984D01*
X9570873Y-10680984D01*
X9599444Y-10695270D01*
X9613730Y-10723842D01*
X9613730Y-10880984D01*
X9613730Y-10723842D02*
X9628016Y-10695270D01*
X9656587Y-10680984D01*
X9699444Y-10680984D01*
X9728016Y-10695270D01*
X9742301Y-10723842D01*
X9742301Y-10880984D01*
X10328016Y-10566699D02*
X10070873Y-10952413D01*
X10713730Y-10580984D02*
X10742301Y-10580984D01*
X10770873Y-10595270D01*
X10785158Y-10609556D01*
X10799444Y-10638127D01*
X10813730Y-10695270D01*
X10813730Y-10766699D01*
X10799444Y-10823842D01*
X10785158Y-10852413D01*
X10770873Y-10866699D01*
X10742301Y-10880984D01*
X10713730Y-10880984D01*
X10685158Y-10866699D01*
X10670873Y-10852413D01*
X10656587Y-10823842D01*
X10642301Y-10766699D01*
X10642301Y-10695270D01*
X10656587Y-10638127D01*
X10670873Y-10609556D01*
X10685158Y-10595270D01*
X10713730Y-10580984D01*
X10942301Y-10852413D02*
X10956587Y-10866699D01*
X10942301Y-10880984D01*
X10928016Y-10866699D01*
X10942301Y-10852413D01*
X10942301Y-10880984D01*
X11142301Y-10580984D02*
X11170873Y-10580984D01*
X11199444Y-10595270D01*
X11213730Y-10609556D01*
X11228016Y-10638127D01*
X11242301Y-10695270D01*
X11242301Y-10766699D01*
X11228016Y-10823842D01*
X11213730Y-10852413D01*
X11199444Y-10866699D01*
X11170873Y-10880984D01*
X11142301Y-10880984D01*
X11113730Y-10866699D01*
X11099444Y-10852413D01*
X11085158Y-10823842D01*
X11070873Y-10766699D01*
X11070873Y-10695270D01*
X11085158Y-10638127D01*
X11099444Y-10609556D01*
X11113730Y-10595270D01*
X11142301Y-10580984D01*
X11342301Y-10580984D02*
X11528016Y-10580984D01*
X11428016Y-10695270D01*
X11470873Y-10695270D01*
X11499444Y-10709556D01*
X11513730Y-10723842D01*
X11528016Y-10752413D01*
X11528016Y-10823842D01*
X11513730Y-10852413D01*
X11499444Y-10866699D01*
X11470873Y-10880984D01*
X11385158Y-10880984D01*
X11356587Y-10866699D01*
X11342301Y-10852413D01*
X11628016Y-10580984D02*
X11828016Y-10580984D01*
X11699444Y-10880984D01*
X11928016Y-10580984D02*
X11928016Y-10638127D01*
X12042301Y-10580984D02*
X12042301Y-10638127D01*
X12485158Y-10995270D02*
X12470873Y-10980984D01*
X12442301Y-10938127D01*
X12428016Y-10909556D01*
X12413730Y-10866699D01*
X12399444Y-10795270D01*
X12399444Y-10738127D01*
X12413730Y-10666699D01*
X12428016Y-10623842D01*
X12442301Y-10595270D01*
X12470873Y-10552413D01*
X12485158Y-10538127D01*
X12756587Y-10880984D02*
X12585158Y-10880984D01*
X12670873Y-10880984D02*
X12670873Y-10580984D01*
X12642301Y-10623842D01*
X12613730Y-10652413D01*
X12585158Y-10666699D01*
X12856587Y-10580984D02*
X13042301Y-10580984D01*
X12942301Y-10695270D01*
X12985158Y-10695270D01*
X13013730Y-10709556D01*
X13028016Y-10723842D01*
X13042301Y-10752413D01*
X13042301Y-10823842D01*
X13028016Y-10852413D01*
X13013730Y-10866699D01*
X12985158Y-10880984D01*
X12899444Y-10880984D01*
X12870873Y-10866699D01*
X12856587Y-10852413D01*
X13399444Y-10880984D02*
X13399444Y-10580984D01*
X13528016Y-10880984D02*
X13528016Y-10723842D01*
X13513730Y-10695270D01*
X13485158Y-10680984D01*
X13442301Y-10680984D01*
X13413730Y-10695270D01*
X13399444Y-10709556D01*
X13713730Y-10880984D02*
X13685158Y-10866699D01*
X13670873Y-10852413D01*
X13656587Y-10823842D01*
X13656587Y-10738127D01*
X13670873Y-10709556D01*
X13685158Y-10695270D01*
X13713730Y-10680984D01*
X13756587Y-10680984D01*
X13785158Y-10695270D01*
X13799444Y-10709556D01*
X13813730Y-10738127D01*
X13813730Y-10823842D01*
X13799444Y-10852413D01*
X13785158Y-10866699D01*
X13756587Y-10880984D01*
X13713730Y-10880984D01*
X13985158Y-10880984D02*
X13956587Y-10866699D01*
X13942301Y-10838127D01*
X13942301Y-10580984D01*
X14213730Y-10866699D02*
X14185158Y-10880984D01*
X14128016Y-10880984D01*
X14099444Y-10866699D01*
X14085158Y-10838127D01*
X14085158Y-10723842D01*
X14099444Y-10695270D01*
X14128016Y-10680984D01*
X14185158Y-10680984D01*
X14213730Y-10695270D01*
X14228016Y-10723842D01*
X14228016Y-10752413D01*
X14085158Y-10780984D01*
X14342301Y-10866699D02*
X14370873Y-10880984D01*
X14428016Y-10880984D01*
X14456587Y-10866699D01*
X14470873Y-10838127D01*
X14470873Y-10823842D01*
X14456587Y-10795270D01*
X14428016Y-10780984D01*
X14385158Y-10780984D01*
X14356587Y-10766699D01*
X14342301Y-10738127D01*
X14342301Y-10723842D01*
X14356587Y-10695270D01*
X14385158Y-10680984D01*
X14428016Y-10680984D01*
X14456587Y-10695270D01*
X14570873Y-10995270D02*
X14585158Y-10980984D01*
X14613730Y-10938127D01*
X14628016Y-10909556D01*
X14642301Y-10866699D01*
X14656587Y-10795270D01*
X14656587Y-10738127D01*
X14642301Y-10666699D01*
X14628016Y-10623842D01*
X14613730Y-10595270D01*
X14585158Y-10552413D01*
X14570873Y-10538127D01*
X7698730Y-11091270D02*
X7798730Y-11191270D01*
X7798730Y-11091270D02*
X7698730Y-11191270D01*
X7798730Y-11141270D02*
G75*
G03*
X7798730Y-11141270I-50000J0D01*
G01*
X8242301Y-11276984D02*
X8070873Y-11276984D01*
X8156587Y-11276984D02*
X8156587Y-10976984D01*
X8128016Y-11019842D01*
X8099444Y-11048413D01*
X8070873Y-11062699D01*
X8370873Y-11248413D02*
X8385158Y-11262699D01*
X8370873Y-11276984D01*
X8356587Y-11262699D01*
X8370873Y-11248413D01*
X8370873Y-11276984D01*
X8570873Y-10976984D02*
X8599444Y-10976984D01*
X8628016Y-10991270D01*
X8642301Y-11005556D01*
X8656587Y-11034127D01*
X8670873Y-11091270D01*
X8670873Y-11162699D01*
X8656587Y-11219841D01*
X8642301Y-11248413D01*
X8628016Y-11262699D01*
X8599444Y-11276984D01*
X8570873Y-11276984D01*
X8542301Y-11262699D01*
X8528016Y-11248413D01*
X8513730Y-11219841D01*
X8499444Y-11162699D01*
X8499444Y-11091270D01*
X8513730Y-11034127D01*
X8528016Y-11005556D01*
X8542301Y-10991270D01*
X8570873Y-10976984D01*
X8856587Y-10976984D02*
X8885158Y-10976984D01*
X8913730Y-10991270D01*
X8928016Y-11005556D01*
X8942301Y-11034127D01*
X8956587Y-11091270D01*
X8956587Y-11162699D01*
X8942301Y-11219841D01*
X8928016Y-11248413D01*
X8913730Y-11262699D01*
X8885158Y-11276984D01*
X8856587Y-11276984D01*
X8828016Y-11262699D01*
X8813730Y-11248413D01*
X8799444Y-11219841D01*
X8785158Y-11162699D01*
X8785158Y-11091270D01*
X8799444Y-11034127D01*
X8813730Y-11005556D01*
X8828016Y-10991270D01*
X8856587Y-10976984D01*
X9085158Y-11276984D02*
X9085158Y-11076984D01*
X9085158Y-11105556D02*
X9099444Y-11091270D01*
X9128016Y-11076984D01*
X9170873Y-11076984D01*
X9199444Y-11091270D01*
X9213730Y-11119842D01*
X9213730Y-11276984D01*
X9213730Y-11119842D02*
X9228016Y-11091270D01*
X9256587Y-11076984D01*
X9299444Y-11076984D01*
X9328016Y-11091270D01*
X9342301Y-11119842D01*
X9342301Y-11276984D01*
X9485158Y-11276984D02*
X9485158Y-11076984D01*
X9485158Y-11105556D02*
X9499444Y-11091270D01*
X9528016Y-11076984D01*
X9570873Y-11076984D01*
X9599444Y-11091270D01*
X9613730Y-11119842D01*
X9613730Y-11276984D01*
X9613730Y-11119842D02*
X9628016Y-11091270D01*
X9656587Y-11076984D01*
X9699444Y-11076984D01*
X9728016Y-11091270D01*
X9742301Y-11119842D01*
X9742301Y-11276984D01*
X10328016Y-10962699D02*
X10070873Y-11348413D01*
X10713730Y-10976984D02*
X10742301Y-10976984D01*
X10770873Y-10991270D01*
X10785158Y-11005556D01*
X10799444Y-11034127D01*
X10813730Y-11091270D01*
X10813730Y-11162699D01*
X10799444Y-11219841D01*
X10785158Y-11248413D01*
X10770873Y-11262699D01*
X10742301Y-11276984D01*
X10713730Y-11276984D01*
X10685158Y-11262699D01*
X10670873Y-11248413D01*
X10656587Y-11219841D01*
X10642301Y-11162699D01*
X10642301Y-11091270D01*
X10656587Y-11034127D01*
X10670873Y-11005556D01*
X10685158Y-10991270D01*
X10713730Y-10976984D01*
X10942301Y-11248413D02*
X10956587Y-11262699D01*
X10942301Y-11276984D01*
X10928016Y-11262699D01*
X10942301Y-11248413D01*
X10942301Y-11276984D01*
X11142301Y-10976984D02*
X11170873Y-10976984D01*
X11199444Y-10991270D01*
X11213730Y-11005556D01*
X11228016Y-11034127D01*
X11242301Y-11091270D01*
X11242301Y-11162699D01*
X11228016Y-11219841D01*
X11213730Y-11248413D01*
X11199444Y-11262699D01*
X11170873Y-11276984D01*
X11142301Y-11276984D01*
X11113730Y-11262699D01*
X11099444Y-11248413D01*
X11085158Y-11219841D01*
X11070873Y-11162699D01*
X11070873Y-11091270D01*
X11085158Y-11034127D01*
X11099444Y-11005556D01*
X11113730Y-10991270D01*
X11142301Y-10976984D01*
X11342301Y-10976984D02*
X11528016Y-10976984D01*
X11428016Y-11091270D01*
X11470873Y-11091270D01*
X11499444Y-11105556D01*
X11513730Y-11119842D01*
X11528016Y-11148413D01*
X11528016Y-11219841D01*
X11513730Y-11248413D01*
X11499444Y-11262699D01*
X11470873Y-11276984D01*
X11385158Y-11276984D01*
X11356587Y-11262699D01*
X11342301Y-11248413D01*
X11670873Y-11276984D02*
X11728016Y-11276984D01*
X11756587Y-11262699D01*
X11770873Y-11248413D01*
X11799444Y-11205556D01*
X11813730Y-11148413D01*
X11813730Y-11034127D01*
X11799444Y-11005556D01*
X11785158Y-10991270D01*
X11756587Y-10976984D01*
X11699444Y-10976984D01*
X11670873Y-10991270D01*
X11656587Y-11005556D01*
X11642301Y-11034127D01*
X11642301Y-11105556D01*
X11656587Y-11134127D01*
X11670873Y-11148413D01*
X11699444Y-11162699D01*
X11756587Y-11162699D01*
X11785158Y-11148413D01*
X11799444Y-11134127D01*
X11813730Y-11105556D01*
X11928016Y-10976984D02*
X11928016Y-11034127D01*
X12042301Y-10976984D02*
X12042301Y-11034127D01*
X12485158Y-11391270D02*
X12470873Y-11376984D01*
X12442301Y-11334127D01*
X12428016Y-11305556D01*
X12413730Y-11262699D01*
X12399444Y-11191270D01*
X12399444Y-11134127D01*
X12413730Y-11062699D01*
X12428016Y-11019842D01*
X12442301Y-10991270D01*
X12470873Y-10948413D01*
X12485158Y-10934127D01*
X12728016Y-10976984D02*
X12670873Y-10976984D01*
X12642301Y-10991270D01*
X12628016Y-11005556D01*
X12599444Y-11048413D01*
X12585158Y-11105556D01*
X12585158Y-11219841D01*
X12599444Y-11248413D01*
X12613730Y-11262699D01*
X12642301Y-11276984D01*
X12699444Y-11276984D01*
X12728016Y-11262699D01*
X12742301Y-11248413D01*
X12756587Y-11219841D01*
X12756587Y-11148413D01*
X12742301Y-11119842D01*
X12728016Y-11105556D01*
X12699444Y-11091270D01*
X12642301Y-11091270D01*
X12613730Y-11105556D01*
X12599444Y-11119842D01*
X12585158Y-11148413D01*
X13113730Y-11276984D02*
X13113730Y-10976984D01*
X13242301Y-11276984D02*
X13242301Y-11119842D01*
X13228016Y-11091270D01*
X13199444Y-11076984D01*
X13156587Y-11076984D01*
X13128016Y-11091270D01*
X13113730Y-11105556D01*
X13428016Y-11276984D02*
X13399444Y-11262699D01*
X13385158Y-11248413D01*
X13370873Y-11219841D01*
X13370873Y-11134127D01*
X13385158Y-11105556D01*
X13399444Y-11091270D01*
X13428016Y-11076984D01*
X13470873Y-11076984D01*
X13499444Y-11091270D01*
X13513730Y-11105556D01*
X13528016Y-11134127D01*
X13528016Y-11219841D01*
X13513730Y-11248413D01*
X13499444Y-11262699D01*
X13470873Y-11276984D01*
X13428016Y-11276984D01*
X13699444Y-11276984D02*
X13670873Y-11262699D01*
X13656587Y-11234127D01*
X13656587Y-10976984D01*
X13928016Y-11262699D02*
X13899444Y-11276984D01*
X13842301Y-11276984D01*
X13813730Y-11262699D01*
X13799444Y-11234127D01*
X13799444Y-11119842D01*
X13813730Y-11091270D01*
X13842301Y-11076984D01*
X13899444Y-11076984D01*
X13928016Y-11091270D01*
X13942301Y-11119842D01*
X13942301Y-11148413D01*
X13799444Y-11176984D01*
X14056587Y-11262699D02*
X14085158Y-11276984D01*
X14142301Y-11276984D01*
X14170873Y-11262699D01*
X14185158Y-11234127D01*
X14185158Y-11219841D01*
X14170873Y-11191270D01*
X14142301Y-11176984D01*
X14099444Y-11176984D01*
X14070873Y-11162699D01*
X14056587Y-11134127D01*
X14056587Y-11119842D01*
X14070873Y-11091270D01*
X14099444Y-11076984D01*
X14142301Y-11076984D01*
X14170873Y-11091270D01*
X14285158Y-11391270D02*
X14299444Y-11376984D01*
X14328016Y-11334127D01*
X14342301Y-11305556D01*
X14356587Y-11262699D01*
X14370873Y-11191270D01*
X14370873Y-11134127D01*
X14356587Y-11062699D01*
X14342301Y-11019842D01*
X14328016Y-10991270D01*
X14299444Y-10948413D01*
X14285158Y-10934127D01*
X7697130Y-11486470D02*
X7798730Y-11588070D01*
X7798730Y-11486470D02*
X7697130Y-11588070D01*
X7747930Y-11486470D02*
X7747930Y-11588070D01*
X7697130Y-11537270D02*
X7798730Y-11537270D01*
X8242301Y-11672984D02*
X8070873Y-11672984D01*
X8156587Y-11672984D02*
X8156587Y-11372984D01*
X8128016Y-11415841D01*
X8099444Y-11444413D01*
X8070873Y-11458699D01*
X8370873Y-11644413D02*
X8385158Y-11658699D01*
X8370873Y-11672984D01*
X8356587Y-11658699D01*
X8370873Y-11644413D01*
X8370873Y-11672984D01*
X8570873Y-11372984D02*
X8599444Y-11372984D01*
X8628016Y-11387270D01*
X8642301Y-11401556D01*
X8656587Y-11430127D01*
X8670873Y-11487270D01*
X8670873Y-11558699D01*
X8656587Y-11615841D01*
X8642301Y-11644413D01*
X8628016Y-11658699D01*
X8599444Y-11672984D01*
X8570873Y-11672984D01*
X8542301Y-11658699D01*
X8528016Y-11644413D01*
X8513730Y-11615841D01*
X8499444Y-11558699D01*
X8499444Y-11487270D01*
X8513730Y-11430127D01*
X8528016Y-11401556D01*
X8542301Y-11387270D01*
X8570873Y-11372984D01*
X8785158Y-11401556D02*
X8799444Y-11387270D01*
X8828016Y-11372984D01*
X8899444Y-11372984D01*
X8928016Y-11387270D01*
X8942301Y-11401556D01*
X8956587Y-11430127D01*
X8956587Y-11458699D01*
X8942301Y-11501556D01*
X8770873Y-11672984D01*
X8956587Y-11672984D01*
X9085158Y-11672984D02*
X9085158Y-11472984D01*
X9085158Y-11501556D02*
X9099444Y-11487270D01*
X9128016Y-11472984D01*
X9170873Y-11472984D01*
X9199444Y-11487270D01*
X9213730Y-11515841D01*
X9213730Y-11672984D01*
X9213730Y-11515841D02*
X9228016Y-11487270D01*
X9256587Y-11472984D01*
X9299444Y-11472984D01*
X9328016Y-11487270D01*
X9342301Y-11515841D01*
X9342301Y-11672984D01*
X9485158Y-11672984D02*
X9485158Y-11472984D01*
X9485158Y-11501556D02*
X9499444Y-11487270D01*
X9528016Y-11472984D01*
X9570873Y-11472984D01*
X9599444Y-11487270D01*
X9613730Y-11515841D01*
X9613730Y-11672984D01*
X9613730Y-11515841D02*
X9628016Y-11487270D01*
X9656587Y-11472984D01*
X9699444Y-11472984D01*
X9728016Y-11487270D01*
X9742301Y-11515841D01*
X9742301Y-11672984D01*
X10328016Y-11358699D02*
X10070873Y-11744413D01*
X10713730Y-11372984D02*
X10742301Y-11372984D01*
X10770873Y-11387270D01*
X10785158Y-11401556D01*
X10799444Y-11430127D01*
X10813730Y-11487270D01*
X10813730Y-11558699D01*
X10799444Y-11615841D01*
X10785158Y-11644413D01*
X10770873Y-11658699D01*
X10742301Y-11672984D01*
X10713730Y-11672984D01*
X10685158Y-11658699D01*
X10670873Y-11644413D01*
X10656587Y-11615841D01*
X10642301Y-11558699D01*
X10642301Y-11487270D01*
X10656587Y-11430127D01*
X10670873Y-11401556D01*
X10685158Y-11387270D01*
X10713730Y-11372984D01*
X10942301Y-11644413D02*
X10956587Y-11658699D01*
X10942301Y-11672984D01*
X10928016Y-11658699D01*
X10942301Y-11644413D01*
X10942301Y-11672984D01*
X11142301Y-11372984D02*
X11170873Y-11372984D01*
X11199444Y-11387270D01*
X11213730Y-11401556D01*
X11228016Y-11430127D01*
X11242301Y-11487270D01*
X11242301Y-11558699D01*
X11228016Y-11615841D01*
X11213730Y-11644413D01*
X11199444Y-11658699D01*
X11170873Y-11672984D01*
X11142301Y-11672984D01*
X11113730Y-11658699D01*
X11099444Y-11644413D01*
X11085158Y-11615841D01*
X11070873Y-11558699D01*
X11070873Y-11487270D01*
X11085158Y-11430127D01*
X11099444Y-11401556D01*
X11113730Y-11387270D01*
X11142301Y-11372984D01*
X11499444Y-11472984D02*
X11499444Y-11672984D01*
X11428016Y-11358699D02*
X11356587Y-11572984D01*
X11542301Y-11572984D01*
X11713730Y-11372984D02*
X11742301Y-11372984D01*
X11770873Y-11387270D01*
X11785158Y-11401556D01*
X11799444Y-11430127D01*
X11813730Y-11487270D01*
X11813730Y-11558699D01*
X11799444Y-11615841D01*
X11785158Y-11644413D01*
X11770873Y-11658699D01*
X11742301Y-11672984D01*
X11713730Y-11672984D01*
X11685158Y-11658699D01*
X11670873Y-11644413D01*
X11656587Y-11615841D01*
X11642301Y-11558699D01*
X11642301Y-11487270D01*
X11656587Y-11430127D01*
X11670873Y-11401556D01*
X11685158Y-11387270D01*
X11713730Y-11372984D01*
X11928016Y-11372984D02*
X11928016Y-11430127D01*
X12042301Y-11372984D02*
X12042301Y-11430127D01*
X12485158Y-11787270D02*
X12470873Y-11772984D01*
X12442301Y-11730127D01*
X12428016Y-11701556D01*
X12413730Y-11658699D01*
X12399444Y-11587270D01*
X12399444Y-11530127D01*
X12413730Y-11458699D01*
X12428016Y-11415841D01*
X12442301Y-11387270D01*
X12470873Y-11344413D01*
X12485158Y-11330127D01*
X12585158Y-11401556D02*
X12599444Y-11387270D01*
X12628016Y-11372984D01*
X12699444Y-11372984D01*
X12728016Y-11387270D01*
X12742301Y-11401556D01*
X12756587Y-11430127D01*
X12756587Y-11458699D01*
X12742301Y-11501556D01*
X12570873Y-11672984D01*
X12756587Y-11672984D01*
X13013730Y-11472984D02*
X13013730Y-11672984D01*
X12942301Y-11358699D02*
X12870873Y-11572984D01*
X13056587Y-11572984D01*
X13399444Y-11672984D02*
X13399444Y-11372984D01*
X13528016Y-11672984D02*
X13528016Y-11515841D01*
X13513730Y-11487270D01*
X13485158Y-11472984D01*
X13442301Y-11472984D01*
X13413730Y-11487270D01*
X13399444Y-11501556D01*
X13713730Y-11672984D02*
X13685158Y-11658699D01*
X13670873Y-11644413D01*
X13656587Y-11615841D01*
X13656587Y-11530127D01*
X13670873Y-11501556D01*
X13685158Y-11487270D01*
X13713730Y-11472984D01*
X13756587Y-11472984D01*
X13785158Y-11487270D01*
X13799444Y-11501556D01*
X13813730Y-11530127D01*
X13813730Y-11615841D01*
X13799444Y-11644413D01*
X13785158Y-11658699D01*
X13756587Y-11672984D01*
X13713730Y-11672984D01*
X13985158Y-11672984D02*
X13956587Y-11658699D01*
X13942301Y-11630127D01*
X13942301Y-11372984D01*
X14213730Y-11658699D02*
X14185158Y-11672984D01*
X14128016Y-11672984D01*
X14099444Y-11658699D01*
X14085158Y-11630127D01*
X14085158Y-11515841D01*
X14099444Y-11487270D01*
X14128016Y-11472984D01*
X14185158Y-11472984D01*
X14213730Y-11487270D01*
X14228016Y-11515841D01*
X14228016Y-11544413D01*
X14085158Y-11572984D01*
X14342301Y-11658699D02*
X14370873Y-11672984D01*
X14428016Y-11672984D01*
X14456587Y-11658699D01*
X14470873Y-11630127D01*
X14470873Y-11615841D01*
X14456587Y-11587270D01*
X14428016Y-11572984D01*
X14385158Y-11572984D01*
X14356587Y-11558699D01*
X14342301Y-11530127D01*
X14342301Y-11515841D01*
X14356587Y-11487270D01*
X14385158Y-11472984D01*
X14428016Y-11472984D01*
X14456587Y-11487270D01*
X14570873Y-11787270D02*
X14585158Y-11772984D01*
X14613730Y-11730127D01*
X14628016Y-11701556D01*
X14642301Y-11658699D01*
X14656587Y-11587270D01*
X14656587Y-11530127D01*
X14642301Y-11458699D01*
X14628016Y-11415841D01*
X14613730Y-11387270D01*
X14585158Y-11344413D01*
X14570873Y-11330127D01*
X7668730Y-11868270D02*
X7798730Y-11998270D01*
X7798730Y-11868270D02*
X7668730Y-11998270D01*
X7779692Y-11979232D02*
X7779692Y-11887308D01*
X7687767Y-11887308D01*
X7687767Y-11979232D01*
X7779692Y-11979232D01*
X8242301Y-12068984D02*
X8070873Y-12068984D01*
X8156587Y-12068984D02*
X8156587Y-11768984D01*
X8128016Y-11811841D01*
X8099444Y-11840413D01*
X8070873Y-11854699D01*
X8370873Y-12040413D02*
X8385158Y-12054699D01*
X8370873Y-12068984D01*
X8356587Y-12054699D01*
X8370873Y-12040413D01*
X8370873Y-12068984D01*
X8485158Y-11768984D02*
X8670873Y-11768984D01*
X8570873Y-11883270D01*
X8613730Y-11883270D01*
X8642301Y-11897556D01*
X8656587Y-11911841D01*
X8670873Y-11940413D01*
X8670873Y-12011841D01*
X8656587Y-12040413D01*
X8642301Y-12054699D01*
X8613730Y-12068984D01*
X8528016Y-12068984D01*
X8499444Y-12054699D01*
X8485158Y-12040413D01*
X8856587Y-11768984D02*
X8885158Y-11768984D01*
X8913730Y-11783270D01*
X8928016Y-11797556D01*
X8942301Y-11826127D01*
X8956587Y-11883270D01*
X8956587Y-11954699D01*
X8942301Y-12011841D01*
X8928016Y-12040413D01*
X8913730Y-12054699D01*
X8885158Y-12068984D01*
X8856587Y-12068984D01*
X8828016Y-12054699D01*
X8813730Y-12040413D01*
X8799444Y-12011841D01*
X8785158Y-11954699D01*
X8785158Y-11883270D01*
X8799444Y-11826127D01*
X8813730Y-11797556D01*
X8828016Y-11783270D01*
X8856587Y-11768984D01*
X9085158Y-12068984D02*
X9085158Y-11868984D01*
X9085158Y-11897556D02*
X9099444Y-11883270D01*
X9128016Y-11868984D01*
X9170873Y-11868984D01*
X9199444Y-11883270D01*
X9213730Y-11911841D01*
X9213730Y-12068984D01*
X9213730Y-11911841D02*
X9228016Y-11883270D01*
X9256587Y-11868984D01*
X9299444Y-11868984D01*
X9328016Y-11883270D01*
X9342301Y-11911841D01*
X9342301Y-12068984D01*
X9485158Y-12068984D02*
X9485158Y-11868984D01*
X9485158Y-11897556D02*
X9499444Y-11883270D01*
X9528016Y-11868984D01*
X9570873Y-11868984D01*
X9599444Y-11883270D01*
X9613730Y-11911841D01*
X9613730Y-12068984D01*
X9613730Y-11911841D02*
X9628016Y-11883270D01*
X9656587Y-11868984D01*
X9699444Y-11868984D01*
X9728016Y-11883270D01*
X9742301Y-11911841D01*
X9742301Y-12068984D01*
X10328016Y-11754699D02*
X10070873Y-12140413D01*
X10713730Y-11768984D02*
X10742301Y-11768984D01*
X10770873Y-11783270D01*
X10785158Y-11797556D01*
X10799444Y-11826127D01*
X10813730Y-11883270D01*
X10813730Y-11954699D01*
X10799444Y-12011841D01*
X10785158Y-12040413D01*
X10770873Y-12054699D01*
X10742301Y-12068984D01*
X10713730Y-12068984D01*
X10685158Y-12054699D01*
X10670873Y-12040413D01*
X10656587Y-12011841D01*
X10642301Y-11954699D01*
X10642301Y-11883270D01*
X10656587Y-11826127D01*
X10670873Y-11797556D01*
X10685158Y-11783270D01*
X10713730Y-11768984D01*
X10942301Y-12040413D02*
X10956587Y-12054699D01*
X10942301Y-12068984D01*
X10928016Y-12054699D01*
X10942301Y-12040413D01*
X10942301Y-12068984D01*
X11142301Y-11768984D02*
X11170873Y-11768984D01*
X11199444Y-11783270D01*
X11213730Y-11797556D01*
X11228016Y-11826127D01*
X11242301Y-11883270D01*
X11242301Y-11954699D01*
X11228016Y-12011841D01*
X11213730Y-12040413D01*
X11199444Y-12054699D01*
X11170873Y-12068984D01*
X11142301Y-12068984D01*
X11113730Y-12054699D01*
X11099444Y-12040413D01*
X11085158Y-12011841D01*
X11070873Y-11954699D01*
X11070873Y-11883270D01*
X11085158Y-11826127D01*
X11099444Y-11797556D01*
X11113730Y-11783270D01*
X11142301Y-11768984D01*
X11513730Y-11768984D02*
X11370873Y-11768984D01*
X11356587Y-11911841D01*
X11370873Y-11897556D01*
X11399444Y-11883270D01*
X11470873Y-11883270D01*
X11499444Y-11897556D01*
X11513730Y-11911841D01*
X11528016Y-11940413D01*
X11528016Y-12011841D01*
X11513730Y-12040413D01*
X11499444Y-12054699D01*
X11470873Y-12068984D01*
X11399444Y-12068984D01*
X11370873Y-12054699D01*
X11356587Y-12040413D01*
X11813730Y-12068984D02*
X11642301Y-12068984D01*
X11728016Y-12068984D02*
X11728016Y-11768984D01*
X11699444Y-11811841D01*
X11670873Y-11840413D01*
X11642301Y-11854699D01*
X11928016Y-11768984D02*
X11928016Y-11826127D01*
X12042301Y-11768984D02*
X12042301Y-11826127D01*
X12485158Y-12183270D02*
X12470873Y-12168984D01*
X12442301Y-12126127D01*
X12428016Y-12097556D01*
X12413730Y-12054699D01*
X12399444Y-11983270D01*
X12399444Y-11926127D01*
X12413730Y-11854699D01*
X12428016Y-11811841D01*
X12442301Y-11783270D01*
X12470873Y-11740413D01*
X12485158Y-11726127D01*
X12585158Y-11797556D02*
X12599444Y-11783270D01*
X12628016Y-11768984D01*
X12699444Y-11768984D01*
X12728016Y-11783270D01*
X12742301Y-11797556D01*
X12756587Y-11826127D01*
X12756587Y-11854699D01*
X12742301Y-11897556D01*
X12570873Y-12068984D01*
X12756587Y-12068984D01*
X13113730Y-12068984D02*
X13113730Y-11768984D01*
X13242301Y-12068984D02*
X13242301Y-11911841D01*
X13228016Y-11883270D01*
X13199444Y-11868984D01*
X13156587Y-11868984D01*
X13128016Y-11883270D01*
X13113730Y-11897556D01*
X13428016Y-12068984D02*
X13399444Y-12054699D01*
X13385158Y-12040413D01*
X13370873Y-12011841D01*
X13370873Y-11926127D01*
X13385158Y-11897556D01*
X13399444Y-11883270D01*
X13428016Y-11868984D01*
X13470873Y-11868984D01*
X13499444Y-11883270D01*
X13513730Y-11897556D01*
X13528016Y-11926127D01*
X13528016Y-12011841D01*
X13513730Y-12040413D01*
X13499444Y-12054699D01*
X13470873Y-12068984D01*
X13428016Y-12068984D01*
X13699444Y-12068984D02*
X13670873Y-12054699D01*
X13656587Y-12026127D01*
X13656587Y-11768984D01*
X13928016Y-12054699D02*
X13899444Y-12068984D01*
X13842301Y-12068984D01*
X13813730Y-12054699D01*
X13799444Y-12026127D01*
X13799444Y-11911841D01*
X13813730Y-11883270D01*
X13842301Y-11868984D01*
X13899444Y-11868984D01*
X13928016Y-11883270D01*
X13942301Y-11911841D01*
X13942301Y-11940413D01*
X13799444Y-11968984D01*
X14056587Y-12054699D02*
X14085158Y-12068984D01*
X14142301Y-12068984D01*
X14170873Y-12054699D01*
X14185158Y-12026127D01*
X14185158Y-12011841D01*
X14170873Y-11983270D01*
X14142301Y-11968984D01*
X14099444Y-11968984D01*
X14070873Y-11954699D01*
X14056587Y-11926127D01*
X14056587Y-11911841D01*
X14070873Y-11883270D01*
X14099444Y-11868984D01*
X14142301Y-11868984D01*
X14170873Y-11883270D01*
X14285158Y-12183270D02*
X14299444Y-12168984D01*
X14328016Y-12126127D01*
X14342301Y-12097556D01*
X14356587Y-12054699D01*
X14370873Y-11983270D01*
X14370873Y-11926127D01*
X14356587Y-11854699D01*
X14342301Y-11811841D01*
X14328016Y-11783270D01*
X14299444Y-11740413D01*
X14285158Y-11726127D01*
X7548730Y-12204270D02*
X7798730Y-12454270D01*
X7798730Y-12204270D02*
X7548730Y-12454270D01*
X7673730Y-12454270D02*
X7798730Y-12329270D01*
X7673730Y-12204270D01*
X7548730Y-12329270D01*
X7673730Y-12454270D01*
X8070873Y-12193556D02*
X8085158Y-12179270D01*
X8113730Y-12164984D01*
X8185158Y-12164984D01*
X8213730Y-12179270D01*
X8228016Y-12193556D01*
X8242301Y-12222127D01*
X8242301Y-12250699D01*
X8228016Y-12293556D01*
X8056587Y-12464984D01*
X8242301Y-12464984D01*
X8370873Y-12436413D02*
X8385158Y-12450699D01*
X8370873Y-12464984D01*
X8356587Y-12450699D01*
X8370873Y-12436413D01*
X8370873Y-12464984D01*
X8656587Y-12164984D02*
X8513730Y-12164984D01*
X8499444Y-12307841D01*
X8513730Y-12293556D01*
X8542301Y-12279270D01*
X8613730Y-12279270D01*
X8642301Y-12293556D01*
X8656587Y-12307841D01*
X8670873Y-12336413D01*
X8670873Y-12407841D01*
X8656587Y-12436413D01*
X8642301Y-12450699D01*
X8613730Y-12464984D01*
X8542301Y-12464984D01*
X8513730Y-12450699D01*
X8499444Y-12436413D01*
X8856587Y-12164984D02*
X8885158Y-12164984D01*
X8913730Y-12179270D01*
X8928016Y-12193556D01*
X8942301Y-12222127D01*
X8956587Y-12279270D01*
X8956587Y-12350699D01*
X8942301Y-12407841D01*
X8928016Y-12436413D01*
X8913730Y-12450699D01*
X8885158Y-12464984D01*
X8856587Y-12464984D01*
X8828016Y-12450699D01*
X8813730Y-12436413D01*
X8799444Y-12407841D01*
X8785158Y-12350699D01*
X8785158Y-12279270D01*
X8799444Y-12222127D01*
X8813730Y-12193556D01*
X8828016Y-12179270D01*
X8856587Y-12164984D01*
X9085158Y-12464984D02*
X9085158Y-12264984D01*
X9085158Y-12293556D02*
X9099444Y-12279270D01*
X9128016Y-12264984D01*
X9170873Y-12264984D01*
X9199444Y-12279270D01*
X9213730Y-12307841D01*
X9213730Y-12464984D01*
X9213730Y-12307841D02*
X9228016Y-12279270D01*
X9256587Y-12264984D01*
X9299444Y-12264984D01*
X9328016Y-12279270D01*
X9342301Y-12307841D01*
X9342301Y-12464984D01*
X9485158Y-12464984D02*
X9485158Y-12264984D01*
X9485158Y-12293556D02*
X9499444Y-12279270D01*
X9528016Y-12264984D01*
X9570873Y-12264984D01*
X9599444Y-12279270D01*
X9613730Y-12307841D01*
X9613730Y-12464984D01*
X9613730Y-12307841D02*
X9628016Y-12279270D01*
X9656587Y-12264984D01*
X9699444Y-12264984D01*
X9728016Y-12279270D01*
X9742301Y-12307841D01*
X9742301Y-12464984D01*
X10328016Y-12150699D02*
X10070873Y-12536413D01*
X10713730Y-12164984D02*
X10742301Y-12164984D01*
X10770873Y-12179270D01*
X10785158Y-12193556D01*
X10799444Y-12222127D01*
X10813730Y-12279270D01*
X10813730Y-12350699D01*
X10799444Y-12407841D01*
X10785158Y-12436413D01*
X10770873Y-12450699D01*
X10742301Y-12464984D01*
X10713730Y-12464984D01*
X10685158Y-12450699D01*
X10670873Y-12436413D01*
X10656587Y-12407841D01*
X10642301Y-12350699D01*
X10642301Y-12279270D01*
X10656587Y-12222127D01*
X10670873Y-12193556D01*
X10685158Y-12179270D01*
X10713730Y-12164984D01*
X10942301Y-12436413D02*
X10956587Y-12450699D01*
X10942301Y-12464984D01*
X10928016Y-12450699D01*
X10942301Y-12436413D01*
X10942301Y-12464984D01*
X11142301Y-12164984D02*
X11170873Y-12164984D01*
X11199444Y-12179270D01*
X11213730Y-12193556D01*
X11228016Y-12222127D01*
X11242301Y-12279270D01*
X11242301Y-12350699D01*
X11228016Y-12407841D01*
X11213730Y-12436413D01*
X11199444Y-12450699D01*
X11170873Y-12464984D01*
X11142301Y-12464984D01*
X11113730Y-12450699D01*
X11099444Y-12436413D01*
X11085158Y-12407841D01*
X11070873Y-12350699D01*
X11070873Y-12279270D01*
X11085158Y-12222127D01*
X11099444Y-12193556D01*
X11113730Y-12179270D01*
X11142301Y-12164984D01*
X11385158Y-12464984D02*
X11442301Y-12464984D01*
X11470873Y-12450699D01*
X11485158Y-12436413D01*
X11513730Y-12393556D01*
X11528016Y-12336413D01*
X11528016Y-12222127D01*
X11513730Y-12193556D01*
X11499444Y-12179270D01*
X11470873Y-12164984D01*
X11413730Y-12164984D01*
X11385158Y-12179270D01*
X11370873Y-12193556D01*
X11356587Y-12222127D01*
X11356587Y-12293556D01*
X11370873Y-12322127D01*
X11385158Y-12336413D01*
X11413730Y-12350699D01*
X11470873Y-12350699D01*
X11499444Y-12336413D01*
X11513730Y-12322127D01*
X11528016Y-12293556D01*
X11699444Y-12293556D02*
X11670873Y-12279270D01*
X11656587Y-12264984D01*
X11642301Y-12236413D01*
X11642301Y-12222127D01*
X11656587Y-12193556D01*
X11670873Y-12179270D01*
X11699444Y-12164984D01*
X11756587Y-12164984D01*
X11785158Y-12179270D01*
X11799444Y-12193556D01*
X11813730Y-12222127D01*
X11813730Y-12236413D01*
X11799444Y-12264984D01*
X11785158Y-12279270D01*
X11756587Y-12293556D01*
X11699444Y-12293556D01*
X11670873Y-12307841D01*
X11656587Y-12322127D01*
X11642301Y-12350699D01*
X11642301Y-12407841D01*
X11656587Y-12436413D01*
X11670873Y-12450699D01*
X11699444Y-12464984D01*
X11756587Y-12464984D01*
X11785158Y-12450699D01*
X11799444Y-12436413D01*
X11813730Y-12407841D01*
X11813730Y-12350699D01*
X11799444Y-12322127D01*
X11785158Y-12307841D01*
X11756587Y-12293556D01*
X11928016Y-12164984D02*
X11928016Y-12222127D01*
X12042301Y-12164984D02*
X12042301Y-12222127D01*
X12485158Y-12579270D02*
X12470873Y-12564984D01*
X12442301Y-12522127D01*
X12428016Y-12493556D01*
X12413730Y-12450699D01*
X12399444Y-12379270D01*
X12399444Y-12322127D01*
X12413730Y-12250699D01*
X12428016Y-12207841D01*
X12442301Y-12179270D01*
X12470873Y-12136413D01*
X12485158Y-12122127D01*
X12585158Y-12193556D02*
X12599444Y-12179270D01*
X12628016Y-12164984D01*
X12699444Y-12164984D01*
X12728016Y-12179270D01*
X12742301Y-12193556D01*
X12756587Y-12222127D01*
X12756587Y-12250699D01*
X12742301Y-12293556D01*
X12570873Y-12464984D01*
X12756587Y-12464984D01*
X13113730Y-12464984D02*
X13113730Y-12164984D01*
X13242301Y-12464984D02*
X13242301Y-12307841D01*
X13228016Y-12279270D01*
X13199444Y-12264984D01*
X13156587Y-12264984D01*
X13128016Y-12279270D01*
X13113730Y-12293556D01*
X13428016Y-12464984D02*
X13399444Y-12450699D01*
X13385158Y-12436413D01*
X13370873Y-12407841D01*
X13370873Y-12322127D01*
X13385158Y-12293556D01*
X13399444Y-12279270D01*
X13428016Y-12264984D01*
X13470873Y-12264984D01*
X13499444Y-12279270D01*
X13513730Y-12293556D01*
X13528016Y-12322127D01*
X13528016Y-12407841D01*
X13513730Y-12436413D01*
X13499444Y-12450699D01*
X13470873Y-12464984D01*
X13428016Y-12464984D01*
X13699444Y-12464984D02*
X13670873Y-12450699D01*
X13656587Y-12422127D01*
X13656587Y-12164984D01*
X13928016Y-12450699D02*
X13899444Y-12464984D01*
X13842301Y-12464984D01*
X13813730Y-12450699D01*
X13799444Y-12422127D01*
X13799444Y-12307841D01*
X13813730Y-12279270D01*
X13842301Y-12264984D01*
X13899444Y-12264984D01*
X13928016Y-12279270D01*
X13942301Y-12307841D01*
X13942301Y-12336413D01*
X13799444Y-12364984D01*
X14056587Y-12450699D02*
X14085158Y-12464984D01*
X14142301Y-12464984D01*
X14170873Y-12450699D01*
X14185158Y-12422127D01*
X14185158Y-12407841D01*
X14170873Y-12379270D01*
X14142301Y-12364984D01*
X14099444Y-12364984D01*
X14070873Y-12350699D01*
X14056587Y-12322127D01*
X14056587Y-12307841D01*
X14070873Y-12279270D01*
X14099444Y-12264984D01*
X14142301Y-12264984D01*
X14170873Y-12279270D01*
X14285158Y-12579270D02*
X14299444Y-12564984D01*
X14328016Y-12522127D01*
X14342301Y-12493556D01*
X14356587Y-12450699D01*
X14370873Y-12379270D01*
X14370873Y-12322127D01*
X14356587Y-12250699D01*
X14342301Y-12207841D01*
X14328016Y-12179270D01*
X14299444Y-12136413D01*
X14285158Y-12122127D01*
M02*
