G04 #@! TF.GenerationSoftware,KiCad,Pcbnew,(5.1.9)-1*
G04 #@! TF.CreationDate,2021-05-18T22:57:50-05:00*
G04 #@! TF.ProjectId,BoilerBot,426f696c-6572-4426-9f74-2e6b69636164,rev?*
G04 #@! TF.SameCoordinates,Original*
G04 #@! TF.FileFunction,Copper,L2,Bot*
G04 #@! TF.FilePolarity,Positive*
%FSLAX46Y46*%
G04 Gerber Fmt 4.6, Leading zero omitted, Abs format (unit mm)*
G04 Created by KiCad (PCBNEW (5.1.9)-1) date 2021-05-18 22:57:50*
%MOMM*%
%LPD*%
G01*
G04 APERTURE LIST*
G04 #@! TA.AperFunction,ComponentPad*
%ADD10C,2.500000*%
G04 #@! TD*
G04 #@! TA.AperFunction,ComponentPad*
%ADD11C,1.600000*%
G04 #@! TD*
G04 #@! TA.AperFunction,SMDPad,CuDef*
%ADD12R,2.500000X1.800000*%
G04 #@! TD*
G04 #@! TA.AperFunction,ComponentPad*
%ADD13C,0.500000*%
G04 #@! TD*
G04 #@! TA.AperFunction,ComponentPad*
%ADD14O,1.700000X1.950000*%
G04 #@! TD*
G04 #@! TA.AperFunction,ComponentPad*
%ADD15C,2.600000*%
G04 #@! TD*
G04 #@! TA.AperFunction,ComponentPad*
%ADD16R,2.600000X2.600000*%
G04 #@! TD*
G04 #@! TA.AperFunction,ComponentPad*
%ADD17O,1.200000X1.750000*%
G04 #@! TD*
G04 #@! TA.AperFunction,ComponentPad*
%ADD18C,1.500000*%
G04 #@! TD*
G04 #@! TA.AperFunction,ComponentPad*
%ADD19C,1.879600*%
G04 #@! TD*
G04 #@! TA.AperFunction,ViaPad*
%ADD20C,0.609600*%
G04 #@! TD*
G04 #@! TA.AperFunction,Conductor*
%ADD21C,0.254000*%
G04 #@! TD*
G04 #@! TA.AperFunction,Conductor*
%ADD22C,0.762000*%
G04 #@! TD*
G04 #@! TA.AperFunction,Conductor*
%ADD23C,2.540000*%
G04 #@! TD*
G04 #@! TA.AperFunction,Conductor*
%ADD24C,0.100000*%
G04 #@! TD*
G04 APERTURE END LIST*
D10*
X106500000Y-61750000D03*
X103000000Y-69250000D03*
D11*
X86500000Y-61750000D03*
X86500000Y-69250000D03*
D12*
X147000000Y-62000000D03*
D13*
X148000000Y-61350000D03*
X148000000Y-62650000D03*
X147000000Y-61350000D03*
X147000000Y-62650000D03*
X146000000Y-61350000D03*
X146000000Y-62650000D03*
D14*
X141500000Y-70500000D03*
X139000000Y-70500000D03*
G04 #@! TA.AperFunction,ComponentPad*
G36*
G01*
X135650000Y-71225000D02*
X135650000Y-69775000D01*
G75*
G02*
X135900000Y-69525000I250000J0D01*
G01*
X137100000Y-69525000D01*
G75*
G02*
X137350000Y-69775000I0J-250000D01*
G01*
X137350000Y-71225000D01*
G75*
G02*
X137100000Y-71475000I-250000J0D01*
G01*
X135900000Y-71475000D01*
G75*
G02*
X135650000Y-71225000I0J250000D01*
G01*
G37*
G04 #@! TD.AperFunction*
X148000000Y-73000000D03*
X150500000Y-73000000D03*
X153000000Y-73000000D03*
G04 #@! TA.AperFunction,ComponentPad*
G36*
G01*
X156350000Y-72275000D02*
X156350000Y-73725000D01*
G75*
G02*
X156100000Y-73975000I-250000J0D01*
G01*
X154900000Y-73975000D01*
G75*
G02*
X154650000Y-73725000I0J250000D01*
G01*
X154650000Y-72275000D01*
G75*
G02*
X154900000Y-72025000I250000J0D01*
G01*
X156100000Y-72025000D01*
G75*
G02*
X156350000Y-72275000I0J-250000D01*
G01*
G37*
G04 #@! TD.AperFunction*
D15*
X112000000Y-53000000D03*
X107000000Y-53000000D03*
D16*
X102000000Y-53000000D03*
D14*
X141500000Y-77500000D03*
X139000000Y-77500000D03*
G04 #@! TA.AperFunction,ComponentPad*
G36*
G01*
X135650000Y-78225000D02*
X135650000Y-76775000D01*
G75*
G02*
X135900000Y-76525000I250000J0D01*
G01*
X137100000Y-76525000D01*
G75*
G02*
X137350000Y-76775000I0J-250000D01*
G01*
X137350000Y-78225000D01*
G75*
G02*
X137100000Y-78475000I-250000J0D01*
G01*
X135900000Y-78475000D01*
G75*
G02*
X135650000Y-78225000I0J250000D01*
G01*
G37*
G04 #@! TD.AperFunction*
X133000000Y-63500000D03*
X130500000Y-63500000D03*
G04 #@! TA.AperFunction,ComponentPad*
G36*
G01*
X127150000Y-64225000D02*
X127150000Y-62775000D01*
G75*
G02*
X127400000Y-62525000I250000J0D01*
G01*
X128600000Y-62525000D01*
G75*
G02*
X128850000Y-62775000I0J-250000D01*
G01*
X128850000Y-64225000D01*
G75*
G02*
X128600000Y-64475000I-250000J0D01*
G01*
X127400000Y-64475000D01*
G75*
G02*
X127150000Y-64225000I0J250000D01*
G01*
G37*
G04 #@! TD.AperFunction*
D17*
X148000000Y-79000000D03*
X150000000Y-79000000D03*
X152000000Y-79000000D03*
X154000000Y-79000000D03*
G04 #@! TA.AperFunction,ComponentPad*
G36*
G01*
X156600000Y-78374999D02*
X156600000Y-79625001D01*
G75*
G02*
X156350001Y-79875000I-249999J0D01*
G01*
X155649999Y-79875000D01*
G75*
G02*
X155400000Y-79625001I0J249999D01*
G01*
X155400000Y-78374999D01*
G75*
G02*
X155649999Y-78125000I249999J0D01*
G01*
X156350001Y-78125000D01*
G75*
G02*
X156600000Y-78374999I0J-249999D01*
G01*
G37*
G04 #@! TD.AperFunction*
D15*
X149000000Y-53000000D03*
D16*
X144000000Y-53000000D03*
D15*
X127000000Y-53000000D03*
X122000000Y-53000000D03*
D16*
X117000000Y-53000000D03*
D15*
X97000000Y-53000000D03*
X92000000Y-53000000D03*
D16*
X87000000Y-53000000D03*
D15*
X139000000Y-53000000D03*
D16*
X134000000Y-53000000D03*
D18*
X116000000Y-77750000D03*
X116000000Y-71250000D03*
D19*
X176500000Y-52000000D03*
X176500000Y-54540000D03*
X176500000Y-57080000D03*
X176500000Y-59620000D03*
X176500000Y-62160000D03*
X176500000Y-64700000D03*
X176500000Y-67240000D03*
X176500000Y-69780000D03*
X176500000Y-72320000D03*
X176500000Y-74860000D03*
X176500000Y-77400000D03*
X176500000Y-79940000D03*
X161260000Y-79940000D03*
X161260000Y-77400000D03*
X161260000Y-74860000D03*
X161260000Y-72320000D03*
X161260000Y-69780000D03*
X161260000Y-67240000D03*
X161260000Y-64700000D03*
X161260000Y-62160000D03*
X161260000Y-59620000D03*
X161260000Y-57080000D03*
X161260000Y-54540000D03*
X161260000Y-52000000D03*
D20*
X147955000Y-76327000D03*
X151384000Y-67056000D03*
X150495000Y-70104000D03*
X91694000Y-71501000D03*
X126111000Y-77597000D03*
X132715000Y-59563000D03*
X145923000Y-66929000D03*
X145923000Y-73025000D03*
X151765000Y-75438000D03*
X149733000Y-64516000D03*
X149606000Y-67056000D03*
X146431000Y-58039000D03*
X153416000Y-52832000D03*
D21*
X148000000Y-76372000D02*
X147955000Y-76327000D01*
X148000000Y-79000000D02*
X148000000Y-76372000D01*
X150495000Y-67945000D02*
X150495000Y-70104000D01*
X151384000Y-67056000D02*
X150495000Y-67945000D01*
X161260000Y-75427780D02*
X161260000Y-74860000D01*
X156558770Y-80129010D02*
X161260000Y-75427780D01*
X151129010Y-80129010D02*
X156558770Y-80129010D01*
X150000000Y-79000000D02*
X151129010Y-80129010D01*
X160689980Y-80510020D02*
X161260000Y-79940000D01*
X142010020Y-80510020D02*
X160689980Y-80510020D01*
X139000000Y-77500000D02*
X142010020Y-80510020D01*
X160066199Y-65893801D02*
X161260000Y-64700000D01*
X160066199Y-70471581D02*
X160066199Y-65893801D01*
X156308770Y-74229010D02*
X160066199Y-70471581D01*
X151729010Y-74229010D02*
X156308770Y-74229010D01*
X150500000Y-73000000D02*
X151729010Y-74229010D01*
X153000000Y-70420000D02*
X161260000Y-62160000D01*
X153000000Y-73000000D02*
X153000000Y-70420000D01*
D22*
X113935001Y-51064999D02*
X112000000Y-53000000D01*
X125064999Y-51064999D02*
X113935001Y-51064999D01*
X127000000Y-53000000D02*
X125064999Y-51064999D01*
D23*
X97000000Y-53000000D02*
X97000000Y-57122000D01*
X97000000Y-57122000D02*
X105156000Y-65278000D01*
X105156000Y-65278000D02*
X108331000Y-65278000D01*
X112000000Y-61609000D02*
X112000000Y-53000000D01*
X108331000Y-65278000D02*
X112000000Y-61609000D01*
D21*
X145923000Y-66929000D02*
X145923000Y-73025000D01*
X152438000Y-75438000D02*
X151765000Y-75438000D01*
X156000000Y-79000000D02*
X152438000Y-75438000D01*
X149395990Y-72417705D02*
X154249695Y-67564000D01*
X149395990Y-74395990D02*
X149395990Y-72417705D01*
X154000000Y-79000000D02*
X149395990Y-74395990D01*
X160066199Y-55733801D02*
X161260000Y-54540000D01*
X160066199Y-57230801D02*
X160066199Y-55733801D01*
X154249695Y-63047305D02*
X160066199Y-57230801D01*
X154249695Y-67564000D02*
X154249695Y-63047305D01*
X146895990Y-66364010D02*
X161260000Y-52000000D01*
X146895990Y-73895990D02*
X146895990Y-66364010D01*
X152000000Y-79000000D02*
X146895990Y-73895990D01*
D23*
X104175999Y-50175999D02*
X107000000Y-53000000D01*
X94824001Y-50175999D02*
X104175999Y-50175999D01*
X92000000Y-53000000D02*
X94824001Y-50175999D01*
X87000000Y-53250000D02*
X103000000Y-69250000D01*
X87000000Y-53000000D02*
X87000000Y-53250000D01*
X106500000Y-57500000D02*
X102000000Y-53000000D01*
X106500000Y-61750000D02*
X106500000Y-57500000D01*
D21*
X149733000Y-66929000D02*
X149606000Y-67056000D01*
X149733000Y-64516000D02*
X149733000Y-66929000D01*
X151638000Y-52832000D02*
X153416000Y-52832000D01*
X146431000Y-58039000D02*
X151638000Y-52832000D01*
X177606300Y-51278317D02*
X177525933Y-51158039D01*
X177341961Y-50974067D01*
X177125634Y-50829522D01*
X176885263Y-50729957D01*
X176630087Y-50679200D01*
X176369913Y-50679200D01*
X176114737Y-50729957D01*
X175874366Y-50829522D01*
X175658039Y-50974067D01*
X175474067Y-51158039D01*
X175329522Y-51374366D01*
X175229957Y-51614737D01*
X175179200Y-51869913D01*
X175179200Y-52130087D01*
X175229957Y-52385263D01*
X175329522Y-52625634D01*
X175474067Y-52841961D01*
X175658039Y-53025933D01*
X175874366Y-53170478D01*
X176114633Y-53270000D01*
X175874366Y-53369522D01*
X175658039Y-53514067D01*
X175474067Y-53698039D01*
X175329522Y-53914366D01*
X175229957Y-54154737D01*
X175179200Y-54409913D01*
X175179200Y-54670087D01*
X175229957Y-54925263D01*
X175329522Y-55165634D01*
X175474067Y-55381961D01*
X175658039Y-55565933D01*
X175874366Y-55710478D01*
X176114633Y-55810000D01*
X175874366Y-55909522D01*
X175658039Y-56054067D01*
X175474067Y-56238039D01*
X175329522Y-56454366D01*
X175229957Y-56694737D01*
X175179200Y-56949913D01*
X175179200Y-57210087D01*
X175229957Y-57465263D01*
X175329522Y-57705634D01*
X175474067Y-57921961D01*
X175658039Y-58105933D01*
X175874366Y-58250478D01*
X176114633Y-58350000D01*
X175874366Y-58449522D01*
X175658039Y-58594067D01*
X175474067Y-58778039D01*
X175329522Y-58994366D01*
X175229957Y-59234737D01*
X175179200Y-59489913D01*
X175179200Y-59750087D01*
X175229957Y-60005263D01*
X175329522Y-60245634D01*
X175474067Y-60461961D01*
X175658039Y-60645933D01*
X175874366Y-60790478D01*
X176114633Y-60890000D01*
X175874366Y-60989522D01*
X175658039Y-61134067D01*
X175474067Y-61318039D01*
X175329522Y-61534366D01*
X175229957Y-61774737D01*
X175179200Y-62029913D01*
X175179200Y-62290087D01*
X175229957Y-62545263D01*
X175329522Y-62785634D01*
X175474067Y-63001961D01*
X175658039Y-63185933D01*
X175874366Y-63330478D01*
X176114633Y-63430000D01*
X175874366Y-63529522D01*
X175658039Y-63674067D01*
X175474067Y-63858039D01*
X175329522Y-64074366D01*
X175229957Y-64314737D01*
X175179200Y-64569913D01*
X175179200Y-64830087D01*
X175229957Y-65085263D01*
X175329522Y-65325634D01*
X175474067Y-65541961D01*
X175658039Y-65725933D01*
X175874366Y-65870478D01*
X176114633Y-65970000D01*
X175874366Y-66069522D01*
X175658039Y-66214067D01*
X175474067Y-66398039D01*
X175329522Y-66614366D01*
X175229957Y-66854737D01*
X175179200Y-67109913D01*
X175179200Y-67370087D01*
X175229957Y-67625263D01*
X175329522Y-67865634D01*
X175474067Y-68081961D01*
X175658039Y-68265933D01*
X175874366Y-68410478D01*
X176114633Y-68510000D01*
X175874366Y-68609522D01*
X175658039Y-68754067D01*
X175474067Y-68938039D01*
X175329522Y-69154366D01*
X175229957Y-69394737D01*
X175179200Y-69649913D01*
X175179200Y-69910087D01*
X175229957Y-70165263D01*
X175329522Y-70405634D01*
X175474067Y-70621961D01*
X175658039Y-70805933D01*
X175874366Y-70950478D01*
X176114633Y-71050000D01*
X175874366Y-71149522D01*
X175658039Y-71294067D01*
X175474067Y-71478039D01*
X175329522Y-71694366D01*
X175229957Y-71934737D01*
X175179200Y-72189913D01*
X175179200Y-72450087D01*
X175229957Y-72705263D01*
X175329522Y-72945634D01*
X175474067Y-73161961D01*
X175658039Y-73345933D01*
X175874366Y-73490478D01*
X176114633Y-73590000D01*
X175874366Y-73689522D01*
X175658039Y-73834067D01*
X175474067Y-74018039D01*
X175329522Y-74234366D01*
X175229957Y-74474737D01*
X175179200Y-74729913D01*
X175179200Y-74990087D01*
X175229957Y-75245263D01*
X175329522Y-75485634D01*
X175474067Y-75701961D01*
X175658039Y-75885933D01*
X175874366Y-76030478D01*
X176114633Y-76130000D01*
X175874366Y-76229522D01*
X175658039Y-76374067D01*
X175474067Y-76558039D01*
X175329522Y-76774366D01*
X175229957Y-77014737D01*
X175179200Y-77269913D01*
X175179200Y-77530087D01*
X175229957Y-77785263D01*
X175329522Y-78025634D01*
X175474067Y-78241961D01*
X175658039Y-78425933D01*
X175874366Y-78570478D01*
X176114633Y-78670000D01*
X175874366Y-78769522D01*
X175658039Y-78914067D01*
X175474067Y-79098039D01*
X175329522Y-79314366D01*
X175229957Y-79554737D01*
X175179200Y-79809913D01*
X175179200Y-80070087D01*
X175229957Y-80325263D01*
X175329522Y-80565634D01*
X175474067Y-80781961D01*
X175658039Y-80965933D01*
X175874366Y-81110478D01*
X176114737Y-81210043D01*
X176369913Y-81260800D01*
X176630087Y-81260800D01*
X176885263Y-81210043D01*
X177125634Y-81110478D01*
X177341961Y-80965933D01*
X177525933Y-80781961D01*
X177606301Y-80661682D01*
X177606301Y-81606300D01*
X78393700Y-81606300D01*
X78393700Y-78797722D01*
X78946237Y-78797722D01*
X78946237Y-79202278D01*
X79025162Y-79599060D01*
X79179979Y-79972821D01*
X79404738Y-80309197D01*
X79690803Y-80595262D01*
X80027179Y-80820021D01*
X80400940Y-80974838D01*
X80797722Y-81053763D01*
X81202278Y-81053763D01*
X81599060Y-80974838D01*
X81972821Y-80820021D01*
X82309197Y-80595262D01*
X82595262Y-80309197D01*
X82820021Y-79972821D01*
X82974838Y-79599060D01*
X83053763Y-79202278D01*
X83053763Y-78797722D01*
X82974838Y-78400940D01*
X82820021Y-78027179D01*
X82595262Y-77690803D01*
X82543065Y-77638606D01*
X114869000Y-77638606D01*
X114869000Y-77861394D01*
X114912464Y-78079900D01*
X114997721Y-78285729D01*
X115121495Y-78470970D01*
X115279030Y-78628505D01*
X115464271Y-78752279D01*
X115670100Y-78837536D01*
X115888606Y-78881000D01*
X116111394Y-78881000D01*
X116329900Y-78837536D01*
X116535729Y-78752279D01*
X116720970Y-78628505D01*
X116878505Y-78470970D01*
X117002279Y-78285729D01*
X117087536Y-78079900D01*
X117131000Y-77861394D01*
X117131000Y-77638606D01*
X117087536Y-77420100D01*
X117002279Y-77214271D01*
X116878505Y-77029030D01*
X116720970Y-76871495D01*
X116576555Y-76775000D01*
X135267157Y-76775000D01*
X135267157Y-78225000D01*
X135279317Y-78348462D01*
X135315329Y-78467179D01*
X135373810Y-78576589D01*
X135452512Y-78672488D01*
X135548411Y-78751190D01*
X135657821Y-78809671D01*
X135776538Y-78845683D01*
X135900000Y-78857843D01*
X137100000Y-78857843D01*
X137223462Y-78845683D01*
X137342179Y-78809671D01*
X137451589Y-78751190D01*
X137547488Y-78672488D01*
X137626190Y-78576589D01*
X137684671Y-78467179D01*
X137720683Y-78348462D01*
X137732843Y-78225000D01*
X137732843Y-77314529D01*
X137769000Y-77314529D01*
X137769000Y-77685472D01*
X137786812Y-77866318D01*
X137857202Y-78098363D01*
X137971509Y-78312216D01*
X138125341Y-78499660D01*
X138312785Y-78653491D01*
X138526638Y-78767798D01*
X138758683Y-78838188D01*
X139000000Y-78861956D01*
X139241318Y-78838188D01*
X139473363Y-78767798D01*
X139522900Y-78741320D01*
X141633170Y-80851591D01*
X141649072Y-80870968D01*
X141668449Y-80886870D01*
X141726424Y-80934449D01*
X141773596Y-80959663D01*
X141814677Y-80981621D01*
X141910435Y-81010669D01*
X141985073Y-81018020D01*
X141985075Y-81018020D01*
X142010019Y-81020477D01*
X142034963Y-81018020D01*
X160495993Y-81018020D01*
X160634366Y-81110478D01*
X160874737Y-81210043D01*
X161129913Y-81260800D01*
X161390087Y-81260800D01*
X161645263Y-81210043D01*
X161885634Y-81110478D01*
X162101961Y-80965933D01*
X162285933Y-80781961D01*
X162430478Y-80565634D01*
X162530043Y-80325263D01*
X162580800Y-80070087D01*
X162580800Y-79809913D01*
X162530043Y-79554737D01*
X162430478Y-79314366D01*
X162285933Y-79098039D01*
X162101961Y-78914067D01*
X161927839Y-78797722D01*
X166946237Y-78797722D01*
X166946237Y-79202278D01*
X167025162Y-79599060D01*
X167179979Y-79972821D01*
X167404738Y-80309197D01*
X167690803Y-80595262D01*
X168027179Y-80820021D01*
X168400940Y-80974838D01*
X168797722Y-81053763D01*
X169202278Y-81053763D01*
X169599060Y-80974838D01*
X169972821Y-80820021D01*
X170309197Y-80595262D01*
X170595262Y-80309197D01*
X170820021Y-79972821D01*
X170974838Y-79599060D01*
X171053763Y-79202278D01*
X171053763Y-78797722D01*
X170974838Y-78400940D01*
X170820021Y-78027179D01*
X170595262Y-77690803D01*
X170309197Y-77404738D01*
X169972821Y-77179979D01*
X169599060Y-77025162D01*
X169202278Y-76946237D01*
X168797722Y-76946237D01*
X168400940Y-77025162D01*
X168027179Y-77179979D01*
X167690803Y-77404738D01*
X167404738Y-77690803D01*
X167179979Y-78027179D01*
X167025162Y-78400940D01*
X166946237Y-78797722D01*
X161927839Y-78797722D01*
X161885634Y-78769522D01*
X161645367Y-78670000D01*
X161885634Y-78570478D01*
X162101961Y-78425933D01*
X162285933Y-78241961D01*
X162430478Y-78025634D01*
X162530043Y-77785263D01*
X162580800Y-77530087D01*
X162580800Y-77269913D01*
X162530043Y-77014737D01*
X162430478Y-76774366D01*
X162285933Y-76558039D01*
X162101961Y-76374067D01*
X161885634Y-76229522D01*
X161645367Y-76130000D01*
X161885634Y-76030478D01*
X162101961Y-75885933D01*
X162285933Y-75701961D01*
X162430478Y-75485634D01*
X162530043Y-75245263D01*
X162580800Y-74990087D01*
X162580800Y-74729913D01*
X162530043Y-74474737D01*
X162430478Y-74234366D01*
X162285933Y-74018039D01*
X162101961Y-73834067D01*
X161885634Y-73689522D01*
X161645367Y-73590000D01*
X161885634Y-73490478D01*
X162101961Y-73345933D01*
X162285933Y-73161961D01*
X162430478Y-72945634D01*
X162530043Y-72705263D01*
X162580800Y-72450087D01*
X162580800Y-72189913D01*
X162530043Y-71934737D01*
X162430478Y-71694366D01*
X162285933Y-71478039D01*
X162101961Y-71294067D01*
X161885634Y-71149522D01*
X161645367Y-71050000D01*
X161885634Y-70950478D01*
X162101961Y-70805933D01*
X162285933Y-70621961D01*
X162430478Y-70405634D01*
X162530043Y-70165263D01*
X162580800Y-69910087D01*
X162580800Y-69649913D01*
X162530043Y-69394737D01*
X162430478Y-69154366D01*
X162285933Y-68938039D01*
X162101961Y-68754067D01*
X161885634Y-68609522D01*
X161645367Y-68510000D01*
X161885634Y-68410478D01*
X162101961Y-68265933D01*
X162285933Y-68081961D01*
X162430478Y-67865634D01*
X162530043Y-67625263D01*
X162580800Y-67370087D01*
X162580800Y-67109913D01*
X162530043Y-66854737D01*
X162430478Y-66614366D01*
X162285933Y-66398039D01*
X162101961Y-66214067D01*
X161885634Y-66069522D01*
X161645367Y-65970000D01*
X161885634Y-65870478D01*
X162101961Y-65725933D01*
X162285933Y-65541961D01*
X162430478Y-65325634D01*
X162530043Y-65085263D01*
X162580800Y-64830087D01*
X162580800Y-64569913D01*
X162530043Y-64314737D01*
X162430478Y-64074366D01*
X162285933Y-63858039D01*
X162101961Y-63674067D01*
X161885634Y-63529522D01*
X161645367Y-63430000D01*
X161885634Y-63330478D01*
X162101961Y-63185933D01*
X162285933Y-63001961D01*
X162430478Y-62785634D01*
X162530043Y-62545263D01*
X162580800Y-62290087D01*
X162580800Y-62029913D01*
X162530043Y-61774737D01*
X162430478Y-61534366D01*
X162285933Y-61318039D01*
X162101961Y-61134067D01*
X161958330Y-61038096D01*
X162084377Y-60970723D01*
X162172871Y-60712476D01*
X161260000Y-59799605D01*
X160347129Y-60712476D01*
X160435623Y-60970723D01*
X160567332Y-61034313D01*
X160418039Y-61134067D01*
X160234067Y-61318039D01*
X160089522Y-61534366D01*
X159989957Y-61774737D01*
X159939200Y-62029913D01*
X159939200Y-62290087D01*
X159989957Y-62545263D01*
X160038682Y-62662897D01*
X152658430Y-70043150D01*
X152639053Y-70059052D01*
X152623151Y-70078429D01*
X152623150Y-70078430D01*
X152575571Y-70136405D01*
X152556789Y-70171545D01*
X152528400Y-70224657D01*
X152504320Y-70304040D01*
X152499352Y-70320416D01*
X152489543Y-70420000D01*
X152492001Y-70444954D01*
X152492000Y-71750716D01*
X152312785Y-71846509D01*
X152125341Y-72000340D01*
X151971509Y-72187784D01*
X151857202Y-72401637D01*
X151786812Y-72633682D01*
X151769000Y-72814528D01*
X151769000Y-73185471D01*
X151786812Y-73366317D01*
X151857202Y-73598362D01*
X151903616Y-73685196D01*
X151683292Y-73464872D01*
X151713188Y-73366318D01*
X151731000Y-73185472D01*
X151731000Y-72814529D01*
X151713188Y-72633683D01*
X151642798Y-72401638D01*
X151528491Y-72187785D01*
X151374660Y-72000340D01*
X151187216Y-71846509D01*
X150973363Y-71732202D01*
X150840283Y-71691833D01*
X154591266Y-67940850D01*
X154610643Y-67924948D01*
X154629319Y-67902190D01*
X154674124Y-67847596D01*
X154721295Y-67759345D01*
X154721296Y-67759342D01*
X154750344Y-67663585D01*
X154757695Y-67588947D01*
X154757695Y-67588945D01*
X154760152Y-67564001D01*
X154757695Y-67539057D01*
X154757695Y-63257725D01*
X158330443Y-59684977D01*
X159678916Y-59684977D01*
X159721973Y-59992184D01*
X159824135Y-60285086D01*
X159909277Y-60444377D01*
X160167524Y-60532871D01*
X161080395Y-59620000D01*
X161439605Y-59620000D01*
X162352476Y-60532871D01*
X162610723Y-60444377D01*
X162745597Y-60165024D01*
X162823381Y-59864725D01*
X162841084Y-59555023D01*
X162798027Y-59247816D01*
X162695865Y-58954914D01*
X162610723Y-58795623D01*
X162352476Y-58707129D01*
X161439605Y-59620000D01*
X161080395Y-59620000D01*
X160167524Y-58707129D01*
X159909277Y-58795623D01*
X159774403Y-59074976D01*
X159696619Y-59375275D01*
X159678916Y-59684977D01*
X158330443Y-59684977D01*
X160177747Y-57837673D01*
X160234067Y-57921961D01*
X160418039Y-58105933D01*
X160561670Y-58201904D01*
X160435623Y-58269277D01*
X160347129Y-58527524D01*
X161260000Y-59440395D01*
X162172871Y-58527524D01*
X162084377Y-58269277D01*
X161952668Y-58205687D01*
X162101961Y-58105933D01*
X162285933Y-57921961D01*
X162430478Y-57705634D01*
X162530043Y-57465263D01*
X162580800Y-57210087D01*
X162580800Y-56949913D01*
X162530043Y-56694737D01*
X162430478Y-56454366D01*
X162285933Y-56238039D01*
X162101961Y-56054067D01*
X161885634Y-55909522D01*
X161645367Y-55810000D01*
X161885634Y-55710478D01*
X162101961Y-55565933D01*
X162285933Y-55381961D01*
X162430478Y-55165634D01*
X162530043Y-54925263D01*
X162580800Y-54670087D01*
X162580800Y-54409913D01*
X162530043Y-54154737D01*
X162430478Y-53914366D01*
X162285933Y-53698039D01*
X162101961Y-53514067D01*
X161885634Y-53369522D01*
X161645367Y-53270000D01*
X161885634Y-53170478D01*
X162101961Y-53025933D01*
X162285933Y-52841961D01*
X162430478Y-52625634D01*
X162530043Y-52385263D01*
X162580800Y-52130087D01*
X162580800Y-51869913D01*
X162530043Y-51614737D01*
X162430478Y-51374366D01*
X162285933Y-51158039D01*
X162101961Y-50974067D01*
X161885634Y-50829522D01*
X161808863Y-50797722D01*
X166946237Y-50797722D01*
X166946237Y-51202278D01*
X167025162Y-51599060D01*
X167179979Y-51972821D01*
X167404738Y-52309197D01*
X167690803Y-52595262D01*
X168027179Y-52820021D01*
X168400940Y-52974838D01*
X168797722Y-53053763D01*
X169202278Y-53053763D01*
X169599060Y-52974838D01*
X169972821Y-52820021D01*
X170309197Y-52595262D01*
X170595262Y-52309197D01*
X170820021Y-51972821D01*
X170974838Y-51599060D01*
X171053763Y-51202278D01*
X171053763Y-50797722D01*
X170974838Y-50400940D01*
X170820021Y-50027179D01*
X170595262Y-49690803D01*
X170309197Y-49404738D01*
X169972821Y-49179979D01*
X169599060Y-49025162D01*
X169202278Y-48946237D01*
X168797722Y-48946237D01*
X168400940Y-49025162D01*
X168027179Y-49179979D01*
X167690803Y-49404738D01*
X167404738Y-49690803D01*
X167179979Y-50027179D01*
X167025162Y-50400940D01*
X166946237Y-50797722D01*
X161808863Y-50797722D01*
X161645263Y-50729957D01*
X161390087Y-50679200D01*
X161129913Y-50679200D01*
X160874737Y-50729957D01*
X160634366Y-50829522D01*
X160418039Y-50974067D01*
X160234067Y-51158039D01*
X160089522Y-51374366D01*
X159989957Y-51614737D01*
X159939200Y-51869913D01*
X159939200Y-52130087D01*
X159989957Y-52385263D01*
X160038683Y-52502897D01*
X146554420Y-65987160D01*
X146535043Y-66003062D01*
X146519141Y-66022439D01*
X146519140Y-66022440D01*
X146471561Y-66080415D01*
X146424390Y-66168667D01*
X146398278Y-66254748D01*
X146395342Y-66264426D01*
X146385533Y-66364010D01*
X146387991Y-66388964D01*
X146387990Y-73871046D01*
X146385533Y-73895990D01*
X146387990Y-73920934D01*
X146387990Y-73920936D01*
X146395341Y-73995574D01*
X146424389Y-74091332D01*
X146471561Y-74179585D01*
X146535042Y-74256938D01*
X146554425Y-74272845D01*
X147922780Y-75641200D01*
X147887455Y-75641200D01*
X147754960Y-75667555D01*
X147630152Y-75719252D01*
X147517828Y-75794305D01*
X147422305Y-75889828D01*
X147347252Y-76002152D01*
X147295555Y-76126960D01*
X147269200Y-76259455D01*
X147269200Y-76394545D01*
X147295555Y-76527040D01*
X147347252Y-76651848D01*
X147422305Y-76764172D01*
X147492001Y-76833868D01*
X147492000Y-77884188D01*
X147452350Y-77905382D01*
X147302973Y-78027972D01*
X147180383Y-78177349D01*
X147089289Y-78347771D01*
X147033195Y-78532690D01*
X147019000Y-78676813D01*
X147019000Y-79323186D01*
X147033195Y-79467309D01*
X147089289Y-79652228D01*
X147180382Y-79822651D01*
X147302972Y-79972028D01*
X147339518Y-80002020D01*
X142220441Y-80002020D01*
X141235918Y-79017498D01*
X141373000Y-78945155D01*
X141373000Y-77627000D01*
X141627000Y-77627000D01*
X141627000Y-78945155D01*
X141856890Y-79066476D01*
X142119858Y-78974352D01*
X142371193Y-78827496D01*
X142589049Y-78634429D01*
X142765053Y-78402570D01*
X142892442Y-78140830D01*
X142966320Y-77859267D01*
X142826165Y-77627000D01*
X141627000Y-77627000D01*
X141373000Y-77627000D01*
X141353000Y-77627000D01*
X141353000Y-77373000D01*
X141373000Y-77373000D01*
X141373000Y-76054845D01*
X141627000Y-76054845D01*
X141627000Y-77373000D01*
X142826165Y-77373000D01*
X142966320Y-77140733D01*
X142892442Y-76859170D01*
X142765053Y-76597430D01*
X142589049Y-76365571D01*
X142371193Y-76172504D01*
X142119858Y-76025648D01*
X141856890Y-75933524D01*
X141627000Y-76054845D01*
X141373000Y-76054845D01*
X141143110Y-75933524D01*
X140880142Y-76025648D01*
X140628807Y-76172504D01*
X140410951Y-76365571D01*
X140234947Y-76597430D01*
X140113535Y-76846890D01*
X140028491Y-76687784D01*
X139874660Y-76500340D01*
X139687215Y-76346509D01*
X139473362Y-76232202D01*
X139241317Y-76161812D01*
X139000000Y-76138044D01*
X138758682Y-76161812D01*
X138526637Y-76232202D01*
X138312784Y-76346509D01*
X138125340Y-76500340D01*
X137971509Y-76687785D01*
X137857202Y-76901638D01*
X137786812Y-77133683D01*
X137769000Y-77314529D01*
X137732843Y-77314529D01*
X137732843Y-76775000D01*
X137720683Y-76651538D01*
X137684671Y-76532821D01*
X137626190Y-76423411D01*
X137547488Y-76327512D01*
X137451589Y-76248810D01*
X137342179Y-76190329D01*
X137223462Y-76154317D01*
X137100000Y-76142157D01*
X135900000Y-76142157D01*
X135776538Y-76154317D01*
X135657821Y-76190329D01*
X135548411Y-76248810D01*
X135452512Y-76327512D01*
X135373810Y-76423411D01*
X135315329Y-76532821D01*
X135279317Y-76651538D01*
X135267157Y-76775000D01*
X116576555Y-76775000D01*
X116535729Y-76747721D01*
X116329900Y-76662464D01*
X116111394Y-76619000D01*
X115888606Y-76619000D01*
X115670100Y-76662464D01*
X115464271Y-76747721D01*
X115279030Y-76871495D01*
X115121495Y-77029030D01*
X114997721Y-77214271D01*
X114912464Y-77420100D01*
X114869000Y-77638606D01*
X82543065Y-77638606D01*
X82309197Y-77404738D01*
X81972821Y-77179979D01*
X81599060Y-77025162D01*
X81202278Y-76946237D01*
X80797722Y-76946237D01*
X80400940Y-77025162D01*
X80027179Y-77179979D01*
X79690803Y-77404738D01*
X79404738Y-77690803D01*
X79179979Y-78027179D01*
X79025162Y-78400940D01*
X78946237Y-78797722D01*
X78393700Y-78797722D01*
X78393700Y-71138606D01*
X114869000Y-71138606D01*
X114869000Y-71361394D01*
X114912464Y-71579900D01*
X114997721Y-71785729D01*
X115121495Y-71970970D01*
X115279030Y-72128505D01*
X115464271Y-72252279D01*
X115670100Y-72337536D01*
X115888606Y-72381000D01*
X116111394Y-72381000D01*
X116329900Y-72337536D01*
X116535729Y-72252279D01*
X116720970Y-72128505D01*
X116878505Y-71970970D01*
X117002279Y-71785729D01*
X117087536Y-71579900D01*
X117131000Y-71361394D01*
X117131000Y-71138606D01*
X117087536Y-70920100D01*
X117002279Y-70714271D01*
X116878505Y-70529030D01*
X116720970Y-70371495D01*
X116535729Y-70247721D01*
X116329900Y-70162464D01*
X116111394Y-70119000D01*
X115888606Y-70119000D01*
X115670100Y-70162464D01*
X115464271Y-70247721D01*
X115279030Y-70371495D01*
X115121495Y-70529030D01*
X114997721Y-70714271D01*
X114912464Y-70920100D01*
X114869000Y-71138606D01*
X78393700Y-71138606D01*
X78393700Y-69133682D01*
X85319000Y-69133682D01*
X85319000Y-69366318D01*
X85364386Y-69594485D01*
X85453412Y-69809413D01*
X85582658Y-70002843D01*
X85747157Y-70167342D01*
X85940587Y-70296588D01*
X86155515Y-70385614D01*
X86383682Y-70431000D01*
X86616318Y-70431000D01*
X86844485Y-70385614D01*
X87059413Y-70296588D01*
X87252843Y-70167342D01*
X87417342Y-70002843D01*
X87546588Y-69809413D01*
X87635614Y-69594485D01*
X87681000Y-69366318D01*
X87681000Y-69133682D01*
X87635614Y-68905515D01*
X87546588Y-68690587D01*
X87417342Y-68497157D01*
X87252843Y-68332658D01*
X87059413Y-68203412D01*
X86844485Y-68114386D01*
X86616318Y-68069000D01*
X86383682Y-68069000D01*
X86155515Y-68114386D01*
X85940587Y-68203412D01*
X85747157Y-68332658D01*
X85582658Y-68497157D01*
X85453412Y-68690587D01*
X85364386Y-68905515D01*
X85319000Y-69133682D01*
X78393700Y-69133682D01*
X78393700Y-61633682D01*
X85319000Y-61633682D01*
X85319000Y-61866318D01*
X85364386Y-62094485D01*
X85453412Y-62309413D01*
X85582658Y-62502843D01*
X85747157Y-62667342D01*
X85940587Y-62796588D01*
X86155515Y-62885614D01*
X86383682Y-62931000D01*
X86616318Y-62931000D01*
X86844485Y-62885614D01*
X87059413Y-62796588D01*
X87252843Y-62667342D01*
X87417342Y-62502843D01*
X87546588Y-62309413D01*
X87635614Y-62094485D01*
X87681000Y-61866318D01*
X87681000Y-61633682D01*
X87635614Y-61405515D01*
X87546588Y-61190587D01*
X87417342Y-60997157D01*
X87252843Y-60832658D01*
X87059413Y-60703412D01*
X86844485Y-60614386D01*
X86616318Y-60569000D01*
X86383682Y-60569000D01*
X86155515Y-60614386D01*
X85940587Y-60703412D01*
X85747157Y-60832658D01*
X85582658Y-60997157D01*
X85453412Y-61190587D01*
X85364386Y-61405515D01*
X85319000Y-61633682D01*
X78393700Y-61633682D01*
X78393700Y-50797722D01*
X78946237Y-50797722D01*
X78946237Y-51202278D01*
X79025162Y-51599060D01*
X79179979Y-51972821D01*
X79404738Y-52309197D01*
X79690803Y-52595262D01*
X80027179Y-52820021D01*
X80400940Y-52974838D01*
X80797722Y-53053763D01*
X81202278Y-53053763D01*
X81599060Y-52974838D01*
X81972821Y-52820021D01*
X82309197Y-52595262D01*
X82595262Y-52309197D01*
X82820021Y-51972821D01*
X82933027Y-51700000D01*
X85317157Y-51700000D01*
X85317157Y-54300000D01*
X85324513Y-54374689D01*
X85346299Y-54446508D01*
X85381678Y-54512696D01*
X85429289Y-54570711D01*
X85487304Y-54618322D01*
X85553492Y-54653701D01*
X85625311Y-54675487D01*
X85700000Y-54682843D01*
X86097977Y-54682843D01*
X101889915Y-70474782D01*
X102078316Y-70629398D01*
X102365132Y-70782704D01*
X102676347Y-70877110D01*
X103000000Y-70908988D01*
X103323652Y-70877110D01*
X103634867Y-70782704D01*
X103921683Y-70629398D01*
X104173081Y-70423081D01*
X104379398Y-70171683D01*
X104532704Y-69884867D01*
X104566031Y-69775000D01*
X135267157Y-69775000D01*
X135267157Y-71225000D01*
X135279317Y-71348462D01*
X135315329Y-71467179D01*
X135373810Y-71576589D01*
X135452512Y-71672488D01*
X135548411Y-71751190D01*
X135657821Y-71809671D01*
X135776538Y-71845683D01*
X135900000Y-71857843D01*
X137100000Y-71857843D01*
X137223462Y-71845683D01*
X137342179Y-71809671D01*
X137451589Y-71751190D01*
X137547488Y-71672488D01*
X137626190Y-71576589D01*
X137684671Y-71467179D01*
X137720683Y-71348462D01*
X137732843Y-71225000D01*
X137732843Y-70314529D01*
X137769000Y-70314529D01*
X137769000Y-70685472D01*
X137786812Y-70866318D01*
X137857202Y-71098363D01*
X137971509Y-71312216D01*
X138125341Y-71499660D01*
X138312785Y-71653491D01*
X138526638Y-71767798D01*
X138758683Y-71838188D01*
X139000000Y-71861956D01*
X139241318Y-71838188D01*
X139473363Y-71767798D01*
X139687216Y-71653491D01*
X139874660Y-71499660D01*
X140028491Y-71312215D01*
X140113535Y-71153110D01*
X140234947Y-71402570D01*
X140410951Y-71634429D01*
X140628807Y-71827496D01*
X140880142Y-71974352D01*
X141143110Y-72066476D01*
X141373000Y-71945155D01*
X141373000Y-70627000D01*
X141627000Y-70627000D01*
X141627000Y-71945155D01*
X141856890Y-72066476D01*
X142119858Y-71974352D01*
X142371193Y-71827496D01*
X142589049Y-71634429D01*
X142765053Y-71402570D01*
X142892442Y-71140830D01*
X142966320Y-70859267D01*
X142826165Y-70627000D01*
X141627000Y-70627000D01*
X141373000Y-70627000D01*
X141353000Y-70627000D01*
X141353000Y-70373000D01*
X141373000Y-70373000D01*
X141373000Y-69054845D01*
X141627000Y-69054845D01*
X141627000Y-70373000D01*
X142826165Y-70373000D01*
X142966320Y-70140733D01*
X142892442Y-69859170D01*
X142765053Y-69597430D01*
X142589049Y-69365571D01*
X142371193Y-69172504D01*
X142119858Y-69025648D01*
X141856890Y-68933524D01*
X141627000Y-69054845D01*
X141373000Y-69054845D01*
X141143110Y-68933524D01*
X140880142Y-69025648D01*
X140628807Y-69172504D01*
X140410951Y-69365571D01*
X140234947Y-69597430D01*
X140113535Y-69846890D01*
X140028491Y-69687784D01*
X139874660Y-69500340D01*
X139687215Y-69346509D01*
X139473362Y-69232202D01*
X139241317Y-69161812D01*
X139000000Y-69138044D01*
X138758682Y-69161812D01*
X138526637Y-69232202D01*
X138312784Y-69346509D01*
X138125340Y-69500340D01*
X137971509Y-69687785D01*
X137857202Y-69901638D01*
X137786812Y-70133683D01*
X137769000Y-70314529D01*
X137732843Y-70314529D01*
X137732843Y-69775000D01*
X137720683Y-69651538D01*
X137684671Y-69532821D01*
X137626190Y-69423411D01*
X137547488Y-69327512D01*
X137451589Y-69248810D01*
X137342179Y-69190329D01*
X137223462Y-69154317D01*
X137100000Y-69142157D01*
X135900000Y-69142157D01*
X135776538Y-69154317D01*
X135657821Y-69190329D01*
X135548411Y-69248810D01*
X135452512Y-69327512D01*
X135373810Y-69423411D01*
X135315329Y-69532821D01*
X135279317Y-69651538D01*
X135267157Y-69775000D01*
X104566031Y-69775000D01*
X104627110Y-69573652D01*
X104658988Y-69250000D01*
X104627110Y-68926347D01*
X104532704Y-68615132D01*
X104379398Y-68328316D01*
X104224782Y-68139915D01*
X88919303Y-52834436D01*
X90319000Y-52834436D01*
X90319000Y-53165564D01*
X90383600Y-53490330D01*
X90510317Y-53796252D01*
X90694282Y-54071575D01*
X90928425Y-54305718D01*
X91203748Y-54489683D01*
X91509670Y-54616400D01*
X91834436Y-54681000D01*
X92165564Y-54681000D01*
X92490330Y-54616400D01*
X92796252Y-54489683D01*
X93006463Y-54349224D01*
X95830381Y-54349224D01*
X95962317Y-54644312D01*
X96303045Y-54815159D01*
X96670557Y-54916250D01*
X97050729Y-54943701D01*
X97428951Y-54896457D01*
X97790690Y-54776333D01*
X98037683Y-54644312D01*
X98169619Y-54349224D01*
X97000000Y-53179605D01*
X95830381Y-54349224D01*
X93006463Y-54349224D01*
X93071575Y-54305718D01*
X93305718Y-54071575D01*
X93391152Y-53943714D01*
X95338731Y-51996135D01*
X95184841Y-52303045D01*
X95083750Y-52670557D01*
X95056299Y-53050729D01*
X95103543Y-53428951D01*
X95223667Y-53790690D01*
X95355688Y-54037683D01*
X95650776Y-54169619D01*
X96820395Y-53000000D01*
X96806253Y-52985858D01*
X96985858Y-52806253D01*
X97000000Y-52820395D01*
X97014143Y-52806253D01*
X97193748Y-52985858D01*
X97179605Y-53000000D01*
X98349224Y-54169619D01*
X98644312Y-54037683D01*
X98815159Y-53696955D01*
X98916250Y-53329443D01*
X98943701Y-52949271D01*
X98896457Y-52571049D01*
X98776333Y-52209310D01*
X98644312Y-51962317D01*
X98349226Y-51830382D01*
X98352609Y-51826999D01*
X100317157Y-51826999D01*
X100317157Y-54300000D01*
X100324513Y-54374689D01*
X100346299Y-54446508D01*
X100381678Y-54512696D01*
X100429289Y-54570711D01*
X100487304Y-54618322D01*
X100553492Y-54653701D01*
X100625311Y-54675487D01*
X100700000Y-54682843D01*
X101347977Y-54682843D01*
X104849001Y-58183868D01*
X104849000Y-61831103D01*
X104872889Y-62073652D01*
X104967295Y-62384866D01*
X105120602Y-62671683D01*
X105326918Y-62923082D01*
X105578316Y-63129398D01*
X105865133Y-63282705D01*
X106176347Y-63377111D01*
X106500000Y-63408988D01*
X106823652Y-63377111D01*
X107134866Y-63282705D01*
X107421683Y-63129398D01*
X107673082Y-62923082D01*
X107794609Y-62775000D01*
X126767157Y-62775000D01*
X126767157Y-64225000D01*
X126779317Y-64348462D01*
X126815329Y-64467179D01*
X126873810Y-64576589D01*
X126952512Y-64672488D01*
X127048411Y-64751190D01*
X127157821Y-64809671D01*
X127276538Y-64845683D01*
X127400000Y-64857843D01*
X128600000Y-64857843D01*
X128723462Y-64845683D01*
X128842179Y-64809671D01*
X128951589Y-64751190D01*
X129047488Y-64672488D01*
X129126190Y-64576589D01*
X129184671Y-64467179D01*
X129220683Y-64348462D01*
X129232843Y-64225000D01*
X129232843Y-63314529D01*
X129269000Y-63314529D01*
X129269000Y-63685472D01*
X129286812Y-63866318D01*
X129357202Y-64098363D01*
X129471509Y-64312216D01*
X129625341Y-64499660D01*
X129812785Y-64653491D01*
X130026638Y-64767798D01*
X130258683Y-64838188D01*
X130500000Y-64861956D01*
X130741318Y-64838188D01*
X130973363Y-64767798D01*
X131187216Y-64653491D01*
X131374660Y-64499660D01*
X131528491Y-64312215D01*
X131613535Y-64153110D01*
X131734947Y-64402570D01*
X131910951Y-64634429D01*
X132128807Y-64827496D01*
X132380142Y-64974352D01*
X132643110Y-65066476D01*
X132873000Y-64945155D01*
X132873000Y-63627000D01*
X133127000Y-63627000D01*
X133127000Y-64945155D01*
X133356890Y-65066476D01*
X133619858Y-64974352D01*
X133871193Y-64827496D01*
X134089049Y-64634429D01*
X134265053Y-64402570D01*
X134392442Y-64140830D01*
X134466320Y-63859267D01*
X134326165Y-63627000D01*
X133127000Y-63627000D01*
X132873000Y-63627000D01*
X132853000Y-63627000D01*
X132853000Y-63373000D01*
X132873000Y-63373000D01*
X132873000Y-62054845D01*
X133127000Y-62054845D01*
X133127000Y-63373000D01*
X134326165Y-63373000D01*
X134466320Y-63140733D01*
X134392442Y-62859170D01*
X134265053Y-62597430D01*
X134089049Y-62365571D01*
X133871193Y-62172504D01*
X133619858Y-62025648D01*
X133356890Y-61933524D01*
X133127000Y-62054845D01*
X132873000Y-62054845D01*
X132643110Y-61933524D01*
X132380142Y-62025648D01*
X132128807Y-62172504D01*
X131910951Y-62365571D01*
X131734947Y-62597430D01*
X131613535Y-62846890D01*
X131528491Y-62687784D01*
X131374660Y-62500340D01*
X131187215Y-62346509D01*
X130973362Y-62232202D01*
X130741317Y-62161812D01*
X130500000Y-62138044D01*
X130258682Y-62161812D01*
X130026637Y-62232202D01*
X129812784Y-62346509D01*
X129625340Y-62500340D01*
X129471509Y-62687785D01*
X129357202Y-62901638D01*
X129286812Y-63133683D01*
X129269000Y-63314529D01*
X129232843Y-63314529D01*
X129232843Y-62775000D01*
X129220683Y-62651538D01*
X129184671Y-62532821D01*
X129126190Y-62423411D01*
X129047488Y-62327512D01*
X128951589Y-62248810D01*
X128842179Y-62190329D01*
X128723462Y-62154317D01*
X128600000Y-62142157D01*
X127400000Y-62142157D01*
X127276538Y-62154317D01*
X127157821Y-62190329D01*
X127048411Y-62248810D01*
X126952512Y-62327512D01*
X126873810Y-62423411D01*
X126815329Y-62532821D01*
X126779317Y-62651538D01*
X126767157Y-62775000D01*
X107794609Y-62775000D01*
X107879398Y-62671684D01*
X108032705Y-62384867D01*
X108127111Y-62073653D01*
X108151000Y-61831104D01*
X108151000Y-61100000D01*
X145111928Y-61100000D01*
X145115000Y-61714250D01*
X145273750Y-61873000D01*
X145581658Y-61873000D01*
X145580141Y-61943807D01*
X145577784Y-61946164D01*
X145578937Y-62000000D01*
X145577784Y-62053836D01*
X145580141Y-62056193D01*
X145581658Y-62127000D01*
X145273750Y-62127000D01*
X145115000Y-62285750D01*
X145111928Y-62900000D01*
X145124188Y-63024482D01*
X145160498Y-63144180D01*
X145219463Y-63254494D01*
X145298815Y-63351185D01*
X145395506Y-63430537D01*
X145505820Y-63489502D01*
X145625518Y-63525812D01*
X145750000Y-63538072D01*
X146714250Y-63535000D01*
X146747106Y-63502144D01*
X146913998Y-63535113D01*
X147088328Y-63534884D01*
X147252711Y-63501961D01*
X147285750Y-63535000D01*
X148250000Y-63538072D01*
X148374482Y-63525812D01*
X148494180Y-63489502D01*
X148604494Y-63430537D01*
X148701185Y-63351185D01*
X148780537Y-63254494D01*
X148839502Y-63144180D01*
X148875812Y-63024482D01*
X148888072Y-62900000D01*
X148885000Y-62285750D01*
X148726250Y-62127000D01*
X148418342Y-62127000D01*
X148419859Y-62056193D01*
X148422216Y-62053836D01*
X148421063Y-62000000D01*
X148422216Y-61946164D01*
X148419859Y-61943807D01*
X148418342Y-61873000D01*
X148726250Y-61873000D01*
X148885000Y-61714250D01*
X148888072Y-61100000D01*
X148875812Y-60975518D01*
X148839502Y-60855820D01*
X148780537Y-60745506D01*
X148701185Y-60648815D01*
X148604494Y-60569463D01*
X148494180Y-60510498D01*
X148374482Y-60474188D01*
X148250000Y-60461928D01*
X147285750Y-60465000D01*
X147252894Y-60497856D01*
X147086002Y-60464887D01*
X146911672Y-60465116D01*
X146747289Y-60498039D01*
X146714250Y-60465000D01*
X145750000Y-60461928D01*
X145625518Y-60474188D01*
X145505820Y-60510498D01*
X145395506Y-60569463D01*
X145298815Y-60648815D01*
X145219463Y-60745506D01*
X145160498Y-60855820D01*
X145124188Y-60975518D01*
X145111928Y-61100000D01*
X108151000Y-61100000D01*
X108151000Y-57971455D01*
X145745200Y-57971455D01*
X145745200Y-58106545D01*
X145771555Y-58239040D01*
X145823252Y-58363848D01*
X145898305Y-58476172D01*
X145993828Y-58571695D01*
X146106152Y-58646748D01*
X146230960Y-58698445D01*
X146363455Y-58724800D01*
X146498545Y-58724800D01*
X146631040Y-58698445D01*
X146755848Y-58646748D01*
X146868172Y-58571695D01*
X146963695Y-58476172D01*
X147038748Y-58363848D01*
X147090445Y-58239040D01*
X147116800Y-58106545D01*
X147116800Y-58071620D01*
X151848421Y-53340000D01*
X152954133Y-53340000D01*
X152978828Y-53364695D01*
X153091152Y-53439748D01*
X153215960Y-53491445D01*
X153348455Y-53517800D01*
X153483545Y-53517800D01*
X153616040Y-53491445D01*
X153740848Y-53439748D01*
X153853172Y-53364695D01*
X153948695Y-53269172D01*
X154023748Y-53156848D01*
X154075445Y-53032040D01*
X154101800Y-52899545D01*
X154101800Y-52764455D01*
X154075445Y-52631960D01*
X154023748Y-52507152D01*
X153948695Y-52394828D01*
X153853172Y-52299305D01*
X153740848Y-52224252D01*
X153616040Y-52172555D01*
X153483545Y-52146200D01*
X153348455Y-52146200D01*
X153215960Y-52172555D01*
X153091152Y-52224252D01*
X152978828Y-52299305D01*
X152954133Y-52324000D01*
X151662943Y-52324000D01*
X151637999Y-52321543D01*
X151613055Y-52324000D01*
X151613053Y-52324000D01*
X151538415Y-52331351D01*
X151442657Y-52360399D01*
X151401576Y-52382357D01*
X151354404Y-52407571D01*
X151299810Y-52452376D01*
X151277052Y-52471052D01*
X151261150Y-52490429D01*
X150681000Y-53070579D01*
X150681000Y-52834436D01*
X150616400Y-52509670D01*
X150489683Y-52203748D01*
X150305718Y-51928425D01*
X150071575Y-51694282D01*
X149796252Y-51510317D01*
X149490330Y-51383600D01*
X149165564Y-51319000D01*
X148834436Y-51319000D01*
X148509670Y-51383600D01*
X148203748Y-51510317D01*
X147928425Y-51694282D01*
X147694282Y-51928425D01*
X147510317Y-52203748D01*
X147383600Y-52509670D01*
X147319000Y-52834436D01*
X147319000Y-53165564D01*
X147383600Y-53490330D01*
X147510317Y-53796252D01*
X147694282Y-54071575D01*
X147928425Y-54305718D01*
X148203748Y-54489683D01*
X148509670Y-54616400D01*
X148834436Y-54681000D01*
X149070579Y-54681000D01*
X146398380Y-57353200D01*
X146363455Y-57353200D01*
X146230960Y-57379555D01*
X146106152Y-57431252D01*
X145993828Y-57506305D01*
X145898305Y-57601828D01*
X145823252Y-57714152D01*
X145771555Y-57838960D01*
X145745200Y-57971455D01*
X108151000Y-57971455D01*
X108151000Y-57581100D01*
X108158988Y-57499999D01*
X108147125Y-57379555D01*
X108127111Y-57176347D01*
X108032705Y-56865133D01*
X107941626Y-56694737D01*
X107879398Y-56578315D01*
X107724782Y-56389915D01*
X107673082Y-56326918D01*
X107610085Y-56275218D01*
X103682843Y-52347977D01*
X103682843Y-52017709D01*
X105608848Y-53943714D01*
X105694282Y-54071575D01*
X105928425Y-54305718D01*
X106203748Y-54489683D01*
X106509670Y-54616400D01*
X106834436Y-54681000D01*
X107165564Y-54681000D01*
X107490330Y-54616400D01*
X107796252Y-54489683D01*
X108006463Y-54349224D01*
X110830381Y-54349224D01*
X110962317Y-54644312D01*
X111303045Y-54815159D01*
X111670557Y-54916250D01*
X112050729Y-54943701D01*
X112428951Y-54896457D01*
X112790690Y-54776333D01*
X113037683Y-54644312D01*
X113169619Y-54349224D01*
X112000000Y-53179605D01*
X110830381Y-54349224D01*
X108006463Y-54349224D01*
X108071575Y-54305718D01*
X108305718Y-54071575D01*
X108489683Y-53796252D01*
X108616400Y-53490330D01*
X108681000Y-53165564D01*
X108681000Y-53050729D01*
X110056299Y-53050729D01*
X110103543Y-53428951D01*
X110223667Y-53790690D01*
X110355688Y-54037683D01*
X110650776Y-54169619D01*
X111820395Y-53000000D01*
X112179605Y-53000000D01*
X113349224Y-54169619D01*
X113644312Y-54037683D01*
X113815159Y-53696955D01*
X113916250Y-53329443D01*
X113943701Y-52949271D01*
X113896457Y-52571049D01*
X113776333Y-52209310D01*
X113644312Y-51962317D01*
X113349224Y-51830381D01*
X112179605Y-53000000D01*
X111820395Y-53000000D01*
X110650776Y-51830381D01*
X110355688Y-51962317D01*
X110184841Y-52303045D01*
X110083750Y-52670557D01*
X110056299Y-53050729D01*
X108681000Y-53050729D01*
X108681000Y-52834436D01*
X108616400Y-52509670D01*
X108489683Y-52203748D01*
X108305718Y-51928425D01*
X108071575Y-51694282D01*
X108006464Y-51650776D01*
X110830381Y-51650776D01*
X112000000Y-52820395D01*
X113120395Y-51700000D01*
X115317157Y-51700000D01*
X115317157Y-54300000D01*
X115324513Y-54374689D01*
X115346299Y-54446508D01*
X115381678Y-54512696D01*
X115429289Y-54570711D01*
X115487304Y-54618322D01*
X115553492Y-54653701D01*
X115625311Y-54675487D01*
X115700000Y-54682843D01*
X118300000Y-54682843D01*
X118374689Y-54675487D01*
X118446508Y-54653701D01*
X118512696Y-54618322D01*
X118570711Y-54570711D01*
X118618322Y-54512696D01*
X118653701Y-54446508D01*
X118675487Y-54374689D01*
X118682843Y-54300000D01*
X118682843Y-52834436D01*
X120319000Y-52834436D01*
X120319000Y-53165564D01*
X120383600Y-53490330D01*
X120510317Y-53796252D01*
X120694282Y-54071575D01*
X120928425Y-54305718D01*
X121203748Y-54489683D01*
X121509670Y-54616400D01*
X121834436Y-54681000D01*
X122165564Y-54681000D01*
X122490330Y-54616400D01*
X122796252Y-54489683D01*
X123006463Y-54349224D01*
X125830381Y-54349224D01*
X125962317Y-54644312D01*
X126303045Y-54815159D01*
X126670557Y-54916250D01*
X127050729Y-54943701D01*
X127428951Y-54896457D01*
X127790690Y-54776333D01*
X128037683Y-54644312D01*
X128169619Y-54349224D01*
X127000000Y-53179605D01*
X125830381Y-54349224D01*
X123006463Y-54349224D01*
X123071575Y-54305718D01*
X123305718Y-54071575D01*
X123489683Y-53796252D01*
X123616400Y-53490330D01*
X123681000Y-53165564D01*
X123681000Y-53050729D01*
X125056299Y-53050729D01*
X125103543Y-53428951D01*
X125223667Y-53790690D01*
X125355688Y-54037683D01*
X125650776Y-54169619D01*
X126820395Y-53000000D01*
X127179605Y-53000000D01*
X128349224Y-54169619D01*
X128644312Y-54037683D01*
X128815159Y-53696955D01*
X128916250Y-53329443D01*
X128943701Y-52949271D01*
X128896457Y-52571049D01*
X128776333Y-52209310D01*
X128644312Y-51962317D01*
X128349224Y-51830381D01*
X127179605Y-53000000D01*
X126820395Y-53000000D01*
X125650776Y-51830381D01*
X125355688Y-51962317D01*
X125184841Y-52303045D01*
X125083750Y-52670557D01*
X125056299Y-53050729D01*
X123681000Y-53050729D01*
X123681000Y-52834436D01*
X123616400Y-52509670D01*
X123489683Y-52203748D01*
X123305718Y-51928425D01*
X123071575Y-51694282D01*
X123006464Y-51650776D01*
X125830381Y-51650776D01*
X127000000Y-52820395D01*
X128120395Y-51700000D01*
X132317157Y-51700000D01*
X132317157Y-54300000D01*
X132324513Y-54374689D01*
X132346299Y-54446508D01*
X132381678Y-54512696D01*
X132429289Y-54570711D01*
X132487304Y-54618322D01*
X132553492Y-54653701D01*
X132625311Y-54675487D01*
X132700000Y-54682843D01*
X135300000Y-54682843D01*
X135374689Y-54675487D01*
X135446508Y-54653701D01*
X135512696Y-54618322D01*
X135570711Y-54570711D01*
X135618322Y-54512696D01*
X135653701Y-54446508D01*
X135675487Y-54374689D01*
X135677995Y-54349224D01*
X137830381Y-54349224D01*
X137962317Y-54644312D01*
X138303045Y-54815159D01*
X138670557Y-54916250D01*
X139050729Y-54943701D01*
X139428951Y-54896457D01*
X139790690Y-54776333D01*
X140037683Y-54644312D01*
X140169619Y-54349224D01*
X139000000Y-53179605D01*
X137830381Y-54349224D01*
X135677995Y-54349224D01*
X135682843Y-54300000D01*
X135682843Y-53050729D01*
X137056299Y-53050729D01*
X137103543Y-53428951D01*
X137223667Y-53790690D01*
X137355688Y-54037683D01*
X137650776Y-54169619D01*
X138820395Y-53000000D01*
X139179605Y-53000000D01*
X140349224Y-54169619D01*
X140644312Y-54037683D01*
X140815159Y-53696955D01*
X140916250Y-53329443D01*
X140943701Y-52949271D01*
X140896457Y-52571049D01*
X140776333Y-52209310D01*
X140644312Y-51962317D01*
X140349224Y-51830381D01*
X139179605Y-53000000D01*
X138820395Y-53000000D01*
X137650776Y-51830381D01*
X137355688Y-51962317D01*
X137184841Y-52303045D01*
X137083750Y-52670557D01*
X137056299Y-53050729D01*
X135682843Y-53050729D01*
X135682843Y-51700000D01*
X135677996Y-51650776D01*
X137830381Y-51650776D01*
X139000000Y-52820395D01*
X140120395Y-51700000D01*
X142317157Y-51700000D01*
X142317157Y-54300000D01*
X142324513Y-54374689D01*
X142346299Y-54446508D01*
X142381678Y-54512696D01*
X142429289Y-54570711D01*
X142487304Y-54618322D01*
X142553492Y-54653701D01*
X142625311Y-54675487D01*
X142700000Y-54682843D01*
X145300000Y-54682843D01*
X145374689Y-54675487D01*
X145446508Y-54653701D01*
X145512696Y-54618322D01*
X145570711Y-54570711D01*
X145618322Y-54512696D01*
X145653701Y-54446508D01*
X145675487Y-54374689D01*
X145682843Y-54300000D01*
X145682843Y-51700000D01*
X145675487Y-51625311D01*
X145653701Y-51553492D01*
X145618322Y-51487304D01*
X145570711Y-51429289D01*
X145512696Y-51381678D01*
X145446508Y-51346299D01*
X145374689Y-51324513D01*
X145300000Y-51317157D01*
X142700000Y-51317157D01*
X142625311Y-51324513D01*
X142553492Y-51346299D01*
X142487304Y-51381678D01*
X142429289Y-51429289D01*
X142381678Y-51487304D01*
X142346299Y-51553492D01*
X142324513Y-51625311D01*
X142317157Y-51700000D01*
X140120395Y-51700000D01*
X140169619Y-51650776D01*
X140037683Y-51355688D01*
X139696955Y-51184841D01*
X139329443Y-51083750D01*
X138949271Y-51056299D01*
X138571049Y-51103543D01*
X138209310Y-51223667D01*
X137962317Y-51355688D01*
X137830381Y-51650776D01*
X135677996Y-51650776D01*
X135675487Y-51625311D01*
X135653701Y-51553492D01*
X135618322Y-51487304D01*
X135570711Y-51429289D01*
X135512696Y-51381678D01*
X135446508Y-51346299D01*
X135374689Y-51324513D01*
X135300000Y-51317157D01*
X132700000Y-51317157D01*
X132625311Y-51324513D01*
X132553492Y-51346299D01*
X132487304Y-51381678D01*
X132429289Y-51429289D01*
X132381678Y-51487304D01*
X132346299Y-51553492D01*
X132324513Y-51625311D01*
X132317157Y-51700000D01*
X128120395Y-51700000D01*
X128169619Y-51650776D01*
X128037683Y-51355688D01*
X127696955Y-51184841D01*
X127329443Y-51083750D01*
X126949271Y-51056299D01*
X126571049Y-51103543D01*
X126209310Y-51223667D01*
X125962317Y-51355688D01*
X125830381Y-51650776D01*
X123006464Y-51650776D01*
X122796252Y-51510317D01*
X122490330Y-51383600D01*
X122165564Y-51319000D01*
X121834436Y-51319000D01*
X121509670Y-51383600D01*
X121203748Y-51510317D01*
X120928425Y-51694282D01*
X120694282Y-51928425D01*
X120510317Y-52203748D01*
X120383600Y-52509670D01*
X120319000Y-52834436D01*
X118682843Y-52834436D01*
X118682843Y-51700000D01*
X118675487Y-51625311D01*
X118653701Y-51553492D01*
X118618322Y-51487304D01*
X118570711Y-51429289D01*
X118512696Y-51381678D01*
X118446508Y-51346299D01*
X118374689Y-51324513D01*
X118300000Y-51317157D01*
X115700000Y-51317157D01*
X115625311Y-51324513D01*
X115553492Y-51346299D01*
X115487304Y-51381678D01*
X115429289Y-51429289D01*
X115381678Y-51487304D01*
X115346299Y-51553492D01*
X115324513Y-51625311D01*
X115317157Y-51700000D01*
X113120395Y-51700000D01*
X113169619Y-51650776D01*
X113037683Y-51355688D01*
X112696955Y-51184841D01*
X112329443Y-51083750D01*
X111949271Y-51056299D01*
X111571049Y-51103543D01*
X111209310Y-51223667D01*
X110962317Y-51355688D01*
X110830381Y-51650776D01*
X108006464Y-51650776D01*
X107943714Y-51608848D01*
X105400786Y-49065920D01*
X105349081Y-49002917D01*
X105097683Y-48796601D01*
X104810866Y-48643294D01*
X104499652Y-48548888D01*
X104257103Y-48524999D01*
X104257100Y-48524999D01*
X104175999Y-48517011D01*
X104094898Y-48524999D01*
X94905105Y-48524999D01*
X94824001Y-48517011D01*
X94742897Y-48524999D01*
X94500348Y-48548888D01*
X94189134Y-48643294D01*
X93902317Y-48796601D01*
X93650919Y-49002917D01*
X93599214Y-49065920D01*
X91056286Y-51608848D01*
X90928425Y-51694282D01*
X90694282Y-51928425D01*
X90510317Y-52203748D01*
X90383600Y-52509670D01*
X90319000Y-52834436D01*
X88919303Y-52834436D01*
X88682843Y-52597977D01*
X88682843Y-51700000D01*
X88675487Y-51625311D01*
X88653701Y-51553492D01*
X88618322Y-51487304D01*
X88570711Y-51429289D01*
X88512696Y-51381678D01*
X88446508Y-51346299D01*
X88374689Y-51324513D01*
X88300000Y-51317157D01*
X85700000Y-51317157D01*
X85625311Y-51324513D01*
X85553492Y-51346299D01*
X85487304Y-51381678D01*
X85429289Y-51429289D01*
X85381678Y-51487304D01*
X85346299Y-51553492D01*
X85324513Y-51625311D01*
X85317157Y-51700000D01*
X82933027Y-51700000D01*
X82974838Y-51599060D01*
X83053763Y-51202278D01*
X83053763Y-50797722D01*
X82974838Y-50400940D01*
X82820021Y-50027179D01*
X82595262Y-49690803D01*
X82309197Y-49404738D01*
X81972821Y-49179979D01*
X81599060Y-49025162D01*
X81202278Y-48946237D01*
X80797722Y-48946237D01*
X80400940Y-49025162D01*
X80027179Y-49179979D01*
X79690803Y-49404738D01*
X79404738Y-49690803D01*
X79179979Y-50027179D01*
X79025162Y-50400940D01*
X78946237Y-50797722D01*
X78393700Y-50797722D01*
X78393700Y-48393700D01*
X177606300Y-48393700D01*
X177606300Y-51278317D01*
G04 #@! TA.AperFunction,Conductor*
D24*
G36*
X177606300Y-51278317D02*
G01*
X177525933Y-51158039D01*
X177341961Y-50974067D01*
X177125634Y-50829522D01*
X176885263Y-50729957D01*
X176630087Y-50679200D01*
X176369913Y-50679200D01*
X176114737Y-50729957D01*
X175874366Y-50829522D01*
X175658039Y-50974067D01*
X175474067Y-51158039D01*
X175329522Y-51374366D01*
X175229957Y-51614737D01*
X175179200Y-51869913D01*
X175179200Y-52130087D01*
X175229957Y-52385263D01*
X175329522Y-52625634D01*
X175474067Y-52841961D01*
X175658039Y-53025933D01*
X175874366Y-53170478D01*
X176114633Y-53270000D01*
X175874366Y-53369522D01*
X175658039Y-53514067D01*
X175474067Y-53698039D01*
X175329522Y-53914366D01*
X175229957Y-54154737D01*
X175179200Y-54409913D01*
X175179200Y-54670087D01*
X175229957Y-54925263D01*
X175329522Y-55165634D01*
X175474067Y-55381961D01*
X175658039Y-55565933D01*
X175874366Y-55710478D01*
X176114633Y-55810000D01*
X175874366Y-55909522D01*
X175658039Y-56054067D01*
X175474067Y-56238039D01*
X175329522Y-56454366D01*
X175229957Y-56694737D01*
X175179200Y-56949913D01*
X175179200Y-57210087D01*
X175229957Y-57465263D01*
X175329522Y-57705634D01*
X175474067Y-57921961D01*
X175658039Y-58105933D01*
X175874366Y-58250478D01*
X176114633Y-58350000D01*
X175874366Y-58449522D01*
X175658039Y-58594067D01*
X175474067Y-58778039D01*
X175329522Y-58994366D01*
X175229957Y-59234737D01*
X175179200Y-59489913D01*
X175179200Y-59750087D01*
X175229957Y-60005263D01*
X175329522Y-60245634D01*
X175474067Y-60461961D01*
X175658039Y-60645933D01*
X175874366Y-60790478D01*
X176114633Y-60890000D01*
X175874366Y-60989522D01*
X175658039Y-61134067D01*
X175474067Y-61318039D01*
X175329522Y-61534366D01*
X175229957Y-61774737D01*
X175179200Y-62029913D01*
X175179200Y-62290087D01*
X175229957Y-62545263D01*
X175329522Y-62785634D01*
X175474067Y-63001961D01*
X175658039Y-63185933D01*
X175874366Y-63330478D01*
X176114633Y-63430000D01*
X175874366Y-63529522D01*
X175658039Y-63674067D01*
X175474067Y-63858039D01*
X175329522Y-64074366D01*
X175229957Y-64314737D01*
X175179200Y-64569913D01*
X175179200Y-64830087D01*
X175229957Y-65085263D01*
X175329522Y-65325634D01*
X175474067Y-65541961D01*
X175658039Y-65725933D01*
X175874366Y-65870478D01*
X176114633Y-65970000D01*
X175874366Y-66069522D01*
X175658039Y-66214067D01*
X175474067Y-66398039D01*
X175329522Y-66614366D01*
X175229957Y-66854737D01*
X175179200Y-67109913D01*
X175179200Y-67370087D01*
X175229957Y-67625263D01*
X175329522Y-67865634D01*
X175474067Y-68081961D01*
X175658039Y-68265933D01*
X175874366Y-68410478D01*
X176114633Y-68510000D01*
X175874366Y-68609522D01*
X175658039Y-68754067D01*
X175474067Y-68938039D01*
X175329522Y-69154366D01*
X175229957Y-69394737D01*
X175179200Y-69649913D01*
X175179200Y-69910087D01*
X175229957Y-70165263D01*
X175329522Y-70405634D01*
X175474067Y-70621961D01*
X175658039Y-70805933D01*
X175874366Y-70950478D01*
X176114633Y-71050000D01*
X175874366Y-71149522D01*
X175658039Y-71294067D01*
X175474067Y-71478039D01*
X175329522Y-71694366D01*
X175229957Y-71934737D01*
X175179200Y-72189913D01*
X175179200Y-72450087D01*
X175229957Y-72705263D01*
X175329522Y-72945634D01*
X175474067Y-73161961D01*
X175658039Y-73345933D01*
X175874366Y-73490478D01*
X176114633Y-73590000D01*
X175874366Y-73689522D01*
X175658039Y-73834067D01*
X175474067Y-74018039D01*
X175329522Y-74234366D01*
X175229957Y-74474737D01*
X175179200Y-74729913D01*
X175179200Y-74990087D01*
X175229957Y-75245263D01*
X175329522Y-75485634D01*
X175474067Y-75701961D01*
X175658039Y-75885933D01*
X175874366Y-76030478D01*
X176114633Y-76130000D01*
X175874366Y-76229522D01*
X175658039Y-76374067D01*
X175474067Y-76558039D01*
X175329522Y-76774366D01*
X175229957Y-77014737D01*
X175179200Y-77269913D01*
X175179200Y-77530087D01*
X175229957Y-77785263D01*
X175329522Y-78025634D01*
X175474067Y-78241961D01*
X175658039Y-78425933D01*
X175874366Y-78570478D01*
X176114633Y-78670000D01*
X175874366Y-78769522D01*
X175658039Y-78914067D01*
X175474067Y-79098039D01*
X175329522Y-79314366D01*
X175229957Y-79554737D01*
X175179200Y-79809913D01*
X175179200Y-80070087D01*
X175229957Y-80325263D01*
X175329522Y-80565634D01*
X175474067Y-80781961D01*
X175658039Y-80965933D01*
X175874366Y-81110478D01*
X176114737Y-81210043D01*
X176369913Y-81260800D01*
X176630087Y-81260800D01*
X176885263Y-81210043D01*
X177125634Y-81110478D01*
X177341961Y-80965933D01*
X177525933Y-80781961D01*
X177606301Y-80661682D01*
X177606301Y-81606300D01*
X78393700Y-81606300D01*
X78393700Y-78797722D01*
X78946237Y-78797722D01*
X78946237Y-79202278D01*
X79025162Y-79599060D01*
X79179979Y-79972821D01*
X79404738Y-80309197D01*
X79690803Y-80595262D01*
X80027179Y-80820021D01*
X80400940Y-80974838D01*
X80797722Y-81053763D01*
X81202278Y-81053763D01*
X81599060Y-80974838D01*
X81972821Y-80820021D01*
X82309197Y-80595262D01*
X82595262Y-80309197D01*
X82820021Y-79972821D01*
X82974838Y-79599060D01*
X83053763Y-79202278D01*
X83053763Y-78797722D01*
X82974838Y-78400940D01*
X82820021Y-78027179D01*
X82595262Y-77690803D01*
X82543065Y-77638606D01*
X114869000Y-77638606D01*
X114869000Y-77861394D01*
X114912464Y-78079900D01*
X114997721Y-78285729D01*
X115121495Y-78470970D01*
X115279030Y-78628505D01*
X115464271Y-78752279D01*
X115670100Y-78837536D01*
X115888606Y-78881000D01*
X116111394Y-78881000D01*
X116329900Y-78837536D01*
X116535729Y-78752279D01*
X116720970Y-78628505D01*
X116878505Y-78470970D01*
X117002279Y-78285729D01*
X117087536Y-78079900D01*
X117131000Y-77861394D01*
X117131000Y-77638606D01*
X117087536Y-77420100D01*
X117002279Y-77214271D01*
X116878505Y-77029030D01*
X116720970Y-76871495D01*
X116576555Y-76775000D01*
X135267157Y-76775000D01*
X135267157Y-78225000D01*
X135279317Y-78348462D01*
X135315329Y-78467179D01*
X135373810Y-78576589D01*
X135452512Y-78672488D01*
X135548411Y-78751190D01*
X135657821Y-78809671D01*
X135776538Y-78845683D01*
X135900000Y-78857843D01*
X137100000Y-78857843D01*
X137223462Y-78845683D01*
X137342179Y-78809671D01*
X137451589Y-78751190D01*
X137547488Y-78672488D01*
X137626190Y-78576589D01*
X137684671Y-78467179D01*
X137720683Y-78348462D01*
X137732843Y-78225000D01*
X137732843Y-77314529D01*
X137769000Y-77314529D01*
X137769000Y-77685472D01*
X137786812Y-77866318D01*
X137857202Y-78098363D01*
X137971509Y-78312216D01*
X138125341Y-78499660D01*
X138312785Y-78653491D01*
X138526638Y-78767798D01*
X138758683Y-78838188D01*
X139000000Y-78861956D01*
X139241318Y-78838188D01*
X139473363Y-78767798D01*
X139522900Y-78741320D01*
X141633170Y-80851591D01*
X141649072Y-80870968D01*
X141668449Y-80886870D01*
X141726424Y-80934449D01*
X141773596Y-80959663D01*
X141814677Y-80981621D01*
X141910435Y-81010669D01*
X141985073Y-81018020D01*
X141985075Y-81018020D01*
X142010019Y-81020477D01*
X142034963Y-81018020D01*
X160495993Y-81018020D01*
X160634366Y-81110478D01*
X160874737Y-81210043D01*
X161129913Y-81260800D01*
X161390087Y-81260800D01*
X161645263Y-81210043D01*
X161885634Y-81110478D01*
X162101961Y-80965933D01*
X162285933Y-80781961D01*
X162430478Y-80565634D01*
X162530043Y-80325263D01*
X162580800Y-80070087D01*
X162580800Y-79809913D01*
X162530043Y-79554737D01*
X162430478Y-79314366D01*
X162285933Y-79098039D01*
X162101961Y-78914067D01*
X161927839Y-78797722D01*
X166946237Y-78797722D01*
X166946237Y-79202278D01*
X167025162Y-79599060D01*
X167179979Y-79972821D01*
X167404738Y-80309197D01*
X167690803Y-80595262D01*
X168027179Y-80820021D01*
X168400940Y-80974838D01*
X168797722Y-81053763D01*
X169202278Y-81053763D01*
X169599060Y-80974838D01*
X169972821Y-80820021D01*
X170309197Y-80595262D01*
X170595262Y-80309197D01*
X170820021Y-79972821D01*
X170974838Y-79599060D01*
X171053763Y-79202278D01*
X171053763Y-78797722D01*
X170974838Y-78400940D01*
X170820021Y-78027179D01*
X170595262Y-77690803D01*
X170309197Y-77404738D01*
X169972821Y-77179979D01*
X169599060Y-77025162D01*
X169202278Y-76946237D01*
X168797722Y-76946237D01*
X168400940Y-77025162D01*
X168027179Y-77179979D01*
X167690803Y-77404738D01*
X167404738Y-77690803D01*
X167179979Y-78027179D01*
X167025162Y-78400940D01*
X166946237Y-78797722D01*
X161927839Y-78797722D01*
X161885634Y-78769522D01*
X161645367Y-78670000D01*
X161885634Y-78570478D01*
X162101961Y-78425933D01*
X162285933Y-78241961D01*
X162430478Y-78025634D01*
X162530043Y-77785263D01*
X162580800Y-77530087D01*
X162580800Y-77269913D01*
X162530043Y-77014737D01*
X162430478Y-76774366D01*
X162285933Y-76558039D01*
X162101961Y-76374067D01*
X161885634Y-76229522D01*
X161645367Y-76130000D01*
X161885634Y-76030478D01*
X162101961Y-75885933D01*
X162285933Y-75701961D01*
X162430478Y-75485634D01*
X162530043Y-75245263D01*
X162580800Y-74990087D01*
X162580800Y-74729913D01*
X162530043Y-74474737D01*
X162430478Y-74234366D01*
X162285933Y-74018039D01*
X162101961Y-73834067D01*
X161885634Y-73689522D01*
X161645367Y-73590000D01*
X161885634Y-73490478D01*
X162101961Y-73345933D01*
X162285933Y-73161961D01*
X162430478Y-72945634D01*
X162530043Y-72705263D01*
X162580800Y-72450087D01*
X162580800Y-72189913D01*
X162530043Y-71934737D01*
X162430478Y-71694366D01*
X162285933Y-71478039D01*
X162101961Y-71294067D01*
X161885634Y-71149522D01*
X161645367Y-71050000D01*
X161885634Y-70950478D01*
X162101961Y-70805933D01*
X162285933Y-70621961D01*
X162430478Y-70405634D01*
X162530043Y-70165263D01*
X162580800Y-69910087D01*
X162580800Y-69649913D01*
X162530043Y-69394737D01*
X162430478Y-69154366D01*
X162285933Y-68938039D01*
X162101961Y-68754067D01*
X161885634Y-68609522D01*
X161645367Y-68510000D01*
X161885634Y-68410478D01*
X162101961Y-68265933D01*
X162285933Y-68081961D01*
X162430478Y-67865634D01*
X162530043Y-67625263D01*
X162580800Y-67370087D01*
X162580800Y-67109913D01*
X162530043Y-66854737D01*
X162430478Y-66614366D01*
X162285933Y-66398039D01*
X162101961Y-66214067D01*
X161885634Y-66069522D01*
X161645367Y-65970000D01*
X161885634Y-65870478D01*
X162101961Y-65725933D01*
X162285933Y-65541961D01*
X162430478Y-65325634D01*
X162530043Y-65085263D01*
X162580800Y-64830087D01*
X162580800Y-64569913D01*
X162530043Y-64314737D01*
X162430478Y-64074366D01*
X162285933Y-63858039D01*
X162101961Y-63674067D01*
X161885634Y-63529522D01*
X161645367Y-63430000D01*
X161885634Y-63330478D01*
X162101961Y-63185933D01*
X162285933Y-63001961D01*
X162430478Y-62785634D01*
X162530043Y-62545263D01*
X162580800Y-62290087D01*
X162580800Y-62029913D01*
X162530043Y-61774737D01*
X162430478Y-61534366D01*
X162285933Y-61318039D01*
X162101961Y-61134067D01*
X161958330Y-61038096D01*
X162084377Y-60970723D01*
X162172871Y-60712476D01*
X161260000Y-59799605D01*
X160347129Y-60712476D01*
X160435623Y-60970723D01*
X160567332Y-61034313D01*
X160418039Y-61134067D01*
X160234067Y-61318039D01*
X160089522Y-61534366D01*
X159989957Y-61774737D01*
X159939200Y-62029913D01*
X159939200Y-62290087D01*
X159989957Y-62545263D01*
X160038682Y-62662897D01*
X152658430Y-70043150D01*
X152639053Y-70059052D01*
X152623151Y-70078429D01*
X152623150Y-70078430D01*
X152575571Y-70136405D01*
X152556789Y-70171545D01*
X152528400Y-70224657D01*
X152504320Y-70304040D01*
X152499352Y-70320416D01*
X152489543Y-70420000D01*
X152492001Y-70444954D01*
X152492000Y-71750716D01*
X152312785Y-71846509D01*
X152125341Y-72000340D01*
X151971509Y-72187784D01*
X151857202Y-72401637D01*
X151786812Y-72633682D01*
X151769000Y-72814528D01*
X151769000Y-73185471D01*
X151786812Y-73366317D01*
X151857202Y-73598362D01*
X151903616Y-73685196D01*
X151683292Y-73464872D01*
X151713188Y-73366318D01*
X151731000Y-73185472D01*
X151731000Y-72814529D01*
X151713188Y-72633683D01*
X151642798Y-72401638D01*
X151528491Y-72187785D01*
X151374660Y-72000340D01*
X151187216Y-71846509D01*
X150973363Y-71732202D01*
X150840283Y-71691833D01*
X154591266Y-67940850D01*
X154610643Y-67924948D01*
X154629319Y-67902190D01*
X154674124Y-67847596D01*
X154721295Y-67759345D01*
X154721296Y-67759342D01*
X154750344Y-67663585D01*
X154757695Y-67588947D01*
X154757695Y-67588945D01*
X154760152Y-67564001D01*
X154757695Y-67539057D01*
X154757695Y-63257725D01*
X158330443Y-59684977D01*
X159678916Y-59684977D01*
X159721973Y-59992184D01*
X159824135Y-60285086D01*
X159909277Y-60444377D01*
X160167524Y-60532871D01*
X161080395Y-59620000D01*
X161439605Y-59620000D01*
X162352476Y-60532871D01*
X162610723Y-60444377D01*
X162745597Y-60165024D01*
X162823381Y-59864725D01*
X162841084Y-59555023D01*
X162798027Y-59247816D01*
X162695865Y-58954914D01*
X162610723Y-58795623D01*
X162352476Y-58707129D01*
X161439605Y-59620000D01*
X161080395Y-59620000D01*
X160167524Y-58707129D01*
X159909277Y-58795623D01*
X159774403Y-59074976D01*
X159696619Y-59375275D01*
X159678916Y-59684977D01*
X158330443Y-59684977D01*
X160177747Y-57837673D01*
X160234067Y-57921961D01*
X160418039Y-58105933D01*
X160561670Y-58201904D01*
X160435623Y-58269277D01*
X160347129Y-58527524D01*
X161260000Y-59440395D01*
X162172871Y-58527524D01*
X162084377Y-58269277D01*
X161952668Y-58205687D01*
X162101961Y-58105933D01*
X162285933Y-57921961D01*
X162430478Y-57705634D01*
X162530043Y-57465263D01*
X162580800Y-57210087D01*
X162580800Y-56949913D01*
X162530043Y-56694737D01*
X162430478Y-56454366D01*
X162285933Y-56238039D01*
X162101961Y-56054067D01*
X161885634Y-55909522D01*
X161645367Y-55810000D01*
X161885634Y-55710478D01*
X162101961Y-55565933D01*
X162285933Y-55381961D01*
X162430478Y-55165634D01*
X162530043Y-54925263D01*
X162580800Y-54670087D01*
X162580800Y-54409913D01*
X162530043Y-54154737D01*
X162430478Y-53914366D01*
X162285933Y-53698039D01*
X162101961Y-53514067D01*
X161885634Y-53369522D01*
X161645367Y-53270000D01*
X161885634Y-53170478D01*
X162101961Y-53025933D01*
X162285933Y-52841961D01*
X162430478Y-52625634D01*
X162530043Y-52385263D01*
X162580800Y-52130087D01*
X162580800Y-51869913D01*
X162530043Y-51614737D01*
X162430478Y-51374366D01*
X162285933Y-51158039D01*
X162101961Y-50974067D01*
X161885634Y-50829522D01*
X161808863Y-50797722D01*
X166946237Y-50797722D01*
X166946237Y-51202278D01*
X167025162Y-51599060D01*
X167179979Y-51972821D01*
X167404738Y-52309197D01*
X167690803Y-52595262D01*
X168027179Y-52820021D01*
X168400940Y-52974838D01*
X168797722Y-53053763D01*
X169202278Y-53053763D01*
X169599060Y-52974838D01*
X169972821Y-52820021D01*
X170309197Y-52595262D01*
X170595262Y-52309197D01*
X170820021Y-51972821D01*
X170974838Y-51599060D01*
X171053763Y-51202278D01*
X171053763Y-50797722D01*
X170974838Y-50400940D01*
X170820021Y-50027179D01*
X170595262Y-49690803D01*
X170309197Y-49404738D01*
X169972821Y-49179979D01*
X169599060Y-49025162D01*
X169202278Y-48946237D01*
X168797722Y-48946237D01*
X168400940Y-49025162D01*
X168027179Y-49179979D01*
X167690803Y-49404738D01*
X167404738Y-49690803D01*
X167179979Y-50027179D01*
X167025162Y-50400940D01*
X166946237Y-50797722D01*
X161808863Y-50797722D01*
X161645263Y-50729957D01*
X161390087Y-50679200D01*
X161129913Y-50679200D01*
X160874737Y-50729957D01*
X160634366Y-50829522D01*
X160418039Y-50974067D01*
X160234067Y-51158039D01*
X160089522Y-51374366D01*
X159989957Y-51614737D01*
X159939200Y-51869913D01*
X159939200Y-52130087D01*
X159989957Y-52385263D01*
X160038683Y-52502897D01*
X146554420Y-65987160D01*
X146535043Y-66003062D01*
X146519141Y-66022439D01*
X146519140Y-66022440D01*
X146471561Y-66080415D01*
X146424390Y-66168667D01*
X146398278Y-66254748D01*
X146395342Y-66264426D01*
X146385533Y-66364010D01*
X146387991Y-66388964D01*
X146387990Y-73871046D01*
X146385533Y-73895990D01*
X146387990Y-73920934D01*
X146387990Y-73920936D01*
X146395341Y-73995574D01*
X146424389Y-74091332D01*
X146471561Y-74179585D01*
X146535042Y-74256938D01*
X146554425Y-74272845D01*
X147922780Y-75641200D01*
X147887455Y-75641200D01*
X147754960Y-75667555D01*
X147630152Y-75719252D01*
X147517828Y-75794305D01*
X147422305Y-75889828D01*
X147347252Y-76002152D01*
X147295555Y-76126960D01*
X147269200Y-76259455D01*
X147269200Y-76394545D01*
X147295555Y-76527040D01*
X147347252Y-76651848D01*
X147422305Y-76764172D01*
X147492001Y-76833868D01*
X147492000Y-77884188D01*
X147452350Y-77905382D01*
X147302973Y-78027972D01*
X147180383Y-78177349D01*
X147089289Y-78347771D01*
X147033195Y-78532690D01*
X147019000Y-78676813D01*
X147019000Y-79323186D01*
X147033195Y-79467309D01*
X147089289Y-79652228D01*
X147180382Y-79822651D01*
X147302972Y-79972028D01*
X147339518Y-80002020D01*
X142220441Y-80002020D01*
X141235918Y-79017498D01*
X141373000Y-78945155D01*
X141373000Y-77627000D01*
X141627000Y-77627000D01*
X141627000Y-78945155D01*
X141856890Y-79066476D01*
X142119858Y-78974352D01*
X142371193Y-78827496D01*
X142589049Y-78634429D01*
X142765053Y-78402570D01*
X142892442Y-78140830D01*
X142966320Y-77859267D01*
X142826165Y-77627000D01*
X141627000Y-77627000D01*
X141373000Y-77627000D01*
X141353000Y-77627000D01*
X141353000Y-77373000D01*
X141373000Y-77373000D01*
X141373000Y-76054845D01*
X141627000Y-76054845D01*
X141627000Y-77373000D01*
X142826165Y-77373000D01*
X142966320Y-77140733D01*
X142892442Y-76859170D01*
X142765053Y-76597430D01*
X142589049Y-76365571D01*
X142371193Y-76172504D01*
X142119858Y-76025648D01*
X141856890Y-75933524D01*
X141627000Y-76054845D01*
X141373000Y-76054845D01*
X141143110Y-75933524D01*
X140880142Y-76025648D01*
X140628807Y-76172504D01*
X140410951Y-76365571D01*
X140234947Y-76597430D01*
X140113535Y-76846890D01*
X140028491Y-76687784D01*
X139874660Y-76500340D01*
X139687215Y-76346509D01*
X139473362Y-76232202D01*
X139241317Y-76161812D01*
X139000000Y-76138044D01*
X138758682Y-76161812D01*
X138526637Y-76232202D01*
X138312784Y-76346509D01*
X138125340Y-76500340D01*
X137971509Y-76687785D01*
X137857202Y-76901638D01*
X137786812Y-77133683D01*
X137769000Y-77314529D01*
X137732843Y-77314529D01*
X137732843Y-76775000D01*
X137720683Y-76651538D01*
X137684671Y-76532821D01*
X137626190Y-76423411D01*
X137547488Y-76327512D01*
X137451589Y-76248810D01*
X137342179Y-76190329D01*
X137223462Y-76154317D01*
X137100000Y-76142157D01*
X135900000Y-76142157D01*
X135776538Y-76154317D01*
X135657821Y-76190329D01*
X135548411Y-76248810D01*
X135452512Y-76327512D01*
X135373810Y-76423411D01*
X135315329Y-76532821D01*
X135279317Y-76651538D01*
X135267157Y-76775000D01*
X116576555Y-76775000D01*
X116535729Y-76747721D01*
X116329900Y-76662464D01*
X116111394Y-76619000D01*
X115888606Y-76619000D01*
X115670100Y-76662464D01*
X115464271Y-76747721D01*
X115279030Y-76871495D01*
X115121495Y-77029030D01*
X114997721Y-77214271D01*
X114912464Y-77420100D01*
X114869000Y-77638606D01*
X82543065Y-77638606D01*
X82309197Y-77404738D01*
X81972821Y-77179979D01*
X81599060Y-77025162D01*
X81202278Y-76946237D01*
X80797722Y-76946237D01*
X80400940Y-77025162D01*
X80027179Y-77179979D01*
X79690803Y-77404738D01*
X79404738Y-77690803D01*
X79179979Y-78027179D01*
X79025162Y-78400940D01*
X78946237Y-78797722D01*
X78393700Y-78797722D01*
X78393700Y-71138606D01*
X114869000Y-71138606D01*
X114869000Y-71361394D01*
X114912464Y-71579900D01*
X114997721Y-71785729D01*
X115121495Y-71970970D01*
X115279030Y-72128505D01*
X115464271Y-72252279D01*
X115670100Y-72337536D01*
X115888606Y-72381000D01*
X116111394Y-72381000D01*
X116329900Y-72337536D01*
X116535729Y-72252279D01*
X116720970Y-72128505D01*
X116878505Y-71970970D01*
X117002279Y-71785729D01*
X117087536Y-71579900D01*
X117131000Y-71361394D01*
X117131000Y-71138606D01*
X117087536Y-70920100D01*
X117002279Y-70714271D01*
X116878505Y-70529030D01*
X116720970Y-70371495D01*
X116535729Y-70247721D01*
X116329900Y-70162464D01*
X116111394Y-70119000D01*
X115888606Y-70119000D01*
X115670100Y-70162464D01*
X115464271Y-70247721D01*
X115279030Y-70371495D01*
X115121495Y-70529030D01*
X114997721Y-70714271D01*
X114912464Y-70920100D01*
X114869000Y-71138606D01*
X78393700Y-71138606D01*
X78393700Y-69133682D01*
X85319000Y-69133682D01*
X85319000Y-69366318D01*
X85364386Y-69594485D01*
X85453412Y-69809413D01*
X85582658Y-70002843D01*
X85747157Y-70167342D01*
X85940587Y-70296588D01*
X86155515Y-70385614D01*
X86383682Y-70431000D01*
X86616318Y-70431000D01*
X86844485Y-70385614D01*
X87059413Y-70296588D01*
X87252843Y-70167342D01*
X87417342Y-70002843D01*
X87546588Y-69809413D01*
X87635614Y-69594485D01*
X87681000Y-69366318D01*
X87681000Y-69133682D01*
X87635614Y-68905515D01*
X87546588Y-68690587D01*
X87417342Y-68497157D01*
X87252843Y-68332658D01*
X87059413Y-68203412D01*
X86844485Y-68114386D01*
X86616318Y-68069000D01*
X86383682Y-68069000D01*
X86155515Y-68114386D01*
X85940587Y-68203412D01*
X85747157Y-68332658D01*
X85582658Y-68497157D01*
X85453412Y-68690587D01*
X85364386Y-68905515D01*
X85319000Y-69133682D01*
X78393700Y-69133682D01*
X78393700Y-61633682D01*
X85319000Y-61633682D01*
X85319000Y-61866318D01*
X85364386Y-62094485D01*
X85453412Y-62309413D01*
X85582658Y-62502843D01*
X85747157Y-62667342D01*
X85940587Y-62796588D01*
X86155515Y-62885614D01*
X86383682Y-62931000D01*
X86616318Y-62931000D01*
X86844485Y-62885614D01*
X87059413Y-62796588D01*
X87252843Y-62667342D01*
X87417342Y-62502843D01*
X87546588Y-62309413D01*
X87635614Y-62094485D01*
X87681000Y-61866318D01*
X87681000Y-61633682D01*
X87635614Y-61405515D01*
X87546588Y-61190587D01*
X87417342Y-60997157D01*
X87252843Y-60832658D01*
X87059413Y-60703412D01*
X86844485Y-60614386D01*
X86616318Y-60569000D01*
X86383682Y-60569000D01*
X86155515Y-60614386D01*
X85940587Y-60703412D01*
X85747157Y-60832658D01*
X85582658Y-60997157D01*
X85453412Y-61190587D01*
X85364386Y-61405515D01*
X85319000Y-61633682D01*
X78393700Y-61633682D01*
X78393700Y-50797722D01*
X78946237Y-50797722D01*
X78946237Y-51202278D01*
X79025162Y-51599060D01*
X79179979Y-51972821D01*
X79404738Y-52309197D01*
X79690803Y-52595262D01*
X80027179Y-52820021D01*
X80400940Y-52974838D01*
X80797722Y-53053763D01*
X81202278Y-53053763D01*
X81599060Y-52974838D01*
X81972821Y-52820021D01*
X82309197Y-52595262D01*
X82595262Y-52309197D01*
X82820021Y-51972821D01*
X82933027Y-51700000D01*
X85317157Y-51700000D01*
X85317157Y-54300000D01*
X85324513Y-54374689D01*
X85346299Y-54446508D01*
X85381678Y-54512696D01*
X85429289Y-54570711D01*
X85487304Y-54618322D01*
X85553492Y-54653701D01*
X85625311Y-54675487D01*
X85700000Y-54682843D01*
X86097977Y-54682843D01*
X101889915Y-70474782D01*
X102078316Y-70629398D01*
X102365132Y-70782704D01*
X102676347Y-70877110D01*
X103000000Y-70908988D01*
X103323652Y-70877110D01*
X103634867Y-70782704D01*
X103921683Y-70629398D01*
X104173081Y-70423081D01*
X104379398Y-70171683D01*
X104532704Y-69884867D01*
X104566031Y-69775000D01*
X135267157Y-69775000D01*
X135267157Y-71225000D01*
X135279317Y-71348462D01*
X135315329Y-71467179D01*
X135373810Y-71576589D01*
X135452512Y-71672488D01*
X135548411Y-71751190D01*
X135657821Y-71809671D01*
X135776538Y-71845683D01*
X135900000Y-71857843D01*
X137100000Y-71857843D01*
X137223462Y-71845683D01*
X137342179Y-71809671D01*
X137451589Y-71751190D01*
X137547488Y-71672488D01*
X137626190Y-71576589D01*
X137684671Y-71467179D01*
X137720683Y-71348462D01*
X137732843Y-71225000D01*
X137732843Y-70314529D01*
X137769000Y-70314529D01*
X137769000Y-70685472D01*
X137786812Y-70866318D01*
X137857202Y-71098363D01*
X137971509Y-71312216D01*
X138125341Y-71499660D01*
X138312785Y-71653491D01*
X138526638Y-71767798D01*
X138758683Y-71838188D01*
X139000000Y-71861956D01*
X139241318Y-71838188D01*
X139473363Y-71767798D01*
X139687216Y-71653491D01*
X139874660Y-71499660D01*
X140028491Y-71312215D01*
X140113535Y-71153110D01*
X140234947Y-71402570D01*
X140410951Y-71634429D01*
X140628807Y-71827496D01*
X140880142Y-71974352D01*
X141143110Y-72066476D01*
X141373000Y-71945155D01*
X141373000Y-70627000D01*
X141627000Y-70627000D01*
X141627000Y-71945155D01*
X141856890Y-72066476D01*
X142119858Y-71974352D01*
X142371193Y-71827496D01*
X142589049Y-71634429D01*
X142765053Y-71402570D01*
X142892442Y-71140830D01*
X142966320Y-70859267D01*
X142826165Y-70627000D01*
X141627000Y-70627000D01*
X141373000Y-70627000D01*
X141353000Y-70627000D01*
X141353000Y-70373000D01*
X141373000Y-70373000D01*
X141373000Y-69054845D01*
X141627000Y-69054845D01*
X141627000Y-70373000D01*
X142826165Y-70373000D01*
X142966320Y-70140733D01*
X142892442Y-69859170D01*
X142765053Y-69597430D01*
X142589049Y-69365571D01*
X142371193Y-69172504D01*
X142119858Y-69025648D01*
X141856890Y-68933524D01*
X141627000Y-69054845D01*
X141373000Y-69054845D01*
X141143110Y-68933524D01*
X140880142Y-69025648D01*
X140628807Y-69172504D01*
X140410951Y-69365571D01*
X140234947Y-69597430D01*
X140113535Y-69846890D01*
X140028491Y-69687784D01*
X139874660Y-69500340D01*
X139687215Y-69346509D01*
X139473362Y-69232202D01*
X139241317Y-69161812D01*
X139000000Y-69138044D01*
X138758682Y-69161812D01*
X138526637Y-69232202D01*
X138312784Y-69346509D01*
X138125340Y-69500340D01*
X137971509Y-69687785D01*
X137857202Y-69901638D01*
X137786812Y-70133683D01*
X137769000Y-70314529D01*
X137732843Y-70314529D01*
X137732843Y-69775000D01*
X137720683Y-69651538D01*
X137684671Y-69532821D01*
X137626190Y-69423411D01*
X137547488Y-69327512D01*
X137451589Y-69248810D01*
X137342179Y-69190329D01*
X137223462Y-69154317D01*
X137100000Y-69142157D01*
X135900000Y-69142157D01*
X135776538Y-69154317D01*
X135657821Y-69190329D01*
X135548411Y-69248810D01*
X135452512Y-69327512D01*
X135373810Y-69423411D01*
X135315329Y-69532821D01*
X135279317Y-69651538D01*
X135267157Y-69775000D01*
X104566031Y-69775000D01*
X104627110Y-69573652D01*
X104658988Y-69250000D01*
X104627110Y-68926347D01*
X104532704Y-68615132D01*
X104379398Y-68328316D01*
X104224782Y-68139915D01*
X88919303Y-52834436D01*
X90319000Y-52834436D01*
X90319000Y-53165564D01*
X90383600Y-53490330D01*
X90510317Y-53796252D01*
X90694282Y-54071575D01*
X90928425Y-54305718D01*
X91203748Y-54489683D01*
X91509670Y-54616400D01*
X91834436Y-54681000D01*
X92165564Y-54681000D01*
X92490330Y-54616400D01*
X92796252Y-54489683D01*
X93006463Y-54349224D01*
X95830381Y-54349224D01*
X95962317Y-54644312D01*
X96303045Y-54815159D01*
X96670557Y-54916250D01*
X97050729Y-54943701D01*
X97428951Y-54896457D01*
X97790690Y-54776333D01*
X98037683Y-54644312D01*
X98169619Y-54349224D01*
X97000000Y-53179605D01*
X95830381Y-54349224D01*
X93006463Y-54349224D01*
X93071575Y-54305718D01*
X93305718Y-54071575D01*
X93391152Y-53943714D01*
X95338731Y-51996135D01*
X95184841Y-52303045D01*
X95083750Y-52670557D01*
X95056299Y-53050729D01*
X95103543Y-53428951D01*
X95223667Y-53790690D01*
X95355688Y-54037683D01*
X95650776Y-54169619D01*
X96820395Y-53000000D01*
X96806253Y-52985858D01*
X96985858Y-52806253D01*
X97000000Y-52820395D01*
X97014143Y-52806253D01*
X97193748Y-52985858D01*
X97179605Y-53000000D01*
X98349224Y-54169619D01*
X98644312Y-54037683D01*
X98815159Y-53696955D01*
X98916250Y-53329443D01*
X98943701Y-52949271D01*
X98896457Y-52571049D01*
X98776333Y-52209310D01*
X98644312Y-51962317D01*
X98349226Y-51830382D01*
X98352609Y-51826999D01*
X100317157Y-51826999D01*
X100317157Y-54300000D01*
X100324513Y-54374689D01*
X100346299Y-54446508D01*
X100381678Y-54512696D01*
X100429289Y-54570711D01*
X100487304Y-54618322D01*
X100553492Y-54653701D01*
X100625311Y-54675487D01*
X100700000Y-54682843D01*
X101347977Y-54682843D01*
X104849001Y-58183868D01*
X104849000Y-61831103D01*
X104872889Y-62073652D01*
X104967295Y-62384866D01*
X105120602Y-62671683D01*
X105326918Y-62923082D01*
X105578316Y-63129398D01*
X105865133Y-63282705D01*
X106176347Y-63377111D01*
X106500000Y-63408988D01*
X106823652Y-63377111D01*
X107134866Y-63282705D01*
X107421683Y-63129398D01*
X107673082Y-62923082D01*
X107794609Y-62775000D01*
X126767157Y-62775000D01*
X126767157Y-64225000D01*
X126779317Y-64348462D01*
X126815329Y-64467179D01*
X126873810Y-64576589D01*
X126952512Y-64672488D01*
X127048411Y-64751190D01*
X127157821Y-64809671D01*
X127276538Y-64845683D01*
X127400000Y-64857843D01*
X128600000Y-64857843D01*
X128723462Y-64845683D01*
X128842179Y-64809671D01*
X128951589Y-64751190D01*
X129047488Y-64672488D01*
X129126190Y-64576589D01*
X129184671Y-64467179D01*
X129220683Y-64348462D01*
X129232843Y-64225000D01*
X129232843Y-63314529D01*
X129269000Y-63314529D01*
X129269000Y-63685472D01*
X129286812Y-63866318D01*
X129357202Y-64098363D01*
X129471509Y-64312216D01*
X129625341Y-64499660D01*
X129812785Y-64653491D01*
X130026638Y-64767798D01*
X130258683Y-64838188D01*
X130500000Y-64861956D01*
X130741318Y-64838188D01*
X130973363Y-64767798D01*
X131187216Y-64653491D01*
X131374660Y-64499660D01*
X131528491Y-64312215D01*
X131613535Y-64153110D01*
X131734947Y-64402570D01*
X131910951Y-64634429D01*
X132128807Y-64827496D01*
X132380142Y-64974352D01*
X132643110Y-65066476D01*
X132873000Y-64945155D01*
X132873000Y-63627000D01*
X133127000Y-63627000D01*
X133127000Y-64945155D01*
X133356890Y-65066476D01*
X133619858Y-64974352D01*
X133871193Y-64827496D01*
X134089049Y-64634429D01*
X134265053Y-64402570D01*
X134392442Y-64140830D01*
X134466320Y-63859267D01*
X134326165Y-63627000D01*
X133127000Y-63627000D01*
X132873000Y-63627000D01*
X132853000Y-63627000D01*
X132853000Y-63373000D01*
X132873000Y-63373000D01*
X132873000Y-62054845D01*
X133127000Y-62054845D01*
X133127000Y-63373000D01*
X134326165Y-63373000D01*
X134466320Y-63140733D01*
X134392442Y-62859170D01*
X134265053Y-62597430D01*
X134089049Y-62365571D01*
X133871193Y-62172504D01*
X133619858Y-62025648D01*
X133356890Y-61933524D01*
X133127000Y-62054845D01*
X132873000Y-62054845D01*
X132643110Y-61933524D01*
X132380142Y-62025648D01*
X132128807Y-62172504D01*
X131910951Y-62365571D01*
X131734947Y-62597430D01*
X131613535Y-62846890D01*
X131528491Y-62687784D01*
X131374660Y-62500340D01*
X131187215Y-62346509D01*
X130973362Y-62232202D01*
X130741317Y-62161812D01*
X130500000Y-62138044D01*
X130258682Y-62161812D01*
X130026637Y-62232202D01*
X129812784Y-62346509D01*
X129625340Y-62500340D01*
X129471509Y-62687785D01*
X129357202Y-62901638D01*
X129286812Y-63133683D01*
X129269000Y-63314529D01*
X129232843Y-63314529D01*
X129232843Y-62775000D01*
X129220683Y-62651538D01*
X129184671Y-62532821D01*
X129126190Y-62423411D01*
X129047488Y-62327512D01*
X128951589Y-62248810D01*
X128842179Y-62190329D01*
X128723462Y-62154317D01*
X128600000Y-62142157D01*
X127400000Y-62142157D01*
X127276538Y-62154317D01*
X127157821Y-62190329D01*
X127048411Y-62248810D01*
X126952512Y-62327512D01*
X126873810Y-62423411D01*
X126815329Y-62532821D01*
X126779317Y-62651538D01*
X126767157Y-62775000D01*
X107794609Y-62775000D01*
X107879398Y-62671684D01*
X108032705Y-62384867D01*
X108127111Y-62073653D01*
X108151000Y-61831104D01*
X108151000Y-61100000D01*
X145111928Y-61100000D01*
X145115000Y-61714250D01*
X145273750Y-61873000D01*
X145581658Y-61873000D01*
X145580141Y-61943807D01*
X145577784Y-61946164D01*
X145578937Y-62000000D01*
X145577784Y-62053836D01*
X145580141Y-62056193D01*
X145581658Y-62127000D01*
X145273750Y-62127000D01*
X145115000Y-62285750D01*
X145111928Y-62900000D01*
X145124188Y-63024482D01*
X145160498Y-63144180D01*
X145219463Y-63254494D01*
X145298815Y-63351185D01*
X145395506Y-63430537D01*
X145505820Y-63489502D01*
X145625518Y-63525812D01*
X145750000Y-63538072D01*
X146714250Y-63535000D01*
X146747106Y-63502144D01*
X146913998Y-63535113D01*
X147088328Y-63534884D01*
X147252711Y-63501961D01*
X147285750Y-63535000D01*
X148250000Y-63538072D01*
X148374482Y-63525812D01*
X148494180Y-63489502D01*
X148604494Y-63430537D01*
X148701185Y-63351185D01*
X148780537Y-63254494D01*
X148839502Y-63144180D01*
X148875812Y-63024482D01*
X148888072Y-62900000D01*
X148885000Y-62285750D01*
X148726250Y-62127000D01*
X148418342Y-62127000D01*
X148419859Y-62056193D01*
X148422216Y-62053836D01*
X148421063Y-62000000D01*
X148422216Y-61946164D01*
X148419859Y-61943807D01*
X148418342Y-61873000D01*
X148726250Y-61873000D01*
X148885000Y-61714250D01*
X148888072Y-61100000D01*
X148875812Y-60975518D01*
X148839502Y-60855820D01*
X148780537Y-60745506D01*
X148701185Y-60648815D01*
X148604494Y-60569463D01*
X148494180Y-60510498D01*
X148374482Y-60474188D01*
X148250000Y-60461928D01*
X147285750Y-60465000D01*
X147252894Y-60497856D01*
X147086002Y-60464887D01*
X146911672Y-60465116D01*
X146747289Y-60498039D01*
X146714250Y-60465000D01*
X145750000Y-60461928D01*
X145625518Y-60474188D01*
X145505820Y-60510498D01*
X145395506Y-60569463D01*
X145298815Y-60648815D01*
X145219463Y-60745506D01*
X145160498Y-60855820D01*
X145124188Y-60975518D01*
X145111928Y-61100000D01*
X108151000Y-61100000D01*
X108151000Y-57971455D01*
X145745200Y-57971455D01*
X145745200Y-58106545D01*
X145771555Y-58239040D01*
X145823252Y-58363848D01*
X145898305Y-58476172D01*
X145993828Y-58571695D01*
X146106152Y-58646748D01*
X146230960Y-58698445D01*
X146363455Y-58724800D01*
X146498545Y-58724800D01*
X146631040Y-58698445D01*
X146755848Y-58646748D01*
X146868172Y-58571695D01*
X146963695Y-58476172D01*
X147038748Y-58363848D01*
X147090445Y-58239040D01*
X147116800Y-58106545D01*
X147116800Y-58071620D01*
X151848421Y-53340000D01*
X152954133Y-53340000D01*
X152978828Y-53364695D01*
X153091152Y-53439748D01*
X153215960Y-53491445D01*
X153348455Y-53517800D01*
X153483545Y-53517800D01*
X153616040Y-53491445D01*
X153740848Y-53439748D01*
X153853172Y-53364695D01*
X153948695Y-53269172D01*
X154023748Y-53156848D01*
X154075445Y-53032040D01*
X154101800Y-52899545D01*
X154101800Y-52764455D01*
X154075445Y-52631960D01*
X154023748Y-52507152D01*
X153948695Y-52394828D01*
X153853172Y-52299305D01*
X153740848Y-52224252D01*
X153616040Y-52172555D01*
X153483545Y-52146200D01*
X153348455Y-52146200D01*
X153215960Y-52172555D01*
X153091152Y-52224252D01*
X152978828Y-52299305D01*
X152954133Y-52324000D01*
X151662943Y-52324000D01*
X151637999Y-52321543D01*
X151613055Y-52324000D01*
X151613053Y-52324000D01*
X151538415Y-52331351D01*
X151442657Y-52360399D01*
X151401576Y-52382357D01*
X151354404Y-52407571D01*
X151299810Y-52452376D01*
X151277052Y-52471052D01*
X151261150Y-52490429D01*
X150681000Y-53070579D01*
X150681000Y-52834436D01*
X150616400Y-52509670D01*
X150489683Y-52203748D01*
X150305718Y-51928425D01*
X150071575Y-51694282D01*
X149796252Y-51510317D01*
X149490330Y-51383600D01*
X149165564Y-51319000D01*
X148834436Y-51319000D01*
X148509670Y-51383600D01*
X148203748Y-51510317D01*
X147928425Y-51694282D01*
X147694282Y-51928425D01*
X147510317Y-52203748D01*
X147383600Y-52509670D01*
X147319000Y-52834436D01*
X147319000Y-53165564D01*
X147383600Y-53490330D01*
X147510317Y-53796252D01*
X147694282Y-54071575D01*
X147928425Y-54305718D01*
X148203748Y-54489683D01*
X148509670Y-54616400D01*
X148834436Y-54681000D01*
X149070579Y-54681000D01*
X146398380Y-57353200D01*
X146363455Y-57353200D01*
X146230960Y-57379555D01*
X146106152Y-57431252D01*
X145993828Y-57506305D01*
X145898305Y-57601828D01*
X145823252Y-57714152D01*
X145771555Y-57838960D01*
X145745200Y-57971455D01*
X108151000Y-57971455D01*
X108151000Y-57581100D01*
X108158988Y-57499999D01*
X108147125Y-57379555D01*
X108127111Y-57176347D01*
X108032705Y-56865133D01*
X107941626Y-56694737D01*
X107879398Y-56578315D01*
X107724782Y-56389915D01*
X107673082Y-56326918D01*
X107610085Y-56275218D01*
X103682843Y-52347977D01*
X103682843Y-52017709D01*
X105608848Y-53943714D01*
X105694282Y-54071575D01*
X105928425Y-54305718D01*
X106203748Y-54489683D01*
X106509670Y-54616400D01*
X106834436Y-54681000D01*
X107165564Y-54681000D01*
X107490330Y-54616400D01*
X107796252Y-54489683D01*
X108006463Y-54349224D01*
X110830381Y-54349224D01*
X110962317Y-54644312D01*
X111303045Y-54815159D01*
X111670557Y-54916250D01*
X112050729Y-54943701D01*
X112428951Y-54896457D01*
X112790690Y-54776333D01*
X113037683Y-54644312D01*
X113169619Y-54349224D01*
X112000000Y-53179605D01*
X110830381Y-54349224D01*
X108006463Y-54349224D01*
X108071575Y-54305718D01*
X108305718Y-54071575D01*
X108489683Y-53796252D01*
X108616400Y-53490330D01*
X108681000Y-53165564D01*
X108681000Y-53050729D01*
X110056299Y-53050729D01*
X110103543Y-53428951D01*
X110223667Y-53790690D01*
X110355688Y-54037683D01*
X110650776Y-54169619D01*
X111820395Y-53000000D01*
X112179605Y-53000000D01*
X113349224Y-54169619D01*
X113644312Y-54037683D01*
X113815159Y-53696955D01*
X113916250Y-53329443D01*
X113943701Y-52949271D01*
X113896457Y-52571049D01*
X113776333Y-52209310D01*
X113644312Y-51962317D01*
X113349224Y-51830381D01*
X112179605Y-53000000D01*
X111820395Y-53000000D01*
X110650776Y-51830381D01*
X110355688Y-51962317D01*
X110184841Y-52303045D01*
X110083750Y-52670557D01*
X110056299Y-53050729D01*
X108681000Y-53050729D01*
X108681000Y-52834436D01*
X108616400Y-52509670D01*
X108489683Y-52203748D01*
X108305718Y-51928425D01*
X108071575Y-51694282D01*
X108006464Y-51650776D01*
X110830381Y-51650776D01*
X112000000Y-52820395D01*
X113120395Y-51700000D01*
X115317157Y-51700000D01*
X115317157Y-54300000D01*
X115324513Y-54374689D01*
X115346299Y-54446508D01*
X115381678Y-54512696D01*
X115429289Y-54570711D01*
X115487304Y-54618322D01*
X115553492Y-54653701D01*
X115625311Y-54675487D01*
X115700000Y-54682843D01*
X118300000Y-54682843D01*
X118374689Y-54675487D01*
X118446508Y-54653701D01*
X118512696Y-54618322D01*
X118570711Y-54570711D01*
X118618322Y-54512696D01*
X118653701Y-54446508D01*
X118675487Y-54374689D01*
X118682843Y-54300000D01*
X118682843Y-52834436D01*
X120319000Y-52834436D01*
X120319000Y-53165564D01*
X120383600Y-53490330D01*
X120510317Y-53796252D01*
X120694282Y-54071575D01*
X120928425Y-54305718D01*
X121203748Y-54489683D01*
X121509670Y-54616400D01*
X121834436Y-54681000D01*
X122165564Y-54681000D01*
X122490330Y-54616400D01*
X122796252Y-54489683D01*
X123006463Y-54349224D01*
X125830381Y-54349224D01*
X125962317Y-54644312D01*
X126303045Y-54815159D01*
X126670557Y-54916250D01*
X127050729Y-54943701D01*
X127428951Y-54896457D01*
X127790690Y-54776333D01*
X128037683Y-54644312D01*
X128169619Y-54349224D01*
X127000000Y-53179605D01*
X125830381Y-54349224D01*
X123006463Y-54349224D01*
X123071575Y-54305718D01*
X123305718Y-54071575D01*
X123489683Y-53796252D01*
X123616400Y-53490330D01*
X123681000Y-53165564D01*
X123681000Y-53050729D01*
X125056299Y-53050729D01*
X125103543Y-53428951D01*
X125223667Y-53790690D01*
X125355688Y-54037683D01*
X125650776Y-54169619D01*
X126820395Y-53000000D01*
X127179605Y-53000000D01*
X128349224Y-54169619D01*
X128644312Y-54037683D01*
X128815159Y-53696955D01*
X128916250Y-53329443D01*
X128943701Y-52949271D01*
X128896457Y-52571049D01*
X128776333Y-52209310D01*
X128644312Y-51962317D01*
X128349224Y-51830381D01*
X127179605Y-53000000D01*
X126820395Y-53000000D01*
X125650776Y-51830381D01*
X125355688Y-51962317D01*
X125184841Y-52303045D01*
X125083750Y-52670557D01*
X125056299Y-53050729D01*
X123681000Y-53050729D01*
X123681000Y-52834436D01*
X123616400Y-52509670D01*
X123489683Y-52203748D01*
X123305718Y-51928425D01*
X123071575Y-51694282D01*
X123006464Y-51650776D01*
X125830381Y-51650776D01*
X127000000Y-52820395D01*
X128120395Y-51700000D01*
X132317157Y-51700000D01*
X132317157Y-54300000D01*
X132324513Y-54374689D01*
X132346299Y-54446508D01*
X132381678Y-54512696D01*
X132429289Y-54570711D01*
X132487304Y-54618322D01*
X132553492Y-54653701D01*
X132625311Y-54675487D01*
X132700000Y-54682843D01*
X135300000Y-54682843D01*
X135374689Y-54675487D01*
X135446508Y-54653701D01*
X135512696Y-54618322D01*
X135570711Y-54570711D01*
X135618322Y-54512696D01*
X135653701Y-54446508D01*
X135675487Y-54374689D01*
X135677995Y-54349224D01*
X137830381Y-54349224D01*
X137962317Y-54644312D01*
X138303045Y-54815159D01*
X138670557Y-54916250D01*
X139050729Y-54943701D01*
X139428951Y-54896457D01*
X139790690Y-54776333D01*
X140037683Y-54644312D01*
X140169619Y-54349224D01*
X139000000Y-53179605D01*
X137830381Y-54349224D01*
X135677995Y-54349224D01*
X135682843Y-54300000D01*
X135682843Y-53050729D01*
X137056299Y-53050729D01*
X137103543Y-53428951D01*
X137223667Y-53790690D01*
X137355688Y-54037683D01*
X137650776Y-54169619D01*
X138820395Y-53000000D01*
X139179605Y-53000000D01*
X140349224Y-54169619D01*
X140644312Y-54037683D01*
X140815159Y-53696955D01*
X140916250Y-53329443D01*
X140943701Y-52949271D01*
X140896457Y-52571049D01*
X140776333Y-52209310D01*
X140644312Y-51962317D01*
X140349224Y-51830381D01*
X139179605Y-53000000D01*
X138820395Y-53000000D01*
X137650776Y-51830381D01*
X137355688Y-51962317D01*
X137184841Y-52303045D01*
X137083750Y-52670557D01*
X137056299Y-53050729D01*
X135682843Y-53050729D01*
X135682843Y-51700000D01*
X135677996Y-51650776D01*
X137830381Y-51650776D01*
X139000000Y-52820395D01*
X140120395Y-51700000D01*
X142317157Y-51700000D01*
X142317157Y-54300000D01*
X142324513Y-54374689D01*
X142346299Y-54446508D01*
X142381678Y-54512696D01*
X142429289Y-54570711D01*
X142487304Y-54618322D01*
X142553492Y-54653701D01*
X142625311Y-54675487D01*
X142700000Y-54682843D01*
X145300000Y-54682843D01*
X145374689Y-54675487D01*
X145446508Y-54653701D01*
X145512696Y-54618322D01*
X145570711Y-54570711D01*
X145618322Y-54512696D01*
X145653701Y-54446508D01*
X145675487Y-54374689D01*
X145682843Y-54300000D01*
X145682843Y-51700000D01*
X145675487Y-51625311D01*
X145653701Y-51553492D01*
X145618322Y-51487304D01*
X145570711Y-51429289D01*
X145512696Y-51381678D01*
X145446508Y-51346299D01*
X145374689Y-51324513D01*
X145300000Y-51317157D01*
X142700000Y-51317157D01*
X142625311Y-51324513D01*
X142553492Y-51346299D01*
X142487304Y-51381678D01*
X142429289Y-51429289D01*
X142381678Y-51487304D01*
X142346299Y-51553492D01*
X142324513Y-51625311D01*
X142317157Y-51700000D01*
X140120395Y-51700000D01*
X140169619Y-51650776D01*
X140037683Y-51355688D01*
X139696955Y-51184841D01*
X139329443Y-51083750D01*
X138949271Y-51056299D01*
X138571049Y-51103543D01*
X138209310Y-51223667D01*
X137962317Y-51355688D01*
X137830381Y-51650776D01*
X135677996Y-51650776D01*
X135675487Y-51625311D01*
X135653701Y-51553492D01*
X135618322Y-51487304D01*
X135570711Y-51429289D01*
X135512696Y-51381678D01*
X135446508Y-51346299D01*
X135374689Y-51324513D01*
X135300000Y-51317157D01*
X132700000Y-51317157D01*
X132625311Y-51324513D01*
X132553492Y-51346299D01*
X132487304Y-51381678D01*
X132429289Y-51429289D01*
X132381678Y-51487304D01*
X132346299Y-51553492D01*
X132324513Y-51625311D01*
X132317157Y-51700000D01*
X128120395Y-51700000D01*
X128169619Y-51650776D01*
X128037683Y-51355688D01*
X127696955Y-51184841D01*
X127329443Y-51083750D01*
X126949271Y-51056299D01*
X126571049Y-51103543D01*
X126209310Y-51223667D01*
X125962317Y-51355688D01*
X125830381Y-51650776D01*
X123006464Y-51650776D01*
X122796252Y-51510317D01*
X122490330Y-51383600D01*
X122165564Y-51319000D01*
X121834436Y-51319000D01*
X121509670Y-51383600D01*
X121203748Y-51510317D01*
X120928425Y-51694282D01*
X120694282Y-51928425D01*
X120510317Y-52203748D01*
X120383600Y-52509670D01*
X120319000Y-52834436D01*
X118682843Y-52834436D01*
X118682843Y-51700000D01*
X118675487Y-51625311D01*
X118653701Y-51553492D01*
X118618322Y-51487304D01*
X118570711Y-51429289D01*
X118512696Y-51381678D01*
X118446508Y-51346299D01*
X118374689Y-51324513D01*
X118300000Y-51317157D01*
X115700000Y-51317157D01*
X115625311Y-51324513D01*
X115553492Y-51346299D01*
X115487304Y-51381678D01*
X115429289Y-51429289D01*
X115381678Y-51487304D01*
X115346299Y-51553492D01*
X115324513Y-51625311D01*
X115317157Y-51700000D01*
X113120395Y-51700000D01*
X113169619Y-51650776D01*
X113037683Y-51355688D01*
X112696955Y-51184841D01*
X112329443Y-51083750D01*
X111949271Y-51056299D01*
X111571049Y-51103543D01*
X111209310Y-51223667D01*
X110962317Y-51355688D01*
X110830381Y-51650776D01*
X108006464Y-51650776D01*
X107943714Y-51608848D01*
X105400786Y-49065920D01*
X105349081Y-49002917D01*
X105097683Y-48796601D01*
X104810866Y-48643294D01*
X104499652Y-48548888D01*
X104257103Y-48524999D01*
X104257100Y-48524999D01*
X104175999Y-48517011D01*
X104094898Y-48524999D01*
X94905105Y-48524999D01*
X94824001Y-48517011D01*
X94742897Y-48524999D01*
X94500348Y-48548888D01*
X94189134Y-48643294D01*
X93902317Y-48796601D01*
X93650919Y-49002917D01*
X93599214Y-49065920D01*
X91056286Y-51608848D01*
X90928425Y-51694282D01*
X90694282Y-51928425D01*
X90510317Y-52203748D01*
X90383600Y-52509670D01*
X90319000Y-52834436D01*
X88919303Y-52834436D01*
X88682843Y-52597977D01*
X88682843Y-51700000D01*
X88675487Y-51625311D01*
X88653701Y-51553492D01*
X88618322Y-51487304D01*
X88570711Y-51429289D01*
X88512696Y-51381678D01*
X88446508Y-51346299D01*
X88374689Y-51324513D01*
X88300000Y-51317157D01*
X85700000Y-51317157D01*
X85625311Y-51324513D01*
X85553492Y-51346299D01*
X85487304Y-51381678D01*
X85429289Y-51429289D01*
X85381678Y-51487304D01*
X85346299Y-51553492D01*
X85324513Y-51625311D01*
X85317157Y-51700000D01*
X82933027Y-51700000D01*
X82974838Y-51599060D01*
X83053763Y-51202278D01*
X83053763Y-50797722D01*
X82974838Y-50400940D01*
X82820021Y-50027179D01*
X82595262Y-49690803D01*
X82309197Y-49404738D01*
X81972821Y-49179979D01*
X81599060Y-49025162D01*
X81202278Y-48946237D01*
X80797722Y-48946237D01*
X80400940Y-49025162D01*
X80027179Y-49179979D01*
X79690803Y-49404738D01*
X79404738Y-49690803D01*
X79179979Y-50027179D01*
X79025162Y-50400940D01*
X78946237Y-50797722D01*
X78393700Y-50797722D01*
X78393700Y-48393700D01*
X177606300Y-48393700D01*
X177606300Y-51278317D01*
G37*
G04 #@! TD.AperFunction*
D21*
X160634366Y-70950478D02*
X160874633Y-71050000D01*
X160634366Y-71149522D01*
X160418039Y-71294067D01*
X160234067Y-71478039D01*
X160089522Y-71694366D01*
X159989957Y-71934737D01*
X159939200Y-72189913D01*
X159939200Y-72450087D01*
X159989957Y-72705263D01*
X160089522Y-72945634D01*
X160234067Y-73161961D01*
X160418039Y-73345933D01*
X160634366Y-73490478D01*
X160874633Y-73590000D01*
X160634366Y-73689522D01*
X160418039Y-73834067D01*
X160234067Y-74018039D01*
X160089522Y-74234366D01*
X159989957Y-74474737D01*
X159939200Y-74729913D01*
X159939200Y-74990087D01*
X159989957Y-75245263D01*
X160089522Y-75485634D01*
X160234067Y-75701961D01*
X160250733Y-75718627D01*
X157096362Y-78872998D01*
X157076252Y-78872998D01*
X157235000Y-78714250D01*
X157238072Y-78125000D01*
X157225812Y-78000518D01*
X157189502Y-77880820D01*
X157130537Y-77770506D01*
X157051185Y-77673815D01*
X156954494Y-77594463D01*
X156844180Y-77535498D01*
X156724482Y-77499188D01*
X156600000Y-77486928D01*
X156285750Y-77490000D01*
X156127000Y-77648750D01*
X156127000Y-78873000D01*
X156147000Y-78873000D01*
X156147000Y-79127000D01*
X156127000Y-79127000D01*
X156127000Y-79147000D01*
X155873000Y-79147000D01*
X155873000Y-79127000D01*
X155853000Y-79127000D01*
X155853000Y-78873000D01*
X155873000Y-78873000D01*
X155873000Y-77648750D01*
X155714250Y-77490000D01*
X155400000Y-77486928D01*
X155275518Y-77499188D01*
X155155820Y-77535498D01*
X155045506Y-77594463D01*
X154948815Y-77673815D01*
X154869463Y-77770506D01*
X154810498Y-77880820D01*
X154774188Y-78000518D01*
X154763506Y-78108976D01*
X154697028Y-78027972D01*
X154547651Y-77905382D01*
X154377229Y-77814289D01*
X154192310Y-77758195D01*
X154000000Y-77739254D01*
X153807691Y-77758195D01*
X153622772Y-77814289D01*
X153564081Y-77845660D01*
X149939806Y-74221386D01*
X150026637Y-74267798D01*
X150258682Y-74338188D01*
X150500000Y-74361956D01*
X150741317Y-74338188D01*
X150973362Y-74267798D01*
X151022900Y-74241320D01*
X151352155Y-74570575D01*
X151368062Y-74589958D01*
X151445415Y-74653439D01*
X151533667Y-74700611D01*
X151629425Y-74729659D01*
X151704063Y-74737010D01*
X151704066Y-74737010D01*
X151729010Y-74739467D01*
X151753954Y-74737010D01*
X156283826Y-74737010D01*
X156308770Y-74739467D01*
X156333714Y-74737010D01*
X156333717Y-74737010D01*
X156408355Y-74729659D01*
X156504113Y-74700611D01*
X156592365Y-74653439D01*
X156669718Y-74589958D01*
X156685625Y-74570575D01*
X160407770Y-70848431D01*
X160427147Y-70832529D01*
X160438018Y-70819283D01*
X160634366Y-70950478D01*
G04 #@! TA.AperFunction,Conductor*
D24*
G36*
X160634366Y-70950478D02*
G01*
X160874633Y-71050000D01*
X160634366Y-71149522D01*
X160418039Y-71294067D01*
X160234067Y-71478039D01*
X160089522Y-71694366D01*
X159989957Y-71934737D01*
X159939200Y-72189913D01*
X159939200Y-72450087D01*
X159989957Y-72705263D01*
X160089522Y-72945634D01*
X160234067Y-73161961D01*
X160418039Y-73345933D01*
X160634366Y-73490478D01*
X160874633Y-73590000D01*
X160634366Y-73689522D01*
X160418039Y-73834067D01*
X160234067Y-74018039D01*
X160089522Y-74234366D01*
X159989957Y-74474737D01*
X159939200Y-74729913D01*
X159939200Y-74990087D01*
X159989957Y-75245263D01*
X160089522Y-75485634D01*
X160234067Y-75701961D01*
X160250733Y-75718627D01*
X157096362Y-78872998D01*
X157076252Y-78872998D01*
X157235000Y-78714250D01*
X157238072Y-78125000D01*
X157225812Y-78000518D01*
X157189502Y-77880820D01*
X157130537Y-77770506D01*
X157051185Y-77673815D01*
X156954494Y-77594463D01*
X156844180Y-77535498D01*
X156724482Y-77499188D01*
X156600000Y-77486928D01*
X156285750Y-77490000D01*
X156127000Y-77648750D01*
X156127000Y-78873000D01*
X156147000Y-78873000D01*
X156147000Y-79127000D01*
X156127000Y-79127000D01*
X156127000Y-79147000D01*
X155873000Y-79147000D01*
X155873000Y-79127000D01*
X155853000Y-79127000D01*
X155853000Y-78873000D01*
X155873000Y-78873000D01*
X155873000Y-77648750D01*
X155714250Y-77490000D01*
X155400000Y-77486928D01*
X155275518Y-77499188D01*
X155155820Y-77535498D01*
X155045506Y-77594463D01*
X154948815Y-77673815D01*
X154869463Y-77770506D01*
X154810498Y-77880820D01*
X154774188Y-78000518D01*
X154763506Y-78108976D01*
X154697028Y-78027972D01*
X154547651Y-77905382D01*
X154377229Y-77814289D01*
X154192310Y-77758195D01*
X154000000Y-77739254D01*
X153807691Y-77758195D01*
X153622772Y-77814289D01*
X153564081Y-77845660D01*
X149939806Y-74221386D01*
X150026637Y-74267798D01*
X150258682Y-74338188D01*
X150500000Y-74361956D01*
X150741317Y-74338188D01*
X150973362Y-74267798D01*
X151022900Y-74241320D01*
X151352155Y-74570575D01*
X151368062Y-74589958D01*
X151445415Y-74653439D01*
X151533667Y-74700611D01*
X151629425Y-74729659D01*
X151704063Y-74737010D01*
X151704066Y-74737010D01*
X151729010Y-74739467D01*
X151753954Y-74737010D01*
X156283826Y-74737010D01*
X156308770Y-74739467D01*
X156333714Y-74737010D01*
X156333717Y-74737010D01*
X156408355Y-74729659D01*
X156504113Y-74700611D01*
X156592365Y-74653439D01*
X156669718Y-74589958D01*
X156685625Y-74570575D01*
X160407770Y-70848431D01*
X160427147Y-70832529D01*
X160438018Y-70819283D01*
X160634366Y-70950478D01*
G37*
G04 #@! TD.AperFunction*
D21*
X160089522Y-53914366D02*
X159989957Y-54154737D01*
X159939200Y-54409913D01*
X159939200Y-54670087D01*
X159989957Y-54925263D01*
X160038683Y-55042897D01*
X159724629Y-55356951D01*
X159705252Y-55372853D01*
X159689350Y-55392230D01*
X159689349Y-55392231D01*
X159641770Y-55450206D01*
X159594599Y-55538458D01*
X159565551Y-55634217D01*
X159555742Y-55733801D01*
X159558200Y-55758755D01*
X159558199Y-57020381D01*
X153908125Y-62670455D01*
X153888748Y-62686357D01*
X153872846Y-62705734D01*
X153872845Y-62705735D01*
X153825266Y-62763710D01*
X153807693Y-62796588D01*
X153778095Y-62851962D01*
X153761392Y-62907026D01*
X153749047Y-62947721D01*
X153739238Y-63047305D01*
X153741696Y-63072259D01*
X153741695Y-67353579D01*
X151160562Y-69934712D01*
X151154445Y-69903960D01*
X151102748Y-69779152D01*
X151027695Y-69666828D01*
X151003000Y-69642133D01*
X151003000Y-68155420D01*
X151416620Y-67741800D01*
X151451545Y-67741800D01*
X151584040Y-67715445D01*
X151708848Y-67663748D01*
X151821172Y-67588695D01*
X151916695Y-67493172D01*
X151991748Y-67380848D01*
X152043445Y-67256040D01*
X152069800Y-67123545D01*
X152069800Y-66988455D01*
X152043445Y-66855960D01*
X151991748Y-66731152D01*
X151916695Y-66618828D01*
X151821172Y-66523305D01*
X151708848Y-66448252D01*
X151584040Y-66396555D01*
X151451545Y-66370200D01*
X151316455Y-66370200D01*
X151183960Y-66396555D01*
X151059152Y-66448252D01*
X150946828Y-66523305D01*
X150851305Y-66618828D01*
X150776252Y-66731152D01*
X150724555Y-66855960D01*
X150698200Y-66988455D01*
X150698200Y-67023380D01*
X150153435Y-67568145D01*
X150134052Y-67584052D01*
X150070571Y-67661405D01*
X150023399Y-67749658D01*
X149994351Y-67845416D01*
X149987000Y-67920053D01*
X149984543Y-67945000D01*
X149987000Y-67969944D01*
X149987001Y-69642132D01*
X149962305Y-69666828D01*
X149887252Y-69779152D01*
X149835555Y-69903960D01*
X149809200Y-70036455D01*
X149809200Y-70171545D01*
X149835555Y-70304040D01*
X149887252Y-70428848D01*
X149962305Y-70541172D01*
X150057828Y-70636695D01*
X150170152Y-70711748D01*
X150294960Y-70763445D01*
X150325713Y-70769562D01*
X149149745Y-71945530D01*
X149089049Y-71865571D01*
X148871193Y-71672504D01*
X148619858Y-71525648D01*
X148356890Y-71433524D01*
X148127000Y-71554845D01*
X148127000Y-72873000D01*
X148147000Y-72873000D01*
X148147000Y-73127000D01*
X148127000Y-73127000D01*
X148127000Y-73147000D01*
X147873000Y-73147000D01*
X147873000Y-73127000D01*
X147853000Y-73127000D01*
X147853000Y-72873000D01*
X147873000Y-72873000D01*
X147873000Y-71554845D01*
X147643110Y-71433524D01*
X147403990Y-71517293D01*
X147403990Y-66574430D01*
X149130187Y-64848233D01*
X149200305Y-64953172D01*
X149225000Y-64977867D01*
X149225001Y-66485771D01*
X149168828Y-66523305D01*
X149073305Y-66618828D01*
X148998252Y-66731152D01*
X148946555Y-66855960D01*
X148920200Y-66988455D01*
X148920200Y-67123545D01*
X148946555Y-67256040D01*
X148998252Y-67380848D01*
X149073305Y-67493172D01*
X149168828Y-67588695D01*
X149281152Y-67663748D01*
X149405960Y-67715445D01*
X149538455Y-67741800D01*
X149673545Y-67741800D01*
X149806040Y-67715445D01*
X149930848Y-67663748D01*
X150043172Y-67588695D01*
X150138695Y-67493172D01*
X150213748Y-67380848D01*
X150265445Y-67256040D01*
X150291800Y-67123545D01*
X150291800Y-66988455D01*
X150265445Y-66855960D01*
X150241000Y-66796944D01*
X150241000Y-64977867D01*
X150265695Y-64953172D01*
X150340748Y-64840848D01*
X150392445Y-64716040D01*
X150418800Y-64583545D01*
X150418800Y-64448455D01*
X150392445Y-64315960D01*
X150340748Y-64191152D01*
X150265695Y-64078828D01*
X150170172Y-63983305D01*
X150065233Y-63913187D01*
X160140806Y-53837614D01*
X160089522Y-53914366D01*
G04 #@! TA.AperFunction,Conductor*
D24*
G36*
X160089522Y-53914366D02*
G01*
X159989957Y-54154737D01*
X159939200Y-54409913D01*
X159939200Y-54670087D01*
X159989957Y-54925263D01*
X160038683Y-55042897D01*
X159724629Y-55356951D01*
X159705252Y-55372853D01*
X159689350Y-55392230D01*
X159689349Y-55392231D01*
X159641770Y-55450206D01*
X159594599Y-55538458D01*
X159565551Y-55634217D01*
X159555742Y-55733801D01*
X159558200Y-55758755D01*
X159558199Y-57020381D01*
X153908125Y-62670455D01*
X153888748Y-62686357D01*
X153872846Y-62705734D01*
X153872845Y-62705735D01*
X153825266Y-62763710D01*
X153807693Y-62796588D01*
X153778095Y-62851962D01*
X153761392Y-62907026D01*
X153749047Y-62947721D01*
X153739238Y-63047305D01*
X153741696Y-63072259D01*
X153741695Y-67353579D01*
X151160562Y-69934712D01*
X151154445Y-69903960D01*
X151102748Y-69779152D01*
X151027695Y-69666828D01*
X151003000Y-69642133D01*
X151003000Y-68155420D01*
X151416620Y-67741800D01*
X151451545Y-67741800D01*
X151584040Y-67715445D01*
X151708848Y-67663748D01*
X151821172Y-67588695D01*
X151916695Y-67493172D01*
X151991748Y-67380848D01*
X152043445Y-67256040D01*
X152069800Y-67123545D01*
X152069800Y-66988455D01*
X152043445Y-66855960D01*
X151991748Y-66731152D01*
X151916695Y-66618828D01*
X151821172Y-66523305D01*
X151708848Y-66448252D01*
X151584040Y-66396555D01*
X151451545Y-66370200D01*
X151316455Y-66370200D01*
X151183960Y-66396555D01*
X151059152Y-66448252D01*
X150946828Y-66523305D01*
X150851305Y-66618828D01*
X150776252Y-66731152D01*
X150724555Y-66855960D01*
X150698200Y-66988455D01*
X150698200Y-67023380D01*
X150153435Y-67568145D01*
X150134052Y-67584052D01*
X150070571Y-67661405D01*
X150023399Y-67749658D01*
X149994351Y-67845416D01*
X149987000Y-67920053D01*
X149984543Y-67945000D01*
X149987000Y-67969944D01*
X149987001Y-69642132D01*
X149962305Y-69666828D01*
X149887252Y-69779152D01*
X149835555Y-69903960D01*
X149809200Y-70036455D01*
X149809200Y-70171545D01*
X149835555Y-70304040D01*
X149887252Y-70428848D01*
X149962305Y-70541172D01*
X150057828Y-70636695D01*
X150170152Y-70711748D01*
X150294960Y-70763445D01*
X150325713Y-70769562D01*
X149149745Y-71945530D01*
X149089049Y-71865571D01*
X148871193Y-71672504D01*
X148619858Y-71525648D01*
X148356890Y-71433524D01*
X148127000Y-71554845D01*
X148127000Y-72873000D01*
X148147000Y-72873000D01*
X148147000Y-73127000D01*
X148127000Y-73127000D01*
X148127000Y-73147000D01*
X147873000Y-73147000D01*
X147873000Y-73127000D01*
X147853000Y-73127000D01*
X147853000Y-72873000D01*
X147873000Y-72873000D01*
X147873000Y-71554845D01*
X147643110Y-71433524D01*
X147403990Y-71517293D01*
X147403990Y-66574430D01*
X149130187Y-64848233D01*
X149200305Y-64953172D01*
X149225000Y-64977867D01*
X149225001Y-66485771D01*
X149168828Y-66523305D01*
X149073305Y-66618828D01*
X148998252Y-66731152D01*
X148946555Y-66855960D01*
X148920200Y-66988455D01*
X148920200Y-67123545D01*
X148946555Y-67256040D01*
X148998252Y-67380848D01*
X149073305Y-67493172D01*
X149168828Y-67588695D01*
X149281152Y-67663748D01*
X149405960Y-67715445D01*
X149538455Y-67741800D01*
X149673545Y-67741800D01*
X149806040Y-67715445D01*
X149930848Y-67663748D01*
X150043172Y-67588695D01*
X150138695Y-67493172D01*
X150213748Y-67380848D01*
X150265445Y-67256040D01*
X150291800Y-67123545D01*
X150291800Y-66988455D01*
X150265445Y-66855960D01*
X150241000Y-66796944D01*
X150241000Y-64977867D01*
X150265695Y-64953172D01*
X150340748Y-64840848D01*
X150392445Y-64716040D01*
X150418800Y-64583545D01*
X150418800Y-64448455D01*
X150392445Y-64315960D01*
X150340748Y-64191152D01*
X150265695Y-64078828D01*
X150170172Y-63983305D01*
X150065233Y-63913187D01*
X160140806Y-53837614D01*
X160089522Y-53914366D01*
G37*
G04 #@! TD.AperFunction*
D21*
X147116042Y-62558152D02*
X147114887Y-62563998D01*
X147115116Y-62738328D01*
X147115858Y-62742032D01*
X147016971Y-62840919D01*
X147000000Y-62823948D01*
X146983029Y-62840919D01*
X146883958Y-62741848D01*
X146885113Y-62736002D01*
X146884884Y-62561672D01*
X146884142Y-62557968D01*
X146983029Y-62459081D01*
X147000000Y-62476052D01*
X147016971Y-62459081D01*
X147116042Y-62558152D01*
G04 #@! TA.AperFunction,Conductor*
D24*
G36*
X147116042Y-62558152D02*
G01*
X147114887Y-62563998D01*
X147115116Y-62738328D01*
X147115858Y-62742032D01*
X147016971Y-62840919D01*
X147000000Y-62823948D01*
X146983029Y-62840919D01*
X146883958Y-62741848D01*
X146885113Y-62736002D01*
X146884884Y-62561672D01*
X146884142Y-62557968D01*
X146983029Y-62459081D01*
X147000000Y-62476052D01*
X147016971Y-62459081D01*
X147116042Y-62558152D01*
G37*
G04 #@! TD.AperFunction*
D21*
X147116042Y-61258152D02*
X147114887Y-61263998D01*
X147115116Y-61438328D01*
X147115858Y-61442032D01*
X147016971Y-61540919D01*
X147000000Y-61523948D01*
X146983029Y-61540919D01*
X146883958Y-61441848D01*
X146885113Y-61436002D01*
X146884884Y-61261672D01*
X146884142Y-61257968D01*
X146983029Y-61159081D01*
X147000000Y-61176052D01*
X147016971Y-61159081D01*
X147116042Y-61258152D01*
G04 #@! TA.AperFunction,Conductor*
D24*
G36*
X147116042Y-61258152D02*
G01*
X147114887Y-61263998D01*
X147115116Y-61438328D01*
X147115858Y-61442032D01*
X147016971Y-61540919D01*
X147000000Y-61523948D01*
X146983029Y-61540919D01*
X146883958Y-61441848D01*
X146885113Y-61436002D01*
X146884884Y-61261672D01*
X146884142Y-61257968D01*
X146983029Y-61159081D01*
X147000000Y-61176052D01*
X147016971Y-61159081D01*
X147116042Y-61258152D01*
G37*
G04 #@! TD.AperFunction*
M02*
