G04 #@! TF.GenerationSoftware,KiCad,Pcbnew,(5.1.9)-1*
G04 #@! TF.CreationDate,2021-05-18T22:57:50-05:00*
G04 #@! TF.ProjectId,BoilerBot,426f696c-6572-4426-9f74-2e6b69636164,rev?*
G04 #@! TF.SameCoordinates,Original*
G04 #@! TF.FileFunction,Legend,Top*
G04 #@! TF.FilePolarity,Positive*
%FSLAX46Y46*%
G04 Gerber Fmt 4.6, Leading zero omitted, Abs format (unit mm)*
G04 Created by KiCad (PCBNEW (5.1.9)-1) date 2021-05-18 22:57:50*
%MOMM*%
%LPD*%
G01*
G04 APERTURE LIST*
%ADD10C,0.152400*%
%ADD11C,0.120000*%
%ADD12C,0.150000*%
%ADD13C,2.500000*%
%ADD14C,1.600000*%
%ADD15R,3.000000X2.290000*%
%ADD16R,1.500000X2.000000*%
%ADD17R,3.800000X2.000000*%
%ADD18R,0.900000X0.800000*%
%ADD19O,1.700000X1.950000*%
%ADD20C,2.600000*%
%ADD21R,2.600000X2.600000*%
%ADD22O,1.200000X1.750000*%
%ADD23C,1.500000*%
%ADD24C,1.879600*%
G04 APERTURE END LIST*
D10*
X95161704Y-76478190D02*
X95277819Y-76516895D01*
X95471342Y-76516895D01*
X95548752Y-76478190D01*
X95587457Y-76439485D01*
X95626161Y-76362076D01*
X95626161Y-76284666D01*
X95587457Y-76207257D01*
X95548752Y-76168552D01*
X95471342Y-76129847D01*
X95316523Y-76091142D01*
X95239114Y-76052438D01*
X95200409Y-76013733D01*
X95161704Y-75936323D01*
X95161704Y-75858914D01*
X95200409Y-75781504D01*
X95239114Y-75742800D01*
X95316523Y-75704095D01*
X95510047Y-75704095D01*
X95626161Y-75742800D01*
X95935800Y-76284666D02*
X96322847Y-76284666D01*
X95858390Y-76516895D02*
X96129323Y-75704095D01*
X96400257Y-76516895D01*
X97096942Y-75742800D02*
X97019533Y-75704095D01*
X96903419Y-75704095D01*
X96787304Y-75742800D01*
X96709895Y-75820209D01*
X96671190Y-75897619D01*
X96632485Y-76052438D01*
X96632485Y-76168552D01*
X96671190Y-76323371D01*
X96709895Y-76400780D01*
X96787304Y-76478190D01*
X96903419Y-76516895D01*
X96980828Y-76516895D01*
X97096942Y-76478190D01*
X97135647Y-76439485D01*
X97135647Y-76168552D01*
X96980828Y-76168552D01*
X97483990Y-76091142D02*
X97754923Y-76091142D01*
X97871038Y-76516895D02*
X97483990Y-76516895D01*
X97483990Y-75704095D01*
X97871038Y-75704095D01*
X99303114Y-76516895D02*
X99032180Y-76129847D01*
X98838657Y-76516895D02*
X98838657Y-75704095D01*
X99148295Y-75704095D01*
X99225704Y-75742800D01*
X99264409Y-75781504D01*
X99303114Y-75858914D01*
X99303114Y-75975028D01*
X99264409Y-76052438D01*
X99225704Y-76091142D01*
X99148295Y-76129847D01*
X98838657Y-76129847D01*
X99806276Y-75704095D02*
X99961095Y-75704095D01*
X100038504Y-75742800D01*
X100115914Y-75820209D01*
X100154619Y-75975028D01*
X100154619Y-76245961D01*
X100115914Y-76400780D01*
X100038504Y-76478190D01*
X99961095Y-76516895D01*
X99806276Y-76516895D01*
X99728866Y-76478190D01*
X99651457Y-76400780D01*
X99612752Y-76245961D01*
X99612752Y-75975028D01*
X99651457Y-75820209D01*
X99728866Y-75742800D01*
X99806276Y-75704095D01*
X100773895Y-76091142D02*
X100890009Y-76129847D01*
X100928714Y-76168552D01*
X100967419Y-76245961D01*
X100967419Y-76362076D01*
X100928714Y-76439485D01*
X100890009Y-76478190D01*
X100812600Y-76516895D01*
X100502961Y-76516895D01*
X100502961Y-75704095D01*
X100773895Y-75704095D01*
X100851304Y-75742800D01*
X100890009Y-75781504D01*
X100928714Y-75858914D01*
X100928714Y-75936323D01*
X100890009Y-76013733D01*
X100851304Y-76052438D01*
X100773895Y-76091142D01*
X100502961Y-76091142D01*
X101470580Y-75704095D02*
X101625400Y-75704095D01*
X101702809Y-75742800D01*
X101780219Y-75820209D01*
X101818923Y-75975028D01*
X101818923Y-76245961D01*
X101780219Y-76400780D01*
X101702809Y-76478190D01*
X101625400Y-76516895D01*
X101470580Y-76516895D01*
X101393171Y-76478190D01*
X101315761Y-76400780D01*
X101277057Y-76245961D01*
X101277057Y-75975028D01*
X101315761Y-75820209D01*
X101393171Y-75742800D01*
X101470580Y-75704095D01*
X102051152Y-75704095D02*
X102515609Y-75704095D01*
X102283380Y-76516895D02*
X102283380Y-75704095D01*
X102747838Y-76478190D02*
X102863952Y-76516895D01*
X103057476Y-76516895D01*
X103134885Y-76478190D01*
X103173590Y-76439485D01*
X103212295Y-76362076D01*
X103212295Y-76284666D01*
X103173590Y-76207257D01*
X103134885Y-76168552D01*
X103057476Y-76129847D01*
X102902657Y-76091142D01*
X102825247Y-76052438D01*
X102786542Y-76013733D01*
X102747838Y-75936323D01*
X102747838Y-75858914D01*
X102786542Y-75781504D01*
X102825247Y-75742800D01*
X102902657Y-75704095D01*
X103096180Y-75704095D01*
X103212295Y-75742800D01*
X95103647Y-77462742D02*
X95219761Y-77501447D01*
X95258466Y-77540152D01*
X95297171Y-77617561D01*
X95297171Y-77733676D01*
X95258466Y-77811085D01*
X95219761Y-77849790D01*
X95142352Y-77888495D01*
X94832714Y-77888495D01*
X94832714Y-77075695D01*
X95103647Y-77075695D01*
X95181057Y-77114400D01*
X95219761Y-77153104D01*
X95258466Y-77230514D01*
X95258466Y-77307923D01*
X95219761Y-77385333D01*
X95181057Y-77424038D01*
X95103647Y-77462742D01*
X94832714Y-77462742D01*
X95800333Y-77075695D02*
X95955152Y-77075695D01*
X96032561Y-77114400D01*
X96109971Y-77191809D01*
X96148676Y-77346628D01*
X96148676Y-77617561D01*
X96109971Y-77772380D01*
X96032561Y-77849790D01*
X95955152Y-77888495D01*
X95800333Y-77888495D01*
X95722923Y-77849790D01*
X95645514Y-77772380D01*
X95606809Y-77617561D01*
X95606809Y-77346628D01*
X95645514Y-77191809D01*
X95722923Y-77114400D01*
X95800333Y-77075695D01*
X96497019Y-77888495D02*
X96497019Y-77075695D01*
X97271114Y-77888495D02*
X96884066Y-77888495D01*
X96884066Y-77075695D01*
X97542047Y-77462742D02*
X97812980Y-77462742D01*
X97929095Y-77888495D02*
X97542047Y-77888495D01*
X97542047Y-77075695D01*
X97929095Y-77075695D01*
X98741895Y-77888495D02*
X98470961Y-77501447D01*
X98277438Y-77888495D02*
X98277438Y-77075695D01*
X98587076Y-77075695D01*
X98664485Y-77114400D01*
X98703190Y-77153104D01*
X98741895Y-77230514D01*
X98741895Y-77346628D01*
X98703190Y-77424038D01*
X98664485Y-77462742D01*
X98587076Y-77501447D01*
X98277438Y-77501447D01*
X99361171Y-77462742D02*
X99477285Y-77501447D01*
X99515990Y-77540152D01*
X99554695Y-77617561D01*
X99554695Y-77733676D01*
X99515990Y-77811085D01*
X99477285Y-77849790D01*
X99399876Y-77888495D01*
X99090238Y-77888495D01*
X99090238Y-77075695D01*
X99361171Y-77075695D01*
X99438580Y-77114400D01*
X99477285Y-77153104D01*
X99515990Y-77230514D01*
X99515990Y-77307923D01*
X99477285Y-77385333D01*
X99438580Y-77424038D01*
X99361171Y-77462742D01*
X99090238Y-77462742D01*
X100057857Y-77075695D02*
X100212676Y-77075695D01*
X100290085Y-77114400D01*
X100367495Y-77191809D01*
X100406200Y-77346628D01*
X100406200Y-77617561D01*
X100367495Y-77772380D01*
X100290085Y-77849790D01*
X100212676Y-77888495D01*
X100057857Y-77888495D01*
X99980447Y-77849790D01*
X99903038Y-77772380D01*
X99864333Y-77617561D01*
X99864333Y-77346628D01*
X99903038Y-77191809D01*
X99980447Y-77114400D01*
X100057857Y-77075695D01*
X100638428Y-77075695D02*
X101102885Y-77075695D01*
X100870657Y-77888495D02*
X100870657Y-77075695D01*
X102418847Y-77888495D02*
X101954390Y-77888495D01*
X102186619Y-77888495D02*
X102186619Y-77075695D01*
X102109209Y-77191809D01*
X102031800Y-77269219D01*
X101954390Y-77307923D01*
X102767190Y-77811085D02*
X102805895Y-77849790D01*
X102767190Y-77888495D01*
X102728485Y-77849790D01*
X102767190Y-77811085D01*
X102767190Y-77888495D01*
X103309057Y-77075695D02*
X103386466Y-77075695D01*
X103463876Y-77114400D01*
X103502580Y-77153104D01*
X103541285Y-77230514D01*
X103579990Y-77385333D01*
X103579990Y-77578857D01*
X103541285Y-77733676D01*
X103502580Y-77811085D01*
X103463876Y-77849790D01*
X103386466Y-77888495D01*
X103309057Y-77888495D01*
X103231647Y-77849790D01*
X103192942Y-77811085D01*
X103154238Y-77733676D01*
X103115533Y-77578857D01*
X103115533Y-77385333D01*
X103154238Y-77230514D01*
X103192942Y-77153104D01*
X103231647Y-77114400D01*
X103309057Y-77075695D01*
X159199942Y-80913514D02*
X159199942Y-80642580D01*
X159625695Y-80526466D02*
X159625695Y-80913514D01*
X158812895Y-80913514D01*
X158812895Y-80526466D01*
X159625695Y-80178123D02*
X158812895Y-80178123D01*
X159625695Y-79713666D01*
X158812895Y-79713666D01*
X159548285Y-78862161D02*
X159586990Y-78900866D01*
X159625695Y-79016980D01*
X159625695Y-79094390D01*
X159586990Y-79210504D01*
X159509580Y-79287914D01*
X159432171Y-79326619D01*
X159277352Y-79365323D01*
X159161238Y-79365323D01*
X159006419Y-79326619D01*
X158929009Y-79287914D01*
X158851600Y-79210504D01*
X158812895Y-79094390D01*
X158812895Y-79016980D01*
X158851600Y-78900866D01*
X158890304Y-78862161D01*
X158851600Y-77468790D02*
X158812895Y-77546200D01*
X158812895Y-77662314D01*
X158851600Y-77778428D01*
X158929009Y-77855838D01*
X159006419Y-77894542D01*
X159161238Y-77933247D01*
X159277352Y-77933247D01*
X159432171Y-77894542D01*
X159509580Y-77855838D01*
X159586990Y-77778428D01*
X159625695Y-77662314D01*
X159625695Y-77584904D01*
X159586990Y-77468790D01*
X159548285Y-77430085D01*
X159277352Y-77430085D01*
X159277352Y-77584904D01*
X159625695Y-77081742D02*
X158812895Y-77081742D01*
X159625695Y-76617285D01*
X158812895Y-76617285D01*
X159625695Y-76230238D02*
X158812895Y-76230238D01*
X158812895Y-76036714D01*
X158851600Y-75920600D01*
X158929009Y-75843190D01*
X159006419Y-75804485D01*
X159161238Y-75765780D01*
X159277352Y-75765780D01*
X159432171Y-75804485D01*
X159509580Y-75843190D01*
X159586990Y-75920600D01*
X159625695Y-76036714D01*
X159625695Y-76230238D01*
X159498695Y-73742247D02*
X159498695Y-74129295D01*
X158685895Y-74129295D01*
X159421285Y-73006857D02*
X159459990Y-73045561D01*
X159498695Y-73161676D01*
X159498695Y-73239085D01*
X159459990Y-73355200D01*
X159382580Y-73432609D01*
X159305171Y-73471314D01*
X159150352Y-73510019D01*
X159034238Y-73510019D01*
X158879419Y-73471314D01*
X158802009Y-73432609D01*
X158724600Y-73355200D01*
X158685895Y-73239085D01*
X158685895Y-73161676D01*
X158724600Y-73045561D01*
X158763304Y-73006857D01*
X159498695Y-72658514D02*
X158685895Y-72658514D01*
X158685895Y-72464990D01*
X158724600Y-72348876D01*
X158802009Y-72271466D01*
X158879419Y-72232761D01*
X159034238Y-72194057D01*
X159150352Y-72194057D01*
X159305171Y-72232761D01*
X159382580Y-72271466D01*
X159459990Y-72348876D01*
X159498695Y-72464990D01*
X159498695Y-72658514D01*
X158685895Y-70839390D02*
X158685895Y-71226438D01*
X159072942Y-71265142D01*
X159034238Y-71226438D01*
X158995533Y-71149028D01*
X158995533Y-70955504D01*
X159034238Y-70878095D01*
X159072942Y-70839390D01*
X159150352Y-70800685D01*
X159343876Y-70800685D01*
X159421285Y-70839390D01*
X159459990Y-70878095D01*
X159498695Y-70955504D01*
X159498695Y-71149028D01*
X159459990Y-71226438D01*
X159421285Y-71265142D01*
X158685895Y-70568457D02*
X159498695Y-70297523D01*
X158685895Y-70026590D01*
X128450219Y-74561095D02*
X128914676Y-74561095D01*
X128682447Y-75373895D02*
X128682447Y-74561095D01*
X129185609Y-74948142D02*
X129456542Y-74948142D01*
X129572657Y-75373895D02*
X129185609Y-75373895D01*
X129185609Y-74561095D01*
X129572657Y-74561095D01*
X129921000Y-75373895D02*
X129921000Y-74561095D01*
X130191933Y-75141666D01*
X130462866Y-74561095D01*
X130462866Y-75373895D01*
X130849914Y-75373895D02*
X130849914Y-74561095D01*
X131159552Y-74561095D01*
X131236961Y-74599800D01*
X131275666Y-74638504D01*
X131314371Y-74715914D01*
X131314371Y-74832028D01*
X131275666Y-74909438D01*
X131236961Y-74948142D01*
X131159552Y-74986847D01*
X130849914Y-74986847D01*
X129766180Y-75932695D02*
X129379133Y-75932695D01*
X129340428Y-76319742D01*
X129379133Y-76281038D01*
X129456542Y-76242333D01*
X129650066Y-76242333D01*
X129727476Y-76281038D01*
X129766180Y-76319742D01*
X129804885Y-76397152D01*
X129804885Y-76590676D01*
X129766180Y-76668085D01*
X129727476Y-76706790D01*
X129650066Y-76745495D01*
X129456542Y-76745495D01*
X129379133Y-76706790D01*
X129340428Y-76668085D01*
X130037114Y-75932695D02*
X130308047Y-76745495D01*
X130578980Y-75932695D01*
X130043161Y-71690895D02*
X130043161Y-70878095D01*
X130236685Y-70878095D01*
X130352800Y-70916800D01*
X130430209Y-70994209D01*
X130468914Y-71071619D01*
X130507619Y-71226438D01*
X130507619Y-71342552D01*
X130468914Y-71497371D01*
X130430209Y-71574780D01*
X130352800Y-71652190D01*
X130236685Y-71690895D01*
X130043161Y-71690895D01*
X131010780Y-70878095D02*
X131165600Y-70878095D01*
X131243009Y-70916800D01*
X131320419Y-70994209D01*
X131359123Y-71149028D01*
X131359123Y-71419961D01*
X131320419Y-71574780D01*
X131243009Y-71652190D01*
X131165600Y-71690895D01*
X131010780Y-71690895D01*
X130933371Y-71652190D01*
X130855961Y-71574780D01*
X130817257Y-71419961D01*
X130817257Y-71149028D01*
X130855961Y-70994209D01*
X130933371Y-70916800D01*
X131010780Y-70878095D01*
X131630057Y-70878095D02*
X131823580Y-71690895D01*
X131978400Y-71110323D01*
X132133219Y-71690895D01*
X132326742Y-70878095D01*
X132636380Y-71690895D02*
X132636380Y-70878095D01*
X133100838Y-71690895D01*
X133100838Y-70878095D01*
X131417180Y-72249695D02*
X131030133Y-72249695D01*
X130991428Y-72636742D01*
X131030133Y-72598038D01*
X131107542Y-72559333D01*
X131301066Y-72559333D01*
X131378476Y-72598038D01*
X131417180Y-72636742D01*
X131455885Y-72714152D01*
X131455885Y-72907676D01*
X131417180Y-72985085D01*
X131378476Y-73023790D01*
X131301066Y-73062495D01*
X131107542Y-73062495D01*
X131030133Y-73023790D01*
X130991428Y-72985085D01*
X131688114Y-72249695D02*
X131959047Y-73062495D01*
X132229980Y-72249695D01*
X122932371Y-62877095D02*
X122932371Y-63535076D01*
X122971076Y-63612485D01*
X123009780Y-63651190D01*
X123087190Y-63689895D01*
X123242009Y-63689895D01*
X123319419Y-63651190D01*
X123358123Y-63612485D01*
X123396828Y-63535076D01*
X123396828Y-62877095D01*
X123783876Y-63689895D02*
X123783876Y-62877095D01*
X124093514Y-62877095D01*
X124170923Y-62915800D01*
X124209628Y-62954504D01*
X124248333Y-63031914D01*
X124248333Y-63148028D01*
X124209628Y-63225438D01*
X124170923Y-63264142D01*
X124093514Y-63302847D01*
X123783876Y-63302847D01*
X123416180Y-64248695D02*
X123029133Y-64248695D01*
X122990428Y-64635742D01*
X123029133Y-64597038D01*
X123106542Y-64558333D01*
X123300066Y-64558333D01*
X123377476Y-64597038D01*
X123416180Y-64635742D01*
X123454885Y-64713152D01*
X123454885Y-64906676D01*
X123416180Y-64984085D01*
X123377476Y-65022790D01*
X123300066Y-65061495D01*
X123106542Y-65061495D01*
X123029133Y-65022790D01*
X122990428Y-64984085D01*
X123687114Y-64248695D02*
X123958047Y-65061495D01*
X124228980Y-64248695D01*
X152033514Y-51675695D02*
X152033514Y-50862895D01*
X152304447Y-51443466D01*
X152575380Y-50862895D01*
X152575380Y-51675695D01*
X153117247Y-50862895D02*
X153272066Y-50862895D01*
X153349476Y-50901600D01*
X153426885Y-50979009D01*
X153465590Y-51133828D01*
X153465590Y-51404761D01*
X153426885Y-51559580D01*
X153349476Y-51636990D01*
X153272066Y-51675695D01*
X153117247Y-51675695D01*
X153039838Y-51636990D01*
X152962428Y-51559580D01*
X152923723Y-51404761D01*
X152923723Y-51133828D01*
X152962428Y-50979009D01*
X153039838Y-50901600D01*
X153117247Y-50862895D01*
X153697819Y-50862895D02*
X154162276Y-50862895D01*
X153930047Y-51675695D02*
X153930047Y-50862895D01*
X154433209Y-51366057D02*
X155052485Y-51366057D01*
X117218580Y-59422695D02*
X116831533Y-59422695D01*
X116831533Y-58609895D01*
X130923695Y-53335161D02*
X130923695Y-53799619D01*
X130923695Y-53567390D02*
X130110895Y-53567390D01*
X130227009Y-53644800D01*
X130304419Y-53722209D01*
X130343123Y-53799619D01*
X130188304Y-53025523D02*
X130149600Y-52986819D01*
X130110895Y-52909409D01*
X130110895Y-52715885D01*
X130149600Y-52638476D01*
X130188304Y-52599771D01*
X130265714Y-52561066D01*
X130343123Y-52561066D01*
X130459238Y-52599771D01*
X130923695Y-53064228D01*
X130923695Y-52561066D01*
X130110895Y-52328838D02*
X130923695Y-52057904D01*
X130110895Y-51786971D01*
X126380723Y-58593600D02*
X126303314Y-58554895D01*
X126187200Y-58554895D01*
X126071085Y-58593600D01*
X125993676Y-58671009D01*
X125954971Y-58748419D01*
X125916266Y-58903238D01*
X125916266Y-59019352D01*
X125954971Y-59174171D01*
X125993676Y-59251580D01*
X126071085Y-59328990D01*
X126187200Y-59367695D01*
X126264609Y-59367695D01*
X126380723Y-59328990D01*
X126419428Y-59290285D01*
X126419428Y-59019352D01*
X126264609Y-59019352D01*
X126767771Y-59367695D02*
X126767771Y-58554895D01*
X127232228Y-59367695D01*
X127232228Y-58554895D01*
X127619276Y-59367695D02*
X127619276Y-58554895D01*
X127812800Y-58554895D01*
X127928914Y-58593600D01*
X128006323Y-58671009D01*
X128045028Y-58748419D01*
X128083733Y-58903238D01*
X128083733Y-59019352D01*
X128045028Y-59174171D01*
X128006323Y-59251580D01*
X127928914Y-59328990D01*
X127812800Y-59367695D01*
X127619276Y-59367695D01*
X111380723Y-58593600D02*
X111303314Y-58554895D01*
X111187200Y-58554895D01*
X111071085Y-58593600D01*
X110993676Y-58671009D01*
X110954971Y-58748419D01*
X110916266Y-58903238D01*
X110916266Y-59019352D01*
X110954971Y-59174171D01*
X110993676Y-59251580D01*
X111071085Y-59328990D01*
X111187200Y-59367695D01*
X111264609Y-59367695D01*
X111380723Y-59328990D01*
X111419428Y-59290285D01*
X111419428Y-59019352D01*
X111264609Y-59019352D01*
X111767771Y-59367695D02*
X111767771Y-58554895D01*
X112232228Y-59367695D01*
X112232228Y-58554895D01*
X112619276Y-59367695D02*
X112619276Y-58554895D01*
X112812800Y-58554895D01*
X112928914Y-58593600D01*
X113006323Y-58671009D01*
X113045028Y-58748419D01*
X113083733Y-58903238D01*
X113083733Y-59019352D01*
X113045028Y-59174171D01*
X113006323Y-59251580D01*
X112928914Y-59328990D01*
X112812800Y-59367695D01*
X112619276Y-59367695D01*
X121767771Y-59367695D02*
X121767771Y-58554895D01*
X122232228Y-59367695D01*
X122232228Y-58554895D01*
X106767771Y-59367695D02*
X106767771Y-58554895D01*
X107232228Y-59367695D01*
X107232228Y-58554895D01*
X101903238Y-59367695D02*
X101516190Y-59367695D01*
X101516190Y-58554895D01*
X102135466Y-59135466D02*
X102522514Y-59135466D01*
X102058057Y-59367695D02*
X102328990Y-58554895D01*
X102599923Y-59367695D01*
X96380723Y-58593600D02*
X96303314Y-58554895D01*
X96187200Y-58554895D01*
X96071085Y-58593600D01*
X95993676Y-58671009D01*
X95954971Y-58748419D01*
X95916266Y-58903238D01*
X95916266Y-59019352D01*
X95954971Y-59174171D01*
X95993676Y-59251580D01*
X96071085Y-59328990D01*
X96187200Y-59367695D01*
X96264609Y-59367695D01*
X96380723Y-59328990D01*
X96419428Y-59290285D01*
X96419428Y-59019352D01*
X96264609Y-59019352D01*
X96767771Y-59367695D02*
X96767771Y-58554895D01*
X97232228Y-59367695D01*
X97232228Y-58554895D01*
X97619276Y-59367695D02*
X97619276Y-58554895D01*
X97812800Y-58554895D01*
X97928914Y-58593600D01*
X98006323Y-58671009D01*
X98045028Y-58748419D01*
X98083733Y-58903238D01*
X98083733Y-59019352D01*
X98045028Y-59174171D01*
X98006323Y-59251580D01*
X97928914Y-59328990D01*
X97812800Y-59367695D01*
X97619276Y-59367695D01*
X91767771Y-59367695D02*
X91767771Y-58554895D01*
X92232228Y-59367695D01*
X92232228Y-58554895D01*
X87251580Y-59367695D02*
X86864533Y-59367695D01*
X86864533Y-58554895D01*
D11*
X83750000Y-79000000D02*
G75*
G03*
X83750000Y-79000000I-2750000J0D01*
G01*
X171750000Y-79000000D02*
G75*
G03*
X171750000Y-79000000I-2750000J0D01*
G01*
X171750000Y-51000000D02*
G75*
G03*
X171750000Y-51000000I-2750000J0D01*
G01*
X83750000Y-51000000D02*
G75*
G03*
X83750000Y-51000000I-2750000J0D01*
G01*
X84500000Y-60250000D02*
X108500000Y-60250000D01*
X84500000Y-70750000D02*
X84500000Y-60250000D01*
X108500000Y-60250000D02*
X108500000Y-70750000D01*
X108500000Y-70750000D02*
X84500000Y-70750000D01*
X150090000Y-65210000D02*
X152440000Y-65210000D01*
X156910000Y-65210000D02*
X154560000Y-65210000D01*
X156910000Y-59454437D02*
X156910000Y-65210000D01*
X150090000Y-59454437D02*
X150090000Y-65210000D01*
X151154437Y-58390000D02*
X152440000Y-58390000D01*
X155845563Y-58390000D02*
X154560000Y-58390000D01*
X155845563Y-58390000D02*
X156910000Y-59454437D01*
X151154437Y-58390000D02*
X150090000Y-59454437D01*
X155347500Y-57362500D02*
X155347500Y-58150000D01*
X155741250Y-57756250D02*
X154953750Y-57756250D01*
X144440000Y-62000000D02*
X144440000Y-65450000D01*
X144440000Y-62000000D02*
X144440000Y-60050000D01*
X149560000Y-62000000D02*
X149560000Y-63950000D01*
X149560000Y-62000000D02*
X149560000Y-60050000D01*
X143910000Y-58750000D02*
X143910000Y-64760000D01*
X137090000Y-61000000D02*
X137090000Y-64760000D01*
X143910000Y-64760000D02*
X142650000Y-64760000D01*
X137090000Y-64760000D02*
X138350000Y-64760000D01*
X131765000Y-78272936D02*
X131765000Y-78727064D01*
X133235000Y-78272936D02*
X133235000Y-78727064D01*
X154272936Y-54735000D02*
X154727064Y-54735000D01*
X154272936Y-53265000D02*
X154727064Y-53265000D01*
X147227064Y-67464000D02*
X146772936Y-67464000D01*
X147227064Y-68934000D02*
X146772936Y-68934000D01*
X150727064Y-67464000D02*
X150272936Y-67464000D01*
X150727064Y-68934000D02*
X150272936Y-68934000D01*
X88740000Y-70920000D02*
X90200000Y-70920000D01*
X88740000Y-74080000D02*
X90900000Y-74080000D01*
X88740000Y-74080000D02*
X88740000Y-73150000D01*
X88740000Y-70920000D02*
X88740000Y-71850000D01*
X123240000Y-76920000D02*
X124700000Y-76920000D01*
X123240000Y-80080000D02*
X125400000Y-80080000D01*
X123240000Y-80080000D02*
X123240000Y-79150000D01*
X123240000Y-76920000D02*
X123240000Y-77850000D01*
X133650000Y-67750000D02*
X133650000Y-69000000D01*
X134900000Y-67750000D02*
X133650000Y-67750000D01*
X143300000Y-73250000D02*
X139000000Y-73250000D01*
X143300000Y-70300000D02*
X143300000Y-73250000D01*
X144050000Y-70300000D02*
X143300000Y-70300000D01*
X134700000Y-73250000D02*
X139000000Y-73250000D01*
X134700000Y-70300000D02*
X134700000Y-73250000D01*
X133950000Y-70300000D02*
X134700000Y-70300000D01*
X144050000Y-68050000D02*
X142250000Y-68050000D01*
X144050000Y-68800000D02*
X144050000Y-68050000D01*
X142250000Y-68800000D02*
X144050000Y-68800000D01*
X142250000Y-68050000D02*
X142250000Y-68800000D01*
X135750000Y-68050000D02*
X133950000Y-68050000D01*
X135750000Y-68800000D02*
X135750000Y-68050000D01*
X133950000Y-68800000D02*
X135750000Y-68800000D01*
X133950000Y-68050000D02*
X133950000Y-68800000D01*
X140750000Y-68050000D02*
X137250000Y-68050000D01*
X140750000Y-68800000D02*
X140750000Y-68050000D01*
X137250000Y-68800000D02*
X140750000Y-68800000D01*
X137250000Y-68050000D02*
X137250000Y-68800000D01*
X144060000Y-68040000D02*
X133940000Y-68040000D01*
X144060000Y-74010000D02*
X144060000Y-68040000D01*
X133940000Y-74010000D02*
X144060000Y-74010000D01*
X133940000Y-68040000D02*
X133940000Y-74010000D01*
X158350000Y-75750000D02*
X158350000Y-74500000D01*
X157100000Y-75750000D02*
X158350000Y-75750000D01*
X146200000Y-70250000D02*
X151750000Y-70250000D01*
X146200000Y-73200000D02*
X146200000Y-70250000D01*
X145450000Y-73200000D02*
X146200000Y-73200000D01*
X157300000Y-70250000D02*
X151750000Y-70250000D01*
X157300000Y-73200000D02*
X157300000Y-70250000D01*
X158050000Y-73200000D02*
X157300000Y-73200000D01*
X145450000Y-75450000D02*
X147250000Y-75450000D01*
X145450000Y-74700000D02*
X145450000Y-75450000D01*
X147250000Y-74700000D02*
X145450000Y-74700000D01*
X147250000Y-75450000D02*
X147250000Y-74700000D01*
X156250000Y-75450000D02*
X158050000Y-75450000D01*
X156250000Y-74700000D02*
X156250000Y-75450000D01*
X158050000Y-74700000D02*
X156250000Y-74700000D01*
X158050000Y-75450000D02*
X158050000Y-74700000D01*
X148750000Y-75450000D02*
X154750000Y-75450000D01*
X148750000Y-74700000D02*
X148750000Y-75450000D01*
X154750000Y-74700000D02*
X148750000Y-74700000D01*
X154750000Y-75450000D02*
X154750000Y-74700000D01*
X145440000Y-75460000D02*
X158060000Y-75460000D01*
X145440000Y-69490000D02*
X145440000Y-75460000D01*
X158060000Y-69490000D02*
X145440000Y-69490000D01*
X158060000Y-75460000D02*
X158060000Y-69490000D01*
X99200000Y-58300000D02*
X99600000Y-58300000D01*
X99200000Y-57660000D02*
X99200000Y-58300000D01*
X110742000Y-53992000D02*
X110347000Y-54388000D01*
X113388000Y-51346000D02*
X113008000Y-51726000D01*
X110993000Y-54274000D02*
X110613000Y-54654000D01*
X113654000Y-51612000D02*
X113259000Y-52008000D01*
X105742000Y-53992000D02*
X105347000Y-54388000D01*
X108388000Y-51346000D02*
X108008000Y-51726000D01*
X105993000Y-54274000D02*
X105613000Y-54654000D01*
X108654000Y-51612000D02*
X108259000Y-52008000D01*
X100452000Y-54281000D02*
X100346000Y-54388000D01*
X103388000Y-51346000D02*
X103281000Y-51453000D01*
X100718000Y-54547000D02*
X100612000Y-54654000D01*
X103654000Y-51612000D02*
X103547000Y-51719000D01*
X114560000Y-48940000D02*
X114560000Y-58060000D01*
X99440000Y-48940000D02*
X99440000Y-58060000D01*
X99440000Y-58060000D02*
X114560000Y-58060000D01*
X99440000Y-48940000D02*
X114560000Y-48940000D01*
X99440000Y-56500000D02*
X114560000Y-56500000D01*
X99440000Y-57600000D02*
X114560000Y-57600000D01*
X114180000Y-53000000D02*
G75*
G03*
X114180000Y-53000000I-2180000J0D01*
G01*
X109180000Y-53000000D02*
G75*
G03*
X109180000Y-53000000I-2180000J0D01*
G01*
X104180000Y-53000000D02*
G75*
G03*
X104180000Y-53000000I-2180000J0D01*
G01*
X133650000Y-74750000D02*
X133650000Y-76000000D01*
X134900000Y-74750000D02*
X133650000Y-74750000D01*
X143300000Y-80250000D02*
X139000000Y-80250000D01*
X143300000Y-77300000D02*
X143300000Y-80250000D01*
X144050000Y-77300000D02*
X143300000Y-77300000D01*
X134700000Y-80250000D02*
X139000000Y-80250000D01*
X134700000Y-77300000D02*
X134700000Y-80250000D01*
X133950000Y-77300000D02*
X134700000Y-77300000D01*
X144050000Y-75050000D02*
X142250000Y-75050000D01*
X144050000Y-75800000D02*
X144050000Y-75050000D01*
X142250000Y-75800000D02*
X144050000Y-75800000D01*
X142250000Y-75050000D02*
X142250000Y-75800000D01*
X135750000Y-75050000D02*
X133950000Y-75050000D01*
X135750000Y-75800000D02*
X135750000Y-75050000D01*
X133950000Y-75800000D02*
X135750000Y-75800000D01*
X133950000Y-75050000D02*
X133950000Y-75800000D01*
X140750000Y-75050000D02*
X137250000Y-75050000D01*
X140750000Y-75800000D02*
X140750000Y-75050000D01*
X137250000Y-75800000D02*
X140750000Y-75800000D01*
X137250000Y-75050000D02*
X137250000Y-75800000D01*
X144060000Y-75040000D02*
X133940000Y-75040000D01*
X144060000Y-81010000D02*
X144060000Y-75040000D01*
X133940000Y-81010000D02*
X144060000Y-81010000D01*
X133940000Y-75040000D02*
X133940000Y-81010000D01*
X125150000Y-60750000D02*
X125150000Y-62000000D01*
X126400000Y-60750000D02*
X125150000Y-60750000D01*
X134800000Y-66250000D02*
X130500000Y-66250000D01*
X134800000Y-63300000D02*
X134800000Y-66250000D01*
X135550000Y-63300000D02*
X134800000Y-63300000D01*
X126200000Y-66250000D02*
X130500000Y-66250000D01*
X126200000Y-63300000D02*
X126200000Y-66250000D01*
X125450000Y-63300000D02*
X126200000Y-63300000D01*
X135550000Y-61050000D02*
X133750000Y-61050000D01*
X135550000Y-61800000D02*
X135550000Y-61050000D01*
X133750000Y-61800000D02*
X135550000Y-61800000D01*
X133750000Y-61050000D02*
X133750000Y-61800000D01*
X127250000Y-61050000D02*
X125450000Y-61050000D01*
X127250000Y-61800000D02*
X127250000Y-61050000D01*
X125450000Y-61800000D02*
X127250000Y-61800000D01*
X125450000Y-61050000D02*
X125450000Y-61800000D01*
X132250000Y-61050000D02*
X128750000Y-61050000D01*
X132250000Y-61800000D02*
X132250000Y-61050000D01*
X128750000Y-61800000D02*
X132250000Y-61800000D01*
X128750000Y-61050000D02*
X128750000Y-61800000D01*
X135560000Y-61040000D02*
X125440000Y-61040000D01*
X135560000Y-67010000D02*
X135560000Y-61040000D01*
X125440000Y-67010000D02*
X135560000Y-67010000D01*
X125440000Y-61040000D02*
X125440000Y-67010000D01*
X158360000Y-81110000D02*
X158360000Y-79860000D01*
X157110000Y-81110000D02*
X158360000Y-81110000D01*
X149000000Y-76700000D02*
X149000000Y-77200000D01*
X148900000Y-77200000D02*
X148900000Y-76700000D01*
X149100000Y-77200000D02*
X148900000Y-77200000D01*
X149100000Y-76700000D02*
X149100000Y-77200000D01*
X151000000Y-76700000D02*
X151000000Y-77200000D01*
X150900000Y-77200000D02*
X150900000Y-76700000D01*
X151100000Y-77200000D02*
X150900000Y-77200000D01*
X151100000Y-76700000D02*
X151100000Y-77200000D01*
X153000000Y-76700000D02*
X153000000Y-77200000D01*
X152900000Y-77200000D02*
X152900000Y-76700000D01*
X153100000Y-77200000D02*
X152900000Y-77200000D01*
X153100000Y-76700000D02*
X153100000Y-77200000D01*
X155000000Y-76700000D02*
X155000000Y-77200000D01*
X154900000Y-77200000D02*
X154900000Y-76700000D01*
X155100000Y-77200000D02*
X154900000Y-77200000D01*
X155100000Y-76700000D02*
X155100000Y-77200000D01*
X145940000Y-78200000D02*
X146550000Y-78200000D01*
X145940000Y-79500000D02*
X146550000Y-79500000D01*
X158060000Y-78200000D02*
X157450000Y-78200000D01*
X158060000Y-79500000D02*
X157450000Y-79500000D01*
X148500000Y-80200000D02*
X148500000Y-80810000D01*
X146550000Y-80200000D02*
X148500000Y-80200000D01*
X146550000Y-76700000D02*
X146550000Y-80200000D01*
X157450000Y-76700000D02*
X146550000Y-76700000D01*
X157450000Y-80200000D02*
X157450000Y-76700000D01*
X155500000Y-80200000D02*
X157450000Y-80200000D01*
X155500000Y-80810000D02*
X155500000Y-80200000D01*
X156300000Y-80910000D02*
X156600000Y-80910000D01*
X156600000Y-81010000D02*
X156600000Y-80810000D01*
X156300000Y-81010000D02*
X156600000Y-81010000D01*
X156300000Y-80810000D02*
X156300000Y-81010000D01*
X145940000Y-80810000D02*
X158060000Y-80810000D01*
X145940000Y-76090000D02*
X145940000Y-80810000D01*
X158060000Y-76090000D02*
X145940000Y-76090000D01*
X158060000Y-80810000D02*
X158060000Y-76090000D01*
X141200000Y-58300000D02*
X141600000Y-58300000D01*
X141200000Y-57660000D02*
X141200000Y-58300000D01*
X147742000Y-53992000D02*
X147347000Y-54388000D01*
X150388000Y-51346000D02*
X150008000Y-51726000D01*
X147993000Y-54274000D02*
X147613000Y-54654000D01*
X150654000Y-51612000D02*
X150259000Y-52008000D01*
X142452000Y-54281000D02*
X142346000Y-54388000D01*
X145388000Y-51346000D02*
X145281000Y-51453000D01*
X142718000Y-54547000D02*
X142612000Y-54654000D01*
X145654000Y-51612000D02*
X145547000Y-51719000D01*
X151560000Y-48940000D02*
X151560000Y-58060000D01*
X141440000Y-48940000D02*
X141440000Y-58060000D01*
X141440000Y-58060000D02*
X151560000Y-58060000D01*
X141440000Y-48940000D02*
X151560000Y-48940000D01*
X141440000Y-56500000D02*
X151560000Y-56500000D01*
X141440000Y-57600000D02*
X151560000Y-57600000D01*
X151180000Y-53000000D02*
G75*
G03*
X151180000Y-53000000I-2180000J0D01*
G01*
X146180000Y-53000000D02*
G75*
G03*
X146180000Y-53000000I-2180000J0D01*
G01*
X114200000Y-58300000D02*
X114600000Y-58300000D01*
X114200000Y-57660000D02*
X114200000Y-58300000D01*
X125742000Y-53992000D02*
X125347000Y-54388000D01*
X128388000Y-51346000D02*
X128008000Y-51726000D01*
X125993000Y-54274000D02*
X125613000Y-54654000D01*
X128654000Y-51612000D02*
X128259000Y-52008000D01*
X120742000Y-53992000D02*
X120347000Y-54388000D01*
X123388000Y-51346000D02*
X123008000Y-51726000D01*
X120993000Y-54274000D02*
X120613000Y-54654000D01*
X123654000Y-51612000D02*
X123259000Y-52008000D01*
X115452000Y-54281000D02*
X115346000Y-54388000D01*
X118388000Y-51346000D02*
X118281000Y-51453000D01*
X115718000Y-54547000D02*
X115612000Y-54654000D01*
X118654000Y-51612000D02*
X118547000Y-51719000D01*
X129560000Y-48940000D02*
X129560000Y-58060000D01*
X114440000Y-48940000D02*
X114440000Y-58060000D01*
X114440000Y-58060000D02*
X129560000Y-58060000D01*
X114440000Y-48940000D02*
X129560000Y-48940000D01*
X114440000Y-56500000D02*
X129560000Y-56500000D01*
X114440000Y-57600000D02*
X129560000Y-57600000D01*
X129180000Y-53000000D02*
G75*
G03*
X129180000Y-53000000I-2180000J0D01*
G01*
X124180000Y-53000000D02*
G75*
G03*
X124180000Y-53000000I-2180000J0D01*
G01*
X119180000Y-53000000D02*
G75*
G03*
X119180000Y-53000000I-2180000J0D01*
G01*
X84200000Y-58300000D02*
X84600000Y-58300000D01*
X84200000Y-57660000D02*
X84200000Y-58300000D01*
X95742000Y-53992000D02*
X95347000Y-54388000D01*
X98388000Y-51346000D02*
X98008000Y-51726000D01*
X95993000Y-54274000D02*
X95613000Y-54654000D01*
X98654000Y-51612000D02*
X98259000Y-52008000D01*
X90742000Y-53992000D02*
X90347000Y-54388000D01*
X93388000Y-51346000D02*
X93008000Y-51726000D01*
X90993000Y-54274000D02*
X90613000Y-54654000D01*
X93654000Y-51612000D02*
X93259000Y-52008000D01*
X85452000Y-54281000D02*
X85346000Y-54388000D01*
X88388000Y-51346000D02*
X88281000Y-51453000D01*
X85718000Y-54547000D02*
X85612000Y-54654000D01*
X88654000Y-51612000D02*
X88547000Y-51719000D01*
X99560000Y-48940000D02*
X99560000Y-58060000D01*
X84440000Y-48940000D02*
X84440000Y-58060000D01*
X84440000Y-58060000D02*
X99560000Y-58060000D01*
X84440000Y-48940000D02*
X99560000Y-48940000D01*
X84440000Y-56500000D02*
X99560000Y-56500000D01*
X84440000Y-57600000D02*
X99560000Y-57600000D01*
X99180000Y-53000000D02*
G75*
G03*
X99180000Y-53000000I-2180000J0D01*
G01*
X94180000Y-53000000D02*
G75*
G03*
X94180000Y-53000000I-2180000J0D01*
G01*
X89180000Y-53000000D02*
G75*
G03*
X89180000Y-53000000I-2180000J0D01*
G01*
X131200000Y-58300000D02*
X131600000Y-58300000D01*
X131200000Y-57660000D02*
X131200000Y-58300000D01*
X137742000Y-53992000D02*
X137347000Y-54388000D01*
X140388000Y-51346000D02*
X140008000Y-51726000D01*
X137993000Y-54274000D02*
X137613000Y-54654000D01*
X140654000Y-51612000D02*
X140259000Y-52008000D01*
X132452000Y-54281000D02*
X132346000Y-54388000D01*
X135388000Y-51346000D02*
X135281000Y-51453000D01*
X132718000Y-54547000D02*
X132612000Y-54654000D01*
X135654000Y-51612000D02*
X135547000Y-51719000D01*
X141560000Y-48940000D02*
X141560000Y-58060000D01*
X131440000Y-48940000D02*
X131440000Y-58060000D01*
X131440000Y-58060000D02*
X141560000Y-58060000D01*
X131440000Y-48940000D02*
X141560000Y-48940000D01*
X131440000Y-56500000D02*
X141560000Y-56500000D01*
X131440000Y-57600000D02*
X141560000Y-57600000D01*
X141180000Y-53000000D02*
G75*
G03*
X141180000Y-53000000I-2180000J0D01*
G01*
X136180000Y-53000000D02*
G75*
G03*
X136180000Y-53000000I-2180000J0D01*
G01*
X154276248Y-56735000D02*
X154798752Y-56735000D01*
X154276248Y-55265000D02*
X154798752Y-55265000D01*
X135223752Y-58765000D02*
X134701248Y-58765000D01*
X135223752Y-60235000D02*
X134701248Y-60235000D01*
X122000000Y-74500000D02*
G75*
G03*
X122000000Y-74500000I-6000000J0D01*
G01*
X177770000Y-48190000D02*
X159990000Y-48190000D01*
X177770000Y-81210000D02*
X177770000Y-48190000D01*
X159990000Y-81210000D02*
X177770000Y-81210000D01*
X159990000Y-48190000D02*
X159990000Y-81210000D01*
D12*
X82261904Y-61952380D02*
X82261904Y-60952380D01*
X82833333Y-61952380D02*
X82404761Y-61380952D01*
X82833333Y-60952380D02*
X82261904Y-61523809D01*
X83785714Y-61952380D02*
X83214285Y-61952380D01*
X83500000Y-61952380D02*
X83500000Y-60952380D01*
X83404761Y-61095238D01*
X83309523Y-61190476D01*
X83214285Y-61238095D01*
X158207142Y-61966666D02*
X158254761Y-62014285D01*
X158302380Y-62157142D01*
X158302380Y-62252380D01*
X158254761Y-62395238D01*
X158159523Y-62490476D01*
X158064285Y-62538095D01*
X157873809Y-62585714D01*
X157730952Y-62585714D01*
X157540476Y-62538095D01*
X157445238Y-62490476D01*
X157350000Y-62395238D01*
X157302380Y-62252380D01*
X157302380Y-62157142D01*
X157350000Y-62014285D01*
X157397619Y-61966666D01*
X157302380Y-61633333D02*
X157302380Y-61014285D01*
X157683333Y-61347619D01*
X157683333Y-61204761D01*
X157730952Y-61109523D01*
X157778571Y-61061904D01*
X157873809Y-61014285D01*
X158111904Y-61014285D01*
X158207142Y-61061904D01*
X158254761Y-61109523D01*
X158302380Y-61204761D01*
X158302380Y-61490476D01*
X158254761Y-61585714D01*
X158207142Y-61633333D01*
X147193095Y-66000380D02*
X147193095Y-66809904D01*
X147240714Y-66905142D01*
X147288333Y-66952761D01*
X147383571Y-67000380D01*
X147574047Y-67000380D01*
X147669285Y-66952761D01*
X147716904Y-66905142D01*
X147764523Y-66809904D01*
X147764523Y-66000380D01*
X148193095Y-66095619D02*
X148240714Y-66048000D01*
X148335952Y-66000380D01*
X148574047Y-66000380D01*
X148669285Y-66048000D01*
X148716904Y-66095619D01*
X148764523Y-66190857D01*
X148764523Y-66286095D01*
X148716904Y-66428952D01*
X148145476Y-67000380D01*
X148764523Y-67000380D01*
X136485380Y-66801904D02*
X137294904Y-66801904D01*
X137390142Y-66754285D01*
X137437761Y-66706666D01*
X137485380Y-66611428D01*
X137485380Y-66420952D01*
X137437761Y-66325714D01*
X137390142Y-66278095D01*
X137294904Y-66230476D01*
X136485380Y-66230476D01*
X137485380Y-65230476D02*
X137485380Y-65801904D01*
X137485380Y-65516190D02*
X136485380Y-65516190D01*
X136628238Y-65611428D01*
X136723476Y-65706666D01*
X136771095Y-65801904D01*
X131135380Y-78398666D02*
X130659190Y-78732000D01*
X131135380Y-78970095D02*
X130135380Y-78970095D01*
X130135380Y-78589142D01*
X130183000Y-78493904D01*
X130230619Y-78446285D01*
X130325857Y-78398666D01*
X130468714Y-78398666D01*
X130563952Y-78446285D01*
X130611571Y-78493904D01*
X130659190Y-78589142D01*
X130659190Y-78970095D01*
X130468714Y-77541523D02*
X131135380Y-77541523D01*
X130087761Y-77779619D02*
X130802047Y-78017714D01*
X130802047Y-77398666D01*
X157313333Y-54427380D02*
X156980000Y-53951190D01*
X156741904Y-54427380D02*
X156741904Y-53427380D01*
X157122857Y-53427380D01*
X157218095Y-53475000D01*
X157265714Y-53522619D01*
X157313333Y-53617857D01*
X157313333Y-53760714D01*
X157265714Y-53855952D01*
X157218095Y-53903571D01*
X157122857Y-53951190D01*
X156741904Y-53951190D01*
X157646666Y-53427380D02*
X158265714Y-53427380D01*
X157932380Y-53808333D01*
X158075238Y-53808333D01*
X158170476Y-53855952D01*
X158218095Y-53903571D01*
X158265714Y-53998809D01*
X158265714Y-54236904D01*
X158218095Y-54332142D01*
X158170476Y-54379761D01*
X158075238Y-54427380D01*
X157789523Y-54427380D01*
X157694285Y-54379761D01*
X157646666Y-54332142D01*
X144105333Y-67508380D02*
X143772000Y-67032190D01*
X143533904Y-67508380D02*
X143533904Y-66508380D01*
X143914857Y-66508380D01*
X144010095Y-66556000D01*
X144057714Y-66603619D01*
X144105333Y-66698857D01*
X144105333Y-66841714D01*
X144057714Y-66936952D01*
X144010095Y-66984571D01*
X143914857Y-67032190D01*
X143533904Y-67032190D01*
X144486285Y-66603619D02*
X144533904Y-66556000D01*
X144629142Y-66508380D01*
X144867238Y-66508380D01*
X144962476Y-66556000D01*
X145010095Y-66603619D01*
X145057714Y-66698857D01*
X145057714Y-66794095D01*
X145010095Y-66936952D01*
X144438666Y-67508380D01*
X145057714Y-67508380D01*
X153376333Y-68651380D02*
X153043000Y-68175190D01*
X152804904Y-68651380D02*
X152804904Y-67651380D01*
X153185857Y-67651380D01*
X153281095Y-67699000D01*
X153328714Y-67746619D01*
X153376333Y-67841857D01*
X153376333Y-67984714D01*
X153328714Y-68079952D01*
X153281095Y-68127571D01*
X153185857Y-68175190D01*
X152804904Y-68175190D01*
X154328714Y-68651380D02*
X153757285Y-68651380D01*
X154043000Y-68651380D02*
X154043000Y-67651380D01*
X153947761Y-67794238D01*
X153852523Y-67889476D01*
X153757285Y-67937095D01*
X89404761Y-75547619D02*
X89309523Y-75500000D01*
X89214285Y-75404761D01*
X89071428Y-75261904D01*
X88976190Y-75214285D01*
X88880952Y-75214285D01*
X88928571Y-75452380D02*
X88833333Y-75404761D01*
X88738095Y-75309523D01*
X88690476Y-75119047D01*
X88690476Y-74785714D01*
X88738095Y-74595238D01*
X88833333Y-74500000D01*
X88928571Y-74452380D01*
X89119047Y-74452380D01*
X89214285Y-74500000D01*
X89309523Y-74595238D01*
X89357142Y-74785714D01*
X89357142Y-75119047D01*
X89309523Y-75309523D01*
X89214285Y-75404761D01*
X89119047Y-75452380D01*
X88928571Y-75452380D01*
X89738095Y-74547619D02*
X89785714Y-74500000D01*
X89880952Y-74452380D01*
X90119047Y-74452380D01*
X90214285Y-74500000D01*
X90261904Y-74547619D01*
X90309523Y-74642857D01*
X90309523Y-74738095D01*
X90261904Y-74880952D01*
X89690476Y-75452380D01*
X90309523Y-75452380D01*
X124237761Y-76239619D02*
X124142523Y-76192000D01*
X124047285Y-76096761D01*
X123904428Y-75953904D01*
X123809190Y-75906285D01*
X123713952Y-75906285D01*
X123761571Y-76144380D02*
X123666333Y-76096761D01*
X123571095Y-76001523D01*
X123523476Y-75811047D01*
X123523476Y-75477714D01*
X123571095Y-75287238D01*
X123666333Y-75192000D01*
X123761571Y-75144380D01*
X123952047Y-75144380D01*
X124047285Y-75192000D01*
X124142523Y-75287238D01*
X124190142Y-75477714D01*
X124190142Y-75811047D01*
X124142523Y-76001523D01*
X124047285Y-76096761D01*
X123952047Y-76144380D01*
X123761571Y-76144380D01*
X125142523Y-76144380D02*
X124571095Y-76144380D01*
X124856809Y-76144380D02*
X124856809Y-75144380D01*
X124761571Y-75287238D01*
X124666333Y-75382476D01*
X124571095Y-75430095D01*
X131143476Y-69175380D02*
X131143476Y-69889666D01*
X131095857Y-70032523D01*
X131000619Y-70127761D01*
X130857761Y-70175380D01*
X130762523Y-70175380D01*
X132143476Y-70175380D02*
X131572047Y-70175380D01*
X131857761Y-70175380D02*
X131857761Y-69175380D01*
X131762523Y-69318238D01*
X131667285Y-69413476D01*
X131572047Y-69461095D01*
X132762523Y-69175380D02*
X132857761Y-69175380D01*
X132953000Y-69223000D01*
X133000619Y-69270619D01*
X133048238Y-69365857D01*
X133095857Y-69556333D01*
X133095857Y-69794428D01*
X133048238Y-69984904D01*
X133000619Y-70080142D01*
X132953000Y-70127761D01*
X132857761Y-70175380D01*
X132762523Y-70175380D01*
X132667285Y-70127761D01*
X132619666Y-70080142D01*
X132572047Y-69984904D01*
X132524428Y-69794428D01*
X132524428Y-69556333D01*
X132572047Y-69365857D01*
X132619666Y-69270619D01*
X132667285Y-69223000D01*
X132762523Y-69175380D01*
X156511666Y-68032380D02*
X156511666Y-68746666D01*
X156464047Y-68889523D01*
X156368809Y-68984761D01*
X156225952Y-69032380D01*
X156130714Y-69032380D01*
X157035476Y-69032380D02*
X157225952Y-69032380D01*
X157321190Y-68984761D01*
X157368809Y-68937142D01*
X157464047Y-68794285D01*
X157511666Y-68603809D01*
X157511666Y-68222857D01*
X157464047Y-68127619D01*
X157416428Y-68080000D01*
X157321190Y-68032380D01*
X157130714Y-68032380D01*
X157035476Y-68080000D01*
X156987857Y-68127619D01*
X156940238Y-68222857D01*
X156940238Y-68460952D01*
X156987857Y-68556190D01*
X157035476Y-68603809D01*
X157130714Y-68651428D01*
X157321190Y-68651428D01*
X157416428Y-68603809D01*
X157464047Y-68556190D01*
X157511666Y-68460952D01*
X99666666Y-58507380D02*
X99666666Y-59221666D01*
X99619047Y-59364523D01*
X99523809Y-59459761D01*
X99380952Y-59507380D01*
X99285714Y-59507380D01*
X100285714Y-58935952D02*
X100190476Y-58888333D01*
X100142857Y-58840714D01*
X100095238Y-58745476D01*
X100095238Y-58697857D01*
X100142857Y-58602619D01*
X100190476Y-58555000D01*
X100285714Y-58507380D01*
X100476190Y-58507380D01*
X100571428Y-58555000D01*
X100619047Y-58602619D01*
X100666666Y-58697857D01*
X100666666Y-58745476D01*
X100619047Y-58840714D01*
X100571428Y-58888333D01*
X100476190Y-58935952D01*
X100285714Y-58935952D01*
X100190476Y-58983571D01*
X100142857Y-59031190D01*
X100095238Y-59126428D01*
X100095238Y-59316904D01*
X100142857Y-59412142D01*
X100190476Y-59459761D01*
X100285714Y-59507380D01*
X100476190Y-59507380D01*
X100571428Y-59459761D01*
X100619047Y-59412142D01*
X100666666Y-59316904D01*
X100666666Y-59126428D01*
X100619047Y-59031190D01*
X100571428Y-58983571D01*
X100476190Y-58935952D01*
X132127666Y-74763380D02*
X132127666Y-75477666D01*
X132080047Y-75620523D01*
X131984809Y-75715761D01*
X131841952Y-75763380D01*
X131746714Y-75763380D01*
X132508619Y-74763380D02*
X133175285Y-74763380D01*
X132746714Y-75763380D01*
X123166666Y-60952380D02*
X123166666Y-61666666D01*
X123119047Y-61809523D01*
X123023809Y-61904761D01*
X122880952Y-61952380D01*
X122785714Y-61952380D01*
X124071428Y-60952380D02*
X123880952Y-60952380D01*
X123785714Y-61000000D01*
X123738095Y-61047619D01*
X123642857Y-61190476D01*
X123595238Y-61380952D01*
X123595238Y-61761904D01*
X123642857Y-61857142D01*
X123690476Y-61904761D01*
X123785714Y-61952380D01*
X123976190Y-61952380D01*
X124071428Y-61904761D01*
X124119047Y-61857142D01*
X124166666Y-61761904D01*
X124166666Y-61523809D01*
X124119047Y-61428571D01*
X124071428Y-61380952D01*
X123976190Y-61333333D01*
X123785714Y-61333333D01*
X123690476Y-61380952D01*
X123642857Y-61428571D01*
X123595238Y-61523809D01*
X144613380Y-78946333D02*
X145327666Y-78946333D01*
X145470523Y-78993952D01*
X145565761Y-79089190D01*
X145613380Y-79232047D01*
X145613380Y-79327285D01*
X144613380Y-77993952D02*
X144613380Y-78470142D01*
X145089571Y-78517761D01*
X145041952Y-78470142D01*
X144994333Y-78374904D01*
X144994333Y-78136809D01*
X145041952Y-78041571D01*
X145089571Y-77993952D01*
X145184809Y-77946333D01*
X145422904Y-77946333D01*
X145518142Y-77993952D01*
X145565761Y-78041571D01*
X145613380Y-78136809D01*
X145613380Y-78374904D01*
X145565761Y-78470142D01*
X145518142Y-78517761D01*
X152447666Y-49236380D02*
X152447666Y-49950666D01*
X152400047Y-50093523D01*
X152304809Y-50188761D01*
X152161952Y-50236380D01*
X152066714Y-50236380D01*
X153352428Y-49569714D02*
X153352428Y-50236380D01*
X153114333Y-49188761D02*
X152876238Y-49903047D01*
X153495285Y-49903047D01*
X114728666Y-58888380D02*
X114728666Y-59602666D01*
X114681047Y-59745523D01*
X114585809Y-59840761D01*
X114442952Y-59888380D01*
X114347714Y-59888380D01*
X115109619Y-58888380D02*
X115728666Y-58888380D01*
X115395333Y-59269333D01*
X115538190Y-59269333D01*
X115633428Y-59316952D01*
X115681047Y-59364571D01*
X115728666Y-59459809D01*
X115728666Y-59697904D01*
X115681047Y-59793142D01*
X115633428Y-59840761D01*
X115538190Y-59888380D01*
X115252476Y-59888380D01*
X115157238Y-59840761D01*
X115109619Y-59793142D01*
X82470666Y-57237380D02*
X82470666Y-57951666D01*
X82423047Y-58094523D01*
X82327809Y-58189761D01*
X82184952Y-58237380D01*
X82089714Y-58237380D01*
X82899238Y-57332619D02*
X82946857Y-57285000D01*
X83042095Y-57237380D01*
X83280190Y-57237380D01*
X83375428Y-57285000D01*
X83423047Y-57332619D01*
X83470666Y-57427857D01*
X83470666Y-57523095D01*
X83423047Y-57665952D01*
X82851619Y-58237380D01*
X83470666Y-58237380D01*
X130008380Y-56213333D02*
X130722666Y-56213333D01*
X130865523Y-56260952D01*
X130960761Y-56356190D01*
X131008380Y-56499047D01*
X131008380Y-56594285D01*
X131008380Y-55213333D02*
X131008380Y-55784761D01*
X131008380Y-55499047D02*
X130008380Y-55499047D01*
X130151238Y-55594285D01*
X130246476Y-55689523D01*
X130294095Y-55784761D01*
X157313333Y-56364142D02*
X157265714Y-56411761D01*
X157122857Y-56459380D01*
X157027619Y-56459380D01*
X156884761Y-56411761D01*
X156789523Y-56316523D01*
X156741904Y-56221285D01*
X156694285Y-56030809D01*
X156694285Y-55887952D01*
X156741904Y-55697476D01*
X156789523Y-55602238D01*
X156884761Y-55507000D01*
X157027619Y-55459380D01*
X157122857Y-55459380D01*
X157265714Y-55507000D01*
X157313333Y-55554619D01*
X157694285Y-55554619D02*
X157741904Y-55507000D01*
X157837142Y-55459380D01*
X158075238Y-55459380D01*
X158170476Y-55507000D01*
X158218095Y-55554619D01*
X158265714Y-55649857D01*
X158265714Y-55745095D01*
X158218095Y-55887952D01*
X157646666Y-56459380D01*
X158265714Y-56459380D01*
X131278333Y-60428142D02*
X131230714Y-60475761D01*
X131087857Y-60523380D01*
X130992619Y-60523380D01*
X130849761Y-60475761D01*
X130754523Y-60380523D01*
X130706904Y-60285285D01*
X130659285Y-60094809D01*
X130659285Y-59951952D01*
X130706904Y-59761476D01*
X130754523Y-59666238D01*
X130849761Y-59571000D01*
X130992619Y-59523380D01*
X131087857Y-59523380D01*
X131230714Y-59571000D01*
X131278333Y-59618619D01*
X132230714Y-60523380D02*
X131659285Y-60523380D01*
X131945000Y-60523380D02*
X131945000Y-59523380D01*
X131849761Y-59666238D01*
X131754523Y-59761476D01*
X131659285Y-59809095D01*
X115119047Y-67428571D02*
X115261904Y-67476190D01*
X115309523Y-67523809D01*
X115357142Y-67619047D01*
X115357142Y-67761904D01*
X115309523Y-67857142D01*
X115261904Y-67904761D01*
X115166666Y-67952380D01*
X114785714Y-67952380D01*
X114785714Y-66952380D01*
X115119047Y-66952380D01*
X115214285Y-67000000D01*
X115261904Y-67047619D01*
X115309523Y-67142857D01*
X115309523Y-67238095D01*
X115261904Y-67333333D01*
X115214285Y-67380952D01*
X115119047Y-67428571D01*
X114785714Y-67428571D01*
X115690476Y-66952380D02*
X116357142Y-66952380D01*
X115690476Y-67952380D01*
X116357142Y-67952380D01*
X117261904Y-67952380D02*
X116690476Y-67952380D01*
X116976190Y-67952380D02*
X116976190Y-66952380D01*
X116880952Y-67095238D01*
X116785714Y-67190476D01*
X116690476Y-67238095D01*
X117119047Y-71071428D02*
X117880952Y-71071428D01*
X117500000Y-71452380D02*
X117500000Y-70690476D01*
X158035714Y-49569666D02*
X158511904Y-49569666D01*
X157940476Y-49855380D02*
X158273809Y-48855380D01*
X158607142Y-49855380D01*
X159464285Y-49855380D02*
X158892857Y-49855380D01*
X159178571Y-49855380D02*
X159178571Y-48855380D01*
X159083333Y-48998238D01*
X158988095Y-49093476D01*
X158892857Y-49141095D01*
%LPC*%
D13*
X106500000Y-61750000D03*
X103000000Y-69250000D03*
D14*
X86500000Y-61750000D03*
X86500000Y-69250000D03*
G36*
G01*
X152950000Y-62750000D02*
X154050000Y-62750000D01*
G75*
G02*
X154300000Y-63000000I0J-250000D01*
G01*
X154300000Y-66000000D01*
G75*
G02*
X154050000Y-66250000I-250000J0D01*
G01*
X152950000Y-66250000D01*
G75*
G02*
X152700000Y-66000000I0J250000D01*
G01*
X152700000Y-63000000D01*
G75*
G02*
X152950000Y-62750000I250000J0D01*
G01*
G37*
G36*
G01*
X152950000Y-57350000D02*
X154050000Y-57350000D01*
G75*
G02*
X154300000Y-57600000I0J-250000D01*
G01*
X154300000Y-60600000D01*
G75*
G02*
X154050000Y-60850000I-250000J0D01*
G01*
X152950000Y-60850000D01*
G75*
G02*
X152700000Y-60600000I0J250000D01*
G01*
X152700000Y-57600000D01*
G75*
G02*
X152950000Y-57350000I250000J0D01*
G01*
G37*
D15*
X147000000Y-62000000D03*
G36*
G01*
X145245000Y-60500000D02*
X144945000Y-60500000D01*
G75*
G02*
X144795000Y-60350000I0J150000D01*
G01*
X144795000Y-58700000D01*
G75*
G02*
X144945000Y-58550000I150000J0D01*
G01*
X145245000Y-58550000D01*
G75*
G02*
X145395000Y-58700000I0J-150000D01*
G01*
X145395000Y-60350000D01*
G75*
G02*
X145245000Y-60500000I-150000J0D01*
G01*
G37*
G36*
G01*
X146515000Y-60500000D02*
X146215000Y-60500000D01*
G75*
G02*
X146065000Y-60350000I0J150000D01*
G01*
X146065000Y-58700000D01*
G75*
G02*
X146215000Y-58550000I150000J0D01*
G01*
X146515000Y-58550000D01*
G75*
G02*
X146665000Y-58700000I0J-150000D01*
G01*
X146665000Y-60350000D01*
G75*
G02*
X146515000Y-60500000I-150000J0D01*
G01*
G37*
G36*
G01*
X147785000Y-60500000D02*
X147485000Y-60500000D01*
G75*
G02*
X147335000Y-60350000I0J150000D01*
G01*
X147335000Y-58700000D01*
G75*
G02*
X147485000Y-58550000I150000J0D01*
G01*
X147785000Y-58550000D01*
G75*
G02*
X147935000Y-58700000I0J-150000D01*
G01*
X147935000Y-60350000D01*
G75*
G02*
X147785000Y-60500000I-150000J0D01*
G01*
G37*
G36*
G01*
X149055000Y-60500000D02*
X148755000Y-60500000D01*
G75*
G02*
X148605000Y-60350000I0J150000D01*
G01*
X148605000Y-58700000D01*
G75*
G02*
X148755000Y-58550000I150000J0D01*
G01*
X149055000Y-58550000D01*
G75*
G02*
X149205000Y-58700000I0J-150000D01*
G01*
X149205000Y-60350000D01*
G75*
G02*
X149055000Y-60500000I-150000J0D01*
G01*
G37*
G36*
G01*
X149055000Y-65450000D02*
X148755000Y-65450000D01*
G75*
G02*
X148605000Y-65300000I0J150000D01*
G01*
X148605000Y-63650000D01*
G75*
G02*
X148755000Y-63500000I150000J0D01*
G01*
X149055000Y-63500000D01*
G75*
G02*
X149205000Y-63650000I0J-150000D01*
G01*
X149205000Y-65300000D01*
G75*
G02*
X149055000Y-65450000I-150000J0D01*
G01*
G37*
G36*
G01*
X147785000Y-65450000D02*
X147485000Y-65450000D01*
G75*
G02*
X147335000Y-65300000I0J150000D01*
G01*
X147335000Y-63650000D01*
G75*
G02*
X147485000Y-63500000I150000J0D01*
G01*
X147785000Y-63500000D01*
G75*
G02*
X147935000Y-63650000I0J-150000D01*
G01*
X147935000Y-65300000D01*
G75*
G02*
X147785000Y-65450000I-150000J0D01*
G01*
G37*
G36*
G01*
X146515000Y-65450000D02*
X146215000Y-65450000D01*
G75*
G02*
X146065000Y-65300000I0J150000D01*
G01*
X146065000Y-63650000D01*
G75*
G02*
X146215000Y-63500000I150000J0D01*
G01*
X146515000Y-63500000D01*
G75*
G02*
X146665000Y-63650000I0J-150000D01*
G01*
X146665000Y-65300000D01*
G75*
G02*
X146515000Y-65450000I-150000J0D01*
G01*
G37*
G36*
G01*
X145245000Y-65450000D02*
X144945000Y-65450000D01*
G75*
G02*
X144795000Y-65300000I0J150000D01*
G01*
X144795000Y-63650000D01*
G75*
G02*
X144945000Y-63500000I150000J0D01*
G01*
X145245000Y-63500000D01*
G75*
G02*
X145395000Y-63650000I0J-150000D01*
G01*
X145395000Y-65300000D01*
G75*
G02*
X145245000Y-65450000I-150000J0D01*
G01*
G37*
D16*
X142800000Y-59700000D03*
X138200000Y-59700000D03*
X140500000Y-59700000D03*
D17*
X140500000Y-66000000D03*
G36*
G01*
X132049999Y-78900000D02*
X132950001Y-78900000D01*
G75*
G02*
X133200000Y-79149999I0J-249999D01*
G01*
X133200000Y-79850001D01*
G75*
G02*
X132950001Y-80100000I-249999J0D01*
G01*
X132049999Y-80100000D01*
G75*
G02*
X131800000Y-79850001I0J249999D01*
G01*
X131800000Y-79149999D01*
G75*
G02*
X132049999Y-78900000I249999J0D01*
G01*
G37*
G36*
G01*
X132049999Y-76900000D02*
X132950001Y-76900000D01*
G75*
G02*
X133200000Y-77149999I0J-249999D01*
G01*
X133200000Y-77850001D01*
G75*
G02*
X132950001Y-78100000I-249999J0D01*
G01*
X132049999Y-78100000D01*
G75*
G02*
X131800000Y-77850001I0J249999D01*
G01*
X131800000Y-77149999D01*
G75*
G02*
X132049999Y-76900000I249999J0D01*
G01*
G37*
G36*
G01*
X154900000Y-54450001D02*
X154900000Y-53549999D01*
G75*
G02*
X155149999Y-53300000I249999J0D01*
G01*
X155850001Y-53300000D01*
G75*
G02*
X156100000Y-53549999I0J-249999D01*
G01*
X156100000Y-54450001D01*
G75*
G02*
X155850001Y-54700000I-249999J0D01*
G01*
X155149999Y-54700000D01*
G75*
G02*
X154900000Y-54450001I0J249999D01*
G01*
G37*
G36*
G01*
X152900000Y-54450001D02*
X152900000Y-53549999D01*
G75*
G02*
X153149999Y-53300000I249999J0D01*
G01*
X153850001Y-53300000D01*
G75*
G02*
X154100000Y-53549999I0J-249999D01*
G01*
X154100000Y-54450001D01*
G75*
G02*
X153850001Y-54700000I-249999J0D01*
G01*
X153149999Y-54700000D01*
G75*
G02*
X152900000Y-54450001I0J249999D01*
G01*
G37*
G36*
G01*
X146600000Y-67748999D02*
X146600000Y-68649001D01*
G75*
G02*
X146350001Y-68899000I-249999J0D01*
G01*
X145649999Y-68899000D01*
G75*
G02*
X145400000Y-68649001I0J249999D01*
G01*
X145400000Y-67748999D01*
G75*
G02*
X145649999Y-67499000I249999J0D01*
G01*
X146350001Y-67499000D01*
G75*
G02*
X146600000Y-67748999I0J-249999D01*
G01*
G37*
G36*
G01*
X148600000Y-67748999D02*
X148600000Y-68649001D01*
G75*
G02*
X148350001Y-68899000I-249999J0D01*
G01*
X147649999Y-68899000D01*
G75*
G02*
X147400000Y-68649001I0J249999D01*
G01*
X147400000Y-67748999D01*
G75*
G02*
X147649999Y-67499000I249999J0D01*
G01*
X148350001Y-67499000D01*
G75*
G02*
X148600000Y-67748999I0J-249999D01*
G01*
G37*
G36*
G01*
X150100000Y-67748999D02*
X150100000Y-68649001D01*
G75*
G02*
X149850001Y-68899000I-249999J0D01*
G01*
X149149999Y-68899000D01*
G75*
G02*
X148900000Y-68649001I0J249999D01*
G01*
X148900000Y-67748999D01*
G75*
G02*
X149149999Y-67499000I249999J0D01*
G01*
X149850001Y-67499000D01*
G75*
G02*
X150100000Y-67748999I0J-249999D01*
G01*
G37*
G36*
G01*
X152100000Y-67748999D02*
X152100000Y-68649001D01*
G75*
G02*
X151850001Y-68899000I-249999J0D01*
G01*
X151149999Y-68899000D01*
G75*
G02*
X150900000Y-68649001I0J249999D01*
G01*
X150900000Y-67748999D01*
G75*
G02*
X151149999Y-67499000I249999J0D01*
G01*
X151850001Y-67499000D01*
G75*
G02*
X152100000Y-67748999I0J-249999D01*
G01*
G37*
D18*
X88500000Y-72500000D03*
X90500000Y-71550000D03*
X90500000Y-73450000D03*
X123000000Y-78500000D03*
X125000000Y-77550000D03*
X125000000Y-79450000D03*
D19*
X141500000Y-70500000D03*
X139000000Y-70500000D03*
G36*
G01*
X135650000Y-71225000D02*
X135650000Y-69775000D01*
G75*
G02*
X135900000Y-69525000I250000J0D01*
G01*
X137100000Y-69525000D01*
G75*
G02*
X137350000Y-69775000I0J-250000D01*
G01*
X137350000Y-71225000D01*
G75*
G02*
X137100000Y-71475000I-250000J0D01*
G01*
X135900000Y-71475000D01*
G75*
G02*
X135650000Y-71225000I0J250000D01*
G01*
G37*
X148000000Y-73000000D03*
X150500000Y-73000000D03*
X153000000Y-73000000D03*
G36*
G01*
X156350000Y-72275000D02*
X156350000Y-73725000D01*
G75*
G02*
X156100000Y-73975000I-250000J0D01*
G01*
X154900000Y-73975000D01*
G75*
G02*
X154650000Y-73725000I0J250000D01*
G01*
X154650000Y-72275000D01*
G75*
G02*
X154900000Y-72025000I250000J0D01*
G01*
X156100000Y-72025000D01*
G75*
G02*
X156350000Y-72275000I0J-250000D01*
G01*
G37*
D20*
X112000000Y-53000000D03*
X107000000Y-53000000D03*
D21*
X102000000Y-53000000D03*
D19*
X141500000Y-77500000D03*
X139000000Y-77500000D03*
G36*
G01*
X135650000Y-78225000D02*
X135650000Y-76775000D01*
G75*
G02*
X135900000Y-76525000I250000J0D01*
G01*
X137100000Y-76525000D01*
G75*
G02*
X137350000Y-76775000I0J-250000D01*
G01*
X137350000Y-78225000D01*
G75*
G02*
X137100000Y-78475000I-250000J0D01*
G01*
X135900000Y-78475000D01*
G75*
G02*
X135650000Y-78225000I0J250000D01*
G01*
G37*
X133000000Y-63500000D03*
X130500000Y-63500000D03*
G36*
G01*
X127150000Y-64225000D02*
X127150000Y-62775000D01*
G75*
G02*
X127400000Y-62525000I250000J0D01*
G01*
X128600000Y-62525000D01*
G75*
G02*
X128850000Y-62775000I0J-250000D01*
G01*
X128850000Y-64225000D01*
G75*
G02*
X128600000Y-64475000I-250000J0D01*
G01*
X127400000Y-64475000D01*
G75*
G02*
X127150000Y-64225000I0J250000D01*
G01*
G37*
D22*
X148000000Y-79000000D03*
X150000000Y-79000000D03*
X152000000Y-79000000D03*
X154000000Y-79000000D03*
G36*
G01*
X156600000Y-78374999D02*
X156600000Y-79625001D01*
G75*
G02*
X156350001Y-79875000I-249999J0D01*
G01*
X155649999Y-79875000D01*
G75*
G02*
X155400000Y-79625001I0J249999D01*
G01*
X155400000Y-78374999D01*
G75*
G02*
X155649999Y-78125000I249999J0D01*
G01*
X156350001Y-78125000D01*
G75*
G02*
X156600000Y-78374999I0J-249999D01*
G01*
G37*
D20*
X149000000Y-53000000D03*
D21*
X144000000Y-53000000D03*
D20*
X127000000Y-53000000D03*
X122000000Y-53000000D03*
D21*
X117000000Y-53000000D03*
D20*
X97000000Y-53000000D03*
X92000000Y-53000000D03*
D21*
X87000000Y-53000000D03*
D20*
X139000000Y-53000000D03*
D21*
X134000000Y-53000000D03*
G36*
G01*
X154987500Y-56475000D02*
X154987500Y-55525000D01*
G75*
G02*
X155237500Y-55275000I250000J0D01*
G01*
X155912500Y-55275000D01*
G75*
G02*
X156162500Y-55525000I0J-250000D01*
G01*
X156162500Y-56475000D01*
G75*
G02*
X155912500Y-56725000I-250000J0D01*
G01*
X155237500Y-56725000D01*
G75*
G02*
X154987500Y-56475000I0J250000D01*
G01*
G37*
G36*
G01*
X152912500Y-56475000D02*
X152912500Y-55525000D01*
G75*
G02*
X153162500Y-55275000I250000J0D01*
G01*
X153837500Y-55275000D01*
G75*
G02*
X154087500Y-55525000I0J-250000D01*
G01*
X154087500Y-56475000D01*
G75*
G02*
X153837500Y-56725000I-250000J0D01*
G01*
X153162500Y-56725000D01*
G75*
G02*
X152912500Y-56475000I0J250000D01*
G01*
G37*
G36*
G01*
X134512500Y-59025000D02*
X134512500Y-59975000D01*
G75*
G02*
X134262500Y-60225000I-250000J0D01*
G01*
X133587500Y-60225000D01*
G75*
G02*
X133337500Y-59975000I0J250000D01*
G01*
X133337500Y-59025000D01*
G75*
G02*
X133587500Y-58775000I250000J0D01*
G01*
X134262500Y-58775000D01*
G75*
G02*
X134512500Y-59025000I0J-250000D01*
G01*
G37*
G36*
G01*
X136587500Y-59025000D02*
X136587500Y-59975000D01*
G75*
G02*
X136337500Y-60225000I-250000J0D01*
G01*
X135662500Y-60225000D01*
G75*
G02*
X135412500Y-59975000I0J250000D01*
G01*
X135412500Y-59025000D01*
G75*
G02*
X135662500Y-58775000I250000J0D01*
G01*
X136337500Y-58775000D01*
G75*
G02*
X136587500Y-59025000I0J-250000D01*
G01*
G37*
D23*
X116000000Y-77750000D03*
X116000000Y-71250000D03*
D24*
X176500000Y-52000000D03*
X176500000Y-54540000D03*
X176500000Y-57080000D03*
X176500000Y-59620000D03*
X176500000Y-62160000D03*
X176500000Y-64700000D03*
X176500000Y-67240000D03*
X176500000Y-69780000D03*
X176500000Y-72320000D03*
X176500000Y-74860000D03*
X176500000Y-77400000D03*
X176500000Y-79940000D03*
X161260000Y-79940000D03*
X161260000Y-77400000D03*
X161260000Y-74860000D03*
X161260000Y-72320000D03*
X161260000Y-69780000D03*
X161260000Y-67240000D03*
X161260000Y-64700000D03*
X161260000Y-62160000D03*
X161260000Y-59620000D03*
X161260000Y-57080000D03*
X161260000Y-54540000D03*
X161260000Y-52000000D03*
M02*
