%FSLAX45Y45*%
G04 Gerber Fmt 4.5, Leading zero omitted, Abs format (unit mm)*
G04 Created by KiCad (PCBNEW (5.1.9)-1) date 2021-05-18 22:58:01*
%MOMM*%
%LPD*%
G01*
G04 APERTURE LIST*
%TA.AperFunction,Profile*%
%ADD10C,0.025400*%
%TD*%
%ADD11C,0.200000*%
%ADD12C,0.300000*%
G04 APERTURE END LIST*
D10*
X8265000Y-7900000D02*
G75*
G03*
X8265000Y-7900000I-165000J0D01*
G01*
X17065000Y-7900000D02*
G75*
G03*
X17065000Y-7900000I-165000J0D01*
G01*
X7800000Y-8200000D02*
X7800000Y-4800000D01*
X17800000Y-8200000D02*
X7800000Y-8200000D01*
X17800000Y-4800000D02*
X17800000Y-8200000D01*
X17065000Y-5100000D02*
G75*
G03*
X17065000Y-5100000I-165000J0D01*
G01*
X8265000Y-5100000D02*
G75*
G03*
X8265000Y-5100000I-165000J0D01*
G01*
X7800000Y-4800000D02*
X17800000Y-4800000D01*
D11*
D12*
X8085158Y-8666984D02*
X8085158Y-8366984D01*
X8156587Y-8366984D01*
X8199444Y-8381270D01*
X8228016Y-8409842D01*
X8242301Y-8438413D01*
X8256587Y-8495556D01*
X8256587Y-8538413D01*
X8242301Y-8595556D01*
X8228016Y-8624127D01*
X8199444Y-8652699D01*
X8156587Y-8666984D01*
X8085158Y-8666984D01*
X8385158Y-8666984D02*
X8385158Y-8466984D01*
X8385158Y-8524127D02*
X8399444Y-8495556D01*
X8413730Y-8481270D01*
X8442301Y-8466984D01*
X8470873Y-8466984D01*
X8570873Y-8666984D02*
X8570873Y-8466984D01*
X8570873Y-8366984D02*
X8556587Y-8381270D01*
X8570873Y-8395556D01*
X8585158Y-8381270D01*
X8570873Y-8366984D01*
X8570873Y-8395556D01*
X8756587Y-8666984D02*
X8728016Y-8652699D01*
X8713730Y-8624127D01*
X8713730Y-8366984D01*
X8913730Y-8666984D02*
X8885158Y-8652699D01*
X8870873Y-8624127D01*
X8870873Y-8366984D01*
X9256587Y-8666984D02*
X9256587Y-8366984D01*
X9356587Y-8581270D01*
X9456587Y-8366984D01*
X9456587Y-8666984D01*
X9728016Y-8666984D02*
X9728016Y-8509842D01*
X9713730Y-8481270D01*
X9685158Y-8466984D01*
X9628016Y-8466984D01*
X9599444Y-8481270D01*
X9728016Y-8652699D02*
X9699444Y-8666984D01*
X9628016Y-8666984D01*
X9599444Y-8652699D01*
X9585158Y-8624127D01*
X9585158Y-8595556D01*
X9599444Y-8566984D01*
X9628016Y-8552699D01*
X9699444Y-8552699D01*
X9728016Y-8538413D01*
X9870873Y-8466984D02*
X9870873Y-8766984D01*
X9870873Y-8481270D02*
X9899444Y-8466984D01*
X9956587Y-8466984D01*
X9985158Y-8481270D01*
X9999444Y-8495556D01*
X10013730Y-8524127D01*
X10013730Y-8609842D01*
X9999444Y-8638413D01*
X9985158Y-8652699D01*
X9956587Y-8666984D01*
X9899444Y-8666984D01*
X9870873Y-8652699D01*
X10142301Y-8638413D02*
X10156587Y-8652699D01*
X10142301Y-8666984D01*
X10128016Y-8652699D01*
X10142301Y-8638413D01*
X10142301Y-8666984D01*
X10142301Y-8481270D02*
X10156587Y-8495556D01*
X10142301Y-8509842D01*
X10128016Y-8495556D01*
X10142301Y-8481270D01*
X10142301Y-8509842D01*
M02*
